<?xml version="1.0" encoding="utf-8" standalone="no"?>
<!DOCTYPE svg PUBLIC "-//W3C//DTD SVG 1.1//EN"
  "http://www.w3.org/Graphics/SVG/1.1/DTD/svg11.dtd">
<svg xmlns:xlink="http://www.w3.org/1999/xlink" width="434.463125pt" height="385.823725pt" viewBox="0 0 434.463125 385.823725" xmlns="http://www.w3.org/2000/svg" version="1.1">
 <metadata>
  <rdf:RDF xmlns:dc="http://purl.org/dc/elements/1.1/" xmlns:cc="http://creativecommons.org/ns#" xmlns:rdf="http://www.w3.org/1999/02/22-rdf-syntax-ns#">
   <cc:Work>
    <dc:type rdf:resource="http://purl.org/dc/dcmitype/StillImage"/>
    <dc:date>2022-11-22T22:31:19.753624</dc:date>
    <dc:format>image/svg+xml</dc:format>
    <dc:creator>
     <cc:Agent>
      <dc:title>Matplotlib v3.6.1, https://matplotlib.org/</dc:title>
     </cc:Agent>
    </dc:creator>
   </cc:Work>
  </rdf:RDF>
 </metadata>
 <defs>
  <style type="text/css">*{stroke-linejoin: round; stroke-linecap: butt}</style>
 </defs>
 <g id="figure_1">
  <g id="patch_1">
   <path d="M 0 385.823725 
L 434.463125 385.823725 
L 434.463125 0 
L 0 0 
z
" style="fill: #ffffff"/>
  </g>
  <g id="axes_1">
   <g id="patch_2">
    <path d="M 44.303125 348.1456 
L 401.423125 348.1456 
L 401.423125 82.0336 
L 44.303125 82.0336 
z
" style="fill: #ffffff"/>
   </g>
   <g id="matplotlib.axis_1">
    <g id="xtick_1">
     <g id="line2d_1">
      <defs>
       <path id="m70f3611298" d="M 0 0 
L 0 3.5 
" style="stroke: #000000; stroke-width: 0.8"/>
      </defs>
      <g>
       <use xlink:href="#m70f3611298" x="44.303125" y="348.1456" style="stroke: #000000; stroke-width: 0.8"/>
      </g>
     </g>
     <g id="text_1">
      <!-- 0.0 -->
      <g transform="translate(36.351563 362.744037) scale(0.1 -0.1)">
       <defs>
        <path id="DejaVuSans-30" d="M 2034 4250 
Q 1547 4250 1301 3770 
Q 1056 3291 1056 2328 
Q 1056 1369 1301 889 
Q 1547 409 2034 409 
Q 2525 409 2770 889 
Q 3016 1369 3016 2328 
Q 3016 3291 2770 3770 
Q 2525 4250 2034 4250 
z
M 2034 4750 
Q 2819 4750 3233 4129 
Q 3647 3509 3647 2328 
Q 3647 1150 3233 529 
Q 2819 -91 2034 -91 
Q 1250 -91 836 529 
Q 422 1150 422 2328 
Q 422 3509 836 4129 
Q 1250 4750 2034 4750 
z
" transform="scale(0.015625)"/>
        <path id="DejaVuSans-2e" d="M 684 794 
L 1344 794 
L 1344 0 
L 684 0 
L 684 794 
z
" transform="scale(0.015625)"/>
       </defs>
       <use xlink:href="#DejaVuSans-30"/>
       <use xlink:href="#DejaVuSans-2e" x="63.623047"/>
       <use xlink:href="#DejaVuSans-30" x="95.410156"/>
      </g>
     </g>
    </g>
    <g id="xtick_2">
     <g id="line2d_2">
      <g>
       <use xlink:href="#m70f3611298" x="103.823125" y="348.1456" style="stroke: #000000; stroke-width: 0.8"/>
      </g>
     </g>
     <g id="text_2">
      <!-- 0.2 -->
      <g transform="translate(95.871563 362.744037) scale(0.1 -0.1)">
       <defs>
        <path id="DejaVuSans-32" d="M 1228 531 
L 3431 531 
L 3431 0 
L 469 0 
L 469 531 
Q 828 903 1448 1529 
Q 2069 2156 2228 2338 
Q 2531 2678 2651 2914 
Q 2772 3150 2772 3378 
Q 2772 3750 2511 3984 
Q 2250 4219 1831 4219 
Q 1534 4219 1204 4116 
Q 875 4013 500 3803 
L 500 4441 
Q 881 4594 1212 4672 
Q 1544 4750 1819 4750 
Q 2544 4750 2975 4387 
Q 3406 4025 3406 3419 
Q 3406 3131 3298 2873 
Q 3191 2616 2906 2266 
Q 2828 2175 2409 1742 
Q 1991 1309 1228 531 
z
" transform="scale(0.015625)"/>
       </defs>
       <use xlink:href="#DejaVuSans-30"/>
       <use xlink:href="#DejaVuSans-2e" x="63.623047"/>
       <use xlink:href="#DejaVuSans-32" x="95.410156"/>
      </g>
     </g>
    </g>
    <g id="xtick_3">
     <g id="line2d_3">
      <g>
       <use xlink:href="#m70f3611298" x="163.343125" y="348.1456" style="stroke: #000000; stroke-width: 0.8"/>
      </g>
     </g>
     <g id="text_3">
      <!-- 0.4 -->
      <g transform="translate(155.391563 362.744037) scale(0.1 -0.1)">
       <defs>
        <path id="DejaVuSans-34" d="M 2419 4116 
L 825 1625 
L 2419 1625 
L 2419 4116 
z
M 2253 4666 
L 3047 4666 
L 3047 1625 
L 3713 1625 
L 3713 1100 
L 3047 1100 
L 3047 0 
L 2419 0 
L 2419 1100 
L 313 1100 
L 313 1709 
L 2253 4666 
z
" transform="scale(0.015625)"/>
       </defs>
       <use xlink:href="#DejaVuSans-30"/>
       <use xlink:href="#DejaVuSans-2e" x="63.623047"/>
       <use xlink:href="#DejaVuSans-34" x="95.410156"/>
      </g>
     </g>
    </g>
    <g id="xtick_4">
     <g id="line2d_4">
      <g>
       <use xlink:href="#m70f3611298" x="222.863125" y="348.1456" style="stroke: #000000; stroke-width: 0.8"/>
      </g>
     </g>
     <g id="text_4">
      <!-- 0.6 -->
      <g transform="translate(214.911563 362.744037) scale(0.1 -0.1)">
       <defs>
        <path id="DejaVuSans-36" d="M 2113 2584 
Q 1688 2584 1439 2293 
Q 1191 2003 1191 1497 
Q 1191 994 1439 701 
Q 1688 409 2113 409 
Q 2538 409 2786 701 
Q 3034 994 3034 1497 
Q 3034 2003 2786 2293 
Q 2538 2584 2113 2584 
z
M 3366 4563 
L 3366 3988 
Q 3128 4100 2886 4159 
Q 2644 4219 2406 4219 
Q 1781 4219 1451 3797 
Q 1122 3375 1075 2522 
Q 1259 2794 1537 2939 
Q 1816 3084 2150 3084 
Q 2853 3084 3261 2657 
Q 3669 2231 3669 1497 
Q 3669 778 3244 343 
Q 2819 -91 2113 -91 
Q 1303 -91 875 529 
Q 447 1150 447 2328 
Q 447 3434 972 4092 
Q 1497 4750 2381 4750 
Q 2619 4750 2861 4703 
Q 3103 4656 3366 4563 
z
" transform="scale(0.015625)"/>
       </defs>
       <use xlink:href="#DejaVuSans-30"/>
       <use xlink:href="#DejaVuSans-2e" x="63.623047"/>
       <use xlink:href="#DejaVuSans-36" x="95.410156"/>
      </g>
     </g>
    </g>
    <g id="xtick_5">
     <g id="line2d_5">
      <g>
       <use xlink:href="#m70f3611298" x="282.383125" y="348.1456" style="stroke: #000000; stroke-width: 0.8"/>
      </g>
     </g>
     <g id="text_5">
      <!-- 0.8 -->
      <g transform="translate(274.431563 362.744037) scale(0.1 -0.1)">
       <defs>
        <path id="DejaVuSans-38" d="M 2034 2216 
Q 1584 2216 1326 1975 
Q 1069 1734 1069 1313 
Q 1069 891 1326 650 
Q 1584 409 2034 409 
Q 2484 409 2743 651 
Q 3003 894 3003 1313 
Q 3003 1734 2745 1975 
Q 2488 2216 2034 2216 
z
M 1403 2484 
Q 997 2584 770 2862 
Q 544 3141 544 3541 
Q 544 4100 942 4425 
Q 1341 4750 2034 4750 
Q 2731 4750 3128 4425 
Q 3525 4100 3525 3541 
Q 3525 3141 3298 2862 
Q 3072 2584 2669 2484 
Q 3125 2378 3379 2068 
Q 3634 1759 3634 1313 
Q 3634 634 3220 271 
Q 2806 -91 2034 -91 
Q 1263 -91 848 271 
Q 434 634 434 1313 
Q 434 1759 690 2068 
Q 947 2378 1403 2484 
z
M 1172 3481 
Q 1172 3119 1398 2916 
Q 1625 2713 2034 2713 
Q 2441 2713 2670 2916 
Q 2900 3119 2900 3481 
Q 2900 3844 2670 4047 
Q 2441 4250 2034 4250 
Q 1625 4250 1398 4047 
Q 1172 3844 1172 3481 
z
" transform="scale(0.015625)"/>
       </defs>
       <use xlink:href="#DejaVuSans-30"/>
       <use xlink:href="#DejaVuSans-2e" x="63.623047"/>
       <use xlink:href="#DejaVuSans-38" x="95.410156"/>
      </g>
     </g>
    </g>
    <g id="xtick_6">
     <g id="line2d_6">
      <g>
       <use xlink:href="#m70f3611298" x="341.903125" y="348.1456" style="stroke: #000000; stroke-width: 0.8"/>
      </g>
     </g>
     <g id="text_6">
      <!-- 1.0 -->
      <g transform="translate(333.951563 362.744037) scale(0.1 -0.1)">
       <defs>
        <path id="DejaVuSans-31" d="M 794 531 
L 1825 531 
L 1825 4091 
L 703 3866 
L 703 4441 
L 1819 4666 
L 2450 4666 
L 2450 531 
L 3481 531 
L 3481 0 
L 794 0 
L 794 531 
z
" transform="scale(0.015625)"/>
       </defs>
       <use xlink:href="#DejaVuSans-31"/>
       <use xlink:href="#DejaVuSans-2e" x="63.623047"/>
       <use xlink:href="#DejaVuSans-30" x="95.410156"/>
      </g>
     </g>
    </g>
    <g id="xtick_7">
     <g id="line2d_7">
      <g>
       <use xlink:href="#m70f3611298" x="401.423125" y="348.1456" style="stroke: #000000; stroke-width: 0.8"/>
      </g>
     </g>
     <g id="text_7">
      <!-- 1.2 -->
      <g transform="translate(393.471563 362.744037) scale(0.1 -0.1)">
       <use xlink:href="#DejaVuSans-31"/>
       <use xlink:href="#DejaVuSans-2e" x="63.623047"/>
       <use xlink:href="#DejaVuSans-32" x="95.410156"/>
      </g>
     </g>
    </g>
    <g id="text_8">
     <!-- $\tilde{u}_x$ -->
     <g transform="translate(217.413125 376.544037) scale(0.1 -0.1)">
      <defs>
       <path id="DejaVuSans-303" d="M -1621 4281 
L -1799 4453 
Q -1867 4516 -1919 4545 
Q -1971 4575 -2011 4575 
Q -2130 4575 -2186 4461 
Q -2242 4347 -2249 4091 
L -2639 4091 
Q -2633 4513 -2473 4742 
Q -2314 4972 -2030 4972 
Q -1911 4972 -1811 4928 
Q -1711 4884 -1596 4781 
L -1417 4609 
Q -1349 4547 -1297 4517 
Q -1246 4488 -1205 4488 
Q -1086 4488 -1030 4602 
Q -974 4716 -967 4972 
L -577 4972 
Q -583 4550 -742 4320 
Q -902 4091 -1186 4091 
Q -1305 4091 -1405 4134 
Q -1505 4178 -1621 4281 
z
" transform="scale(0.015625)"/>
       <path id="DejaVuSans-Oblique-75" d="M 428 1388 
L 838 3500 
L 1416 3500 
L 1006 1409 
Q 975 1256 961 1147 
Q 947 1038 947 966 
Q 947 700 1109 554 
Q 1272 409 1569 409 
Q 2031 409 2368 721 
Q 2706 1034 2809 1563 
L 3194 3500 
L 3769 3500 
L 3091 0 
L 2516 0 
L 2631 550 
Q 2388 244 2052 76 
Q 1716 -91 1338 -91 
Q 878 -91 622 161 
Q 366 413 366 863 
Q 366 956 381 1097 
Q 397 1238 428 1388 
z
" transform="scale(0.015625)"/>
       <path id="DejaVuSans-Oblique-78" d="M 3841 3500 
L 2234 1784 
L 3219 0 
L 2559 0 
L 1819 1388 
L 531 0 
L -166 0 
L 1556 1844 
L 641 3500 
L 1300 3500 
L 1972 2234 
L 3144 3500 
L 3841 3500 
z
" transform="scale(0.015625)"/>
      </defs>
      <use xlink:href="#DejaVuSans-303" transform="translate(65.079102 3.3125)"/>
      <use xlink:href="#DejaVuSans-Oblique-75" transform="translate(0 0.046875)"/>
      <use xlink:href="#DejaVuSans-Oblique-78" transform="translate(64.335938 -16.359375) scale(0.7)"/>
     </g>
    </g>
   </g>
   <g id="matplotlib.axis_2">
    <g id="ytick_1">
     <g id="line2d_8">
      <defs>
       <path id="m58d763d6b2" d="M 0 0 
L -3.5 0 
" style="stroke: #000000; stroke-width: 0.8"/>
      </defs>
      <g>
       <use xlink:href="#m58d763d6b2" x="44.303125" y="342.927718" style="stroke: #000000; stroke-width: 0.8"/>
      </g>
     </g>
     <g id="text_9">
      <!-- 0.0 -->
      <g transform="translate(21.4 346.726936) scale(0.1 -0.1)">
       <use xlink:href="#DejaVuSans-30"/>
       <use xlink:href="#DejaVuSans-2e" x="63.623047"/>
       <use xlink:href="#DejaVuSans-30" x="95.410156"/>
      </g>
     </g>
    </g>
    <g id="ytick_2">
     <g id="line2d_9">
      <g>
       <use xlink:href="#m58d763d6b2" x="44.303125" y="290.748894" style="stroke: #000000; stroke-width: 0.8"/>
      </g>
     </g>
     <g id="text_10">
      <!-- 0.1 -->
      <g transform="translate(21.4 294.548113) scale(0.1 -0.1)">
       <use xlink:href="#DejaVuSans-30"/>
       <use xlink:href="#DejaVuSans-2e" x="63.623047"/>
       <use xlink:href="#DejaVuSans-31" x="95.410156"/>
      </g>
     </g>
    </g>
    <g id="ytick_3">
     <g id="line2d_10">
      <g>
       <use xlink:href="#m58d763d6b2" x="44.303125" y="238.570071" style="stroke: #000000; stroke-width: 0.8"/>
      </g>
     </g>
     <g id="text_11">
      <!-- 0.2 -->
      <g transform="translate(21.4 242.369289) scale(0.1 -0.1)">
       <use xlink:href="#DejaVuSans-30"/>
       <use xlink:href="#DejaVuSans-2e" x="63.623047"/>
       <use xlink:href="#DejaVuSans-32" x="95.410156"/>
      </g>
     </g>
    </g>
    <g id="ytick_4">
     <g id="line2d_11">
      <g>
       <use xlink:href="#m58d763d6b2" x="44.303125" y="186.391247" style="stroke: #000000; stroke-width: 0.8"/>
      </g>
     </g>
     <g id="text_12">
      <!-- 0.3 -->
      <g transform="translate(21.4 190.190466) scale(0.1 -0.1)">
       <defs>
        <path id="DejaVuSans-33" d="M 2597 2516 
Q 3050 2419 3304 2112 
Q 3559 1806 3559 1356 
Q 3559 666 3084 287 
Q 2609 -91 1734 -91 
Q 1441 -91 1130 -33 
Q 819 25 488 141 
L 488 750 
Q 750 597 1062 519 
Q 1375 441 1716 441 
Q 2309 441 2620 675 
Q 2931 909 2931 1356 
Q 2931 1769 2642 2001 
Q 2353 2234 1838 2234 
L 1294 2234 
L 1294 2753 
L 1863 2753 
Q 2328 2753 2575 2939 
Q 2822 3125 2822 3475 
Q 2822 3834 2567 4026 
Q 2313 4219 1838 4219 
Q 1578 4219 1281 4162 
Q 984 4106 628 3988 
L 628 4550 
Q 988 4650 1302 4700 
Q 1616 4750 1894 4750 
Q 2613 4750 3031 4423 
Q 3450 4097 3450 3541 
Q 3450 3153 3228 2886 
Q 3006 2619 2597 2516 
z
" transform="scale(0.015625)"/>
       </defs>
       <use xlink:href="#DejaVuSans-30"/>
       <use xlink:href="#DejaVuSans-2e" x="63.623047"/>
       <use xlink:href="#DejaVuSans-33" x="95.410156"/>
      </g>
     </g>
    </g>
    <g id="ytick_5">
     <g id="line2d_12">
      <g>
       <use xlink:href="#m58d763d6b2" x="44.303125" y="134.212424" style="stroke: #000000; stroke-width: 0.8"/>
      </g>
     </g>
     <g id="text_13">
      <!-- 0.4 -->
      <g transform="translate(21.4 138.011642) scale(0.1 -0.1)">
       <use xlink:href="#DejaVuSans-30"/>
       <use xlink:href="#DejaVuSans-2e" x="63.623047"/>
       <use xlink:href="#DejaVuSans-34" x="95.410156"/>
      </g>
     </g>
    </g>
    <g id="ytick_6">
     <g id="line2d_13">
      <g>
       <use xlink:href="#m58d763d6b2" x="44.303125" y="82.0336" style="stroke: #000000; stroke-width: 0.8"/>
      </g>
     </g>
     <g id="text_14">
      <!-- 0.5 -->
      <g transform="translate(21.4 85.832819) scale(0.1 -0.1)">
       <defs>
        <path id="DejaVuSans-35" d="M 691 4666 
L 3169 4666 
L 3169 4134 
L 1269 4134 
L 1269 2991 
Q 1406 3038 1543 3061 
Q 1681 3084 1819 3084 
Q 2600 3084 3056 2656 
Q 3513 2228 3513 1497 
Q 3513 744 3044 326 
Q 2575 -91 1722 -91 
Q 1428 -91 1123 -41 
Q 819 9 494 109 
L 494 744 
Q 775 591 1075 516 
Q 1375 441 1709 441 
Q 2250 441 2565 725 
Q 2881 1009 2881 1497 
Q 2881 1984 2565 2268 
Q 2250 2553 1709 2553 
Q 1456 2553 1204 2497 
Q 953 2441 691 2322 
L 691 4666 
z
" transform="scale(0.015625)"/>
       </defs>
       <use xlink:href="#DejaVuSans-30"/>
       <use xlink:href="#DejaVuSans-2e" x="63.623047"/>
       <use xlink:href="#DejaVuSans-35" x="95.410156"/>
      </g>
     </g>
    </g>
    <g id="text_15">
     <!-- $\tilde{y}$ -->
     <g transform="translate(15.3 218.0896) rotate(-90) scale(0.1 -0.1)">
      <defs>
       <path id="DejaVuSans-Oblique-79" d="M 1588 -325 
Q 1188 -997 936 -1164 
Q 684 -1331 294 -1331 
L -159 -1331 
L -63 -850 
L 269 -850 
Q 509 -850 678 -719 
Q 847 -588 1056 -206 
L 1234 128 
L 459 3500 
L 1069 3500 
L 1650 819 
L 3256 3500 
L 3859 3500 
L 1588 -325 
z
" transform="scale(0.015625)"/>
      </defs>
      <use xlink:href="#DejaVuSans-303" transform="translate(62.029297 3.3125)"/>
      <use xlink:href="#DejaVuSans-Oblique-79" transform="translate(0 0.046875)"/>
     </g>
    </g>
   </g>
   <g id="line2d_14">
    <path d="M 44.361997 342.910497 
L 58.19108 338.756457 
L 62.376286 337.281395 
L 65.166934 336.08227 
L 67.318241 334.92579 
L 68.866751 333.883121 
L 70.24875 332.72328 
L 71.474341 331.433102 
L 72.565269 329.997936 
L 73.778186 327.9751 
L 74.866528 325.664232 
L 75.867935 323.024312 
L 76.99434 319.35564 
L 78.071022 315.051498 
L 79.121595 310.001809 
L 80.33537 302.99473 
L 81.552305 294.552095 
L 82.78335 284.379805 
L 84.03483 272.123502 
L 85.308487 257.356233 
L 86.599936 239.563567 
L 87.710503 221.438222 
L 88.804417 200.173246 
L 89.844643 175.224846 
L 90.621631 151.163695 
L 91.135524 129.470466 
L 91.492042 105.339401 
L 91.605918 85.477647 
L 91.605918 85.477647 
" clip-path="url(#p78ad875565)" style="fill: none; stroke: #1f77b4; stroke-width: 1.5; stroke-linecap: square"/>
   </g>
   <g id="line2d_15">
    <path d="M 44.42593 342.910497 
L 65.906441 339.80155 
L 71.82162 338.756457 
L 76.0249 337.812836 
L 79.114289 336.902772 
L 81.755236 335.863124 
L 83.568121 334.92579 
L 85.159898 333.883121 
L 86.57716 332.72328 
L 87.861842 331.433102 
L 89.332927 329.614621 
L 90.700828 327.537206 
L 92.001479 325.163984 
L 93.259921 322.452833 
L 94.738727 318.68517 
L 96.20296 314.264894 
L 97.667283 309.078953 
L 99.142341 302.99473 
L 100.636153 295.856627 
L 102.154768 287.482083 
L 103.702412 277.656954 
L 105.281067 266.129942 
L 106.889473 252.606286 
L 108.521126 236.740125 
L 109.887776 221.438222 
L 111.243008 203.957429 
L 112.557184 183.987538 
L 113.545742 165.982934 
L 114.434051 145.955039 
L 115.157315 123.676474 
L 115.533784 105.339401 
L 115.705593 85.477647 
L 115.705593 85.477647 
" clip-path="url(#p78ad875565)" style="fill: none; stroke: #ff7f0e; stroke-width: 1.5; stroke-linecap: square"/>
   </g>
   <g id="line2d_16">
    <path d="M 44.47832 342.910497 
L 71.617498 340.139524 
L 78.99509 339.174661 
L 83.986803 338.30348 
L 87.523217 337.46328 
L 90.483458 336.503441 
L 92.501425 335.638064 
L 94.276851 334.675439 
L 95.868442 333.604637 
L 97.671753 332.095363 
L 99.332842 330.371181 
L 100.900818 328.401494 
L 102.409327 326.151335 
L 103.881516 323.580779 
L 105.333603 320.644201 
L 106.777318 317.289472 
L 108.510962 312.627434 
L 110.256836 307.157864 
L 112.024173 300.740876 
L 113.82042 293.212369 
L 115.651447 284.379805 
L 117.521268 274.017297 
L 119.110149 264.023324 
L 120.725527 252.606286 
L 122.362767 239.563567 
L 124.012104 224.663676 
L 125.655464 207.642198 
L 126.945068 192.295797 
L 128.184304 175.224846 
L 129.332037 156.235553 
L 130.095558 140.605838 
L 130.73342 123.676474 
L 131.192293 105.339401 
L 131.401845 85.477647 
L 131.401845 85.477647 
" clip-path="url(#p78ad875565)" style="fill: none; stroke: #2ca02c; stroke-width: 1.5; stroke-linecap: square"/>
   </g>
   <g id="line2d_17">
    <path d="M 44.515637 342.910497 
L 74.872089 340.350301 
L 83.191407 339.435472 
L 88.70444 338.609467 
L 92.550813 337.812836 
L 95.743502 336.902772 
L 97.914174 336.08227 
L 99.825595 335.169563 
L 101.94927 333.883121 
L 103.868744 332.413502 
L 105.653532 330.73462 
L 107.350963 328.816683 
L 108.993134 326.625647 
L 110.602051 324.122625 
L 112.193207 321.263199 
L 113.77791 317.99661 
L 115.364804 314.264894 
L 116.96083 310.001809 
L 118.571786 305.131704 
L 120.202654 299.568135 
L 121.857721 293.212369 
L 123.540602 285.951595 
L 125.253983 277.656954 
L 126.999365 268.181217 
L 128.776339 257.356233 
L 130.581579 244.989852 
L 132.407139 230.862634 
L 134.237461 214.723803 
L 135.68686 200.173246 
L 137.098114 183.987538 
L 138.434414 165.982934 
L 139.354059 151.163695 
L 140.164781 135.112266 
L 140.817907 117.726106 
L 141.247441 98.894309 
L 141.368159 85.477647 
L 141.368159 85.477647 
" clip-path="url(#p78ad875565)" style="fill: none; stroke: #d62728; stroke-width: 1.5; stroke-linecap: square"/>
   </g>
   <g id="line2d_18">
    <path d="M 44.605652 342.910497 
L 82.548663 340.646149 
L 92.83252 339.80155 
L 99.307693 339.038954 
L 103.686487 338.30348 
L 107.275894 337.46328 
L 110.279918 336.503441 
L 112.880629 335.406932 
L 115.213124 334.15429 
L 117.370089 332.72328 
L 119.413253 331.088511 
L 121.383601 329.220962 
L 123.308708 327.087491 
L 125.207615 324.650234 
L 127.094079 321.865934 
L 128.978459 318.68517 
L 130.8691 315.051498 
L 132.773027 310.90042 
L 134.696449 306.15827 
L 136.644962 300.740876 
L 138.623638 294.552095 
L 140.636949 287.482083 
L 142.688548 279.405366 
L 144.78083 270.178601 
L 146.914282 259.638012 
L 149.08628 247.59656 
L 151.289187 233.840493 
L 153.063491 221.438222 
L 154.833556 207.642198 
L 156.576765 192.295797 
L 158.25742 175.224846 
L 159.44415 161.174113 
L 160.53003 145.955039 
L 161.466543 129.470466 
L 162.186702 111.615241 
L 162.503234 98.894309 
L 162.651597 85.477647 
L 162.651597 85.477647 
" clip-path="url(#p78ad875565)" style="fill: none; stroke: #9467bd; stroke-width: 1.5; stroke-linecap: square"/>
   </g>
   <g id="line2d_19">
    <path d="M 44.710842 342.910497 
L 89.534789 340.919287 
L 101.913961 340.139524 
L 109.441843 339.435472 
L 114.426677 338.756457 
L 118.479134 337.980757 
L 121.871317 337.094604 
L 124.82241 336.08227 
L 127.485777 334.92579 
L 129.962795 333.604637 
L 132.319396 332.095363 
L 134.598684 330.371181 
L 136.829485 328.401494 
L 139.031682 326.151335 
L 141.219662 323.580779 
L 143.40445 320.644201 
L 145.595055 317.289472 
L 147.799248 313.457065 
L 150.024053 309.078953 
L 152.276024 304.077442 
L 154.561317 298.363756 
L 156.885643 291.836492 
L 159.254058 284.379805 
L 161.670641 275.861345 
L 163.640324 268.181217 
L 165.642592 259.638012 
L 167.675992 250.134782 
L 169.736753 239.563567 
L 171.817584 227.804418 
L 173.905919 214.723803 
L 175.981066 200.173246 
L 178.009791 183.987538 
L 179.4701 170.665408 
L 180.842232 156.235553 
L 182.079792 140.605838 
L 183.117857 123.676474 
L 183.656189 111.615241 
L 184.033351 98.894309 
L 184.210211 85.477647 
L 184.210211 85.477647 
" clip-path="url(#p78ad875565)" style="fill: none; stroke: #8c564b; stroke-width: 1.5; stroke-linecap: square"/>
   </g>
   <g id="line2d_20">
    <path d="M 44.788367 342.910497 
L 95.44348 341.00559 
L 107.490781 340.350301 
L 115.813345 339.682758 
L 121.264196 339.038954 
L 125.671154 338.30348 
L 129.354086 337.46328 
L 132.560398 336.503441 
L 135.458648 335.406932 
L 138.158228 334.15429 
L 140.729419 332.72328 
L 143.217762 331.088511 
L 145.653538 329.220962 
L 148.05758 327.087491 
L 150.445002 324.650234 
L 152.827385 321.865934 
L 155.214265 318.68517 
L 157.613899 315.051498 
L 160.033888 310.90042 
L 162.481345 306.15827 
L 164.963063 300.740876 
L 166.977447 295.856627 
L 169.020957 290.423495 
L 171.096334 284.379805 
L 173.205858 277.656954 
L 175.351106 270.178601 
L 177.532648 261.85986 
L 179.749497 252.606286 
L 181.998382 242.312826 
L 184.272561 230.862634 
L 186.560125 218.125693 
L 188.841151 203.957429 
L 190.528866 192.295797 
L 192.174842 179.664529 
L 193.750379 165.982934 
L 195.214839 151.163695 
L 196.511033 135.112266 
L 197.243378 123.676474 
L 197.83552 111.615241 
L 198.25049 98.894309 
L 198.445098 85.477647 
L 198.445098 85.477647 
" clip-path="url(#p78ad875565)" style="fill: none; stroke: #e377c2; stroke-width: 1.5; stroke-linecap: square"/>
   </g>
   <g id="line2d_21">
    <path d="M 44.939132 342.910497 
L 102.80412 341.251134 
L 117.256262 340.646149 
L 126.999889 340.029852 
L 133.268007 339.435472 
L 138.29296 338.756457 
L 142.483555 337.980757 
L 146.137059 337.094604 
L 149.448 336.08227 
L 152.539181 334.92579 
L 155.487995 333.604637 
L 158.344098 332.095363 
L 161.140202 330.371181 
L 163.898842 328.401494 
L 166.636392 326.151335 
L 169.365507 323.580779 
L 172.096653 320.644201 
L 174.839071 317.289472 
L 177.046874 314.264894 
L 179.271599 310.90042 
L 181.517309 307.157864 
L 183.788065 302.99473 
L 186.087744 298.363756 
L 188.420105 293.212369 
L 190.788644 287.482083 
L 193.196446 281.107863 
L 195.645952 274.017297 
L 198.138739 266.129942 
L 200.674896 257.356233 
L 203.252455 247.59656 
L 205.86627 236.740125 
L 208.506285 224.663676 
L 211.155063 211.230103 
L 213.130618 200.173246 
L 215.076816 188.196965 
L 216.967315 175.224846 
L 218.764653 161.174113 
L 220.415631 145.955039 
L 221.398956 135.112266 
L 222.255133 123.676474 
L 222.948081 111.615241 
L 223.434094 98.894309 
L 223.662138 85.477647 
L 223.662138 85.477647 
" clip-path="url(#p78ad875565)" style="fill: none; stroke: #7f7f7f; stroke-width: 1.5; stroke-linecap: square"/>
   </g>
   <g id="line2d_22">
    <path d="M 45.017061 342.910497 
L 109.215666 341.251134 
L 124.275962 340.646149 
L 134.110223 340.029852 
L 140.385783 339.435472 
L 145.44498 338.756457 
L 149.7102 337.980757 
L 153.470844 337.094604 
L 156.910867 336.08227 
L 160.144913 334.92579 
L 163.244954 333.604637 
L 166.257199 332.095363 
L 169.212416 330.371181 
L 172.132005 328.401494 
L 175.03179 326.151335 
L 177.924248 323.580779 
L 180.819935 320.644201 
L 183.145174 317.99661 
L 185.483123 315.051498 
L 187.838199 311.775424 
L 190.214782 308.131193 
L 192.617148 304.077442 
L 195.049518 299.568135 
L 197.515928 294.552095 
L 200.020245 288.972365 
L 202.565928 282.765612 
L 205.155867 275.861345 
L 207.792033 268.181217 
L 210.475171 259.638012 
L 213.203895 250.134782 
L 215.973897 239.563567 
L 218.776183 227.804418 
L 221.594699 214.723803 
L 223.70361 203.957429 
L 225.789533 192.295797 
L 227.827668 179.664529 
L 229.782593 165.982934 
L 231.603718 151.163695 
L 232.709189 140.605838 
L 233.695849 129.470466 
L 234.528788 117.726106 
L 235.16524 105.339401 
L 235.554206 92.275238 
L 235.638002 85.477647 
L 235.638002 85.477647 
" clip-path="url(#p78ad875565)" style="fill: none; stroke: #bcbd22; stroke-width: 1.5; stroke-linecap: square"/>
   </g>
   <g id="line2d_23">
    <path d="M 45.230786 342.910497 
L 117.486816 341.477828 
L 135.656989 340.919287 
L 147.252987 340.350301 
L 154.524403 339.80155 
L 160.335999 339.174661 
L 165.220464 338.45851 
L 170.338765 337.46328 
L 174.974247 336.29566 
L 178.613853 335.169563 
L 182.123978 333.883121 
L 185.547966 332.413502 
L 188.915058 330.73462 
L 192.246088 328.816683 
L 195.556941 326.625647 
L 198.860512 324.122625 
L 201.505795 321.865934 
L 204.159026 319.35564 
L 206.8254 316.56325 
L 209.509992 313.457065 
L 212.217821 310.001809 
L 214.95396 306.15827 
L 217.72343 301.882803 
L 220.531108 297.126877 
L 223.381783 291.836492 
L 226.279909 285.951595 
L 229.229476 279.405366 
L 232.233731 272.123502 
L 235.294748 264.023324 
L 238.412758 255.012866 
L 241.585296 244.989852 
L 244.805657 233.840493 
L 247.24475 224.663676 
L 249.694557 214.723803 
L 252.14165 203.957429 
L 254.566392 192.295797 
L 256.940386 179.664529 
L 259.222583 165.982934 
L 260.664852 156.235553 
L 262.01717 145.955039 
L 263.249879 135.112266 
L 264.325603 123.676474 
L 265.198063 111.615241 
L 265.811011 98.894309 
L 266.098976 85.477647 
L 266.098976 85.477647 
" clip-path="url(#p78ad875565)" style="fill: none; stroke: #17becf; stroke-width: 1.5; stroke-linecap: square"/>
   </g>
   <g id="line2d_24">
    <path d="M 45.342103 342.910497 
L 125.223917 341.477828 
L 144.013425 340.919287 
L 155.665972 340.350301 
L 162.954533 339.80155 
L 168.832141 339.174661 
L 174.757129 338.30348 
L 179.961452 337.281395 
L 184.748561 336.08227 
L 188.542313 334.92579 
L 192.221201 333.604637 
L 195.822856 332.095363 
L 199.373256 330.371181 
L 202.891533 328.401494 
L 206.392567 326.151335 
L 209.889025 323.580779 
L 212.690477 321.263199 
L 215.501685 318.68517 
L 218.327988 315.817436 
L 221.174673 312.627434 
L 224.047025 309.078953 
L 226.95033 305.131704 
L 229.889804 300.740876 
L 232.870573 295.856627 
L 235.897621 290.423495 
L 238.975489 284.379805 
L 242.108169 277.656954 
L 245.2988 270.178601 
L 248.549068 261.85986 
L 251.858546 252.606286 
L 254.377461 244.989852 
L 256.924474 236.740125 
L 259.494175 227.804418 
L 262.07819 218.125693 
L 264.663979 207.642198 
L 267.233272 196.286958 
L 269.759389 183.987538 
L 272.203999 170.665408 
L 273.762081 161.174113 
L 275.238018 151.163695 
L 276.604012 140.605838 
L 277.825049 129.470466 
L 278.857349 117.726106 
L 279.647131 105.339401 
L 280.130288 92.275238 
L 280.234412 85.477647 
L 280.234412 85.477647 
" clip-path="url(#p78ad875565)" style="fill: none; stroke: #1f77b4; stroke-width: 1.5; stroke-linecap: square"/>
   </g>
   <g id="line2d_25">
    <path d="M 45.589336 342.910497 
L 134.6337 341.619205 
L 156.29853 341.089627 
L 169.392682 340.550147 
L 178.888212 339.917221 
L 186.301402 339.174661 
L 192.564873 338.30348 
L 198.18108 337.281395 
L 203.41774 336.08227 
L 208.422436 334.675439 
L 212.478947 333.318637 
L 216.466579 331.768639 
L 220.408412 329.997936 
L 224.322111 327.9751 
L 228.222329 325.664232 
L 231.341545 323.580779 
L 234.466615 321.263199 
L 237.603588 318.68517 
L 240.758388 315.817436 
L 243.937028 312.627434 
L 247.145486 309.078953 
L 250.389829 305.131704 
L 253.676105 300.740876 
L 257.010239 295.856627 
L 260.398032 290.423495 
L 263.844911 284.379805 
L 267.355719 277.656954 
L 270.934324 270.178601 
L 273.66429 264.023324 
L 276.434026 257.356233 
L 279.242768 250.134782 
L 282.088388 242.312826 
L 284.96686 233.840493 
L 287.871549 224.663676 
L 290.792132 214.723803 
L 293.713069 203.957429 
L 296.611408 192.295797 
L 299.45364 179.664529 
L 301.294011 170.665408 
L 303.068661 161.174113 
L 304.752597 151.163695 
L 306.313926 140.605838 
L 307.712133 129.470466 
L 308.896327 117.726106 
L 309.803803 105.339401 
L 310.359616 92.275238 
L 310.479492 85.477647 
L 310.479492 85.477647 
" clip-path="url(#p78ad875565)" style="fill: none; stroke: #ff7f0e; stroke-width: 1.5; stroke-linecap: square"/>
   </g>
   <g id="line2d_26">
    <path d="M 45.704507 342.910497 
L 137.857661 341.687119 
L 161.05002 341.171456 
L 174.951 340.646149 
L 184.960454 340.029852 
L 192.745786 339.306803 
L 199.314081 338.45851 
L 205.200266 337.46328 
L 210.686576 336.29566 
L 215.927653 334.92579 
L 220.173857 333.604637 
L 224.346058 332.095363 
L 228.468289 330.371181 
L 232.559034 328.401494 
L 236.633585 326.151335 
L 239.890628 324.122625 
L 243.152408 321.865934 
L 246.425185 319.35564 
L 249.715151 316.56325 
L 253.028584 313.457065 
L 256.37173 310.001809 
L 259.75092 306.15827 
L 263.172504 301.882803 
L 266.642798 297.126877 
L 270.167938 291.836492 
L 273.753744 285.951595 
L 277.405519 279.405366 
L 281.12768 272.123502 
L 283.967446 266.129942 
L 286.849093 259.638012 
L 289.772283 252.606286 
L 292.735385 244.989852 
L 295.734992 236.740125 
L 298.76525 227.804418 
L 301.816884 218.125693 
L 304.875737 207.642198 
L 307.920825 196.286958 
L 310.921301 183.987538 
L 312.875374 175.224846 
L 314.771993 165.982934 
L 316.587956 156.235553 
L 318.293657 145.955039 
L 319.851332 135.112266 
L 321.213176 123.676474 
L 322.319605 111.615241 
L 323.09807 98.894309 
L 323.3383 92.275238 
L 323.464118 85.477647 
L 323.464118 85.477647 
" clip-path="url(#p78ad875565)" style="fill: none; stroke: #2ca02c; stroke-width: 1.5; stroke-linecap: square"/>
   </g>
   <g id="line2d_27">
    <path d="M 45.840982 342.910497 
L 145.757308 341.687119 
L 169.45991 341.171456 
L 183.385467 340.646149 
L 193.448579 340.029852 
L 201.368802 339.306803 
L 208.125692 338.45851 
L 214.228497 337.46328 
L 219.944394 336.29566 
L 225.420398 334.92579 
L 229.863675 333.604637 
L 234.233126 332.095363 
L 238.552394 330.371181 
L 242.839964 328.401494 
L 247.111357 326.151335 
L 250.526112 324.122625 
L 253.946082 321.865934 
L 257.37776 319.35564 
L 260.827655 316.56325 
L 264.302294 313.457065 
L 267.808295 310.001809 
L 271.352328 306.15827 
L 274.941025 301.882803 
L 278.58111 297.126877 
L 282.279022 291.836492 
L 286.040952 285.951595 
L 289.872523 279.405366 
L 292.79479 274.017297 
L 295.760428 268.181217 
L 298.770288 261.85986 
L 301.82444 255.012866 
L 304.921661 247.59656 
L 308.059184 239.563567 
L 311.231899 230.862634 
L 314.431488 221.438222 
L 317.645126 211.230103 
L 320.853549 200.173246 
L 324.028375 188.196965 
L 326.106386 179.664529 
L 328.134624 170.665408 
L 330.091606 161.174113 
L 331.949715 151.163695 
L 333.673687 140.605838 
L 335.218626 129.470466 
L 336.527982 117.726106 
L 337.531989 105.339401 
L 337.893905 98.894309 
L 338.147244 92.275238 
L 338.279962 85.477647 
L 338.279962 85.477647 
" clip-path="url(#p78ad875565)" style="fill: none; stroke: #d62728; stroke-width: 1.5; stroke-linecap: square"/>
   </g>
   <g id="line2d_28">
    <path d="M 46.126148 342.910497 
L 157.200694 341.75325 
L 183.060846 341.251134 
L 197.883626 340.73963 
L 208.57566 340.139524 
L 217.054109 339.435472 
L 224.345703 338.609467 
L 230.968934 337.640384 
L 237.192839 336.503441 
L 243.165357 335.169563 
L 248.014416 333.883121 
L 252.783281 332.413502 
L 257.4965 330.73462 
L 262.173498 328.816683 
L 266.830718 326.625647 
L 270.552257 324.650234 
L 274.277841 322.452833 
L 278.014494 320.008495 
L 281.769275 317.289472 
L 285.549298 314.264894 
L 289.361712 310.90042 
L 293.213806 307.157864 
L 297.112906 302.99473 
L 301.066304 298.363756 
L 305.0812 293.212369 
L 308.136896 288.972365 
L 311.233815 284.379805 
L 314.374442 279.405366 
L 317.56094 274.017297 
L 320.794977 268.181217 
L 324.077563 261.85986 
L 327.408788 255.012866 
L 330.787464 247.59656 
L 334.210574 239.563567 
L 337.672619 230.862634 
L 341.164642 221.438222 
L 344.672754 211.230103 
L 348.176112 200.173246 
L 351.643745 188.196965 
L 353.91404 179.664529 
L 356.130517 170.665408 
L 358.269726 161.174113 
L 360.30144 151.163695 
L 362.187061 140.605838 
L 363.877419 129.470466 
L 365.310535 117.726106 
L 366.409745 105.339401 
L 366.806019 98.894309 
L 367.083482 92.275238 
L 367.22883 85.477647 
L 367.22883 85.477647 
" clip-path="url(#p78ad875565)" style="fill: none; stroke: #9467bd; stroke-width: 1.5; stroke-linecap: square"/>
   </g>
   <g id="line2d_29">
    <path d="M 46.234896 342.910497 
L 158.261278 341.817643 
L 185.933615 341.32872 
L 201.713529 340.830654 
L 212.982929 340.246316 
L 221.849102 339.560761 
L 229.436536 338.756457 
L 236.307855 337.812836 
L 242.752568 336.705765 
L 248.928597 335.406932 
L 253.938118 334.15429 
L 258.861217 332.72328 
L 263.723741 331.088511 
L 268.546051 329.220962 
L 273.345354 327.087491 
L 277.178592 325.163984 
L 281.014438 323.024312 
L 284.860164 320.644201 
L 288.72306 317.99661 
L 292.610454 315.051498 
L 296.529811 311.775424 
L 300.488637 308.131193 
L 304.494558 304.077442 
L 308.555201 299.568135 
L 312.678124 294.552095 
L 315.815611 290.423495 
L 318.995156 285.951595 
L 322.219507 281.107863 
L 325.491114 275.861345 
L 328.811927 270.178601 
L 332.183312 264.023324 
L 335.605854 257.356233 
L 339.078897 250.134782 
L 342.600171 242.312826 
L 346.165081 233.840493 
L 349.765965 224.663676 
L 353.390511 214.723803 
L 357.020131 203.957429 
L 360.626903 192.295797 
L 362.999229 183.987538 
L 365.326996 175.224846 
L 367.588777 165.982934 
L 369.757005 156.235553 
L 371.796241 145.955039 
L 373.661037 135.112266 
L 375.293674 123.676474 
L 376.621815 111.615241 
L 377.144812 105.339401 
L 377.55737 98.894309 
L 377.846257 92.275238 
L 377.997636 85.477647 
L 377.997636 85.477647 
" clip-path="url(#p78ad875565)" style="fill: none; stroke: #8c564b; stroke-width: 1.5; stroke-linecap: square"/>
   </g>
   <g id="patch_3">
    <path d="M 44.303125 348.1456 
L 44.303125 82.0336 
" style="fill: none; stroke: #000000; stroke-width: 0.8; stroke-linejoin: miter; stroke-linecap: square"/>
   </g>
   <g id="patch_4">
    <path d="M 401.423125 348.1456 
L 401.423125 82.0336 
" style="fill: none; stroke: #000000; stroke-width: 0.8; stroke-linejoin: miter; stroke-linecap: square"/>
   </g>
   <g id="patch_5">
    <path d="M 44.303125 348.1456 
L 401.423125 348.1456 
" style="fill: none; stroke: #000000; stroke-width: 0.8; stroke-linejoin: miter; stroke-linecap: square"/>
   </g>
   <g id="patch_6">
    <path d="M 44.303125 82.0336 
L 401.423125 82.0336 
" style="fill: none; stroke: #000000; stroke-width: 0.8; stroke-linejoin: miter; stroke-linecap: square"/>
   </g>
   <g id="legend_1">
    <g id="patch_7">
     <path d="M 20.463125 68.9125 
L 425.263125 68.9125 
Q 427.263125 68.9125 427.263125 66.9125 
L 427.263125 9.2 
Q 427.263125 7.2 425.263125 7.2 
L 20.463125 7.2 
Q 18.463125 7.2 18.463125 9.2 
L 18.463125 66.9125 
Q 18.463125 68.9125 20.463125 68.9125 
z
" style="fill: #ffffff; opacity: 0.8; stroke: #cccccc; stroke-linejoin: miter"/>
    </g>
    <g id="line2d_30">
     <path d="M 22.463125 15.298438 
L 32.463125 15.298438 
L 42.463125 15.298438 
" style="fill: none; stroke: #1f77b4; stroke-width: 1.5; stroke-linecap: square"/>
    </g>
    <g id="text_16">
     <!-- $Re=13430$ -->
     <g transform="translate(50.463125 18.798438) scale(0.1 -0.1)">
      <defs>
       <path id="DejaVuSans-Oblique-52" d="M 1613 4147 
L 1294 2491 
L 2106 2491 
Q 2584 2491 2879 2755 
Q 3175 3019 3175 3444 
Q 3175 3784 2976 3965 
Q 2778 4147 2406 4147 
L 1613 4147 
z
M 2772 2241 
Q 2972 2194 3105 2009 
Q 3238 1825 3413 1275 
L 3809 0 
L 3144 0 
L 2778 1197 
Q 2638 1659 2453 1815 
Q 2269 1972 1888 1972 
L 1191 1972 
L 806 0 
L 172 0 
L 1081 4666 
L 2503 4666 
Q 3150 4666 3495 4373 
Q 3841 4081 3841 3531 
Q 3841 3044 3547 2687 
Q 3253 2331 2772 2241 
z
" transform="scale(0.015625)"/>
       <path id="DejaVuSans-Oblique-65" d="M 3078 2063 
Q 3088 2113 3092 2166 
Q 3097 2219 3097 2272 
Q 3097 2653 2873 2875 
Q 2650 3097 2266 3097 
Q 1838 3097 1509 2826 
Q 1181 2556 1013 2059 
L 3078 2063 
z
M 3578 1613 
L 903 1613 
Q 884 1494 878 1425 
Q 872 1356 872 1306 
Q 872 872 1139 634 
Q 1406 397 1894 397 
Q 2269 397 2603 481 
Q 2938 566 3225 728 
L 3116 159 
Q 2806 34 2476 -28 
Q 2147 -91 1806 -91 
Q 1078 -91 686 257 
Q 294 606 294 1247 
Q 294 1794 489 2264 
Q 684 2734 1063 3103 
Q 1306 3334 1642 3459 
Q 1978 3584 2356 3584 
Q 2950 3584 3301 3228 
Q 3653 2872 3653 2272 
Q 3653 2128 3634 1964 
Q 3616 1800 3578 1613 
z
" transform="scale(0.015625)"/>
       <path id="DejaVuSans-3d" d="M 678 2906 
L 4684 2906 
L 4684 2381 
L 678 2381 
L 678 2906 
z
M 678 1631 
L 4684 1631 
L 4684 1100 
L 678 1100 
L 678 1631 
z
" transform="scale(0.015625)"/>
      </defs>
      <use xlink:href="#DejaVuSans-Oblique-52" transform="translate(0 0.78125)"/>
      <use xlink:href="#DejaVuSans-Oblique-65" transform="translate(69.482422 0.78125)"/>
      <use xlink:href="#DejaVuSans-3d" transform="translate(150.488281 0.78125)"/>
      <use xlink:href="#DejaVuSans-31" transform="translate(253.759766 0.78125)"/>
      <use xlink:href="#DejaVuSans-33" transform="translate(317.382812 0.78125)"/>
      <use xlink:href="#DejaVuSans-34" transform="translate(381.005859 0.78125)"/>
      <use xlink:href="#DejaVuSans-33" transform="translate(444.628906 0.78125)"/>
      <use xlink:href="#DejaVuSans-30" transform="translate(508.251953 0.78125)"/>
     </g>
    </g>
    <g id="line2d_31">
     <path d="M 22.463125 29.976563 
L 32.463125 29.976563 
L 42.463125 29.976563 
" style="fill: none; stroke: #ff7f0e; stroke-width: 1.5; stroke-linecap: square"/>
    </g>
    <g id="text_17">
     <!-- $Re=20390$ -->
     <g transform="translate(50.463125 33.476563) scale(0.1 -0.1)">
      <defs>
       <path id="DejaVuSans-39" d="M 703 97 
L 703 672 
Q 941 559 1184 500 
Q 1428 441 1663 441 
Q 2288 441 2617 861 
Q 2947 1281 2994 2138 
Q 2813 1869 2534 1725 
Q 2256 1581 1919 1581 
Q 1219 1581 811 2004 
Q 403 2428 403 3163 
Q 403 3881 828 4315 
Q 1253 4750 1959 4750 
Q 2769 4750 3195 4129 
Q 3622 3509 3622 2328 
Q 3622 1225 3098 567 
Q 2575 -91 1691 -91 
Q 1453 -91 1209 -44 
Q 966 3 703 97 
z
M 1959 2075 
Q 2384 2075 2632 2365 
Q 2881 2656 2881 3163 
Q 2881 3666 2632 3958 
Q 2384 4250 1959 4250 
Q 1534 4250 1286 3958 
Q 1038 3666 1038 3163 
Q 1038 2656 1286 2365 
Q 1534 2075 1959 2075 
z
" transform="scale(0.015625)"/>
      </defs>
      <use xlink:href="#DejaVuSans-Oblique-52" transform="translate(0 0.78125)"/>
      <use xlink:href="#DejaVuSans-Oblique-65" transform="translate(69.482422 0.78125)"/>
      <use xlink:href="#DejaVuSans-3d" transform="translate(150.488281 0.78125)"/>
      <use xlink:href="#DejaVuSans-32" transform="translate(253.759766 0.78125)"/>
      <use xlink:href="#DejaVuSans-30" transform="translate(317.382812 0.78125)"/>
      <use xlink:href="#DejaVuSans-33" transform="translate(381.005859 0.78125)"/>
      <use xlink:href="#DejaVuSans-39" transform="translate(444.628906 0.78125)"/>
      <use xlink:href="#DejaVuSans-30" transform="translate(508.251953 0.78125)"/>
     </g>
    </g>
    <g id="line2d_32">
     <path d="M 22.463125 44.654688 
L 32.463125 44.654688 
L 42.463125 44.654688 
" style="fill: none; stroke: #2ca02c; stroke-width: 1.5; stroke-linecap: square"/>
    </g>
    <g id="text_18">
     <!-- $Re=24930$ -->
     <g transform="translate(50.463125 48.154688) scale(0.1 -0.1)">
      <use xlink:href="#DejaVuSans-Oblique-52" transform="translate(0 0.78125)"/>
      <use xlink:href="#DejaVuSans-Oblique-65" transform="translate(69.482422 0.78125)"/>
      <use xlink:href="#DejaVuSans-3d" transform="translate(150.488281 0.78125)"/>
      <use xlink:href="#DejaVuSans-32" transform="translate(253.759766 0.78125)"/>
      <use xlink:href="#DejaVuSans-34" transform="translate(317.382812 0.78125)"/>
      <use xlink:href="#DejaVuSans-39" transform="translate(381.005859 0.78125)"/>
      <use xlink:href="#DejaVuSans-33" transform="translate(444.628906 0.78125)"/>
      <use xlink:href="#DejaVuSans-30" transform="translate(508.251953 0.78125)"/>
     </g>
    </g>
    <g id="line2d_33">
     <path d="M 22.463125 59.332813 
L 32.463125 59.332813 
L 42.463125 59.332813 
" style="fill: none; stroke: #d62728; stroke-width: 1.5; stroke-linecap: square"/>
    </g>
    <g id="text_19">
     <!-- $Re=27810$ -->
     <g transform="translate(50.463125 62.832813) scale(0.1 -0.1)">
      <defs>
       <path id="DejaVuSans-37" d="M 525 4666 
L 3525 4666 
L 3525 4397 
L 1831 0 
L 1172 0 
L 2766 4134 
L 525 4134 
L 525 4666 
z
" transform="scale(0.015625)"/>
      </defs>
      <use xlink:href="#DejaVuSans-Oblique-52" transform="translate(0 0.78125)"/>
      <use xlink:href="#DejaVuSans-Oblique-65" transform="translate(69.482422 0.78125)"/>
      <use xlink:href="#DejaVuSans-3d" transform="translate(150.488281 0.78125)"/>
      <use xlink:href="#DejaVuSans-32" transform="translate(253.759766 0.78125)"/>
      <use xlink:href="#DejaVuSans-37" transform="translate(317.382812 0.78125)"/>
      <use xlink:href="#DejaVuSans-38" transform="translate(381.005859 0.78125)"/>
      <use xlink:href="#DejaVuSans-31" transform="translate(444.628906 0.78125)"/>
      <use xlink:href="#DejaVuSans-30" transform="translate(508.251953 0.78125)"/>
     </g>
    </g>
    <g id="line2d_34">
     <path d="M 127.663125 15.298438 
L 137.663125 15.298438 
L 147.663125 15.298438 
" style="fill: none; stroke: #9467bd; stroke-width: 1.5; stroke-linecap: square"/>
    </g>
    <g id="text_20">
     <!-- $Re=33960$ -->
     <g transform="translate(155.663125 18.798438) scale(0.1 -0.1)">
      <use xlink:href="#DejaVuSans-Oblique-52" transform="translate(0 0.78125)"/>
      <use xlink:href="#DejaVuSans-Oblique-65" transform="translate(69.482422 0.78125)"/>
      <use xlink:href="#DejaVuSans-3d" transform="translate(150.488281 0.78125)"/>
      <use xlink:href="#DejaVuSans-33" transform="translate(253.759766 0.78125)"/>
      <use xlink:href="#DejaVuSans-33" transform="translate(317.382812 0.78125)"/>
      <use xlink:href="#DejaVuSans-39" transform="translate(381.005859 0.78125)"/>
      <use xlink:href="#DejaVuSans-36" transform="translate(444.628906 0.78125)"/>
      <use xlink:href="#DejaVuSans-30" transform="translate(508.251953 0.78125)"/>
     </g>
    </g>
    <g id="line2d_35">
     <path d="M 127.663125 29.976563 
L 137.663125 29.976563 
L 147.663125 29.976563 
" style="fill: none; stroke: #8c564b; stroke-width: 1.5; stroke-linecap: square"/>
    </g>
    <g id="text_21">
     <!-- $Re=40190$ -->
     <g transform="translate(155.663125 33.476563) scale(0.1 -0.1)">
      <use xlink:href="#DejaVuSans-Oblique-52" transform="translate(0 0.78125)"/>
      <use xlink:href="#DejaVuSans-Oblique-65" transform="translate(69.482422 0.78125)"/>
      <use xlink:href="#DejaVuSans-3d" transform="translate(150.488281 0.78125)"/>
      <use xlink:href="#DejaVuSans-34" transform="translate(253.759766 0.78125)"/>
      <use xlink:href="#DejaVuSans-30" transform="translate(317.382812 0.78125)"/>
      <use xlink:href="#DejaVuSans-31" transform="translate(381.005859 0.78125)"/>
      <use xlink:href="#DejaVuSans-39" transform="translate(444.628906 0.78125)"/>
      <use xlink:href="#DejaVuSans-30" transform="translate(508.251953 0.78125)"/>
     </g>
    </g>
    <g id="line2d_36">
     <path d="M 127.663125 44.654688 
L 137.663125 44.654688 
L 147.663125 44.654688 
" style="fill: none; stroke: #e377c2; stroke-width: 1.5; stroke-linecap: square"/>
    </g>
    <g id="text_22">
     <!-- $Re=44320$ -->
     <g transform="translate(155.663125 48.154688) scale(0.1 -0.1)">
      <use xlink:href="#DejaVuSans-Oblique-52" transform="translate(0 0.78125)"/>
      <use xlink:href="#DejaVuSans-Oblique-65" transform="translate(69.482422 0.78125)"/>
      <use xlink:href="#DejaVuSans-3d" transform="translate(150.488281 0.78125)"/>
      <use xlink:href="#DejaVuSans-34" transform="translate(253.759766 0.78125)"/>
      <use xlink:href="#DejaVuSans-34" transform="translate(317.382812 0.78125)"/>
      <use xlink:href="#DejaVuSans-33" transform="translate(381.005859 0.78125)"/>
      <use xlink:href="#DejaVuSans-32" transform="translate(444.628906 0.78125)"/>
      <use xlink:href="#DejaVuSans-30" transform="translate(508.251953 0.78125)"/>
     </g>
    </g>
    <g id="line2d_37">
     <path d="M 127.663125 59.332813 
L 137.663125 59.332813 
L 147.663125 59.332813 
" style="fill: none; stroke: #7f7f7f; stroke-width: 1.5; stroke-linecap: square"/>
    </g>
    <g id="text_23">
     <!-- $Re=51620$ -->
     <g transform="translate(155.663125 62.832813) scale(0.1 -0.1)">
      <use xlink:href="#DejaVuSans-Oblique-52" transform="translate(0 0.78125)"/>
      <use xlink:href="#DejaVuSans-Oblique-65" transform="translate(69.482422 0.78125)"/>
      <use xlink:href="#DejaVuSans-3d" transform="translate(150.488281 0.78125)"/>
      <use xlink:href="#DejaVuSans-35" transform="translate(253.759766 0.78125)"/>
      <use xlink:href="#DejaVuSans-31" transform="translate(317.382812 0.78125)"/>
      <use xlink:href="#DejaVuSans-36" transform="translate(381.005859 0.78125)"/>
      <use xlink:href="#DejaVuSans-32" transform="translate(444.628906 0.78125)"/>
      <use xlink:href="#DejaVuSans-30" transform="translate(508.251953 0.78125)"/>
     </g>
    </g>
    <g id="line2d_38">
     <path d="M 232.863125 15.298438 
L 242.863125 15.298438 
L 252.863125 15.298438 
" style="fill: none; stroke: #bcbd22; stroke-width: 1.5; stroke-linecap: square"/>
    </g>
    <g id="text_24">
     <!-- $Re=55090$ -->
     <g transform="translate(260.863125 18.798438) scale(0.1 -0.1)">
      <use xlink:href="#DejaVuSans-Oblique-52" transform="translate(0 0.78125)"/>
      <use xlink:href="#DejaVuSans-Oblique-65" transform="translate(69.482422 0.78125)"/>
      <use xlink:href="#DejaVuSans-3d" transform="translate(150.488281 0.78125)"/>
      <use xlink:href="#DejaVuSans-35" transform="translate(253.759766 0.78125)"/>
      <use xlink:href="#DejaVuSans-35" transform="translate(317.382812 0.78125)"/>
      <use xlink:href="#DejaVuSans-30" transform="translate(381.005859 0.78125)"/>
      <use xlink:href="#DejaVuSans-39" transform="translate(444.628906 0.78125)"/>
      <use xlink:href="#DejaVuSans-30" transform="translate(508.251953 0.78125)"/>
     </g>
    </g>
    <g id="line2d_39">
     <path d="M 232.863125 29.976563 
L 242.863125 29.976563 
L 252.863125 29.976563 
" style="fill: none; stroke: #17becf; stroke-width: 1.5; stroke-linecap: square"/>
    </g>
    <g id="text_25">
     <!-- $Re=63880$ -->
     <g transform="translate(260.863125 33.476563) scale(0.1 -0.1)">
      <use xlink:href="#DejaVuSans-Oblique-52" transform="translate(0 0.78125)"/>
      <use xlink:href="#DejaVuSans-Oblique-65" transform="translate(69.482422 0.78125)"/>
      <use xlink:href="#DejaVuSans-3d" transform="translate(150.488281 0.78125)"/>
      <use xlink:href="#DejaVuSans-36" transform="translate(253.759766 0.78125)"/>
      <use xlink:href="#DejaVuSans-33" transform="translate(317.382812 0.78125)"/>
      <use xlink:href="#DejaVuSans-38" transform="translate(381.005859 0.78125)"/>
      <use xlink:href="#DejaVuSans-38" transform="translate(444.628906 0.78125)"/>
      <use xlink:href="#DejaVuSans-30" transform="translate(508.251953 0.78125)"/>
     </g>
    </g>
    <g id="line2d_40">
     <path d="M 232.863125 44.654688 
L 242.863125 44.654688 
L 252.863125 44.654688 
" style="fill: none; stroke: #1f77b4; stroke-width: 1.5; stroke-linecap: square"/>
    </g>
    <g id="text_26">
     <!-- $Re=68020$ -->
     <g transform="translate(260.863125 48.154688) scale(0.1 -0.1)">
      <use xlink:href="#DejaVuSans-Oblique-52" transform="translate(0 0.78125)"/>
      <use xlink:href="#DejaVuSans-Oblique-65" transform="translate(69.482422 0.78125)"/>
      <use xlink:href="#DejaVuSans-3d" transform="translate(150.488281 0.78125)"/>
      <use xlink:href="#DejaVuSans-36" transform="translate(253.759766 0.78125)"/>
      <use xlink:href="#DejaVuSans-38" transform="translate(317.382812 0.78125)"/>
      <use xlink:href="#DejaVuSans-30" transform="translate(381.005859 0.78125)"/>
      <use xlink:href="#DejaVuSans-32" transform="translate(444.628906 0.78125)"/>
      <use xlink:href="#DejaVuSans-30" transform="translate(508.251953 0.78125)"/>
     </g>
    </g>
    <g id="line2d_41">
     <path d="M 232.863125 59.332813 
L 242.863125 59.332813 
L 252.863125 59.332813 
" style="fill: none; stroke: #ff7f0e; stroke-width: 1.5; stroke-linecap: square"/>
    </g>
    <g id="text_27">
     <!-- $Re=76740$ -->
     <g transform="translate(260.863125 62.832813) scale(0.1 -0.1)">
      <use xlink:href="#DejaVuSans-Oblique-52" transform="translate(0 0.78125)"/>
      <use xlink:href="#DejaVuSans-Oblique-65" transform="translate(69.482422 0.78125)"/>
      <use xlink:href="#DejaVuSans-3d" transform="translate(150.488281 0.78125)"/>
      <use xlink:href="#DejaVuSans-37" transform="translate(253.759766 0.78125)"/>
      <use xlink:href="#DejaVuSans-36" transform="translate(317.382812 0.78125)"/>
      <use xlink:href="#DejaVuSans-37" transform="translate(381.005859 0.78125)"/>
      <use xlink:href="#DejaVuSans-34" transform="translate(444.628906 0.78125)"/>
      <use xlink:href="#DejaVuSans-30" transform="translate(508.251953 0.78125)"/>
     </g>
    </g>
    <g id="line2d_42">
     <path d="M 338.063125 15.298438 
L 348.063125 15.298438 
L 358.063125 15.298438 
" style="fill: none; stroke: #2ca02c; stroke-width: 1.5; stroke-linecap: square"/>
    </g>
    <g id="text_28">
     <!-- $Re=80510$ -->
     <g transform="translate(366.063125 18.798438) scale(0.1 -0.1)">
      <use xlink:href="#DejaVuSans-Oblique-52" transform="translate(0 0.78125)"/>
      <use xlink:href="#DejaVuSans-Oblique-65" transform="translate(69.482422 0.78125)"/>
      <use xlink:href="#DejaVuSans-3d" transform="translate(150.488281 0.78125)"/>
      <use xlink:href="#DejaVuSans-38" transform="translate(253.759766 0.78125)"/>
      <use xlink:href="#DejaVuSans-30" transform="translate(317.382812 0.78125)"/>
      <use xlink:href="#DejaVuSans-35" transform="translate(381.005859 0.78125)"/>
      <use xlink:href="#DejaVuSans-31" transform="translate(444.628906 0.78125)"/>
      <use xlink:href="#DejaVuSans-30" transform="translate(508.251953 0.78125)"/>
     </g>
    </g>
    <g id="line2d_43">
     <path d="M 338.063125 29.976563 
L 348.063125 29.976563 
L 358.063125 29.976563 
" style="fill: none; stroke: #d62728; stroke-width: 1.5; stroke-linecap: square"/>
    </g>
    <g id="text_29">
     <!-- $Re=84810$ -->
     <g transform="translate(366.063125 33.476563) scale(0.1 -0.1)">
      <use xlink:href="#DejaVuSans-Oblique-52" transform="translate(0 0.78125)"/>
      <use xlink:href="#DejaVuSans-Oblique-65" transform="translate(69.482422 0.78125)"/>
      <use xlink:href="#DejaVuSans-3d" transform="translate(150.488281 0.78125)"/>
      <use xlink:href="#DejaVuSans-38" transform="translate(253.759766 0.78125)"/>
      <use xlink:href="#DejaVuSans-34" transform="translate(317.382812 0.78125)"/>
      <use xlink:href="#DejaVuSans-38" transform="translate(381.005859 0.78125)"/>
      <use xlink:href="#DejaVuSans-31" transform="translate(444.628906 0.78125)"/>
      <use xlink:href="#DejaVuSans-30" transform="translate(508.251953 0.78125)"/>
     </g>
    </g>
    <g id="line2d_44">
     <path d="M 338.063125 44.654688 
L 348.063125 44.654688 
L 358.063125 44.654688 
" style="fill: none; stroke: #9467bd; stroke-width: 1.5; stroke-linecap: square"/>
    </g>
    <g id="text_30">
     <!-- $Re=93240$ -->
     <g transform="translate(366.063125 48.154688) scale(0.1 -0.1)">
      <use xlink:href="#DejaVuSans-Oblique-52" transform="translate(0 0.78125)"/>
      <use xlink:href="#DejaVuSans-Oblique-65" transform="translate(69.482422 0.78125)"/>
      <use xlink:href="#DejaVuSans-3d" transform="translate(150.488281 0.78125)"/>
      <use xlink:href="#DejaVuSans-39" transform="translate(253.759766 0.78125)"/>
      <use xlink:href="#DejaVuSans-33" transform="translate(317.382812 0.78125)"/>
      <use xlink:href="#DejaVuSans-32" transform="translate(381.005859 0.78125)"/>
      <use xlink:href="#DejaVuSans-34" transform="translate(444.628906 0.78125)"/>
      <use xlink:href="#DejaVuSans-30" transform="translate(508.251953 0.78125)"/>
     </g>
    </g>
    <g id="line2d_45">
     <path d="M 338.063125 59.332813 
L 348.063125 59.332813 
L 358.063125 59.332813 
" style="fill: none; stroke: #8c564b; stroke-width: 1.5; stroke-linecap: square"/>
    </g>
    <g id="text_31">
     <!-- $Re=96340$ -->
     <g transform="translate(366.063125 62.832813) scale(0.1 -0.1)">
      <use xlink:href="#DejaVuSans-Oblique-52" transform="translate(0 0.78125)"/>
      <use xlink:href="#DejaVuSans-Oblique-65" transform="translate(69.482422 0.78125)"/>
      <use xlink:href="#DejaVuSans-3d" transform="translate(150.488281 0.78125)"/>
      <use xlink:href="#DejaVuSans-39" transform="translate(253.759766 0.78125)"/>
      <use xlink:href="#DejaVuSans-36" transform="translate(317.382812 0.78125)"/>
      <use xlink:href="#DejaVuSans-33" transform="translate(381.005859 0.78125)"/>
      <use xlink:href="#DejaVuSans-34" transform="translate(444.628906 0.78125)"/>
      <use xlink:href="#DejaVuSans-30" transform="translate(508.251953 0.78125)"/>
     </g>
    </g>
   </g>
  </g>
 </g>
 <defs>
  <clipPath id="p78ad875565">
   <rect x="44.303125" y="82.0336" width="357.12" height="266.112"/>
  </clipPath>
 </defs>
</svg>
