<?xml version="1.0" encoding="utf-8" standalone="no"?>
<!DOCTYPE svg PUBLIC "-//W3C//DTD SVG 1.1//EN"
  "http://www.w3.org/Graphics/SVG/1.1/DTD/svg11.dtd">
<svg xmlns:xlink="http://www.w3.org/1999/xlink" width="382.892719pt" height="241.766478pt" viewBox="0 0 382.892719 241.766478" xmlns="http://www.w3.org/2000/svg" version="1.1">
 <metadata>
  <rdf:RDF xmlns:dc="http://purl.org/dc/elements/1.1/" xmlns:cc="http://creativecommons.org/ns#" xmlns:rdf="http://www.w3.org/1999/02/22-rdf-syntax-ns#">
   <cc:Work>
    <dc:type rdf:resource="http://purl.org/dc/dcmitype/StillImage"/>
    <dc:date>2025-01-14T10:01:49.495866</dc:date>
    <dc:format>image/svg+xml</dc:format>
    <dc:creator>
     <cc:Agent>
      <dc:title>Matplotlib v3.9.2, https://matplotlib.org/</dc:title>
     </cc:Agent>
    </dc:creator>
   </cc:Work>
  </rdf:RDF>
 </metadata>
 <defs>
  <style type="text/css">*{stroke-linejoin: round; stroke-linecap: butt}</style>
 </defs>
 <g id="figure_1">
  <g id="patch_1">
   <path d="M 0 241.766478 
L 382.892719 241.766478 
L 382.892719 0 
L 0 0 
L 0 241.766478 
z
" style="fill: none"/>
  </g>
  <g id="axes_1">
   <g id="patch_2">
    <path d="M 40.892719 205.855125 
L 375.692719 205.855125 
L 375.692719 39.535125 
L 40.892719 39.535125 
L 40.892719 205.855125 
z
" style="fill: none"/>
   </g>
   <g id="PolyCollection_1">
    <defs>
     <path id="m9c27d7b717" d="M 126.695735 -35.911353 
L 126.695735 -57.948346 
L 128.378148 -59.725893 
L 130.060559 -61.605264 
L 131.74297 -63.588184 
L 133.425382 -65.675987 
L 135.107795 -67.869597 
L 136.790207 -70.169469 
L 138.472619 -72.575544 
L 140.15503 -75.087246 
L 141.837443 -77.703407 
L 143.519855 -80.422303 
L 145.202267 -83.241513 
L 146.884679 -86.158029 
L 148.567091 -89.168097 
L 150.249503 -92.267357 
L 151.931915 -95.450678 
L 153.614327 -98.712221 
L 155.296739 -102.045473 
L 156.979151 -105.443168 
L 158.661563 -108.897398 
L 160.343975 -112.399491 
L 162.026388 -115.940192 
L 163.7088 -119.509587 
L 165.391212 -123.097154 
L 167.073623 -126.691858 
L 168.756036 -130.282131 
L 170.438448 -133.855967 
L 172.120859 -137.401005 
L 173.803272 -140.904535 
L 175.485684 -144.353611 
L 177.168096 -147.735127 
L 178.850509 -151.035877 
L 180.532921 -154.242659 
L 182.215334 -157.342365 
L 183.897743 -160.322049 
L 185.580156 -163.169011 
L 187.262568 -165.870921 
L 188.944981 -168.41589 
L 190.627393 -170.79253 
L 192.309805 -172.990082 
L 193.992218 -174.998467 
L 195.674627 -176.808394 
L 197.35704 -178.411398 
L 199.039452 -179.799895 
L 200.721867 -180.967322 
L 202.404277 -181.908068 
L 204.086687 -182.617623 
L 205.769102 -183.092586 
L 207.451511 -183.330638 
L 209.133927 -183.330638 
L 210.816336 -183.092586 
L 212.498751 -182.617623 
L 214.181161 -181.908068 
L 215.863571 -180.967322 
L 217.545986 -179.799895 
L 219.228396 -178.411398 
L 220.910811 -176.808394 
L 222.59322 -174.998467 
L 224.275636 -172.990073 
L 225.958045 -170.79253 
L 227.64046 -168.41588 
L 229.32287 -165.870921 
L 231.00528 -163.169011 
L 232.687695 -160.322049 
L 234.370104 -157.342365 
L 236.05252 -154.242659 
L 237.734929 -151.035877 
L 239.417344 -147.735117 
L 241.099754 -144.353611 
L 242.782164 -140.904545 
L 244.464579 -137.401005 
L 246.146994 -133.855967 
L 247.829398 -130.282141 
L 249.511813 -126.691858 
L 251.194229 -123.097144 
L 252.876644 -119.509577 
L 254.559048 -115.940202 
L 256.241463 -112.399491 
L 257.923878 -108.897384 
L 259.606282 -105.443188 
L 261.288697 -102.045473 
L 262.971113 -98.712221 
L 264.653528 -95.450664 
L 266.335932 -92.267362 
L 268.018347 -89.168097 
L 269.700762 -86.158014 
L 271.383166 -83.241518 
L 273.065582 -80.422303 
L 274.747997 -77.703407 
L 276.430412 -75.087237 
L 278.112816 -72.575544 
L 279.795231 -70.169469 
L 281.477646 -67.869597 
L 283.16005 -65.675995 
L 284.842466 -63.588184 
L 286.524881 -61.605264 
L 288.207296 -59.725888 
L 289.8897 -57.948346 
L 289.8897 -35.911353 
L 289.8897 -35.911353 
L 288.207296 -35.911353 
L 286.524881 -35.911353 
L 284.842466 -35.911353 
L 283.16005 -35.911353 
L 281.477646 -35.911353 
L 279.795231 -35.911353 
L 278.112816 -35.911353 
L 276.430412 -35.911353 
L 274.747997 -35.911353 
L 273.065582 -35.911353 
L 271.383166 -35.911353 
L 269.700762 -35.911353 
L 268.018347 -35.911353 
L 266.335932 -35.911353 
L 264.653528 -35.911353 
L 262.971113 -35.911353 
L 261.288697 -35.911353 
L 259.606282 -35.911353 
L 257.923878 -35.911353 
L 256.241463 -35.911353 
L 254.559048 -35.911353 
L 252.876644 -35.911353 
L 251.194229 -35.911353 
L 249.511813 -35.911353 
L 247.829398 -35.911353 
L 246.146994 -35.911353 
L 244.464579 -35.911353 
L 242.782164 -35.911353 
L 241.099754 -35.911353 
L 239.417344 -35.911353 
L 237.734929 -35.911353 
L 236.05252 -35.911353 
L 234.370104 -35.911353 
L 232.687695 -35.911353 
L 231.00528 -35.911353 
L 229.32287 -35.911353 
L 227.64046 -35.911353 
L 225.958045 -35.911353 
L 224.275636 -35.911353 
L 222.59322 -35.911353 
L 220.910811 -35.911353 
L 219.228396 -35.911353 
L 217.545986 -35.911353 
L 215.863571 -35.911353 
L 214.181161 -35.911353 
L 212.498751 -35.911353 
L 210.816336 -35.911353 
L 209.133927 -35.911353 
L 207.451511 -35.911353 
L 205.769102 -35.911353 
L 204.086687 -35.911353 
L 202.404277 -35.911353 
L 200.721867 -35.911353 
L 199.039452 -35.911353 
L 197.35704 -35.911353 
L 195.674627 -35.911353 
L 193.992218 -35.911353 
L 192.309805 -35.911353 
L 190.627393 -35.911353 
L 188.944981 -35.911353 
L 187.262568 -35.911353 
L 185.580156 -35.911353 
L 183.897743 -35.911353 
L 182.215334 -35.911353 
L 180.532921 -35.911353 
L 178.850509 -35.911353 
L 177.168096 -35.911353 
L 175.485684 -35.911353 
L 173.803272 -35.911353 
L 172.120859 -35.911353 
L 170.438448 -35.911353 
L 168.756036 -35.911353 
L 167.073623 -35.911353 
L 165.391212 -35.911353 
L 163.7088 -35.911353 
L 162.026388 -35.911353 
L 160.343975 -35.911353 
L 158.661563 -35.911353 
L 156.979151 -35.911353 
L 155.296739 -35.911353 
L 153.614327 -35.911353 
L 151.931915 -35.911353 
L 150.249503 -35.911353 
L 148.567091 -35.911353 
L 146.884679 -35.911353 
L 145.202267 -35.911353 
L 143.519855 -35.911353 
L 141.837443 -35.911353 
L 140.15503 -35.911353 
L 138.472619 -35.911353 
L 136.790207 -35.911353 
L 135.107795 -35.911353 
L 133.425382 -35.911353 
L 131.74297 -35.911353 
L 130.060559 -35.911353 
L 128.378148 -35.911353 
L 126.695735 -35.911353 
z
" style="stroke: #8dd3c7; stroke-opacity: 0.3"/>
    </defs>
    <g clip-path="url(#pc21a7e82e7)">
     <use xlink:href="#m9c27d7b717" x="0" y="241.766478" style="fill: #8dd3c7; fill-opacity: 0.3; stroke: #8dd3c7; stroke-opacity: 0.3"/>
    </g>
   </g>
   <g id="PathCollection_1">
    <defs>
     <path id="m7c5c8873d5" d="M 0 3 
C 0.795609 3 1.55874 2.683901 2.12132 2.12132 
C 2.683901 1.55874 3 0.795609 3 0 
C 3 -0.795609 2.683901 -1.55874 2.12132 -2.12132 
C 1.55874 -2.683901 0.795609 -3 0 -3 
C -0.795609 -3 -1.55874 -2.683901 -2.12132 -2.12132 
C -2.683901 -1.55874 -3 -0.795609 -3 0 
C -3 0.795609 -2.683901 1.55874 -2.12132 2.12132 
C -1.55874 2.683901 -0.795609 3 0 3 
z
" style="stroke: #feffb3; stroke-opacity: 0.5"/>
    </defs>
    <g clip-path="url(#pc21a7e82e7)">
     <use xlink:href="#m7c5c8873d5" x="161.176325" y="202.528725" style="fill: #feffb3; fill-opacity: 0.5; stroke: #feffb3; stroke-opacity: 0.5"/>
     <use xlink:href="#m7c5c8873d5" x="160.066448" y="202.528725" style="fill: #feffb3; fill-opacity: 0.5; stroke: #feffb3; stroke-opacity: 0.5"/>
     <use xlink:href="#m7c5c8873d5" x="197.806006" y="202.528725" style="fill: #feffb3; fill-opacity: 0.5; stroke: #feffb3; stroke-opacity: 0.5"/>
     <use xlink:href="#m7c5c8873d5" x="190.134893" y="202.528725" style="fill: #feffb3; fill-opacity: 0.5; stroke: #feffb3; stroke-opacity: 0.5"/>
     <use xlink:href="#m7c5c8873d5" x="243.811243" y="202.528725" style="fill: #feffb3; fill-opacity: 0.5; stroke: #feffb3; stroke-opacity: 0.5"/>
     <use xlink:href="#m7c5c8873d5" x="237.2533" y="202.528725" style="fill: #feffb3; fill-opacity: 0.5; stroke: #feffb3; stroke-opacity: 0.5"/>
     <use xlink:href="#m7c5c8873d5" x="195.067585" y="202.528725" style="fill: #feffb3; fill-opacity: 0.5; stroke: #feffb3; stroke-opacity: 0.5"/>
     <use xlink:href="#m7c5c8873d5" x="119.770795" y="202.528725" style="fill: #feffb3; fill-opacity: 0.5; stroke: #feffb3; stroke-opacity: 0.5"/>
     <use xlink:href="#m7c5c8873d5" x="221.779923" y="202.528725" style="fill: #feffb3; fill-opacity: 0.5; stroke: #feffb3; stroke-opacity: 0.5"/>
     <use xlink:href="#m7c5c8873d5" x="155.422162" y="202.528725" style="fill: #feffb3; fill-opacity: 0.5; stroke: #feffb3; stroke-opacity: 0.5"/>
     <use xlink:href="#m7c5c8873d5" x="222.939512" y="202.528725" style="fill: #feffb3; fill-opacity: 0.5; stroke: #feffb3; stroke-opacity: 0.5"/>
     <use xlink:href="#m7c5c8873d5" x="221.188122" y="202.528725" style="fill: #feffb3; fill-opacity: 0.5; stroke: #feffb3; stroke-opacity: 0.5"/>
     <use xlink:href="#m7c5c8873d5" x="213.308085" y="202.528725" style="fill: #feffb3; fill-opacity: 0.5; stroke: #feffb3; stroke-opacity: 0.5"/>
     <use xlink:href="#m7c5c8873d5" x="260.088699" y="202.528725" style="fill: #feffb3; fill-opacity: 0.5; stroke: #feffb3; stroke-opacity: 0.5"/>
     <use xlink:href="#m7c5c8873d5" x="255.029846" y="202.528725" style="fill: #feffb3; fill-opacity: 0.5; stroke: #feffb3; stroke-opacity: 0.5"/>
     <use xlink:href="#m7c5c8873d5" x="197.944129" y="202.528725" style="fill: #feffb3; fill-opacity: 0.5; stroke: #feffb3; stroke-opacity: 0.5"/>
     <use xlink:href="#m7c5c8873d5" x="151.684161" y="202.528725" style="fill: #feffb3; fill-opacity: 0.5; stroke: #feffb3; stroke-opacity: 0.5"/>
     <use xlink:href="#m7c5c8873d5" x="137.318006" y="202.528725" style="fill: #feffb3; fill-opacity: 0.5; stroke: #feffb3; stroke-opacity: 0.5"/>
     <use xlink:href="#m7c5c8873d5" x="232.007047" y="202.528725" style="fill: #feffb3; fill-opacity: 0.5; stroke: #feffb3; stroke-opacity: 0.5"/>
     <use xlink:href="#m7c5c8873d5" x="241.501045" y="202.528725" style="fill: #feffb3; fill-opacity: 0.5; stroke: #feffb3; stroke-opacity: 0.5"/>
     <use xlink:href="#m7c5c8873d5" x="233.354147" y="202.528725" style="fill: #feffb3; fill-opacity: 0.5; stroke: #feffb3; stroke-opacity: 0.5"/>
     <use xlink:href="#m7c5c8873d5" x="143.211997" y="202.528725" style="fill: #feffb3; fill-opacity: 0.5; stroke: #feffb3; stroke-opacity: 0.5"/>
     <use xlink:href="#m7c5c8873d5" x="194.006788" y="202.528725" style="fill: #feffb3; fill-opacity: 0.5; stroke: #feffb3; stroke-opacity: 0.5"/>
     <use xlink:href="#m7c5c8873d5" x="285.841012" y="202.528725" style="fill: #feffb3; fill-opacity: 0.5; stroke: #feffb3; stroke-opacity: 0.5"/>
     <use xlink:href="#m7c5c8873d5" x="239.688148" y="202.528725" style="fill: #feffb3; fill-opacity: 0.5; stroke: #feffb3; stroke-opacity: 0.5"/>
     <use xlink:href="#m7c5c8873d5" x="183.789648" y="202.528725" style="fill: #feffb3; fill-opacity: 0.5; stroke: #feffb3; stroke-opacity: 0.5"/>
     <use xlink:href="#m7c5c8873d5" x="201.036063" y="202.528725" style="fill: #feffb3; fill-opacity: 0.5; stroke: #feffb3; stroke-opacity: 0.5"/>
     <use xlink:href="#m7c5c8873d5" x="215.97127" y="202.528725" style="fill: #feffb3; fill-opacity: 0.5; stroke: #feffb3; stroke-opacity: 0.5"/>
     <use xlink:href="#m7c5c8873d5" x="266.437683" y="202.528725" style="fill: #feffb3; fill-opacity: 0.5; stroke: #feffb3; stroke-opacity: 0.5"/>
     <use xlink:href="#m7c5c8873d5" x="274.680802" y="202.528725" style="fill: #feffb3; fill-opacity: 0.5; stroke: #feffb3; stroke-opacity: 0.5"/>
     <use xlink:href="#m7c5c8873d5" x="247.895307" y="202.528725" style="fill: #feffb3; fill-opacity: 0.5; stroke: #feffb3; stroke-opacity: 0.5"/>
     <use xlink:href="#m7c5c8873d5" x="172.984849" y="202.528725" style="fill: #feffb3; fill-opacity: 0.5; stroke: #feffb3; stroke-opacity: 0.5"/>
     <use xlink:href="#m7c5c8873d5" x="182.614269" y="202.528725" style="fill: #feffb3; fill-opacity: 0.5; stroke: #feffb3; stroke-opacity: 0.5"/>
     <use xlink:href="#m7c5c8873d5" x="209.614874" y="202.528725" style="fill: #feffb3; fill-opacity: 0.5; stroke: #feffb3; stroke-opacity: 0.5"/>
     <use xlink:href="#m7c5c8873d5" x="252.459427" y="202.528725" style="fill: #feffb3; fill-opacity: 0.5; stroke: #feffb3; stroke-opacity: 0.5"/>
     <use xlink:href="#m7c5c8873d5" x="215.735478" y="202.528725" style="fill: #feffb3; fill-opacity: 0.5; stroke: #feffb3; stroke-opacity: 0.5"/>
     <use xlink:href="#m7c5c8873d5" x="198.65318" y="202.528725" style="fill: #feffb3; fill-opacity: 0.5; stroke: #feffb3; stroke-opacity: 0.5"/>
     <use xlink:href="#m7c5c8873d5" x="191.897799" y="202.528725" style="fill: #feffb3; fill-opacity: 0.5; stroke: #feffb3; stroke-opacity: 0.5"/>
     <use xlink:href="#m7c5c8873d5" x="231.029603" y="202.528725" style="fill: #feffb3; fill-opacity: 0.5; stroke: #feffb3; stroke-opacity: 0.5"/>
     <use xlink:href="#m7c5c8873d5" x="191.755377" y="202.528725" style="fill: #feffb3; fill-opacity: 0.5; stroke: #feffb3; stroke-opacity: 0.5"/>
     <use xlink:href="#m7c5c8873d5" x="216.893969" y="202.528725" style="fill: #feffb3; fill-opacity: 0.5; stroke: #feffb3; stroke-opacity: 0.5"/>
     <use xlink:href="#m7c5c8873d5" x="189.446419" y="202.528725" style="fill: #feffb3; fill-opacity: 0.5; stroke: #feffb3; stroke-opacity: 0.5"/>
     <use xlink:href="#m7c5c8873d5" x="271.945705" y="202.528725" style="fill: #feffb3; fill-opacity: 0.5; stroke: #feffb3; stroke-opacity: 0.5"/>
     <use xlink:href="#m7c5c8873d5" x="351.022234" y="202.528725" style="fill: #feffb3; fill-opacity: 0.5; stroke: #feffb3; stroke-opacity: 0.5"/>
     <use xlink:href="#m7c5c8873d5" x="144.212661" y="202.528725" style="fill: #feffb3; fill-opacity: 0.5; stroke: #feffb3; stroke-opacity: 0.5"/>
     <use xlink:href="#m7c5c8873d5" x="156.644173" y="202.528725" style="fill: #feffb3; fill-opacity: 0.5; stroke: #feffb3; stroke-opacity: 0.5"/>
     <use xlink:href="#m7c5c8873d5" x="284.44822" y="202.528725" style="fill: #feffb3; fill-opacity: 0.5; stroke: #feffb3; stroke-opacity: 0.5"/>
     <use xlink:href="#m7c5c8873d5" x="185.211245" y="202.528725" style="fill: #feffb3; fill-opacity: 0.5; stroke: #feffb3; stroke-opacity: 0.5"/>
     <use xlink:href="#m7c5c8873d5" x="152.82783" y="202.528725" style="fill: #feffb3; fill-opacity: 0.5; stroke: #feffb3; stroke-opacity: 0.5"/>
     <use xlink:href="#m7c5c8873d5" x="216.183687" y="202.528725" style="fill: #feffb3; fill-opacity: 0.5; stroke: #feffb3; stroke-opacity: 0.5"/>
    </g>
   </g>
   <g id="matplotlib.axis_1">
    <g id="xtick_1">
     <g id="line2d_1">
      <defs>
       <path id="m1a5ade195c" d="M 0 0 
L 0 3.5 
" style="stroke: #ffffff; stroke-width: 0.8"/>
      </defs>
      <g>
       <use xlink:href="#m1a5ade195c" x="59.492723" y="205.855125" style="fill: #ffffff; stroke: #ffffff; stroke-width: 0.8"/>
      </g>
     </g>
     <g id="text_1">
      <!-- $\mathdefault{−2}$ -->
      <g style="fill: #ffffff" transform="translate(53.127683 219.773623) scale(0.1 -0.1)">
       <defs>
        <path id="CMSY10-0" d="M 4218 1472 
C 4326 1472 4442 1472 4442 1600 
C 4442 1728 4326 1728 4218 1728 
L 755 1728 
C 646 1728 531 1728 531 1600 
C 531 1472 646 1472 755 1472 
L 4218 1472 
z
" transform="scale(0.015625)"/>
        <path id="CMR17-32" d="M 2669 989 
L 2554 989 
C 2490 536 2438 459 2413 420 
C 2381 369 1920 369 1830 369 
L 602 369 
C 832 619 1280 1072 1824 1597 
C 2214 1967 2669 2402 2669 3035 
C 2669 3790 2067 4224 1395 4224 
C 691 4224 262 3604 262 3030 
C 262 2780 448 2748 525 2748 
C 589 2748 781 2787 781 3010 
C 781 3207 614 3264 525 3264 
C 486 3264 448 3258 422 3245 
C 544 3790 915 4058 1306 4058 
C 1862 4058 2227 3617 2227 3035 
C 2227 2479 1901 2000 1536 1584 
L 262 146 
L 262 0 
L 2515 0 
L 2669 989 
z
" transform="scale(0.015625)"/>
       </defs>
       <use xlink:href="#CMSY10-0" transform="scale(0.996264)"/>
       <use xlink:href="#CMR17-32" transform="translate(77.487468 0) scale(0.996264)"/>
      </g>
     </g>
    </g>
    <g id="xtick_2">
     <g id="line2d_2">
      <g>
       <use xlink:href="#m1a5ade195c" x="105.992721" y="205.855125" style="fill: #ffffff; stroke: #ffffff; stroke-width: 0.8"/>
      </g>
     </g>
     <g id="text_2">
      <!-- $\mathdefault{−1}$ -->
      <g style="fill: #ffffff" transform="translate(99.627681 219.773623) scale(0.1 -0.1)">
       <defs>
        <path id="CMR17-31" d="M 1702 4058 
C 1702 4192 1696 4192 1606 4192 
C 1357 3916 979 3827 621 3827 
C 602 3827 570 3827 563 3808 
C 557 3795 557 3782 557 3648 
C 755 3648 1088 3686 1344 3839 
L 1344 461 
C 1344 236 1331 160 781 160 
L 589 160 
L 589 0 
C 896 0 1216 0 1523 0 
C 1830 0 2150 0 2458 0 
L 2458 160 
L 2266 160 
C 1715 160 1702 230 1702 458 
L 1702 4058 
z
" transform="scale(0.015625)"/>
       </defs>
       <use xlink:href="#CMSY10-0" transform="scale(0.996264)"/>
       <use xlink:href="#CMR17-31" transform="translate(77.487468 0) scale(0.996264)"/>
      </g>
     </g>
    </g>
    <g id="xtick_3">
     <g id="line2d_3">
      <g>
       <use xlink:href="#m1a5ade195c" x="152.492719" y="205.855125" style="fill: #ffffff; stroke: #ffffff; stroke-width: 0.8"/>
      </g>
     </g>
     <g id="text_3">
      <!-- $\mathdefault{0}$ -->
      <g style="fill: #ffffff" transform="translate(150.002051 219.773623) scale(0.1 -0.1)">
       <defs>
        <path id="CMR17-30" d="M 2688 2025 
C 2688 2416 2682 3080 2413 3591 
C 2176 4039 1798 4198 1466 4198 
C 1158 4198 768 4058 525 3597 
C 269 3118 243 2524 243 2025 
C 243 1661 250 1106 448 619 
C 723 -39 1216 -128 1466 -128 
C 1760 -128 2208 -7 2470 600 
C 2662 1042 2688 1559 2688 2025 
z
M 1466 -26 
C 1056 -26 813 325 723 812 
C 653 1188 653 1738 653 2096 
C 653 2588 653 2997 736 3387 
C 858 3929 1216 4096 1466 4096 
C 1728 4096 2067 3923 2189 3400 
C 2272 3036 2278 2607 2278 2096 
C 2278 1680 2278 1169 2202 792 
C 2067 95 1690 -26 1466 -26 
z
" transform="scale(0.015625)"/>
       </defs>
       <use xlink:href="#CMR17-30" transform="scale(0.996264)"/>
      </g>
     </g>
    </g>
    <g id="xtick_4">
     <g id="line2d_4">
      <g>
       <use xlink:href="#m1a5ade195c" x="198.992717" y="205.855125" style="fill: #ffffff; stroke: #ffffff; stroke-width: 0.8"/>
      </g>
     </g>
     <g id="text_4">
      <!-- $\mathdefault{1}$ -->
      <g style="fill: #ffffff" transform="translate(196.50205 219.773623) scale(0.1 -0.1)">
       <use xlink:href="#CMR17-31" transform="scale(0.996264)"/>
      </g>
     </g>
    </g>
    <g id="xtick_5">
     <g id="line2d_5">
      <g>
       <use xlink:href="#m1a5ade195c" x="245.492715" y="205.855125" style="fill: #ffffff; stroke: #ffffff; stroke-width: 0.8"/>
      </g>
     </g>
     <g id="text_5">
      <!-- $\mathdefault{2}$ -->
      <g style="fill: #ffffff" transform="translate(243.002048 219.773623) scale(0.1 -0.1)">
       <use xlink:href="#CMR17-32" transform="scale(0.996264)"/>
      </g>
     </g>
    </g>
    <g id="xtick_6">
     <g id="line2d_6">
      <g>
       <use xlink:href="#m1a5ade195c" x="291.992714" y="205.855125" style="fill: #ffffff; stroke: #ffffff; stroke-width: 0.8"/>
      </g>
     </g>
     <g id="text_6">
      <!-- $\mathdefault{3}$ -->
      <g style="fill: #ffffff" transform="translate(289.502046 219.773623) scale(0.1 -0.1)">
       <defs>
        <path id="CMR17-33" d="M 1414 2157 
C 1984 2157 2234 1662 2234 1090 
C 2234 320 1824 25 1453 25 
C 1114 25 563 194 390 693 
C 422 680 454 680 486 680 
C 640 680 755 782 755 948 
C 755 1133 614 1216 486 1216 
C 378 1216 211 1165 211 926 
C 211 335 787 -128 1466 -128 
C 2176 -128 2720 430 2720 1085 
C 2720 1707 2208 2157 1600 2227 
C 2086 2328 2554 2756 2554 3329 
C 2554 3820 2048 4179 1472 4179 
C 890 4179 378 3829 378 3329 
C 378 3110 544 3072 627 3072 
C 762 3072 877 3155 877 3321 
C 877 3486 762 3569 627 3569 
C 602 3569 570 3569 544 3557 
C 730 3959 1235 4032 1459 4032 
C 1683 4032 2106 3925 2106 3320 
C 2106 3143 2080 2828 1862 2550 
C 1670 2304 1453 2304 1242 2284 
C 1210 2284 1062 2269 1037 2269 
C 992 2263 966 2257 966 2208 
C 966 2163 973 2157 1101 2157 
L 1414 2157 
z
" transform="scale(0.015625)"/>
       </defs>
       <use xlink:href="#CMR17-33" transform="scale(0.996264)"/>
      </g>
     </g>
    </g>
    <g id="xtick_7">
     <g id="line2d_7">
      <g>
       <use xlink:href="#m1a5ade195c" x="338.492712" y="205.855125" style="fill: #ffffff; stroke: #ffffff; stroke-width: 0.8"/>
      </g>
     </g>
     <g id="text_7">
      <!-- $\mathdefault{4}$ -->
      <g style="fill: #ffffff" transform="translate(336.002044 219.773623) scale(0.1 -0.1)">
       <defs>
        <path id="CMR17-34" d="M 2150 4122 
C 2150 4256 2144 4256 2029 4256 
L 128 1254 
L 128 1088 
L 1779 1088 
L 1779 457 
C 1779 224 1766 160 1318 160 
L 1197 160 
L 1197 0 
C 1402 0 1747 0 1965 0 
C 2182 0 2528 0 2733 0 
L 2733 160 
L 2611 160 
C 2163 160 2150 224 2150 457 
L 2150 1088 
L 2803 1088 
L 2803 1254 
L 2150 1254 
L 2150 4122 
z
M 1798 3703 
L 1798 1254 
L 256 1254 
L 1798 3703 
z
" transform="scale(0.015625)"/>
       </defs>
       <use xlink:href="#CMR17-34" transform="scale(0.996264)"/>
      </g>
     </g>
    </g>
    <g id="text_8">
     <!-- $x$ -->
     <g style="fill: #ffffff" transform="translate(205.44576 232.6293) scale(0.1 -0.1)">
      <defs>
       <path id="CMMI12-78" d="M 3034 2606 
C 2829 2567 2752 2414 2752 2293 
C 2752 2139 2874 2088 2963 2088 
C 3155 2088 3290 2254 3290 2427 
C 3290 2695 2982 2816 2714 2816 
C 2323 2816 2106 2433 2048 2312 
C 1901 2816 1504 2816 1389 2816 
C 736 2816 390 1980 390 1839 
C 390 1814 416 1782 461 1782 
C 512 1782 525 1820 538 1846 
C 755 2555 1184 2689 1370 2689 
C 1658 2689 1715 2420 1715 2267 
C 1715 2127 1677 1980 1600 1673 
L 1382 798 
C 1286 415 1101 64 762 64 
C 730 64 570 64 435 147 
C 666 192 717 383 717 460 
C 717 588 621 664 499 664 
C 346 664 179 530 179 326 
C 179 57 480 -64 755 -64 
C 1062 -64 1280 179 1414 441 
C 1517 64 1837 -64 2074 -64 
C 2726 -64 3072 773 3072 913 
C 3072 945 3046 971 3008 971 
C 2950 971 2944 939 2925 888 
C 2752 326 2381 64 2093 64 
C 1869 64 1747 230 1747 492 
C 1747 632 1773 734 1875 1156 
L 2099 2024 
C 2195 2408 2413 2689 2707 2689 
C 2720 2689 2899 2689 3034 2606 
z
" transform="scale(0.015625)"/>
      </defs>
      <use xlink:href="#CMMI12-78" transform="scale(0.996264)"/>
     </g>
    </g>
   </g>
   <g id="matplotlib.axis_2">
    <g id="ytick_1">
     <g id="line2d_8">
      <defs>
       <path id="m17527dd0c7" d="M 0 0 
L -3.5 0 
" style="stroke: #ffffff; stroke-width: 0.8"/>
      </defs>
      <g>
       <use xlink:href="#m17527dd0c7" x="40.892719" y="205.855125" style="fill: #ffffff; stroke: #ffffff; stroke-width: 0.8"/>
      </g>
     </g>
     <g id="text_9">
      <!-- $\mathdefault{0.0}$ -->
      <g style="fill: #ffffff" transform="translate(21.16264 209.314374) scale(0.1 -0.1)">
       <defs>
        <path id="CMMI12-3a" d="M 1178 307 
C 1178 492 1024 619 870 619 
C 685 619 557 466 557 313 
C 557 128 710 0 864 0 
C 1050 0 1178 153 1178 307 
z
" transform="scale(0.015625)"/>
       </defs>
       <use xlink:href="#CMR17-30" transform="scale(0.996264)"/>
       <use xlink:href="#CMMI12-3a" transform="translate(45.690477 0) scale(0.996264)"/>
       <use xlink:href="#CMR17-30" transform="translate(72.787654 0) scale(0.996264)"/>
      </g>
     </g>
    </g>
    <g id="ytick_2">
     <g id="line2d_9">
      <g>
       <use xlink:href="#m17527dd0c7" x="40.892719" y="172.591125" style="fill: #ffffff; stroke: #ffffff; stroke-width: 0.8"/>
      </g>
     </g>
     <g id="text_10">
      <!-- $\mathdefault{0.1}$ -->
      <g style="fill: #ffffff" transform="translate(21.16264 176.050374) scale(0.1 -0.1)">
       <use xlink:href="#CMR17-30" transform="scale(0.996264)"/>
       <use xlink:href="#CMMI12-3a" transform="translate(45.690477 0) scale(0.996264)"/>
       <use xlink:href="#CMR17-31" transform="translate(72.787654 0) scale(0.996264)"/>
      </g>
     </g>
    </g>
    <g id="ytick_3">
     <g id="line2d_10">
      <g>
       <use xlink:href="#m17527dd0c7" x="40.892719" y="139.327125" style="fill: #ffffff; stroke: #ffffff; stroke-width: 0.8"/>
      </g>
     </g>
     <g id="text_11">
      <!-- $\mathdefault{0.2}$ -->
      <g style="fill: #ffffff" transform="translate(21.16264 142.786374) scale(0.1 -0.1)">
       <use xlink:href="#CMR17-30" transform="scale(0.996264)"/>
       <use xlink:href="#CMMI12-3a" transform="translate(45.690477 0) scale(0.996264)"/>
       <use xlink:href="#CMR17-32" transform="translate(72.787654 0) scale(0.996264)"/>
      </g>
     </g>
    </g>
    <g id="ytick_4">
     <g id="line2d_11">
      <g>
       <use xlink:href="#m17527dd0c7" x="40.892719" y="106.063125" style="fill: #ffffff; stroke: #ffffff; stroke-width: 0.8"/>
      </g>
     </g>
     <g id="text_12">
      <!-- $\mathdefault{0.3}$ -->
      <g style="fill: #ffffff" transform="translate(21.16264 109.522374) scale(0.1 -0.1)">
       <use xlink:href="#CMR17-30" transform="scale(0.996264)"/>
       <use xlink:href="#CMMI12-3a" transform="translate(45.690477 0) scale(0.996264)"/>
       <use xlink:href="#CMR17-33" transform="translate(72.787654 0) scale(0.996264)"/>
      </g>
     </g>
    </g>
    <g id="ytick_5">
     <g id="line2d_12">
      <g>
       <use xlink:href="#m17527dd0c7" x="40.892719" y="72.799125" style="fill: #ffffff; stroke: #ffffff; stroke-width: 0.8"/>
      </g>
     </g>
     <g id="text_13">
      <!-- $\mathdefault{0.4}$ -->
      <g style="fill: #ffffff" transform="translate(21.16264 76.258374) scale(0.1 -0.1)">
       <use xlink:href="#CMR17-30" transform="scale(0.996264)"/>
       <use xlink:href="#CMMI12-3a" transform="translate(45.690477 0) scale(0.996264)"/>
       <use xlink:href="#CMR17-34" transform="translate(72.787654 0) scale(0.996264)"/>
      </g>
     </g>
    </g>
    <g id="ytick_6">
     <g id="line2d_13">
      <g>
       <use xlink:href="#m17527dd0c7" x="40.892719" y="39.535125" style="fill: #ffffff; stroke: #ffffff; stroke-width: 0.8"/>
      </g>
     </g>
     <g id="text_14">
      <!-- $\mathdefault{0.5}$ -->
      <g style="fill: #ffffff" transform="translate(21.16264 42.994374) scale(0.1 -0.1)">
       <defs>
        <path id="CMR17-35" d="M 730 3692 
C 794 3666 1056 3584 1325 3584 
C 1920 3584 2246 3911 2432 4100 
C 2432 4157 2432 4192 2394 4192 
C 2387 4192 2374 4192 2323 4163 
C 2099 4058 1837 3973 1517 3973 
C 1325 3973 1037 3999 723 4139 
C 653 4171 640 4171 634 4171 
C 602 4171 595 4164 595 4037 
L 595 2203 
C 595 2089 595 2057 659 2057 
C 691 2057 704 2070 736 2114 
C 941 2401 1222 2522 1542 2522 
C 1766 2522 2246 2382 2246 1289 
C 2246 1085 2246 715 2054 421 
C 1894 159 1645 25 1370 25 
C 947 25 518 320 403 814 
C 429 807 480 795 506 795 
C 589 795 749 840 749 1038 
C 749 1210 627 1280 506 1280 
C 358 1280 262 1190 262 1011 
C 262 454 704 -128 1382 -128 
C 2042 -128 2669 440 2669 1264 
C 2669 2030 2170 2624 1549 2624 
C 1222 2624 947 2503 730 2274 
L 730 3692 
z
" transform="scale(0.015625)"/>
       </defs>
       <use xlink:href="#CMR17-30" transform="scale(0.996264)"/>
       <use xlink:href="#CMMI12-3a" transform="translate(45.690477 0) scale(0.996264)"/>
       <use xlink:href="#CMR17-35" transform="translate(72.787654 0) scale(0.996264)"/>
      </g>
     </g>
    </g>
    <g id="text_15">
     <!-- $p_X(x)$ -->
     <g style="fill: #ffffff" transform="translate(14.67198 135.709538) rotate(-90) scale(0.1 -0.1)">
      <defs>
       <path id="CMMI12-70" d="M 275 -789 
C 230 -980 205 -1031 -58 -1031 
C -134 -1031 -198 -1031 -198 -1152 
C -198 -1165 -192 -1216 -122 -1216 
C -38 -1216 51 -1216 134 -1216 
L 410 -1216 
C 544 -1216 870 -1216 1005 -1216 
C 1043 -1216 1120 -1216 1120 -1101 
C 1120 -1031 1075 -1031 966 -1031 
C 672 -1031 653 -987 653 -937 
C 653 -861 941 219 979 364 
C 1050 185 1222 -64 1555 -64 
C 2278 -64 3059 875 3059 1814 
C 3059 2401 2726 2816 2246 2816 
C 1837 2816 1491 2420 1421 2331 
C 1370 2650 1120 2816 864 2816 
C 678 2816 531 2727 410 2484 
C 294 2254 205 1865 205 1839 
C 205 1814 230 1782 275 1782 
C 326 1782 333 1788 371 1935 
C 467 2312 589 2689 845 2689 
C 992 2689 1043 2587 1043 2397 
C 1043 2245 1024 2181 998 2067 
L 275 -789 
z
M 1382 1993 
C 1427 2171 1606 2357 1709 2446 
C 1779 2510 1990 2689 2234 2689 
C 2515 2689 2643 2408 2643 2076 
C 2643 1769 2464 1047 2304 715 
C 2144 370 1850 64 1555 64 
C 1120 64 1050 613 1050 639 
C 1050 658 1062 709 1069 741 
L 1382 1993 
z
" transform="scale(0.015625)"/>
       <path id="CMMI12-58" d="M 3040 2596 
L 2438 3994 
C 2522 4147 2714 4172 2790 4179 
C 2829 4179 2899 4179 2899 4292 
C 2899 4364 2842 4364 2803 4364 
C 2694 4364 2566 4364 2458 4364 
L 2086 4364 
C 1696 4364 1414 4364 1408 4364 
C 1357 4364 1293 4364 1293 4243 
C 1293 4179 1350 4179 1434 4179 
C 1805 4179 1830 4115 1894 3962 
L 2656 2185 
L 1267 693 
C 1037 442 762 198 288 198 
C 211 192 160 192 160 68 
C 160 48 166 0 237 0 
C 326 0 422 0 512 0 
L 813 0 
C 1018 0 1242 0 1440 0 
C 1485 0 1562 0 1562 115 
C 1562 179 1517 185 1478 185 
C 1350 198 1267 268 1267 370 
C 1267 479 1344 557 1530 748 
L 2099 1368 
C 2240 1516 2579 1886 2720 2026 
L 3392 453 
C 3398 441 3424 377 3424 370 
C 3424 313 3283 198 3078 198 
C 3040 198 2970 198 2970 71 
C 2970 0 3034 0 3066 0 
C 3174 0 3302 0 3411 0 
L 4115 0 
C 4230 0 4352 0 4461 0 
C 4506 0 4576 0 4576 130 
C 4576 198 4512 198 4454 198 
C 4070 198 4058 230 3949 465 
L 3104 2441 
L 3917 3316 
C 3981 3381 4128 3542 4186 3606 
C 4461 3896 4717 4160 5235 4160 
C 5299 4179 5363 4179 5363 4292 
C 5363 4364 5306 4364 5280 4364 
C 5190 4364 5094 4364 5005 4364 
L 4710 4364 
C 4506 4364 4282 4364 4083 4364 
C 4038 4364 3962 4364 3962 4249 
C 3962 4185 4006 4179 4045 4179 
C 4147 4167 4256 4116 4256 3994 
L 4250 3982 
C 4243 3937 4230 3873 4160 3797 
L 3040 2596 
z
" transform="scale(0.015625)"/>
       <path id="CMR17-28" d="M 1958 -1561 
C 1958 -1555 1958 -1542 1939 -1523 
C 1645 -1224 858 -407 858 1581 
C 858 3569 1632 4379 1946 4697 
C 1946 4704 1958 4717 1958 4736 
C 1958 4755 1939 4768 1914 4768 
C 1843 4768 1299 4296 986 3594 
C 666 2887 576 2199 576 1588 
C 576 1128 621 351 1005 -471 
C 1312 -1135 1837 -1600 1914 -1600 
C 1946 -1600 1958 -1587 1958 -1561 
z
" transform="scale(0.015625)"/>
       <path id="CMR17-29" d="M 1683 1581 
C 1683 2040 1638 2817 1254 3639 
C 947 4303 422 4768 346 4768 
C 326 4768 301 4761 301 4729 
C 301 4717 307 4710 314 4697 
C 621 4378 1402 3568 1402 1584 
C 1402 -407 627 -1217 314 -1537 
C 307 -1549 301 -1556 301 -1568 
C 301 -1600 326 -1600 346 -1600 
C 416 -1600 960 -1128 1274 -426 
C 1594 281 1683 969 1683 1581 
z
" transform="scale(0.015625)"/>
      </defs>
      <use xlink:href="#CMMI12-70" transform="scale(0.996264)"/>
      <use xlink:href="#CMMI12-58" transform="translate(48.959514 -14.943915) scale(0.697382)"/>
      <use xlink:href="#CMR17-28" transform="translate(111.612155 0) scale(0.996264)"/>
      <use xlink:href="#CMMI12-78" transform="translate(146.892923 0) scale(0.996264)"/>
      <use xlink:href="#CMR17-29" transform="translate(202.326982 0) scale(0.996264)"/>
     </g>
    </g>
   </g>
   <g id="line2d_14">
    <path d="M 40.892719 205.805661 
L 57.716838 205.627324 
L 67.811312 205.328105 
L 76.223371 204.841014 
L 82.953021 204.192254 
L 88.000255 203.486108 
L 93.047495 202.528825 
L 96.412315 201.717849 
L 99.77714 200.742316 
L 103.141964 199.577472 
L 106.506789 198.196908 
L 109.871614 196.57293 
L 113.236439 194.67708 
L 116.601261 192.480744 
L 119.966086 189.955969 
L 123.33091 187.076364 
L 126.695735 183.818132 
L 130.060559 180.161214 
L 133.425382 176.090491 
L 136.790207 171.597009 
L 140.15503 166.679231 
L 143.519855 161.344175 
L 146.884679 155.608449 
L 150.249503 149.499121 
L 155.296739 139.721004 
L 160.343975 129.366987 
L 177.168096 94.031351 
L 180.532921 87.523819 
L 183.897743 81.444429 
L 187.262568 75.895557 
L 190.627393 70.973948 
L 192.309805 68.776395 
L 193.992218 66.768011 
L 195.674627 64.958084 
L 197.35704 63.35508 
L 199.039452 61.966583 
L 200.721867 60.799156 
L 202.404277 59.858409 
L 204.086687 59.148855 
L 205.769102 58.673892 
L 207.451511 58.43584 
L 209.133927 58.43584 
L 210.816336 58.673892 
L 212.498751 59.148855 
L 214.181161 59.858409 
L 215.863571 60.799156 
L 217.545986 61.966583 
L 219.228396 63.35508 
L 220.910811 64.958084 
L 222.59322 66.768011 
L 224.275636 68.776405 
L 227.64046 73.350598 
L 231.00528 78.597466 
L 234.370104 84.424113 
L 237.734929 90.730601 
L 242.782164 100.861933 
L 249.511813 115.07462 
L 257.923878 132.869094 
L 262.971113 143.054256 
L 268.018347 152.598381 
L 271.383166 158.52496 
L 274.747997 164.063071 
L 278.112816 169.190934 
L 281.477646 173.896881 
L 284.842466 178.178294 
L 288.207296 182.04059 
L 291.572115 185.495933 
L 294.936946 188.562082 
L 298.301765 191.261107 
L 301.666584 193.61824 
L 305.031415 195.660784 
L 308.396234 197.417112 
L 311.761064 198.91586 
L 315.125883 200.185171 
L 318.490714 201.25216 
L 321.855533 202.142435 
L 326.902768 203.198066 
L 331.950002 203.981006 
L 336.997236 204.552331 
L 343.726897 205.070816 
L 352.138951 205.454064 
L 363.915835 205.708589 
L 375.692719 205.805661 
L 375.692719 205.805661 
" clip-path="url(#pc21a7e82e7)" style="fill: none; stroke: #8dd3c7; stroke-width: 1.5; stroke-linecap: square"/>
   </g>
   <g id="line2d_15">
    <path d="M 208.292717 205.855125 
L 208.292717 58.40605 
" clip-path="url(#pc21a7e82e7)" style="fill: none; stroke-dasharray: 5.55,2.4; stroke-dashoffset: 0; stroke: #fa8174; stroke-width: 1.5"/>
   </g>
   <g id="line2d_16">
    <path d="M 126.26672 205.855125 
L 126.26672 184.255357 
" clip-path="url(#pc21a7e82e7)" style="fill: none; stroke-dasharray: 5.55,2.4; stroke-dashoffset: 0; stroke: #fa8174; stroke-width: 1.5"/>
   </g>
   <g id="line2d_17">
    <path d="M 290.318714 205.855125 
L 290.318714 184.255347 
" clip-path="url(#pc21a7e82e7)" style="fill: none; stroke-dasharray: 5.55,2.4; stroke-dashoffset: 0; stroke: #fa8174; stroke-width: 1.5"/>
   </g>
   <g id="patch_3">
    <path d="M 40.892719 205.855125 
L 40.892719 39.535125 
" style="fill: none; stroke: #ffffff; stroke-width: 0.8; stroke-linejoin: miter; stroke-linecap: square"/>
   </g>
   <g id="patch_4">
    <path d="M 375.692719 205.855125 
L 375.692719 39.535125 
" style="fill: none; stroke: #ffffff; stroke-width: 0.8; stroke-linejoin: miter; stroke-linecap: square"/>
   </g>
   <g id="patch_5">
    <path d="M 40.892719 205.855125 
L 375.692719 205.855125 
" style="fill: none; stroke: #ffffff; stroke-width: 0.8; stroke-linejoin: miter; stroke-linecap: square"/>
   </g>
   <g id="patch_6">
    <path d="M 40.892719 39.535125 
L 375.692719 39.535125 
" style="fill: none; stroke: #ffffff; stroke-width: 0.8; stroke-linejoin: miter; stroke-linecap: square"/>
   </g>
   <g id="text_16">
    <g id="patch_7">
     <path d="M 202.024475 56.690429 
L 214.560959 56.690429 
Q 217.560959 56.690429 217.560959 53.690429 
L 217.560959 44.834752 
Q 217.560959 41.834752 214.560959 41.834752 
L 202.024475 41.834752 
Q 199.024475 41.834752 199.024475 44.834752 
L 199.024475 53.690429 
Q 199.024475 56.690429 202.024475 56.690429 
z
" style="fill: #ffffff; opacity: 0.3"/>
    </g>
    <!-- $\mu_X$ -->
    <g style="fill: #fa8174" transform="translate(202.024475 51.75325) scale(0.1 -0.1)">
     <defs>
      <path id="CMMI12-16" d="M 922 140 
C 1082 -6 1318 -64 1536 -64 
C 1946 -64 2227 208 2374 405 
C 2438 69 2707 -64 2931 -64 
C 3123 -64 3277 50 3392 277 
C 3494 493 3584 879 3584 903 
C 3584 935 3558 960 3520 960 
C 3462 960 3456 928 3430 834 
C 3334 461 3213 64 2950 64 
C 2765 64 2752 229 2752 358 
C 2752 504 2810 735 2854 926 
L 3034 1615 
C 3059 1737 3130 2023 3162 2139 
C 3200 2292 3270 2567 3270 2592 
C 3270 2688 3194 2752 3098 2752 
C 3040 2752 2906 2726 2854 2535 
L 2406 760 
C 2374 632 2374 619 2291 517 
C 2214 409 1965 64 1562 64 
C 1203 64 1088 326 1088 625 
C 1088 811 1146 1034 1171 1143 
L 1459 2293 
C 1491 2414 1542 2618 1542 2657 
C 1542 2759 1459 2816 1376 2816 
C 1318 2816 1178 2797 1126 2592 
L 198 -1107 
C 192 -1139 179 -1177 179 -1216 
C 179 -1312 256 -1376 352 -1376 
C 538 -1376 576 -1228 621 -1050 
L 922 140 
z
" transform="scale(0.015625)"/>
     </defs>
     <use xlink:href="#CMMI12-16" transform="scale(0.996264)"/>
     <use xlink:href="#CMMI12-58" transform="translate(58.691421 -14.943915) scale(0.697382)"/>
    </g>
   </g>
   <g id="text_17">
    <g id="patch_8">
     <path d="M 98.421288 182.539736 
L 154.112152 182.539736 
Q 157.112152 182.539736 157.112152 179.539736 
L 157.112152 170.684059 
Q 157.112152 167.684059 154.112152 167.684059 
L 98.421288 167.684059 
Q 95.421288 167.684059 95.421288 170.684059 
L 95.421288 179.539736 
Q 95.421288 182.539736 98.421288 182.539736 
z
" style="fill: #ffffff; opacity: 0.3"/>
    </g>
    <!-- $\mu_X-1.96\sigma_X$ -->
    <g style="fill: #fa8174" transform="translate(98.421288 177.602557) scale(0.1 -0.1)">
     <defs>
      <path id="CMR17-39" d="M 2253 1864 
C 2253 464 1670 31 1190 31 
C 1043 31 685 31 538 294 
C 704 268 826 357 826 518 
C 826 692 685 749 595 749 
C 538 749 365 723 365 506 
C 365 71 742 -128 1203 -128 
C 1939 -128 2688 674 2688 2073 
C 2688 3817 1971 4179 1485 4179 
C 851 4179 243 3628 243 2778 
C 243 1991 762 1408 1414 1408 
C 1952 1408 2189 1903 2253 2112 
L 2253 1864 
z
M 1427 1510 
C 1254 1510 1011 1542 813 1922 
C 678 2169 678 2461 678 2771 
C 678 3146 678 3405 858 3684 
C 947 3817 1114 4032 1485 4032 
C 2240 4032 2240 2885 2240 2632 
C 2240 2182 2035 1510 1427 1510 
z
" transform="scale(0.015625)"/>
      <path id="CMR17-36" d="M 678 2176 
C 678 3690 1395 4032 1811 4032 
C 1946 4032 2272 4009 2400 3776 
C 2298 3776 2106 3776 2106 3553 
C 2106 3381 2246 3323 2336 3323 
C 2394 3323 2566 3348 2566 3560 
C 2566 3954 2246 4179 1805 4179 
C 1043 4179 243 3390 243 1984 
C 243 253 966 -128 1478 -128 
C 2099 -128 2688 427 2688 1283 
C 2688 2081 2170 2662 1517 2662 
C 1126 2662 838 2407 678 1960 
L 678 2176 
z
M 1478 25 
C 691 25 691 1200 691 1436 
C 691 1896 909 2560 1504 2560 
C 1613 2560 1926 2560 2138 2120 
C 2253 1870 2253 1609 2253 1289 
C 2253 944 2253 690 2118 434 
C 1978 171 1773 25 1478 25 
z
" transform="scale(0.015625)"/>
      <path id="CMMI12-1b" d="M 3251 2408 
C 3334 2408 3546 2408 3546 2612 
C 3546 2752 3424 2752 3309 2752 
L 1894 2752 
C 934 2752 243 1686 243 932 
C 243 390 595 -64 1171 -64 
C 1926 -64 2752 747 2752 1705 
C 2752 1954 2694 2196 2541 2408 
L 3251 2408 
z
M 1178 64 
C 851 64 614 313 614 754 
C 614 1137 845 2408 1786 2408 
C 2061 2408 2368 2274 2368 1781 
C 2368 1558 2266 1021 2042 652 
C 1811 275 1466 64 1178 64 
z
" transform="scale(0.015625)"/>
     </defs>
     <use xlink:href="#CMMI12-16" transform="scale(0.996264)"/>
     <use xlink:href="#CMMI12-58" transform="translate(58.691421 -14.943915) scale(0.697382)"/>
     <use xlink:href="#CMSY10-0" transform="translate(143.48327 0) scale(0.996264)"/>
     <use xlink:href="#CMR17-31" transform="translate(243.109944 0) scale(0.996264)"/>
     <use xlink:href="#CMMI12-3a" transform="translate(288.800421 0) scale(0.996264)"/>
     <use xlink:href="#CMR17-39" transform="translate(315.897598 0) scale(0.996264)"/>
     <use xlink:href="#CMR17-36" transform="translate(361.588075 0) scale(0.996264)"/>
     <use xlink:href="#CMMI12-1b" transform="translate(407.278553 0) scale(0.996264)"/>
     <use xlink:href="#CMMI12-58" transform="translate(462.724013 -14.943915) scale(0.697382)"/>
    </g>
   </g>
   <g id="text_18">
    <g id="patch_9">
     <path d="M 262.473282 182.539726 
L 318.164145 182.539726 
Q 321.164145 182.539726 321.164145 179.539726 
L 321.164145 170.684049 
Q 321.164145 167.684049 318.164145 167.684049 
L 262.473282 167.684049 
Q 259.473282 167.684049 259.473282 170.684049 
L 259.473282 179.539726 
Q 259.473282 182.539726 262.473282 182.539726 
z
" style="fill: #ffffff; opacity: 0.3"/>
    </g>
    <!-- $\mu_X+1.96\sigma_X$ -->
    <g style="fill: #fa8174" transform="translate(262.473282 177.602547) scale(0.1 -0.1)">
     <defs>
      <path id="CMR17-2b" d="M 2413 1472 
L 4109 1472 
C 4198 1472 4307 1472 4307 1580 
C 4307 1695 4205 1695 4109 1695 
L 2413 1695 
L 2413 3386 
C 2413 3475 2413 3584 2304 3584 
C 2189 3584 2189 3482 2189 3386 
L 2189 1695 
L 493 1695 
C 403 1695 294 1695 294 1587 
C 294 1472 397 1472 493 1472 
L 2189 1472 
L 2189 -218 
C 2189 -307 2189 -416 2298 -416 
C 2413 -416 2413 -314 2413 -218 
L 2413 1472 
z
" transform="scale(0.015625)"/>
     </defs>
     <use xlink:href="#CMMI12-16" transform="scale(0.996264)"/>
     <use xlink:href="#CMMI12-58" transform="translate(58.691421 -14.943915) scale(0.697382)"/>
     <use xlink:href="#CMR17-2b" transform="translate(143.48327 0) scale(0.996264)"/>
     <use xlink:href="#CMR17-31" transform="translate(237.337265 0) scale(0.996264)"/>
     <use xlink:href="#CMMI12-3a" transform="translate(283.027742 0) scale(0.996264)"/>
     <use xlink:href="#CMR17-39" transform="translate(310.124919 0) scale(0.996264)"/>
     <use xlink:href="#CMR17-36" transform="translate(355.815396 0) scale(0.996264)"/>
     <use xlink:href="#CMMI12-1b" transform="translate(401.505873 0) scale(0.996264)"/>
     <use xlink:href="#CMMI12-58" transform="translate(456.951334 -14.943915) scale(0.697382)"/>
    </g>
   </g>
   <g id="text_19">
    <!-- $p_X(x) = \frac{1}{\sqrt{2\pi \sigma_X^2}} \exp\left(-\frac{1}{2}\left(\frac{x - \mu_X}{\sigma_X}\right)^2\right)$ -->
    <g style="fill: #ffffff" transform="translate(117.708452 24.535125) scale(0.12 -0.12)">
     <defs>
      <path id="CMR17-3d" d="M 4115 2017 
C 4211 2017 4307 2017 4307 2125 
C 4307 2240 4198 2240 4090 2240 
L 512 2240 
C 403 2240 294 2240 294 2125 
C 294 2017 390 2017 486 2017 
L 4115 2017 
z
M 4090 896 
C 4198 896 4307 896 4307 1011 
C 4307 1119 4211 1119 4115 1119 
L 486 1119 
C 390 1119 294 1119 294 1011 
C 294 896 403 896 512 896 
L 4090 896 
z
" transform="scale(0.015625)"/>
      <path id="CMSY10-70" d="M 2490 -5472 
L 1363 -2982 
C 1318 -2880 1286 -2880 1267 -2880 
C 1261 -2880 1229 -2880 1158 -2931 
L 550 -3392 
C 467 -3456 467 -3475 467 -3494 
C 467 -3526 486 -3565 531 -3565 
C 570 -3565 678 -3475 749 -3424 
C 787 -3393 883 -3323 954 -3271 
L 2214 -6042 
C 2259 -6144 2291 -6144 2349 -6144 
C 2445 -6144 2464 -6106 2509 -6016 
L 5414 0 
C 5459 90 5459 115 5459 128 
C 5459 192 5408 256 5331 256 
C 5280 256 5235 224 5184 122 
L 2490 -5472 
z
" transform="scale(0.015625)"/>
      <path id="CMMI12-19" d="M 1658 2408 
L 2381 2408 
C 2208 1692 2099 1226 2099 716 
C 2099 626 2099 -64 2362 -64 
C 2496 -64 2611 57 2611 166 
C 2611 197 2611 210 2566 306 
C 2394 747 2394 1296 2394 1341 
C 2394 1379 2394 1832 2528 2408 
L 3245 2408 
C 3328 2408 3539 2408 3539 2612 
C 3539 2752 3418 2752 3302 2752 
L 1197 2752 
C 1050 2752 832 2752 538 2440 
C 371 2254 166 1916 166 1878 
C 166 1840 198 1827 237 1827 
C 282 1827 288 1846 320 1884 
C 653 2408 986 2408 1146 2408 
L 1510 2408 
C 1370 1929 1210 1373 685 256 
C 634 154 634 140 634 102 
C 634 -32 749 -64 806 -64 
C 992 -64 1043 102 1120 370 
C 1222 696 1222 709 1286 964 
L 1658 2408 
z
" transform="scale(0.015625)"/>
      <path id="CMR17-65" d="M 2438 1472 
C 2464 1498 2464 1511 2464 1576 
C 2464 2238 2118 2816 1389 2816 
C 710 2816 173 2169 173 1383 
C 173 551 781 -64 1459 -64 
C 2176 -64 2458 607 2458 740 
C 2458 784 2419 784 2406 784 
C 2362 784 2355 771 2330 696 
C 2189 265 1837 51 1504 51 
C 1229 51 954 203 781 480 
C 582 803 582 1176 582 1472 
L 2438 1472 
z
M 589 1568 
C 634 2505 1126 2714 1382 2714 
C 1818 2714 2112 2297 2118 1568 
L 589 1568 
z
" transform="scale(0.015625)"/>
      <path id="CMR17-78" d="M 1664 1477 
C 1856 1726 2074 2006 2253 2216 
C 2464 2458 2707 2560 2989 2560 
L 2989 2726 
C 2880 2726 2656 2726 2541 2726 
C 2368 2726 2170 2726 2022 2732 
L 2022 2566 
C 2112 2553 2163 2489 2163 2400 
C 2163 2285 2099 2215 2067 2171 
L 1594 1573 
L 1030 2306 
C 973 2376 973 2388 973 2420 
C 973 2497 1037 2560 1146 2560 
L 1146 2732 
C 992 2726 717 2726 557 2726 
C 384 2726 179 2726 38 2732 
L 38 2560 
C 384 2560 461 2534 614 2343 
L 1350 1395 
C 1363 1382 1395 1344 1395 1325 
C 1395 1299 838 619 768 530 
C 480 185 179 160 6 160 
L 6 0 
C 115 0 339 0 454 0 
C 582 0 864 0 979 -6 
L 979 160 
C 941 166 838 179 838 325 
C 838 440 890 510 947 586 
L 1478 1236 
L 2035 512 
C 2086 442 2163 346 2163 301 
C 2163 211 2086 160 1984 160 
L 1984 -6 
C 2138 0 2413 0 2573 0 
C 2746 0 2950 0 3091 -6 
L 3091 160 
C 2771 160 2675 172 2522 370 
L 1664 1477 
z
" transform="scale(0.015625)"/>
      <path id="CMR17-70" d="M 1408 -1063 
C 998 -1063 973 -1037 973 -789 
L 973 402 
C 1158 134 1427 -38 1766 -38 
C 2406 -38 3053 523 3053 1388 
C 3053 2191 2496 2802 1837 2802 
C 1453 2802 1139 2592 960 2338 
L 960 2802 
L 198 2732 
L 198 2567 
C 576 2567 634 2528 634 2223 
L 634 -789 
C 634 -1031 608 -1063 198 -1063 
L 198 -1228 
C 352 -1216 634 -1216 800 -1216 
C 966 -1216 1254 -1216 1408 -1228 
L 1408 -1063 
z
M 973 2012 
C 973 2102 973 2235 1222 2471 
C 1254 2497 1472 2688 1792 2688 
C 2259 2688 2643 2108 2643 1382 
C 2643 656 2234 64 1728 64 
C 1498 64 1248 172 1056 472 
C 973 612 973 650 973 752 
L 973 2012 
z
" transform="scale(0.015625)"/>
      <path id="CMEX10-30" d="M 2394 -11328 
C 2534 -11328 2573 -11328 2573 -11238 
C 2586 -6752 3104 -3027 5344 102 
C 5389 160 5389 173 5389 186 
C 5389 250 5344 250 5242 250 
C 5139 250 5126 250 5114 237 
C 5088 218 4275 -717 3629 -2003 
C 2784 -3693 2253 -5632 2016 -7962 
C 1997 -8160 1862 -9491 1862 -11008 
L 1862 -11258 
C 1869 -11328 1907 -11328 2042 -11328 
L 2394 -11328 
z
" transform="scale(0.015625)"/>
      <path id="CMEX10-42" d="M 2574 -109 
C 2574 58 2567 64 2395 64 
L 2043 64 
C 1870 64 1863 58 1863 -109 
L 1863 -3731 
C 1863 -3898 1870 -3904 2043 -3904 
L 2395 -3904 
C 2567 -3904 2574 -3898 2574 -3731 
L 2574 -109 
z
" transform="scale(0.015625)"/>
      <path id="CMEX10-40" d="M 2042 320 
C 1907 320 1869 320 1862 250 
L 1862 0 
C 1862 -3910 2560 -6202 2758 -6848 
C 3194 -8269 3904 -9766 4973 -11085 
C 5069 -11200 5094 -11232 5120 -11245 
C 5133 -11251 5139 -11258 5242 -11258 
C 5344 -11258 5389 -11258 5389 -11194 
C 5389 -11181 5389 -11168 5350 -11110 
C 3219 -8154 2579 -4595 2573 230 
C 2573 320 2534 320 2394 320 
L 2042 320 
z
" transform="scale(0.015625)"/>
      <path id="CMEX10-31" d="M 3731 -11008 
C 3731 -7098 3034 -4806 2835 -4160 
C 2400 -2739 1690 -1242 621 77 
C 525 192 499 224 474 237 
C 461 243 454 250 352 250 
C 256 250 205 250 205 186 
C 205 173 205 160 288 45 
C 2515 -3066 3014 -6906 3021 -11238 
C 3021 -11328 3059 -11328 3200 -11328 
L 3552 -11328 
C 3686 -11328 3725 -11328 3731 -11258 
L 3731 -11008 
z
" transform="scale(0.015625)"/>
      <path id="CMEX10-43" d="M 3733 -109 
C 3733 58 3727 64 3554 64 
L 3202 64 
C 3029 64 3023 58 3023 -109 
L 3023 -3731 
C 3023 -3898 3029 -3904 3202 -3904 
L 3554 -3904 
C 3727 -3904 3733 -3898 3733 -3731 
L 3733 -109 
z
" transform="scale(0.015625)"/>
      <path id="CMEX10-41" d="M 3731 250 
C 3725 320 3686 320 3552 320 
L 3200 320 
C 3059 320 3021 320 3021 230 
C 3021 -429 3014 -1952 2848 -3546 
C 2502 -6854 1651 -9146 250 -11110 
C 205 -11168 205 -11181 205 -11194 
C 205 -11258 256 -11258 352 -11258 
C 454 -11258 467 -11258 480 -11245 
C 506 -11226 1318 -10291 1965 -9005 
C 2810 -7315 3341 -5376 3578 -3046 
C 3597 -2848 3731 -1517 3731 0 
L 3731 250 
z
" transform="scale(0.015625)"/>
     </defs>
     <use xlink:href="#CMMI12-70" transform="scale(0.996264)"/>
     <use xlink:href="#CMMI12-58" transform="translate(48.959514 -14.943915) scale(0.697382)"/>
     <use xlink:href="#CMR17-28" transform="translate(111.612155 0) scale(0.996264)"/>
     <use xlink:href="#CMMI12-78" transform="translate(146.892923 0) scale(0.996264)"/>
     <use xlink:href="#CMR17-29" transform="translate(202.326982 0) scale(0.996264)"/>
     <use xlink:href="#CMR17-3d" transform="translate(265.281759 0) scale(0.996264)"/>
     <use xlink:href="#CMR17-31" transform="translate(469.84883 39.226102) scale(0.697382)"/>
     <use xlink:href="#CMSY10-70" transform="translate(365.86607 15.449541) scale(0.996264)"/>
     <use xlink:href="#CMR17-32" transform="translate(448.888324 -54.064409) scale(0.697382)"/>
     <use xlink:href="#CMMI12-19" transform="translate(480.871506 -54.064409) scale(0.697382)"/>
     <use xlink:href="#CMMI12-1b" transform="translate(522.108727 -54.064409) scale(0.697382)"/>
     <use xlink:href="#CMR17-32" transform="translate(563.422566 -30.043511) scale(0.498132)"/>
     <use xlink:href="#CMMI12-58" transform="translate(560.920368 -68.048301) scale(0.498132)"/>
     <use xlink:href="#CMR17-65" transform="translate(623.614692 0) scale(0.996264)"/>
     <use xlink:href="#CMR17-78" transform="translate(664.100352 0) scale(0.996264)"/>
     <use xlink:href="#CMR17-70" transform="translate(712.393268 0) scale(0.996264)"/>
     <use xlink:href="#CMEX10-30" transform="translate(779.893043 120.585585) scale(0.247871)"/>
     <use xlink:href="#CMEX10-42" transform="translate(779.893043 76.959905) scale(0.247871)"/>
     <use xlink:href="#CMEX10-42" transform="translate(779.893043 62.08753) scale(0.247871)"/>
     <use xlink:href="#CMEX10-42" transform="translate(779.893043 47.215155) scale(0.247871)"/>
     <use xlink:href="#CMEX10-42" transform="translate(779.893043 32.34278) scale(0.247871)"/>
     <use xlink:href="#CMEX10-42" transform="translate(779.893043 17.470405) scale(0.247871)"/>
     <use xlink:href="#CMEX10-42" transform="translate(779.893043 2.59803) scale(0.247871)"/>
     <use xlink:href="#CMEX10-42" transform="translate(779.893043 -12.274345) scale(0.247871)"/>
     <use xlink:href="#CMEX10-40" transform="translate(779.893043 -28.138165) scale(0.247871)"/>
     <use xlink:href="#CMSY10-0" transform="translate(801.581776 0) scale(0.996264)"/>
     <use xlink:href="#CMR17-31" transform="translate(880.264757 39.226102) scale(0.697382)"/>
     <use xlink:href="#CMR17-32" transform="translate(880.264757 -34.355253) scale(0.697382)"/>
     <use xlink:href="#CMEX10-30" transform="translate(930.047858 98.27703) scale(0.247871)"/>
     <use xlink:href="#CMEX10-42" transform="translate(930.047858 54.65135) scale(0.247871)"/>
     <use xlink:href="#CMEX10-42" transform="translate(930.047858 39.778975) scale(0.247871)"/>
     <use xlink:href="#CMEX10-42" transform="translate(930.047858 24.9066) scale(0.247871)"/>
     <use xlink:href="#CMEX10-42" transform="translate(930.047858 10.034225) scale(0.247871)"/>
     <use xlink:href="#CMEX10-40" transform="translate(930.047858 -5.829595) scale(0.247871)"/>
     <use xlink:href="#CMMI12-78" transform="translate(952.932105 39.953917) scale(0.697382)"/>
     <use xlink:href="#CMSY10-0" transform="translate(991.735764 39.953917) scale(0.697382)"/>
     <use xlink:href="#CMMI12-16" transform="translate(1045.976757 39.953917) scale(0.697382)"/>
     <use xlink:href="#CMMI12-58" transform="translate(1087.060562 29.493221) scale(0.498132)"/>
     <use xlink:href="#CMMI12-1b" transform="translate(1000.590513 -34.355253) scale(0.697382)"/>
     <use xlink:href="#CMMI12-58" transform="translate(1039.402153 -44.815949) scale(0.498132)"/>
     <use xlink:href="#CMEX10-31" transform="translate(1133.150481 98.27703) scale(0.247871)"/>
     <use xlink:href="#CMEX10-43" transform="translate(1133.150481 54.65135) scale(0.247871)"/>
     <use xlink:href="#CMEX10-43" transform="translate(1133.150481 39.778975) scale(0.247871)"/>
     <use xlink:href="#CMEX10-43" transform="translate(1133.150481 24.9066) scale(0.247871)"/>
     <use xlink:href="#CMEX10-43" transform="translate(1133.150481 10.034225) scale(0.247871)"/>
     <use xlink:href="#CMEX10-41" transform="translate(1133.150481 -5.829595) scale(0.247871)"/>
     <use xlink:href="#CMR17-32" transform="translate(1154.839214 72.341984) scale(0.697382)"/>
     <use xlink:href="#CMEX10-31" transform="translate(1187.320528 120.585585) scale(0.247871)"/>
     <use xlink:href="#CMEX10-43" transform="translate(1187.320528 76.959905) scale(0.247871)"/>
     <use xlink:href="#CMEX10-43" transform="translate(1187.320528 62.08753) scale(0.247871)"/>
     <use xlink:href="#CMEX10-43" transform="translate(1187.320528 47.215155) scale(0.247871)"/>
     <use xlink:href="#CMEX10-43" transform="translate(1187.320528 32.34278) scale(0.247871)"/>
     <use xlink:href="#CMEX10-43" transform="translate(1187.320528 17.470405) scale(0.247871)"/>
     <use xlink:href="#CMEX10-43" transform="translate(1187.320528 2.59803) scale(0.247871)"/>
     <use xlink:href="#CMEX10-43" transform="translate(1187.320528 -12.274345) scale(0.247871)"/>
     <use xlink:href="#CMEX10-41" transform="translate(1187.320528 -28.138165) scale(0.247871)"/>
     <path d="M 365.86607 24.410885 
L 605.814773 24.410885 
L 605.814773 25.40233 
L 365.86607 25.40233 
L 365.86607 24.410885 
z
"/>
     <path d="M 448.888324 15.449541 
L 605.814773 15.449541 
L 605.814773 19.434491 
L 448.888324 19.434491 
L 448.888324 15.449541 
z
"/>
     <path d="M 880.264757 24.410885 
L 912.247939 24.410885 
L 912.247939 25.40233 
L 880.264757 25.40233 
L 880.264757 24.410885 
z
"/>
     <path d="M 952.932105 24.410885 
L 1131.954967 24.410885 
L 1131.954967 25.40233 
L 952.932105 25.40233 
L 952.932105 24.410885 
z
"/>
    </g>
   </g>
   <g id="legend_1">
    <g id="patch_10">
     <path d="M 265.711721 77.325965 
L 368.692719 77.325965 
Q 370.692719 77.325965 370.692719 75.325965 
L 370.692719 46.535125 
Q 370.692719 44.535125 368.692719 44.535125 
L 265.711721 44.535125 
Q 263.711721 44.535125 263.711721 46.535125 
L 263.711721 75.325965 
Q 263.711721 77.325965 265.711721 77.325965 
z
" style="opacity: 0.8; stroke: #cccccc; stroke-linejoin: miter"/>
    </g>
    <g id="patch_11">
     <path d="M 267.711721 55.535125 
L 287.711721 55.535125 
L 287.711721 48.535125 
L 267.711721 48.535125 
z
" style="fill: #8dd3c7; fill-opacity: 0.3; stroke: #8dd3c7; stroke-opacity: 0.3; stroke-linejoin: miter"/>
    </g>
    <g id="text_20">
     <!-- $95\%$ CI -->
     <g style="fill: #ffffff" transform="translate(295.711721 55.535125) scale(0.1 -0.1)">
      <defs>
       <path id="CMR17-25" d="M 4640 959 
C 4640 1698 4275 2240 3846 2240 
C 3411 2240 2970 1736 2970 959 
C 2970 183 3405 -320 3846 -320 
C 4275 -320 4640 215 4640 959 
z
M 3853 -218 
C 3686 -218 3270 -66 3270 959 
C 3270 1991 3686 2138 3853 2138 
C 4205 2138 4525 1634 4525 959 
C 4525 285 4205 -218 3853 -218 
z
M 4083 4577 
C 4128 4647 4134 4653 4134 4685 
C 4134 4761 4077 4800 4026 4800 
C 3962 4800 3936 4756 3891 4706 
C 3520 4190 3008 4134 2746 4134 
C 2106 4134 1715 4494 1594 4607 
C 1510 4682 1389 4800 1171 4800 
C 736 4800 294 4296 294 3519 
C 294 2743 730 2240 1171 2240 
C 1600 2240 1965 2778 1965 3527 
C 1965 3969 1830 4270 1811 4308 
C 2202 4064 2586 4032 2752 4032 
C 3162 4032 3456 4183 3616 4289 
L 3622 4283 
L 858 -84 
C 800 -174 800 -187 800 -206 
C 800 -276 858 -320 915 -320 
C 973 -320 992 -289 1037 -218 
L 4083 4577 
z
M 1178 2342 
C 1011 2342 595 2494 595 3519 
C 595 4551 1011 4698 1178 4698 
C 1530 4698 1850 4194 1850 3519 
C 1850 2845 1530 2342 1178 2342 
z
" transform="scale(0.015625)"/>
       <path id="CMSS17-43" d="M 3501 714 
C 3072 427 2874 344 2355 344 
C 1459 344 934 1303 934 2179 
C 934 3112 1472 4032 2381 4032 
C 2790 4032 3059 3918 3386 3715 
L 3475 4217 
C 3168 4370 2778 4440 2387 4440 
C 1158 4440 397 3316 397 2179 
C 397 927 1299 -64 2323 -64 
C 2874 -64 3066 -19 3539 280 
L 3501 714 
z
" transform="scale(0.015625)"/>
       <path id="CMSS17-49" d="M 1094 4416 
L 557 4416 
L 557 0 
L 1094 0 
L 1094 4416 
z
" transform="scale(0.015625)"/>
      </defs>
      <use xlink:href="#CMR17-39" transform="scale(0.996264)"/>
      <use xlink:href="#CMR17-35" transform="translate(45.690477 0) scale(0.996264)"/>
      <use xlink:href="#CMR17-25" transform="translate(91.380954 0) scale(0.996264)"/>
      <use xlink:href="#CMSS17-43" transform="translate(199.529657 0) scale(0.996264)"/>
      <use xlink:href="#CMSS17-49" transform="translate(259.385428 0) scale(0.996264)"/>
     </g>
    </g>
    <g id="PathCollection_2">
     <g>
      <use xlink:href="#m7c5c8873d5" x="277.711721" y="67.956922" style="fill: #feffb3; fill-opacity: 0.5; stroke: #feffb3; stroke-opacity: 0.5"/>
     </g>
    </g>
    <g id="text_21">
     <!-- $X \sim \mathcal{N}(\mu_X, \sigma_X^2)$ -->
     <g style="fill: #ffffff" transform="translate(295.711721 70.581922) scale(0.1 -0.1)">
      <defs>
       <path id="CMSY10-18" d="M 4622 2138 
C 4622 2278 4584 2342 4533 2342 
C 4501 2342 4449 2298 4443 2176 
C 4417 1562 3995 1210 3547 1210 
C 3143 1210 2836 1485 2522 1760 
C 2196 2054 1863 2349 1428 2349 
C 730 2349 352 1645 352 1062 
C 352 858 435 858 442 858 
C 512 858 531 986 531 1005 
C 557 1709 1037 1990 1428 1990 
C 1831 1990 2138 1715 2452 1440 
C 2778 1146 3111 851 3547 851 
C 4245 851 4622 1555 4622 2138 
z
" transform="scale(0.015625)"/>
       <path id="CMSY10-4e" d="M 1958 3706 
C 2074 3373 2214 2893 2502 2106 
C 2906 1018 3085 621 3475 13 
C 3565 -122 3571 -128 3629 -128 
C 3718 -128 3853 -51 3923 0 
C 4013 83 4019 90 4090 404 
C 4474 2089 4960 3846 5088 4141 
C 5094 4154 5222 4397 6010 4397 
C 6138 4397 6259 4744 6259 4888 
C 6259 4992 6221 4992 6131 4992 
C 5491 4992 5203 4724 5126 4641 
C 4947 4412 4794 3946 4499 2882 
C 4275 2066 4070 1237 3872 415 
C 3520 944 3322 1448 3014 2269 
C 2675 3174 2470 3837 2298 4411 
C 2259 4538 2253 4544 2195 4544 
C 2182 4544 2054 4544 1869 4391 
C 1805 4334 1798 4276 1792 4207 
C 1613 2511 1011 836 838 530 
C 787 434 710 320 582 320 
C 518 320 269 352 102 504 
C 70 530 58 530 51 530 
C -51 530 -186 210 -186 57 
C -186 -141 205 -269 384 -269 
C 794 -269 1120 614 1222 909 
C 1638 2067 1837 3021 1958 3706 
z
" transform="scale(0.015625)"/>
       <path id="CMMI12-3b" d="M 1248 -31 
C 1248 343 1126 619 864 619 
C 659 619 557 453 557 313 
C 557 172 653 0 870 0 
C 954 0 1024 26 1082 83 
C 1094 96 1101 96 1107 96 
C 1120 96 1120 5 1120 -27 
C 1120 -240 1082 -659 710 -1080 
C 640 -1157 640 -1170 640 -1183 
C 640 -1216 672 -1248 704 -1248 
C 755 -1248 1248 -771 1248 -31 
z
" transform="scale(0.015625)"/>
      </defs>
      <use xlink:href="#CMMI12-58" transform="scale(0.996264)"/>
      <use xlink:href="#CMSY10-18" transform="translate(116.466571 0) scale(0.996264)"/>
      <use xlink:href="#CMSY10-4e" transform="translate(221.628047 0) scale(0.996264)"/>
      <use xlink:href="#CMR17-28" transform="translate(318.051509 0) scale(0.996264)"/>
      <use xlink:href="#CMMI12-16" transform="translate(353.332276 0) scale(0.996264)"/>
      <use xlink:href="#CMMI12-58" transform="translate(412.023698 -14.943915) scale(0.697382)"/>
      <use xlink:href="#CMMI12-3b" transform="translate(474.676339 0) scale(0.996264)"/>
      <use xlink:href="#CMMI12-1b" transform="translate(518.377921 0) scale(0.996264)"/>
      <use xlink:href="#CMR17-32" transform="translate(577.397975 36.153639) scale(0.697382)"/>
      <use xlink:href="#CMMI12-58" transform="translate(573.823382 -24.62935) scale(0.697382)"/>
      <use xlink:href="#CMR17-29" transform="translate(636.476023 0) scale(0.996264)"/>
     </g>
    </g>
   </g>
  </g>
 </g>
 <defs>
  <clipPath id="pc21a7e82e7">
   <rect x="40.892719" y="39.535125" width="334.8" height="166.32"/>
  </clipPath>
 </defs>
</svg>
