<svg id="Ebene_1" data-name="Ebene 1" xmlns="http://www.w3.org/2000/svg" viewBox="0 0 1300 530"><defs><style>.cls-1{fill:#fff;}</style></defs><title>Zeichenfläche 1</title><path class="cls-1" d="M502.91,117v73.61H485.5V117H462.22V101.52h64V117Zm38.93,73.61V101.52h58.71V117H559.24v20.91h35.18v15.52H559.24v21.66h41.31v15.52Zm128.69-6.51q-8.89,7.26-21.66,7.26a32.67,32.67,0,0,1-24-9.77,26.25,26.25,0,0,1-7.26-13.4q-1.51-7.51-1.5-22.16t1.5-22.22a25.58,25.58,0,0,1,7.26-13.33,32.67,32.67,0,0,1,24-9.77q12.89,0,21.72,7.26t11.08,20.9H664a17.93,17.93,0,0,0-5.07-9.2q-3.69-3.44-10-3.44-7.14,0-11.14,4.63a12.66,12.66,0,0,0-2.19,3.26,17.18,17.18,0,0,0-1.25,4.38,66.65,66.65,0,0,0-.69,6.76q-.25,4.13-.25,10.77t.25,10.77a66.58,66.58,0,0,0,.69,6.76,17.18,17.18,0,0,0,1.25,4.38,12.64,12.64,0,0,0,2.19,3.25q4,4.63,11.14,4.63,6.26,0,10-3.44a17.93,17.93,0,0,0,5.07-9.2h17.65Q679.42,176.88,670.53,184.14Zm75.24,6.51V153.35H715.6v37.31H698.2V101.52h17.4v36.43h30.17V101.52h17.4v89.13Zm92.39,0-35.3-54.71v54.71h-17.4V101.52H801l35.3,54.58V101.52h17.4v89.13Zm37.81,0V101.52h17.4v89.13Zm88-6.45q-9.26,7.2-23.79,7.2a56.42,56.42,0,0,1-18.34-2.69,37.06,37.06,0,0,1-14.21-9.08l11.27-11.27a23.23,23.23,0,0,0,9.45,5.76,39.27,39.27,0,0,0,12.08,1.75q15.77,0,15.77-11a10.2,10.2,0,0,0-2.38-7.2q-2.38-2.57-8.26-3.44l-5-.75-5.76-.75q-11.39-1.63-17.28-7.39-6.39-6.38-6.39-17.52,0-12.14,8.39-19.59t22.66-7.45a48.75,48.75,0,0,1,16.27,2.44A34.18,34.18,0,0,1,971,111.16L960,122a19.21,19.21,0,0,0-8.32-4.88,37.59,37.59,0,0,0-10-1.25q-6.64,0-10.2,3.19a10.37,10.37,0,0,0-3.57,8.07,8.83,8.83,0,0,0,2.76,6.32q2.75,2.82,8.14,3.57l5.38.75,5.13.75a44.89,44.89,0,0,1,10.08,2.5,21.45,21.45,0,0,1,6.95,4.38q6.88,6.51,6.88,18.9Q973.23,177,964,184.21Zm78.62-.06q-8.89,7.26-21.66,7.26a32.67,32.67,0,0,1-24-9.77,26.25,26.25,0,0,1-7.26-13.4q-1.5-7.51-1.5-22.16t1.5-22.22a25.58,25.58,0,0,1,7.26-13.33,32.67,32.67,0,0,1,24-9.77q12.89,0,21.72,7.26t11.08,20.9h-17.65a17.93,17.93,0,0,0-5.07-9.2q-3.69-3.44-10-3.44-7.14,0-11.14,4.63a12.67,12.67,0,0,0-2.19,3.26,17.19,17.19,0,0,0-1.25,4.38,66.63,66.63,0,0,0-.69,6.76q-.25,4.13-.25,10.77t.25,10.77a66.56,66.56,0,0,0,.69,6.76,17.18,17.18,0,0,0,1.25,4.38,12.65,12.65,0,0,0,2.19,3.25q4,4.63,11.14,4.63,6.26,0,10-3.44a17.92,17.92,0,0,0,5.07-9.2h17.65Q1051.47,176.88,1042.58,184.14Zm75.24,6.51V153.35h-30.17v37.31h-17.4V101.52h17.4v36.43h30.17V101.52h17.4v89.13Zm39.68,0V101.52h58.71V117H1174.9v20.91h35.18v15.52H1174.9v21.66h41.31v15.52ZM525.24,291.85a29.51,29.51,0,0,1-7,10,30.61,30.61,0,0,1-10.51,6.39,38.29,38.29,0,0,1-25.54,0,30.61,30.61,0,0,1-10.52-6.39,29.46,29.46,0,0,1-7-10,31.68,31.68,0,0,1-2.5-12.77V220.49h17.4v58q0,7.64,4.19,12t11.2,4.38q7.13,0,11.33-4.38t4.19-12v-58h17.28v58.59A31.68,31.68,0,0,1,525.24,291.85Zm75.11,17.78-35.3-54.71v54.71h-17.4V220.49h15.52l35.3,54.58V220.49h17.4v89.13Zm36.81,0V220.49h17.4v89.13Zm71.1,0h-13l-29.42-89.13h18l17.9,58.09,17.9-58.09h18.15Zm40.81,0V220.49h58.71V236H766.47v20.91h35.18v15.52H766.47V294.1h41.31v15.52Zm123.56,0-17.4-35.55H842.71v35.55h-17.4V220.49h34.93a33,33,0,0,1,12.08,2.13,26.42,26.42,0,0,1,9.2,5.89,25.22,25.22,0,0,1,5.7,8.7,28.73,28.73,0,0,1,1.94,10.58q0,8.89-4.63,14.9a25.09,25.09,0,0,1-11.64,8.51l19.91,38.43Zm-4.38-70.36a12.9,12.9,0,0,0-9.14-3.25h-16.4v23.54h16.4a12.88,12.88,0,0,0,9.14-3.26,12.09,12.09,0,0,0,0-17ZM956,303.18q-9.26,7.2-23.79,7.2a56.42,56.42,0,0,1-18.34-2.69,37.06,37.06,0,0,1-14.21-9.08l11.27-11.27a23.23,23.23,0,0,0,9.45,5.76,39.29,39.29,0,0,0,12.08,1.75q15.77,0,15.77-11,0-4.63-2.38-7.2t-8.26-3.44l-5-.75-5.76-.75q-11.39-1.63-17.28-7.39-6.39-6.38-6.39-17.52,0-12.14,8.39-19.59t22.66-7.45a48.75,48.75,0,0,1,16.27,2.44A34.18,34.18,0,0,1,963,230.13L952,241a19.21,19.21,0,0,0-8.32-4.88,37.6,37.6,0,0,0-10-1.25q-6.64,0-10.2,3.19a10.37,10.37,0,0,0-3.57,8.07,8.83,8.83,0,0,0,2.76,6.32q2.75,2.82,8.14,3.57l5.38.75,5.13.75a44.89,44.89,0,0,1,10.08,2.5,21.45,21.45,0,0,1,6.95,4.38q6.88,6.51,6.88,18.9Q965.27,296,956,303.18Zm26.17,6.45V220.49h17.4v89.13ZM1054.9,236v73.61h-17.4V236h-23.28V220.49h64V236ZM1136,309.62l-5.26-15.77h-31.67l-5.38,15.77h-18.15L1108,220.49h13.64l32.55,89.13Zm-20.78-62.84L1104,279.2h22.16Zm-28.4-42.56h15.34v15.67h-15.34V204.22Zm41.87,0v15.67h15.35V204.22ZM1192.23,236v73.61h-17.4V236h-23.28V220.49h64V236ZM525.35,406.44a26.37,26.37,0,0,1-7.45,13.65,27,27,0,0,1-10.33,6.38,39.65,39.65,0,0,1-13.21,2.13H462.2V339.46h32.17a39.71,39.71,0,0,1,13.21,2.13A27,27,0,0,1,517.9,348a24.91,24.91,0,0,1,4.94,6.51,30,30,0,0,1,2.69,7.7,59.41,59.41,0,0,1,1.13,9q.25,4.82.25,12.46Q526.92,398.68,525.35,406.44Zm-16.52-38.25a15.24,15.24,0,0,0-3.07-7.7q-4.51-5.51-13-5.51H479.6v58.09h13.14q8.51,0,13-5.51a15.55,15.55,0,0,0,3.07-7.95,132.05,132.05,0,0,0,.69-16A122.6,122.6,0,0,0,508.83,368.19Zm83.68,60.4L575.11,393H562.59V428.6h-17.4V339.46h34.93a33,33,0,0,1,12.08,2.13,26.43,26.43,0,0,1,9.2,5.89,25.22,25.22,0,0,1,5.7,8.7A28.73,28.73,0,0,1,609,366.76q0,8.89-4.63,14.9a25.09,25.09,0,0,1-11.64,8.51l19.91,38.43Zm-4.38-70.36A12.9,12.9,0,0,0,579,355h-16.4v23.54H579a12.88,12.88,0,0,0,9.14-3.26,12.09,12.09,0,0,0,0-17Zm39.43,70.36V339.46h58.71V355H645v20.91h35.18v15.52H645v21.66h41.31V428.6Zm124.56-6.45q-9.26,7.2-23.79,7.2A56.42,56.42,0,0,1,710,426.66a37.06,37.06,0,0,1-14.21-9.08l11.27-11.27a23.22,23.22,0,0,0,9.45,5.76,39.27,39.27,0,0,0,12.08,1.75q15.77,0,15.77-11,0-4.63-2.38-7.2t-8.26-3.44l-5-.75-5.76-.75q-11.39-1.63-17.28-7.39-6.39-6.38-6.39-17.52,0-12.14,8.39-19.59t22.66-7.45a48.75,48.75,0,0,1,16.27,2.44,34.17,34.17,0,0,1,12.52,7.95l-11,10.89a19.21,19.21,0,0,0-8.32-4.88,37.59,37.59,0,0,0-10-1.25q-6.64,0-10.2,3.19a10.37,10.37,0,0,0-3.57,8.07,8.83,8.83,0,0,0,2.76,6.32q2.75,2.82,8.14,3.57l5.38.75,5.13.75a44.89,44.89,0,0,1,10.08,2.5,21.45,21.45,0,0,1,6.95,4.38q6.88,6.51,6.88,18.9Q761.39,415,752.12,422.15Zm89.32-15.71A26.37,26.37,0,0,1,834,420.08a27,27,0,0,1-10.33,6.38,39.65,39.65,0,0,1-13.21,2.13H778.29V339.46h32.17a39.71,39.71,0,0,1,13.21,2.13A27,27,0,0,1,834,348a24.91,24.91,0,0,1,4.94,6.51,30,30,0,0,1,2.69,7.7,59.42,59.42,0,0,1,1.13,9q.25,4.82.25,12.46Q843,398.68,841.44,406.44Zm-16.52-38.25a15.24,15.24,0,0,0-3.07-7.7q-4.51-5.51-13-5.51H795.69v58.09h13.14q8.51,0,13-5.51a15.55,15.55,0,0,0,3.07-7.95,132.05,132.05,0,0,0,.69-16A122.6,122.6,0,0,0,824.92,368.19Zm36.37,60.4V339.46H920V355H878.69v20.91h35.18v15.52H878.69v21.66H920V428.6Zm128.94,0-35.3-54.71V428.6h-17.4V339.46H953L988.35,394V339.46h17.4V428.6Zm-743.12-.29h64.57l98.77-99.09V200.71l-98.77-99.09H247.11v9.91h60.42l93,93V325.37l-93,93H247.11ZM83.77,200.71v128.5l99.09,99.09h64.25v-9.91H186.69l-93-93V204.54h0l93-93h60.42v-9.91H182.86L83.77,200.71Zm306.86,19.82h0V208.38l-86.94-86.95H247.11v9.91h52.74l79.27,79.27H282V314.5H247.11v9.91h44.75V220.53ZM247.11,121.43H190.53l-86.95,86.95v12.15h99.09V324.42h44.43V314.5H212.58V210.62H115.41l79.28-79.27h52.42ZM381,240.34H311.68V344.23H247.11v-9.91h54.66V230.44h88.86v91.1l-86.94,86.95H247.11v-9.91h52.74l80.87-80.88.32-77.36ZM247.11,344.23H182.86V240.34H113.49V317.7l81.19,80.88h52.42v9.91H190.53l-86.95-86.95v-91.1h89.18V334.32h54.34Z"/></svg>