<?xml version="1.0" encoding="utf-8" standalone="no"?>
<!DOCTYPE svg PUBLIC "-//W3C//DTD SVG 1.1//EN"
  "http://www.w3.org/Graphics/SVG/1.1/DTD/svg11.dtd">
<!-- Created with matplotlib (https://matplotlib.org/) -->
<svg height="262.19625pt" version="1.1" viewBox="0 0 380.482812 262.19625" width="380.482812pt" xmlns="http://www.w3.org/2000/svg" xmlns:xlink="http://www.w3.org/1999/xlink">
 <metadata>
  <rdf:RDF xmlns:cc="http://creativecommons.org/ns#" xmlns:dc="http://purl.org/dc/elements/1.1/" xmlns:rdf="http://www.w3.org/1999/02/22-rdf-syntax-ns#">
   <cc:Work>
    <dc:type rdf:resource="http://purl.org/dc/dcmitype/StillImage"/>
    <dc:date>2021-12-15T12:25:21.638469</dc:date>
    <dc:format>image/svg+xml</dc:format>
    <dc:creator>
     <cc:Agent>
      <dc:title>Matplotlib v3.3.3, https://matplotlib.org/</dc:title>
     </cc:Agent>
    </dc:creator>
   </cc:Work>
  </rdf:RDF>
 </metadata>
 <defs>
  <style type="text/css">*{stroke-linecap:butt;stroke-linejoin:round;}</style>
 </defs>
 <g id="figure_1">
  <g id="patch_1">
   <path d="M -0 262.19625 
L 380.482812 262.19625 
L 380.482812 0 
L -0 0 
z
" style="fill:none;"/>
  </g>
  <g id="axes_1">
   <g id="patch_2">
    <path d="M 38.482813 224.64 
L 373.282813 224.64 
L 373.282813 7.2 
L 38.482813 7.2 
z
" style="fill:#ffffff;"/>
   </g>
   <g id="matplotlib.axis_1">
    <g id="xtick_1">
     <g id="line2d_1">
      <defs>
       <path d="M 0 0 
L 0 3.5 
" id="m781c9c70b9" style="stroke:#000000;stroke-width:0.8;"/>
      </defs>
      <g>
       <use style="stroke:#000000;stroke-width:0.8;" x="53.700994" xlink:href="#m781c9c70b9" y="224.64"/>
      </g>
     </g>
     <g id="text_1">
      <!-- 4 -->
      <g transform="translate(50.519744 239.238437)scale(0.1 -0.1)">
       <defs>
        <path d="M 37.796875 64.3125 
L 12.890625 25.390625 
L 37.796875 25.390625 
z
M 35.203125 72.90625 
L 47.609375 72.90625 
L 47.609375 25.390625 
L 58.015625 25.390625 
L 58.015625 17.1875 
L 47.609375 17.1875 
L 47.609375 0 
L 37.796875 0 
L 37.796875 17.1875 
L 4.890625 17.1875 
L 4.890625 26.703125 
z
" id="DejaVuSans-52"/>
       </defs>
       <use xlink:href="#DejaVuSans-52"/>
      </g>
     </g>
    </g>
    <g id="xtick_2">
     <g id="line2d_2">
      <g>
       <use style="stroke:#000000;stroke-width:0.8;" x="104.428267" xlink:href="#m781c9c70b9" y="224.64"/>
      </g>
     </g>
     <g id="text_2">
      <!-- 5 -->
      <g transform="translate(101.247017 239.238437)scale(0.1 -0.1)">
       <defs>
        <path d="M 10.796875 72.90625 
L 49.515625 72.90625 
L 49.515625 64.59375 
L 19.828125 64.59375 
L 19.828125 46.734375 
Q 21.96875 47.46875 24.109375 47.828125 
Q 26.265625 48.1875 28.421875 48.1875 
Q 40.625 48.1875 47.75 41.5 
Q 54.890625 34.8125 54.890625 23.390625 
Q 54.890625 11.625 47.5625 5.09375 
Q 40.234375 -1.421875 26.90625 -1.421875 
Q 22.3125 -1.421875 17.546875 -0.640625 
Q 12.796875 0.140625 7.71875 1.703125 
L 7.71875 11.625 
Q 12.109375 9.234375 16.796875 8.0625 
Q 21.484375 6.890625 26.703125 6.890625 
Q 35.15625 6.890625 40.078125 11.328125 
Q 45.015625 15.765625 45.015625 23.390625 
Q 45.015625 31 40.078125 35.4375 
Q 35.15625 39.890625 26.703125 39.890625 
Q 22.75 39.890625 18.8125 39.015625 
Q 14.890625 38.140625 10.796875 36.28125 
z
" id="DejaVuSans-53"/>
       </defs>
       <use xlink:href="#DejaVuSans-53"/>
      </g>
     </g>
    </g>
    <g id="xtick_3">
     <g id="line2d_3">
      <g>
       <use style="stroke:#000000;stroke-width:0.8;" x="155.15554" xlink:href="#m781c9c70b9" y="224.64"/>
      </g>
     </g>
     <g id="text_3">
      <!-- 6 -->
      <g transform="translate(151.97429 239.238437)scale(0.1 -0.1)">
       <defs>
        <path d="M 33.015625 40.375 
Q 26.375 40.375 22.484375 35.828125 
Q 18.609375 31.296875 18.609375 23.390625 
Q 18.609375 15.53125 22.484375 10.953125 
Q 26.375 6.390625 33.015625 6.390625 
Q 39.65625 6.390625 43.53125 10.953125 
Q 47.40625 15.53125 47.40625 23.390625 
Q 47.40625 31.296875 43.53125 35.828125 
Q 39.65625 40.375 33.015625 40.375 
z
M 52.59375 71.296875 
L 52.59375 62.3125 
Q 48.875 64.0625 45.09375 64.984375 
Q 41.3125 65.921875 37.59375 65.921875 
Q 27.828125 65.921875 22.671875 59.328125 
Q 17.53125 52.734375 16.796875 39.40625 
Q 19.671875 43.65625 24.015625 45.921875 
Q 28.375 48.1875 33.59375 48.1875 
Q 44.578125 48.1875 50.953125 41.515625 
Q 57.328125 34.859375 57.328125 23.390625 
Q 57.328125 12.15625 50.6875 5.359375 
Q 44.046875 -1.421875 33.015625 -1.421875 
Q 20.359375 -1.421875 13.671875 8.265625 
Q 6.984375 17.96875 6.984375 36.375 
Q 6.984375 53.65625 15.1875 63.9375 
Q 23.390625 74.21875 37.203125 74.21875 
Q 40.921875 74.21875 44.703125 73.484375 
Q 48.484375 72.75 52.59375 71.296875 
z
" id="DejaVuSans-54"/>
       </defs>
       <use xlink:href="#DejaVuSans-54"/>
      </g>
     </g>
    </g>
    <g id="xtick_4">
     <g id="line2d_4">
      <g>
       <use style="stroke:#000000;stroke-width:0.8;" x="205.882812" xlink:href="#m781c9c70b9" y="224.64"/>
      </g>
     </g>
     <g id="text_4">
      <!-- 7 -->
      <g transform="translate(202.701562 239.238437)scale(0.1 -0.1)">
       <defs>
        <path d="M 8.203125 72.90625 
L 55.078125 72.90625 
L 55.078125 68.703125 
L 28.609375 0 
L 18.3125 0 
L 43.21875 64.59375 
L 8.203125 64.59375 
z
" id="DejaVuSans-55"/>
       </defs>
       <use xlink:href="#DejaVuSans-55"/>
      </g>
     </g>
    </g>
    <g id="xtick_5">
     <g id="line2d_5">
      <g>
       <use style="stroke:#000000;stroke-width:0.8;" x="256.610085" xlink:href="#m781c9c70b9" y="224.64"/>
      </g>
     </g>
     <g id="text_5">
      <!-- 8 -->
      <g transform="translate(253.428835 239.238437)scale(0.1 -0.1)">
       <defs>
        <path d="M 31.78125 34.625 
Q 24.75 34.625 20.71875 30.859375 
Q 16.703125 27.09375 16.703125 20.515625 
Q 16.703125 13.921875 20.71875 10.15625 
Q 24.75 6.390625 31.78125 6.390625 
Q 38.8125 6.390625 42.859375 10.171875 
Q 46.921875 13.96875 46.921875 20.515625 
Q 46.921875 27.09375 42.890625 30.859375 
Q 38.875 34.625 31.78125 34.625 
z
M 21.921875 38.8125 
Q 15.578125 40.375 12.03125 44.71875 
Q 8.5 49.078125 8.5 55.328125 
Q 8.5 64.0625 14.71875 69.140625 
Q 20.953125 74.21875 31.78125 74.21875 
Q 42.671875 74.21875 48.875 69.140625 
Q 55.078125 64.0625 55.078125 55.328125 
Q 55.078125 49.078125 51.53125 44.71875 
Q 48 40.375 41.703125 38.8125 
Q 48.828125 37.15625 52.796875 32.3125 
Q 56.78125 27.484375 56.78125 20.515625 
Q 56.78125 9.90625 50.3125 4.234375 
Q 43.84375 -1.421875 31.78125 -1.421875 
Q 19.734375 -1.421875 13.25 4.234375 
Q 6.78125 9.90625 6.78125 20.515625 
Q 6.78125 27.484375 10.78125 32.3125 
Q 14.796875 37.15625 21.921875 38.8125 
z
M 18.3125 54.390625 
Q 18.3125 48.734375 21.84375 45.5625 
Q 25.390625 42.390625 31.78125 42.390625 
Q 38.140625 42.390625 41.71875 45.5625 
Q 45.3125 48.734375 45.3125 54.390625 
Q 45.3125 60.0625 41.71875 63.234375 
Q 38.140625 66.40625 31.78125 66.40625 
Q 25.390625 66.40625 21.84375 63.234375 
Q 18.3125 60.0625 18.3125 54.390625 
z
" id="DejaVuSans-56"/>
       </defs>
       <use xlink:href="#DejaVuSans-56"/>
      </g>
     </g>
    </g>
    <g id="xtick_6">
     <g id="line2d_6">
      <g>
       <use style="stroke:#000000;stroke-width:0.8;" x="307.337358" xlink:href="#m781c9c70b9" y="224.64"/>
      </g>
     </g>
     <g id="text_6">
      <!-- 9 -->
      <g transform="translate(304.156108 239.238437)scale(0.1 -0.1)">
       <defs>
        <path d="M 10.984375 1.515625 
L 10.984375 10.5 
Q 14.703125 8.734375 18.5 7.8125 
Q 22.3125 6.890625 25.984375 6.890625 
Q 35.75 6.890625 40.890625 13.453125 
Q 46.046875 20.015625 46.78125 33.40625 
Q 43.953125 29.203125 39.59375 26.953125 
Q 35.25 24.703125 29.984375 24.703125 
Q 19.046875 24.703125 12.671875 31.3125 
Q 6.296875 37.9375 6.296875 49.421875 
Q 6.296875 60.640625 12.9375 67.421875 
Q 19.578125 74.21875 30.609375 74.21875 
Q 43.265625 74.21875 49.921875 64.515625 
Q 56.59375 54.828125 56.59375 36.375 
Q 56.59375 19.140625 48.40625 8.859375 
Q 40.234375 -1.421875 26.421875 -1.421875 
Q 22.703125 -1.421875 18.890625 -0.6875 
Q 15.09375 0.046875 10.984375 1.515625 
z
M 30.609375 32.421875 
Q 37.25 32.421875 41.125 36.953125 
Q 45.015625 41.5 45.015625 49.421875 
Q 45.015625 57.28125 41.125 61.84375 
Q 37.25 66.40625 30.609375 66.40625 
Q 23.96875 66.40625 20.09375 61.84375 
Q 16.21875 57.28125 16.21875 49.421875 
Q 16.21875 41.5 20.09375 36.953125 
Q 23.96875 32.421875 30.609375 32.421875 
z
" id="DejaVuSans-57"/>
       </defs>
       <use xlink:href="#DejaVuSans-57"/>
      </g>
     </g>
    </g>
    <g id="xtick_7">
     <g id="line2d_7">
      <g>
       <use style="stroke:#000000;stroke-width:0.8;" x="358.064631" xlink:href="#m781c9c70b9" y="224.64"/>
      </g>
     </g>
     <g id="text_7">
      <!-- 10 -->
      <g transform="translate(351.702131 239.238437)scale(0.1 -0.1)">
       <defs>
        <path d="M 12.40625 8.296875 
L 28.515625 8.296875 
L 28.515625 63.921875 
L 10.984375 60.40625 
L 10.984375 69.390625 
L 28.421875 72.90625 
L 38.28125 72.90625 
L 38.28125 8.296875 
L 54.390625 8.296875 
L 54.390625 0 
L 12.40625 0 
z
" id="DejaVuSans-49"/>
        <path d="M 31.78125 66.40625 
Q 24.171875 66.40625 20.328125 58.90625 
Q 16.5 51.421875 16.5 36.375 
Q 16.5 21.390625 20.328125 13.890625 
Q 24.171875 6.390625 31.78125 6.390625 
Q 39.453125 6.390625 43.28125 13.890625 
Q 47.125 21.390625 47.125 36.375 
Q 47.125 51.421875 43.28125 58.90625 
Q 39.453125 66.40625 31.78125 66.40625 
z
M 31.78125 74.21875 
Q 44.046875 74.21875 50.515625 64.515625 
Q 56.984375 54.828125 56.984375 36.375 
Q 56.984375 17.96875 50.515625 8.265625 
Q 44.046875 -1.421875 31.78125 -1.421875 
Q 19.53125 -1.421875 13.0625 8.265625 
Q 6.59375 17.96875 6.59375 36.375 
Q 6.59375 54.828125 13.0625 64.515625 
Q 19.53125 74.21875 31.78125 74.21875 
z
" id="DejaVuSans-48"/>
       </defs>
       <use xlink:href="#DejaVuSans-49"/>
       <use x="63.623047" xlink:href="#DejaVuSans-48"/>
      </g>
     </g>
    </g>
    <g id="text_8">
     <!-- $t$ in $s$ -->
     <g transform="translate(193.532813 252.916562)scale(0.1 -0.1)">
      <defs>
       <path d="M 42.28125 54.6875 
L 40.921875 47.703125 
L 23 47.703125 
L 17.1875 18.015625 
Q 16.890625 16.359375 16.75 15.234375 
Q 16.609375 14.109375 16.609375 13.484375 
Q 16.609375 10.359375 18.484375 8.9375 
Q 20.359375 7.515625 24.515625 7.515625 
L 33.59375 7.515625 
L 32.078125 0 
L 23.484375 0 
Q 15.484375 0 11.546875 3.125 
Q 7.625 6.25 7.625 12.59375 
Q 7.625 13.71875 7.765625 15.0625 
Q 7.90625 16.40625 8.203125 18.015625 
L 14.015625 47.703125 
L 6.390625 47.703125 
L 7.8125 54.6875 
L 15.28125 54.6875 
L 18.3125 70.21875 
L 27.296875 70.21875 
L 24.3125 54.6875 
z
" id="DejaVuSans-Oblique-116"/>
       <path id="DejaVuSans-32"/>
       <path d="M 9.421875 54.6875 
L 18.40625 54.6875 
L 18.40625 0 
L 9.421875 0 
z
M 9.421875 75.984375 
L 18.40625 75.984375 
L 18.40625 64.59375 
L 9.421875 64.59375 
z
" id="DejaVuSans-105"/>
       <path d="M 54.890625 33.015625 
L 54.890625 0 
L 45.90625 0 
L 45.90625 32.71875 
Q 45.90625 40.484375 42.875 44.328125 
Q 39.84375 48.1875 33.796875 48.1875 
Q 26.515625 48.1875 22.3125 43.546875 
Q 18.109375 38.921875 18.109375 30.90625 
L 18.109375 0 
L 9.078125 0 
L 9.078125 54.6875 
L 18.109375 54.6875 
L 18.109375 46.1875 
Q 21.34375 51.125 25.703125 53.5625 
Q 30.078125 56 35.796875 56 
Q 45.21875 56 50.046875 50.171875 
Q 54.890625 44.34375 54.890625 33.015625 
z
" id="DejaVuSans-110"/>
       <path d="M 50 53.078125 
L 48.296875 44.578125 
Q 44.734375 46.53125 40.765625 47.5 
Q 36.8125 48.484375 32.625 48.484375 
Q 25.53125 48.484375 21.453125 46.0625 
Q 17.390625 43.65625 17.390625 39.5 
Q 17.390625 34.671875 26.859375 32.078125 
Q 27.59375 31.890625 27.9375 31.78125 
L 30.8125 30.90625 
Q 39.796875 28.421875 42.796875 25.6875 
Q 45.796875 22.953125 45.796875 18.21875 
Q 45.796875 9.515625 38.890625 4.046875 
Q 31.984375 -1.421875 20.796875 -1.421875 
Q 16.453125 -1.421875 11.671875 -0.578125 
Q 6.890625 0.25 1.125 2 
L 2.875 11.28125 
Q 7.8125 8.734375 12.59375 7.421875 
Q 17.390625 6.109375 21.78125 6.109375 
Q 28.375 6.109375 32.5 8.9375 
Q 36.625 11.765625 36.625 16.109375 
Q 36.625 20.796875 25.78125 23.6875 
L 24.859375 23.921875 
L 21.78125 24.703125 
Q 14.9375 26.515625 11.765625 29.46875 
Q 8.59375 32.421875 8.59375 37.015625 
Q 8.59375 45.75 15.15625 50.875 
Q 21.734375 56 33.015625 56 
Q 37.453125 56 41.671875 55.265625 
Q 45.90625 54.546875 50 53.078125 
z
" id="DejaVuSans-Oblique-115"/>
      </defs>
      <use transform="translate(0 0.015625)" xlink:href="#DejaVuSans-Oblique-116"/>
      <use transform="translate(39.208984 0.015625)" xlink:href="#DejaVuSans-32"/>
      <use transform="translate(70.996094 0.015625)" xlink:href="#DejaVuSans-105"/>
      <use transform="translate(98.779297 0.015625)" xlink:href="#DejaVuSans-110"/>
      <use transform="translate(162.158203 0.015625)" xlink:href="#DejaVuSans-32"/>
      <use transform="translate(193.945312 0.015625)" xlink:href="#DejaVuSans-Oblique-115"/>
     </g>
    </g>
   </g>
   <g id="matplotlib.axis_2">
    <g id="ytick_1">
     <g id="line2d_8">
      <defs>
       <path d="M 0 0 
L -3.5 0 
" id="mbcade3451c" style="stroke:#000000;stroke-width:0.8;"/>
      </defs>
      <g>
       <use style="stroke:#000000;stroke-width:0.8;" x="38.482813" xlink:href="#mbcade3451c" y="203.638078"/>
      </g>
     </g>
     <g id="text_9">
      <!-- −1.0 -->
      <g transform="translate(7.2 207.437297)scale(0.1 -0.1)">
       <defs>
        <path d="M 10.59375 35.5 
L 73.1875 35.5 
L 73.1875 27.203125 
L 10.59375 27.203125 
z
" id="DejaVuSans-8722"/>
        <path d="M 10.6875 12.40625 
L 21 12.40625 
L 21 0 
L 10.6875 0 
z
" id="DejaVuSans-46"/>
       </defs>
       <use xlink:href="#DejaVuSans-8722"/>
       <use x="83.789062" xlink:href="#DejaVuSans-49"/>
       <use x="147.412109" xlink:href="#DejaVuSans-46"/>
       <use x="179.199219" xlink:href="#DejaVuSans-48"/>
      </g>
     </g>
    </g>
    <g id="ytick_2">
     <g id="line2d_9">
      <g>
       <use style="stroke:#000000;stroke-width:0.8;" x="38.482813" xlink:href="#mbcade3451c" y="160.55699"/>
      </g>
     </g>
     <g id="text_10">
      <!-- −0.5 -->
      <g transform="translate(7.2 164.356209)scale(0.1 -0.1)">
       <use xlink:href="#DejaVuSans-8722"/>
       <use x="83.789062" xlink:href="#DejaVuSans-48"/>
       <use x="147.412109" xlink:href="#DejaVuSans-46"/>
       <use x="179.199219" xlink:href="#DejaVuSans-53"/>
      </g>
     </g>
    </g>
    <g id="ytick_3">
     <g id="line2d_10">
      <g>
       <use style="stroke:#000000;stroke-width:0.8;" x="38.482813" xlink:href="#mbcade3451c" y="117.475901"/>
      </g>
     </g>
     <g id="text_11">
      <!-- 0.0 -->
      <g transform="translate(15.579688 121.27512)scale(0.1 -0.1)">
       <use xlink:href="#DejaVuSans-48"/>
       <use x="63.623047" xlink:href="#DejaVuSans-46"/>
       <use x="95.410156" xlink:href="#DejaVuSans-48"/>
      </g>
     </g>
    </g>
    <g id="ytick_4">
     <g id="line2d_11">
      <g>
       <use style="stroke:#000000;stroke-width:0.8;" x="38.482813" xlink:href="#mbcade3451c" y="74.394813"/>
      </g>
     </g>
     <g id="text_12">
      <!-- 0.5 -->
      <g transform="translate(15.579688 78.194032)scale(0.1 -0.1)">
       <use xlink:href="#DejaVuSans-48"/>
       <use x="63.623047" xlink:href="#DejaVuSans-46"/>
       <use x="95.410156" xlink:href="#DejaVuSans-53"/>
      </g>
     </g>
    </g>
    <g id="ytick_5">
     <g id="line2d_12">
      <g>
       <use style="stroke:#000000;stroke-width:0.8;" x="38.482813" xlink:href="#mbcade3451c" y="31.313724"/>
      </g>
     </g>
     <g id="text_13">
      <!-- 1.0 -->
      <g transform="translate(15.579688 35.112943)scale(0.1 -0.1)">
       <use xlink:href="#DejaVuSans-49"/>
       <use x="63.623047" xlink:href="#DejaVuSans-46"/>
       <use x="95.410156" xlink:href="#DejaVuSans-48"/>
      </g>
     </g>
    </g>
   </g>
   <g id="line2d_13">
    <path clip-path="url(#p28d688fe80)" d="M 53.700994 121.777078 
L 54.969176 77.690832 
L 56.237358 39.67426 
L 57.50554 19.777581 
L 58.773722 21.151597 
L 60.041903 43.019006 
L 62.578267 129.539578 
L 63.846449 172.766322 
L 65.114631 203.438871 
L 66.382812 214.362653 
L 67.650994 208.024348 
L 68.919176 182.027956 
L 71.45554 91.529857 
L 72.723722 50.118386 
L 73.991903 23.372259 
L 75.260085 18.164735 
L 76.528267 33.245474 
L 77.796449 69.954475 
L 80.332812 159.577202 
L 81.600994 195.832688 
L 82.869176 212.960277 
L 84.137358 212.075772 
L 85.40554 193.179521 
L 86.673722 151.91199 
L 89.210085 62.405056 
L 90.478267 29.492607 
L 91.746449 17.378126 
L 93.014631 25.909412 
L 94.282812 55.897156 
L 96.819176 145.450957 
L 98.087358 186.001852 
L 99.35554 209.644568 
L 100.623722 214.237744 
L 101.891903 201.70867 
L 103.160085 167.226705 
L 105.696449 75.904062 
L 106.964631 38.024366 
L 108.232812 18.796566 
L 109.500994 20.859871 
L 110.769176 43.613593 
L 114.573722 174.200862 
L 115.841903 204.286528 
L 117.110085 214.640359 
L 118.378267 207.864053 
L 119.646449 181.066991 
L 122.182812 90.052257 
L 123.450994 48.706766 
L 124.719176 22.520766 
L 125.987358 17.951256 
L 127.25554 33.715948 
L 128.523722 71.14977 
L 131.060085 160.913482 
L 132.328267 196.749954 
L 133.596449 213.280764 
L 134.864631 211.958792 
L 136.132812 192.450497 
L 137.400994 150.540269 
L 139.937358 61.096093 
L 141.20554 28.630205 
L 142.473722 17.139584 
L 143.741903 26.261749 
L 145.010085 56.962144 
L 147.546449 146.733323 
L 148.814631 187.018231 
L 150.082812 210.073232 
L 151.350994 214.202307 
L 152.619176 201.16621 
L 153.887358 165.977511 
L 156.423722 74.639617 
L 157.691903 37.084734 
L 158.960085 18.462768 
L 160.228267 21.09304 
L 161.496449 44.494986 
L 165.300994 175.311768 
L 166.569176 204.862041 
L 167.837358 214.709639 
L 169.10554 207.478396 
L 170.373722 180.01534 
L 172.910085 88.812006 
L 174.178267 47.670199 
L 175.446449 22.046744 
L 176.714631 18.046492 
L 177.982812 34.399664 
L 179.250994 72.371715 
L 181.787358 162.092215 
L 183.05554 197.492781 
L 184.323722 213.482636 
L 185.591903 211.716696 
L 186.860085 191.624307 
L 189.396449 103.219793 
L 190.664631 59.975722 
L 191.932812 27.987456 
L 193.200994 17.090919 
L 194.469176 26.763771 
L 195.737358 58.080127 
L 198.273722 147.946249 
L 199.541903 187.926048 
L 200.810085 210.425539 
L 202.078267 214.107585 
L 203.346449 200.550747 
L 204.614631 164.727828 
L 207.150994 73.465119 
L 208.419176 36.272569 
L 209.687358 18.246998 
L 210.95554 21.42424 
L 212.223722 45.437823 
L 216.028267 176.360538 
L 217.296449 205.383907 
L 218.564631 214.741367 
L 219.832812 207.044956 
L 221.100994 178.935119 
L 223.637358 87.612469 
L 224.90554 46.705408 
L 226.173722 21.647929 
L 227.441903 18.209611 
L 228.710085 35.136724 
L 229.978267 73.598903 
L 232.514631 163.239934 
L 233.782812 198.194832 
L 235.050994 213.656016 
L 236.319176 211.439083 
L 237.587358 190.762656 
L 241.391903 58.894007 
L 242.660085 27.396999 
L 243.928267 17.083636 
L 245.196449 27.302872 
L 246.464631 59.218319 
L 249.000994 149.145622 
L 250.269176 188.804852 
L 251.537358 210.754355 
L 252.80554 213.975742 
L 254.073722 199.908368 
L 255.341903 163.469056 
L 257.878267 72.309311 
L 259.146449 35.494383 
L 260.414631 18.064939 
L 261.682812 21.780696 
L 262.950994 46.402367 
L 266.75554 177.389998 
L 268.023722 205.884121 
L 269.291903 214.756364 
L 270.560085 206.589854 
L 271.828267 177.834936 
L 274.364631 86.421207 
L 275.632812 45.76289 
L 276.900994 21.275018 
L 278.169176 18.399558 
L 279.437358 35.89765 
L 280.70554 74.82947 
L 283.241903 164.375933 
L 284.510085 198.8771 
L 285.778267 213.814904 
L 287.046449 211.147418 
L 288.314631 189.884118 
L 292.119176 57.825717 
L 293.387358 26.828069 
L 294.65554 17.097051 
L 295.923722 27.861417 
L 297.191903 60.367034 
L 299.728267 150.340296 
L 300.996449 189.667013 
L 302.264631 211.068462 
L 303.532812 213.829171 
L 304.800994 199.247998 
L 306.069176 162.202601 
L 308.60554 71.161151 
L 309.873722 34.734823 
L 311.141903 17.900146 
L 312.410085 22.155538 
L 313.678267 47.385339 
L 317.482812 178.407168 
L 318.750994 206.368445 
L 320.019176 214.755788 
L 321.287358 206.119858 
L 322.55554 176.718746 
L 325.091903 85.232876 
L 326.360085 44.834218 
L 327.628267 20.919188 
L 328.896449 18.600774 
L 330.164631 36.673721 
L 331.432812 76.06516 
L 333.969176 165.504516 
L 335.237358 199.543674 
L 336.50554 213.96012 
L 337.773722 210.845195 
L 339.041903 188.984329 
L 342.846449 56.76702 
L 344.114631 26.275492 
L 345.382812 17.126488 
L 346.650994 28.437936 
L 347.919176 61.527248 
L 350.45554 151.531247 
L 351.723722 190.514305 
L 352.991903 211.369043 
L 354.260085 213.677751 
L 355.528267 198.569494 
L 356.796449 160.929064 
L 358.064631 114.077469 
L 358.064631 114.077469 
" style="fill:none;stroke:#1f77b4;stroke-linecap:square;stroke-width:1.5;"/>
   </g>
   <g id="line2d_14">
    <path clip-path="url(#p28d688fe80)" d="M 53.700994 131.588483 
L 54.969176 127.031641 
L 56.237358 115.78315 
L 57.50554 108.65804 
L 58.773722 105.525795 
L 60.041903 110.792107 
L 61.310085 125.972396 
L 62.578267 127.838904 
L 63.846449 117.648904 
L 65.114631 111.087544 
L 66.382812 110.373291 
L 67.650994 108.574031 
L 68.919176 114.144297 
L 70.187358 129.921882 
L 71.45554 130.328617 
L 72.723722 119.48039 
L 73.991903 110.697228 
L 75.260085 106.465244 
L 76.528267 107.940148 
L 77.796449 121.759945 
L 79.064631 129.572124 
L 80.332812 121.405052 
L 81.600994 112.35092 
L 84.137358 109.453354 
L 85.40554 110.936799 
L 86.673722 125.82968 
L 87.941903 132.371848 
L 89.210085 123.447114 
L 90.478267 113.031935 
L 91.746449 107.726903 
L 93.014631 106.486 
L 94.282812 116.58588 
L 95.550994 129.449882 
L 96.819176 125.102371 
L 98.087358 114.481451 
L 99.35554 111.092412 
L 100.623722 110.381467 
L 101.891903 109.405141 
L 103.160085 120.348528 
L 104.428267 132.712333 
L 105.696449 127.300186 
L 106.964631 115.905507 
L 108.232812 109.163698 
L 109.500994 106.23285 
L 110.769176 111.871827 
L 112.037358 127.074431 
L 113.30554 128.101597 
L 114.573722 117.545618 
L 115.841903 111.414539 
L 117.110085 111.001583 
L 118.378267 109.210748 
L 119.646449 115.162779 
L 120.914631 130.850572 
L 122.182812 130.50317 
L 123.450994 119.380119 
L 124.719176 110.846655 
L 125.987358 106.802365 
L 127.25554 108.54589 
L 128.523722 122.648459 
L 129.791903 129.825763 
L 132.328267 112.37809 
L 133.596449 111.229488 
L 134.864631 109.772284 
L 136.132812 111.505153 
L 137.400994 126.649251 
L 138.669176 132.536451 
L 139.937358 123.252575 
L 141.20554 112.969932 
L 142.473722 107.845347 
L 143.741903 106.788732 
L 145.010085 117.272652 
L 146.278267 129.765025 
L 147.546449 124.914503 
L 148.814631 114.331515 
L 150.082812 111.243622 
L 151.350994 110.535455 
L 152.619176 109.679021 
L 155.15554 132.942291 
L 156.423722 127.091396 
L 157.691903 115.713662 
L 158.960085 109.152692 
L 160.228267 106.348213 
L 161.496449 112.351601 
L 162.764631 127.498712 
L 164.032812 127.97032 
L 165.300994 117.292481 
L 166.569176 111.44089 
L 167.837358 111.087462 
L 169.10554 109.306908 
L 170.373722 115.659943 
L 171.641903 131.212948 
L 172.910085 130.341448 
L 174.178267 119.108506 
L 175.446449 110.748693 
L 176.714631 106.800891 
L 177.982812 108.828767 
L 179.250994 123.152608 
L 180.519176 129.797788 
L 183.05554 112.291295 
L 184.323722 111.283634 
L 185.591903 109.776701 
L 186.860085 111.799103 
L 188.128267 127.141281 
L 189.396449 132.468154 
L 191.932812 112.796021 
L 193.200994 107.786651 
L 194.469176 106.918395 
L 195.737358 117.761344 
L 197.00554 129.887039 
L 198.273722 124.639321 
L 199.541903 114.139875 
L 200.810085 111.270646 
L 203.346449 109.801439 
L 205.882812 133.012593 
L 207.150994 126.80239 
L 208.419176 115.471708 
L 209.687358 109.054375 
L 210.95554 106.368786 
L 212.223722 112.737949 
L 213.491903 127.797301 
L 214.760085 127.768269 
L 216.028267 117.019449 
L 217.296449 111.41788 
L 218.564631 111.073549 
L 219.832812 109.316409 
L 221.100994 116.080651 
L 222.369176 131.467139 
L 223.637358 130.118606 
L 224.90554 118.811303 
L 226.173722 110.611503 
L 227.441903 106.750536 
L 228.710085 109.070927 
L 229.978267 123.58578 
L 231.246449 129.714291 
L 233.782812 112.190728 
L 235.050994 111.289375 
L 236.319176 109.734355 
L 237.587358 112.059792 
L 238.85554 127.568359 
L 240.123722 132.352565 
L 242.660085 112.609003 
L 243.928267 107.697157 
L 245.196449 107.025512 
L 247.732812 129.963987 
L 249.000994 124.346508 
L 250.269176 113.946957 
L 251.537358 111.277183 
L 252.80554 110.451404 
L 254.073722 109.907078 
L 255.341903 122.043714 
L 256.610085 133.044386 
L 257.878267 126.497098 
L 259.146449 115.225103 
L 260.414631 108.94348 
L 261.682812 106.374258 
L 262.950994 113.116345 
L 264.219176 128.061505 
L 265.487358 127.547994 
L 266.75554 116.747584 
L 268.023722 111.390055 
L 269.291903 111.040373 
L 270.560085 109.316707 
L 271.828267 116.495326 
L 273.096449 131.689503 
L 274.364631 129.879087 
L 275.632812 118.512356 
L 276.900994 110.469785 
L 278.169176 106.698979 
L 279.437358 109.316119 
L 280.70554 124.000292 
L 281.973722 129.611507 
L 283.241903 120.301496 
L 284.510085 112.093295 
L 285.778267 111.284502 
L 287.046449 109.682641 
L 288.314631 112.324112 
L 289.582812 127.972958 
L 290.850994 132.220893 
L 293.387358 112.422696 
L 294.65554 107.606482 
L 295.923722 107.137952 
L 298.460085 130.020921 
L 299.728267 124.047841 
L 300.996449 113.759864 
L 302.264631 111.2801 
L 303.532812 110.397552 
L 304.800994 110.020219 
L 306.069176 122.528391 
L 307.337358 133.058453 
L 308.60554 126.186494 
L 309.873722 114.982541 
L 311.141903 108.831384 
L 312.410085 106.38541 
L 313.678267 113.501166 
L 314.946449 128.308223 
L 316.214631 127.318084 
L 317.482812 116.480137 
L 318.750994 111.364885 
L 320.019176 111.00564 
L 321.287358 109.321535 
L 322.55554 116.917878 
L 323.823722 131.892526 
L 325.091903 129.630931 
L 326.360085 118.216036 
L 327.628267 110.328811 
L 328.896449 106.644915 
L 330.164631 109.568563 
L 331.432812 124.403197 
L 332.700994 129.49644 
L 333.969176 119.989997 
L 335.237358 112.002065 
L 336.50554 111.277132 
L 337.773722 109.6293 
L 339.041903 112.601346 
L 340.310085 128.365514 
L 341.578267 132.077403 
L 344.114631 112.239042 
L 345.382812 107.517316 
L 346.650994 107.260086 
L 349.187358 130.062515 
L 350.45554 123.745556 
L 351.723722 113.580019 
L 352.991903 111.282802 
L 354.260085 110.333464 
L 355.528267 110.143837 
L 356.796449 123.010747 
L 358.064631 133.058064 
L 358.064631 133.058064 
" style="fill:none;stroke:#ff7f0e;stroke-linecap:square;stroke-width:1.5;"/>
   </g>
   <g id="patch_3">
    <path d="M 38.482813 224.64 
L 38.482813 7.2 
" style="fill:none;stroke:#000000;stroke-linecap:square;stroke-linejoin:miter;stroke-width:0.8;"/>
   </g>
   <g id="patch_4">
    <path d="M 373.282813 224.64 
L 373.282813 7.2 
" style="fill:none;stroke:#000000;stroke-linecap:square;stroke-linejoin:miter;stroke-width:0.8;"/>
   </g>
   <g id="patch_5">
    <path d="M 38.482812 224.64 
L 373.282812 224.64 
" style="fill:none;stroke:#000000;stroke-linecap:square;stroke-linejoin:miter;stroke-width:0.8;"/>
   </g>
   <g id="patch_6">
    <path d="M 38.482812 7.2 
L 373.282812 7.2 
" style="fill:none;stroke:#000000;stroke-linecap:square;stroke-linejoin:miter;stroke-width:0.8;"/>
   </g>
   <g id="legend_1">
    <g id="patch_7">
     <path d="M 265.939063 44.55625 
L 366.282813 44.55625 
Q 368.282813 44.55625 368.282813 42.55625 
L 368.282813 14.2 
Q 368.282813 12.2 366.282813 12.2 
L 265.939063 12.2 
Q 263.939063 12.2 263.939063 14.2 
L 263.939063 42.55625 
Q 263.939063 44.55625 265.939063 44.55625 
z
" style="fill:#ffffff;opacity:0.8;stroke:#cccccc;stroke-linejoin:miter;"/>
    </g>
    <g id="line2d_15">
     <path d="M 267.939063 20.298437 
L 287.939063 20.298437 
" style="fill:none;stroke:#1f77b4;stroke-linecap:square;stroke-width:1.5;"/>
    </g>
    <g id="line2d_16"/>
    <g id="text_14">
     <!-- mode 1 coeff. -->
     <g transform="translate(295.939063 23.798437)scale(0.1 -0.1)">
      <defs>
       <path d="M 52 44.1875 
Q 55.375 50.25 60.0625 53.125 
Q 64.75 56 71.09375 56 
Q 79.640625 56 84.28125 50.015625 
Q 88.921875 44.046875 88.921875 33.015625 
L 88.921875 0 
L 79.890625 0 
L 79.890625 32.71875 
Q 79.890625 40.578125 77.09375 44.375 
Q 74.3125 48.1875 68.609375 48.1875 
Q 61.625 48.1875 57.5625 43.546875 
Q 53.515625 38.921875 53.515625 30.90625 
L 53.515625 0 
L 44.484375 0 
L 44.484375 32.71875 
Q 44.484375 40.625 41.703125 44.40625 
Q 38.921875 48.1875 33.109375 48.1875 
Q 26.21875 48.1875 22.15625 43.53125 
Q 18.109375 38.875 18.109375 30.90625 
L 18.109375 0 
L 9.078125 0 
L 9.078125 54.6875 
L 18.109375 54.6875 
L 18.109375 46.1875 
Q 21.1875 51.21875 25.484375 53.609375 
Q 29.78125 56 35.6875 56 
Q 41.65625 56 45.828125 52.96875 
Q 50 49.953125 52 44.1875 
z
" id="DejaVuSans-109"/>
       <path d="M 30.609375 48.390625 
Q 23.390625 48.390625 19.1875 42.75 
Q 14.984375 37.109375 14.984375 27.296875 
Q 14.984375 17.484375 19.15625 11.84375 
Q 23.34375 6.203125 30.609375 6.203125 
Q 37.796875 6.203125 41.984375 11.859375 
Q 46.1875 17.53125 46.1875 27.296875 
Q 46.1875 37.015625 41.984375 42.703125 
Q 37.796875 48.390625 30.609375 48.390625 
z
M 30.609375 56 
Q 42.328125 56 49.015625 48.375 
Q 55.71875 40.765625 55.71875 27.296875 
Q 55.71875 13.875 49.015625 6.21875 
Q 42.328125 -1.421875 30.609375 -1.421875 
Q 18.84375 -1.421875 12.171875 6.21875 
Q 5.515625 13.875 5.515625 27.296875 
Q 5.515625 40.765625 12.171875 48.375 
Q 18.84375 56 30.609375 56 
z
" id="DejaVuSans-111"/>
       <path d="M 45.40625 46.390625 
L 45.40625 75.984375 
L 54.390625 75.984375 
L 54.390625 0 
L 45.40625 0 
L 45.40625 8.203125 
Q 42.578125 3.328125 38.25 0.953125 
Q 33.9375 -1.421875 27.875 -1.421875 
Q 17.96875 -1.421875 11.734375 6.484375 
Q 5.515625 14.40625 5.515625 27.296875 
Q 5.515625 40.1875 11.734375 48.09375 
Q 17.96875 56 27.875 56 
Q 33.9375 56 38.25 53.625 
Q 42.578125 51.265625 45.40625 46.390625 
z
M 14.796875 27.296875 
Q 14.796875 17.390625 18.875 11.75 
Q 22.953125 6.109375 30.078125 6.109375 
Q 37.203125 6.109375 41.296875 11.75 
Q 45.40625 17.390625 45.40625 27.296875 
Q 45.40625 37.203125 41.296875 42.84375 
Q 37.203125 48.484375 30.078125 48.484375 
Q 22.953125 48.484375 18.875 42.84375 
Q 14.796875 37.203125 14.796875 27.296875 
z
" id="DejaVuSans-100"/>
       <path d="M 56.203125 29.59375 
L 56.203125 25.203125 
L 14.890625 25.203125 
Q 15.484375 15.921875 20.484375 11.0625 
Q 25.484375 6.203125 34.421875 6.203125 
Q 39.59375 6.203125 44.453125 7.46875 
Q 49.3125 8.734375 54.109375 11.28125 
L 54.109375 2.78125 
Q 49.265625 0.734375 44.1875 -0.34375 
Q 39.109375 -1.421875 33.890625 -1.421875 
Q 20.796875 -1.421875 13.15625 6.1875 
Q 5.515625 13.8125 5.515625 26.8125 
Q 5.515625 40.234375 12.765625 48.109375 
Q 20.015625 56 32.328125 56 
Q 43.359375 56 49.78125 48.890625 
Q 56.203125 41.796875 56.203125 29.59375 
z
M 47.21875 32.234375 
Q 47.125 39.59375 43.09375 43.984375 
Q 39.0625 48.390625 32.421875 48.390625 
Q 24.90625 48.390625 20.390625 44.140625 
Q 15.875 39.890625 15.1875 32.171875 
z
" id="DejaVuSans-101"/>
       <path d="M 48.78125 52.59375 
L 48.78125 44.1875 
Q 44.96875 46.296875 41.140625 47.34375 
Q 37.3125 48.390625 33.40625 48.390625 
Q 24.65625 48.390625 19.8125 42.84375 
Q 14.984375 37.3125 14.984375 27.296875 
Q 14.984375 17.28125 19.8125 11.734375 
Q 24.65625 6.203125 33.40625 6.203125 
Q 37.3125 6.203125 41.140625 7.25 
Q 44.96875 8.296875 48.78125 10.40625 
L 48.78125 2.09375 
Q 45.015625 0.34375 40.984375 -0.53125 
Q 36.96875 -1.421875 32.421875 -1.421875 
Q 20.0625 -1.421875 12.78125 6.34375 
Q 5.515625 14.109375 5.515625 27.296875 
Q 5.515625 40.671875 12.859375 48.328125 
Q 20.21875 56 33.015625 56 
Q 37.15625 56 41.109375 55.140625 
Q 45.0625 54.296875 48.78125 52.59375 
z
" id="DejaVuSans-99"/>
       <path d="M 37.109375 75.984375 
L 37.109375 68.5 
L 28.515625 68.5 
Q 23.6875 68.5 21.796875 66.546875 
Q 19.921875 64.59375 19.921875 59.515625 
L 19.921875 54.6875 
L 34.71875 54.6875 
L 34.71875 47.703125 
L 19.921875 47.703125 
L 19.921875 0 
L 10.890625 0 
L 10.890625 47.703125 
L 2.296875 47.703125 
L 2.296875 54.6875 
L 10.890625 54.6875 
L 10.890625 58.5 
Q 10.890625 67.625 15.140625 71.796875 
Q 19.390625 75.984375 28.609375 75.984375 
z
" id="DejaVuSans-102"/>
      </defs>
      <use xlink:href="#DejaVuSans-109"/>
      <use x="97.412109" xlink:href="#DejaVuSans-111"/>
      <use x="158.59375" xlink:href="#DejaVuSans-100"/>
      <use x="222.070312" xlink:href="#DejaVuSans-101"/>
      <use x="283.59375" xlink:href="#DejaVuSans-32"/>
      <use x="315.380859" xlink:href="#DejaVuSans-49"/>
      <use x="379.003906" xlink:href="#DejaVuSans-32"/>
      <use x="410.791016" xlink:href="#DejaVuSans-99"/>
      <use x="465.771484" xlink:href="#DejaVuSans-111"/>
      <use x="526.953125" xlink:href="#DejaVuSans-101"/>
      <use x="588.476562" xlink:href="#DejaVuSans-102"/>
      <use x="623.681641" xlink:href="#DejaVuSans-102"/>
      <use x="651.636719" xlink:href="#DejaVuSans-46"/>
     </g>
    </g>
    <g id="line2d_17">
     <path d="M 267.939063 34.976562 
L 287.939063 34.976562 
" style="fill:none;stroke:#ff7f0e;stroke-linecap:square;stroke-width:1.5;"/>
    </g>
    <g id="line2d_18"/>
    <g id="text_15">
     <!-- mode 2 coeff. -->
     <g transform="translate(295.939063 38.476562)scale(0.1 -0.1)">
      <defs>
       <path d="M 19.1875 8.296875 
L 53.609375 8.296875 
L 53.609375 0 
L 7.328125 0 
L 7.328125 8.296875 
Q 12.9375 14.109375 22.625 23.890625 
Q 32.328125 33.6875 34.8125 36.53125 
Q 39.546875 41.84375 41.421875 45.53125 
Q 43.3125 49.21875 43.3125 52.78125 
Q 43.3125 58.59375 39.234375 62.25 
Q 35.15625 65.921875 28.609375 65.921875 
Q 23.96875 65.921875 18.8125 64.3125 
Q 13.671875 62.703125 7.8125 59.421875 
L 7.8125 69.390625 
Q 13.765625 71.78125 18.9375 73 
Q 24.125 74.21875 28.421875 74.21875 
Q 39.75 74.21875 46.484375 68.546875 
Q 53.21875 62.890625 53.21875 53.421875 
Q 53.21875 48.921875 51.53125 44.890625 
Q 49.859375 40.875 45.40625 35.40625 
Q 44.1875 33.984375 37.640625 27.21875 
Q 31.109375 20.453125 19.1875 8.296875 
z
" id="DejaVuSans-50"/>
      </defs>
      <use xlink:href="#DejaVuSans-109"/>
      <use x="97.412109" xlink:href="#DejaVuSans-111"/>
      <use x="158.59375" xlink:href="#DejaVuSans-100"/>
      <use x="222.070312" xlink:href="#DejaVuSans-101"/>
      <use x="283.59375" xlink:href="#DejaVuSans-32"/>
      <use x="315.380859" xlink:href="#DejaVuSans-50"/>
      <use x="379.003906" xlink:href="#DejaVuSans-32"/>
      <use x="410.791016" xlink:href="#DejaVuSans-99"/>
      <use x="465.771484" xlink:href="#DejaVuSans-111"/>
      <use x="526.953125" xlink:href="#DejaVuSans-101"/>
      <use x="588.476562" xlink:href="#DejaVuSans-102"/>
      <use x="623.681641" xlink:href="#DejaVuSans-102"/>
      <use x="651.636719" xlink:href="#DejaVuSans-46"/>
     </g>
    </g>
   </g>
  </g>
 </g>
 <defs>
  <clipPath id="p28d688fe80">
   <rect height="217.44" width="334.8" x="38.482813" y="7.2"/>
  </clipPath>
 </defs>
</svg>
