<?xml version="1.0" encoding="utf-8" standalone="no"?>
<!DOCTYPE svg PUBLIC "-//W3C//DTD SVG 1.1//EN"
  "http://www.w3.org/Graphics/SVG/1.1/DTD/svg11.dtd">
<svg xmlns:xlink="http://www.w3.org/1999/xlink" width="219.242187pt" height="226.21625pt" viewBox="0 0 219.242187 226.21625" xmlns="http://www.w3.org/2000/svg" version="1.1">
 <metadata>
  <rdf:RDF xmlns:dc="http://purl.org/dc/elements/1.1/" xmlns:cc="http://creativecommons.org/ns#" xmlns:rdf="http://www.w3.org/1999/02/22-rdf-syntax-ns#">
   <cc:Work>
    <dc:type rdf:resource="http://purl.org/dc/dcmitype/StillImage"/>
    <dc:date>2024-07-26T09:50:26.043128</dc:date>
    <dc:format>image/svg+xml</dc:format>
    <dc:creator>
     <cc:Agent>
      <dc:title>Matplotlib v3.5.1, https://matplotlib.org/</dc:title>
     </cc:Agent>
    </dc:creator>
   </cc:Work>
  </rdf:RDF>
 </metadata>
 <defs>
  <style type="text/css">*{stroke-linejoin: round; stroke-linecap: butt}</style>
 </defs>
 <g id="figure_1">
  <g id="patch_1">
   <path d="M 0 226.21625 
L 219.242187 226.21625 
L 219.242187 0 
L 0 0 
L 0 226.21625 
z
" style="fill: none"/>
  </g>
  <g id="axes_1">
   <g id="patch_2">
    <path d="M 44.642188 188.638125 
L 212.042188 188.638125 
L 212.042188 22.318125 
L 44.642188 22.318125 
L 44.642188 188.638125 
z
" style="fill: none"/>
   </g>
   <g id="PathCollection_1">
    <defs>
     <path id="m8b1ebca37b" d="M 0 3 
C 0.795609 3 1.55874 2.683901 2.12132 2.12132 
C 2.683901 1.55874 3 0.795609 3 0 
C 3 -0.795609 2.683901 -1.55874 2.12132 -2.12132 
C 1.55874 -2.683901 0.795609 -3 0 -3 
C -0.795609 -3 -1.55874 -2.683901 -2.12132 -2.12132 
C -2.683901 -1.55874 -3 -0.795609 -3 0 
C -3 0.795609 -2.683901 1.55874 -2.12132 2.12132 
C -1.55874 2.683901 -0.795609 3 0 3 
z
" style="stroke: #8dd3c7"/>
    </defs>
    <g clip-path="url(#p2113cb9281)">
     <use xlink:href="#m8b1ebca37b" x="60.350292" y="160.768236" style="fill: #8dd3c7; stroke: #8dd3c7"/>
     <use xlink:href="#m8b1ebca37b" x="69.839052" y="137.91518" style="fill: #8dd3c7; stroke: #8dd3c7"/>
     <use xlink:href="#m8b1ebca37b" x="63.926442" y="173.266273" style="fill: #8dd3c7; stroke: #8dd3c7"/>
     <use xlink:href="#m8b1ebca37b" x="80.645885" y="157.639578" style="fill: #8dd3c7; stroke: #8dd3c7"/>
     <use xlink:href="#m8b1ebca37b" x="101.4836" y="142.927886" style="fill: #8dd3c7; stroke: #8dd3c7"/>
     <use xlink:href="#m8b1ebca37b" x="91.591783" y="136.554669" style="fill: #8dd3c7; stroke: #8dd3c7"/>
     <use xlink:href="#m8b1ebca37b" x="83.6536" y="153.559907" style="fill: #8dd3c7; stroke: #8dd3c7"/>
     <use xlink:href="#m8b1ebca37b" x="89.746339" y="148.772274" style="fill: #8dd3c7; stroke: #8dd3c7"/>
     <use xlink:href="#m8b1ebca37b" x="68.878447" y="163.261289" style="fill: #8dd3c7; stroke: #8dd3c7"/>
     <use xlink:href="#m8b1ebca37b" x="97.682672" y="157.457287" style="fill: #8dd3c7; stroke: #8dd3c7"/>
     <use xlink:href="#m8b1ebca37b" x="154.473162" y="117.605299" style="fill: #8dd3c7; stroke: #8dd3c7"/>
     <use xlink:href="#m8b1ebca37b" x="85.047622" y="161.763793" style="fill: #8dd3c7; stroke: #8dd3c7"/>
     <use xlink:href="#m8b1ebca37b" x="57.086276" y="181.078125" style="fill: #8dd3c7; stroke: #8dd3c7"/>
     <use xlink:href="#m8b1ebca37b" x="100.740868" y="149.34114" style="fill: #8dd3c7; stroke: #8dd3c7"/>
     <use xlink:href="#m8b1ebca37b" x="60.902736" y="149.631968" style="fill: #8dd3c7; stroke: #8dd3c7"/>
     <use xlink:href="#m8b1ebca37b" x="95.928388" y="145.653532" style="fill: #8dd3c7; stroke: #8dd3c7"/>
     <use xlink:href="#m8b1ebca37b" x="128.956548" y="155.458253" style="fill: #8dd3c7; stroke: #8dd3c7"/>
     <use xlink:href="#m8b1ebca37b" x="107.961071" y="142.726733" style="fill: #8dd3c7; stroke: #8dd3c7"/>
     <use xlink:href="#m8b1ebca37b" x="68.70887" y="148.987733" style="fill: #8dd3c7; stroke: #8dd3c7"/>
     <use xlink:href="#m8b1ebca37b" x="110.781057" y="146.185861" style="fill: #8dd3c7; stroke: #8dd3c7"/>
     <use xlink:href="#m8b1ebca37b" x="130.116664" y="149.24222" style="fill: #8dd3c7; stroke: #8dd3c7"/>
     <use xlink:href="#m8b1ebca37b" x="130.283761" y="114.812569" style="fill: #8dd3c7; stroke: #8dd3c7"/>
     <use xlink:href="#m8b1ebca37b" x="114.0561" y="146.157765" style="fill: #8dd3c7; stroke: #8dd3c7"/>
     <use xlink:href="#m8b1ebca37b" x="125.27395" y="128.93145" style="fill: #8dd3c7; stroke: #8dd3c7"/>
     <use xlink:href="#m8b1ebca37b" x="137.448891" y="133.775592" style="fill: #8dd3c7; stroke: #8dd3c7"/>
     <use xlink:href="#m8b1ebca37b" x="119.055311" y="135.593669" style="fill: #8dd3c7; stroke: #8dd3c7"/>
     <use xlink:href="#m8b1ebca37b" x="117.239873" y="152.353833" style="fill: #8dd3c7; stroke: #8dd3c7"/>
     <use xlink:href="#m8b1ebca37b" x="99.75344" y="143.493063" style="fill: #8dd3c7; stroke: #8dd3c7"/>
     <use xlink:href="#m8b1ebca37b" x="98.20042" y="145.445479" style="fill: #8dd3c7; stroke: #8dd3c7"/>
     <use xlink:href="#m8b1ebca37b" x="116.484948" y="144.342758" style="fill: #8dd3c7; stroke: #8dd3c7"/>
     <use xlink:href="#m8b1ebca37b" x="117.312428" y="143.95351" style="fill: #8dd3c7; stroke: #8dd3c7"/>
     <use xlink:href="#m8b1ebca37b" x="126.22804" y="154.04041" style="fill: #8dd3c7; stroke: #8dd3c7"/>
     <use xlink:href="#m8b1ebca37b" x="98.750041" y="152.386783" style="fill: #8dd3c7; stroke: #8dd3c7"/>
     <use xlink:href="#m8b1ebca37b" x="134.935132" y="127.973933" style="fill: #8dd3c7; stroke: #8dd3c7"/>
     <use xlink:href="#m8b1ebca37b" x="120.740915" y="138.281079" style="fill: #8dd3c7; stroke: #8dd3c7"/>
     <use xlink:href="#m8b1ebca37b" x="84.327027" y="153.195083" style="fill: #8dd3c7; stroke: #8dd3c7"/>
     <use xlink:href="#m8b1ebca37b" x="81.07946" y="168.496161" style="fill: #8dd3c7; stroke: #8dd3c7"/>
     <use xlink:href="#m8b1ebca37b" x="94.993943" y="156.891003" style="fill: #8dd3c7; stroke: #8dd3c7"/>
     <use xlink:href="#m8b1ebca37b" x="122.61896" y="143.90092" style="fill: #8dd3c7; stroke: #8dd3c7"/>
     <use xlink:href="#m8b1ebca37b" x="107.585371" y="143.909855" style="fill: #8dd3c7; stroke: #8dd3c7"/>
     <use xlink:href="#m8b1ebca37b" x="122.81657" y="128.733774" style="fill: #8dd3c7; stroke: #8dd3c7"/>
     <use xlink:href="#m8b1ebca37b" x="97.219003" y="164.610145" style="fill: #8dd3c7; stroke: #8dd3c7"/>
     <use xlink:href="#m8b1ebca37b" x="60.070484" y="145.643267" style="fill: #8dd3c7; stroke: #8dd3c7"/>
     <use xlink:href="#m8b1ebca37b" x="75.724216" y="160.052654" style="fill: #8dd3c7; stroke: #8dd3c7"/>
     <use xlink:href="#m8b1ebca37b" x="120.08147" y="128.347104" style="fill: #8dd3c7; stroke: #8dd3c7"/>
     <use xlink:href="#m8b1ebca37b" x="104.645326" y="133.289823" style="fill: #8dd3c7; stroke: #8dd3c7"/>
     <use xlink:href="#m8b1ebca37b" x="92.206869" y="141.157888" style="fill: #8dd3c7; stroke: #8dd3c7"/>
     <use xlink:href="#m8b1ebca37b" x="90.089786" y="144.823342" style="fill: #8dd3c7; stroke: #8dd3c7"/>
     <use xlink:href="#m8b1ebca37b" x="93.126339" y="132.51319" style="fill: #8dd3c7; stroke: #8dd3c7"/>
     <use xlink:href="#m8b1ebca37b" x="96.44529" y="145.187818" style="fill: #8dd3c7; stroke: #8dd3c7"/>
     <use xlink:href="#m8b1ebca37b" x="65.158367" y="176.511367" style="fill: #8dd3c7; stroke: #8dd3c7"/>
     <use xlink:href="#m8b1ebca37b" x="124.847806" y="127.159123" style="fill: #8dd3c7; stroke: #8dd3c7"/>
     <use xlink:href="#m8b1ebca37b" x="118.557051" y="119.941261" style="fill: #8dd3c7; stroke: #8dd3c7"/>
     <use xlink:href="#m8b1ebca37b" x="113.254241" y="149.656907" style="fill: #8dd3c7; stroke: #8dd3c7"/>
     <use xlink:href="#m8b1ebca37b" x="52.251278" y="153.248186" style="fill: #8dd3c7; stroke: #8dd3c7"/>
     <use xlink:href="#m8b1ebca37b" x="55.916019" y="157.523619" style="fill: #8dd3c7; stroke: #8dd3c7"/>
     <use xlink:href="#m8b1ebca37b" x="111.821699" y="123.187123" style="fill: #8dd3c7; stroke: #8dd3c7"/>
     <use xlink:href="#m8b1ebca37b" x="103.450783" y="138.085664" style="fill: #8dd3c7; stroke: #8dd3c7"/>
     <use xlink:href="#m8b1ebca37b" x="80.723973" y="157.643145" style="fill: #8dd3c7; stroke: #8dd3c7"/>
     <use xlink:href="#m8b1ebca37b" x="83.489448" y="145.47107" style="fill: #8dd3c7; stroke: #8dd3c7"/>
     <use xlink:href="#m8b1ebca37b" x="179.034585" y="68.427028" style="fill: #8dd3c7; stroke: #8dd3c7"/>
     <use xlink:href="#m8b1ebca37b" x="161.014593" y="49.553973" style="fill: #8dd3c7; stroke: #8dd3c7"/>
     <use xlink:href="#m8b1ebca37b" x="188.501269" y="45.82936" style="fill: #8dd3c7; stroke: #8dd3c7"/>
     <use xlink:href="#m8b1ebca37b" x="168.509562" y="35.011509" style="fill: #8dd3c7; stroke: #8dd3c7"/>
     <use xlink:href="#m8b1ebca37b" x="162.370896" y="61.738372" style="fill: #8dd3c7; stroke: #8dd3c7"/>
     <use xlink:href="#m8b1ebca37b" x="184.227857" y="39.692856" style="fill: #8dd3c7; stroke: #8dd3c7"/>
     <use xlink:href="#m8b1ebca37b" x="186.739017" y="44.798828" style="fill: #8dd3c7; stroke: #8dd3c7"/>
     <use xlink:href="#m8b1ebca37b" x="181.00943" y="40.650015" style="fill: #8dd3c7; stroke: #8dd3c7"/>
     <use xlink:href="#m8b1ebca37b" x="168.78012" y="64.839972" style="fill: #8dd3c7; stroke: #8dd3c7"/>
     <use xlink:href="#m8b1ebca37b" x="178.673285" y="68.666932" style="fill: #8dd3c7; stroke: #8dd3c7"/>
     <use xlink:href="#m8b1ebca37b" x="196.476215" y="29.878125" style="fill: #8dd3c7; stroke: #8dd3c7"/>
     <use xlink:href="#m8b1ebca37b" x="168.593557" y="52.683876" style="fill: #8dd3c7; stroke: #8dd3c7"/>
     <use xlink:href="#m8b1ebca37b" x="130.937176" y="82.822557" style="fill: #8dd3c7; stroke: #8dd3c7"/>
     <use xlink:href="#m8b1ebca37b" x="181.909626" y="33.380942" style="fill: #8dd3c7; stroke: #8dd3c7"/>
     <use xlink:href="#m8b1ebca37b" x="200.845614" y="39.026648" style="fill: #8dd3c7; stroke: #8dd3c7"/>
     <use xlink:href="#m8b1ebca37b" x="163.761986" y="41.368487" style="fill: #8dd3c7; stroke: #8dd3c7"/>
     <use xlink:href="#m8b1ebca37b" x="194.672356" y="50.042496" style="fill: #8dd3c7; stroke: #8dd3c7"/>
     <use xlink:href="#m8b1ebca37b" x="183.114619" y="58.299082" style="fill: #8dd3c7; stroke: #8dd3c7"/>
     <use xlink:href="#m8b1ebca37b" x="166.966081" y="79.251323" style="fill: #8dd3c7; stroke: #8dd3c7"/>
     <use xlink:href="#m8b1ebca37b" x="197.981979" y="41.315195" style="fill: #8dd3c7; stroke: #8dd3c7"/>
     <use xlink:href="#m8b1ebca37b" x="168.870766" y="33.505661" style="fill: #8dd3c7; stroke: #8dd3c7"/>
     <use xlink:href="#m8b1ebca37b" x="160.510136" y="68.127639" style="fill: #8dd3c7; stroke: #8dd3c7"/>
     <use xlink:href="#m8b1ebca37b" x="189.039133" y="30.803979" style="fill: #8dd3c7; stroke: #8dd3c7"/>
     <use xlink:href="#m8b1ebca37b" x="204.433097" y="51.558469" style="fill: #8dd3c7; stroke: #8dd3c7"/>
     <use xlink:href="#m8b1ebca37b" x="154.89939" y="69.939008" style="fill: #8dd3c7; stroke: #8dd3c7"/>
     <use xlink:href="#m8b1ebca37b" x="159.128093" y="66.020448" style="fill: #8dd3c7; stroke: #8dd3c7"/>
     <use xlink:href="#m8b1ebca37b" x="167.845119" y="72.172422" style="fill: #8dd3c7; stroke: #8dd3c7"/>
     <use xlink:href="#m8b1ebca37b" x="187.295291" y="34.788516" style="fill: #8dd3c7; stroke: #8dd3c7"/>
     <use xlink:href="#m8b1ebca37b" x="194.516891" y="48.184556" style="fill: #8dd3c7; stroke: #8dd3c7"/>
     <use xlink:href="#m8b1ebca37b" x="183.37826" y="48.102149" style="fill: #8dd3c7; stroke: #8dd3c7"/>
     <use xlink:href="#m8b1ebca37b" x="192.822176" y="59.763738" style="fill: #8dd3c7; stroke: #8dd3c7"/>
     <use xlink:href="#m8b1ebca37b" x="204.158663" y="61.731345" style="fill: #8dd3c7; stroke: #8dd3c7"/>
     <use xlink:href="#m8b1ebca37b" x="179.074645" y="75.738006" style="fill: #8dd3c7; stroke: #8dd3c7"/>
     <use xlink:href="#m8b1ebca37b" x="193.407084" y="38.363709" style="fill: #8dd3c7; stroke: #8dd3c7"/>
     <use xlink:href="#m8b1ebca37b" x="175.775549" y="32.800023" style="fill: #8dd3c7; stroke: #8dd3c7"/>
     <use xlink:href="#m8b1ebca37b" x="194.693913" y="34.037994" style="fill: #8dd3c7; stroke: #8dd3c7"/>
     <use xlink:href="#m8b1ebca37b" x="186.181796" y="62.852267" style="fill: #8dd3c7; stroke: #8dd3c7"/>
     <use xlink:href="#m8b1ebca37b" x="169.334961" y="63.792" style="fill: #8dd3c7; stroke: #8dd3c7"/>
     <use xlink:href="#m8b1ebca37b" x="157.487294" y="60.151945" style="fill: #8dd3c7; stroke: #8dd3c7"/>
     <use xlink:href="#m8b1ebca37b" x="131.316481" y="76.742436" style="fill: #8dd3c7; stroke: #8dd3c7"/>
    </g>
   </g>
   <g id="matplotlib.axis_1">
    <g id="xtick_1">
     <g id="line2d_1">
      <defs>
       <path id="m16b035db70" d="M 0 0 
L 0 3.5 
" style="stroke: #ffffff; stroke-width: 0.8"/>
      </defs>
      <g>
       <use xlink:href="#m16b035db70" x="50.734426" y="188.638125" style="fill: #ffffff; stroke: #ffffff; stroke-width: 0.8"/>
      </g>
     </g>
     <g id="text_1">
      <!-- −2 -->
      <g style="fill: #ffffff" transform="translate(43.363332 203.236562)scale(0.1 -0.1)">
       <defs>
        <path id="DejaVuSans-2212" d="M 678 2272 
L 4684 2272 
L 4684 1741 
L 678 1741 
L 678 2272 
z
" transform="scale(0.015625)"/>
        <path id="DejaVuSans-32" d="M 1228 531 
L 3431 531 
L 3431 0 
L 469 0 
L 469 531 
Q 828 903 1448 1529 
Q 2069 2156 2228 2338 
Q 2531 2678 2651 2914 
Q 2772 3150 2772 3378 
Q 2772 3750 2511 3984 
Q 2250 4219 1831 4219 
Q 1534 4219 1204 4116 
Q 875 4013 500 3803 
L 500 4441 
Q 881 4594 1212 4672 
Q 1544 4750 1819 4750 
Q 2544 4750 2975 4387 
Q 3406 4025 3406 3419 
Q 3406 3131 3298 2873 
Q 3191 2616 2906 2266 
Q 2828 2175 2409 1742 
Q 1991 1309 1228 531 
z
" transform="scale(0.015625)"/>
       </defs>
       <use xlink:href="#DejaVuSans-2212"/>
       <use xlink:href="#DejaVuSans-32" x="83.789062"/>
      </g>
     </g>
    </g>
    <g id="xtick_2">
     <g id="line2d_2">
      <g>
       <use xlink:href="#m16b035db70" x="100.953795" y="188.638125" style="fill: #ffffff; stroke: #ffffff; stroke-width: 0.8"/>
      </g>
     </g>
     <g id="text_2">
      <!-- 0 -->
      <g style="fill: #ffffff" transform="translate(97.772545 203.236562)scale(0.1 -0.1)">
       <defs>
        <path id="DejaVuSans-30" d="M 2034 4250 
Q 1547 4250 1301 3770 
Q 1056 3291 1056 2328 
Q 1056 1369 1301 889 
Q 1547 409 2034 409 
Q 2525 409 2770 889 
Q 3016 1369 3016 2328 
Q 3016 3291 2770 3770 
Q 2525 4250 2034 4250 
z
M 2034 4750 
Q 2819 4750 3233 4129 
Q 3647 3509 3647 2328 
Q 3647 1150 3233 529 
Q 2819 -91 2034 -91 
Q 1250 -91 836 529 
Q 422 1150 422 2328 
Q 422 3509 836 4129 
Q 1250 4750 2034 4750 
z
" transform="scale(0.015625)"/>
       </defs>
       <use xlink:href="#DejaVuSans-30"/>
      </g>
     </g>
    </g>
    <g id="xtick_3">
     <g id="line2d_3">
      <g>
       <use xlink:href="#m16b035db70" x="151.173164" y="188.638125" style="fill: #ffffff; stroke: #ffffff; stroke-width: 0.8"/>
      </g>
     </g>
     <g id="text_3">
      <!-- 2 -->
      <g style="fill: #ffffff" transform="translate(147.991914 203.236562)scale(0.1 -0.1)">
       <use xlink:href="#DejaVuSans-32"/>
      </g>
     </g>
    </g>
    <g id="xtick_4">
     <g id="line2d_4">
      <g>
       <use xlink:href="#m16b035db70" x="201.392534" y="188.638125" style="fill: #ffffff; stroke: #ffffff; stroke-width: 0.8"/>
      </g>
     </g>
     <g id="text_4">
      <!-- 4 -->
      <g style="fill: #ffffff" transform="translate(198.211284 203.236562)scale(0.1 -0.1)">
       <defs>
        <path id="DejaVuSans-34" d="M 2419 4116 
L 825 1625 
L 2419 1625 
L 2419 4116 
z
M 2253 4666 
L 3047 4666 
L 3047 1625 
L 3713 1625 
L 3713 1100 
L 3047 1100 
L 3047 0 
L 2419 0 
L 2419 1100 
L 313 1100 
L 313 1709 
L 2253 4666 
z
" transform="scale(0.015625)"/>
       </defs>
       <use xlink:href="#DejaVuSans-34"/>
      </g>
     </g>
    </g>
    <g id="text_5">
     <!-- $\Delta\tilde{t}$ -->
     <g style="fill: #ffffff" transform="translate(122.942188 216.936563)scale(0.1 -0.1)">
      <defs>
       <path id="DejaVuSans-394" d="M 2188 4044 
L 906 525 
L 3472 525 
L 2188 4044 
z
M 50 0 
L 1831 4666 
L 2547 4666 
L 4325 0 
L 50 0 
z
" transform="scale(0.015625)"/>
       <path id="DejaVuSans-303" d="M -1619 4281 
L -1797 4453 
Q -1866 4516 -1917 4545 
Q -1969 4575 -2009 4575 
Q -2128 4575 -2184 4461 
Q -2241 4347 -2247 4091 
L -2638 4091 
Q -2631 4513 -2472 4742 
Q -2313 4972 -2028 4972 
Q -1909 4972 -1809 4928 
Q -1709 4884 -1594 4781 
L -1416 4609 
Q -1347 4547 -1295 4517 
Q -1244 4488 -1203 4488 
Q -1084 4488 -1028 4602 
Q -972 4716 -966 4972 
L -575 4972 
Q -581 4550 -740 4320 
Q -900 4091 -1184 4091 
Q -1303 4091 -1403 4134 
Q -1503 4178 -1619 4281 
z
" transform="scale(0.015625)"/>
       <path id="DejaVuSans-Oblique-74" d="M 2706 3500 
L 2619 3053 
L 1472 3053 
L 1100 1153 
Q 1081 1047 1072 975 
Q 1063 903 1063 863 
Q 1063 663 1183 572 
Q 1303 481 1569 481 
L 2150 481 
L 2053 0 
L 1503 0 
Q 991 0 739 200 
Q 488 400 488 806 
Q 488 878 497 964 
Q 506 1050 525 1153 
L 897 3053 
L 409 3053 
L 500 3500 
L 978 3500 
L 1172 4494 
L 1747 4494 
L 1556 3500 
L 2706 3500 
z
" transform="scale(0.015625)"/>
      </defs>
      <use xlink:href="#DejaVuSans-394" transform="translate(0 0.515625)"/>
      <use xlink:href="#DejaVuSans-303" transform="translate(118.429199 19.3125)"/>
      <use xlink:href="#DejaVuSans-Oblique-74" transform="translate(68.408203 0.515625)"/>
     </g>
    </g>
   </g>
   <g id="matplotlib.axis_2">
    <g id="ytick_1">
     <g id="line2d_5">
      <defs>
       <path id="m149a5c27a0" d="M 0 0 
L -3.5 0 
" style="stroke: #ffffff; stroke-width: 0.8"/>
      </defs>
      <g>
       <use xlink:href="#m149a5c27a0" x="44.642188" y="170.454558" style="fill: #ffffff; stroke: #ffffff; stroke-width: 0.8"/>
      </g>
     </g>
     <g id="text_6">
      <!-- −1 -->
      <g style="fill: #ffffff" transform="translate(22.9 174.253777)scale(0.1 -0.1)">
       <defs>
        <path id="DejaVuSans-31" d="M 794 531 
L 1825 531 
L 1825 4091 
L 703 3866 
L 703 4441 
L 1819 4666 
L 2450 4666 
L 2450 531 
L 3481 531 
L 3481 0 
L 794 0 
L 794 531 
z
" transform="scale(0.015625)"/>
       </defs>
       <use xlink:href="#DejaVuSans-2212"/>
       <use xlink:href="#DejaVuSans-31" x="83.789062"/>
      </g>
     </g>
    </g>
    <g id="ytick_2">
     <g id="line2d_6">
      <g>
       <use xlink:href="#m149a5c27a0" x="44.642188" y="147.341425" style="fill: #ffffff; stroke: #ffffff; stroke-width: 0.8"/>
      </g>
     </g>
     <g id="text_7">
      <!-- 0 -->
      <g style="fill: #ffffff" transform="translate(31.279688 151.140643)scale(0.1 -0.1)">
       <use xlink:href="#DejaVuSans-30"/>
      </g>
     </g>
    </g>
    <g id="ytick_3">
     <g id="line2d_7">
      <g>
       <use xlink:href="#m149a5c27a0" x="44.642188" y="124.228291" style="fill: #ffffff; stroke: #ffffff; stroke-width: 0.8"/>
      </g>
     </g>
     <g id="text_8">
      <!-- 1 -->
      <g style="fill: #ffffff" transform="translate(31.279688 128.02751)scale(0.1 -0.1)">
       <use xlink:href="#DejaVuSans-31"/>
      </g>
     </g>
    </g>
    <g id="ytick_4">
     <g id="line2d_8">
      <g>
       <use xlink:href="#m149a5c27a0" x="44.642188" y="101.115158" style="fill: #ffffff; stroke: #ffffff; stroke-width: 0.8"/>
      </g>
     </g>
     <g id="text_9">
      <!-- 2 -->
      <g style="fill: #ffffff" transform="translate(31.279688 104.914377)scale(0.1 -0.1)">
       <use xlink:href="#DejaVuSans-32"/>
      </g>
     </g>
    </g>
    <g id="ytick_5">
     <g id="line2d_9">
      <g>
       <use xlink:href="#m149a5c27a0" x="44.642188" y="78.002025" style="fill: #ffffff; stroke: #ffffff; stroke-width: 0.8"/>
      </g>
     </g>
     <g id="text_10">
      <!-- 3 -->
      <g style="fill: #ffffff" transform="translate(31.279688 81.801244)scale(0.1 -0.1)">
       <defs>
        <path id="DejaVuSans-33" d="M 2597 2516 
Q 3050 2419 3304 2112 
Q 3559 1806 3559 1356 
Q 3559 666 3084 287 
Q 2609 -91 1734 -91 
Q 1441 -91 1130 -33 
Q 819 25 488 141 
L 488 750 
Q 750 597 1062 519 
Q 1375 441 1716 441 
Q 2309 441 2620 675 
Q 2931 909 2931 1356 
Q 2931 1769 2642 2001 
Q 2353 2234 1838 2234 
L 1294 2234 
L 1294 2753 
L 1863 2753 
Q 2328 2753 2575 2939 
Q 2822 3125 2822 3475 
Q 2822 3834 2567 4026 
Q 2313 4219 1838 4219 
Q 1578 4219 1281 4162 
Q 984 4106 628 3988 
L 628 4550 
Q 988 4650 1302 4700 
Q 1616 4750 1894 4750 
Q 2613 4750 3031 4423 
Q 3450 4097 3450 3541 
Q 3450 3153 3228 2886 
Q 3006 2619 2597 2516 
z
" transform="scale(0.015625)"/>
       </defs>
       <use xlink:href="#DejaVuSans-33"/>
      </g>
     </g>
    </g>
    <g id="ytick_6">
     <g id="line2d_10">
      <g>
       <use xlink:href="#m149a5c27a0" x="44.642188" y="54.888892" style="fill: #ffffff; stroke: #ffffff; stroke-width: 0.8"/>
      </g>
     </g>
     <g id="text_11">
      <!-- 4 -->
      <g style="fill: #ffffff" transform="translate(31.279688 58.688111)scale(0.1 -0.1)">
       <use xlink:href="#DejaVuSans-34"/>
      </g>
     </g>
    </g>
    <g id="ytick_7">
     <g id="line2d_11">
      <g>
       <use xlink:href="#m149a5c27a0" x="44.642188" y="31.775759" style="fill: #ffffff; stroke: #ffffff; stroke-width: 0.8"/>
      </g>
     </g>
     <g id="text_12">
      <!-- 5 -->
      <g style="fill: #ffffff" transform="translate(31.279688 35.574978)scale(0.1 -0.1)">
       <defs>
        <path id="DejaVuSans-35" d="M 691 4666 
L 3169 4666 
L 3169 4134 
L 1269 4134 
L 1269 2991 
Q 1406 3038 1543 3061 
Q 1681 3084 1819 3084 
Q 2600 3084 3056 2656 
Q 3513 2228 3513 1497 
Q 3513 744 3044 326 
Q 2575 -91 1722 -91 
Q 1428 -91 1123 -41 
Q 819 9 494 109 
L 494 744 
Q 775 591 1075 516 
Q 1375 441 1709 441 
Q 2250 441 2565 725 
Q 2881 1009 2881 1497 
Q 2881 1984 2565 2268 
Q 2250 2553 1709 2553 
Q 1456 2553 1204 2497 
Q 953 2441 691 2322 
L 691 4666 
z
" transform="scale(0.015625)"/>
       </defs>
       <use xlink:href="#DejaVuSans-35"/>
      </g>
     </g>
    </g>
    <g id="text_13">
     <!-- $\tilde{T}_\Delta$ -->
     <g style="fill: #ffffff" transform="translate(16.820313 111.128125)rotate(-90)scale(0.1 -0.1)">
      <defs>
       <path id="DejaVuSans-Oblique-54" d="M 378 4666 
L 4325 4666 
L 4225 4134 
L 2559 4134 
L 1759 0 
L 1125 0 
L 1925 4134 
L 275 4134 
L 378 4666 
z
" transform="scale(0.015625)"/>
      </defs>
      <use xlink:href="#DejaVuSans-303" transform="translate(63.489746 22.3125)"/>
      <use xlink:href="#DejaVuSans-Oblique-54" transform="translate(0 0.828125)"/>
      <use xlink:href="#DejaVuSans-394" transform="translate(62.041016 -15.578125)scale(0.7)"/>
     </g>
    </g>
   </g>
   <g id="patch_3">
    <path d="M 44.642188 188.638125 
L 44.642188 22.318125 
" style="fill: none; stroke: #ffffff; stroke-width: 0.8; stroke-linejoin: miter; stroke-linecap: square"/>
   </g>
   <g id="patch_4">
    <path d="M 212.042188 188.638125 
L 212.042188 22.318125 
" style="fill: none; stroke: #ffffff; stroke-width: 0.8; stroke-linejoin: miter; stroke-linecap: square"/>
   </g>
   <g id="patch_5">
    <path d="M 44.642187 188.638125 
L 212.042188 188.638125 
" style="fill: none; stroke: #ffffff; stroke-width: 0.8; stroke-linejoin: miter; stroke-linecap: square"/>
   </g>
   <g id="patch_6">
    <path d="M 44.642187 22.318125 
L 212.042188 22.318125 
" style="fill: none; stroke: #ffffff; stroke-width: 0.8; stroke-linejoin: miter; stroke-linecap: square"/>
   </g>
   <g id="text_14">
    <!-- clustering -->
    <g style="fill: #ffffff" transform="translate(98.659063 16.318125)scale(0.12 -0.12)">
     <defs>
      <path id="DejaVuSans-63" d="M 3122 3366 
L 3122 2828 
Q 2878 2963 2633 3030 
Q 2388 3097 2138 3097 
Q 1578 3097 1268 2742 
Q 959 2388 959 1747 
Q 959 1106 1268 751 
Q 1578 397 2138 397 
Q 2388 397 2633 464 
Q 2878 531 3122 666 
L 3122 134 
Q 2881 22 2623 -34 
Q 2366 -91 2075 -91 
Q 1284 -91 818 406 
Q 353 903 353 1747 
Q 353 2603 823 3093 
Q 1294 3584 2113 3584 
Q 2378 3584 2631 3529 
Q 2884 3475 3122 3366 
z
" transform="scale(0.015625)"/>
      <path id="DejaVuSans-6c" d="M 603 4863 
L 1178 4863 
L 1178 0 
L 603 0 
L 603 4863 
z
" transform="scale(0.015625)"/>
      <path id="DejaVuSans-75" d="M 544 1381 
L 544 3500 
L 1119 3500 
L 1119 1403 
Q 1119 906 1312 657 
Q 1506 409 1894 409 
Q 2359 409 2629 706 
Q 2900 1003 2900 1516 
L 2900 3500 
L 3475 3500 
L 3475 0 
L 2900 0 
L 2900 538 
Q 2691 219 2414 64 
Q 2138 -91 1772 -91 
Q 1169 -91 856 284 
Q 544 659 544 1381 
z
M 1991 3584 
L 1991 3584 
z
" transform="scale(0.015625)"/>
      <path id="DejaVuSans-73" d="M 2834 3397 
L 2834 2853 
Q 2591 2978 2328 3040 
Q 2066 3103 1784 3103 
Q 1356 3103 1142 2972 
Q 928 2841 928 2578 
Q 928 2378 1081 2264 
Q 1234 2150 1697 2047 
L 1894 2003 
Q 2506 1872 2764 1633 
Q 3022 1394 3022 966 
Q 3022 478 2636 193 
Q 2250 -91 1575 -91 
Q 1294 -91 989 -36 
Q 684 19 347 128 
L 347 722 
Q 666 556 975 473 
Q 1284 391 1588 391 
Q 1994 391 2212 530 
Q 2431 669 2431 922 
Q 2431 1156 2273 1281 
Q 2116 1406 1581 1522 
L 1381 1569 
Q 847 1681 609 1914 
Q 372 2147 372 2553 
Q 372 3047 722 3315 
Q 1072 3584 1716 3584 
Q 2034 3584 2315 3537 
Q 2597 3491 2834 3397 
z
" transform="scale(0.015625)"/>
      <path id="DejaVuSans-74" d="M 1172 4494 
L 1172 3500 
L 2356 3500 
L 2356 3053 
L 1172 3053 
L 1172 1153 
Q 1172 725 1289 603 
Q 1406 481 1766 481 
L 2356 481 
L 2356 0 
L 1766 0 
Q 1100 0 847 248 
Q 594 497 594 1153 
L 594 3053 
L 172 3053 
L 172 3500 
L 594 3500 
L 594 4494 
L 1172 4494 
z
" transform="scale(0.015625)"/>
      <path id="DejaVuSans-65" d="M 3597 1894 
L 3597 1613 
L 953 1613 
Q 991 1019 1311 708 
Q 1631 397 2203 397 
Q 2534 397 2845 478 
Q 3156 559 3463 722 
L 3463 178 
Q 3153 47 2828 -22 
Q 2503 -91 2169 -91 
Q 1331 -91 842 396 
Q 353 884 353 1716 
Q 353 2575 817 3079 
Q 1281 3584 2069 3584 
Q 2775 3584 3186 3129 
Q 3597 2675 3597 1894 
z
M 3022 2063 
Q 3016 2534 2758 2815 
Q 2500 3097 2075 3097 
Q 1594 3097 1305 2825 
Q 1016 2553 972 2059 
L 3022 2063 
z
" transform="scale(0.015625)"/>
      <path id="DejaVuSans-72" d="M 2631 2963 
Q 2534 3019 2420 3045 
Q 2306 3072 2169 3072 
Q 1681 3072 1420 2755 
Q 1159 2438 1159 1844 
L 1159 0 
L 581 0 
L 581 3500 
L 1159 3500 
L 1159 2956 
Q 1341 3275 1631 3429 
Q 1922 3584 2338 3584 
Q 2397 3584 2469 3576 
Q 2541 3569 2628 3553 
L 2631 2963 
z
" transform="scale(0.015625)"/>
      <path id="DejaVuSans-69" d="M 603 3500 
L 1178 3500 
L 1178 0 
L 603 0 
L 603 3500 
z
M 603 4863 
L 1178 4863 
L 1178 4134 
L 603 4134 
L 603 4863 
z
" transform="scale(0.015625)"/>
      <path id="DejaVuSans-6e" d="M 3513 2113 
L 3513 0 
L 2938 0 
L 2938 2094 
Q 2938 2591 2744 2837 
Q 2550 3084 2163 3084 
Q 1697 3084 1428 2787 
Q 1159 2491 1159 1978 
L 1159 0 
L 581 0 
L 581 3500 
L 1159 3500 
L 1159 2956 
Q 1366 3272 1645 3428 
Q 1925 3584 2291 3584 
Q 2894 3584 3203 3211 
Q 3513 2838 3513 2113 
z
" transform="scale(0.015625)"/>
      <path id="DejaVuSans-67" d="M 2906 1791 
Q 2906 2416 2648 2759 
Q 2391 3103 1925 3103 
Q 1463 3103 1205 2759 
Q 947 2416 947 1791 
Q 947 1169 1205 825 
Q 1463 481 1925 481 
Q 2391 481 2648 825 
Q 2906 1169 2906 1791 
z
M 3481 434 
Q 3481 -459 3084 -895 
Q 2688 -1331 1869 -1331 
Q 1566 -1331 1297 -1286 
Q 1028 -1241 775 -1147 
L 775 -588 
Q 1028 -725 1275 -790 
Q 1522 -856 1778 -856 
Q 2344 -856 2625 -561 
Q 2906 -266 2906 331 
L 2906 616 
Q 2728 306 2450 153 
Q 2172 0 1784 0 
Q 1141 0 747 490 
Q 353 981 353 1791 
Q 353 2603 747 3093 
Q 1141 3584 1784 3584 
Q 2172 3584 2450 3431 
Q 2728 3278 2906 2969 
L 2906 3500 
L 3481 3500 
L 3481 434 
z
" transform="scale(0.015625)"/>
     </defs>
     <use xlink:href="#DejaVuSans-63"/>
     <use xlink:href="#DejaVuSans-6c" x="54.980469"/>
     <use xlink:href="#DejaVuSans-75" x="82.763672"/>
     <use xlink:href="#DejaVuSans-73" x="146.142578"/>
     <use xlink:href="#DejaVuSans-74" x="198.242188"/>
     <use xlink:href="#DejaVuSans-65" x="237.451172"/>
     <use xlink:href="#DejaVuSans-72" x="298.974609"/>
     <use xlink:href="#DejaVuSans-69" x="340.087891"/>
     <use xlink:href="#DejaVuSans-6e" x="367.871094"/>
     <use xlink:href="#DejaVuSans-67" x="431.25"/>
    </g>
   </g>
   <g id="legend_1">
    <g id="patch_7">
     <path d="M 51.642188 44.99625 
L 106.167188 44.99625 
Q 108.167188 44.99625 108.167188 42.99625 
L 108.167188 29.318125 
Q 108.167188 27.318125 106.167188 27.318125 
L 51.642188 27.318125 
Q 49.642188 27.318125 49.642188 29.318125 
L 49.642188 42.99625 
Q 49.642188 44.99625 51.642188 44.99625 
L 51.642188 44.99625 
z
" style="fill: none; opacity: 0.8; stroke: #cccccc; stroke-linejoin: miter"/>
    </g>
    <g id="PathCollection_2">
     <g>
      <use xlink:href="#m8b1ebca37b" x="63.642188" y="36.291562" style="fill: #8dd3c7; stroke: #8dd3c7"/>
     </g>
    </g>
    <g id="text_15">
     <!-- data -->
     <g style="fill: #ffffff" transform="translate(81.642188 38.916562)scale(0.1 -0.1)">
      <defs>
       <path id="DejaVuSans-64" d="M 2906 2969 
L 2906 4863 
L 3481 4863 
L 3481 0 
L 2906 0 
L 2906 525 
Q 2725 213 2448 61 
Q 2172 -91 1784 -91 
Q 1150 -91 751 415 
Q 353 922 353 1747 
Q 353 2572 751 3078 
Q 1150 3584 1784 3584 
Q 2172 3584 2448 3432 
Q 2725 3281 2906 2969 
z
M 947 1747 
Q 947 1113 1208 752 
Q 1469 391 1925 391 
Q 2381 391 2643 752 
Q 2906 1113 2906 1747 
Q 2906 2381 2643 2742 
Q 2381 3103 1925 3103 
Q 1469 3103 1208 2742 
Q 947 2381 947 1747 
z
" transform="scale(0.015625)"/>
       <path id="DejaVuSans-61" d="M 2194 1759 
Q 1497 1759 1228 1600 
Q 959 1441 959 1056 
Q 959 750 1161 570 
Q 1363 391 1709 391 
Q 2188 391 2477 730 
Q 2766 1069 2766 1631 
L 2766 1759 
L 2194 1759 
z
M 3341 1997 
L 3341 0 
L 2766 0 
L 2766 531 
Q 2569 213 2275 61 
Q 1981 -91 1556 -91 
Q 1019 -91 701 211 
Q 384 513 384 1019 
Q 384 1609 779 1909 
Q 1175 2209 1959 2209 
L 2766 2209 
L 2766 2266 
Q 2766 2663 2505 2880 
Q 2244 3097 1772 3097 
Q 1472 3097 1187 3025 
Q 903 2953 641 2809 
L 641 3341 
Q 956 3463 1253 3523 
Q 1550 3584 1831 3584 
Q 2591 3584 2966 3190 
Q 3341 2797 3341 1997 
z
" transform="scale(0.015625)"/>
      </defs>
      <use xlink:href="#DejaVuSans-64"/>
      <use xlink:href="#DejaVuSans-61" x="63.476562"/>
      <use xlink:href="#DejaVuSans-74" x="124.755859"/>
      <use xlink:href="#DejaVuSans-61" x="163.964844"/>
     </g>
    </g>
   </g>
  </g>
 </g>
 <defs>
  <clipPath id="p2113cb9281">
   <rect x="44.642188" y="22.318125" width="167.4" height="166.32"/>
  </clipPath>
 </defs>
</svg>
