<?xml version="1.0" encoding="utf-8" standalone="no"?>
<!DOCTYPE svg PUBLIC "-//W3C//DTD SVG 1.1//EN"
  "http://www.w3.org/Graphics/SVG/1.1/DTD/svg11.dtd">
<svg xmlns:xlink="http://www.w3.org/1999/xlink" width="217.342188pt" height="226.31625pt" viewBox="0 0 217.342188 226.31625" xmlns="http://www.w3.org/2000/svg" version="1.1">
 <metadata>
  <rdf:RDF xmlns:dc="http://purl.org/dc/elements/1.1/" xmlns:cc="http://creativecommons.org/ns#" xmlns:rdf="http://www.w3.org/1999/02/22-rdf-syntax-ns#">
   <cc:Work>
    <dc:type rdf:resource="http://purl.org/dc/dcmitype/StillImage"/>
    <dc:date>2024-07-26T09:50:10.400507</dc:date>
    <dc:format>image/svg+xml</dc:format>
    <dc:creator>
     <cc:Agent>
      <dc:title>Matplotlib v3.5.1, https://matplotlib.org/</dc:title>
     </cc:Agent>
    </dc:creator>
   </cc:Work>
  </rdf:RDF>
 </metadata>
 <defs>
  <style type="text/css">*{stroke-linejoin: round; stroke-linecap: butt}</style>
 </defs>
 <g id="figure_1">
  <g id="patch_1">
   <path d="M 0 226.31625 
L 217.342188 226.31625 
L 217.342188 0 
L 0 0 
L 0 226.31625 
z
" style="fill: none"/>
  </g>
  <g id="axes_1">
   <g id="patch_2">
    <path d="M 42.742188 188.638125 
L 210.142188 188.638125 
L 210.142188 22.318125 
L 42.742188 22.318125 
L 42.742188 188.638125 
z
" style="fill: none"/>
   </g>
   <g id="line2d_1">
    <path d="M 70.232892 154.545525 
L 72.313343 156.614043 
" clip-path="url(#p3890b51e9b)" style="fill: none; stroke: #ffffff; stroke-linecap: square"/>
   </g>
   <g id="line2d_2">
    <path d="M 80.576861 120.135736 
L 94.660186 134.138282 
" clip-path="url(#p3890b51e9b)" style="fill: none; stroke: #ffffff; stroke-linecap: square"/>
   </g>
   <g id="line2d_3">
    <path d="M 76.287892 166.499139 
L 69.34672 159.59778 
" clip-path="url(#p3890b51e9b)" style="fill: none; stroke: #ffffff; stroke-linecap: square"/>
   </g>
   <g id="line2d_4">
    <path d="M 97.031372 134.957556 
L 95.429329 133.364702 
" clip-path="url(#p3890b51e9b)" style="fill: none; stroke: #ffffff; stroke-linecap: square"/>
   </g>
   <g id="line2d_5">
    <path d="M 123.370975 101.270933 
L 125.366407 103.254919 
" clip-path="url(#p3890b51e9b)" style="fill: none; stroke: #ffffff; stroke-linecap: square"/>
   </g>
   <g id="line2d_6">
    <path d="M 109.502924 101.493955 
L 118.360758 110.300983 
" clip-path="url(#p3890b51e9b)" style="fill: none; stroke: #ffffff; stroke-linecap: square"/>
   </g>
   <g id="line2d_7">
    <path d="M 100.633399 127.7859 
L 100.805751 127.957263 
" clip-path="url(#p3890b51e9b)" style="fill: none; stroke: #ffffff; stroke-linecap: square"/>
   </g>
   <g id="line2d_8">
    <path d="M 108.28518 117.362435 
L 109.821281 118.889724 
" clip-path="url(#p3890b51e9b)" style="fill: none; stroke: #ffffff; stroke-linecap: square"/>
   </g>
   <g id="line2d_9">
    <path d="M 81.882509 150.809815 
L 79.97247 148.910731 
" clip-path="url(#p3890b51e9b)" style="fill: none; stroke: #ffffff; stroke-linecap: square"/>
   </g>
   <g id="line2d_10">
    <path d="M 119.776555 121.39999 
L 113.515173 115.174522 
" clip-path="url(#p3890b51e9b)" style="fill: none; stroke: #ffffff; stroke-linecap: square"/>
   </g>
   <g id="line2d_11">
    <path d="M 191.586533 29.878125 
L 194.973801 33.245965 
" clip-path="url(#p3890b51e9b)" style="fill: none; stroke: #ffffff; stroke-linecap: square"/>
   </g>
   <g id="line2d_12">
    <path d="M 103.334077 136.379084 
L 97.851802 130.928254 
" clip-path="url(#p3890b51e9b)" style="fill: none; stroke: #ffffff; stroke-linecap: square"/>
   </g>
   <g id="line2d_13">
    <path d="M 67.946362 181.078125 
L 57.910574 171.0999 
" clip-path="url(#p3890b51e9b)" style="fill: none; stroke: #ffffff; stroke-linecap: square"/>
   </g>
   <g id="line2d_14">
    <path d="M 123.033698 109.423628 
L 121.122458 107.523351 
" clip-path="url(#p3890b51e9b)" style="fill: none; stroke: #ffffff; stroke-linecap: square"/>
   </g>
   <g id="line2d_15">
    <path d="M 69.833446 140.966208 
L 78.904315 149.985048 
" clip-path="url(#p3890b51e9b)" style="fill: none; stroke: #ffffff; stroke-linecap: square"/>
   </g>
   <g id="line2d_16">
    <path d="M 116.226776 108.8392 
L 118.030784 110.632861 
" clip-path="url(#p3890b51e9b)" style="fill: none; stroke: #ffffff; stroke-linecap: square"/>
   </g>
   <g id="line2d_17">
    <path d="M 161.359128 94.547926 
L 147.612672 80.880317 
" clip-path="url(#p3890b51e9b)" style="fill: none; stroke: #ffffff; stroke-linecap: square"/>
   </g>
   <g id="line2d_18">
    <path d="M 132.005338 95.960633 
L 132.313861 96.267386 
" clip-path="url(#p3890b51e9b)" style="fill: none; stroke: #ffffff; stroke-linecap: square"/>
   </g>
   <g id="line2d_19">
    <path d="M 80.197849 134.092293 
L 87.493607 141.346205 
" clip-path="url(#p3890b51e9b)" style="fill: none; stroke: #ffffff; stroke-linecap: square"/>
   </g>
   <g id="line2d_20">
    <path d="M 136.126637 97.835756 
L 133.425111 95.149725 
" clip-path="url(#p3890b51e9b)" style="fill: none; stroke: #ffffff; stroke-linecap: square"/>
   </g>
   <g id="PathCollection_1">
    <defs>
     <path id="me0afaaf975" d="M 0 3 
C 0.795609 3 1.55874 2.683901 2.12132 2.12132 
C 2.683901 1.55874 3 0.795609 3 0 
C 3 -0.795609 2.683901 -1.55874 2.12132 -2.12132 
C 1.55874 -2.683901 0.795609 -3 0 -3 
C -0.795609 -3 -1.55874 -2.683901 -2.12132 -2.12132 
C -2.683901 -1.55874 -3 -0.795609 -3 0 
C -3 0.795609 -2.683901 1.55874 -2.12132 2.12132 
C -1.55874 2.683901 -0.795609 3 0 3 
z
" style="stroke: #8dd3c7"/>
    </defs>
    <g clip-path="url(#p3890b51e9b)">
     <use xlink:href="#me0afaaf975" x="70.232892" y="154.545525" style="fill: #8dd3c7; stroke: #8dd3c7"/>
     <use xlink:href="#me0afaaf975" x="80.576861" y="120.135736" style="fill: #8dd3c7; stroke: #8dd3c7"/>
     <use xlink:href="#me0afaaf975" x="76.287892" y="166.499139" style="fill: #8dd3c7; stroke: #8dd3c7"/>
     <use xlink:href="#me0afaaf975" x="97.031372" y="134.957556" style="fill: #8dd3c7; stroke: #8dd3c7"/>
     <use xlink:href="#me0afaaf975" x="123.370975" y="101.270933" style="fill: #8dd3c7; stroke: #8dd3c7"/>
     <use xlink:href="#me0afaaf975" x="109.502924" y="101.493955" style="fill: #8dd3c7; stroke: #8dd3c7"/>
     <use xlink:href="#me0afaaf975" x="100.633399" y="127.7859" style="fill: #8dd3c7; stroke: #8dd3c7"/>
     <use xlink:href="#me0afaaf975" x="108.28518" y="117.362435" style="fill: #8dd3c7; stroke: #8dd3c7"/>
     <use xlink:href="#me0afaaf975" x="81.882509" y="150.809815" style="fill: #8dd3c7; stroke: #8dd3c7"/>
     <use xlink:href="#me0afaaf975" x="119.776555" y="121.39999" style="fill: #8dd3c7; stroke: #8dd3c7"/>
     <use xlink:href="#me0afaaf975" x="191.586533" y="29.878125" style="fill: #8dd3c7; stroke: #8dd3c7"/>
     <use xlink:href="#me0afaaf975" x="103.334077" y="136.379084" style="fill: #8dd3c7; stroke: #8dd3c7"/>
     <use xlink:href="#me0afaaf975" x="67.946362" y="181.078125" style="fill: #8dd3c7; stroke: #8dd3c7"/>
     <use xlink:href="#me0afaaf975" x="123.033698" y="109.423628" style="fill: #8dd3c7; stroke: #8dd3c7"/>
     <use xlink:href="#me0afaaf975" x="69.833446" y="140.966208" style="fill: #8dd3c7; stroke: #8dd3c7"/>
     <use xlink:href="#me0afaaf975" x="116.226776" y="108.8392" style="fill: #8dd3c7; stroke: #8dd3c7"/>
     <use xlink:href="#me0afaaf975" x="161.359128" y="94.547926" style="fill: #8dd3c7; stroke: #8dd3c7"/>
     <use xlink:href="#me0afaaf975" x="132.005338" y="95.960633" style="fill: #8dd3c7; stroke: #8dd3c7"/>
     <use xlink:href="#me0afaaf975" x="80.197849" y="134.092293" style="fill: #8dd3c7; stroke: #8dd3c7"/>
     <use xlink:href="#me0afaaf975" x="136.126637" y="97.835756" style="fill: #8dd3c7; stroke: #8dd3c7"/>
    </g>
   </g>
   <g id="PathCollection_2">
    <defs>
     <path id="mb0e0ee2a94" d="M 0 3 
C 0.795609 3 1.55874 2.683901 2.12132 2.12132 
C 2.683901 1.55874 3 0.795609 3 0 
C 3 -0.795609 2.683901 -1.55874 2.12132 -2.12132 
C 1.55874 -2.683901 0.795609 -3 0 -3 
C -0.795609 -3 -1.55874 -2.683901 -2.12132 -2.12132 
C -2.683901 -1.55874 -3 -0.795609 -3 0 
C -3 0.795609 -2.683901 1.55874 -2.12132 2.12132 
C -1.55874 2.683901 -0.795609 3 0 3 
z
" style="stroke: #feffb3"/>
    </defs>
    <g clip-path="url(#p3890b51e9b)">
     <use xlink:href="#mb0e0ee2a94" x="72.313343" y="156.614043" style="fill: #feffb3; stroke: #feffb3"/>
     <use xlink:href="#mb0e0ee2a94" x="94.660186" y="134.138282" style="fill: #feffb3; stroke: #feffb3"/>
     <use xlink:href="#mb0e0ee2a94" x="69.34672" y="159.59778" style="fill: #feffb3; stroke: #feffb3"/>
     <use xlink:href="#mb0e0ee2a94" x="95.429329" y="133.364702" style="fill: #feffb3; stroke: #feffb3"/>
     <use xlink:href="#mb0e0ee2a94" x="125.366407" y="103.254919" style="fill: #feffb3; stroke: #feffb3"/>
     <use xlink:href="#mb0e0ee2a94" x="118.360758" y="110.300983" style="fill: #feffb3; stroke: #feffb3"/>
     <use xlink:href="#mb0e0ee2a94" x="100.805751" y="127.957263" style="fill: #feffb3; stroke: #feffb3"/>
     <use xlink:href="#mb0e0ee2a94" x="109.821281" y="118.889724" style="fill: #feffb3; stroke: #feffb3"/>
     <use xlink:href="#mb0e0ee2a94" x="79.97247" y="148.910731" style="fill: #feffb3; stroke: #feffb3"/>
     <use xlink:href="#mb0e0ee2a94" x="113.515173" y="115.174522" style="fill: #feffb3; stroke: #feffb3"/>
     <use xlink:href="#mb0e0ee2a94" x="194.973801" y="33.245965" style="fill: #feffb3; stroke: #feffb3"/>
     <use xlink:href="#mb0e0ee2a94" x="97.851802" y="130.928254" style="fill: #feffb3; stroke: #feffb3"/>
     <use xlink:href="#mb0e0ee2a94" x="57.910574" y="171.0999" style="fill: #feffb3; stroke: #feffb3"/>
     <use xlink:href="#mb0e0ee2a94" x="121.122458" y="107.523351" style="fill: #feffb3; stroke: #feffb3"/>
     <use xlink:href="#mb0e0ee2a94" x="78.904315" y="149.985048" style="fill: #feffb3; stroke: #feffb3"/>
     <use xlink:href="#mb0e0ee2a94" x="118.030784" y="110.632861" style="fill: #feffb3; stroke: #feffb3"/>
     <use xlink:href="#mb0e0ee2a94" x="147.612672" y="80.880317" style="fill: #feffb3; stroke: #feffb3"/>
     <use xlink:href="#mb0e0ee2a94" x="132.313861" y="96.267386" style="fill: #feffb3; stroke: #feffb3"/>
     <use xlink:href="#mb0e0ee2a94" x="87.493607" y="141.346205" style="fill: #feffb3; stroke: #feffb3"/>
     <use xlink:href="#mb0e0ee2a94" x="133.425111" y="95.149725" style="fill: #feffb3; stroke: #feffb3"/>
    </g>
   </g>
   <g id="matplotlib.axis_1">
    <g id="xtick_1">
     <g id="line2d_21">
      <defs>
       <path id="m813edbdd2e" d="M 0 0 
L 0 3.5 
" style="stroke: #ffffff; stroke-width: 0.8"/>
      </defs>
      <g>
       <use xlink:href="#m813edbdd2e" x="48.992723" y="188.638125" style="fill: #ffffff; stroke: #ffffff; stroke-width: 0.8"/>
      </g>
     </g>
     <g id="text_1">
      <!-- −2 -->
      <g style="fill: #ffffff" transform="translate(41.621629 203.236563)scale(0.1 -0.1)">
       <defs>
        <path id="DejaVuSans-2212" d="M 678 2272 
L 4684 2272 
L 4684 1741 
L 678 1741 
L 678 2272 
z
" transform="scale(0.015625)"/>
        <path id="DejaVuSans-32" d="M 1228 531 
L 3431 531 
L 3431 0 
L 469 0 
L 469 531 
Q 828 903 1448 1529 
Q 2069 2156 2228 2338 
Q 2531 2678 2651 2914 
Q 2772 3150 2772 3378 
Q 2772 3750 2511 3984 
Q 2250 4219 1831 4219 
Q 1534 4219 1204 4116 
Q 875 4013 500 3803 
L 500 4441 
Q 881 4594 1212 4672 
Q 1544 4750 1819 4750 
Q 2544 4750 2975 4387 
Q 3406 4025 3406 3419 
Q 3406 3131 3298 2873 
Q 3191 2616 2906 2266 
Q 2828 2175 2409 1742 
Q 1991 1309 1228 531 
z
" transform="scale(0.015625)"/>
       </defs>
       <use xlink:href="#DejaVuSans-2212"/>
       <use xlink:href="#DejaVuSans-32" x="83.789062"/>
      </g>
     </g>
    </g>
    <g id="xtick_2">
     <g id="line2d_22">
      <g>
       <use xlink:href="#m813edbdd2e" x="107.46152" y="188.638125" style="fill: #ffffff; stroke: #ffffff; stroke-width: 0.8"/>
      </g>
     </g>
     <g id="text_2">
      <!-- 0 -->
      <g style="fill: #ffffff" transform="translate(104.28027 203.236563)scale(0.1 -0.1)">
       <defs>
        <path id="DejaVuSans-30" d="M 2034 4250 
Q 1547 4250 1301 3770 
Q 1056 3291 1056 2328 
Q 1056 1369 1301 889 
Q 1547 409 2034 409 
Q 2525 409 2770 889 
Q 3016 1369 3016 2328 
Q 3016 3291 2770 3770 
Q 2525 4250 2034 4250 
z
M 2034 4750 
Q 2819 4750 3233 4129 
Q 3647 3509 3647 2328 
Q 3647 1150 3233 529 
Q 2819 -91 2034 -91 
Q 1250 -91 836 529 
Q 422 1150 422 2328 
Q 422 3509 836 4129 
Q 1250 4750 2034 4750 
z
" transform="scale(0.015625)"/>
       </defs>
       <use xlink:href="#DejaVuSans-30"/>
      </g>
     </g>
    </g>
    <g id="xtick_3">
     <g id="line2d_23">
      <g>
       <use xlink:href="#m813edbdd2e" x="165.930317" y="188.638125" style="fill: #ffffff; stroke: #ffffff; stroke-width: 0.8"/>
      </g>
     </g>
     <g id="text_3">
      <!-- 2 -->
      <g style="fill: #ffffff" transform="translate(162.749067 203.236563)scale(0.1 -0.1)">
       <use xlink:href="#DejaVuSans-32"/>
      </g>
     </g>
    </g>
    <g id="text_4">
     <!-- $\tilde{u}_1$ -->
     <g style="fill: #ffffff" transform="translate(120.842188 217.036563)scale(0.1 -0.1)">
      <defs>
       <path id="DejaVuSans-303" d="M -1619 4281 
L -1797 4453 
Q -1866 4516 -1917 4545 
Q -1969 4575 -2009 4575 
Q -2128 4575 -2184 4461 
Q -2241 4347 -2247 4091 
L -2638 4091 
Q -2631 4513 -2472 4742 
Q -2313 4972 -2028 4972 
Q -1909 4972 -1809 4928 
Q -1709 4884 -1594 4781 
L -1416 4609 
Q -1347 4547 -1295 4517 
Q -1244 4488 -1203 4488 
Q -1084 4488 -1028 4602 
Q -972 4716 -966 4972 
L -575 4972 
Q -581 4550 -740 4320 
Q -900 4091 -1184 4091 
Q -1303 4091 -1403 4134 
Q -1503 4178 -1619 4281 
z
" transform="scale(0.015625)"/>
       <path id="DejaVuSans-Oblique-75" d="M 428 1388 
L 838 3500 
L 1416 3500 
L 1006 1409 
Q 975 1256 961 1147 
Q 947 1038 947 966 
Q 947 700 1109 554 
Q 1272 409 1569 409 
Q 2031 409 2368 721 
Q 2706 1034 2809 1563 
L 3194 3500 
L 3769 3500 
L 3091 0 
L 2516 0 
L 2631 550 
Q 2388 244 2052 76 
Q 1716 -91 1338 -91 
Q 878 -91 622 161 
Q 366 413 366 863 
Q 366 956 381 1097 
Q 397 1238 428 1388 
z
" transform="scale(0.015625)"/>
       <path id="DejaVuSans-31" d="M 794 531 
L 1825 531 
L 1825 4091 
L 703 3866 
L 703 4441 
L 1819 4666 
L 2450 4666 
L 2450 531 
L 3481 531 
L 3481 0 
L 794 0 
L 794 531 
z
" transform="scale(0.015625)"/>
      </defs>
      <use xlink:href="#DejaVuSans-303" transform="translate(65.063477 3.3125)"/>
      <use xlink:href="#DejaVuSans-Oblique-75" transform="translate(0 0.046875)"/>
      <use xlink:href="#DejaVuSans-31" transform="translate(64.335938 -16.359375)scale(0.7)"/>
     </g>
    </g>
   </g>
   <g id="matplotlib.axis_2">
    <g id="ytick_1">
     <g id="line2d_24">
      <defs>
       <path id="m12e50ec424" d="M 0 0 
L -3.5 0 
" style="stroke: #ffffff; stroke-width: 0.8"/>
      </defs>
      <g>
       <use xlink:href="#m12e50ec424" x="42.742188" y="179.731895" style="fill: #ffffff; stroke: #ffffff; stroke-width: 0.8"/>
      </g>
     </g>
     <g id="text_5">
      <!-- −2 -->
      <g style="fill: #ffffff" transform="translate(21 183.531114)scale(0.1 -0.1)">
       <use xlink:href="#DejaVuSans-2212"/>
       <use xlink:href="#DejaVuSans-32" x="83.789062"/>
      </g>
     </g>
    </g>
    <g id="ytick_2">
     <g id="line2d_25">
      <g>
       <use xlink:href="#m12e50ec424" x="42.742188" y="150.497497" style="fill: #ffffff; stroke: #ffffff; stroke-width: 0.8"/>
      </g>
     </g>
     <g id="text_6">
      <!-- −1 -->
      <g style="fill: #ffffff" transform="translate(21 154.296715)scale(0.1 -0.1)">
       <use xlink:href="#DejaVuSans-2212"/>
       <use xlink:href="#DejaVuSans-31" x="83.789062"/>
      </g>
     </g>
    </g>
    <g id="ytick_3">
     <g id="line2d_26">
      <g>
       <use xlink:href="#m12e50ec424" x="42.742188" y="121.263098" style="fill: #ffffff; stroke: #ffffff; stroke-width: 0.8"/>
      </g>
     </g>
     <g id="text_7">
      <!-- 0 -->
      <g style="fill: #ffffff" transform="translate(29.379687 125.062317)scale(0.1 -0.1)">
       <use xlink:href="#DejaVuSans-30"/>
      </g>
     </g>
    </g>
    <g id="ytick_4">
     <g id="line2d_27">
      <g>
       <use xlink:href="#m12e50ec424" x="42.742188" y="92.0287" style="fill: #ffffff; stroke: #ffffff; stroke-width: 0.8"/>
      </g>
     </g>
     <g id="text_8">
      <!-- 1 -->
      <g style="fill: #ffffff" transform="translate(29.379687 95.827918)scale(0.1 -0.1)">
       <use xlink:href="#DejaVuSans-31"/>
      </g>
     </g>
    </g>
    <g id="ytick_5">
     <g id="line2d_28">
      <g>
       <use xlink:href="#m12e50ec424" x="42.742188" y="62.794301" style="fill: #ffffff; stroke: #ffffff; stroke-width: 0.8"/>
      </g>
     </g>
     <g id="text_9">
      <!-- 2 -->
      <g style="fill: #ffffff" transform="translate(29.379687 66.59352)scale(0.1 -0.1)">
       <use xlink:href="#DejaVuSans-32"/>
      </g>
     </g>
    </g>
    <g id="ytick_6">
     <g id="line2d_29">
      <g>
       <use xlink:href="#m12e50ec424" x="42.742188" y="33.559903" style="fill: #ffffff; stroke: #ffffff; stroke-width: 0.8"/>
      </g>
     </g>
     <g id="text_10">
      <!-- 3 -->
      <g style="fill: #ffffff" transform="translate(29.379687 37.359121)scale(0.1 -0.1)">
       <defs>
        <path id="DejaVuSans-33" d="M 2597 2516 
Q 3050 2419 3304 2112 
Q 3559 1806 3559 1356 
Q 3559 666 3084 287 
Q 2609 -91 1734 -91 
Q 1441 -91 1130 -33 
Q 819 25 488 141 
L 488 750 
Q 750 597 1062 519 
Q 1375 441 1716 441 
Q 2309 441 2620 675 
Q 2931 909 2931 1356 
Q 2931 1769 2642 2001 
Q 2353 2234 1838 2234 
L 1294 2234 
L 1294 2753 
L 1863 2753 
Q 2328 2753 2575 2939 
Q 2822 3125 2822 3475 
Q 2822 3834 2567 4026 
Q 2313 4219 1838 4219 
Q 1578 4219 1281 4162 
Q 984 4106 628 3988 
L 628 4550 
Q 988 4650 1302 4700 
Q 1616 4750 1894 4750 
Q 2613 4750 3031 4423 
Q 3450 4097 3450 3541 
Q 3450 3153 3228 2886 
Q 3006 2619 2597 2516 
z
" transform="scale(0.015625)"/>
       </defs>
       <use xlink:href="#DejaVuSans-33"/>
      </g>
     </g>
    </g>
    <g id="text_11">
     <!-- $\tilde{u}_2$ -->
     <g style="fill: #ffffff" transform="translate(14.920312 111.078125)rotate(-90)scale(0.1 -0.1)">
      <use xlink:href="#DejaVuSans-303" transform="translate(65.063477 3.3125)"/>
      <use xlink:href="#DejaVuSans-Oblique-75" transform="translate(0 0.046875)"/>
      <use xlink:href="#DejaVuSans-32" transform="translate(64.335938 -16.359375)scale(0.7)"/>
     </g>
    </g>
   </g>
   <g id="patch_3">
    <path d="M 42.742188 188.638125 
L 42.742188 22.318125 
" style="fill: none; stroke: #ffffff; stroke-width: 0.8; stroke-linejoin: miter; stroke-linecap: square"/>
   </g>
   <g id="patch_4">
    <path d="M 210.142188 188.638125 
L 210.142188 22.318125 
" style="fill: none; stroke: #ffffff; stroke-width: 0.8; stroke-linejoin: miter; stroke-linecap: square"/>
   </g>
   <g id="patch_5">
    <path d="M 42.742188 188.638125 
L 210.142188 188.638125 
" style="fill: none; stroke: #ffffff; stroke-width: 0.8; stroke-linejoin: miter; stroke-linecap: square"/>
   </g>
   <g id="patch_6">
    <path d="M 42.742188 22.318125 
L 210.142188 22.318125 
" style="fill: none; stroke: #ffffff; stroke-width: 0.8; stroke-linejoin: miter; stroke-linecap: square"/>
   </g>
   <g id="text_12">
    <!-- $\tilde{u}_1^\prime$ -->
    <g style="fill: #fa8174" transform="translate(185.438664 50.984832)scale(0.12 -0.12)">
     <defs>
      <path id="Cmsy10-30" d="M 225 347 
Q 184 359 184 409 
L 966 3316 
Q 1003 3434 1093 3506 
Q 1184 3578 1300 3578 
Q 1450 3578 1564 3479 
Q 1678 3381 1678 3231 
Q 1678 3166 1644 3084 
L 488 319 
Q 466 275 428 275 
Q 394 275 320 306 
Q 247 338 225 347 
z
" transform="scale(0.015625)"/>
     </defs>
     <use xlink:href="#DejaVuSans-303" transform="translate(65.063477 3.3125)"/>
     <use xlink:href="#DejaVuSans-Oblique-75" transform="translate(0 0.046875)"/>
     <use xlink:href="#Cmsy10-30" transform="translate(64.335938 38.328125)scale(0.7)"/>
     <use xlink:href="#DejaVuSans-31" transform="translate(64.335938 -27.296875)scale(0.7)"/>
    </g>
   </g>
   <g id="text_13">
    <!-- $\tilde{u}_2^\prime$ -->
    <g style="fill: #fa8174" transform="translate(78.05444 113.54637)scale(0.12 -0.12)">
     <use xlink:href="#DejaVuSans-303" transform="translate(65.063477 3.3125)"/>
     <use xlink:href="#DejaVuSans-Oblique-75" transform="translate(0 0.046875)"/>
     <use xlink:href="#Cmsy10-30" transform="translate(64.335938 38.328125)scale(0.7)"/>
     <use xlink:href="#DejaVuSans-32" transform="translate(64.335938 -27.296875)scale(0.7)"/>
    </g>
   </g>
   <g id="text_14">
    <!-- dimensionality reduction -->
    <g style="fill: #ffffff" transform="translate(52.113438 16.318125)scale(0.12 -0.12)">
     <defs>
      <path id="DejaVuSans-64" d="M 2906 2969 
L 2906 4863 
L 3481 4863 
L 3481 0 
L 2906 0 
L 2906 525 
Q 2725 213 2448 61 
Q 2172 -91 1784 -91 
Q 1150 -91 751 415 
Q 353 922 353 1747 
Q 353 2572 751 3078 
Q 1150 3584 1784 3584 
Q 2172 3584 2448 3432 
Q 2725 3281 2906 2969 
z
M 947 1747 
Q 947 1113 1208 752 
Q 1469 391 1925 391 
Q 2381 391 2643 752 
Q 2906 1113 2906 1747 
Q 2906 2381 2643 2742 
Q 2381 3103 1925 3103 
Q 1469 3103 1208 2742 
Q 947 2381 947 1747 
z
" transform="scale(0.015625)"/>
      <path id="DejaVuSans-69" d="M 603 3500 
L 1178 3500 
L 1178 0 
L 603 0 
L 603 3500 
z
M 603 4863 
L 1178 4863 
L 1178 4134 
L 603 4134 
L 603 4863 
z
" transform="scale(0.015625)"/>
      <path id="DejaVuSans-6d" d="M 3328 2828 
Q 3544 3216 3844 3400 
Q 4144 3584 4550 3584 
Q 5097 3584 5394 3201 
Q 5691 2819 5691 2113 
L 5691 0 
L 5113 0 
L 5113 2094 
Q 5113 2597 4934 2840 
Q 4756 3084 4391 3084 
Q 3944 3084 3684 2787 
Q 3425 2491 3425 1978 
L 3425 0 
L 2847 0 
L 2847 2094 
Q 2847 2600 2669 2842 
Q 2491 3084 2119 3084 
Q 1678 3084 1418 2786 
Q 1159 2488 1159 1978 
L 1159 0 
L 581 0 
L 581 3500 
L 1159 3500 
L 1159 2956 
Q 1356 3278 1631 3431 
Q 1906 3584 2284 3584 
Q 2666 3584 2933 3390 
Q 3200 3197 3328 2828 
z
" transform="scale(0.015625)"/>
      <path id="DejaVuSans-65" d="M 3597 1894 
L 3597 1613 
L 953 1613 
Q 991 1019 1311 708 
Q 1631 397 2203 397 
Q 2534 397 2845 478 
Q 3156 559 3463 722 
L 3463 178 
Q 3153 47 2828 -22 
Q 2503 -91 2169 -91 
Q 1331 -91 842 396 
Q 353 884 353 1716 
Q 353 2575 817 3079 
Q 1281 3584 2069 3584 
Q 2775 3584 3186 3129 
Q 3597 2675 3597 1894 
z
M 3022 2063 
Q 3016 2534 2758 2815 
Q 2500 3097 2075 3097 
Q 1594 3097 1305 2825 
Q 1016 2553 972 2059 
L 3022 2063 
z
" transform="scale(0.015625)"/>
      <path id="DejaVuSans-6e" d="M 3513 2113 
L 3513 0 
L 2938 0 
L 2938 2094 
Q 2938 2591 2744 2837 
Q 2550 3084 2163 3084 
Q 1697 3084 1428 2787 
Q 1159 2491 1159 1978 
L 1159 0 
L 581 0 
L 581 3500 
L 1159 3500 
L 1159 2956 
Q 1366 3272 1645 3428 
Q 1925 3584 2291 3584 
Q 2894 3584 3203 3211 
Q 3513 2838 3513 2113 
z
" transform="scale(0.015625)"/>
      <path id="DejaVuSans-73" d="M 2834 3397 
L 2834 2853 
Q 2591 2978 2328 3040 
Q 2066 3103 1784 3103 
Q 1356 3103 1142 2972 
Q 928 2841 928 2578 
Q 928 2378 1081 2264 
Q 1234 2150 1697 2047 
L 1894 2003 
Q 2506 1872 2764 1633 
Q 3022 1394 3022 966 
Q 3022 478 2636 193 
Q 2250 -91 1575 -91 
Q 1294 -91 989 -36 
Q 684 19 347 128 
L 347 722 
Q 666 556 975 473 
Q 1284 391 1588 391 
Q 1994 391 2212 530 
Q 2431 669 2431 922 
Q 2431 1156 2273 1281 
Q 2116 1406 1581 1522 
L 1381 1569 
Q 847 1681 609 1914 
Q 372 2147 372 2553 
Q 372 3047 722 3315 
Q 1072 3584 1716 3584 
Q 2034 3584 2315 3537 
Q 2597 3491 2834 3397 
z
" transform="scale(0.015625)"/>
      <path id="DejaVuSans-6f" d="M 1959 3097 
Q 1497 3097 1228 2736 
Q 959 2375 959 1747 
Q 959 1119 1226 758 
Q 1494 397 1959 397 
Q 2419 397 2687 759 
Q 2956 1122 2956 1747 
Q 2956 2369 2687 2733 
Q 2419 3097 1959 3097 
z
M 1959 3584 
Q 2709 3584 3137 3096 
Q 3566 2609 3566 1747 
Q 3566 888 3137 398 
Q 2709 -91 1959 -91 
Q 1206 -91 779 398 
Q 353 888 353 1747 
Q 353 2609 779 3096 
Q 1206 3584 1959 3584 
z
" transform="scale(0.015625)"/>
      <path id="DejaVuSans-61" d="M 2194 1759 
Q 1497 1759 1228 1600 
Q 959 1441 959 1056 
Q 959 750 1161 570 
Q 1363 391 1709 391 
Q 2188 391 2477 730 
Q 2766 1069 2766 1631 
L 2766 1759 
L 2194 1759 
z
M 3341 1997 
L 3341 0 
L 2766 0 
L 2766 531 
Q 2569 213 2275 61 
Q 1981 -91 1556 -91 
Q 1019 -91 701 211 
Q 384 513 384 1019 
Q 384 1609 779 1909 
Q 1175 2209 1959 2209 
L 2766 2209 
L 2766 2266 
Q 2766 2663 2505 2880 
Q 2244 3097 1772 3097 
Q 1472 3097 1187 3025 
Q 903 2953 641 2809 
L 641 3341 
Q 956 3463 1253 3523 
Q 1550 3584 1831 3584 
Q 2591 3584 2966 3190 
Q 3341 2797 3341 1997 
z
" transform="scale(0.015625)"/>
      <path id="DejaVuSans-6c" d="M 603 4863 
L 1178 4863 
L 1178 0 
L 603 0 
L 603 4863 
z
" transform="scale(0.015625)"/>
      <path id="DejaVuSans-74" d="M 1172 4494 
L 1172 3500 
L 2356 3500 
L 2356 3053 
L 1172 3053 
L 1172 1153 
Q 1172 725 1289 603 
Q 1406 481 1766 481 
L 2356 481 
L 2356 0 
L 1766 0 
Q 1100 0 847 248 
Q 594 497 594 1153 
L 594 3053 
L 172 3053 
L 172 3500 
L 594 3500 
L 594 4494 
L 1172 4494 
z
" transform="scale(0.015625)"/>
      <path id="DejaVuSans-79" d="M 2059 -325 
Q 1816 -950 1584 -1140 
Q 1353 -1331 966 -1331 
L 506 -1331 
L 506 -850 
L 844 -850 
Q 1081 -850 1212 -737 
Q 1344 -625 1503 -206 
L 1606 56 
L 191 3500 
L 800 3500 
L 1894 763 
L 2988 3500 
L 3597 3500 
L 2059 -325 
z
" transform="scale(0.015625)"/>
      <path id="DejaVuSans-20" transform="scale(0.015625)"/>
      <path id="DejaVuSans-72" d="M 2631 2963 
Q 2534 3019 2420 3045 
Q 2306 3072 2169 3072 
Q 1681 3072 1420 2755 
Q 1159 2438 1159 1844 
L 1159 0 
L 581 0 
L 581 3500 
L 1159 3500 
L 1159 2956 
Q 1341 3275 1631 3429 
Q 1922 3584 2338 3584 
Q 2397 3584 2469 3576 
Q 2541 3569 2628 3553 
L 2631 2963 
z
" transform="scale(0.015625)"/>
      <path id="DejaVuSans-75" d="M 544 1381 
L 544 3500 
L 1119 3500 
L 1119 1403 
Q 1119 906 1312 657 
Q 1506 409 1894 409 
Q 2359 409 2629 706 
Q 2900 1003 2900 1516 
L 2900 3500 
L 3475 3500 
L 3475 0 
L 2900 0 
L 2900 538 
Q 2691 219 2414 64 
Q 2138 -91 1772 -91 
Q 1169 -91 856 284 
Q 544 659 544 1381 
z
M 1991 3584 
L 1991 3584 
z
" transform="scale(0.015625)"/>
      <path id="DejaVuSans-63" d="M 3122 3366 
L 3122 2828 
Q 2878 2963 2633 3030 
Q 2388 3097 2138 3097 
Q 1578 3097 1268 2742 
Q 959 2388 959 1747 
Q 959 1106 1268 751 
Q 1578 397 2138 397 
Q 2388 397 2633 464 
Q 2878 531 3122 666 
L 3122 134 
Q 2881 22 2623 -34 
Q 2366 -91 2075 -91 
Q 1284 -91 818 406 
Q 353 903 353 1747 
Q 353 2603 823 3093 
Q 1294 3584 2113 3584 
Q 2378 3584 2631 3529 
Q 2884 3475 3122 3366 
z
" transform="scale(0.015625)"/>
     </defs>
     <use xlink:href="#DejaVuSans-64"/>
     <use xlink:href="#DejaVuSans-69" x="63.476562"/>
     <use xlink:href="#DejaVuSans-6d" x="91.259766"/>
     <use xlink:href="#DejaVuSans-65" x="188.671875"/>
     <use xlink:href="#DejaVuSans-6e" x="250.195312"/>
     <use xlink:href="#DejaVuSans-73" x="313.574219"/>
     <use xlink:href="#DejaVuSans-69" x="365.673828"/>
     <use xlink:href="#DejaVuSans-6f" x="393.457031"/>
     <use xlink:href="#DejaVuSans-6e" x="454.638672"/>
     <use xlink:href="#DejaVuSans-61" x="518.017578"/>
     <use xlink:href="#DejaVuSans-6c" x="579.296875"/>
     <use xlink:href="#DejaVuSans-69" x="607.080078"/>
     <use xlink:href="#DejaVuSans-74" x="634.863281"/>
     <use xlink:href="#DejaVuSans-79" x="674.072266"/>
     <use xlink:href="#DejaVuSans-20" x="733.251953"/>
     <use xlink:href="#DejaVuSans-72" x="765.039062"/>
     <use xlink:href="#DejaVuSans-65" x="803.902344"/>
     <use xlink:href="#DejaVuSans-64" x="865.425781"/>
     <use xlink:href="#DejaVuSans-75" x="928.902344"/>
     <use xlink:href="#DejaVuSans-63" x="992.28125"/>
     <use xlink:href="#DejaVuSans-74" x="1047.261719"/>
     <use xlink:href="#DejaVuSans-69" x="1086.470703"/>
     <use xlink:href="#DejaVuSans-6f" x="1114.253906"/>
     <use xlink:href="#DejaVuSans-6e" x="1175.435547"/>
    </g>
   </g>
   <g id="legend_1">
    <g id="patch_7">
     <path d="M 49.742188 59.674375 
L 131.679688 59.674375 
Q 133.679688 59.674375 133.679688 57.674375 
L 133.679688 29.318125 
Q 133.679688 27.318125 131.679688 27.318125 
L 49.742188 27.318125 
Q 47.742188 27.318125 47.742188 29.318125 
L 47.742188 57.674375 
Q 47.742188 59.674375 49.742188 59.674375 
L 49.742188 59.674375 
z
" style="fill: none; opacity: 0.8; stroke: #cccccc; stroke-linejoin: miter"/>
    </g>
    <g id="PathCollection_3">
     <g>
      <use xlink:href="#me0afaaf975" x="61.742188" y="36.291562" style="fill: #8dd3c7; stroke: #8dd3c7"/>
     </g>
    </g>
    <g id="text_15">
     <!-- data -->
     <g style="fill: #ffffff" transform="translate(79.742188 38.916562)scale(0.1 -0.1)">
      <use xlink:href="#DejaVuSans-64"/>
      <use xlink:href="#DejaVuSans-61" x="63.476562"/>
      <use xlink:href="#DejaVuSans-74" x="124.755859"/>
      <use xlink:href="#DejaVuSans-61" x="163.964844"/>
     </g>
    </g>
    <g id="PathCollection_4">
     <g>
      <use xlink:href="#mb0e0ee2a94" x="61.742188" y="50.969687" style="fill: #feffb3; stroke: #feffb3"/>
     </g>
    </g>
    <g id="text_16">
     <!-- projection -->
     <g style="fill: #ffffff" transform="translate(79.742188 53.594687)scale(0.1 -0.1)">
      <defs>
       <path id="DejaVuSans-70" d="M 1159 525 
L 1159 -1331 
L 581 -1331 
L 581 3500 
L 1159 3500 
L 1159 2969 
Q 1341 3281 1617 3432 
Q 1894 3584 2278 3584 
Q 2916 3584 3314 3078 
Q 3713 2572 3713 1747 
Q 3713 922 3314 415 
Q 2916 -91 2278 -91 
Q 1894 -91 1617 61 
Q 1341 213 1159 525 
z
M 3116 1747 
Q 3116 2381 2855 2742 
Q 2594 3103 2138 3103 
Q 1681 3103 1420 2742 
Q 1159 2381 1159 1747 
Q 1159 1113 1420 752 
Q 1681 391 2138 391 
Q 2594 391 2855 752 
Q 3116 1113 3116 1747 
z
" transform="scale(0.015625)"/>
       <path id="DejaVuSans-6a" d="M 603 3500 
L 1178 3500 
L 1178 -63 
Q 1178 -731 923 -1031 
Q 669 -1331 103 -1331 
L -116 -1331 
L -116 -844 
L 38 -844 
Q 366 -844 484 -692 
Q 603 -541 603 -63 
L 603 3500 
z
M 603 4863 
L 1178 4863 
L 1178 4134 
L 603 4134 
L 603 4863 
z
" transform="scale(0.015625)"/>
      </defs>
      <use xlink:href="#DejaVuSans-70"/>
      <use xlink:href="#DejaVuSans-72" x="63.476562"/>
      <use xlink:href="#DejaVuSans-6f" x="102.339844"/>
      <use xlink:href="#DejaVuSans-6a" x="163.521484"/>
      <use xlink:href="#DejaVuSans-65" x="191.304688"/>
      <use xlink:href="#DejaVuSans-63" x="252.828125"/>
      <use xlink:href="#DejaVuSans-74" x="307.808594"/>
      <use xlink:href="#DejaVuSans-69" x="347.017578"/>
      <use xlink:href="#DejaVuSans-6f" x="374.800781"/>
      <use xlink:href="#DejaVuSans-6e" x="435.982422"/>
     </g>
    </g>
   </g>
   <g id="Quiver_1">
    <path d="M 107.016359 120.82049 
L 181.883153 45.521795 
L 180.550223 45.08174 
L 186.311784 41.957952 
L 183.22119 47.737387 
L 182.773476 46.40701 
L 107.906681 121.705706 
L 107.016359 120.82049 
" clip-path="url(#p3890b51e9b)" style="fill: #fa8174"/>
   </g>
   <g id="Quiver_2">
    <path d="M 107.906681 121.705706 
L 29.056417 201.010852 
L 29.946739 201.896067 
L 28.611256 200.568244 
L 27.275772 199.240421 
L 28.166095 200.125636 
L 107.016359 120.82049 
L 107.906681 121.705706 
" clip-path="url(#p3890b51e9b)" style="fill: #fa8174"/>
   </g>
   <g id="Quiver_3">
    <path d="M 107.018912 121.708259 
L 94.185162 108.948122 
L 93.745108 110.281052 
L 90.62132 104.519491 
L 96.400755 107.610085 
L 95.070378 108.057799 
L 107.904128 120.817937 
L 107.018912 121.708259 
" clip-path="url(#p3890b51e9b)" style="fill: #fa8174"/>
   </g>
   <g id="Quiver_4">
    <path d="M 107.904128 120.817937 
L 124.744328 137.561544 
L 125.629543 136.671222 
L 124.30172 138.006706 
L 122.973897 139.342189 
L 123.859112 138.451867 
L 107.018912 121.708259 
L 107.904128 120.817937 
" clip-path="url(#p3890b51e9b)" style="fill: #fa8174"/>
   </g>
  </g>
 </g>
 <defs>
  <clipPath id="p3890b51e9b">
   <rect x="42.742188" y="22.318125" width="167.4" height="166.32"/>
  </clipPath>
 </defs>
</svg>
