<?xml version="1.0" encoding="utf-8" standalone="no"?>
<!DOCTYPE svg PUBLIC "-//W3C//DTD SVG 1.1//EN"
  "http://www.w3.org/Graphics/SVG/1.1/DTD/svg11.dtd">
<svg xmlns:xlink="http://www.w3.org/1999/xlink" width="377.1pt" height="159.06975pt" viewBox="0 0 377.1 159.06975" xmlns="http://www.w3.org/2000/svg" version="1.1">
 <metadata>
  <rdf:RDF xmlns:dc="http://purl.org/dc/elements/1.1/" xmlns:cc="http://creativecommons.org/ns#" xmlns:rdf="http://www.w3.org/1999/02/22-rdf-syntax-ns#">
   <cc:Work>
    <dc:type rdf:resource="http://purl.org/dc/dcmitype/StillImage"/>
    <dc:date>2024-07-25T17:07:59.675917</dc:date>
    <dc:format>image/svg+xml</dc:format>
    <dc:creator>
     <cc:Agent>
      <dc:title>Matplotlib v3.5.1, https://matplotlib.org/</dc:title>
     </cc:Agent>
    </dc:creator>
   </cc:Work>
  </rdf:RDF>
 </metadata>
 <defs>
  <style type="text/css">*{stroke-linejoin: round; stroke-linecap: butt}</style>
 </defs>
 <g id="figure_1">
  <g id="patch_1">
   <path d="M 0 159.06975 
L 377.1 159.06975 
L 377.1 0 
L 0 0 
L 0 159.06975 
z
" style="fill: none"/>
  </g>
  <g id="axes_1">
   <g id="patch_2">
    <path d="M 12.78 145.231275 
L 113.22 145.231275 
Q 117.963 145.231275 117.963 140.518875 
L 117.963 40.726875 
Q 117.963 36.014475 113.22 36.014475 
L 12.78 36.014475 
Q 8.037 36.014475 8.037 40.726875 
L 8.037 140.518875 
Q 8.037 145.231275 12.78 145.231275 
z
" clip-path="url(#p7284beadb6)" style="fill: #8dd3c7; stroke-dasharray: 7.4,3.2; stroke-dashoffset: 0; stroke: #ffffff; stroke-width: 2; stroke-linejoin: miter"/>
   </g>
   <g id="patch_3">
    <path d="M 263.88 145.231275 
L 364.32 145.231275 
Q 369.063 145.231275 369.063 140.518875 
L 369.063 40.726875 
Q 369.063 36.014475 364.32 36.014475 
L 263.88 36.014475 
Q 259.137 36.014475 259.137 40.726875 
L 259.137 140.518875 
Q 259.137 145.231275 263.88 145.231275 
z
" clip-path="url(#p7284beadb6)" style="fill: #feffb3; stroke-dasharray: 7.4,3.2; stroke-dashoffset: 0; stroke: #ffffff; stroke-width: 2; stroke-linejoin: miter"/>
   </g>
   <g id="patch_4">
    <path d="M 256.289729 46.12929 
Q 192.478699 33.726177 128.667849 44.690571 
L 129.048875 46.908074 
Q 124.931419 46.347092 120.760143 45.884355 
Q 124.454237 43.892751 128.202151 41.98029 
L 128.583177 44.197793 
Q 192.484243 33.217897 256.38513 45.638476 
L 256.289729 46.12929 
z
" clip-path="url(#p7284beadb6)" style="fill: #ffffff; stroke: #ffffff; stroke-linecap: round"/>
   </g>
   <g id="patch_5">
    <path d="M 120.810271 63.04446 
Q 184.621301 75.447573 248.432151 64.483179 
L 248.051125 62.265676 
Q 252.168581 62.826658 256.339857 63.289395 
Q 252.645763 65.280999 248.897849 67.19346 
L 248.516823 64.975957 
Q 184.615757 75.955853 120.71487 63.535274 
L 120.810271 63.04446 
z
" clip-path="url(#p7284beadb6)" style="fill: #ffffff; stroke: #ffffff; stroke-linecap: round"/>
   </g>
   <g id="patch_6">
    <path d="M 256.289729 112.65729 
Q 192.478699 100.254177 128.667849 111.218571 
L 129.048875 113.436074 
Q 124.931419 112.875092 120.760143 112.412355 
Q 124.454237 110.420751 128.202151 108.50829 
L 128.583177 110.725793 
Q 192.484243 99.745897 256.38513 112.166476 
L 256.289729 112.65729 
z
" clip-path="url(#p7284beadb6)" style="fill: #ffffff; stroke: #ffffff; stroke-linecap: round"/>
   </g>
   <g id="patch_7">
    <path d="M 120.810271 129.57246 
Q 184.621301 141.975573 248.432151 131.011179 
L 248.051125 128.793676 
Q 252.168581 129.354658 256.339857 129.817395 
Q 252.645763 131.808999 248.897849 133.72146 
L 248.516823 131.503957 
Q 184.615757 142.483853 120.71487 130.063274 
L 120.810271 129.57246 
z
" clip-path="url(#p7284beadb6)" style="fill: #ffffff; stroke: #ffffff; stroke-linecap: round"/>
   </g>
   <g id="line2d_1">
    <path d="M 12.78 72.142875 
L 113.22 72.142875 
" clip-path="url(#p7284beadb6)" style="fill: none; stroke-dasharray: 7.4,3.2; stroke-dashoffset: 0; stroke: #ffffff; stroke-width: 2"/>
   </g>
   <g id="line2d_2">
    <path d="M 12.78 109.102875 
L 113.22 109.102875 
" clip-path="url(#p7284beadb6)" style="fill: none; stroke-dasharray: 7.4,3.2; stroke-dashoffset: 0; stroke: #ffffff; stroke-width: 2"/>
   </g>
   <g id="line2d_3">
    <path d="M 263.88 72.142875 
L 364.32 72.142875 
" clip-path="url(#p7284beadb6)" style="fill: none; stroke-dasharray: 7.4,3.2; stroke-dashoffset: 0; stroke: #ffffff; stroke-width: 2"/>
   </g>
   <g id="line2d_4">
    <path d="M 263.88 109.102875 
L 364.32 109.102875 
" clip-path="url(#p7284beadb6)" style="fill: none; stroke-dasharray: 7.4,3.2; stroke-dashoffset: 0; stroke: #ffffff; stroke-width: 2"/>
   </g>
   <g id="text_1">
    <!-- $S_n$ -->
    <g style="fill: #ffffff" transform="translate(181.89 32.950125)scale(0.12 -0.12)">
     <defs>
      <path id="DejaVuSans-Oblique-53" d="M 3859 4513 
L 3738 3897 
Q 3422 4066 3111 4152 
Q 2800 4238 2509 4238 
Q 1944 4238 1609 3991 
Q 1275 3744 1275 3334 
Q 1275 3109 1398 2989 
Q 1522 2869 2034 2731 
L 2413 2638 
Q 3053 2472 3303 2217 
Q 3553 1963 3553 1503 
Q 3553 797 2998 353 
Q 2444 -91 1538 -91 
Q 1166 -91 791 -17 
Q 416 56 38 206 
L 166 856 
Q 513 641 861 531 
Q 1209 422 1556 422 
Q 2147 422 2503 684 
Q 2859 947 2859 1369 
Q 2859 1650 2717 1795 
Q 2575 1941 2106 2059 
L 1728 2156 
Q 1081 2325 845 2545 
Q 609 2766 609 3163 
Q 609 3859 1145 4304 
Q 1681 4750 2541 4750 
Q 2875 4750 3203 4690 
Q 3531 4631 3859 4513 
z
" transform="scale(0.015625)"/>
      <path id="DejaVuSans-Oblique-6e" d="M 3566 2113 
L 3156 0 
L 2578 0 
L 2988 2091 
Q 3016 2238 3031 2350 
Q 3047 2463 3047 2528 
Q 3047 2791 2881 2937 
Q 2716 3084 2419 3084 
Q 1956 3084 1622 2776 
Q 1288 2469 1184 1941 
L 800 0 
L 225 0 
L 903 3500 
L 1478 3500 
L 1363 2950 
Q 1603 3253 1940 3418 
Q 2278 3584 2650 3584 
Q 3113 3584 3367 3334 
Q 3622 3084 3622 2631 
Q 3622 2519 3608 2391 
Q 3594 2263 3566 2113 
z
" transform="scale(0.015625)"/>
     </defs>
     <use xlink:href="#DejaVuSans-Oblique-53" transform="translate(0 0.78125)"/>
     <use xlink:href="#DejaVuSans-Oblique-6e" transform="translate(63.476562 -15.625)scale(0.7)"/>
    </g>
   </g>
   <g id="text_2">
    <!-- step $n$ -->
    <g style="fill: #ffffff" transform="translate(169.83 57.87375)scale(0.12 -0.12)">
     <defs>
      <path id="DejaVuSans-73" d="M 2834 3397 
L 2834 2853 
Q 2591 2978 2328 3040 
Q 2066 3103 1784 3103 
Q 1356 3103 1142 2972 
Q 928 2841 928 2578 
Q 928 2378 1081 2264 
Q 1234 2150 1697 2047 
L 1894 2003 
Q 2506 1872 2764 1633 
Q 3022 1394 3022 966 
Q 3022 478 2636 193 
Q 2250 -91 1575 -91 
Q 1294 -91 989 -36 
Q 684 19 347 128 
L 347 722 
Q 666 556 975 473 
Q 1284 391 1588 391 
Q 1994 391 2212 530 
Q 2431 669 2431 922 
Q 2431 1156 2273 1281 
Q 2116 1406 1581 1522 
L 1381 1569 
Q 847 1681 609 1914 
Q 372 2147 372 2553 
Q 372 3047 722 3315 
Q 1072 3584 1716 3584 
Q 2034 3584 2315 3537 
Q 2597 3491 2834 3397 
z
" transform="scale(0.015625)"/>
      <path id="DejaVuSans-74" d="M 1172 4494 
L 1172 3500 
L 2356 3500 
L 2356 3053 
L 1172 3053 
L 1172 1153 
Q 1172 725 1289 603 
Q 1406 481 1766 481 
L 2356 481 
L 2356 0 
L 1766 0 
Q 1100 0 847 248 
Q 594 497 594 1153 
L 594 3053 
L 172 3053 
L 172 3500 
L 594 3500 
L 594 4494 
L 1172 4494 
z
" transform="scale(0.015625)"/>
      <path id="DejaVuSans-65" d="M 3597 1894 
L 3597 1613 
L 953 1613 
Q 991 1019 1311 708 
Q 1631 397 2203 397 
Q 2534 397 2845 478 
Q 3156 559 3463 722 
L 3463 178 
Q 3153 47 2828 -22 
Q 2503 -91 2169 -91 
Q 1331 -91 842 396 
Q 353 884 353 1716 
Q 353 2575 817 3079 
Q 1281 3584 2069 3584 
Q 2775 3584 3186 3129 
Q 3597 2675 3597 1894 
z
M 3022 2063 
Q 3016 2534 2758 2815 
Q 2500 3097 2075 3097 
Q 1594 3097 1305 2825 
Q 1016 2553 972 2059 
L 3022 2063 
z
" transform="scale(0.015625)"/>
      <path id="DejaVuSans-70" d="M 1159 525 
L 1159 -1331 
L 581 -1331 
L 581 3500 
L 1159 3500 
L 1159 2969 
Q 1341 3281 1617 3432 
Q 1894 3584 2278 3584 
Q 2916 3584 3314 3078 
Q 3713 2572 3713 1747 
Q 3713 922 3314 415 
Q 2916 -91 2278 -91 
Q 1894 -91 1617 61 
Q 1341 213 1159 525 
z
M 3116 1747 
Q 3116 2381 2855 2742 
Q 2594 3103 2138 3103 
Q 1681 3103 1420 2742 
Q 1159 2381 1159 1747 
Q 1159 1113 1420 752 
Q 1681 391 2138 391 
Q 2594 391 2855 752 
Q 3116 1113 3116 1747 
z
" transform="scale(0.015625)"/>
      <path id="DejaVuSans-20" transform="scale(0.015625)"/>
     </defs>
     <use xlink:href="#DejaVuSans-73" transform="translate(0 0.78125)"/>
     <use xlink:href="#DejaVuSans-74" transform="translate(52.099609 0.78125)"/>
     <use xlink:href="#DejaVuSans-65" transform="translate(91.308594 0.78125)"/>
     <use xlink:href="#DejaVuSans-70" transform="translate(152.832031 0.78125)"/>
     <use xlink:href="#DejaVuSans-20" transform="translate(216.308594 0.78125)"/>
     <use xlink:href="#DejaVuSans-Oblique-6e" transform="translate(248.095703 0.78125)"/>
    </g>
   </g>
   <g id="text_3">
    <!-- $A_n$ -->
    <g style="fill: #ffffff" transform="translate(181.59 82.846125)scale(0.12 -0.12)">
     <defs>
      <path id="DejaVuSans-Oblique-41" d="M 2356 4666 
L 3072 4666 
L 3938 0 
L 3278 0 
L 3084 1197 
L 984 1197 
L 325 0 
L -341 0 
L 2356 4666 
z
M 2584 4044 
L 1275 1722 
L 2988 1722 
L 2584 4044 
z
" transform="scale(0.015625)"/>
     </defs>
     <use xlink:href="#DejaVuSans-Oblique-41" transform="translate(0 0.09375)"/>
     <use xlink:href="#DejaVuSans-Oblique-6e" transform="translate(68.408203 -16.3125)scale(0.7)"/>
    </g>
   </g>
   <g id="text_4">
    <!-- $S_{n+1}$, $R_{n+1}$ -->
    <g style="fill: #ffffff" transform="translate(155.43 99.478125)scale(0.12 -0.12)">
     <defs>
      <path id="DejaVuSans-2b" d="M 2944 4013 
L 2944 2272 
L 4684 2272 
L 4684 1741 
L 2944 1741 
L 2944 0 
L 2419 0 
L 2419 1741 
L 678 1741 
L 678 2272 
L 2419 2272 
L 2419 4013 
L 2944 4013 
z
" transform="scale(0.015625)"/>
      <path id="DejaVuSans-31" d="M 794 531 
L 1825 531 
L 1825 4091 
L 703 3866 
L 703 4441 
L 1819 4666 
L 2450 4666 
L 2450 531 
L 3481 531 
L 3481 0 
L 794 0 
L 794 531 
z
" transform="scale(0.015625)"/>
      <path id="DejaVuSans-2c" d="M 750 794 
L 1409 794 
L 1409 256 
L 897 -744 
L 494 -744 
L 750 256 
L 750 794 
z
" transform="scale(0.015625)"/>
      <path id="DejaVuSans-Oblique-52" d="M 1613 4147 
L 1294 2491 
L 2106 2491 
Q 2584 2491 2879 2755 
Q 3175 3019 3175 3444 
Q 3175 3784 2976 3965 
Q 2778 4147 2406 4147 
L 1613 4147 
z
M 2772 2241 
Q 2972 2194 3105 2009 
Q 3238 1825 3413 1275 
L 3809 0 
L 3144 0 
L 2778 1197 
Q 2638 1659 2453 1815 
Q 2269 1972 1888 1972 
L 1191 1972 
L 806 0 
L 172 0 
L 1081 4666 
L 2503 4666 
Q 3150 4666 3495 4373 
Q 3841 4081 3841 3531 
Q 3841 3044 3547 2687 
Q 3253 2331 2772 2241 
z
" transform="scale(0.015625)"/>
     </defs>
     <use xlink:href="#DejaVuSans-Oblique-53" transform="translate(0 0.78125)"/>
     <use xlink:href="#DejaVuSans-Oblique-6e" transform="translate(63.476562 -15.625)scale(0.7)"/>
     <use xlink:href="#DejaVuSans-2b" transform="translate(121.479492 -15.625)scale(0.7)"/>
     <use xlink:href="#DejaVuSans-31" transform="translate(193.769531 -15.625)scale(0.7)"/>
     <use xlink:href="#DejaVuSans-2c" transform="translate(241.040039 0.78125)"/>
     <use xlink:href="#DejaVuSans-20" transform="translate(272.827148 0.78125)"/>
     <use xlink:href="#DejaVuSans-Oblique-52" transform="translate(304.614258 0.78125)"/>
     <use xlink:href="#DejaVuSans-Oblique-6e" transform="translate(374.09668 -15.625)scale(0.7)"/>
     <use xlink:href="#DejaVuSans-2b" transform="translate(432.099609 -15.625)scale(0.7)"/>
     <use xlink:href="#DejaVuSans-31" transform="translate(504.389648 -15.625)scale(0.7)"/>
    </g>
   </g>
   <g id="text_5">
    <!-- step $n+1$ -->
    <g style="fill: #ffffff" transform="translate(158.67 124.40175)scale(0.12 -0.12)">
     <use xlink:href="#DejaVuSans-73" transform="translate(0 0.09375)"/>
     <use xlink:href="#DejaVuSans-74" transform="translate(52.099609 0.09375)"/>
     <use xlink:href="#DejaVuSans-65" transform="translate(91.308594 0.09375)"/>
     <use xlink:href="#DejaVuSans-70" transform="translate(152.832031 0.09375)"/>
     <use xlink:href="#DejaVuSans-20" transform="translate(216.308594 0.09375)"/>
     <use xlink:href="#DejaVuSans-Oblique-6e" transform="translate(248.095703 0.09375)"/>
     <use xlink:href="#DejaVuSans-2b" transform="translate(330.957031 0.09375)"/>
     <use xlink:href="#DejaVuSans-31" transform="translate(434.228516 0.09375)"/>
    </g>
   </g>
   <g id="text_6">
    <!-- ... -->
    <g style="fill: #ffffff" transform="translate(182.829375 149.374125)scale(0.12 -0.12)">
     <defs>
      <path id="DejaVuSans-2e" d="M 684 794 
L 1344 794 
L 1344 0 
L 684 0 
L 684 794 
z
" transform="scale(0.015625)"/>
     </defs>
     <use xlink:href="#DejaVuSans-2e"/>
     <use xlink:href="#DejaVuSans-2e" x="31.787109"/>
     <use xlink:href="#DejaVuSans-2e" x="63.574219"/>
    </g>
   </g>
   <g id="text_7">
    <!-- agent -->
    <g style="fill: #8dd3c7" transform="translate(45.6675 27.406125)scale(0.12 -0.12)">
     <defs>
      <path id="DejaVuSans-61" d="M 2194 1759 
Q 1497 1759 1228 1600 
Q 959 1441 959 1056 
Q 959 750 1161 570 
Q 1363 391 1709 391 
Q 2188 391 2477 730 
Q 2766 1069 2766 1631 
L 2766 1759 
L 2194 1759 
z
M 3341 1997 
L 3341 0 
L 2766 0 
L 2766 531 
Q 2569 213 2275 61 
Q 1981 -91 1556 -91 
Q 1019 -91 701 211 
Q 384 513 384 1019 
Q 384 1609 779 1909 
Q 1175 2209 1959 2209 
L 2766 2209 
L 2766 2266 
Q 2766 2663 2505 2880 
Q 2244 3097 1772 3097 
Q 1472 3097 1187 3025 
Q 903 2953 641 2809 
L 641 3341 
Q 956 3463 1253 3523 
Q 1550 3584 1831 3584 
Q 2591 3584 2966 3190 
Q 3341 2797 3341 1997 
z
" transform="scale(0.015625)"/>
      <path id="DejaVuSans-67" d="M 2906 1791 
Q 2906 2416 2648 2759 
Q 2391 3103 1925 3103 
Q 1463 3103 1205 2759 
Q 947 2416 947 1791 
Q 947 1169 1205 825 
Q 1463 481 1925 481 
Q 2391 481 2648 825 
Q 2906 1169 2906 1791 
z
M 3481 434 
Q 3481 -459 3084 -895 
Q 2688 -1331 1869 -1331 
Q 1566 -1331 1297 -1286 
Q 1028 -1241 775 -1147 
L 775 -588 
Q 1028 -725 1275 -790 
Q 1522 -856 1778 -856 
Q 2344 -856 2625 -561 
Q 2906 -266 2906 331 
L 2906 616 
Q 2728 306 2450 153 
Q 2172 0 1784 0 
Q 1141 0 747 490 
Q 353 981 353 1791 
Q 353 2603 747 3093 
Q 1141 3584 1784 3584 
Q 2172 3584 2450 3431 
Q 2728 3278 2906 2969 
L 2906 3500 
L 3481 3500 
L 3481 434 
z
" transform="scale(0.015625)"/>
      <path id="DejaVuSans-6e" d="M 3513 2113 
L 3513 0 
L 2938 0 
L 2938 2094 
Q 2938 2591 2744 2837 
Q 2550 3084 2163 3084 
Q 1697 3084 1428 2787 
Q 1159 2491 1159 1978 
L 1159 0 
L 581 0 
L 581 3500 
L 1159 3500 
L 1159 2956 
Q 1366 3272 1645 3428 
Q 1925 3584 2291 3584 
Q 2894 3584 3203 3211 
Q 3513 2838 3513 2113 
z
" transform="scale(0.015625)"/>
     </defs>
     <use xlink:href="#DejaVuSans-61"/>
     <use xlink:href="#DejaVuSans-67" x="61.279297"/>
     <use xlink:href="#DejaVuSans-65" x="124.755859"/>
     <use xlink:href="#DejaVuSans-6e" x="186.279297"/>
     <use xlink:href="#DejaVuSans-74" x="249.658203"/>
    </g>
   </g>
   <g id="text_8">
    <!-- environment -->
    <g style="fill: #feffb3" transform="translate(275.89125 27.406125)scale(0.12 -0.12)">
     <defs>
      <path id="DejaVuSans-76" d="M 191 3500 
L 800 3500 
L 1894 563 
L 2988 3500 
L 3597 3500 
L 2284 0 
L 1503 0 
L 191 3500 
z
" transform="scale(0.015625)"/>
      <path id="DejaVuSans-69" d="M 603 3500 
L 1178 3500 
L 1178 0 
L 603 0 
L 603 3500 
z
M 603 4863 
L 1178 4863 
L 1178 4134 
L 603 4134 
L 603 4863 
z
" transform="scale(0.015625)"/>
      <path id="DejaVuSans-72" d="M 2631 2963 
Q 2534 3019 2420 3045 
Q 2306 3072 2169 3072 
Q 1681 3072 1420 2755 
Q 1159 2438 1159 1844 
L 1159 0 
L 581 0 
L 581 3500 
L 1159 3500 
L 1159 2956 
Q 1341 3275 1631 3429 
Q 1922 3584 2338 3584 
Q 2397 3584 2469 3576 
Q 2541 3569 2628 3553 
L 2631 2963 
z
" transform="scale(0.015625)"/>
      <path id="DejaVuSans-6f" d="M 1959 3097 
Q 1497 3097 1228 2736 
Q 959 2375 959 1747 
Q 959 1119 1226 758 
Q 1494 397 1959 397 
Q 2419 397 2687 759 
Q 2956 1122 2956 1747 
Q 2956 2369 2687 2733 
Q 2419 3097 1959 3097 
z
M 1959 3584 
Q 2709 3584 3137 3096 
Q 3566 2609 3566 1747 
Q 3566 888 3137 398 
Q 2709 -91 1959 -91 
Q 1206 -91 779 398 
Q 353 888 353 1747 
Q 353 2609 779 3096 
Q 1206 3584 1959 3584 
z
" transform="scale(0.015625)"/>
      <path id="DejaVuSans-6d" d="M 3328 2828 
Q 3544 3216 3844 3400 
Q 4144 3584 4550 3584 
Q 5097 3584 5394 3201 
Q 5691 2819 5691 2113 
L 5691 0 
L 5113 0 
L 5113 2094 
Q 5113 2597 4934 2840 
Q 4756 3084 4391 3084 
Q 3944 3084 3684 2787 
Q 3425 2491 3425 1978 
L 3425 0 
L 2847 0 
L 2847 2094 
Q 2847 2600 2669 2842 
Q 2491 3084 2119 3084 
Q 1678 3084 1418 2786 
Q 1159 2488 1159 1978 
L 1159 0 
L 581 0 
L 581 3500 
L 1159 3500 
L 1159 2956 
Q 1356 3278 1631 3431 
Q 1906 3584 2284 3584 
Q 2666 3584 2933 3390 
Q 3200 3197 3328 2828 
z
" transform="scale(0.015625)"/>
     </defs>
     <use xlink:href="#DejaVuSans-65"/>
     <use xlink:href="#DejaVuSans-6e" x="61.523438"/>
     <use xlink:href="#DejaVuSans-76" x="124.902344"/>
     <use xlink:href="#DejaVuSans-69" x="184.082031"/>
     <use xlink:href="#DejaVuSans-72" x="211.865234"/>
     <use xlink:href="#DejaVuSans-6f" x="250.728516"/>
     <use xlink:href="#DejaVuSans-6e" x="311.910156"/>
     <use xlink:href="#DejaVuSans-6d" x="375.289062"/>
     <use xlink:href="#DejaVuSans-65" x="472.701172"/>
     <use xlink:href="#DejaVuSans-6e" x="534.224609"/>
     <use xlink:href="#DejaVuSans-74" x="597.603516"/>
    </g>
   </g>
   <g id="text_9">
    <!-- reinforcement learning -->
    <g style="fill: #ffffff" transform="translate(119.875313 16.318125)scale(0.12 -0.12)">
     <defs>
      <path id="DejaVuSans-66" d="M 2375 4863 
L 2375 4384 
L 1825 4384 
Q 1516 4384 1395 4259 
Q 1275 4134 1275 3809 
L 1275 3500 
L 2222 3500 
L 2222 3053 
L 1275 3053 
L 1275 0 
L 697 0 
L 697 3053 
L 147 3053 
L 147 3500 
L 697 3500 
L 697 3744 
Q 697 4328 969 4595 
Q 1241 4863 1831 4863 
L 2375 4863 
z
" transform="scale(0.015625)"/>
      <path id="DejaVuSans-63" d="M 3122 3366 
L 3122 2828 
Q 2878 2963 2633 3030 
Q 2388 3097 2138 3097 
Q 1578 3097 1268 2742 
Q 959 2388 959 1747 
Q 959 1106 1268 751 
Q 1578 397 2138 397 
Q 2388 397 2633 464 
Q 2878 531 3122 666 
L 3122 134 
Q 2881 22 2623 -34 
Q 2366 -91 2075 -91 
Q 1284 -91 818 406 
Q 353 903 353 1747 
Q 353 2603 823 3093 
Q 1294 3584 2113 3584 
Q 2378 3584 2631 3529 
Q 2884 3475 3122 3366 
z
" transform="scale(0.015625)"/>
      <path id="DejaVuSans-6c" d="M 603 4863 
L 1178 4863 
L 1178 0 
L 603 0 
L 603 4863 
z
" transform="scale(0.015625)"/>
     </defs>
     <use xlink:href="#DejaVuSans-72"/>
     <use xlink:href="#DejaVuSans-65" x="38.863281"/>
     <use xlink:href="#DejaVuSans-69" x="100.386719"/>
     <use xlink:href="#DejaVuSans-6e" x="128.169922"/>
     <use xlink:href="#DejaVuSans-66" x="191.548828"/>
     <use xlink:href="#DejaVuSans-6f" x="226.753906"/>
     <use xlink:href="#DejaVuSans-72" x="287.935547"/>
     <use xlink:href="#DejaVuSans-63" x="326.798828"/>
     <use xlink:href="#DejaVuSans-65" x="381.779297"/>
     <use xlink:href="#DejaVuSans-6d" x="443.302734"/>
     <use xlink:href="#DejaVuSans-65" x="540.714844"/>
     <use xlink:href="#DejaVuSans-6e" x="602.238281"/>
     <use xlink:href="#DejaVuSans-74" x="665.617188"/>
     <use xlink:href="#DejaVuSans-20" x="704.826172"/>
     <use xlink:href="#DejaVuSans-6c" x="736.613281"/>
     <use xlink:href="#DejaVuSans-65" x="764.396484"/>
     <use xlink:href="#DejaVuSans-61" x="825.919922"/>
     <use xlink:href="#DejaVuSans-72" x="887.199219"/>
     <use xlink:href="#DejaVuSans-6e" x="926.5625"/>
     <use xlink:href="#DejaVuSans-69" x="989.941406"/>
     <use xlink:href="#DejaVuSans-6e" x="1017.724609"/>
     <use xlink:href="#DejaVuSans-67" x="1081.103516"/>
    </g>
   </g>
   <g id="text_10">
    <!-- action -->
    <g style="fill: #fa8174" transform="translate(44.53125 50.814125)scale(0.12 -0.12)">
     <use xlink:href="#DejaVuSans-61"/>
     <use xlink:href="#DejaVuSans-63" x="61.279297"/>
     <use xlink:href="#DejaVuSans-74" x="116.259766"/>
     <use xlink:href="#DejaVuSans-69" x="155.46875"/>
     <use xlink:href="#DejaVuSans-6f" x="183.251953"/>
     <use xlink:href="#DejaVuSans-6e" x="244.433594"/>
    </g>
   </g>
   <g id="text_11">
    <!-- $a$ -->
    <g style="fill: #fa8174" transform="translate(59.28 63.134125)scale(0.12 -0.12)">
     <defs>
      <path id="DejaVuSans-Oblique-61" d="M 3438 1997 
L 3047 0 
L 2472 0 
L 2578 531 
Q 2325 219 2001 64 
Q 1678 -91 1281 -91 
Q 834 -91 548 182 
Q 263 456 263 884 
Q 263 1497 752 1853 
Q 1241 2209 2100 2209 
L 2900 2209 
L 2931 2363 
Q 2938 2388 2941 2417 
Q 2944 2447 2944 2509 
Q 2944 2788 2717 2942 
Q 2491 3097 2081 3097 
Q 1800 3097 1504 3025 
Q 1209 2953 897 2809 
L 997 3341 
Q 1322 3463 1633 3523 
Q 1944 3584 2234 3584 
Q 2853 3584 3176 3315 
Q 3500 3047 3500 2534 
Q 3500 2431 3484 2292 
Q 3469 2153 3438 1997 
z
M 2816 1759 
L 2241 1759 
Q 1534 1759 1195 1570 
Q 856 1381 856 984 
Q 856 709 1029 553 
Q 1203 397 1509 397 
Q 1978 397 2328 733 
Q 2678 1069 2791 1631 
L 2816 1759 
z
" transform="scale(0.015625)"/>
     </defs>
     <use xlink:href="#DejaVuSans-Oblique-61"/>
    </g>
   </g>
   <g id="text_12">
    <!-- policy -->
    <g style="fill: #fa8174" transform="translate(45.335625 87.774125)scale(0.12 -0.12)">
     <defs>
      <path id="DejaVuSans-79" d="M 2059 -325 
Q 1816 -950 1584 -1140 
Q 1353 -1331 966 -1331 
L 506 -1331 
L 506 -850 
L 844 -850 
Q 1081 -850 1212 -737 
Q 1344 -625 1503 -206 
L 1606 56 
L 191 3500 
L 800 3500 
L 1894 763 
L 2988 3500 
L 3597 3500 
L 2059 -325 
z
" transform="scale(0.015625)"/>
     </defs>
     <use xlink:href="#DejaVuSans-70"/>
     <use xlink:href="#DejaVuSans-6f" x="63.476562"/>
     <use xlink:href="#DejaVuSans-6c" x="124.658203"/>
     <use xlink:href="#DejaVuSans-69" x="152.441406"/>
     <use xlink:href="#DejaVuSans-63" x="180.224609"/>
     <use xlink:href="#DejaVuSans-79" x="235.205078"/>
    </g>
   </g>
   <g id="text_13">
    <!-- $\pi(a | s)$ -->
    <g style="fill: #fa8174" transform="translate(45.84 99.962875)scale(0.12 -0.12)">
     <defs>
      <path id="DejaVuSans-Oblique-3c0" d="M 584 3500 
L 3938 3500 
L 3825 2925 
L 3384 2925 
L 2966 775 
Q 2922 550 2981 450 
Q 3038 353 3209 353 
Q 3256 353 3325 363 
Q 3397 369 3419 372 
L 3338 -44 
Q 3222 -84 3103 -103 
Q 2981 -122 2866 -122 
Q 2491 -122 2388 81 
Q 2284 288 2391 838 
L 2797 2925 
L 1506 2925 
L 938 0 
L 350 0 
L 919 2925 
L 472 2925 
L 584 3500 
z
" transform="scale(0.015625)"/>
      <path id="DejaVuSans-28" d="M 1984 4856 
Q 1566 4138 1362 3434 
Q 1159 2731 1159 2009 
Q 1159 1288 1364 580 
Q 1569 -128 1984 -844 
L 1484 -844 
Q 1016 -109 783 600 
Q 550 1309 550 2009 
Q 550 2706 781 3412 
Q 1013 4119 1484 4856 
L 1984 4856 
z
" transform="scale(0.015625)"/>
      <path id="DejaVuSans-7c" d="M 1344 4891 
L 1344 -1509 
L 813 -1509 
L 813 4891 
L 1344 4891 
z
" transform="scale(0.015625)"/>
      <path id="DejaVuSans-Oblique-73" d="M 3200 3397 
L 3091 2853 
Q 2863 2978 2609 3040 
Q 2356 3103 2088 3103 
Q 1634 3103 1373 2948 
Q 1113 2794 1113 2528 
Q 1113 2219 1719 2053 
Q 1766 2041 1788 2034 
L 1972 1978 
Q 2547 1819 2739 1644 
Q 2931 1469 2931 1166 
Q 2931 609 2489 259 
Q 2047 -91 1331 -91 
Q 1053 -91 747 -37 
Q 441 16 72 128 
L 184 722 
Q 500 559 806 475 
Q 1113 391 1394 391 
Q 1816 391 2080 572 
Q 2344 753 2344 1031 
Q 2344 1331 1650 1516 
L 1591 1531 
L 1394 1581 
Q 956 1697 753 1886 
Q 550 2075 550 2369 
Q 550 2928 970 3256 
Q 1391 3584 2113 3584 
Q 2397 3584 2667 3537 
Q 2938 3491 3200 3397 
z
" transform="scale(0.015625)"/>
      <path id="DejaVuSans-29" d="M 513 4856 
L 1013 4856 
Q 1481 4119 1714 3412 
Q 1947 2706 1947 2009 
Q 1947 1309 1714 600 
Q 1481 -109 1013 -844 
L 513 -844 
Q 928 -128 1133 580 
Q 1338 1288 1338 2009 
Q 1338 2731 1133 3434 
Q 928 4138 513 4856 
z
" transform="scale(0.015625)"/>
     </defs>
     <use xlink:href="#DejaVuSans-Oblique-3c0" transform="translate(0 0.578125)"/>
     <use xlink:href="#DejaVuSans-28" transform="translate(60.205078 0.578125)"/>
     <use xlink:href="#DejaVuSans-Oblique-61" transform="translate(99.21875 0.578125)"/>
     <use xlink:href="#DejaVuSans-7c" transform="translate(160.498047 0.578125)"/>
     <use xlink:href="#DejaVuSans-Oblique-73" transform="translate(194.189453 0.578125)"/>
     <use xlink:href="#DejaVuSans-29" transform="translate(246.289062 0.578125)"/>
    </g>
   </g>
   <g id="text_14">
    <!-- improvement -->
    <g style="fill: #fa8174" transform="translate(22.742812 124.734125)scale(0.12 -0.12)">
     <use xlink:href="#DejaVuSans-69"/>
     <use xlink:href="#DejaVuSans-6d" x="27.783203"/>
     <use xlink:href="#DejaVuSans-70" x="125.195312"/>
     <use xlink:href="#DejaVuSans-72" x="188.671875"/>
     <use xlink:href="#DejaVuSans-6f" x="227.535156"/>
     <use xlink:href="#DejaVuSans-76" x="288.716797"/>
     <use xlink:href="#DejaVuSans-65" x="347.896484"/>
     <use xlink:href="#DejaVuSans-6d" x="409.419922"/>
     <use xlink:href="#DejaVuSans-65" x="506.832031"/>
     <use xlink:href="#DejaVuSans-6e" x="568.355469"/>
     <use xlink:href="#DejaVuSans-74" x="631.734375"/>
    </g>
   </g>
   <g id="text_15">
    <!-- $\pi^\mathrm{old} \rightarrow \pi^\mathrm{new}$ -->
    <g style="fill: #fa8174" transform="translate(32.46 137.054125)scale(0.12 -0.12)">
     <defs>
      <path id="DejaVuSans-64" d="M 2906 2969 
L 2906 4863 
L 3481 4863 
L 3481 0 
L 2906 0 
L 2906 525 
Q 2725 213 2448 61 
Q 2172 -91 1784 -91 
Q 1150 -91 751 415 
Q 353 922 353 1747 
Q 353 2572 751 3078 
Q 1150 3584 1784 3584 
Q 2172 3584 2448 3432 
Q 2725 3281 2906 2969 
z
M 947 1747 
Q 947 1113 1208 752 
Q 1469 391 1925 391 
Q 2381 391 2643 752 
Q 2906 1113 2906 1747 
Q 2906 2381 2643 2742 
Q 2381 3103 1925 3103 
Q 1469 3103 1208 2742 
Q 947 2381 947 1747 
z
" transform="scale(0.015625)"/>
      <path id="DejaVuSans-2192" d="M 5050 2147 
L 5050 1866 
L 3822 638 
L 3447 1013 
L 4175 1741 
L 366 1741 
L 366 2272 
L 4175 2272 
L 3447 3000 
L 3822 3375 
L 5050 2147 
z
" transform="scale(0.015625)"/>
      <path id="DejaVuSans-77" d="M 269 3500 
L 844 3500 
L 1563 769 
L 2278 3500 
L 2956 3500 
L 3675 769 
L 4391 3500 
L 4966 3500 
L 4050 0 
L 3372 0 
L 2619 2869 
L 1863 0 
L 1184 0 
L 269 3500 
z
" transform="scale(0.015625)"/>
     </defs>
     <use xlink:href="#DejaVuSans-Oblique-3c0" transform="translate(0 0.529687)"/>
     <use xlink:href="#DejaVuSans-6f" transform="translate(64.671224 38.810937)scale(0.7)"/>
     <use xlink:href="#DejaVuSans-6c" transform="translate(107.498372 38.810937)scale(0.7)"/>
     <use xlink:href="#DejaVuSans-64" transform="translate(126.946615 38.810937)scale(0.7)"/>
     <use xlink:href="#DejaVuSans-2192" transform="translate(193.597005 0.529687)"/>
     <use xlink:href="#DejaVuSans-Oblique-3c0" transform="translate(296.86849 0.529687)"/>
     <use xlink:href="#DejaVuSans-6e" transform="translate(361.539714 38.810937)scale(0.7)"/>
     <use xlink:href="#DejaVuSans-65" transform="translate(405.904948 38.810937)scale(0.7)"/>
     <use xlink:href="#DejaVuSans-77" transform="translate(448.971354 38.810937)scale(0.7)"/>
    </g>
   </g>
   <g id="text_16">
    <!-- state -->
    <g style="fill: #fa8174" transform="translate(298.90125 50.814125)scale(0.12 -0.12)">
     <use xlink:href="#DejaVuSans-73"/>
     <use xlink:href="#DejaVuSans-74" x="52.099609"/>
     <use xlink:href="#DejaVuSans-61" x="91.308594"/>
     <use xlink:href="#DejaVuSans-74" x="152.587891"/>
     <use xlink:href="#DejaVuSans-65" x="191.796875"/>
    </g>
   </g>
   <g id="text_17">
    <!-- $s$ -->
    <g style="fill: #fa8174" transform="translate(310.92 63.134125)scale(0.12 -0.12)">
     <use xlink:href="#DejaVuSans-Oblique-73"/>
    </g>
   </g>
   <g id="text_18">
    <!-- transition func. -->
    <g style="fill: #fa8174" transform="translate(268.686563 87.774125)scale(0.12 -0.12)">
     <defs>
      <path id="DejaVuSans-75" d="M 544 1381 
L 544 3500 
L 1119 3500 
L 1119 1403 
Q 1119 906 1312 657 
Q 1506 409 1894 409 
Q 2359 409 2629 706 
Q 2900 1003 2900 1516 
L 2900 3500 
L 3475 3500 
L 3475 0 
L 2900 0 
L 2900 538 
Q 2691 219 2414 64 
Q 2138 -91 1772 -91 
Q 1169 -91 856 284 
Q 544 659 544 1381 
z
M 1991 3584 
L 1991 3584 
z
" transform="scale(0.015625)"/>
     </defs>
     <use xlink:href="#DejaVuSans-74"/>
     <use xlink:href="#DejaVuSans-72" x="39.208984"/>
     <use xlink:href="#DejaVuSans-61" x="80.322266"/>
     <use xlink:href="#DejaVuSans-6e" x="141.601562"/>
     <use xlink:href="#DejaVuSans-73" x="204.980469"/>
     <use xlink:href="#DejaVuSans-69" x="257.080078"/>
     <use xlink:href="#DejaVuSans-74" x="284.863281"/>
     <use xlink:href="#DejaVuSans-69" x="324.072266"/>
     <use xlink:href="#DejaVuSans-6f" x="351.855469"/>
     <use xlink:href="#DejaVuSans-6e" x="413.037109"/>
     <use xlink:href="#DejaVuSans-20" x="476.416016"/>
     <use xlink:href="#DejaVuSans-66" x="508.203125"/>
     <use xlink:href="#DejaVuSans-75" x="543.408203"/>
     <use xlink:href="#DejaVuSans-6e" x="606.787109"/>
     <use xlink:href="#DejaVuSans-63" x="670.166016"/>
     <use xlink:href="#DejaVuSans-2e" x="725.146484"/>
    </g>
   </g>
   <g id="text_19">
    <!-- $p(s^\prime | s, a)$ -->
    <g style="fill: #fa8174" transform="translate(288.96 100.022875)scale(0.12 -0.12)">
     <defs>
      <path id="DejaVuSans-Oblique-70" d="M 3175 2156 
Q 3175 2616 2975 2859 
Q 2775 3103 2400 3103 
Q 2144 3103 1911 2972 
Q 1678 2841 1497 2591 
Q 1319 2344 1212 1994 
Q 1106 1644 1106 1300 
Q 1106 863 1306 627 
Q 1506 391 1875 391 
Q 2147 391 2380 519 
Q 2613 647 2778 891 
Q 2956 1147 3065 1494 
Q 3175 1841 3175 2156 
z
M 1394 2969 
Q 1625 3272 1939 3428 
Q 2253 3584 2638 3584 
Q 3175 3584 3472 3232 
Q 3769 2881 3769 2247 
Q 3769 1728 3584 1258 
Q 3400 788 3053 416 
Q 2822 169 2531 39 
Q 2241 -91 1919 -91 
Q 1547 -91 1294 64 
Q 1041 219 916 525 
L 556 -1331 
L -19 -1331 
L 922 3500 
L 1497 3500 
L 1394 2969 
z
" transform="scale(0.015625)"/>
      <path id="Cmsy10-30" d="M 225 347 
Q 184 359 184 409 
L 966 3316 
Q 1003 3434 1093 3506 
Q 1184 3578 1300 3578 
Q 1450 3578 1564 3479 
Q 1678 3381 1678 3231 
Q 1678 3166 1644 3084 
L 488 319 
Q 466 275 428 275 
Q 394 275 320 306 
Q 247 338 225 347 
z
" transform="scale(0.015625)"/>
     </defs>
     <use xlink:href="#DejaVuSans-Oblique-70" transform="translate(0 0.584375)"/>
     <use xlink:href="#DejaVuSans-28" transform="translate(63.476562 0.584375)"/>
     <use xlink:href="#DejaVuSans-Oblique-73" transform="translate(102.490234 0.584375)"/>
     <use xlink:href="#Cmsy10-30" transform="translate(159.23974 38.865625)scale(0.7)"/>
     <use xlink:href="#DejaVuSans-7c" transform="translate(181.217279 0.584375)"/>
     <use xlink:href="#DejaVuSans-Oblique-73" transform="translate(214.908685 0.584375)"/>
     <use xlink:href="#DejaVuSans-2c" transform="translate(267.008294 0.584375)"/>
     <use xlink:href="#DejaVuSans-Oblique-61" transform="translate(318.277826 0.584375)"/>
     <use xlink:href="#DejaVuSans-29" transform="translate(379.557122 0.584375)"/>
    </g>
   </g>
   <g id="text_20">
    <!-- reward func. -->
    <g style="fill: #fa8174" transform="translate(276.492188 124.734125)scale(0.12 -0.12)">
     <use xlink:href="#DejaVuSans-72"/>
     <use xlink:href="#DejaVuSans-65" x="38.863281"/>
     <use xlink:href="#DejaVuSans-77" x="100.386719"/>
     <use xlink:href="#DejaVuSans-61" x="182.173828"/>
     <use xlink:href="#DejaVuSans-72" x="243.453125"/>
     <use xlink:href="#DejaVuSans-64" x="282.816406"/>
     <use xlink:href="#DejaVuSans-20" x="346.292969"/>
     <use xlink:href="#DejaVuSans-66" x="378.080078"/>
     <use xlink:href="#DejaVuSans-75" x="413.285156"/>
     <use xlink:href="#DejaVuSans-6e" x="476.664062"/>
     <use xlink:href="#DejaVuSans-63" x="540.042969"/>
     <use xlink:href="#DejaVuSans-2e" x="595.023438"/>
    </g>
   </g>
   <g id="text_21">
    <!-- $r(s^\prime, s, a)$ -->
    <g style="fill: #fa8174" transform="translate(289.26 137.054125)scale(0.12 -0.12)">
     <defs>
      <path id="DejaVuSans-Oblique-72" d="M 2853 2969 
Q 2766 3016 2653 3041 
Q 2541 3066 2413 3066 
Q 1953 3066 1609 2717 
Q 1266 2369 1153 1784 
L 800 0 
L 225 0 
L 909 3500 
L 1484 3500 
L 1375 2956 
Q 1603 3259 1920 3421 
Q 2238 3584 2597 3584 
Q 2691 3584 2781 3573 
Q 2872 3563 2963 3538 
L 2853 2969 
z
" transform="scale(0.015625)"/>
     </defs>
     <use xlink:href="#DejaVuSans-Oblique-72" transform="translate(0 0.584375)"/>
     <use xlink:href="#DejaVuSans-28" transform="translate(41.113281 0.584375)"/>
     <use xlink:href="#DejaVuSans-Oblique-73" transform="translate(80.126953 0.584375)"/>
     <use xlink:href="#Cmsy10-30" transform="translate(136.876458 38.865625)scale(0.7)"/>
     <use xlink:href="#DejaVuSans-2c" transform="translate(158.853997 0.584375)"/>
     <use xlink:href="#DejaVuSans-Oblique-73" transform="translate(210.123529 0.584375)"/>
     <use xlink:href="#DejaVuSans-2c" transform="translate(262.223138 0.584375)"/>
     <use xlink:href="#DejaVuSans-Oblique-61" transform="translate(313.492669 0.584375)"/>
     <use xlink:href="#DejaVuSans-29" transform="translate(374.771966 0.584375)"/>
    </g>
   </g>
  </g>
 </g>
 <defs>
  <clipPath id="p7284beadb6">
   <rect x="7.2" y="7.462875" width="362.7" height="138.6"/>
  </clipPath>
 </defs>
</svg>
