<?xml version="1.0" encoding="utf-8" standalone="no"?>
<!DOCTYPE svg PUBLIC "-//W3C//DTD SVG 1.1//EN"
  "http://www.w3.org/Graphics/SVG/1.1/DTD/svg11.dtd">
<!-- Created with matplotlib (https://matplotlib.org/) -->
<svg height="262.918125pt" version="1.1" viewBox="0 0 391.403125 262.918125" width="391.403125pt" xmlns="http://www.w3.org/2000/svg" xmlns:xlink="http://www.w3.org/1999/xlink">
 <metadata>
  <rdf:RDF xmlns:cc="http://creativecommons.org/ns#" xmlns:dc="http://purl.org/dc/elements/1.1/" xmlns:rdf="http://www.w3.org/1999/02/22-rdf-syntax-ns#">
   <cc:Work>
    <dc:type rdf:resource="http://purl.org/dc/dcmitype/StillImage"/>
    <dc:date>2021-11-14T16:33:05.005476</dc:date>
    <dc:format>image/svg+xml</dc:format>
    <dc:creator>
     <cc:Agent>
      <dc:title>Matplotlib v3.3.3, https://matplotlib.org/</dc:title>
     </cc:Agent>
    </dc:creator>
   </cc:Work>
  </rdf:RDF>
 </metadata>
 <defs>
  <style type="text/css">*{stroke-linecap:butt;stroke-linejoin:round;}</style>
 </defs>
 <g id="figure_1">
  <g id="patch_1">
   <path d="M 0 262.918125 
L 391.403125 262.918125 
L 391.403125 0 
L 0 0 
z
" style="fill:none;"/>
  </g>
  <g id="axes_1">
   <g id="patch_2">
    <path d="M 40.603125 224.64 
L 375.403125 224.64 
L 375.403125 7.2 
L 40.603125 7.2 
z
" style="fill:#ffffff;"/>
   </g>
   <g id="matplotlib.axis_1">
    <g id="xtick_1">
     <g id="line2d_1">
      <defs>
       <path d="M 0 0 
L 0 3.5 
" id="m30082947c1" style="stroke:#000000;stroke-width:0.8;"/>
      </defs>
      <g>
       <use style="stroke:#000000;stroke-width:0.8;" x="40.603125" xlink:href="#m30082947c1" y="224.64"/>
      </g>
     </g>
     <g id="text_1">
      <!-- $\mathdefault{10^{-1}}$ -->
      <g transform="translate(28.853125 239.238437)scale(0.1 -0.1)">
       <defs>
        <path d="M 12.40625 8.296875 
L 28.515625 8.296875 
L 28.515625 63.921875 
L 10.984375 60.40625 
L 10.984375 69.390625 
L 28.421875 72.90625 
L 38.28125 72.90625 
L 38.28125 8.296875 
L 54.390625 8.296875 
L 54.390625 0 
L 12.40625 0 
z
" id="DejaVuSans-49"/>
        <path d="M 31.78125 66.40625 
Q 24.171875 66.40625 20.328125 58.90625 
Q 16.5 51.421875 16.5 36.375 
Q 16.5 21.390625 20.328125 13.890625 
Q 24.171875 6.390625 31.78125 6.390625 
Q 39.453125 6.390625 43.28125 13.890625 
Q 47.125 21.390625 47.125 36.375 
Q 47.125 51.421875 43.28125 58.90625 
Q 39.453125 66.40625 31.78125 66.40625 
z
M 31.78125 74.21875 
Q 44.046875 74.21875 50.515625 64.515625 
Q 56.984375 54.828125 56.984375 36.375 
Q 56.984375 17.96875 50.515625 8.265625 
Q 44.046875 -1.421875 31.78125 -1.421875 
Q 19.53125 -1.421875 13.0625 8.265625 
Q 6.59375 17.96875 6.59375 36.375 
Q 6.59375 54.828125 13.0625 64.515625 
Q 19.53125 74.21875 31.78125 74.21875 
z
" id="DejaVuSans-48"/>
        <path d="M 10.59375 35.5 
L 73.1875 35.5 
L 73.1875 27.203125 
L 10.59375 27.203125 
z
" id="DejaVuSans-8722"/>
       </defs>
       <use transform="translate(0 0.684375)" xlink:href="#DejaVuSans-49"/>
       <use transform="translate(63.623047 0.684375)" xlink:href="#DejaVuSans-48"/>
       <use transform="translate(128.203125 38.965625)scale(0.7)" xlink:href="#DejaVuSans-8722"/>
       <use transform="translate(186.855469 38.965625)scale(0.7)" xlink:href="#DejaVuSans-49"/>
      </g>
     </g>
    </g>
    <g id="xtick_2">
     <g id="line2d_2">
      <g>
       <use style="stroke:#000000;stroke-width:0.8;" x="124.303125" xlink:href="#m30082947c1" y="224.64"/>
      </g>
     </g>
     <g id="text_2">
      <!-- $\mathdefault{10^{0}}$ -->
      <g transform="translate(115.503125 239.238437)scale(0.1 -0.1)">
       <use transform="translate(0 0.765625)" xlink:href="#DejaVuSans-49"/>
       <use transform="translate(63.623047 0.765625)" xlink:href="#DejaVuSans-48"/>
       <use transform="translate(128.203125 39.046875)scale(0.7)" xlink:href="#DejaVuSans-48"/>
      </g>
     </g>
    </g>
    <g id="xtick_3">
     <g id="line2d_3">
      <g>
       <use style="stroke:#000000;stroke-width:0.8;" x="208.003125" xlink:href="#m30082947c1" y="224.64"/>
      </g>
     </g>
     <g id="text_3">
      <!-- $\mathdefault{10^{1}}$ -->
      <g transform="translate(199.203125 239.238437)scale(0.1 -0.1)">
       <use transform="translate(0 0.684375)" xlink:href="#DejaVuSans-49"/>
       <use transform="translate(63.623047 0.684375)" xlink:href="#DejaVuSans-48"/>
       <use transform="translate(128.203125 38.965625)scale(0.7)" xlink:href="#DejaVuSans-49"/>
      </g>
     </g>
    </g>
    <g id="xtick_4">
     <g id="line2d_4">
      <g>
       <use style="stroke:#000000;stroke-width:0.8;" x="291.703125" xlink:href="#m30082947c1" y="224.64"/>
      </g>
     </g>
     <g id="text_4">
      <!-- $\mathdefault{10^{2}}$ -->
      <g transform="translate(282.903125 239.238437)scale(0.1 -0.1)">
       <defs>
        <path d="M 19.1875 8.296875 
L 53.609375 8.296875 
L 53.609375 0 
L 7.328125 0 
L 7.328125 8.296875 
Q 12.9375 14.109375 22.625 23.890625 
Q 32.328125 33.6875 34.8125 36.53125 
Q 39.546875 41.84375 41.421875 45.53125 
Q 43.3125 49.21875 43.3125 52.78125 
Q 43.3125 58.59375 39.234375 62.25 
Q 35.15625 65.921875 28.609375 65.921875 
Q 23.96875 65.921875 18.8125 64.3125 
Q 13.671875 62.703125 7.8125 59.421875 
L 7.8125 69.390625 
Q 13.765625 71.78125 18.9375 73 
Q 24.125 74.21875 28.421875 74.21875 
Q 39.75 74.21875 46.484375 68.546875 
Q 53.21875 62.890625 53.21875 53.421875 
Q 53.21875 48.921875 51.53125 44.890625 
Q 49.859375 40.875 45.40625 35.40625 
Q 44.1875 33.984375 37.640625 27.21875 
Q 31.109375 20.453125 19.1875 8.296875 
z
" id="DejaVuSans-50"/>
       </defs>
       <use transform="translate(0 0.765625)" xlink:href="#DejaVuSans-49"/>
       <use transform="translate(63.623047 0.765625)" xlink:href="#DejaVuSans-48"/>
       <use transform="translate(128.203125 39.046875)scale(0.7)" xlink:href="#DejaVuSans-50"/>
      </g>
     </g>
    </g>
    <g id="xtick_5">
     <g id="line2d_5">
      <g>
       <use style="stroke:#000000;stroke-width:0.8;" x="375.403125" xlink:href="#m30082947c1" y="224.64"/>
      </g>
     </g>
     <g id="text_5">
      <!-- $\mathdefault{10^{3}}$ -->
      <g transform="translate(366.603125 239.238437)scale(0.1 -0.1)">
       <defs>
        <path d="M 40.578125 39.3125 
Q 47.65625 37.796875 51.625 33 
Q 55.609375 28.21875 55.609375 21.1875 
Q 55.609375 10.40625 48.1875 4.484375 
Q 40.765625 -1.421875 27.09375 -1.421875 
Q 22.515625 -1.421875 17.65625 -0.515625 
Q 12.796875 0.390625 7.625 2.203125 
L 7.625 11.71875 
Q 11.71875 9.328125 16.59375 8.109375 
Q 21.484375 6.890625 26.8125 6.890625 
Q 36.078125 6.890625 40.9375 10.546875 
Q 45.796875 14.203125 45.796875 21.1875 
Q 45.796875 27.640625 41.28125 31.265625 
Q 36.765625 34.90625 28.71875 34.90625 
L 20.21875 34.90625 
L 20.21875 43.015625 
L 29.109375 43.015625 
Q 36.375 43.015625 40.234375 45.921875 
Q 44.09375 48.828125 44.09375 54.296875 
Q 44.09375 59.90625 40.109375 62.90625 
Q 36.140625 65.921875 28.71875 65.921875 
Q 24.65625 65.921875 20.015625 65.03125 
Q 15.375 64.15625 9.8125 62.3125 
L 9.8125 71.09375 
Q 15.4375 72.65625 20.34375 73.4375 
Q 25.25 74.21875 29.59375 74.21875 
Q 40.828125 74.21875 47.359375 69.109375 
Q 53.90625 64.015625 53.90625 55.328125 
Q 53.90625 49.265625 50.4375 45.09375 
Q 46.96875 40.921875 40.578125 39.3125 
z
" id="DejaVuSans-51"/>
       </defs>
       <use transform="translate(0 0.765625)" xlink:href="#DejaVuSans-49"/>
       <use transform="translate(63.623047 0.765625)" xlink:href="#DejaVuSans-48"/>
       <use transform="translate(128.203125 39.046875)scale(0.7)" xlink:href="#DejaVuSans-51"/>
      </g>
     </g>
    </g>
    <g id="xtick_6">
     <g id="line2d_6">
      <defs>
       <path d="M 0 0 
L 0 2 
" id="m08a652645b" style="stroke:#000000;stroke-width:0.6;"/>
      </defs>
      <g>
       <use style="stroke:#000000;stroke-width:0.6;" x="65.799336" xlink:href="#m08a652645b" y="224.64"/>
      </g>
     </g>
    </g>
    <g id="xtick_7">
     <g id="line2d_7">
      <g>
       <use style="stroke:#000000;stroke-width:0.6;" x="80.538174" xlink:href="#m08a652645b" y="224.64"/>
      </g>
     </g>
    </g>
    <g id="xtick_8">
     <g id="line2d_8">
      <g>
       <use style="stroke:#000000;stroke-width:0.6;" x="90.995546" xlink:href="#m08a652645b" y="224.64"/>
      </g>
     </g>
    </g>
    <g id="xtick_9">
     <g id="line2d_9">
      <g>
       <use style="stroke:#000000;stroke-width:0.6;" x="99.106914" xlink:href="#m08a652645b" y="224.64"/>
      </g>
     </g>
    </g>
    <g id="xtick_10">
     <g id="line2d_10">
      <g>
       <use style="stroke:#000000;stroke-width:0.6;" x="105.734385" xlink:href="#m08a652645b" y="224.64"/>
      </g>
     </g>
    </g>
    <g id="xtick_11">
     <g id="line2d_11">
      <g>
       <use style="stroke:#000000;stroke-width:0.6;" x="111.337831" xlink:href="#m08a652645b" y="224.64"/>
      </g>
     </g>
    </g>
    <g id="xtick_12">
     <g id="line2d_12">
      <g>
       <use style="stroke:#000000;stroke-width:0.6;" x="116.191757" xlink:href="#m08a652645b" y="224.64"/>
      </g>
     </g>
    </g>
    <g id="xtick_13">
     <g id="line2d_13">
      <g>
       <use style="stroke:#000000;stroke-width:0.6;" x="120.473223" xlink:href="#m08a652645b" y="224.64"/>
      </g>
     </g>
    </g>
    <g id="xtick_14">
     <g id="line2d_14">
      <g>
       <use style="stroke:#000000;stroke-width:0.6;" x="149.499336" xlink:href="#m08a652645b" y="224.64"/>
      </g>
     </g>
    </g>
    <g id="xtick_15">
     <g id="line2d_15">
      <g>
       <use style="stroke:#000000;stroke-width:0.6;" x="164.238174" xlink:href="#m08a652645b" y="224.64"/>
      </g>
     </g>
    </g>
    <g id="xtick_16">
     <g id="line2d_16">
      <g>
       <use style="stroke:#000000;stroke-width:0.6;" x="174.695546" xlink:href="#m08a652645b" y="224.64"/>
      </g>
     </g>
    </g>
    <g id="xtick_17">
     <g id="line2d_17">
      <g>
       <use style="stroke:#000000;stroke-width:0.6;" x="182.806914" xlink:href="#m08a652645b" y="224.64"/>
      </g>
     </g>
    </g>
    <g id="xtick_18">
     <g id="line2d_18">
      <g>
       <use style="stroke:#000000;stroke-width:0.6;" x="189.434385" xlink:href="#m08a652645b" y="224.64"/>
      </g>
     </g>
    </g>
    <g id="xtick_19">
     <g id="line2d_19">
      <g>
       <use style="stroke:#000000;stroke-width:0.6;" x="195.037831" xlink:href="#m08a652645b" y="224.64"/>
      </g>
     </g>
    </g>
    <g id="xtick_20">
     <g id="line2d_20">
      <g>
       <use style="stroke:#000000;stroke-width:0.6;" x="199.891757" xlink:href="#m08a652645b" y="224.64"/>
      </g>
     </g>
    </g>
    <g id="xtick_21">
     <g id="line2d_21">
      <g>
       <use style="stroke:#000000;stroke-width:0.6;" x="204.173223" xlink:href="#m08a652645b" y="224.64"/>
      </g>
     </g>
    </g>
    <g id="xtick_22">
     <g id="line2d_22">
      <g>
       <use style="stroke:#000000;stroke-width:0.6;" x="233.199336" xlink:href="#m08a652645b" y="224.64"/>
      </g>
     </g>
    </g>
    <g id="xtick_23">
     <g id="line2d_23">
      <g>
       <use style="stroke:#000000;stroke-width:0.6;" x="247.938174" xlink:href="#m08a652645b" y="224.64"/>
      </g>
     </g>
    </g>
    <g id="xtick_24">
     <g id="line2d_24">
      <g>
       <use style="stroke:#000000;stroke-width:0.6;" x="258.395546" xlink:href="#m08a652645b" y="224.64"/>
      </g>
     </g>
    </g>
    <g id="xtick_25">
     <g id="line2d_25">
      <g>
       <use style="stroke:#000000;stroke-width:0.6;" x="266.506914" xlink:href="#m08a652645b" y="224.64"/>
      </g>
     </g>
    </g>
    <g id="xtick_26">
     <g id="line2d_26">
      <g>
       <use style="stroke:#000000;stroke-width:0.6;" x="273.134385" xlink:href="#m08a652645b" y="224.64"/>
      </g>
     </g>
    </g>
    <g id="xtick_27">
     <g id="line2d_27">
      <g>
       <use style="stroke:#000000;stroke-width:0.6;" x="278.737831" xlink:href="#m08a652645b" y="224.64"/>
      </g>
     </g>
    </g>
    <g id="xtick_28">
     <g id="line2d_28">
      <g>
       <use style="stroke:#000000;stroke-width:0.6;" x="283.591757" xlink:href="#m08a652645b" y="224.64"/>
      </g>
     </g>
    </g>
    <g id="xtick_29">
     <g id="line2d_29">
      <g>
       <use style="stroke:#000000;stroke-width:0.6;" x="287.873223" xlink:href="#m08a652645b" y="224.64"/>
      </g>
     </g>
    </g>
    <g id="xtick_30">
     <g id="line2d_30">
      <g>
       <use style="stroke:#000000;stroke-width:0.6;" x="316.899336" xlink:href="#m08a652645b" y="224.64"/>
      </g>
     </g>
    </g>
    <g id="xtick_31">
     <g id="line2d_31">
      <g>
       <use style="stroke:#000000;stroke-width:0.6;" x="331.638174" xlink:href="#m08a652645b" y="224.64"/>
      </g>
     </g>
    </g>
    <g id="xtick_32">
     <g id="line2d_32">
      <g>
       <use style="stroke:#000000;stroke-width:0.6;" x="342.095546" xlink:href="#m08a652645b" y="224.64"/>
      </g>
     </g>
    </g>
    <g id="xtick_33">
     <g id="line2d_33">
      <g>
       <use style="stroke:#000000;stroke-width:0.6;" x="350.206914" xlink:href="#m08a652645b" y="224.64"/>
      </g>
     </g>
    </g>
    <g id="xtick_34">
     <g id="line2d_34">
      <g>
       <use style="stroke:#000000;stroke-width:0.6;" x="356.834385" xlink:href="#m08a652645b" y="224.64"/>
      </g>
     </g>
    </g>
    <g id="xtick_35">
     <g id="line2d_35">
      <g>
       <use style="stroke:#000000;stroke-width:0.6;" x="362.437831" xlink:href="#m08a652645b" y="224.64"/>
      </g>
     </g>
    </g>
    <g id="xtick_36">
     <g id="line2d_36">
      <g>
       <use style="stroke:#000000;stroke-width:0.6;" x="367.291757" xlink:href="#m08a652645b" y="224.64"/>
      </g>
     </g>
    </g>
    <g id="xtick_37">
     <g id="line2d_37">
      <g>
       <use style="stroke:#000000;stroke-width:0.6;" x="371.573223" xlink:href="#m08a652645b" y="224.64"/>
      </g>
     </g>
    </g>
    <g id="text_6">
     <!-- $y^+$ -->
     <g transform="translate(200.353125 253.618125)scale(0.1 -0.1)">
      <defs>
       <path d="M 24.8125 -5.078125 
Q 18.5625 -15.578125 14.625 -18.1875 
Q 10.6875 -20.796875 4.59375 -20.796875 
L -2.484375 -20.796875 
L -0.984375 -13.28125 
L 4.203125 -13.28125 
Q 7.953125 -13.28125 10.59375 -11.234375 
Q 13.234375 -9.1875 16.5 -3.21875 
L 19.28125 2 
L 7.171875 54.6875 
L 16.703125 54.6875 
L 25.78125 12.796875 
L 50.875 54.6875 
L 60.296875 54.6875 
z
" id="DejaVuSans-Oblique-121"/>
       <path d="M 46 62.703125 
L 46 35.5 
L 73.1875 35.5 
L 73.1875 27.203125 
L 46 27.203125 
L 46 0 
L 37.796875 0 
L 37.796875 27.203125 
L 10.59375 27.203125 
L 10.59375 35.5 
L 37.796875 35.5 
L 37.796875 62.703125 
z
" id="DejaVuSans-43"/>
      </defs>
      <use transform="translate(0 0.826562)" xlink:href="#DejaVuSans-Oblique-121"/>
      <use transform="translate(77.283529 39.107812)scale(0.7)" xlink:href="#DejaVuSans-43"/>
     </g>
    </g>
   </g>
   <g id="matplotlib.axis_2">
    <g id="ytick_1">
     <g id="line2d_38">
      <defs>
       <path d="M 0 0 
L -3.5 0 
" id="m4b53482628" style="stroke:#000000;stroke-width:0.8;"/>
      </defs>
      <g>
       <use style="stroke:#000000;stroke-width:0.8;" x="40.603125" xlink:href="#m4b53482628" y="214.977856"/>
      </g>
     </g>
     <g id="text_7">
      <!-- 0 -->
      <g transform="translate(27.240625 218.777074)scale(0.1 -0.1)">
       <use xlink:href="#DejaVuSans-48"/>
      </g>
     </g>
    </g>
    <g id="ytick_2">
     <g id="line2d_39">
      <g>
       <use style="stroke:#000000;stroke-width:0.8;" x="40.603125" xlink:href="#m4b53482628" y="175.399012"/>
      </g>
     </g>
     <g id="text_8">
      <!-- 5 -->
      <g transform="translate(27.240625 179.19823)scale(0.1 -0.1)">
       <defs>
        <path d="M 10.796875 72.90625 
L 49.515625 72.90625 
L 49.515625 64.59375 
L 19.828125 64.59375 
L 19.828125 46.734375 
Q 21.96875 47.46875 24.109375 47.828125 
Q 26.265625 48.1875 28.421875 48.1875 
Q 40.625 48.1875 47.75 41.5 
Q 54.890625 34.8125 54.890625 23.390625 
Q 54.890625 11.625 47.5625 5.09375 
Q 40.234375 -1.421875 26.90625 -1.421875 
Q 22.3125 -1.421875 17.546875 -0.640625 
Q 12.796875 0.140625 7.71875 1.703125 
L 7.71875 11.625 
Q 12.109375 9.234375 16.796875 8.0625 
Q 21.484375 6.890625 26.703125 6.890625 
Q 35.15625 6.890625 40.078125 11.328125 
Q 45.015625 15.765625 45.015625 23.390625 
Q 45.015625 31 40.078125 35.4375 
Q 35.15625 39.890625 26.703125 39.890625 
Q 22.75 39.890625 18.8125 39.015625 
Q 14.890625 38.140625 10.796875 36.28125 
z
" id="DejaVuSans-53"/>
       </defs>
       <use xlink:href="#DejaVuSans-53"/>
      </g>
     </g>
    </g>
    <g id="ytick_3">
     <g id="line2d_40">
      <g>
       <use style="stroke:#000000;stroke-width:0.8;" x="40.603125" xlink:href="#m4b53482628" y="135.820168"/>
      </g>
     </g>
     <g id="text_9">
      <!-- 10 -->
      <g transform="translate(20.878125 139.619387)scale(0.1 -0.1)">
       <use xlink:href="#DejaVuSans-49"/>
       <use x="63.623047" xlink:href="#DejaVuSans-48"/>
      </g>
     </g>
    </g>
    <g id="ytick_4">
     <g id="line2d_41">
      <g>
       <use style="stroke:#000000;stroke-width:0.8;" x="40.603125" xlink:href="#m4b53482628" y="96.241324"/>
      </g>
     </g>
     <g id="text_10">
      <!-- 15 -->
      <g transform="translate(20.878125 100.040543)scale(0.1 -0.1)">
       <use xlink:href="#DejaVuSans-49"/>
       <use x="63.623047" xlink:href="#DejaVuSans-53"/>
      </g>
     </g>
    </g>
    <g id="ytick_5">
     <g id="line2d_42">
      <g>
       <use style="stroke:#000000;stroke-width:0.8;" x="40.603125" xlink:href="#m4b53482628" y="56.66248"/>
      </g>
     </g>
     <g id="text_11">
      <!-- 20 -->
      <g transform="translate(20.878125 60.461699)scale(0.1 -0.1)">
       <use xlink:href="#DejaVuSans-50"/>
       <use x="63.623047" xlink:href="#DejaVuSans-48"/>
      </g>
     </g>
    </g>
    <g id="ytick_6">
     <g id="line2d_43">
      <g>
       <use style="stroke:#000000;stroke-width:0.8;" x="40.603125" xlink:href="#m4b53482628" y="17.083636"/>
      </g>
     </g>
     <g id="text_12">
      <!-- 25 -->
      <g transform="translate(20.878125 20.882855)scale(0.1 -0.1)">
       <use xlink:href="#DejaVuSans-50"/>
       <use x="63.623047" xlink:href="#DejaVuSans-53"/>
      </g>
     </g>
    </g>
    <g id="text_13">
     <!-- $u^+$ -->
     <g transform="translate(14.798438 123.77)rotate(-90)scale(0.1 -0.1)">
      <defs>
       <path d="M 6.6875 21.6875 
L 13.09375 54.6875 
L 22.125 54.6875 
L 15.71875 22.015625 
Q 15.234375 19.625 15.015625 17.921875 
Q 14.796875 16.21875 14.796875 15.09375 
Q 14.796875 10.9375 17.328125 8.65625 
Q 19.875 6.390625 24.515625 6.390625 
Q 31.734375 6.390625 37 11.265625 
Q 42.28125 16.15625 43.890625 24.421875 
L 49.90625 54.6875 
L 58.890625 54.6875 
L 48.296875 0 
L 39.3125 0 
L 41.109375 8.59375 
Q 37.3125 3.8125 32.0625 1.1875 
Q 26.8125 -1.421875 20.90625 -1.421875 
Q 13.71875 -1.421875 9.71875 2.515625 
Q 5.71875 6.453125 5.71875 13.484375 
Q 5.71875 14.9375 5.953125 17.140625 
Q 6.203125 19.34375 6.6875 21.6875 
z
" id="DejaVuSans-Oblique-117"/>
      </defs>
      <use transform="translate(0 0.826562)" xlink:href="#DejaVuSans-Oblique-117"/>
      <use transform="translate(81.482747 39.107812)scale(0.7)" xlink:href="#DejaVuSans-43"/>
     </g>
    </g>
   </g>
   <g id="line2d_44">
    <path clip-path="url(#p6faa0d9c15)" d="M -1 214.704023 
L 34.566226 214.307463 
L 53.590974 213.846512 
L 66.298444 213.373189 
L 83.702902 212.388097 
L 95.967039 211.349435 
L 105.560795 210.25431 
L 113.516392 209.099673 
L 120.364783 207.882323 
L 126.415406 206.598896 
L 131.864505 205.245865 
L 136.844364 203.819538 
L 141.448432 202.316066 
L 145.745129 200.731448 
L 149.786072 199.06155 
L 153.611165 197.302132 
L 157.251895 195.448886 
L 160.733529 193.497509 
L 164.076651 191.443774 
L 167.298266 189.283666 
L 170.412562 187.013543 
L 174.908471 183.395635 
L 179.222663 179.51731 
L 183.381665 175.379754 
L 187.407012 170.995329 
L 191.316362 166.391825 
L 196.373433 159.997612 
L 203.681699 150.223679 
L 210.721105 140.902244 
L 215.29237 135.267833 
L 218.666375 131.422188 
L 221.998918 127.909132 
L 225.294068 124.710231 
L 228.555447 121.793363 
L 232.856887 118.276706 
L 237.110574 115.102641 
L 242.369169 111.494754 
L 248.605999 107.529653 
L 256.818842 102.612939 
L 295.813587 79.68639 
L 307.6111 72.278688 
L 326.192404 60.530546 
L 331.06787 57.749712 
L 334.964928 55.811308 
L 337.885992 54.625093 
L 339.832602 54.01303 
L 341.778643 53.585542 
L 343.724143 53.385476 
L 343.724143 53.385476 
" style="fill:none;stroke:#1f77b4;stroke-dasharray:3.7,1.6;stroke-dashoffset:0;"/>
   </g>
   <g id="line2d_45">
    <path clip-path="url(#p6faa0d9c15)" d="M -0.840749 214.724725 
L 39.419779 214.2117 
L 58.444526 213.684905 
L 71.151995 213.143971 
L 80.772221 212.588519 
L 95.122359 211.432505 
L 105.869522 210.213638 
L 114.556576 208.928529 
L 121.909701 207.573615 
L 128.32919 206.145157 
L 134.059293 204.639245 
L 139.260088 203.051795 
L 144.042183 201.378565 
L 148.485205 199.615175 
L 152.648394 197.757137 
L 156.577019 195.79991 
L 160.306426 193.738968 
L 163.864768 191.569914 
L 167.274819 189.288622 
L 170.555256 186.891448 
L 173.72159 184.375485 
L 176.786838 181.738928 
L 181.218851 177.557927 
L 185.478638 173.113879 
L 189.590916 168.430439 
L 193.575788 163.551218 
L 198.719067 156.859692 
L 212.084771 139.143312 
L 215.574657 134.915201 
L 219.011262 131.041489 
L 222.400086 127.520778 
L 225.745965 124.328875 
L 229.053163 121.428411 
L 233.408996 117.941271 
L 237.710439 114.799599 
L 243.020773 111.231103 
L 249.309941 107.308511 
L 257.579236 102.440903 
L 294.743399 80.940244 
L 305.590064 74.245537 
L 318.343357 66.085359 
L 330.070255 58.621523 
L 334.946712 55.751867 
L 338.844474 53.709301 
L 341.766015 52.417097 
L 344.686153 51.42749 
L 346.632197 50.993706 
L 348.5777 50.790666 
L 348.5777 50.790666 
" style="fill:none;stroke:#ff7f0e;stroke-dasharray:3.7,1.6;stroke-dashoffset:0;"/>
   </g>
   <g id="line2d_46">
    <path clip-path="url(#p6faa0d9c15)" d="M 11.739513 214.62005 
L 52.000042 213.89488 
L 71.024789 213.150244 
L 83.732257 212.385622 
L 93.352483 211.600481 
L 101.136715 210.794273 
L 107.702622 209.966439 
L 113.400856 209.116403 
L 122.994609 207.347367 
L 130.950207 205.482311 
L 137.798599 203.516184 
L 143.84922 201.443782 
L 149.298322 199.259787 
L 154.278179 196.958869 
L 158.882244 194.535806 
L 163.178941 191.985669 
L 167.219885 189.304107 
L 171.04498 186.487692 
L 174.68571 183.534424 
L 178.167343 180.44435 
L 181.510466 177.220352 
L 184.73208 173.86905 
L 189.367098 168.629667 
L 193.799112 163.193158 
L 199.444971 155.80485 
L 210.030123 141.682983 
L 213.807247 136.974813 
L 217.499081 132.693028 
L 221.115511 128.843065 
L 224.665029 125.396577 
L 228.154919 122.305725 
L 231.591523 119.515583 
L 236.100189 116.171106 
L 240.535079 113.155307 
L 245.98926 109.7151 
L 253.485116 105.298021 
L 263.968973 99.421602 
L 289.412341 85.263367 
L 300.386198 78.881297 
L 310.287907 72.884848 
L 320.136449 66.669959 
L 331.902319 58.965172 
L 343.626218 51.323842 
L 348.501685 48.407094 
L 352.398742 46.363321 
L 355.319806 45.107866 
L 357.266416 44.458571 
L 359.212459 44.004434 
L 361.157961 43.791701 
L 361.157961 43.791701 
" style="fill:none;stroke:#2ca02c;stroke-dasharray:3.7,1.6;stroke-dashoffset:0;"/>
   </g>
   <g id="line2d_47">
    <path clip-path="url(#p6faa0d9c15)" d="M 17.554978 214.557974 
L 57.815508 213.706993 
L 76.840256 212.83317 
L 89.547725 211.935893 
L 99.16795 211.014537 
L 106.952185 210.068462 
L 113.518086 209.097013 
L 119.216323 208.099518 
L 124.265252 207.075295 
L 128.810078 206.023645 
L 136.765675 203.835225 
L 143.614066 201.528486 
L 149.664686 199.097594 
L 155.113788 196.536787 
L 160.093649 193.840571 
L 164.697711 191.004032 
L 168.994413 188.023244 
L 173.035352 184.895845 
L 176.860443 181.621782 
L 180.501175 178.204256 
L 183.982812 174.650828 
L 187.325929 170.974629 
L 192.117322 165.275455 
L 196.68079 159.444624 
L 205.260436 147.941219 
L 210.656291 140.866582 
L 214.565645 136.062855 
L 218.373686 131.73983 
L 222.092772 127.888086 
L 225.733337 124.464116 
L 229.304287 121.407832 
L 232.81331 118.655873 
L 237.406987 115.359483 
L 241.915656 112.383913 
L 247.448892 108.981451 
L 255.035526 104.597943 
L 266.663143 98.176852 
L 290.203537 85.216669 
L 302.222443 78.312868 
L 312.14992 72.366439 
L 322.017977 66.195772 
L 331.840988 59.79338 
L 352.367547 46.283663 
L 356.26603 44.041711 
L 359.18806 42.578778 
L 362.108656 41.399055 
L 364.054982 40.827727 
L 366.000748 40.479262 
L 366.973429 40.404285 
L 366.973429 40.404285 
" style="fill:none;stroke:#d62728;stroke-dasharray:3.7,1.6;stroke-dashoffset:0;"/>
   </g>
   <g id="line2d_48">
    <path clip-path="url(#p6faa0d9c15)" d="M 25.083557 214.461351 
L 65.344086 213.414544 
L 84.368831 212.339636 
L 97.076297 211.23588 
L 106.696524 210.102507 
L 114.480759 208.938733 
L 121.046662 207.743759 
L 126.744896 206.516773 
L 131.793825 205.256951 
L 136.338651 203.963463 
L 140.480878 202.635476 
L 144.294251 201.272159 
L 147.834006 199.872694 
L 151.142642 198.436281 
L 157.193261 195.449577 
L 162.64236 192.306525 
L 167.622223 189.002914 
L 172.226288 185.536642 
L 176.522984 181.908793 
L 180.563928 178.124987 
L 184.389022 174.196951 
L 188.02975 170.144168 
L 191.511384 165.995228 
L 196.479559 159.677966 
L 204.209366 149.324525 
L 210.000522 141.682183 
L 214.159524 136.535782 
L 218.184867 131.950094 
L 222.094219 127.908513 
L 225.902259 124.353055 
L 229.621347 121.207918 
L 233.26191 118.396223 
L 238.009074 115.048462 
L 242.650127 112.03991 
L 248.324387 108.60932 
L 256.071925 104.198182 
L 268.945074 97.180684 
L 291.666288 84.817912 
L 303.758268 77.983321 
L 314.723252 71.52354 
L 324.618951 65.424318 
L 334.462938 59.073561 
L 345.246357 51.826338 
L 357.945744 43.288209 
L 362.820251 40.305709 
L 365.742784 38.727909 
L 368.663848 37.404905 
L 370.610458 36.718997 
L 372.556502 36.238529 
L 374.502003 36.01322 
L 374.502003 36.01322 
" style="fill:none;stroke:#9467bd;stroke-dasharray:3.7,1.6;stroke-dashoffset:0;"/>
   </g>
   <g id="line2d_49">
    <path clip-path="url(#p6faa0d9c15)" d="M 29.714304 214.391178 
L 69.974829 213.202149 
L 88.999578 211.981202 
L 101.707048 210.727488 
L 111.327274 209.440135 
L 119.111509 208.11826 
L 125.677411 206.760962 
L 131.375644 205.367336 
L 136.424572 203.93647 
L 140.969396 202.467454 
L 145.111628 200.959396 
L 148.924998 199.411423 
L 152.464754 197.822703 
L 155.773389 196.192457 
L 158.884242 194.519985 
L 161.824012 192.804688 
L 167.273111 189.24392 
L 172.252972 185.508677 
L 176.857038 181.601622 
L 181.153734 177.531332 
L 185.194674 173.314292 
L 189.019769 168.976905 
L 192.660499 164.556889 
L 197.829873 157.88227 
L 211.773901 139.43925 
L 216.033689 134.354366 
L 220.145969 129.888127 
L 224.130841 125.989745 
L 228.004916 122.576691 
L 231.782039 119.559398 
L 235.473872 116.855383 
L 240.280532 113.619106 
L 246.129708 109.994415 
L 252.955135 106.044352 
L 262.880472 100.582603 
L 300.345668 80.216485 
L 311.389219 73.882517 
L 321.338003 67.935998 
L 331.222194 61.753479 
L 340.075755 55.961202 
L 350.855519 48.624537 
L 362.576492 40.644118 
L 367.450998 37.608186 
L 370.373532 35.99868 
L 373.294595 34.64696 
L 375.241207 33.945334 
L 377.18725 33.453483 
L 379.132749 33.222768 
L 379.132749 33.222768 
" style="fill:none;stroke:#8c564b;stroke-dasharray:3.7,1.6;stroke-dashoffset:0;"/>
   </g>
   <g id="line2d_50">
    <path clip-path="url(#p6faa0d9c15)" d="M 33.705851 214.323086 
L 73.966379 212.996055 
L 92.991124 211.633402 
L 105.698593 210.234179 
L 115.318819 208.79742 
L 123.103053 207.322145 
L 129.668959 205.807366 
L 135.367191 204.252094 
L 140.416116 202.655351 
L 144.960942 201.016177 
L 149.103172 199.333654 
L 152.916546 197.606918 
L 156.456302 195.83519 
L 159.764936 194.017804 
L 162.875789 192.154238 
L 165.815557 190.244164 
L 168.605893 188.287489 
L 173.806689 184.235555 
L 178.588785 180.004893 
L 183.031803 175.610193 
L 187.194991 171.076866 
L 191.123618 166.443174 
L 196.652046 159.421445 
L 212.831657 138.122233 
L 217.20318 133.027504 
L 221.411306 128.59926 
L 225.479069 124.761504 
L 229.425323 121.414015 
L 233.265665 118.457174 
L 238.243644 114.974601 
L 243.08185 111.872781 
L 248.964178 108.35894 
L 256.946682 103.865397 
L 270.112675 96.758201 
L 295.198023 83.236398 
L 308.3672 75.857096 
L 319.369233 69.430063 
L 329.289996 63.366866 
L 338.168847 57.686511 
L 347.011248 51.778763 
L 358.757963 43.637428 
L 367.543331 37.639938 
L 371.442544 35.194071 
L 374.365078 33.553161 
L 377.286144 32.172678 
L 379.232751 31.455139 
L 381.178794 30.951722 
L 383.124298 30.715422 
L 383.124298 30.715422 
" style="fill:none;stroke:#e377c2;stroke-dasharray:3.7,1.6;stroke-dashoffset:0;"/>
   </g>
   <g id="line2d_51">
    <path clip-path="url(#p6faa0d9c15)" d="M 35.321874 214.29332 
L 75.582403 212.905963 
L 94.607149 211.481364 
L 107.314618 210.018534 
L 116.934846 208.516467 
L 124.719078 206.97414 
L 131.284982 205.390531 
L 136.983216 203.764622 
L 142.032145 202.095408 
L 146.576969 200.38192 
L 150.719198 198.623243 
L 154.532567 196.818537 
L 158.072326 194.967074 
L 161.380961 193.068271 
L 164.491814 191.121728 
L 167.431583 189.1273 
L 170.221916 187.085131 
L 175.422712 182.860112 
L 180.204806 178.456734 
L 184.647828 173.89497 
L 188.811016 169.207366 
L 192.739642 164.440845 
L 198.268071 157.280175 
L 211.428738 139.849346 
L 215.924641 134.462846 
L 220.238843 129.782418 
L 224.397841 125.740097 
L 228.423185 122.233088 
L 232.33254 119.154436 
L 236.140583 116.409067 
L 241.081444 113.134947 
L 247.071183 109.476361 
L 254.033911 105.493768 
L 265.215785 99.401959 
L 299.872587 80.719419 
L 311.991869 73.875527 
L 322.974851 67.408197 
L 332.882729 61.297516 
L 341.752686 55.569406 
L 351.568079 48.944542 
L 371.109338 35.586984 
L 375.007098 33.27916 
L 377.92864 31.803499 
L 379.875552 30.998345 
L 381.821876 30.383217 
L 383.767644 30.007244 
L 384.740321 29.926272 
L 384.740321 29.926272 
" style="fill:none;stroke:#7f7f7f;stroke-dasharray:3.7,1.6;stroke-dashoffset:0;"/>
   </g>
   <g id="line2d_52">
    <path clip-path="url(#p6faa0d9c15)" d="M 37.556935 214.24991 
L 77.817461 212.774572 
L 96.842209 211.259631 
L 109.549676 209.704037 
L 119.169905 208.106724 
L 126.954138 206.466616 
L 133.520042 204.782639 
L 139.218274 203.053734 
L 144.267204 201.278876 
L 148.812029 199.457091 
L 152.954259 197.587487 
L 156.76763 195.669288 
L 160.307388 193.701872 
L 163.616022 191.684824 
L 166.726873 189.617995 
L 169.666642 187.50156 
L 172.456979 185.336118 
L 177.657773 180.863165 
L 182.439866 176.215602 
L 186.882889 171.422519 
L 191.046079 166.528275 
L 194.974703 161.593341 
L 200.50313 154.279894 
L 208.952942 142.995177 
L 213.663798 137.104385 
L 216.682744 133.598727 
L 219.616532 130.422375 
L 223.876323 126.220731 
L 227.9886 122.594907 
L 231.973473 119.428739 
L 235.847548 116.61869 
L 240.864239 113.282652 
L 246.932933 109.571275 
L 253.972342 105.546121 
L 264.143648 100.002819 
L 303.12433 78.996541 
L 315.229765 72.129307 
L 325.209909 66.231253 
L 335.117789 60.108281 
L 343.987748 54.365888 
L 353.80314 47.720008 
L 373.344398 34.296728 
L 377.24216 31.972537 
L 380.163702 30.485205 
L 382.110608 29.673258 
L 384.056935 29.052664 
L 386.002704 28.673279 
L 386.975382 28.591552 
L 386.975382 28.591552 
" style="fill:none;stroke:#bcbd22;stroke-dasharray:3.7,1.6;stroke-dashoffset:0;"/>
   </g>
   <g id="line2d_53">
    <path clip-path="url(#p6faa0d9c15)" d="M 42.532834 214.143121 
L 82.793362 212.451353 
L 101.818109 210.714175 
L 114.525579 208.93039 
L 124.1458 207.09879 
L 131.930035 205.218179 
L 138.495939 203.287385 
L 144.194175 201.305293 
L 149.243101 199.270875 
L 153.787931 197.183236 
L 157.930155 195.04167 
L 161.743528 192.845719 
L 165.283283 190.595256 
L 168.591918 188.290577 
L 171.702772 185.932511 
L 174.642542 183.522531 
L 177.432877 181.062898 
L 182.633672 176.008402 
L 187.415765 170.80767 
L 191.858786 165.519176 
L 196.021975 160.221404 
L 203.680008 149.978614 
L 208.960661 142.969782 
L 213.928839 136.774136 
L 217.095172 133.127265 
L 220.160415 129.851054 
L 223.135602 126.91258 
L 227.449798 123.04841 
L 231.608803 119.711874 
L 235.634142 116.778738 
L 240.823445 113.326407 
L 247.070627 109.51554 
L 254.282141 105.407701 
L 264.649053 99.779307 
L 305.045974 78.091499 
L 317.194183 71.235287 
L 328.196218 64.760212 
L 337.127771 59.263737 
L 346.011255 53.543176 
L 354.857272 47.574946 
L 364.652166 40.686861 
L 376.370314 32.428984 
L 380.269529 29.899051 
L 383.192062 28.194668 
L 386.113124 26.755514 
L 388.059737 26.005273 
L 390.005779 25.477865 
L 391.951279 25.230014 
L 391.951279 25.230014 
" style="fill:none;stroke:#17becf;stroke-dasharray:3.7,1.6;stroke-dashoffset:0;"/>
   </g>
   <g id="line2d_54">
    <path clip-path="url(#p6faa0d9c15)" d="M 45.024072 214.083908 
L 85.284601 212.272131 
L 104.309351 210.411725 
L 117.016816 208.501414 
L 126.637043 206.539918 
L 134.421276 204.525983 
L 140.987181 202.458402 
L 146.685414 200.336062 
L 151.734344 198.157981 
L 156.279172 195.923379 
L 160.421395 193.631745 
L 164.234768 191.282936 
L 167.774524 188.877279 
L 171.083161 186.415689 
L 174.194012 183.899827 
L 177.133783 181.332245 
L 179.924115 178.716528 
L 185.124913 173.36124 
L 189.907007 167.889009 
L 194.35003 162.378014 
L 200.504447 154.256975 
L 209.729588 141.972452 
L 213.139642 137.716735 
L 216.420081 133.878201 
L 219.586417 130.441791 
L 222.651658 127.372771 
L 225.626844 124.626565 
L 229.941042 121.01057 
L 234.100041 117.870816 
L 238.125387 115.088215 
L 243.314687 111.779309 
L 249.561866 108.08229 
L 257.94959 103.40923 
L 271.610788 96.102972 
L 299.324373 81.309816 
L 312.620835 73.959865 
L 323.698788 67.606768 
L 333.67076 61.644743 
L 342.584928 56.071766 
L 351.454883 50.262775 
L 360.290349 44.204937 
L 373.006678 35.159677 
L 379.836644 30.420193 
L 383.735127 27.944039 
L 386.65715 26.310693 
L 389.577752 24.981574 
L 391.524077 24.333578 
L 392.403125 24.122687 
L 392.403125 24.122687 
" style="fill:none;stroke:#1f77b4;stroke-dasharray:3.7,1.6;stroke-dashoffset:0;"/>
   </g>
   <g id="line2d_55">
    <path clip-path="url(#p6faa0d9c15)" d="M 46.214213 214.054155 
L 86.474744 212.182077 
L 105.499493 210.259753 
L 118.206959 208.285866 
L 127.827185 206.259105 
L 135.61142 204.178189 
L 142.177323 202.041901 
L 147.875557 199.849137 
L 152.924485 197.598956 
L 157.469312 195.290657 
L 161.611539 192.923865 
L 165.424911 190.498635 
L 168.964667 188.015576 
L 172.2733 185.475999 
L 175.384158 182.882068 
L 178.323923 180.236981 
L 181.114258 177.545128 
L 186.315054 172.045626 
L 191.097148 166.447877 
L 195.540168 160.840511 
L 201.694589 152.649077 
L 209.16041 142.701986 
L 212.642044 138.319369 
L 215.985168 134.368958 
L 219.206784 130.837747 
L 222.321079 127.690677 
L 225.340023 124.881399 
L 229.711548 121.19365 
L 233.919672 118.002539 
L 237.987435 115.182631 
L 243.224881 111.838161 
L 249.52152 108.110493 
L 257.963523 103.40849 
L 271.690129 96.071259 
L 299.480059 81.249469 
L 313.810975 73.327691 
L 324.888927 66.963361 
L 334.860902 60.987053 
L 343.775067 55.396623 
L 352.645027 49.56423 
L 361.480488 43.474837 
L 373.220227 35.06545 
L 381.026783 29.575392 
L 384.925264 27.068377 
L 387.847293 25.411916 
L 390.76789 24.062023 
L 392.403125 23.499415 
L 392.403125 23.499415 
" style="fill:none;stroke:#ff7f0e;stroke-dasharray:3.7,1.6;stroke-dashoffset:0;"/>
   </g>
   <g id="line2d_56">
    <path clip-path="url(#p6faa0d9c15)" d="M 49.884021 213.956032 
L 90.144554 211.885088 
L 109.169298 209.758564 
L 121.87677 207.575021 
L 131.496992 205.333047 
L 139.281228 203.031298 
L 145.84713 200.668561 
L 151.545365 198.243825 
L 156.594292 195.756376 
L 161.139118 193.205907 
L 165.281346 190.592672 
L 169.094719 187.917636 
L 172.634474 185.182683 
L 175.943113 182.390809 
L 179.053964 179.546359 
L 181.993731 176.655237 
L 184.784066 173.725093 
L 189.984862 167.787825 
L 194.766958 161.833349 
L 201.323454 153.141902 
L 209.189489 142.656435 
L 212.830221 138.082713 
L 216.311852 133.992539 
L 219.654973 130.364881 
L 222.87659 127.15455 
L 225.990885 124.305465 
L 230.486795 120.58518 
L 234.800991 117.378511 
L 238.959993 114.549778 
L 244.300562 111.195811 
L 250.702727 107.454502 
L 259.260022 102.729013 
L 274.2447 94.758808 
L 301.075121 80.479223 
L 315.451415 72.566972 
L 327.556853 65.645747 
L 337.536997 59.690652 
L 346.456804 54.126674 
L 355.331146 48.326576 
L 364.170033 42.271697 
L 374.936135 34.595279 
L 383.721505 28.373868 
L 387.620721 25.814342 
L 390.543251 24.087448 
L 392.403125 23.121092 
L 392.403125 23.121092 
" style="fill:none;stroke:#2ca02c;stroke-dasharray:3.7,1.6;stroke-dashoffset:0;"/>
   </g>
   <g id="line2d_57">
    <path clip-path="url(#p6faa0d9c15)" d="M 51.024191 213.923473 
L 91.28472 211.786542 
L 110.309469 209.592264 
L 123.016937 207.339157 
L 132.637162 205.025781 
L 140.421398 202.650782 
L 146.9873 200.212963 
L 152.685533 197.711367 
L 157.73446 195.145393 
L 162.279287 192.514919 
L 166.421514 189.820474 
L 170.234886 187.063439 
L 173.774642 184.246229 
L 177.083278 181.372572 
L 180.194131 178.447706 
L 183.133901 175.478647 
L 185.924235 172.474341 
L 191.125029 166.406003 
L 195.907124 160.353826 
L 204.513335 148.836432 
L 210.329658 141.193623 
L 213.970387 136.708104 
L 217.452021 132.719971 
L 220.795144 129.196135 
L 224.016758 126.083232 
L 227.131056 123.320856 
L 231.626961 119.707684 
L 235.941158 116.582266 
L 241.455857 112.952365 
L 246.743666 109.743212 
L 254.331498 105.42822 
L 265.119299 99.596295 
L 310.469831 75.378395 
L 323.67275 67.959657 
L 334.69495 61.501778 
L 344.629331 55.406784 
L 353.517581 49.685694 
L 362.367323 43.710821 
L 372.165406 36.794231 
L 385.836759 27.085348 
L 389.735242 24.581444 
L 392.403125 23.063944 
L 392.403125 23.063944 
" style="fill:none;stroke:#d62728;stroke-dasharray:3.7,1.6;stroke-dashoffset:0;"/>
   </g>
   <g id="line2d_58">
    <path clip-path="url(#p6faa0d9c15)" d="M 53.607207 213.845824 
L 93.867736 211.551521 
L 112.892484 209.195654 
L 125.599949 206.776652 
L 135.220179 204.293015 
L 143.004414 201.743382 
L 149.570315 199.126634 
L 155.268549 196.442001 
L 160.317478 193.689238 
L 164.862305 190.868796 
L 169.004532 187.982052 
L 172.817902 185.031568 
L 176.35766 182.021369 
L 179.666296 178.957241 
L 182.777148 175.846996 
L 185.716918 172.700696 
L 191.166017 166.352076 
L 196.145876 160.037547 
L 212.912677 137.976128 
L 216.553406 133.715451 
L 220.035037 129.968525 
L 223.37816 126.678069 
L 226.599775 123.776495 
L 229.714074 121.197304 
L 234.20998 117.805169 
L 238.524176 114.84404 
L 244.038875 111.365431 
L 250.617871 107.51728 
L 259.366779 102.69077 
L 274.593882 94.6048 
L 301.67068 80.229288 
L 316.120351 72.313142 
L 328.26856 65.413478 
L 338.274675 59.492036 
L 347.21235 53.967419 
L 356.1006 48.209007 
L 364.950344 42.18455 
L 373.770013 35.903049 
L 389.394673 24.664227 
L 392.403125 22.715833 
L 392.403125 22.715833 
" style="fill:none;stroke:#9467bd;stroke-dasharray:3.7,1.6;stroke-dashoffset:0;"/>
   </g>
   <g id="line2d_59">
    <path clip-path="url(#p6faa0d9c15)" d="M 40.603131 214.186279 
L 86.298835 212.195343 
L 105.918518 210.204407 
L 118.592288 208.213471 
L 127.973909 206.222535 
L 135.427743 204.2316 
L 141.614801 202.240664 
L 146.90622 200.249728 
L 151.531505 198.258793 
L 155.642691 196.267857 
L 159.345857 194.276922 
L 162.718086 192.285986 
L 165.817294 190.29505 
L 168.688208 188.304114 
L 171.36621 186.313179 
L 173.879884 184.322243 
L 176.252747 182.331307 
L 178.504485 180.340373 
L 180.651848 178.349436 
L 182.70928 176.358498 
L 184.689429 174.367564 
L 186.603503 172.37663 
L 188.461582 170.385692 
L 190.272803 168.394755 
L 192.045561 166.403821 
L 193.787658 164.412887 
L 195.506381 162.421949 
L 197.208616 160.431012 
L 198.900894 158.440078 
L 200.589467 156.449144 
L 202.280333 154.458206 
L 203.979248 152.467269 
L 205.691774 150.476331 
L 207.423262 148.485393 
L 209.178868 146.494456 
L 210.963524 144.503526 
L 212.781979 142.512588 
L 214.638703 140.52165 
L 216.537921 138.53072 
L 218.4836 136.539783 
L 220.479366 134.548845 
L 222.528532 132.557907 
L 224.634052 130.56697 
L 226.798495 128.576039 
L 229.024061 126.585102 
L 231.312513 124.594164 
L 233.665192 122.603234 
L 236.083051 120.612296 
L 238.566598 118.621359 
L 241.115915 116.630421 
L 243.730718 114.639483 
L 246.410328 112.648553 
L 249.153754 110.657616 
L 251.959643 108.666678 
L 254.82637 106.675748 
L 257.752091 104.68481 
L 260.734716 102.693873 
L 263.772001 100.702935 
L 266.86155 98.711997 
L 270.000888 96.721067 
L 273.187453 94.730129 
L 276.41866 92.739192 
L 279.691908 90.748262 
L 283.004655 88.757324 
L 286.354331 86.766386 
L 289.738473 84.775456 
L 293.154715 82.784511 
L 296.600699 80.793581 
L 300.074215 78.802651 
L 303.573199 76.811706 
L 307.09558 74.820776 
L 310.639543 72.82983 
L 314.203233 70.8389 
L 317.785027 68.84797 
L 321.383396 66.857025 
L 324.996826 64.866095 
L 328.624044 62.87515 
L 332.263738 60.88422 
L 335.914805 58.893289 
L 339.576187 56.902344 
L 343.246861 54.911414 
L 346.925965 52.920484 
L 350.612725 50.929539 
L 354.306307 48.938609 
L 358.006082 46.947679 
L 361.711448 44.956733 
L 365.421784 42.965803 
L 369.13663 40.974858 
L 372.855464 38.983928 
L 376.577892 36.992998 
L 380.303564 35.002053 
L 384.032072 33.011123 
L 387.763163 31.020177 
L 391.496533 29.029247 
L 392.403125 28.546037 
" style="fill:none;stroke:#000000;stroke-linecap:square;stroke-width:1.5;"/>
   </g>
   <g id="patch_3">
    <path d="M 40.603125 224.64 
L 40.603125 7.2 
" style="fill:none;stroke:#000000;stroke-linecap:square;stroke-linejoin:miter;stroke-width:0.8;"/>
   </g>
   <g id="patch_4">
    <path d="M 375.403125 224.64 
L 375.403125 7.2 
" style="fill:none;stroke:#000000;stroke-linecap:square;stroke-linejoin:miter;stroke-width:0.8;"/>
   </g>
   <g id="patch_5">
    <path d="M 40.603125 224.64 
L 375.403125 224.64 
" style="fill:none;stroke:#000000;stroke-linecap:square;stroke-linejoin:miter;stroke-width:0.8;"/>
   </g>
   <g id="patch_6">
    <path d="M 40.603125 7.2 
L 375.403125 7.2 
" style="fill:none;stroke:#000000;stroke-linecap:square;stroke-linejoin:miter;stroke-width:0.8;"/>
   </g>
   <g id="legend_1">
    <g id="patch_7">
     <path d="M 241.003125 29.878125 
L 368.403125 29.878125 
Q 370.403125 29.878125 370.403125 27.878125 
L 370.403125 14.2 
Q 370.403125 12.2 368.403125 12.2 
L 241.003125 12.2 
Q 239.003125 12.2 239.003125 14.2 
L 239.003125 27.878125 
Q 239.003125 29.878125 241.003125 29.878125 
z
" style="fill:#ffffff;opacity:0.8;stroke:#cccccc;stroke-linejoin:miter;"/>
    </g>
    <g id="line2d_60">
     <path d="M 243.003125 20.298437 
L 263.003125 20.298437 
" style="fill:none;stroke:#000000;stroke-linecap:square;stroke-width:1.5;"/>
    </g>
    <g id="line2d_61"/>
    <g id="text_14">
     <!-- Spalding's function -->
     <g transform="translate(271.003125 23.798437)scale(0.1 -0.1)">
      <defs>
       <path d="M 53.515625 70.515625 
L 53.515625 60.890625 
Q 47.90625 63.578125 42.921875 64.890625 
Q 37.9375 66.21875 33.296875 66.21875 
Q 25.25 66.21875 20.875 63.09375 
Q 16.5 59.96875 16.5 54.203125 
Q 16.5 49.359375 19.40625 46.890625 
Q 22.3125 44.4375 30.421875 42.921875 
L 36.375 41.703125 
Q 47.40625 39.59375 52.65625 34.296875 
Q 57.90625 29 57.90625 20.125 
Q 57.90625 9.515625 50.796875 4.046875 
Q 43.703125 -1.421875 29.984375 -1.421875 
Q 24.8125 -1.421875 18.96875 -0.25 
Q 13.140625 0.921875 6.890625 3.21875 
L 6.890625 13.375 
Q 12.890625 10.015625 18.65625 8.296875 
Q 24.421875 6.59375 29.984375 6.59375 
Q 38.421875 6.59375 43.015625 9.90625 
Q 47.609375 13.234375 47.609375 19.390625 
Q 47.609375 24.75 44.3125 27.78125 
Q 41.015625 30.8125 33.5 32.328125 
L 27.484375 33.5 
Q 16.453125 35.6875 11.515625 40.375 
Q 6.59375 45.0625 6.59375 53.421875 
Q 6.59375 63.09375 13.40625 68.65625 
Q 20.21875 74.21875 32.171875 74.21875 
Q 37.3125 74.21875 42.625 73.28125 
Q 47.953125 72.359375 53.515625 70.515625 
z
" id="DejaVuSans-83"/>
       <path d="M 18.109375 8.203125 
L 18.109375 -20.796875 
L 9.078125 -20.796875 
L 9.078125 54.6875 
L 18.109375 54.6875 
L 18.109375 46.390625 
Q 20.953125 51.265625 25.265625 53.625 
Q 29.59375 56 35.59375 56 
Q 45.5625 56 51.78125 48.09375 
Q 58.015625 40.1875 58.015625 27.296875 
Q 58.015625 14.40625 51.78125 6.484375 
Q 45.5625 -1.421875 35.59375 -1.421875 
Q 29.59375 -1.421875 25.265625 0.953125 
Q 20.953125 3.328125 18.109375 8.203125 
z
M 48.6875 27.296875 
Q 48.6875 37.203125 44.609375 42.84375 
Q 40.53125 48.484375 33.40625 48.484375 
Q 26.265625 48.484375 22.1875 42.84375 
Q 18.109375 37.203125 18.109375 27.296875 
Q 18.109375 17.390625 22.1875 11.75 
Q 26.265625 6.109375 33.40625 6.109375 
Q 40.53125 6.109375 44.609375 11.75 
Q 48.6875 17.390625 48.6875 27.296875 
z
" id="DejaVuSans-112"/>
       <path d="M 34.28125 27.484375 
Q 23.390625 27.484375 19.1875 25 
Q 14.984375 22.515625 14.984375 16.5 
Q 14.984375 11.71875 18.140625 8.90625 
Q 21.296875 6.109375 26.703125 6.109375 
Q 34.1875 6.109375 38.703125 11.40625 
Q 43.21875 16.703125 43.21875 25.484375 
L 43.21875 27.484375 
z
M 52.203125 31.203125 
L 52.203125 0 
L 43.21875 0 
L 43.21875 8.296875 
Q 40.140625 3.328125 35.546875 0.953125 
Q 30.953125 -1.421875 24.3125 -1.421875 
Q 15.921875 -1.421875 10.953125 3.296875 
Q 6 8.015625 6 15.921875 
Q 6 25.140625 12.171875 29.828125 
Q 18.359375 34.515625 30.609375 34.515625 
L 43.21875 34.515625 
L 43.21875 35.40625 
Q 43.21875 41.609375 39.140625 45 
Q 35.0625 48.390625 27.6875 48.390625 
Q 23 48.390625 18.546875 47.265625 
Q 14.109375 46.140625 10.015625 43.890625 
L 10.015625 52.203125 
Q 14.9375 54.109375 19.578125 55.046875 
Q 24.21875 56 28.609375 56 
Q 40.484375 56 46.34375 49.84375 
Q 52.203125 43.703125 52.203125 31.203125 
z
" id="DejaVuSans-97"/>
       <path d="M 9.421875 75.984375 
L 18.40625 75.984375 
L 18.40625 0 
L 9.421875 0 
z
" id="DejaVuSans-108"/>
       <path d="M 45.40625 46.390625 
L 45.40625 75.984375 
L 54.390625 75.984375 
L 54.390625 0 
L 45.40625 0 
L 45.40625 8.203125 
Q 42.578125 3.328125 38.25 0.953125 
Q 33.9375 -1.421875 27.875 -1.421875 
Q 17.96875 -1.421875 11.734375 6.484375 
Q 5.515625 14.40625 5.515625 27.296875 
Q 5.515625 40.1875 11.734375 48.09375 
Q 17.96875 56 27.875 56 
Q 33.9375 56 38.25 53.625 
Q 42.578125 51.265625 45.40625 46.390625 
z
M 14.796875 27.296875 
Q 14.796875 17.390625 18.875 11.75 
Q 22.953125 6.109375 30.078125 6.109375 
Q 37.203125 6.109375 41.296875 11.75 
Q 45.40625 17.390625 45.40625 27.296875 
Q 45.40625 37.203125 41.296875 42.84375 
Q 37.203125 48.484375 30.078125 48.484375 
Q 22.953125 48.484375 18.875 42.84375 
Q 14.796875 37.203125 14.796875 27.296875 
z
" id="DejaVuSans-100"/>
       <path d="M 9.421875 54.6875 
L 18.40625 54.6875 
L 18.40625 0 
L 9.421875 0 
z
M 9.421875 75.984375 
L 18.40625 75.984375 
L 18.40625 64.59375 
L 9.421875 64.59375 
z
" id="DejaVuSans-105"/>
       <path d="M 54.890625 33.015625 
L 54.890625 0 
L 45.90625 0 
L 45.90625 32.71875 
Q 45.90625 40.484375 42.875 44.328125 
Q 39.84375 48.1875 33.796875 48.1875 
Q 26.515625 48.1875 22.3125 43.546875 
Q 18.109375 38.921875 18.109375 30.90625 
L 18.109375 0 
L 9.078125 0 
L 9.078125 54.6875 
L 18.109375 54.6875 
L 18.109375 46.1875 
Q 21.34375 51.125 25.703125 53.5625 
Q 30.078125 56 35.796875 56 
Q 45.21875 56 50.046875 50.171875 
Q 54.890625 44.34375 54.890625 33.015625 
z
" id="DejaVuSans-110"/>
       <path d="M 45.40625 27.984375 
Q 45.40625 37.75 41.375 43.109375 
Q 37.359375 48.484375 30.078125 48.484375 
Q 22.859375 48.484375 18.828125 43.109375 
Q 14.796875 37.75 14.796875 27.984375 
Q 14.796875 18.265625 18.828125 12.890625 
Q 22.859375 7.515625 30.078125 7.515625 
Q 37.359375 7.515625 41.375 12.890625 
Q 45.40625 18.265625 45.40625 27.984375 
z
M 54.390625 6.78125 
Q 54.390625 -7.171875 48.1875 -13.984375 
Q 42 -20.796875 29.203125 -20.796875 
Q 24.46875 -20.796875 20.265625 -20.09375 
Q 16.0625 -19.390625 12.109375 -17.921875 
L 12.109375 -9.1875 
Q 16.0625 -11.328125 19.921875 -12.34375 
Q 23.78125 -13.375 27.78125 -13.375 
Q 36.625 -13.375 41.015625 -8.765625 
Q 45.40625 -4.15625 45.40625 5.171875 
L 45.40625 9.625 
Q 42.625 4.78125 38.28125 2.390625 
Q 33.9375 0 27.875 0 
Q 17.828125 0 11.671875 7.65625 
Q 5.515625 15.328125 5.515625 27.984375 
Q 5.515625 40.671875 11.671875 48.328125 
Q 17.828125 56 27.875 56 
Q 33.9375 56 38.28125 53.609375 
Q 42.625 51.21875 45.40625 46.390625 
L 45.40625 54.6875 
L 54.390625 54.6875 
z
" id="DejaVuSans-103"/>
       <path d="M 17.921875 72.90625 
L 17.921875 45.796875 
L 9.625 45.796875 
L 9.625 72.90625 
z
" id="DejaVuSans-39"/>
       <path d="M 44.28125 53.078125 
L 44.28125 44.578125 
Q 40.484375 46.53125 36.375 47.5 
Q 32.28125 48.484375 27.875 48.484375 
Q 21.1875 48.484375 17.84375 46.4375 
Q 14.5 44.390625 14.5 40.28125 
Q 14.5 37.15625 16.890625 35.375 
Q 19.28125 33.59375 26.515625 31.984375 
L 29.59375 31.296875 
Q 39.15625 29.25 43.1875 25.515625 
Q 47.21875 21.78125 47.21875 15.09375 
Q 47.21875 7.46875 41.1875 3.015625 
Q 35.15625 -1.421875 24.609375 -1.421875 
Q 20.21875 -1.421875 15.453125 -0.5625 
Q 10.6875 0.296875 5.421875 2 
L 5.421875 11.28125 
Q 10.40625 8.6875 15.234375 7.390625 
Q 20.0625 6.109375 24.8125 6.109375 
Q 31.15625 6.109375 34.5625 8.28125 
Q 37.984375 10.453125 37.984375 14.40625 
Q 37.984375 18.0625 35.515625 20.015625 
Q 33.0625 21.96875 24.703125 23.78125 
L 21.578125 24.515625 
Q 13.234375 26.265625 9.515625 29.90625 
Q 5.8125 33.546875 5.8125 39.890625 
Q 5.8125 47.609375 11.28125 51.796875 
Q 16.75 56 26.8125 56 
Q 31.78125 56 36.171875 55.265625 
Q 40.578125 54.546875 44.28125 53.078125 
z
" id="DejaVuSans-115"/>
       <path id="DejaVuSans-32"/>
       <path d="M 37.109375 75.984375 
L 37.109375 68.5 
L 28.515625 68.5 
Q 23.6875 68.5 21.796875 66.546875 
Q 19.921875 64.59375 19.921875 59.515625 
L 19.921875 54.6875 
L 34.71875 54.6875 
L 34.71875 47.703125 
L 19.921875 47.703125 
L 19.921875 0 
L 10.890625 0 
L 10.890625 47.703125 
L 2.296875 47.703125 
L 2.296875 54.6875 
L 10.890625 54.6875 
L 10.890625 58.5 
Q 10.890625 67.625 15.140625 71.796875 
Q 19.390625 75.984375 28.609375 75.984375 
z
" id="DejaVuSans-102"/>
       <path d="M 8.5 21.578125 
L 8.5 54.6875 
L 17.484375 54.6875 
L 17.484375 21.921875 
Q 17.484375 14.15625 20.5 10.265625 
Q 23.53125 6.390625 29.59375 6.390625 
Q 36.859375 6.390625 41.078125 11.03125 
Q 45.3125 15.671875 45.3125 23.6875 
L 45.3125 54.6875 
L 54.296875 54.6875 
L 54.296875 0 
L 45.3125 0 
L 45.3125 8.40625 
Q 42.046875 3.421875 37.71875 1 
Q 33.40625 -1.421875 27.6875 -1.421875 
Q 18.265625 -1.421875 13.375 4.4375 
Q 8.5 10.296875 8.5 21.578125 
z
M 31.109375 56 
z
" id="DejaVuSans-117"/>
       <path d="M 48.78125 52.59375 
L 48.78125 44.1875 
Q 44.96875 46.296875 41.140625 47.34375 
Q 37.3125 48.390625 33.40625 48.390625 
Q 24.65625 48.390625 19.8125 42.84375 
Q 14.984375 37.3125 14.984375 27.296875 
Q 14.984375 17.28125 19.8125 11.734375 
Q 24.65625 6.203125 33.40625 6.203125 
Q 37.3125 6.203125 41.140625 7.25 
Q 44.96875 8.296875 48.78125 10.40625 
L 48.78125 2.09375 
Q 45.015625 0.34375 40.984375 -0.53125 
Q 36.96875 -1.421875 32.421875 -1.421875 
Q 20.0625 -1.421875 12.78125 6.34375 
Q 5.515625 14.109375 5.515625 27.296875 
Q 5.515625 40.671875 12.859375 48.328125 
Q 20.21875 56 33.015625 56 
Q 37.15625 56 41.109375 55.140625 
Q 45.0625 54.296875 48.78125 52.59375 
z
" id="DejaVuSans-99"/>
       <path d="M 18.3125 70.21875 
L 18.3125 54.6875 
L 36.8125 54.6875 
L 36.8125 47.703125 
L 18.3125 47.703125 
L 18.3125 18.015625 
Q 18.3125 11.328125 20.140625 9.421875 
Q 21.96875 7.515625 27.59375 7.515625 
L 36.8125 7.515625 
L 36.8125 0 
L 27.59375 0 
Q 17.1875 0 13.234375 3.875 
Q 9.28125 7.765625 9.28125 18.015625 
L 9.28125 47.703125 
L 2.6875 47.703125 
L 2.6875 54.6875 
L 9.28125 54.6875 
L 9.28125 70.21875 
z
" id="DejaVuSans-116"/>
       <path d="M 30.609375 48.390625 
Q 23.390625 48.390625 19.1875 42.75 
Q 14.984375 37.109375 14.984375 27.296875 
Q 14.984375 17.484375 19.15625 11.84375 
Q 23.34375 6.203125 30.609375 6.203125 
Q 37.796875 6.203125 41.984375 11.859375 
Q 46.1875 17.53125 46.1875 27.296875 
Q 46.1875 37.015625 41.984375 42.703125 
Q 37.796875 48.390625 30.609375 48.390625 
z
M 30.609375 56 
Q 42.328125 56 49.015625 48.375 
Q 55.71875 40.765625 55.71875 27.296875 
Q 55.71875 13.875 49.015625 6.21875 
Q 42.328125 -1.421875 30.609375 -1.421875 
Q 18.84375 -1.421875 12.171875 6.21875 
Q 5.515625 13.875 5.515625 27.296875 
Q 5.515625 40.765625 12.171875 48.375 
Q 18.84375 56 30.609375 56 
z
" id="DejaVuSans-111"/>
      </defs>
      <use xlink:href="#DejaVuSans-83"/>
      <use x="63.476562" xlink:href="#DejaVuSans-112"/>
      <use x="126.953125" xlink:href="#DejaVuSans-97"/>
      <use x="188.232422" xlink:href="#DejaVuSans-108"/>
      <use x="216.015625" xlink:href="#DejaVuSans-100"/>
      <use x="279.492188" xlink:href="#DejaVuSans-105"/>
      <use x="307.275391" xlink:href="#DejaVuSans-110"/>
      <use x="370.654297" xlink:href="#DejaVuSans-103"/>
      <use x="434.130859" xlink:href="#DejaVuSans-39"/>
      <use x="461.621094" xlink:href="#DejaVuSans-115"/>
      <use x="513.720703" xlink:href="#DejaVuSans-32"/>
      <use x="545.507812" xlink:href="#DejaVuSans-102"/>
      <use x="580.712891" xlink:href="#DejaVuSans-117"/>
      <use x="644.091797" xlink:href="#DejaVuSans-110"/>
      <use x="707.470703" xlink:href="#DejaVuSans-99"/>
      <use x="762.451172" xlink:href="#DejaVuSans-116"/>
      <use x="801.660156" xlink:href="#DejaVuSans-105"/>
      <use x="829.443359" xlink:href="#DejaVuSans-111"/>
      <use x="890.625" xlink:href="#DejaVuSans-110"/>
     </g>
    </g>
   </g>
  </g>
 </g>
 <defs>
  <clipPath id="p6faa0d9c15">
   <rect height="217.44" width="334.8" x="40.603125" y="7.2"/>
  </clipPath>
 </defs>
</svg>
