<?xml version="1.0" encoding="utf-8" standalone="no"?>
<!DOCTYPE svg PUBLIC "-//W3C//DTD SVG 1.1//EN"
  "http://www.w3.org/Graphics/SVG/1.1/DTD/svg11.dtd">
<!-- Created with matplotlib (https://matplotlib.org/) -->
<svg height="262.19625pt" version="1.1" viewBox="0 0 392.125 262.19625" width="392.125pt" xmlns="http://www.w3.org/2000/svg" xmlns:xlink="http://www.w3.org/1999/xlink">
 <metadata>
  <rdf:RDF xmlns:cc="http://creativecommons.org/ns#" xmlns:dc="http://purl.org/dc/elements/1.1/" xmlns:rdf="http://www.w3.org/1999/02/22-rdf-syntax-ns#">
   <cc:Work>
    <dc:type rdf:resource="http://purl.org/dc/dcmitype/StillImage"/>
    <dc:date>2021-11-09T19:49:04.311025</dc:date>
    <dc:format>image/svg+xml</dc:format>
    <dc:creator>
     <cc:Agent>
      <dc:title>Matplotlib v3.3.3, https://matplotlib.org/</dc:title>
     </cc:Agent>
    </dc:creator>
   </cc:Work>
  </rdf:RDF>
 </metadata>
 <defs>
  <style type="text/css">*{stroke-linecap:butt;stroke-linejoin:round;}</style>
 </defs>
 <g id="figure_1">
  <g id="patch_1">
   <path d="M 0 262.19625 
L 392.125 262.19625 
L 392.125 0 
L 0 0 
z
" style="fill:none;"/>
  </g>
  <g id="axes_1">
   <g id="patch_2">
    <path d="M 41.325 224.64 
L 376.125 224.64 
L 376.125 7.2 
L 41.325 7.2 
z
" style="fill:#ffffff;"/>
   </g>
   <g id="matplotlib.axis_1">
    <g id="xtick_1">
     <g id="line2d_1">
      <defs>
       <path d="M 0 0 
L 0 3.5 
" id="m15ab1514dc" style="stroke:#000000;stroke-width:0.8;"/>
      </defs>
      <g>
       <use style="stroke:#000000;stroke-width:0.8;" x="41.325" xlink:href="#m15ab1514dc" y="224.64"/>
      </g>
     </g>
     <g id="text_1">
      <!-- $\mathdefault{10^{-1}}$ -->
      <g transform="translate(29.575 239.238437)scale(0.1 -0.1)">
       <defs>
        <path d="M 12.40625 8.296875 
L 28.515625 8.296875 
L 28.515625 63.921875 
L 10.984375 60.40625 
L 10.984375 69.390625 
L 28.421875 72.90625 
L 38.28125 72.90625 
L 38.28125 8.296875 
L 54.390625 8.296875 
L 54.390625 0 
L 12.40625 0 
z
" id="DejaVuSans-49"/>
        <path d="M 31.78125 66.40625 
Q 24.171875 66.40625 20.328125 58.90625 
Q 16.5 51.421875 16.5 36.375 
Q 16.5 21.390625 20.328125 13.890625 
Q 24.171875 6.390625 31.78125 6.390625 
Q 39.453125 6.390625 43.28125 13.890625 
Q 47.125 21.390625 47.125 36.375 
Q 47.125 51.421875 43.28125 58.90625 
Q 39.453125 66.40625 31.78125 66.40625 
z
M 31.78125 74.21875 
Q 44.046875 74.21875 50.515625 64.515625 
Q 56.984375 54.828125 56.984375 36.375 
Q 56.984375 17.96875 50.515625 8.265625 
Q 44.046875 -1.421875 31.78125 -1.421875 
Q 19.53125 -1.421875 13.0625 8.265625 
Q 6.59375 17.96875 6.59375 36.375 
Q 6.59375 54.828125 13.0625 64.515625 
Q 19.53125 74.21875 31.78125 74.21875 
z
" id="DejaVuSans-48"/>
        <path d="M 10.59375 35.5 
L 73.1875 35.5 
L 73.1875 27.203125 
L 10.59375 27.203125 
z
" id="DejaVuSans-8722"/>
       </defs>
       <use transform="translate(0 0.684375)" xlink:href="#DejaVuSans-49"/>
       <use transform="translate(63.623047 0.684375)" xlink:href="#DejaVuSans-48"/>
       <use transform="translate(128.203125 38.965625)scale(0.7)" xlink:href="#DejaVuSans-8722"/>
       <use transform="translate(186.855469 38.965625)scale(0.7)" xlink:href="#DejaVuSans-49"/>
      </g>
     </g>
    </g>
    <g id="xtick_2">
     <g id="line2d_2">
      <g>
       <use style="stroke:#000000;stroke-width:0.8;" x="125.025" xlink:href="#m15ab1514dc" y="224.64"/>
      </g>
     </g>
     <g id="text_2">
      <!-- $\mathdefault{10^{0}}$ -->
      <g transform="translate(116.225 239.238437)scale(0.1 -0.1)">
       <use transform="translate(0 0.765625)" xlink:href="#DejaVuSans-49"/>
       <use transform="translate(63.623047 0.765625)" xlink:href="#DejaVuSans-48"/>
       <use transform="translate(128.203125 39.046875)scale(0.7)" xlink:href="#DejaVuSans-48"/>
      </g>
     </g>
    </g>
    <g id="xtick_3">
     <g id="line2d_3">
      <g>
       <use style="stroke:#000000;stroke-width:0.8;" x="208.725" xlink:href="#m15ab1514dc" y="224.64"/>
      </g>
     </g>
     <g id="text_3">
      <!-- $\mathdefault{10^{1}}$ -->
      <g transform="translate(199.925 239.238437)scale(0.1 -0.1)">
       <use transform="translate(0 0.684375)" xlink:href="#DejaVuSans-49"/>
       <use transform="translate(63.623047 0.684375)" xlink:href="#DejaVuSans-48"/>
       <use transform="translate(128.203125 38.965625)scale(0.7)" xlink:href="#DejaVuSans-49"/>
      </g>
     </g>
    </g>
    <g id="xtick_4">
     <g id="line2d_4">
      <g>
       <use style="stroke:#000000;stroke-width:0.8;" x="292.425" xlink:href="#m15ab1514dc" y="224.64"/>
      </g>
     </g>
     <g id="text_4">
      <!-- $\mathdefault{10^{2}}$ -->
      <g transform="translate(283.625 239.238437)scale(0.1 -0.1)">
       <defs>
        <path d="M 19.1875 8.296875 
L 53.609375 8.296875 
L 53.609375 0 
L 7.328125 0 
L 7.328125 8.296875 
Q 12.9375 14.109375 22.625 23.890625 
Q 32.328125 33.6875 34.8125 36.53125 
Q 39.546875 41.84375 41.421875 45.53125 
Q 43.3125 49.21875 43.3125 52.78125 
Q 43.3125 58.59375 39.234375 62.25 
Q 35.15625 65.921875 28.609375 65.921875 
Q 23.96875 65.921875 18.8125 64.3125 
Q 13.671875 62.703125 7.8125 59.421875 
L 7.8125 69.390625 
Q 13.765625 71.78125 18.9375 73 
Q 24.125 74.21875 28.421875 74.21875 
Q 39.75 74.21875 46.484375 68.546875 
Q 53.21875 62.890625 53.21875 53.421875 
Q 53.21875 48.921875 51.53125 44.890625 
Q 49.859375 40.875 45.40625 35.40625 
Q 44.1875 33.984375 37.640625 27.21875 
Q 31.109375 20.453125 19.1875 8.296875 
z
" id="DejaVuSans-50"/>
       </defs>
       <use transform="translate(0 0.765625)" xlink:href="#DejaVuSans-49"/>
       <use transform="translate(63.623047 0.765625)" xlink:href="#DejaVuSans-48"/>
       <use transform="translate(128.203125 39.046875)scale(0.7)" xlink:href="#DejaVuSans-50"/>
      </g>
     </g>
    </g>
    <g id="xtick_5">
     <g id="line2d_5">
      <g>
       <use style="stroke:#000000;stroke-width:0.8;" x="376.125" xlink:href="#m15ab1514dc" y="224.64"/>
      </g>
     </g>
     <g id="text_5">
      <!-- $\mathdefault{10^{3}}$ -->
      <g transform="translate(367.325 239.238437)scale(0.1 -0.1)">
       <defs>
        <path d="M 40.578125 39.3125 
Q 47.65625 37.796875 51.625 33 
Q 55.609375 28.21875 55.609375 21.1875 
Q 55.609375 10.40625 48.1875 4.484375 
Q 40.765625 -1.421875 27.09375 -1.421875 
Q 22.515625 -1.421875 17.65625 -0.515625 
Q 12.796875 0.390625 7.625 2.203125 
L 7.625 11.71875 
Q 11.71875 9.328125 16.59375 8.109375 
Q 21.484375 6.890625 26.8125 6.890625 
Q 36.078125 6.890625 40.9375 10.546875 
Q 45.796875 14.203125 45.796875 21.1875 
Q 45.796875 27.640625 41.28125 31.265625 
Q 36.765625 34.90625 28.71875 34.90625 
L 20.21875 34.90625 
L 20.21875 43.015625 
L 29.109375 43.015625 
Q 36.375 43.015625 40.234375 45.921875 
Q 44.09375 48.828125 44.09375 54.296875 
Q 44.09375 59.90625 40.109375 62.90625 
Q 36.140625 65.921875 28.71875 65.921875 
Q 24.65625 65.921875 20.015625 65.03125 
Q 15.375 64.15625 9.8125 62.3125 
L 9.8125 71.09375 
Q 15.4375 72.65625 20.34375 73.4375 
Q 25.25 74.21875 29.59375 74.21875 
Q 40.828125 74.21875 47.359375 69.109375 
Q 53.90625 64.015625 53.90625 55.328125 
Q 53.90625 49.265625 50.4375 45.09375 
Q 46.96875 40.921875 40.578125 39.3125 
z
" id="DejaVuSans-51"/>
       </defs>
       <use transform="translate(0 0.765625)" xlink:href="#DejaVuSans-49"/>
       <use transform="translate(63.623047 0.765625)" xlink:href="#DejaVuSans-48"/>
       <use transform="translate(128.203125 39.046875)scale(0.7)" xlink:href="#DejaVuSans-51"/>
      </g>
     </g>
    </g>
    <g id="xtick_6">
     <g id="line2d_6">
      <defs>
       <path d="M 0 0 
L 0 2 
" id="m69571f0601" style="stroke:#000000;stroke-width:0.6;"/>
      </defs>
      <g>
       <use style="stroke:#000000;stroke-width:0.6;" x="66.521211" xlink:href="#m69571f0601" y="224.64"/>
      </g>
     </g>
    </g>
    <g id="xtick_7">
     <g id="line2d_7">
      <g>
       <use style="stroke:#000000;stroke-width:0.6;" x="81.260049" xlink:href="#m69571f0601" y="224.64"/>
      </g>
     </g>
    </g>
    <g id="xtick_8">
     <g id="line2d_8">
      <g>
       <use style="stroke:#000000;stroke-width:0.6;" x="91.717421" xlink:href="#m69571f0601" y="224.64"/>
      </g>
     </g>
    </g>
    <g id="xtick_9">
     <g id="line2d_9">
      <g>
       <use style="stroke:#000000;stroke-width:0.6;" x="99.828789" xlink:href="#m69571f0601" y="224.64"/>
      </g>
     </g>
    </g>
    <g id="xtick_10">
     <g id="line2d_10">
      <g>
       <use style="stroke:#000000;stroke-width:0.6;" x="106.45626" xlink:href="#m69571f0601" y="224.64"/>
      </g>
     </g>
    </g>
    <g id="xtick_11">
     <g id="line2d_11">
      <g>
       <use style="stroke:#000000;stroke-width:0.6;" x="112.059706" xlink:href="#m69571f0601" y="224.64"/>
      </g>
     </g>
    </g>
    <g id="xtick_12">
     <g id="line2d_12">
      <g>
       <use style="stroke:#000000;stroke-width:0.6;" x="116.913632" xlink:href="#m69571f0601" y="224.64"/>
      </g>
     </g>
    </g>
    <g id="xtick_13">
     <g id="line2d_13">
      <g>
       <use style="stroke:#000000;stroke-width:0.6;" x="121.195098" xlink:href="#m69571f0601" y="224.64"/>
      </g>
     </g>
    </g>
    <g id="xtick_14">
     <g id="line2d_14">
      <g>
       <use style="stroke:#000000;stroke-width:0.6;" x="150.221211" xlink:href="#m69571f0601" y="224.64"/>
      </g>
     </g>
    </g>
    <g id="xtick_15">
     <g id="line2d_15">
      <g>
       <use style="stroke:#000000;stroke-width:0.6;" x="164.960049" xlink:href="#m69571f0601" y="224.64"/>
      </g>
     </g>
    </g>
    <g id="xtick_16">
     <g id="line2d_16">
      <g>
       <use style="stroke:#000000;stroke-width:0.6;" x="175.417421" xlink:href="#m69571f0601" y="224.64"/>
      </g>
     </g>
    </g>
    <g id="xtick_17">
     <g id="line2d_17">
      <g>
       <use style="stroke:#000000;stroke-width:0.6;" x="183.528789" xlink:href="#m69571f0601" y="224.64"/>
      </g>
     </g>
    </g>
    <g id="xtick_18">
     <g id="line2d_18">
      <g>
       <use style="stroke:#000000;stroke-width:0.6;" x="190.15626" xlink:href="#m69571f0601" y="224.64"/>
      </g>
     </g>
    </g>
    <g id="xtick_19">
     <g id="line2d_19">
      <g>
       <use style="stroke:#000000;stroke-width:0.6;" x="195.759706" xlink:href="#m69571f0601" y="224.64"/>
      </g>
     </g>
    </g>
    <g id="xtick_20">
     <g id="line2d_20">
      <g>
       <use style="stroke:#000000;stroke-width:0.6;" x="200.613632" xlink:href="#m69571f0601" y="224.64"/>
      </g>
     </g>
    </g>
    <g id="xtick_21">
     <g id="line2d_21">
      <g>
       <use style="stroke:#000000;stroke-width:0.6;" x="204.895098" xlink:href="#m69571f0601" y="224.64"/>
      </g>
     </g>
    </g>
    <g id="xtick_22">
     <g id="line2d_22">
      <g>
       <use style="stroke:#000000;stroke-width:0.6;" x="233.921211" xlink:href="#m69571f0601" y="224.64"/>
      </g>
     </g>
    </g>
    <g id="xtick_23">
     <g id="line2d_23">
      <g>
       <use style="stroke:#000000;stroke-width:0.6;" x="248.660049" xlink:href="#m69571f0601" y="224.64"/>
      </g>
     </g>
    </g>
    <g id="xtick_24">
     <g id="line2d_24">
      <g>
       <use style="stroke:#000000;stroke-width:0.6;" x="259.117421" xlink:href="#m69571f0601" y="224.64"/>
      </g>
     </g>
    </g>
    <g id="xtick_25">
     <g id="line2d_25">
      <g>
       <use style="stroke:#000000;stroke-width:0.6;" x="267.228789" xlink:href="#m69571f0601" y="224.64"/>
      </g>
     </g>
    </g>
    <g id="xtick_26">
     <g id="line2d_26">
      <g>
       <use style="stroke:#000000;stroke-width:0.6;" x="273.85626" xlink:href="#m69571f0601" y="224.64"/>
      </g>
     </g>
    </g>
    <g id="xtick_27">
     <g id="line2d_27">
      <g>
       <use style="stroke:#000000;stroke-width:0.6;" x="279.459706" xlink:href="#m69571f0601" y="224.64"/>
      </g>
     </g>
    </g>
    <g id="xtick_28">
     <g id="line2d_28">
      <g>
       <use style="stroke:#000000;stroke-width:0.6;" x="284.313632" xlink:href="#m69571f0601" y="224.64"/>
      </g>
     </g>
    </g>
    <g id="xtick_29">
     <g id="line2d_29">
      <g>
       <use style="stroke:#000000;stroke-width:0.6;" x="288.595098" xlink:href="#m69571f0601" y="224.64"/>
      </g>
     </g>
    </g>
    <g id="xtick_30">
     <g id="line2d_30">
      <g>
       <use style="stroke:#000000;stroke-width:0.6;" x="317.621211" xlink:href="#m69571f0601" y="224.64"/>
      </g>
     </g>
    </g>
    <g id="xtick_31">
     <g id="line2d_31">
      <g>
       <use style="stroke:#000000;stroke-width:0.6;" x="332.360049" xlink:href="#m69571f0601" y="224.64"/>
      </g>
     </g>
    </g>
    <g id="xtick_32">
     <g id="line2d_32">
      <g>
       <use style="stroke:#000000;stroke-width:0.6;" x="342.817421" xlink:href="#m69571f0601" y="224.64"/>
      </g>
     </g>
    </g>
    <g id="xtick_33">
     <g id="line2d_33">
      <g>
       <use style="stroke:#000000;stroke-width:0.6;" x="350.928789" xlink:href="#m69571f0601" y="224.64"/>
      </g>
     </g>
    </g>
    <g id="xtick_34">
     <g id="line2d_34">
      <g>
       <use style="stroke:#000000;stroke-width:0.6;" x="357.55626" xlink:href="#m69571f0601" y="224.64"/>
      </g>
     </g>
    </g>
    <g id="xtick_35">
     <g id="line2d_35">
      <g>
       <use style="stroke:#000000;stroke-width:0.6;" x="363.159706" xlink:href="#m69571f0601" y="224.64"/>
      </g>
     </g>
    </g>
    <g id="xtick_36">
     <g id="line2d_36">
      <g>
       <use style="stroke:#000000;stroke-width:0.6;" x="368.013632" xlink:href="#m69571f0601" y="224.64"/>
      </g>
     </g>
    </g>
    <g id="xtick_37">
     <g id="line2d_37">
      <g>
       <use style="stroke:#000000;stroke-width:0.6;" x="372.295098" xlink:href="#m69571f0601" y="224.64"/>
      </g>
     </g>
    </g>
    <g id="text_6">
     <!-- $u^+$ -->
     <g transform="translate(200.875 252.916562)scale(0.1 -0.1)">
      <defs>
       <path d="M 6.6875 21.6875 
L 13.09375 54.6875 
L 22.125 54.6875 
L 15.71875 22.015625 
Q 15.234375 19.625 15.015625 17.921875 
Q 14.796875 16.21875 14.796875 15.09375 
Q 14.796875 10.9375 17.328125 8.65625 
Q 19.875 6.390625 24.515625 6.390625 
Q 31.734375 6.390625 37 11.265625 
Q 42.28125 16.15625 43.890625 24.421875 
L 49.90625 54.6875 
L 58.890625 54.6875 
L 48.296875 0 
L 39.3125 0 
L 41.109375 8.59375 
Q 37.3125 3.8125 32.0625 1.1875 
Q 26.8125 -1.421875 20.90625 -1.421875 
Q 13.71875 -1.421875 9.71875 2.515625 
Q 5.71875 6.453125 5.71875 13.484375 
Q 5.71875 14.9375 5.953125 17.140625 
Q 6.203125 19.34375 6.6875 21.6875 
z
" id="DejaVuSans-Oblique-117"/>
       <path d="M 46 62.703125 
L 46 35.5 
L 73.1875 35.5 
L 73.1875 27.203125 
L 46 27.203125 
L 46 0 
L 37.796875 0 
L 37.796875 27.203125 
L 10.59375 27.203125 
L 10.59375 35.5 
L 37.796875 35.5 
L 37.796875 62.703125 
z
" id="DejaVuSans-43"/>
      </defs>
      <use transform="translate(0 0.826562)" xlink:href="#DejaVuSans-Oblique-117"/>
      <use transform="translate(81.482747 39.107812)scale(0.7)" xlink:href="#DejaVuSans-43"/>
     </g>
    </g>
   </g>
   <g id="matplotlib.axis_2">
    <g id="ytick_1">
     <g id="line2d_38">
      <defs>
       <path d="M 0 0 
L -3.5 0 
" id="m65ee4539da" style="stroke:#000000;stroke-width:0.8;"/>
      </defs>
      <g>
       <use style="stroke:#000000;stroke-width:0.8;" x="41.325" xlink:href="#m65ee4539da" y="214.977856"/>
      </g>
     </g>
     <g id="text_7">
      <!-- 0 -->
      <g transform="translate(27.9625 218.777074)scale(0.1 -0.1)">
       <use xlink:href="#DejaVuSans-48"/>
      </g>
     </g>
    </g>
    <g id="ytick_2">
     <g id="line2d_39">
      <g>
       <use style="stroke:#000000;stroke-width:0.8;" x="41.325" xlink:href="#m65ee4539da" y="175.399012"/>
      </g>
     </g>
     <g id="text_8">
      <!-- 5 -->
      <g transform="translate(27.9625 179.19823)scale(0.1 -0.1)">
       <defs>
        <path d="M 10.796875 72.90625 
L 49.515625 72.90625 
L 49.515625 64.59375 
L 19.828125 64.59375 
L 19.828125 46.734375 
Q 21.96875 47.46875 24.109375 47.828125 
Q 26.265625 48.1875 28.421875 48.1875 
Q 40.625 48.1875 47.75 41.5 
Q 54.890625 34.8125 54.890625 23.390625 
Q 54.890625 11.625 47.5625 5.09375 
Q 40.234375 -1.421875 26.90625 -1.421875 
Q 22.3125 -1.421875 17.546875 -0.640625 
Q 12.796875 0.140625 7.71875 1.703125 
L 7.71875 11.625 
Q 12.109375 9.234375 16.796875 8.0625 
Q 21.484375 6.890625 26.703125 6.890625 
Q 35.15625 6.890625 40.078125 11.328125 
Q 45.015625 15.765625 45.015625 23.390625 
Q 45.015625 31 40.078125 35.4375 
Q 35.15625 39.890625 26.703125 39.890625 
Q 22.75 39.890625 18.8125 39.015625 
Q 14.890625 38.140625 10.796875 36.28125 
z
" id="DejaVuSans-53"/>
       </defs>
       <use xlink:href="#DejaVuSans-53"/>
      </g>
     </g>
    </g>
    <g id="ytick_3">
     <g id="line2d_40">
      <g>
       <use style="stroke:#000000;stroke-width:0.8;" x="41.325" xlink:href="#m65ee4539da" y="135.820168"/>
      </g>
     </g>
     <g id="text_9">
      <!-- 10 -->
      <g transform="translate(21.6 139.619387)scale(0.1 -0.1)">
       <use xlink:href="#DejaVuSans-49"/>
       <use x="63.623047" xlink:href="#DejaVuSans-48"/>
      </g>
     </g>
    </g>
    <g id="ytick_4">
     <g id="line2d_41">
      <g>
       <use style="stroke:#000000;stroke-width:0.8;" x="41.325" xlink:href="#m65ee4539da" y="96.241324"/>
      </g>
     </g>
     <g id="text_10">
      <!-- 15 -->
      <g transform="translate(21.6 100.040543)scale(0.1 -0.1)">
       <use xlink:href="#DejaVuSans-49"/>
       <use x="63.623047" xlink:href="#DejaVuSans-53"/>
      </g>
     </g>
    </g>
    <g id="ytick_5">
     <g id="line2d_42">
      <g>
       <use style="stroke:#000000;stroke-width:0.8;" x="41.325" xlink:href="#m65ee4539da" y="56.66248"/>
      </g>
     </g>
     <g id="text_11">
      <!-- 20 -->
      <g transform="translate(21.6 60.461699)scale(0.1 -0.1)">
       <use xlink:href="#DejaVuSans-50"/>
       <use x="63.623047" xlink:href="#DejaVuSans-48"/>
      </g>
     </g>
    </g>
    <g id="ytick_6">
     <g id="line2d_43">
      <g>
       <use style="stroke:#000000;stroke-width:0.8;" x="41.325" xlink:href="#m65ee4539da" y="17.083636"/>
      </g>
     </g>
     <g id="text_12">
      <!-- 25 -->
      <g transform="translate(21.6 20.882855)scale(0.1 -0.1)">
       <use xlink:href="#DejaVuSans-50"/>
       <use x="63.623047" xlink:href="#DejaVuSans-53"/>
      </g>
     </g>
    </g>
    <g id="text_13">
     <!-- $y^+$ -->
     <g transform="translate(15.5 123.57)rotate(-90)scale(0.1 -0.1)">
      <defs>
       <path d="M 24.8125 -5.078125 
Q 18.5625 -15.578125 14.625 -18.1875 
Q 10.6875 -20.796875 4.59375 -20.796875 
L -2.484375 -20.796875 
L -0.984375 -13.28125 
L 4.203125 -13.28125 
Q 7.953125 -13.28125 10.59375 -11.234375 
Q 13.234375 -9.1875 16.5 -3.21875 
L 19.28125 2 
L 7.171875 54.6875 
L 16.703125 54.6875 
L 25.78125 12.796875 
L 50.875 54.6875 
L 60.296875 54.6875 
z
" id="DejaVuSans-Oblique-121"/>
      </defs>
      <use transform="translate(0 0.826562)" xlink:href="#DejaVuSans-Oblique-121"/>
      <use transform="translate(77.283529 39.107812)scale(0.7)" xlink:href="#DejaVuSans-43"/>
     </g>
    </g>
   </g>
   <g id="line2d_44">
    <path clip-path="url(#pa4bd13be14)" d="M -1 214.712071 
L 35.288101 214.307463 
L 54.312849 213.846512 
L 67.020319 213.373189 
L 84.424777 212.388097 
L 96.688914 211.349435 
L 106.28267 210.25431 
L 114.238267 209.099673 
L 121.086658 207.882323 
L 127.137281 206.598896 
L 132.58638 205.245865 
L 137.566239 203.819538 
L 142.170307 202.316066 
L 146.467004 200.731448 
L 150.507947 199.06155 
L 154.33304 197.302132 
L 157.97377 195.448886 
L 161.455404 193.497509 
L 164.798526 191.443774 
L 168.020141 189.283666 
L 171.134437 187.013543 
L 175.630346 183.395635 
L 179.944538 179.51731 
L 184.10354 175.379754 
L 188.128887 170.995329 
L 192.038237 166.391825 
L 197.095308 159.997612 
L 204.403574 150.223679 
L 211.44298 140.902244 
L 216.014245 135.267833 
L 219.38825 131.422188 
L 222.720793 127.909132 
L 226.015943 124.710231 
L 229.277322 121.793363 
L 233.578762 118.276706 
L 237.832449 115.102641 
L 243.091044 111.494754 
L 249.327874 107.529653 
L 257.540717 102.612939 
L 296.535462 79.68639 
L 308.332975 72.278688 
L 326.914279 60.530546 
L 331.789745 57.749712 
L 335.686803 55.811308 
L 338.607867 54.625093 
L 340.554477 54.01303 
L 342.500518 53.585542 
L 344.446018 53.385476 
L 344.446018 53.385476 
" style="fill:none;stroke:#1f77b4;stroke-dasharray:3.7,1.6;stroke-dashoffset:0;"/>
   </g>
   <g id="line2d_45">
    <path clip-path="url(#pa4bd13be14)" d="M -0.118874 214.724725 
L 40.141654 214.2117 
L 59.166401 213.684905 
L 71.87387 213.143971 
L 81.494096 212.588519 
L 95.844234 211.432505 
L 106.591397 210.213638 
L 115.278451 208.928529 
L 122.631576 207.573615 
L 129.051065 206.145157 
L 134.781168 204.639245 
L 139.981963 203.051795 
L 144.764058 201.378565 
L 149.20708 199.615175 
L 153.370269 197.757137 
L 157.298894 195.79991 
L 161.028301 193.738968 
L 164.586643 191.569914 
L 167.996694 189.288622 
L 171.277131 186.891448 
L 174.443465 184.375485 
L 177.508713 181.738928 
L 181.940726 177.557927 
L 186.200513 173.113879 
L 190.312791 168.430439 
L 194.297663 163.551218 
L 199.440942 156.859692 
L 212.806646 139.143312 
L 216.296532 134.915201 
L 219.733137 131.041489 
L 223.121961 127.520778 
L 226.46784 124.328875 
L 229.775038 121.428411 
L 234.130871 117.941271 
L 238.432314 114.799599 
L 243.742648 111.231103 
L 250.031816 107.308511 
L 258.301111 102.440903 
L 295.465274 80.940244 
L 306.311939 74.245537 
L 319.065232 66.085359 
L 330.79213 58.621523 
L 335.668587 55.751867 
L 339.566349 53.709301 
L 342.48789 52.417097 
L 345.408028 51.42749 
L 347.354072 50.993706 
L 349.299575 50.790666 
L 349.299575 50.790666 
" style="fill:none;stroke:#ff7f0e;stroke-dasharray:3.7,1.6;stroke-dashoffset:0;"/>
   </g>
   <g id="line2d_46">
    <path clip-path="url(#pa4bd13be14)" d="M 12.461388 214.62005 
L 52.721917 213.89488 
L 71.746664 213.150244 
L 84.454132 212.385622 
L 94.074358 211.600481 
L 101.85859 210.794273 
L 108.424497 209.966439 
L 114.122731 209.116403 
L 123.716484 207.347367 
L 131.672082 205.482311 
L 138.520474 203.516184 
L 144.571095 201.443782 
L 150.020197 199.259787 
L 155.000054 196.958869 
L 159.604119 194.535806 
L 163.900816 191.985669 
L 167.94176 189.304107 
L 171.766855 186.487692 
L 175.407585 183.534424 
L 178.889218 180.44435 
L 182.232341 177.220352 
L 185.453955 173.86905 
L 190.088973 168.629667 
L 194.520987 163.193158 
L 200.166846 155.80485 
L 210.751998 141.682983 
L 214.529122 136.974813 
L 218.220956 132.693028 
L 221.837386 128.843065 
L 225.386904 125.396577 
L 228.876794 122.305725 
L 232.313398 119.515583 
L 236.822064 116.171106 
L 241.256954 113.155307 
L 246.711135 109.7151 
L 254.206991 105.298021 
L 264.690848 99.421602 
L 290.134216 85.263367 
L 301.108073 78.881297 
L 311.009782 72.884848 
L 320.858324 66.669959 
L 332.624194 58.965172 
L 344.348093 51.323842 
L 349.22356 48.407094 
L 353.120617 46.363321 
L 356.041681 45.107866 
L 357.988291 44.458571 
L 359.934334 44.004434 
L 361.879836 43.791701 
L 361.879836 43.791701 
" style="fill:none;stroke:#2ca02c;stroke-dasharray:3.7,1.6;stroke-dashoffset:0;"/>
   </g>
   <g id="line2d_47">
    <path clip-path="url(#pa4bd13be14)" d="M 18.276853 214.557974 
L 58.537383 213.706993 
L 77.562131 212.83317 
L 90.2696 211.935893 
L 99.889825 211.014537 
L 107.67406 210.068462 
L 114.239961 209.097013 
L 119.938198 208.099518 
L 124.987127 207.075295 
L 129.531953 206.023645 
L 137.48755 203.835225 
L 144.335941 201.528486 
L 150.386561 199.097594 
L 155.835663 196.536787 
L 160.815524 193.840571 
L 165.419586 191.004032 
L 169.716288 188.023244 
L 173.757227 184.895845 
L 177.582318 181.621782 
L 181.22305 178.204256 
L 184.704687 174.650828 
L 188.047804 170.974629 
L 192.839197 165.275455 
L 197.402665 159.444624 
L 205.982311 147.941219 
L 211.378166 140.866582 
L 215.28752 136.062855 
L 219.095561 131.73983 
L 222.814647 127.888086 
L 226.455212 124.464116 
L 230.026162 121.407832 
L 233.535185 118.655873 
L 238.128862 115.359483 
L 242.637531 112.383913 
L 248.170767 108.981451 
L 255.757401 104.597943 
L 267.385018 98.176852 
L 290.925412 85.216669 
L 302.944318 78.312868 
L 312.871795 72.366439 
L 322.739852 66.195772 
L 332.562863 59.79338 
L 353.089422 46.283663 
L 356.987905 44.041711 
L 359.909935 42.578778 
L 362.830531 41.399055 
L 364.776857 40.827727 
L 366.722623 40.479262 
L 367.695304 40.404285 
L 367.695304 40.404285 
" style="fill:none;stroke:#d62728;stroke-dasharray:3.7,1.6;stroke-dashoffset:0;"/>
   </g>
   <g id="line2d_48">
    <path clip-path="url(#pa4bd13be14)" d="M 25.805432 214.461351 
L 66.065961 213.414544 
L 85.090706 212.339636 
L 97.798172 211.23588 
L 107.418399 210.102507 
L 115.202634 208.938733 
L 121.768537 207.743759 
L 127.466771 206.516773 
L 132.5157 205.256951 
L 137.060526 203.963463 
L 141.202753 202.635476 
L 145.016126 201.272159 
L 148.555881 199.872694 
L 151.864517 198.436281 
L 157.915136 195.449577 
L 163.364235 192.306525 
L 168.344098 189.002914 
L 172.948163 185.536642 
L 177.244859 181.908793 
L 181.285803 178.124987 
L 185.110897 174.196951 
L 188.751625 170.144168 
L 192.233259 165.995228 
L 197.201434 159.677966 
L 204.931241 149.324525 
L 210.722397 141.682183 
L 214.881399 136.535782 
L 218.906742 131.950094 
L 222.816094 127.908513 
L 226.624134 124.353055 
L 230.343222 121.207918 
L 233.983785 118.396223 
L 238.730949 115.048462 
L 243.372002 112.03991 
L 249.046262 108.60932 
L 256.7938 104.198182 
L 269.666949 97.180684 
L 292.388163 84.817912 
L 304.480143 77.983321 
L 315.445127 71.52354 
L 325.340826 65.424318 
L 335.184813 59.073561 
L 345.968232 51.826338 
L 358.667619 43.288209 
L 363.542126 40.305709 
L 366.464659 38.727909 
L 369.385723 37.404905 
L 371.332333 36.718997 
L 373.278377 36.238529 
L 375.223878 36.01322 
L 375.223878 36.01322 
" style="fill:none;stroke:#9467bd;stroke-dasharray:3.7,1.6;stroke-dashoffset:0;"/>
   </g>
   <g id="line2d_49">
    <path clip-path="url(#pa4bd13be14)" d="M 30.436179 214.391178 
L 70.696704 213.202149 
L 89.721453 211.981202 
L 102.428923 210.727488 
L 112.049149 209.440135 
L 119.833384 208.11826 
L 126.399286 206.760962 
L 132.097519 205.367336 
L 137.146447 203.93647 
L 141.691271 202.467454 
L 145.833503 200.959396 
L 149.646873 199.411423 
L 153.186629 197.822703 
L 156.495264 196.192457 
L 159.606117 194.519985 
L 162.545887 192.804688 
L 167.994986 189.24392 
L 172.974847 185.508677 
L 177.578913 181.601622 
L 181.875609 177.531332 
L 185.916549 173.314292 
L 189.741644 168.976905 
L 193.382374 164.556889 
L 198.551748 157.88227 
L 212.495776 139.43925 
L 216.755564 134.354366 
L 220.867844 129.888127 
L 224.852716 125.989745 
L 228.726791 122.576691 
L 232.503914 119.559398 
L 236.195747 116.855383 
L 241.002407 113.619106 
L 246.851583 109.994415 
L 253.67701 106.044352 
L 263.602347 100.582603 
L 301.067543 80.216485 
L 312.111094 73.882517 
L 322.059878 67.935998 
L 331.944069 61.753479 
L 340.79763 55.961202 
L 351.577394 48.624537 
L 363.298367 40.644118 
L 368.172873 37.608186 
L 371.095407 35.99868 
L 374.01647 34.64696 
L 375.963082 33.945334 
L 377.909125 33.453483 
L 379.854624 33.222768 
L 379.854624 33.222768 
" style="fill:none;stroke:#8c564b;stroke-dasharray:3.7,1.6;stroke-dashoffset:0;"/>
   </g>
   <g id="line2d_50">
    <path clip-path="url(#pa4bd13be14)" d="M 34.427726 214.323086 
L 74.688254 212.996055 
L 93.712999 211.633402 
L 106.420468 210.234179 
L 116.040694 208.79742 
L 123.824928 207.322145 
L 130.390834 205.807366 
L 136.089066 204.252094 
L 141.137991 202.655351 
L 145.682817 201.016177 
L 149.825047 199.333654 
L 153.638421 197.606918 
L 157.178177 195.83519 
L 160.486811 194.017804 
L 163.597664 192.154238 
L 166.537432 190.244164 
L 169.327768 188.287489 
L 174.528564 184.235555 
L 179.31066 180.004893 
L 183.753678 175.610193 
L 187.916866 171.076866 
L 191.845493 166.443174 
L 197.373921 159.421445 
L 213.553532 138.122233 
L 217.925055 133.027504 
L 222.133181 128.59926 
L 226.200944 124.761504 
L 230.147198 121.414015 
L 233.98754 118.457174 
L 238.965519 114.974601 
L 243.803725 111.872781 
L 249.686053 108.35894 
L 257.668557 103.865397 
L 270.83455 96.758201 
L 295.919898 83.236398 
L 309.089075 75.857096 
L 320.091108 69.430063 
L 330.011871 63.366866 
L 338.890722 57.686511 
L 347.733123 51.778763 
L 359.479838 43.637428 
L 368.265206 37.639938 
L 372.164419 35.194071 
L 375.086953 33.553161 
L 378.008019 32.172678 
L 379.954626 31.455139 
L 381.900669 30.951722 
L 383.846173 30.715422 
L 383.846173 30.715422 
" style="fill:none;stroke:#e377c2;stroke-dasharray:3.7,1.6;stroke-dashoffset:0;"/>
   </g>
   <g id="line2d_51">
    <path clip-path="url(#pa4bd13be14)" d="M 36.043749 214.29332 
L 76.304278 212.905963 
L 95.329024 211.481364 
L 108.036493 210.018534 
L 117.656721 208.516467 
L 125.440953 206.97414 
L 132.006857 205.390531 
L 137.705091 203.764622 
L 142.75402 202.095408 
L 147.298844 200.38192 
L 151.441073 198.623243 
L 155.254442 196.818537 
L 158.794201 194.967074 
L 162.102836 193.068271 
L 165.213689 191.121728 
L 168.153458 189.1273 
L 170.943791 187.085131 
L 176.144587 182.860112 
L 180.926681 178.456734 
L 185.369703 173.89497 
L 189.532891 169.207366 
L 193.461517 164.440845 
L 198.989946 157.280175 
L 212.150613 139.849346 
L 216.646516 134.462846 
L 220.960718 129.782418 
L 225.119716 125.740097 
L 229.14506 122.233088 
L 233.054415 119.154436 
L 236.862458 116.409067 
L 241.803319 113.134947 
L 247.793058 109.476361 
L 254.755786 105.493768 
L 265.93766 99.401959 
L 300.594462 80.719419 
L 312.713744 73.875527 
L 323.696726 67.408197 
L 333.604604 61.297516 
L 342.474561 55.569406 
L 352.289954 48.944542 
L 371.831213 35.586984 
L 375.728973 33.27916 
L 378.650515 31.803499 
L 380.597427 30.998345 
L 382.543751 30.383217 
L 384.489519 30.007244 
L 385.462196 29.926272 
L 385.462196 29.926272 
" style="fill:none;stroke:#7f7f7f;stroke-dasharray:3.7,1.6;stroke-dashoffset:0;"/>
   </g>
   <g id="line2d_52">
    <path clip-path="url(#pa4bd13be14)" d="M 38.27881 214.24991 
L 78.539336 212.774572 
L 97.564084 211.259631 
L 110.271551 209.704037 
L 119.89178 208.106724 
L 127.676013 206.466616 
L 134.241917 204.782639 
L 139.940149 203.053734 
L 144.989079 201.278876 
L 149.533904 199.457091 
L 153.676134 197.587487 
L 157.489505 195.669288 
L 161.029263 193.701872 
L 164.337897 191.684824 
L 167.448748 189.617995 
L 170.388517 187.50156 
L 173.178854 185.336118 
L 178.379648 180.863165 
L 183.161741 176.215602 
L 187.604764 171.422519 
L 191.767954 166.528275 
L 195.696578 161.593341 
L 201.225005 154.279894 
L 209.674817 142.995177 
L 214.385673 137.104385 
L 217.404619 133.598727 
L 220.338407 130.422375 
L 224.598198 126.220731 
L 228.710475 122.594907 
L 232.695348 119.428739 
L 236.569423 116.61869 
L 241.586114 113.282652 
L 247.654808 109.571275 
L 254.694217 105.546121 
L 264.865523 100.002819 
L 303.846205 78.996541 
L 315.95164 72.129307 
L 325.931784 66.231253 
L 335.839664 60.108281 
L 344.709623 54.365888 
L 354.525015 47.720008 
L 374.066273 34.296728 
L 377.964035 31.972537 
L 380.885577 30.485205 
L 382.832483 29.673258 
L 384.77881 29.052664 
L 386.724579 28.673279 
L 387.697257 28.591552 
L 387.697257 28.591552 
" style="fill:none;stroke:#bcbd22;stroke-dasharray:3.7,1.6;stroke-dashoffset:0;"/>
   </g>
   <g id="line2d_53">
    <path clip-path="url(#pa4bd13be14)" d="M 43.254709 214.143121 
L 83.515237 212.451353 
L 102.539984 210.714175 
L 115.247454 208.93039 
L 124.867675 207.09879 
L 132.65191 205.218179 
L 139.217814 203.287385 
L 144.91605 201.305293 
L 149.964976 199.270875 
L 154.509806 197.183236 
L 158.65203 195.04167 
L 162.465403 192.845719 
L 166.005158 190.595256 
L 169.313793 188.290577 
L 172.424647 185.932511 
L 175.364417 183.522531 
L 178.154752 181.062898 
L 183.355547 176.008402 
L 188.13764 170.80767 
L 192.580661 165.519176 
L 196.74385 160.221404 
L 204.401883 149.978614 
L 209.682536 142.969782 
L 214.650714 136.774136 
L 217.817047 133.127265 
L 220.88229 129.851054 
L 223.857477 126.91258 
L 228.171673 123.04841 
L 232.330678 119.711874 
L 236.356017 116.778738 
L 241.54532 113.326407 
L 247.792502 109.51554 
L 255.004016 105.407701 
L 265.370928 99.779307 
L 305.767849 78.091499 
L 317.916058 71.235287 
L 328.918093 64.760212 
L 337.849646 59.263737 
L 346.73313 53.543176 
L 355.579147 47.574946 
L 365.374041 40.686861 
L 377.092189 32.428984 
L 380.991404 29.899051 
L 383.913937 28.194668 
L 386.834999 26.755514 
L 388.781612 26.005273 
L 390.727654 25.477865 
L 392.673154 25.230014 
L 392.673154 25.230014 
" style="fill:none;stroke:#17becf;stroke-dasharray:3.7,1.6;stroke-dashoffset:0;"/>
   </g>
   <g id="line2d_54">
    <path clip-path="url(#pa4bd13be14)" d="M 45.745947 214.083908 
L 86.006476 212.272131 
L 105.031226 210.411725 
L 117.738691 208.501414 
L 127.358918 206.539918 
L 135.143151 204.525983 
L 141.709056 202.458402 
L 147.407289 200.336062 
L 152.456219 198.157981 
L 157.001047 195.923379 
L 161.14327 193.631745 
L 164.956643 191.282936 
L 168.496399 188.877279 
L 171.805036 186.415689 
L 174.915887 183.899827 
L 177.855658 181.332245 
L 180.64599 178.716528 
L 185.846788 173.36124 
L 190.628882 167.889009 
L 195.071905 162.378014 
L 201.226322 154.256975 
L 210.451463 141.972452 
L 213.861517 137.716735 
L 217.141956 133.878201 
L 220.308292 130.441791 
L 223.373533 127.372771 
L 226.348719 124.626565 
L 230.662917 121.01057 
L 234.821916 117.870816 
L 238.847262 115.088215 
L 244.036562 111.779309 
L 250.283741 108.08229 
L 258.671465 103.40923 
L 272.332663 96.102972 
L 300.046248 81.309816 
L 313.34271 73.959865 
L 324.420663 67.606768 
L 334.392635 61.644743 
L 343.306803 56.071766 
L 352.176758 50.262775 
L 361.012224 44.204937 
L 373.728553 35.159677 
L 380.558519 30.420193 
L 384.457002 27.944039 
L 387.379025 26.310693 
L 390.299627 24.981574 
L 392.245952 24.333578 
L 393.125 24.122687 
L 393.125 24.122687 
" style="fill:none;stroke:#1f77b4;stroke-dasharray:3.7,1.6;stroke-dashoffset:0;"/>
   </g>
   <g id="line2d_55">
    <path clip-path="url(#pa4bd13be14)" d="M 46.936088 214.054155 
L 87.196619 212.182077 
L 106.221368 210.259753 
L 118.928834 208.285866 
L 128.54906 206.259105 
L 136.333295 204.178189 
L 142.899198 202.041901 
L 148.597432 199.849137 
L 153.64636 197.598956 
L 158.191187 195.290657 
L 162.333414 192.923865 
L 166.146786 190.498635 
L 169.686542 188.015576 
L 172.995175 185.475999 
L 176.106033 182.882068 
L 179.045798 180.236981 
L 181.836133 177.545128 
L 187.036929 172.045626 
L 191.819023 166.447877 
L 196.262043 160.840511 
L 202.416464 152.649077 
L 209.882285 142.701986 
L 213.363919 138.319369 
L 216.707043 134.368958 
L 219.928659 130.837747 
L 223.042954 127.690677 
L 226.061898 124.881399 
L 230.433423 121.19365 
L 234.641547 118.002539 
L 238.70931 115.182631 
L 243.946756 111.838161 
L 250.243395 108.110493 
L 258.685398 103.40849 
L 272.412004 96.071259 
L 300.201934 81.249469 
L 314.53285 73.327691 
L 325.610802 66.963361 
L 335.582777 60.987053 
L 344.496942 55.396623 
L 353.366902 49.56423 
L 362.202363 43.474837 
L 373.942102 35.06545 
L 381.748658 29.575392 
L 385.647139 27.068377 
L 388.569168 25.411916 
L 391.489765 24.062023 
L 393.125 23.499415 
L 393.125 23.499415 
" style="fill:none;stroke:#ff7f0e;stroke-dasharray:3.7,1.6;stroke-dashoffset:0;"/>
   </g>
   <g id="line2d_56">
    <path clip-path="url(#pa4bd13be14)" d="M 50.605896 213.956032 
L 90.866429 211.885088 
L 109.891173 209.758564 
L 122.598645 207.575021 
L 132.218867 205.333047 
L 140.003103 203.031298 
L 146.569005 200.668561 
L 152.26724 198.243825 
L 157.316167 195.756376 
L 161.860993 193.205907 
L 166.003221 190.592672 
L 169.816594 187.917636 
L 173.356349 185.182683 
L 176.664988 182.390809 
L 179.775839 179.546359 
L 182.715606 176.655237 
L 185.505941 173.725093 
L 190.706737 167.787825 
L 195.488833 161.833349 
L 202.045329 153.141902 
L 209.911364 142.656435 
L 213.552096 138.082713 
L 217.033727 133.992539 
L 220.376848 130.364881 
L 223.598465 127.15455 
L 226.71276 124.305465 
L 231.20867 120.58518 
L 235.522866 117.378511 
L 239.681868 114.549778 
L 245.022437 111.195811 
L 251.424602 107.454502 
L 259.981897 102.729013 
L 274.966575 94.758808 
L 301.796996 80.479223 
L 316.17329 72.566972 
L 328.278728 65.645747 
L 338.258872 59.690652 
L 347.178679 54.126674 
L 356.053021 48.326576 
L 364.891908 42.271697 
L 375.65801 34.595279 
L 384.44338 28.373868 
L 388.342596 25.814342 
L 391.265126 24.087448 
L 393.125 23.121092 
L 393.125 23.121092 
" style="fill:none;stroke:#2ca02c;stroke-dasharray:3.7,1.6;stroke-dashoffset:0;"/>
   </g>
   <g id="line2d_57">
    <path clip-path="url(#pa4bd13be14)" d="M 51.746066 213.923473 
L 92.006595 211.786542 
L 111.031344 209.592264 
L 123.738812 207.339157 
L 133.359037 205.025781 
L 141.143273 202.650782 
L 147.709175 200.212963 
L 153.407408 197.711367 
L 158.456335 195.145393 
L 163.001162 192.514919 
L 167.143389 189.820474 
L 170.956761 187.063439 
L 174.496517 184.246229 
L 177.805153 181.372572 
L 180.916006 178.447706 
L 183.855776 175.478647 
L 186.64611 172.474341 
L 191.846904 166.406003 
L 196.628999 160.353826 
L 205.23521 148.836432 
L 211.051533 141.193623 
L 214.692262 136.708104 
L 218.173896 132.719971 
L 221.517019 129.196135 
L 224.738633 126.083232 
L 227.852931 123.320856 
L 232.348836 119.707684 
L 236.663033 116.582266 
L 242.177732 112.952365 
L 247.465541 109.743212 
L 255.053373 105.42822 
L 265.841174 99.596295 
L 311.191706 75.378395 
L 324.394625 67.959657 
L 335.416825 61.501778 
L 345.351206 55.406784 
L 354.239456 49.685694 
L 363.089198 43.710821 
L 372.887281 36.794231 
L 386.558634 27.085348 
L 390.457117 24.581444 
L 393.125 23.063944 
L 393.125 23.063944 
" style="fill:none;stroke:#d62728;stroke-dasharray:3.7,1.6;stroke-dashoffset:0;"/>
   </g>
   <g id="line2d_58">
    <path clip-path="url(#pa4bd13be14)" d="M 54.329082 213.845824 
L 94.589611 211.551521 
L 113.614359 209.195654 
L 126.321824 206.776652 
L 135.942054 204.293015 
L 143.726289 201.743382 
L 150.29219 199.126634 
L 155.990424 196.442001 
L 161.039353 193.689238 
L 165.58418 190.868796 
L 169.726407 187.982052 
L 173.539777 185.031568 
L 177.079535 182.021369 
L 180.388171 178.957241 
L 183.499023 175.846996 
L 186.438793 172.700696 
L 191.887892 166.352076 
L 196.867751 160.037547 
L 213.634552 137.976128 
L 217.275281 133.715451 
L 220.756912 129.968525 
L 224.100035 126.678069 
L 227.32165 123.776495 
L 230.435949 121.197304 
L 234.931855 117.805169 
L 239.246051 114.84404 
L 244.76075 111.365431 
L 251.339746 107.51728 
L 260.088654 102.69077 
L 275.315757 94.6048 
L 302.392555 80.229288 
L 316.842226 72.313142 
L 328.990435 65.413478 
L 338.99655 59.492036 
L 347.934225 53.967419 
L 356.822475 48.209007 
L 365.672219 42.18455 
L 374.491888 35.903049 
L 390.116548 24.664227 
L 393.125 22.715833 
L 393.125 22.715833 
" style="fill:none;stroke:#9467bd;stroke-dasharray:3.7,1.6;stroke-dashoffset:0;"/>
   </g>
   <g id="line2d_59">
    <path clip-path="url(#pa4bd13be14)" d="M 41.325006 214.186279 
L 87.02071 212.195343 
L 106.640393 210.204407 
L 119.314163 208.213471 
L 128.695784 206.222535 
L 136.149618 204.2316 
L 142.336676 202.240664 
L 147.628095 200.249728 
L 152.25338 198.258793 
L 156.364566 196.267857 
L 160.067732 194.276922 
L 163.439961 192.285986 
L 166.539169 190.29505 
L 169.410083 188.304114 
L 172.088085 186.313179 
L 174.601759 184.322243 
L 176.974622 182.331307 
L 179.22636 180.340373 
L 181.373723 178.349436 
L 183.431155 176.358498 
L 185.411304 174.367564 
L 187.325378 172.37663 
L 189.183457 170.385692 
L 190.994678 168.394755 
L 192.767436 166.403821 
L 194.509533 164.412887 
L 196.228256 162.421949 
L 197.930491 160.431012 
L 199.622769 158.440078 
L 201.311342 156.449144 
L 203.002208 154.458206 
L 204.701123 152.467269 
L 206.413649 150.476331 
L 208.145137 148.485393 
L 209.900743 146.494456 
L 211.685399 144.503526 
L 213.503854 142.512588 
L 215.360578 140.52165 
L 217.259796 138.53072 
L 219.205475 136.539783 
L 221.201241 134.548845 
L 223.250407 132.557907 
L 225.355927 130.56697 
L 227.52037 128.576039 
L 229.745936 126.585102 
L 232.034388 124.594164 
L 234.387067 122.603234 
L 236.804926 120.612296 
L 239.288473 118.621359 
L 241.83779 116.630421 
L 244.452593 114.639483 
L 247.132203 112.648553 
L 249.875629 110.657616 
L 252.681518 108.666678 
L 255.548245 106.675748 
L 258.473966 104.68481 
L 261.456591 102.693873 
L 264.493876 100.702935 
L 267.583425 98.711997 
L 270.722763 96.721067 
L 273.909328 94.730129 
L 277.140535 92.739192 
L 280.413783 90.748262 
L 283.72653 88.757324 
L 287.076206 86.766386 
L 290.460348 84.775456 
L 293.87659 82.784511 
L 297.322574 80.793581 
L 300.79609 78.802651 
L 304.295074 76.811706 
L 307.817455 74.820776 
L 311.361418 72.82983 
L 314.925108 70.8389 
L 318.506902 68.84797 
L 322.105271 66.857025 
L 325.718701 64.866095 
L 329.345919 62.87515 
L 332.985613 60.88422 
L 336.63668 58.893289 
L 340.298062 56.902344 
L 343.968736 54.911414 
L 347.64784 52.920484 
L 351.3346 50.929539 
L 355.028182 48.938609 
L 358.727957 46.947679 
L 362.433323 44.956733 
L 366.143659 42.965803 
L 369.858505 40.974858 
L 373.577339 38.983928 
L 377.299767 36.992998 
L 381.025439 35.002053 
L 384.753947 33.011123 
L 388.485038 31.020177 
L 392.218408 29.029247 
L 393.125 28.546037 
" style="fill:none;stroke:#000000;stroke-linecap:square;stroke-width:1.5;"/>
   </g>
   <g id="patch_3">
    <path d="M 41.325 224.64 
L 41.325 7.2 
" style="fill:none;stroke:#000000;stroke-linecap:square;stroke-linejoin:miter;stroke-width:0.8;"/>
   </g>
   <g id="patch_4">
    <path d="M 376.125 224.64 
L 376.125 7.2 
" style="fill:none;stroke:#000000;stroke-linecap:square;stroke-linejoin:miter;stroke-width:0.8;"/>
   </g>
   <g id="patch_5">
    <path d="M 41.325 224.64 
L 376.125 224.64 
" style="fill:none;stroke:#000000;stroke-linecap:square;stroke-linejoin:miter;stroke-width:0.8;"/>
   </g>
   <g id="patch_6">
    <path d="M 41.325 7.2 
L 376.125 7.2 
" style="fill:none;stroke:#000000;stroke-linecap:square;stroke-linejoin:miter;stroke-width:0.8;"/>
   </g>
   <g id="legend_1">
    <g id="patch_7">
     <path d="M 241.725 29.878125 
L 369.125 29.878125 
Q 371.125 29.878125 371.125 27.878125 
L 371.125 14.2 
Q 371.125 12.2 369.125 12.2 
L 241.725 12.2 
Q 239.725 12.2 239.725 14.2 
L 239.725 27.878125 
Q 239.725 29.878125 241.725 29.878125 
z
" style="fill:#ffffff;opacity:0.8;stroke:#cccccc;stroke-linejoin:miter;"/>
    </g>
    <g id="line2d_60">
     <path d="M 243.725 20.298437 
L 263.725 20.298437 
" style="fill:none;stroke:#000000;stroke-linecap:square;stroke-width:1.5;"/>
    </g>
    <g id="line2d_61"/>
    <g id="text_14">
     <!-- Spalding's function -->
     <g transform="translate(271.725 23.798437)scale(0.1 -0.1)">
      <defs>
       <path d="M 53.515625 70.515625 
L 53.515625 60.890625 
Q 47.90625 63.578125 42.921875 64.890625 
Q 37.9375 66.21875 33.296875 66.21875 
Q 25.25 66.21875 20.875 63.09375 
Q 16.5 59.96875 16.5 54.203125 
Q 16.5 49.359375 19.40625 46.890625 
Q 22.3125 44.4375 30.421875 42.921875 
L 36.375 41.703125 
Q 47.40625 39.59375 52.65625 34.296875 
Q 57.90625 29 57.90625 20.125 
Q 57.90625 9.515625 50.796875 4.046875 
Q 43.703125 -1.421875 29.984375 -1.421875 
Q 24.8125 -1.421875 18.96875 -0.25 
Q 13.140625 0.921875 6.890625 3.21875 
L 6.890625 13.375 
Q 12.890625 10.015625 18.65625 8.296875 
Q 24.421875 6.59375 29.984375 6.59375 
Q 38.421875 6.59375 43.015625 9.90625 
Q 47.609375 13.234375 47.609375 19.390625 
Q 47.609375 24.75 44.3125 27.78125 
Q 41.015625 30.8125 33.5 32.328125 
L 27.484375 33.5 
Q 16.453125 35.6875 11.515625 40.375 
Q 6.59375 45.0625 6.59375 53.421875 
Q 6.59375 63.09375 13.40625 68.65625 
Q 20.21875 74.21875 32.171875 74.21875 
Q 37.3125 74.21875 42.625 73.28125 
Q 47.953125 72.359375 53.515625 70.515625 
z
" id="DejaVuSans-83"/>
       <path d="M 18.109375 8.203125 
L 18.109375 -20.796875 
L 9.078125 -20.796875 
L 9.078125 54.6875 
L 18.109375 54.6875 
L 18.109375 46.390625 
Q 20.953125 51.265625 25.265625 53.625 
Q 29.59375 56 35.59375 56 
Q 45.5625 56 51.78125 48.09375 
Q 58.015625 40.1875 58.015625 27.296875 
Q 58.015625 14.40625 51.78125 6.484375 
Q 45.5625 -1.421875 35.59375 -1.421875 
Q 29.59375 -1.421875 25.265625 0.953125 
Q 20.953125 3.328125 18.109375 8.203125 
z
M 48.6875 27.296875 
Q 48.6875 37.203125 44.609375 42.84375 
Q 40.53125 48.484375 33.40625 48.484375 
Q 26.265625 48.484375 22.1875 42.84375 
Q 18.109375 37.203125 18.109375 27.296875 
Q 18.109375 17.390625 22.1875 11.75 
Q 26.265625 6.109375 33.40625 6.109375 
Q 40.53125 6.109375 44.609375 11.75 
Q 48.6875 17.390625 48.6875 27.296875 
z
" id="DejaVuSans-112"/>
       <path d="M 34.28125 27.484375 
Q 23.390625 27.484375 19.1875 25 
Q 14.984375 22.515625 14.984375 16.5 
Q 14.984375 11.71875 18.140625 8.90625 
Q 21.296875 6.109375 26.703125 6.109375 
Q 34.1875 6.109375 38.703125 11.40625 
Q 43.21875 16.703125 43.21875 25.484375 
L 43.21875 27.484375 
z
M 52.203125 31.203125 
L 52.203125 0 
L 43.21875 0 
L 43.21875 8.296875 
Q 40.140625 3.328125 35.546875 0.953125 
Q 30.953125 -1.421875 24.3125 -1.421875 
Q 15.921875 -1.421875 10.953125 3.296875 
Q 6 8.015625 6 15.921875 
Q 6 25.140625 12.171875 29.828125 
Q 18.359375 34.515625 30.609375 34.515625 
L 43.21875 34.515625 
L 43.21875 35.40625 
Q 43.21875 41.609375 39.140625 45 
Q 35.0625 48.390625 27.6875 48.390625 
Q 23 48.390625 18.546875 47.265625 
Q 14.109375 46.140625 10.015625 43.890625 
L 10.015625 52.203125 
Q 14.9375 54.109375 19.578125 55.046875 
Q 24.21875 56 28.609375 56 
Q 40.484375 56 46.34375 49.84375 
Q 52.203125 43.703125 52.203125 31.203125 
z
" id="DejaVuSans-97"/>
       <path d="M 9.421875 75.984375 
L 18.40625 75.984375 
L 18.40625 0 
L 9.421875 0 
z
" id="DejaVuSans-108"/>
       <path d="M 45.40625 46.390625 
L 45.40625 75.984375 
L 54.390625 75.984375 
L 54.390625 0 
L 45.40625 0 
L 45.40625 8.203125 
Q 42.578125 3.328125 38.25 0.953125 
Q 33.9375 -1.421875 27.875 -1.421875 
Q 17.96875 -1.421875 11.734375 6.484375 
Q 5.515625 14.40625 5.515625 27.296875 
Q 5.515625 40.1875 11.734375 48.09375 
Q 17.96875 56 27.875 56 
Q 33.9375 56 38.25 53.625 
Q 42.578125 51.265625 45.40625 46.390625 
z
M 14.796875 27.296875 
Q 14.796875 17.390625 18.875 11.75 
Q 22.953125 6.109375 30.078125 6.109375 
Q 37.203125 6.109375 41.296875 11.75 
Q 45.40625 17.390625 45.40625 27.296875 
Q 45.40625 37.203125 41.296875 42.84375 
Q 37.203125 48.484375 30.078125 48.484375 
Q 22.953125 48.484375 18.875 42.84375 
Q 14.796875 37.203125 14.796875 27.296875 
z
" id="DejaVuSans-100"/>
       <path d="M 9.421875 54.6875 
L 18.40625 54.6875 
L 18.40625 0 
L 9.421875 0 
z
M 9.421875 75.984375 
L 18.40625 75.984375 
L 18.40625 64.59375 
L 9.421875 64.59375 
z
" id="DejaVuSans-105"/>
       <path d="M 54.890625 33.015625 
L 54.890625 0 
L 45.90625 0 
L 45.90625 32.71875 
Q 45.90625 40.484375 42.875 44.328125 
Q 39.84375 48.1875 33.796875 48.1875 
Q 26.515625 48.1875 22.3125 43.546875 
Q 18.109375 38.921875 18.109375 30.90625 
L 18.109375 0 
L 9.078125 0 
L 9.078125 54.6875 
L 18.109375 54.6875 
L 18.109375 46.1875 
Q 21.34375 51.125 25.703125 53.5625 
Q 30.078125 56 35.796875 56 
Q 45.21875 56 50.046875 50.171875 
Q 54.890625 44.34375 54.890625 33.015625 
z
" id="DejaVuSans-110"/>
       <path d="M 45.40625 27.984375 
Q 45.40625 37.75 41.375 43.109375 
Q 37.359375 48.484375 30.078125 48.484375 
Q 22.859375 48.484375 18.828125 43.109375 
Q 14.796875 37.75 14.796875 27.984375 
Q 14.796875 18.265625 18.828125 12.890625 
Q 22.859375 7.515625 30.078125 7.515625 
Q 37.359375 7.515625 41.375 12.890625 
Q 45.40625 18.265625 45.40625 27.984375 
z
M 54.390625 6.78125 
Q 54.390625 -7.171875 48.1875 -13.984375 
Q 42 -20.796875 29.203125 -20.796875 
Q 24.46875 -20.796875 20.265625 -20.09375 
Q 16.0625 -19.390625 12.109375 -17.921875 
L 12.109375 -9.1875 
Q 16.0625 -11.328125 19.921875 -12.34375 
Q 23.78125 -13.375 27.78125 -13.375 
Q 36.625 -13.375 41.015625 -8.765625 
Q 45.40625 -4.15625 45.40625 5.171875 
L 45.40625 9.625 
Q 42.625 4.78125 38.28125 2.390625 
Q 33.9375 0 27.875 0 
Q 17.828125 0 11.671875 7.65625 
Q 5.515625 15.328125 5.515625 27.984375 
Q 5.515625 40.671875 11.671875 48.328125 
Q 17.828125 56 27.875 56 
Q 33.9375 56 38.28125 53.609375 
Q 42.625 51.21875 45.40625 46.390625 
L 45.40625 54.6875 
L 54.390625 54.6875 
z
" id="DejaVuSans-103"/>
       <path d="M 17.921875 72.90625 
L 17.921875 45.796875 
L 9.625 45.796875 
L 9.625 72.90625 
z
" id="DejaVuSans-39"/>
       <path d="M 44.28125 53.078125 
L 44.28125 44.578125 
Q 40.484375 46.53125 36.375 47.5 
Q 32.28125 48.484375 27.875 48.484375 
Q 21.1875 48.484375 17.84375 46.4375 
Q 14.5 44.390625 14.5 40.28125 
Q 14.5 37.15625 16.890625 35.375 
Q 19.28125 33.59375 26.515625 31.984375 
L 29.59375 31.296875 
Q 39.15625 29.25 43.1875 25.515625 
Q 47.21875 21.78125 47.21875 15.09375 
Q 47.21875 7.46875 41.1875 3.015625 
Q 35.15625 -1.421875 24.609375 -1.421875 
Q 20.21875 -1.421875 15.453125 -0.5625 
Q 10.6875 0.296875 5.421875 2 
L 5.421875 11.28125 
Q 10.40625 8.6875 15.234375 7.390625 
Q 20.0625 6.109375 24.8125 6.109375 
Q 31.15625 6.109375 34.5625 8.28125 
Q 37.984375 10.453125 37.984375 14.40625 
Q 37.984375 18.0625 35.515625 20.015625 
Q 33.0625 21.96875 24.703125 23.78125 
L 21.578125 24.515625 
Q 13.234375 26.265625 9.515625 29.90625 
Q 5.8125 33.546875 5.8125 39.890625 
Q 5.8125 47.609375 11.28125 51.796875 
Q 16.75 56 26.8125 56 
Q 31.78125 56 36.171875 55.265625 
Q 40.578125 54.546875 44.28125 53.078125 
z
" id="DejaVuSans-115"/>
       <path id="DejaVuSans-32"/>
       <path d="M 37.109375 75.984375 
L 37.109375 68.5 
L 28.515625 68.5 
Q 23.6875 68.5 21.796875 66.546875 
Q 19.921875 64.59375 19.921875 59.515625 
L 19.921875 54.6875 
L 34.71875 54.6875 
L 34.71875 47.703125 
L 19.921875 47.703125 
L 19.921875 0 
L 10.890625 0 
L 10.890625 47.703125 
L 2.296875 47.703125 
L 2.296875 54.6875 
L 10.890625 54.6875 
L 10.890625 58.5 
Q 10.890625 67.625 15.140625 71.796875 
Q 19.390625 75.984375 28.609375 75.984375 
z
" id="DejaVuSans-102"/>
       <path d="M 8.5 21.578125 
L 8.5 54.6875 
L 17.484375 54.6875 
L 17.484375 21.921875 
Q 17.484375 14.15625 20.5 10.265625 
Q 23.53125 6.390625 29.59375 6.390625 
Q 36.859375 6.390625 41.078125 11.03125 
Q 45.3125 15.671875 45.3125 23.6875 
L 45.3125 54.6875 
L 54.296875 54.6875 
L 54.296875 0 
L 45.3125 0 
L 45.3125 8.40625 
Q 42.046875 3.421875 37.71875 1 
Q 33.40625 -1.421875 27.6875 -1.421875 
Q 18.265625 -1.421875 13.375 4.4375 
Q 8.5 10.296875 8.5 21.578125 
z
M 31.109375 56 
z
" id="DejaVuSans-117"/>
       <path d="M 48.78125 52.59375 
L 48.78125 44.1875 
Q 44.96875 46.296875 41.140625 47.34375 
Q 37.3125 48.390625 33.40625 48.390625 
Q 24.65625 48.390625 19.8125 42.84375 
Q 14.984375 37.3125 14.984375 27.296875 
Q 14.984375 17.28125 19.8125 11.734375 
Q 24.65625 6.203125 33.40625 6.203125 
Q 37.3125 6.203125 41.140625 7.25 
Q 44.96875 8.296875 48.78125 10.40625 
L 48.78125 2.09375 
Q 45.015625 0.34375 40.984375 -0.53125 
Q 36.96875 -1.421875 32.421875 -1.421875 
Q 20.0625 -1.421875 12.78125 6.34375 
Q 5.515625 14.109375 5.515625 27.296875 
Q 5.515625 40.671875 12.859375 48.328125 
Q 20.21875 56 33.015625 56 
Q 37.15625 56 41.109375 55.140625 
Q 45.0625 54.296875 48.78125 52.59375 
z
" id="DejaVuSans-99"/>
       <path d="M 18.3125 70.21875 
L 18.3125 54.6875 
L 36.8125 54.6875 
L 36.8125 47.703125 
L 18.3125 47.703125 
L 18.3125 18.015625 
Q 18.3125 11.328125 20.140625 9.421875 
Q 21.96875 7.515625 27.59375 7.515625 
L 36.8125 7.515625 
L 36.8125 0 
L 27.59375 0 
Q 17.1875 0 13.234375 3.875 
Q 9.28125 7.765625 9.28125 18.015625 
L 9.28125 47.703125 
L 2.6875 47.703125 
L 2.6875 54.6875 
L 9.28125 54.6875 
L 9.28125 70.21875 
z
" id="DejaVuSans-116"/>
       <path d="M 30.609375 48.390625 
Q 23.390625 48.390625 19.1875 42.75 
Q 14.984375 37.109375 14.984375 27.296875 
Q 14.984375 17.484375 19.15625 11.84375 
Q 23.34375 6.203125 30.609375 6.203125 
Q 37.796875 6.203125 41.984375 11.859375 
Q 46.1875 17.53125 46.1875 27.296875 
Q 46.1875 37.015625 41.984375 42.703125 
Q 37.796875 48.390625 30.609375 48.390625 
z
M 30.609375 56 
Q 42.328125 56 49.015625 48.375 
Q 55.71875 40.765625 55.71875 27.296875 
Q 55.71875 13.875 49.015625 6.21875 
Q 42.328125 -1.421875 30.609375 -1.421875 
Q 18.84375 -1.421875 12.171875 6.21875 
Q 5.515625 13.875 5.515625 27.296875 
Q 5.515625 40.765625 12.171875 48.375 
Q 18.84375 56 30.609375 56 
z
" id="DejaVuSans-111"/>
      </defs>
      <use xlink:href="#DejaVuSans-83"/>
      <use x="63.476562" xlink:href="#DejaVuSans-112"/>
      <use x="126.953125" xlink:href="#DejaVuSans-97"/>
      <use x="188.232422" xlink:href="#DejaVuSans-108"/>
      <use x="216.015625" xlink:href="#DejaVuSans-100"/>
      <use x="279.492188" xlink:href="#DejaVuSans-105"/>
      <use x="307.275391" xlink:href="#DejaVuSans-110"/>
      <use x="370.654297" xlink:href="#DejaVuSans-103"/>
      <use x="434.130859" xlink:href="#DejaVuSans-39"/>
      <use x="461.621094" xlink:href="#DejaVuSans-115"/>
      <use x="513.720703" xlink:href="#DejaVuSans-32"/>
      <use x="545.507812" xlink:href="#DejaVuSans-102"/>
      <use x="580.712891" xlink:href="#DejaVuSans-117"/>
      <use x="644.091797" xlink:href="#DejaVuSans-110"/>
      <use x="707.470703" xlink:href="#DejaVuSans-99"/>
      <use x="762.451172" xlink:href="#DejaVuSans-116"/>
      <use x="801.660156" xlink:href="#DejaVuSans-105"/>
      <use x="829.443359" xlink:href="#DejaVuSans-111"/>
      <use x="890.625" xlink:href="#DejaVuSans-110"/>
     </g>
    </g>
   </g>
  </g>
 </g>
 <defs>
  <clipPath id="pa4bd13be14">
   <rect height="217.44" width="334.8" x="41.325" y="7.2"/>
  </clipPath>
 </defs>
</svg>
