<?xml version="1.0" encoding="utf-8" standalone="no"?>
<!DOCTYPE svg PUBLIC "-//W3C//DTD SVG 1.1//EN"
  "http://www.w3.org/Graphics/SVG/1.1/DTD/svg11.dtd">
<!-- Created with matplotlib (https://matplotlib.org/) -->
<svg height="262.19625pt" version="1.1" viewBox="0 0 387.801562 262.19625" width="387.801562pt" xmlns="http://www.w3.org/2000/svg" xmlns:xlink="http://www.w3.org/1999/xlink">
 <metadata>
  <rdf:RDF xmlns:cc="http://creativecommons.org/ns#" xmlns:dc="http://purl.org/dc/elements/1.1/" xmlns:rdf="http://www.w3.org/1999/02/22-rdf-syntax-ns#">
   <cc:Work>
    <dc:type rdf:resource="http://purl.org/dc/dcmitype/StillImage"/>
    <dc:date>2021-11-09T22:19:21.494278</dc:date>
    <dc:format>image/svg+xml</dc:format>
    <dc:creator>
     <cc:Agent>
      <dc:title>Matplotlib v3.3.3, https://matplotlib.org/</dc:title>
     </cc:Agent>
    </dc:creator>
   </cc:Work>
  </rdf:RDF>
 </metadata>
 <defs>
  <style type="text/css">*{stroke-linecap:butt;stroke-linejoin:round;}</style>
 </defs>
 <g id="figure_1">
  <g id="patch_1">
   <path d="M 0 262.19625 
L 387.801562 262.19625 
L 387.801562 0 
L 0 0 
z
" style="fill:none;"/>
  </g>
  <g id="axes_1">
   <g id="patch_2">
    <path d="M 42.620313 224.64 
L 377.420313 224.64 
L 377.420313 7.2 
L 42.620313 7.2 
z
" style="fill:#ffffff;"/>
   </g>
   <g id="matplotlib.axis_1">
    <g id="xtick_1">
     <g id="line2d_1">
      <path clip-path="url(#p935e9bbe8b)" d="M 42.620313 224.64 
L 42.620313 7.2 
" style="fill:none;stroke:#b0b0b0;stroke-dasharray:2.96,1.28;stroke-dashoffset:0;stroke-width:0.8;"/>
     </g>
     <g id="line2d_2">
      <defs>
       <path d="M 0 0 
L 0 3.5 
" id="md5e7de403c" style="stroke:#000000;stroke-width:0.8;"/>
      </defs>
      <g>
       <use style="stroke:#000000;stroke-width:0.8;" x="42.620313" xlink:href="#md5e7de403c" y="224.64"/>
      </g>
     </g>
     <g id="text_1">
      <!-- −3 -->
      <g transform="translate(35.249219 239.238437)scale(0.1 -0.1)">
       <defs>
        <path d="M 10.59375 35.5 
L 73.1875 35.5 
L 73.1875 27.203125 
L 10.59375 27.203125 
z
" id="DejaVuSans-8722"/>
        <path d="M 40.578125 39.3125 
Q 47.65625 37.796875 51.625 33 
Q 55.609375 28.21875 55.609375 21.1875 
Q 55.609375 10.40625 48.1875 4.484375 
Q 40.765625 -1.421875 27.09375 -1.421875 
Q 22.515625 -1.421875 17.65625 -0.515625 
Q 12.796875 0.390625 7.625 2.203125 
L 7.625 11.71875 
Q 11.71875 9.328125 16.59375 8.109375 
Q 21.484375 6.890625 26.8125 6.890625 
Q 36.078125 6.890625 40.9375 10.546875 
Q 45.796875 14.203125 45.796875 21.1875 
Q 45.796875 27.640625 41.28125 31.265625 
Q 36.765625 34.90625 28.71875 34.90625 
L 20.21875 34.90625 
L 20.21875 43.015625 
L 29.109375 43.015625 
Q 36.375 43.015625 40.234375 45.921875 
Q 44.09375 48.828125 44.09375 54.296875 
Q 44.09375 59.90625 40.109375 62.90625 
Q 36.140625 65.921875 28.71875 65.921875 
Q 24.65625 65.921875 20.015625 65.03125 
Q 15.375 64.15625 9.8125 62.3125 
L 9.8125 71.09375 
Q 15.4375 72.65625 20.34375 73.4375 
Q 25.25 74.21875 29.59375 74.21875 
Q 40.828125 74.21875 47.359375 69.109375 
Q 53.90625 64.015625 53.90625 55.328125 
Q 53.90625 49.265625 50.4375 45.09375 
Q 46.96875 40.921875 40.578125 39.3125 
z
" id="DejaVuSans-51"/>
       </defs>
       <use xlink:href="#DejaVuSans-8722"/>
       <use x="83.789062" xlink:href="#DejaVuSans-51"/>
      </g>
     </g>
    </g>
    <g id="xtick_2">
     <g id="line2d_3">
      <path clip-path="url(#p935e9bbe8b)" d="M 98.420313 224.64 
L 98.420313 7.2 
" style="fill:none;stroke:#b0b0b0;stroke-dasharray:2.96,1.28;stroke-dashoffset:0;stroke-width:0.8;"/>
     </g>
     <g id="line2d_4">
      <g>
       <use style="stroke:#000000;stroke-width:0.8;" x="98.420313" xlink:href="#md5e7de403c" y="224.64"/>
      </g>
     </g>
     <g id="text_2">
      <!-- −2 -->
      <g transform="translate(91.049219 239.238437)scale(0.1 -0.1)">
       <defs>
        <path d="M 19.1875 8.296875 
L 53.609375 8.296875 
L 53.609375 0 
L 7.328125 0 
L 7.328125 8.296875 
Q 12.9375 14.109375 22.625 23.890625 
Q 32.328125 33.6875 34.8125 36.53125 
Q 39.546875 41.84375 41.421875 45.53125 
Q 43.3125 49.21875 43.3125 52.78125 
Q 43.3125 58.59375 39.234375 62.25 
Q 35.15625 65.921875 28.609375 65.921875 
Q 23.96875 65.921875 18.8125 64.3125 
Q 13.671875 62.703125 7.8125 59.421875 
L 7.8125 69.390625 
Q 13.765625 71.78125 18.9375 73 
Q 24.125 74.21875 28.421875 74.21875 
Q 39.75 74.21875 46.484375 68.546875 
Q 53.21875 62.890625 53.21875 53.421875 
Q 53.21875 48.921875 51.53125 44.890625 
Q 49.859375 40.875 45.40625 35.40625 
Q 44.1875 33.984375 37.640625 27.21875 
Q 31.109375 20.453125 19.1875 8.296875 
z
" id="DejaVuSans-50"/>
       </defs>
       <use xlink:href="#DejaVuSans-8722"/>
       <use x="83.789062" xlink:href="#DejaVuSans-50"/>
      </g>
     </g>
    </g>
    <g id="xtick_3">
     <g id="line2d_5">
      <path clip-path="url(#p935e9bbe8b)" d="M 154.220313 224.64 
L 154.220313 7.2 
" style="fill:none;stroke:#b0b0b0;stroke-dasharray:2.96,1.28;stroke-dashoffset:0;stroke-width:0.8;"/>
     </g>
     <g id="line2d_6">
      <g>
       <use style="stroke:#000000;stroke-width:0.8;" x="154.220313" xlink:href="#md5e7de403c" y="224.64"/>
      </g>
     </g>
     <g id="text_3">
      <!-- −1 -->
      <g transform="translate(146.849219 239.238437)scale(0.1 -0.1)">
       <defs>
        <path d="M 12.40625 8.296875 
L 28.515625 8.296875 
L 28.515625 63.921875 
L 10.984375 60.40625 
L 10.984375 69.390625 
L 28.421875 72.90625 
L 38.28125 72.90625 
L 38.28125 8.296875 
L 54.390625 8.296875 
L 54.390625 0 
L 12.40625 0 
z
" id="DejaVuSans-49"/>
       </defs>
       <use xlink:href="#DejaVuSans-8722"/>
       <use x="83.789062" xlink:href="#DejaVuSans-49"/>
      </g>
     </g>
    </g>
    <g id="xtick_4">
     <g id="line2d_7">
      <path clip-path="url(#p935e9bbe8b)" d="M 210.020313 224.64 
L 210.020313 7.2 
" style="fill:none;stroke:#b0b0b0;stroke-dasharray:2.96,1.28;stroke-dashoffset:0;stroke-width:0.8;"/>
     </g>
     <g id="line2d_8">
      <g>
       <use style="stroke:#000000;stroke-width:0.8;" x="210.020313" xlink:href="#md5e7de403c" y="224.64"/>
      </g>
     </g>
     <g id="text_4">
      <!-- 0 -->
      <g transform="translate(206.839063 239.238437)scale(0.1 -0.1)">
       <defs>
        <path d="M 31.78125 66.40625 
Q 24.171875 66.40625 20.328125 58.90625 
Q 16.5 51.421875 16.5 36.375 
Q 16.5 21.390625 20.328125 13.890625 
Q 24.171875 6.390625 31.78125 6.390625 
Q 39.453125 6.390625 43.28125 13.890625 
Q 47.125 21.390625 47.125 36.375 
Q 47.125 51.421875 43.28125 58.90625 
Q 39.453125 66.40625 31.78125 66.40625 
z
M 31.78125 74.21875 
Q 44.046875 74.21875 50.515625 64.515625 
Q 56.984375 54.828125 56.984375 36.375 
Q 56.984375 17.96875 50.515625 8.265625 
Q 44.046875 -1.421875 31.78125 -1.421875 
Q 19.53125 -1.421875 13.0625 8.265625 
Q 6.59375 17.96875 6.59375 36.375 
Q 6.59375 54.828125 13.0625 64.515625 
Q 19.53125 74.21875 31.78125 74.21875 
z
" id="DejaVuSans-48"/>
       </defs>
       <use xlink:href="#DejaVuSans-48"/>
      </g>
     </g>
    </g>
    <g id="xtick_5">
     <g id="line2d_9">
      <path clip-path="url(#p935e9bbe8b)" d="M 265.820312 224.64 
L 265.820312 7.2 
" style="fill:none;stroke:#b0b0b0;stroke-dasharray:2.96,1.28;stroke-dashoffset:0;stroke-width:0.8;"/>
     </g>
     <g id="line2d_10">
      <g>
       <use style="stroke:#000000;stroke-width:0.8;" x="265.820312" xlink:href="#md5e7de403c" y="224.64"/>
      </g>
     </g>
     <g id="text_5">
      <!-- 1 -->
      <g transform="translate(262.639063 239.238437)scale(0.1 -0.1)">
       <use xlink:href="#DejaVuSans-49"/>
      </g>
     </g>
    </g>
    <g id="xtick_6">
     <g id="line2d_11">
      <path clip-path="url(#p935e9bbe8b)" d="M 321.620313 224.64 
L 321.620313 7.2 
" style="fill:none;stroke:#b0b0b0;stroke-dasharray:2.96,1.28;stroke-dashoffset:0;stroke-width:0.8;"/>
     </g>
     <g id="line2d_12">
      <g>
       <use style="stroke:#000000;stroke-width:0.8;" x="321.620313" xlink:href="#md5e7de403c" y="224.64"/>
      </g>
     </g>
     <g id="text_6">
      <!-- 2 -->
      <g transform="translate(318.439063 239.238437)scale(0.1 -0.1)">
       <use xlink:href="#DejaVuSans-50"/>
      </g>
     </g>
    </g>
    <g id="xtick_7">
     <g id="line2d_13">
      <path clip-path="url(#p935e9bbe8b)" d="M 377.420313 224.64 
L 377.420313 7.2 
" style="fill:none;stroke:#b0b0b0;stroke-dasharray:2.96,1.28;stroke-dashoffset:0;stroke-width:0.8;"/>
     </g>
     <g id="line2d_14">
      <g>
       <use style="stroke:#000000;stroke-width:0.8;" x="377.420313" xlink:href="#md5e7de403c" y="224.64"/>
      </g>
     </g>
     <g id="text_7">
      <!-- 3 -->
      <g transform="translate(374.239063 239.238437)scale(0.1 -0.1)">
       <use xlink:href="#DejaVuSans-51"/>
      </g>
     </g>
    </g>
    <g id="text_8">
     <!-- $z$ -->
     <g transform="translate(207.370313 252.916562)scale(0.1 -0.1)">
      <defs>
       <path d="M 11.625 54.6875 
L 54.296875 54.6875 
L 52.6875 46.484375 
L 11.53125 7.171875 
L 45.515625 7.171875 
L 44.09375 0 
L -0.296875 0 
L 1.3125 8.203125 
L 42.484375 47.515625 
L 10.203125 47.515625 
z
" id="DejaVuSans-Oblique-122"/>
      </defs>
      <use transform="translate(0 0.3125)" xlink:href="#DejaVuSans-Oblique-122"/>
     </g>
    </g>
   </g>
   <g id="matplotlib.axis_2">
    <g id="ytick_1">
     <g id="line2d_15">
      <path clip-path="url(#p935e9bbe8b)" d="M 42.620313 187.270946 
L 377.420313 187.270946 
" style="fill:none;stroke:#b0b0b0;stroke-dasharray:2.96,1.28;stroke-dashoffset:0;stroke-width:0.8;"/>
     </g>
     <g id="line2d_16">
      <defs>
       <path d="M 0 0 
L -3.5 0 
" id="ma677ccf986" style="stroke:#000000;stroke-width:0.8;"/>
      </defs>
      <g>
       <use style="stroke:#000000;stroke-width:0.8;" x="42.620313" xlink:href="#ma677ccf986" y="187.270946"/>
      </g>
     </g>
     <g id="text_9">
      <!-- −1 -->
      <g transform="translate(20.878125 191.070165)scale(0.1 -0.1)">
       <use xlink:href="#DejaVuSans-8722"/>
       <use x="83.789062" xlink:href="#DejaVuSans-49"/>
      </g>
     </g>
    </g>
    <g id="ytick_2">
     <g id="line2d_17">
      <path clip-path="url(#p935e9bbe8b)" d="M 42.620313 146.282726 
L 377.420313 146.282726 
" style="fill:none;stroke:#b0b0b0;stroke-dasharray:2.96,1.28;stroke-dashoffset:0;stroke-width:0.8;"/>
     </g>
     <g id="line2d_18">
      <g>
       <use style="stroke:#000000;stroke-width:0.8;" x="42.620313" xlink:href="#ma677ccf986" y="146.282726"/>
      </g>
     </g>
     <g id="text_10">
      <!-- 0 -->
      <g transform="translate(29.257813 150.081945)scale(0.1 -0.1)">
       <use xlink:href="#DejaVuSans-48"/>
      </g>
     </g>
    </g>
    <g id="ytick_3">
     <g id="line2d_19">
      <path clip-path="url(#p935e9bbe8b)" d="M 42.620313 105.294506 
L 377.420313 105.294506 
" style="fill:none;stroke:#b0b0b0;stroke-dasharray:2.96,1.28;stroke-dashoffset:0;stroke-width:0.8;"/>
     </g>
     <g id="line2d_20">
      <g>
       <use style="stroke:#000000;stroke-width:0.8;" x="42.620313" xlink:href="#ma677ccf986" y="105.294506"/>
      </g>
     </g>
     <g id="text_11">
      <!-- 1 -->
      <g transform="translate(29.257813 109.093724)scale(0.1 -0.1)">
       <use xlink:href="#DejaVuSans-49"/>
      </g>
     </g>
    </g>
    <g id="ytick_4">
     <g id="line2d_21">
      <path clip-path="url(#p935e9bbe8b)" d="M 42.620313 64.306286 
L 377.420313 64.306286 
" style="fill:none;stroke:#b0b0b0;stroke-dasharray:2.96,1.28;stroke-dashoffset:0;stroke-width:0.8;"/>
     </g>
     <g id="line2d_22">
      <g>
       <use style="stroke:#000000;stroke-width:0.8;" x="42.620313" xlink:href="#ma677ccf986" y="64.306286"/>
      </g>
     </g>
     <g id="text_12">
      <!-- 2 -->
      <g transform="translate(29.257813 68.105504)scale(0.1 -0.1)">
       <use xlink:href="#DejaVuSans-50"/>
      </g>
     </g>
    </g>
    <g id="ytick_5">
     <g id="line2d_23">
      <path clip-path="url(#p935e9bbe8b)" d="M 42.620313 23.318065 
L 377.420313 23.318065 
" style="fill:none;stroke:#b0b0b0;stroke-dasharray:2.96,1.28;stroke-dashoffset:0;stroke-width:0.8;"/>
     </g>
     <g id="line2d_24">
      <g>
       <use style="stroke:#000000;stroke-width:0.8;" x="42.620313" xlink:href="#ma677ccf986" y="23.318065"/>
      </g>
     </g>
     <g id="text_13">
      <!-- 3 -->
      <g transform="translate(29.257813 27.117284)scale(0.1 -0.1)">
       <use xlink:href="#DejaVuSans-51"/>
      </g>
     </g>
    </g>
    <g id="text_14">
     <!-- $a(z)$ -->
     <g transform="translate(14.798438 125.52)rotate(-90)scale(0.1 -0.1)">
      <defs>
       <path d="M 53.71875 31.203125 
L 47.609375 0 
L 38.625 0 
L 40.28125 8.296875 
Q 36.328125 3.421875 31.265625 1 
Q 26.21875 -1.421875 20.015625 -1.421875 
Q 13.03125 -1.421875 8.5625 2.84375 
Q 4.109375 7.125 4.109375 13.8125 
Q 4.109375 23.390625 11.75 28.953125 
Q 19.390625 34.515625 32.8125 34.515625 
L 45.3125 34.515625 
L 45.796875 36.921875 
Q 45.90625 37.3125 45.953125 37.765625 
Q 46 38.234375 46 39.203125 
Q 46 43.5625 42.453125 45.96875 
Q 38.921875 48.390625 32.515625 48.390625 
Q 28.125 48.390625 23.5 47.265625 
Q 18.890625 46.140625 14.015625 43.890625 
L 15.578125 52.203125 
Q 20.65625 54.109375 25.515625 55.046875 
Q 30.375 56 34.90625 56 
Q 44.578125 56 49.625 51.796875 
Q 54.6875 47.609375 54.6875 39.59375 
Q 54.6875 37.984375 54.4375 35.8125 
Q 54.203125 33.640625 53.71875 31.203125 
z
M 44 27.484375 
L 35.015625 27.484375 
Q 23.96875 27.484375 18.671875 24.53125 
Q 13.375 21.578125 13.375 15.375 
Q 13.375 11.078125 16.078125 8.640625 
Q 18.796875 6.203125 23.578125 6.203125 
Q 30.90625 6.203125 36.375 11.453125 
Q 41.84375 16.703125 43.609375 25.484375 
z
" id="DejaVuSans-Oblique-97"/>
       <path d="M 31 75.875 
Q 24.46875 64.65625 21.28125 53.65625 
Q 18.109375 42.671875 18.109375 31.390625 
Q 18.109375 20.125 21.3125 9.0625 
Q 24.515625 -2 31 -13.1875 
L 23.1875 -13.1875 
Q 15.875 -1.703125 12.234375 9.375 
Q 8.59375 20.453125 8.59375 31.390625 
Q 8.59375 42.28125 12.203125 53.3125 
Q 15.828125 64.359375 23.1875 75.875 
z
" id="DejaVuSans-40"/>
       <path d="M 8.015625 75.875 
L 15.828125 75.875 
Q 23.140625 64.359375 26.78125 53.3125 
Q 30.421875 42.28125 30.421875 31.390625 
Q 30.421875 20.453125 26.78125 9.375 
Q 23.140625 -1.703125 15.828125 -13.1875 
L 8.015625 -13.1875 
Q 14.5 -2 17.703125 9.0625 
Q 20.90625 20.125 20.90625 31.390625 
Q 20.90625 42.671875 17.703125 53.65625 
Q 14.5 64.65625 8.015625 75.875 
z
" id="DejaVuSans-41"/>
      </defs>
      <use transform="translate(0 0.125)" xlink:href="#DejaVuSans-Oblique-97"/>
      <use transform="translate(61.279297 0.125)" xlink:href="#DejaVuSans-40"/>
      <use transform="translate(100.292969 0.125)" xlink:href="#DejaVuSans-Oblique-122"/>
      <use transform="translate(152.783203 0.125)" xlink:href="#DejaVuSans-41"/>
     </g>
    </g>
   </g>
   <g id="line2d_25">
    <path clip-path="url(#p935e9bbe8b)" d="M 42.620313 144.338824 
L 48.200307 144.145044 
L 53.780315 143.93311 
L 59.36031 143.70156 
L 64.940318 143.448865 
L 70.520313 143.173434 
L 76.100307 142.873625 
L 81.680315 142.547758 
L 87.26031 142.194131 
L 92.840305 141.811042 
L 98.420313 141.39681 
L 104.000307 140.949812 
L 109.580309 140.468504 
L 115.16031 139.95147 
L 120.740311 139.397459 
L 126.320313 138.805428 
L 131.900314 138.174596 
L 137.480315 137.504482 
L 143.060316 136.794969 
L 148.640311 136.046332 
L 154.220313 135.259295 
L 159.800314 134.435061 
L 165.380315 133.575332 
L 170.960313 132.682333 
L 176.540311 131.758808 
L 182.120313 130.808005 
L 187.700311 129.833647 
L 193.280312 128.839882 
L 198.860312 127.831222 
L 204.440311 126.812469 
L 210.020311 125.788616 
L 215.600311 124.764764 
L 221.180313 123.746011 
L 226.760313 122.73735 
L 232.340313 121.743585 
L 237.920313 120.769225 
L 243.500314 119.818424 
L 249.080312 118.8949 
L 254.660313 118.0019 
L 260.240311 117.142172 
L 265.820312 116.317935 
L 271.400314 115.530899 
L 276.980315 114.782261 
L 282.56031 114.072747 
L 288.140311 113.402634 
L 293.720312 112.771805 
L 299.300314 112.179774 
L 304.880315 111.625759 
L 310.46031 111.108731 
L 316.040311 110.627418 
L 321.620313 110.180423 
L 327.200307 109.76619 
L 332.780315 109.383099 
L 338.36031 109.029472 
L 343.940318 108.703606 
L 349.520313 108.403797 
L 355.100307 108.128366 
L 360.680315 107.875672 
L 366.26031 107.644121 
L 371.840318 107.432186 
L 377.420313 107.238408 
" style="fill:none;stroke:#1f77b4;stroke-linecap:square;stroke-width:1.5;"/>
    <defs>
     <path d="M -0 3 
L 3 -3 
L -3 -3 
z
" id="m801dd7a828" style="stroke:#1f77b4;stroke-linejoin:miter;"/>
    </defs>
    <g clip-path="url(#p935e9bbe8b)">
     <use style="fill:#1f77b4;stroke:#1f77b4;stroke-linejoin:miter;" x="42.620313" xlink:href="#m801dd7a828" y="144.338824"/>
     <use style="fill:#1f77b4;stroke:#1f77b4;stroke-linejoin:miter;" x="98.420313" xlink:href="#m801dd7a828" y="141.39681"/>
     <use style="fill:#1f77b4;stroke:#1f77b4;stroke-linejoin:miter;" x="154.220313" xlink:href="#m801dd7a828" y="135.259295"/>
     <use style="fill:#1f77b4;stroke:#1f77b4;stroke-linejoin:miter;" x="210.020311" xlink:href="#m801dd7a828" y="125.788616"/>
     <use style="fill:#1f77b4;stroke:#1f77b4;stroke-linejoin:miter;" x="265.820312" xlink:href="#m801dd7a828" y="116.317935"/>
     <use style="fill:#1f77b4;stroke:#1f77b4;stroke-linejoin:miter;" x="321.620313" xlink:href="#m801dd7a828" y="110.180423"/>
     <use style="fill:#1f77b4;stroke:#1f77b4;stroke-linejoin:miter;" x="377.420313" xlink:href="#m801dd7a828" y="107.238408"/>
    </g>
   </g>
   <g id="line2d_26">
    <path clip-path="url(#p935e9bbe8b)" d="M 42.620313 187.06825 
L 48.200307 187.023508 
L 53.780315 186.968924 
L 59.36031 186.902357 
L 64.940318 186.821198 
L 70.520313 186.722289 
L 76.100307 186.601809 
L 81.680315 186.455133 
L 87.26031 186.276699 
L 92.840305 186.059824 
L 98.420313 185.796501 
L 104.000307 185.477199 
L 109.580309 185.090619 
L 115.16031 184.623479 
L 120.740311 184.060278 
L 126.320313 183.383142 
L 131.900314 182.571714 
L 137.480315 181.603223 
L 143.060316 180.452743 
L 148.640311 179.093756 
L 154.220313 177.499116 
L 159.800314 175.6425 
L 165.380315 173.50041 
L 170.960313 171.054686 
L 176.540311 168.295433 
L 182.120313 165.224086 
L 187.700311 161.856159 
L 193.280312 158.223112 
L 198.860312 154.37279 
L 204.440311 150.367941 
L 210.020311 146.282727 
L 215.600311 142.197513 
L 221.180313 138.192662 
L 226.760313 134.342339 
L 232.340313 130.709294 
L 237.920313 127.341366 
L 243.500314 124.270019 
L 249.080312 121.510766 
L 254.660313 119.065041 
L 260.240311 116.922951 
L 265.820312 115.066336 
L 271.400314 113.471696 
L 276.980315 112.112706 
L 282.56031 110.962229 
L 288.140311 109.993737 
L 293.720312 109.182309 
L 299.300314 108.505173 
L 304.880315 107.941973 
L 310.46031 107.474833 
L 316.040311 107.088255 
L 321.620313 106.768951 
L 327.200307 106.505628 
L 332.780315 106.288752 
L 338.36031 106.110319 
L 343.940318 105.963643 
L 349.520313 105.843162 
L 355.100307 105.744254 
L 360.680315 105.663094 
L 366.26031 105.596528 
L 371.840318 105.541944 
L 377.420313 105.497201 
" style="fill:none;stroke:#ff7f0e;stroke-linecap:square;stroke-width:1.5;"/>
    <defs>
     <path d="M 0 -3 
L -3 3 
L 3 3 
z
" id="m54dfc3b5db" style="stroke:#ff7f0e;stroke-linejoin:miter;"/>
    </defs>
    <g clip-path="url(#p935e9bbe8b)">
     <use style="fill:#ff7f0e;stroke:#ff7f0e;stroke-linejoin:miter;" x="42.620313" xlink:href="#m54dfc3b5db" y="187.06825"/>
     <use style="fill:#ff7f0e;stroke:#ff7f0e;stroke-linejoin:miter;" x="98.420313" xlink:href="#m54dfc3b5db" y="185.796501"/>
     <use style="fill:#ff7f0e;stroke:#ff7f0e;stroke-linejoin:miter;" x="154.220313" xlink:href="#m54dfc3b5db" y="177.499116"/>
     <use style="fill:#ff7f0e;stroke:#ff7f0e;stroke-linejoin:miter;" x="210.020311" xlink:href="#m54dfc3b5db" y="146.282727"/>
     <use style="fill:#ff7f0e;stroke:#ff7f0e;stroke-linejoin:miter;" x="265.820312" xlink:href="#m54dfc3b5db" y="115.066336"/>
     <use style="fill:#ff7f0e;stroke:#ff7f0e;stroke-linejoin:miter;" x="321.620313" xlink:href="#m54dfc3b5db" y="106.768951"/>
     <use style="fill:#ff7f0e;stroke:#ff7f0e;stroke-linejoin:miter;" x="377.420313" xlink:href="#m54dfc3b5db" y="105.497201"/>
    </g>
   </g>
   <g id="line2d_27">
    <path clip-path="url(#p935e9bbe8b)" d="M 42.620313 146.282726 
L 48.200307 146.282726 
L 53.780315 146.282726 
L 59.36031 146.282726 
L 64.940318 146.282726 
L 70.520313 146.282726 
L 76.100307 146.282726 
L 81.680315 146.282726 
L 87.26031 146.282726 
L 92.840305 146.282726 
L 98.420313 146.282726 
L 104.000307 146.282726 
L 109.580309 146.282726 
L 115.16031 146.282726 
L 120.740311 146.282726 
L 126.320313 146.282726 
L 131.900314 146.282726 
L 137.480315 146.282726 
L 143.060316 146.282726 
L 148.640311 146.282726 
L 154.220313 146.282726 
L 159.800314 146.282726 
L 165.380315 146.282726 
L 170.960313 146.282726 
L 176.540311 146.282726 
L 182.120313 146.282726 
L 187.700311 146.282726 
L 193.280312 146.282726 
L 198.860312 146.282726 
L 204.440311 146.282726 
L 210.020311 146.282726 
L 215.600311 142.183905 
L 221.180313 138.085082 
L 226.760313 133.986259 
L 232.340313 129.887438 
L 237.920313 125.788616 
L 243.500314 121.689793 
L 249.080312 117.590972 
L 254.660313 113.492149 
L 260.240311 109.393329 
L 265.820312 105.294506 
L 271.400314 101.195683 
L 276.980315 97.09686 
L 282.56031 92.998042 
L 288.140311 88.899219 
L 293.720312 84.800396 
L 299.300314 80.701573 
L 304.880315 76.60275 
L 310.46031 72.503932 
L 316.040311 68.405109 
L 321.620313 64.306286 
L 327.200307 60.207467 
L 332.780315 56.10864 
L 338.36031 52.009821 
L 343.940318 47.910994 
L 349.520313 43.812176 
L 355.100307 39.713357 
L 360.680315 35.61453 
L 366.26031 31.515711 
L 371.840318 27.416884 
L 377.420313 23.318065 
" style="fill:none;stroke:#2ca02c;stroke-dasharray:5.55,2.4;stroke-dashoffset:0;stroke-width:1.5;"/>
    <defs>
     <path d="M 0 3 
C 0.795609 3 1.55874 2.683901 2.12132 2.12132 
C 2.683901 1.55874 3 0.795609 3 0 
C 3 -0.795609 2.683901 -1.55874 2.12132 -2.12132 
C 1.55874 -2.683901 0.795609 -3 0 -3 
C -0.795609 -3 -1.55874 -2.683901 -2.12132 -2.12132 
C -2.683901 -1.55874 -3 -0.795609 -3 0 
C -3 0.795609 -2.683901 1.55874 -2.12132 2.12132 
C -1.55874 2.683901 -0.795609 3 0 3 
z
" id="mc6e3a7510d" style="stroke:#2ca02c;"/>
    </defs>
    <g clip-path="url(#p935e9bbe8b)">
     <use style="fill:#2ca02c;stroke:#2ca02c;" x="42.620313" xlink:href="#mc6e3a7510d" y="146.282726"/>
     <use style="fill:#2ca02c;stroke:#2ca02c;" x="98.420313" xlink:href="#mc6e3a7510d" y="146.282726"/>
     <use style="fill:#2ca02c;stroke:#2ca02c;" x="154.220313" xlink:href="#mc6e3a7510d" y="146.282726"/>
     <use style="fill:#2ca02c;stroke:#2ca02c;" x="210.020311" xlink:href="#mc6e3a7510d" y="146.282726"/>
     <use style="fill:#2ca02c;stroke:#2ca02c;" x="265.820312" xlink:href="#mc6e3a7510d" y="105.294506"/>
     <use style="fill:#2ca02c;stroke:#2ca02c;" x="321.620313" xlink:href="#mc6e3a7510d" y="64.306286"/>
     <use style="fill:#2ca02c;stroke:#2ca02c;" x="377.420313" xlink:href="#mc6e3a7510d" y="23.318065"/>
    </g>
   </g>
   <g id="line2d_28">
    <path clip-path="url(#p935e9bbe8b)" d="M 42.620313 185.230264 
L 48.200307 185.015643 
L 53.780315 184.778449 
L 59.36031 184.516313 
L 64.940318 184.226604 
L 70.520313 183.906427 
L 76.100307 183.55258 
L 81.680315 183.161515 
L 87.26031 182.729323 
L 92.840305 182.251675 
L 98.420313 181.723794 
L 104.000307 181.140395 
L 109.580309 180.495639 
L 115.16031 179.783073 
L 120.740311 178.995566 
L 126.320313 178.125238 
L 131.900314 177.163374 
L 137.480315 176.100352 
L 143.060316 174.92553 
L 148.640311 173.627153 
L 154.220313 172.192222 
L 159.800314 170.606379 
L 165.380315 168.853749 
L 170.960313 166.916798 
L 176.540311 164.776135 
L 182.120313 162.410333 
L 187.700311 159.795721 
L 193.280312 156.906126 
L 198.860312 153.712631 
L 204.440311 150.183273 
L 210.020311 146.282726 
L 215.600311 142.183905 
L 221.180313 138.085082 
L 226.760313 133.986259 
L 232.340313 129.887438 
L 237.920313 125.788616 
L 243.500314 121.689793 
L 249.080312 117.590972 
L 254.660313 113.492149 
L 260.240311 109.393329 
L 265.820312 105.294506 
L 271.400314 101.195683 
L 276.980315 97.09686 
L 282.56031 92.998042 
L 288.140311 88.899219 
L 293.720312 84.800396 
L 299.300314 80.701573 
L 304.880315 76.60275 
L 310.46031 72.503932 
L 316.040311 68.405109 
L 321.620313 64.306286 
L 327.200307 60.207467 
L 332.780315 56.10864 
L 338.36031 52.009821 
L 343.940318 47.910994 
L 349.520313 43.812176 
L 355.100307 39.713357 
L 360.680315 35.61453 
L 366.26031 31.515711 
L 371.840318 27.416884 
L 377.420313 23.318065 
" style="fill:none;stroke:#d62728;stroke-dasharray:9.6,2.4,1.5,2.4;stroke-dashoffset:0;stroke-width:1.5;"/>
    <defs>
     <path d="M -3 -0 
L 3 3 
L 3 -3 
z
" id="m4634c68bb6" style="stroke:#d62728;stroke-linejoin:miter;"/>
    </defs>
    <g clip-path="url(#p935e9bbe8b)">
     <use style="fill:#d62728;stroke:#d62728;stroke-linejoin:miter;" x="42.620313" xlink:href="#m4634c68bb6" y="185.230264"/>
     <use style="fill:#d62728;stroke:#d62728;stroke-linejoin:miter;" x="98.420313" xlink:href="#m4634c68bb6" y="181.723794"/>
     <use style="fill:#d62728;stroke:#d62728;stroke-linejoin:miter;" x="154.220313" xlink:href="#m4634c68bb6" y="172.192222"/>
     <use style="fill:#d62728;stroke:#d62728;stroke-linejoin:miter;" x="210.020311" xlink:href="#m4634c68bb6" y="146.282726"/>
     <use style="fill:#d62728;stroke:#d62728;stroke-linejoin:miter;" x="265.820312" xlink:href="#m4634c68bb6" y="105.294506"/>
     <use style="fill:#d62728;stroke:#d62728;stroke-linejoin:miter;" x="321.620313" xlink:href="#m4634c68bb6" y="64.306286"/>
     <use style="fill:#d62728;stroke:#d62728;stroke-linejoin:miter;" x="377.420313" xlink:href="#m4634c68bb6" y="23.318065"/>
    </g>
   </g>
   <g id="line2d_29">
    <path clip-path="url(#p935e9bbe8b)" d="M 42.620313 214.756364 
L 48.200307 214.379043 
L 53.780315 213.962028 
L 59.36031 213.501168 
L 64.940318 212.991833 
L 70.520313 212.428931 
L 76.100307 211.806833 
L 81.680315 211.119299 
L 87.26031 210.359464 
L 92.840305 209.519711 
L 98.420313 208.591646 
L 104.000307 207.565969 
L 109.580309 206.432425 
L 115.16031 205.179663 
L 120.740311 203.795145 
L 126.320313 202.265024 
L 131.900314 200.573972 
L 137.480315 198.705073 
L 143.060316 196.639618 
L 148.640311 194.356943 
L 154.220313 191.834195 
L 159.800314 189.046123 
L 165.380315 185.964827 
L 170.960313 182.559475 
L 176.540311 178.795975 
L 182.120313 174.636661 
L 187.700311 170.039913 
L 193.280312 164.959719 
L 198.860312 159.345237 
L 204.440311 153.140274 
L 210.020311 146.282726 
L 215.600311 141.97609 
L 221.180313 137.669453 
L 226.760313 133.362816 
L 232.340313 129.056179 
L 237.920313 124.749543 
L 243.500314 120.442906 
L 249.080312 116.136272 
L 254.660313 111.829633 
L 260.240311 107.522998 
L 265.820312 103.216361 
L 271.400314 98.909724 
L 276.980315 94.603087 
L 282.56031 90.296455 
L 288.140311 85.989818 
L 293.720312 81.683181 
L 299.300314 77.376539 
L 304.880315 73.069902 
L 310.46031 68.76327 
L 316.040311 64.456633 
L 321.620313 60.149996 
L 327.200307 55.843359 
L 332.780315 51.536722 
L 338.36031 47.230085 
L 343.940318 42.923448 
L 349.520313 38.616811 
L 355.100307 34.310184 
L 360.680315 30.003537 
L 366.26031 25.69691 
L 371.840318 21.390264 
L 377.420313 17.083636 
" style="fill:none;stroke:#9467bd;stroke-linecap:square;stroke-width:1.5;"/>
    <defs>
     <path d="M 3 0 
L -3 -3 
L -3 3 
z
" id="meca253d8ee" style="stroke:#9467bd;stroke-linejoin:miter;"/>
    </defs>
    <g clip-path="url(#p935e9bbe8b)">
     <use style="fill:#9467bd;stroke:#9467bd;stroke-linejoin:miter;" x="42.620313" xlink:href="#meca253d8ee" y="214.756364"/>
     <use style="fill:#9467bd;stroke:#9467bd;stroke-linejoin:miter;" x="98.420313" xlink:href="#meca253d8ee" y="208.591646"/>
     <use style="fill:#9467bd;stroke:#9467bd;stroke-linejoin:miter;" x="154.220313" xlink:href="#meca253d8ee" y="191.834195"/>
     <use style="fill:#9467bd;stroke:#9467bd;stroke-linejoin:miter;" x="210.020311" xlink:href="#meca253d8ee" y="146.282726"/>
     <use style="fill:#9467bd;stroke:#9467bd;stroke-linejoin:miter;" x="265.820312" xlink:href="#meca253d8ee" y="103.216361"/>
     <use style="fill:#9467bd;stroke:#9467bd;stroke-linejoin:miter;" x="321.620313" xlink:href="#meca253d8ee" y="60.149996"/>
     <use style="fill:#9467bd;stroke:#9467bd;stroke-linejoin:miter;" x="377.420313" xlink:href="#meca253d8ee" y="17.083636"/>
    </g>
   </g>
   <g id="patch_3">
    <path d="M 42.620313 224.64 
L 42.620313 7.2 
" style="fill:none;stroke:#000000;stroke-linecap:square;stroke-linejoin:miter;stroke-width:0.8;"/>
   </g>
   <g id="patch_4">
    <path d="M 377.420313 224.64 
L 377.420313 7.2 
" style="fill:none;stroke:#000000;stroke-linecap:square;stroke-linejoin:miter;stroke-width:0.8;"/>
   </g>
   <g id="patch_5">
    <path d="M 42.620313 224.64 
L 377.420313 224.64 
" style="fill:none;stroke:#000000;stroke-linecap:square;stroke-linejoin:miter;stroke-width:0.8;"/>
   </g>
   <g id="patch_6">
    <path d="M 42.620313 7.2 
L 377.420313 7.2 
" style="fill:none;stroke:#000000;stroke-linecap:square;stroke-linejoin:miter;stroke-width:0.8;"/>
   </g>
   <g id="legend_1">
    <g id="patch_7">
     <path d="M 49.620313 88.590625 
L 120.942188 88.590625 
Q 122.942188 88.590625 122.942188 86.590625 
L 122.942188 14.2 
Q 122.942188 12.2 120.942188 12.2 
L 49.620313 12.2 
Q 47.620313 12.2 47.620313 14.2 
L 47.620313 86.590625 
Q 47.620313 88.590625 49.620313 88.590625 
z
" style="fill:#ffffff;opacity:0.8;stroke:#cccccc;stroke-linejoin:miter;"/>
    </g>
    <g id="line2d_30">
     <path d="M 51.620313 20.298437 
L 71.620313 20.298437 
" style="fill:none;stroke:#1f77b4;stroke-linecap:square;stroke-width:1.5;"/>
    </g>
    <g id="line2d_31">
     <g>
      <use style="fill:#1f77b4;stroke:#1f77b4;stroke-linejoin:miter;" x="61.620313" xlink:href="#m801dd7a828" y="20.298437"/>
     </g>
    </g>
    <g id="text_15">
     <!-- sigmoid -->
     <g transform="translate(79.620313 23.798437)scale(0.1 -0.1)">
      <defs>
       <path d="M 44.28125 53.078125 
L 44.28125 44.578125 
Q 40.484375 46.53125 36.375 47.5 
Q 32.28125 48.484375 27.875 48.484375 
Q 21.1875 48.484375 17.84375 46.4375 
Q 14.5 44.390625 14.5 40.28125 
Q 14.5 37.15625 16.890625 35.375 
Q 19.28125 33.59375 26.515625 31.984375 
L 29.59375 31.296875 
Q 39.15625 29.25 43.1875 25.515625 
Q 47.21875 21.78125 47.21875 15.09375 
Q 47.21875 7.46875 41.1875 3.015625 
Q 35.15625 -1.421875 24.609375 -1.421875 
Q 20.21875 -1.421875 15.453125 -0.5625 
Q 10.6875 0.296875 5.421875 2 
L 5.421875 11.28125 
Q 10.40625 8.6875 15.234375 7.390625 
Q 20.0625 6.109375 24.8125 6.109375 
Q 31.15625 6.109375 34.5625 8.28125 
Q 37.984375 10.453125 37.984375 14.40625 
Q 37.984375 18.0625 35.515625 20.015625 
Q 33.0625 21.96875 24.703125 23.78125 
L 21.578125 24.515625 
Q 13.234375 26.265625 9.515625 29.90625 
Q 5.8125 33.546875 5.8125 39.890625 
Q 5.8125 47.609375 11.28125 51.796875 
Q 16.75 56 26.8125 56 
Q 31.78125 56 36.171875 55.265625 
Q 40.578125 54.546875 44.28125 53.078125 
z
" id="DejaVuSans-115"/>
       <path d="M 9.421875 54.6875 
L 18.40625 54.6875 
L 18.40625 0 
L 9.421875 0 
z
M 9.421875 75.984375 
L 18.40625 75.984375 
L 18.40625 64.59375 
L 9.421875 64.59375 
z
" id="DejaVuSans-105"/>
       <path d="M 45.40625 27.984375 
Q 45.40625 37.75 41.375 43.109375 
Q 37.359375 48.484375 30.078125 48.484375 
Q 22.859375 48.484375 18.828125 43.109375 
Q 14.796875 37.75 14.796875 27.984375 
Q 14.796875 18.265625 18.828125 12.890625 
Q 22.859375 7.515625 30.078125 7.515625 
Q 37.359375 7.515625 41.375 12.890625 
Q 45.40625 18.265625 45.40625 27.984375 
z
M 54.390625 6.78125 
Q 54.390625 -7.171875 48.1875 -13.984375 
Q 42 -20.796875 29.203125 -20.796875 
Q 24.46875 -20.796875 20.265625 -20.09375 
Q 16.0625 -19.390625 12.109375 -17.921875 
L 12.109375 -9.1875 
Q 16.0625 -11.328125 19.921875 -12.34375 
Q 23.78125 -13.375 27.78125 -13.375 
Q 36.625 -13.375 41.015625 -8.765625 
Q 45.40625 -4.15625 45.40625 5.171875 
L 45.40625 9.625 
Q 42.625 4.78125 38.28125 2.390625 
Q 33.9375 0 27.875 0 
Q 17.828125 0 11.671875 7.65625 
Q 5.515625 15.328125 5.515625 27.984375 
Q 5.515625 40.671875 11.671875 48.328125 
Q 17.828125 56 27.875 56 
Q 33.9375 56 38.28125 53.609375 
Q 42.625 51.21875 45.40625 46.390625 
L 45.40625 54.6875 
L 54.390625 54.6875 
z
" id="DejaVuSans-103"/>
       <path d="M 52 44.1875 
Q 55.375 50.25 60.0625 53.125 
Q 64.75 56 71.09375 56 
Q 79.640625 56 84.28125 50.015625 
Q 88.921875 44.046875 88.921875 33.015625 
L 88.921875 0 
L 79.890625 0 
L 79.890625 32.71875 
Q 79.890625 40.578125 77.09375 44.375 
Q 74.3125 48.1875 68.609375 48.1875 
Q 61.625 48.1875 57.5625 43.546875 
Q 53.515625 38.921875 53.515625 30.90625 
L 53.515625 0 
L 44.484375 0 
L 44.484375 32.71875 
Q 44.484375 40.625 41.703125 44.40625 
Q 38.921875 48.1875 33.109375 48.1875 
Q 26.21875 48.1875 22.15625 43.53125 
Q 18.109375 38.875 18.109375 30.90625 
L 18.109375 0 
L 9.078125 0 
L 9.078125 54.6875 
L 18.109375 54.6875 
L 18.109375 46.1875 
Q 21.1875 51.21875 25.484375 53.609375 
Q 29.78125 56 35.6875 56 
Q 41.65625 56 45.828125 52.96875 
Q 50 49.953125 52 44.1875 
z
" id="DejaVuSans-109"/>
       <path d="M 30.609375 48.390625 
Q 23.390625 48.390625 19.1875 42.75 
Q 14.984375 37.109375 14.984375 27.296875 
Q 14.984375 17.484375 19.15625 11.84375 
Q 23.34375 6.203125 30.609375 6.203125 
Q 37.796875 6.203125 41.984375 11.859375 
Q 46.1875 17.53125 46.1875 27.296875 
Q 46.1875 37.015625 41.984375 42.703125 
Q 37.796875 48.390625 30.609375 48.390625 
z
M 30.609375 56 
Q 42.328125 56 49.015625 48.375 
Q 55.71875 40.765625 55.71875 27.296875 
Q 55.71875 13.875 49.015625 6.21875 
Q 42.328125 -1.421875 30.609375 -1.421875 
Q 18.84375 -1.421875 12.171875 6.21875 
Q 5.515625 13.875 5.515625 27.296875 
Q 5.515625 40.765625 12.171875 48.375 
Q 18.84375 56 30.609375 56 
z
" id="DejaVuSans-111"/>
       <path d="M 45.40625 46.390625 
L 45.40625 75.984375 
L 54.390625 75.984375 
L 54.390625 0 
L 45.40625 0 
L 45.40625 8.203125 
Q 42.578125 3.328125 38.25 0.953125 
Q 33.9375 -1.421875 27.875 -1.421875 
Q 17.96875 -1.421875 11.734375 6.484375 
Q 5.515625 14.40625 5.515625 27.296875 
Q 5.515625 40.1875 11.734375 48.09375 
Q 17.96875 56 27.875 56 
Q 33.9375 56 38.25 53.625 
Q 42.578125 51.265625 45.40625 46.390625 
z
M 14.796875 27.296875 
Q 14.796875 17.390625 18.875 11.75 
Q 22.953125 6.109375 30.078125 6.109375 
Q 37.203125 6.109375 41.296875 11.75 
Q 45.40625 17.390625 45.40625 27.296875 
Q 45.40625 37.203125 41.296875 42.84375 
Q 37.203125 48.484375 30.078125 48.484375 
Q 22.953125 48.484375 18.875 42.84375 
Q 14.796875 37.203125 14.796875 27.296875 
z
" id="DejaVuSans-100"/>
      </defs>
      <use xlink:href="#DejaVuSans-115"/>
      <use x="52.099609" xlink:href="#DejaVuSans-105"/>
      <use x="79.882812" xlink:href="#DejaVuSans-103"/>
      <use x="143.359375" xlink:href="#DejaVuSans-109"/>
      <use x="240.771484" xlink:href="#DejaVuSans-111"/>
      <use x="301.953125" xlink:href="#DejaVuSans-105"/>
      <use x="329.736328" xlink:href="#DejaVuSans-100"/>
     </g>
    </g>
    <g id="line2d_32">
     <path d="M 51.620313 34.976562 
L 71.620313 34.976562 
" style="fill:none;stroke:#ff7f0e;stroke-linecap:square;stroke-width:1.5;"/>
    </g>
    <g id="line2d_33">
     <g>
      <use style="fill:#ff7f0e;stroke:#ff7f0e;stroke-linejoin:miter;" x="61.620313" xlink:href="#m54dfc3b5db" y="34.976562"/>
     </g>
    </g>
    <g id="text_16">
     <!-- tanh -->
     <g transform="translate(79.620313 38.476562)scale(0.1 -0.1)">
      <defs>
       <path d="M 18.3125 70.21875 
L 18.3125 54.6875 
L 36.8125 54.6875 
L 36.8125 47.703125 
L 18.3125 47.703125 
L 18.3125 18.015625 
Q 18.3125 11.328125 20.140625 9.421875 
Q 21.96875 7.515625 27.59375 7.515625 
L 36.8125 7.515625 
L 36.8125 0 
L 27.59375 0 
Q 17.1875 0 13.234375 3.875 
Q 9.28125 7.765625 9.28125 18.015625 
L 9.28125 47.703125 
L 2.6875 47.703125 
L 2.6875 54.6875 
L 9.28125 54.6875 
L 9.28125 70.21875 
z
" id="DejaVuSans-116"/>
       <path d="M 34.28125 27.484375 
Q 23.390625 27.484375 19.1875 25 
Q 14.984375 22.515625 14.984375 16.5 
Q 14.984375 11.71875 18.140625 8.90625 
Q 21.296875 6.109375 26.703125 6.109375 
Q 34.1875 6.109375 38.703125 11.40625 
Q 43.21875 16.703125 43.21875 25.484375 
L 43.21875 27.484375 
z
M 52.203125 31.203125 
L 52.203125 0 
L 43.21875 0 
L 43.21875 8.296875 
Q 40.140625 3.328125 35.546875 0.953125 
Q 30.953125 -1.421875 24.3125 -1.421875 
Q 15.921875 -1.421875 10.953125 3.296875 
Q 6 8.015625 6 15.921875 
Q 6 25.140625 12.171875 29.828125 
Q 18.359375 34.515625 30.609375 34.515625 
L 43.21875 34.515625 
L 43.21875 35.40625 
Q 43.21875 41.609375 39.140625 45 
Q 35.0625 48.390625 27.6875 48.390625 
Q 23 48.390625 18.546875 47.265625 
Q 14.109375 46.140625 10.015625 43.890625 
L 10.015625 52.203125 
Q 14.9375 54.109375 19.578125 55.046875 
Q 24.21875 56 28.609375 56 
Q 40.484375 56 46.34375 49.84375 
Q 52.203125 43.703125 52.203125 31.203125 
z
" id="DejaVuSans-97"/>
       <path d="M 54.890625 33.015625 
L 54.890625 0 
L 45.90625 0 
L 45.90625 32.71875 
Q 45.90625 40.484375 42.875 44.328125 
Q 39.84375 48.1875 33.796875 48.1875 
Q 26.515625 48.1875 22.3125 43.546875 
Q 18.109375 38.921875 18.109375 30.90625 
L 18.109375 0 
L 9.078125 0 
L 9.078125 54.6875 
L 18.109375 54.6875 
L 18.109375 46.1875 
Q 21.34375 51.125 25.703125 53.5625 
Q 30.078125 56 35.796875 56 
Q 45.21875 56 50.046875 50.171875 
Q 54.890625 44.34375 54.890625 33.015625 
z
" id="DejaVuSans-110"/>
       <path d="M 54.890625 33.015625 
L 54.890625 0 
L 45.90625 0 
L 45.90625 32.71875 
Q 45.90625 40.484375 42.875 44.328125 
Q 39.84375 48.1875 33.796875 48.1875 
Q 26.515625 48.1875 22.3125 43.546875 
Q 18.109375 38.921875 18.109375 30.90625 
L 18.109375 0 
L 9.078125 0 
L 9.078125 75.984375 
L 18.109375 75.984375 
L 18.109375 46.1875 
Q 21.34375 51.125 25.703125 53.5625 
Q 30.078125 56 35.796875 56 
Q 45.21875 56 50.046875 50.171875 
Q 54.890625 44.34375 54.890625 33.015625 
z
" id="DejaVuSans-104"/>
      </defs>
      <use xlink:href="#DejaVuSans-116"/>
      <use x="39.208984" xlink:href="#DejaVuSans-97"/>
      <use x="100.488281" xlink:href="#DejaVuSans-110"/>
      <use x="163.867188" xlink:href="#DejaVuSans-104"/>
     </g>
    </g>
    <g id="line2d_34">
     <path d="M 51.620313 49.654687 
L 71.620313 49.654687 
" style="fill:none;stroke:#2ca02c;stroke-dasharray:5.55,2.4;stroke-dashoffset:0;stroke-width:1.5;"/>
    </g>
    <g id="line2d_35">
     <g>
      <use style="fill:#2ca02c;stroke:#2ca02c;" x="61.620313" xlink:href="#mc6e3a7510d" y="49.654687"/>
     </g>
    </g>
    <g id="text_17">
     <!-- relu -->
     <g transform="translate(79.620313 53.154687)scale(0.1 -0.1)">
      <defs>
       <path d="M 41.109375 46.296875 
Q 39.59375 47.171875 37.8125 47.578125 
Q 36.03125 48 33.890625 48 
Q 26.265625 48 22.1875 43.046875 
Q 18.109375 38.09375 18.109375 28.8125 
L 18.109375 0 
L 9.078125 0 
L 9.078125 54.6875 
L 18.109375 54.6875 
L 18.109375 46.1875 
Q 20.953125 51.171875 25.484375 53.578125 
Q 30.03125 56 36.53125 56 
Q 37.453125 56 38.578125 55.875 
Q 39.703125 55.765625 41.0625 55.515625 
z
" id="DejaVuSans-114"/>
       <path d="M 56.203125 29.59375 
L 56.203125 25.203125 
L 14.890625 25.203125 
Q 15.484375 15.921875 20.484375 11.0625 
Q 25.484375 6.203125 34.421875 6.203125 
Q 39.59375 6.203125 44.453125 7.46875 
Q 49.3125 8.734375 54.109375 11.28125 
L 54.109375 2.78125 
Q 49.265625 0.734375 44.1875 -0.34375 
Q 39.109375 -1.421875 33.890625 -1.421875 
Q 20.796875 -1.421875 13.15625 6.1875 
Q 5.515625 13.8125 5.515625 26.8125 
Q 5.515625 40.234375 12.765625 48.109375 
Q 20.015625 56 32.328125 56 
Q 43.359375 56 49.78125 48.890625 
Q 56.203125 41.796875 56.203125 29.59375 
z
M 47.21875 32.234375 
Q 47.125 39.59375 43.09375 43.984375 
Q 39.0625 48.390625 32.421875 48.390625 
Q 24.90625 48.390625 20.390625 44.140625 
Q 15.875 39.890625 15.1875 32.171875 
z
" id="DejaVuSans-101"/>
       <path d="M 9.421875 75.984375 
L 18.40625 75.984375 
L 18.40625 0 
L 9.421875 0 
z
" id="DejaVuSans-108"/>
       <path d="M 8.5 21.578125 
L 8.5 54.6875 
L 17.484375 54.6875 
L 17.484375 21.921875 
Q 17.484375 14.15625 20.5 10.265625 
Q 23.53125 6.390625 29.59375 6.390625 
Q 36.859375 6.390625 41.078125 11.03125 
Q 45.3125 15.671875 45.3125 23.6875 
L 45.3125 54.6875 
L 54.296875 54.6875 
L 54.296875 0 
L 45.3125 0 
L 45.3125 8.40625 
Q 42.046875 3.421875 37.71875 1 
Q 33.40625 -1.421875 27.6875 -1.421875 
Q 18.265625 -1.421875 13.375 4.4375 
Q 8.5 10.296875 8.5 21.578125 
z
M 31.109375 56 
z
" id="DejaVuSans-117"/>
      </defs>
      <use xlink:href="#DejaVuSans-114"/>
      <use x="38.863281" xlink:href="#DejaVuSans-101"/>
      <use x="100.386719" xlink:href="#DejaVuSans-108"/>
      <use x="128.169922" xlink:href="#DejaVuSans-117"/>
     </g>
    </g>
    <g id="line2d_36">
     <path d="M 51.620313 64.332812 
L 71.620313 64.332812 
" style="fill:none;stroke:#d62728;stroke-dasharray:9.6,2.4,1.5,2.4;stroke-dashoffset:0;stroke-width:1.5;"/>
    </g>
    <g id="line2d_37">
     <g>
      <use style="fill:#d62728;stroke:#d62728;stroke-linejoin:miter;" x="61.620313" xlink:href="#m4634c68bb6" y="64.332812"/>
     </g>
    </g>
    <g id="text_18">
     <!-- elu -->
     <g transform="translate(79.620313 67.832812)scale(0.1 -0.1)">
      <use xlink:href="#DejaVuSans-101"/>
      <use x="61.523438" xlink:href="#DejaVuSans-108"/>
      <use x="89.306641" xlink:href="#DejaVuSans-117"/>
     </g>
    </g>
    <g id="line2d_38">
     <path d="M 51.620313 79.010937 
L 71.620313 79.010937 
" style="fill:none;stroke:#9467bd;stroke-linecap:square;stroke-width:1.5;"/>
    </g>
    <g id="line2d_39">
     <g>
      <use style="fill:#9467bd;stroke:#9467bd;stroke-linejoin:miter;" x="61.620313" xlink:href="#meca253d8ee" y="79.010937"/>
     </g>
    </g>
    <g id="text_19">
     <!-- selu -->
     <g transform="translate(79.620313 82.510937)scale(0.1 -0.1)">
      <use xlink:href="#DejaVuSans-115"/>
      <use x="52.099609" xlink:href="#DejaVuSans-101"/>
      <use x="113.623047" xlink:href="#DejaVuSans-108"/>
      <use x="141.40625" xlink:href="#DejaVuSans-117"/>
     </g>
    </g>
   </g>
  </g>
 </g>
 <defs>
  <clipPath id="p935e9bbe8b">
   <rect height="217.44" width="334.8" x="42.620313" y="7.2"/>
  </clipPath>
 </defs>
</svg>
