<?xml version="1.0" encoding="utf-8" standalone="no"?>
<!DOCTYPE svg PUBLIC "-//W3C//DTD SVG 1.1//EN"
  "http://www.w3.org/Graphics/SVG/1.1/DTD/svg11.dtd">
<!-- Created with matplotlib (https://matplotlib.org/) -->
<svg height="262.19625pt" version="1.1" viewBox="0 0 384.620312 262.19625" width="384.620312pt" xmlns="http://www.w3.org/2000/svg" xmlns:xlink="http://www.w3.org/1999/xlink">
 <metadata>
  <rdf:RDF xmlns:cc="http://creativecommons.org/ns#" xmlns:dc="http://purl.org/dc/elements/1.1/" xmlns:rdf="http://www.w3.org/1999/02/22-rdf-syntax-ns#">
   <cc:Work>
    <dc:type rdf:resource="http://purl.org/dc/dcmitype/StillImage"/>
    <dc:date>2022-01-19T10:11:37.648633</dc:date>
    <dc:format>image/svg+xml</dc:format>
    <dc:creator>
     <cc:Agent>
      <dc:title>Matplotlib v3.3.3, https://matplotlib.org/</dc:title>
     </cc:Agent>
    </dc:creator>
   </cc:Work>
  </rdf:RDF>
 </metadata>
 <defs>
  <style type="text/css">*{stroke-linecap:butt;stroke-linejoin:round;}</style>
 </defs>
 <g id="figure_1">
  <g id="patch_1">
   <path d="M 0 262.19625 
L 384.620312 262.19625 
L 384.620312 0 
L 0 0 
z
" style="fill:none;"/>
  </g>
  <g id="axes_1">
   <g id="patch_2">
    <path d="M 42.620313 224.64 
L 377.420313 224.64 
L 377.420313 7.2 
L 42.620313 7.2 
z
" style="fill:#ffffff;"/>
   </g>
   <g id="PathCollection_1">
    <defs>
     <path d="M 0 3 
C 0.795609 3 1.55874 2.683901 2.12132 2.12132 
C 2.683901 1.55874 3 0.795609 3 0 
C 3 -0.795609 2.683901 -1.55874 2.12132 -2.12132 
C 1.55874 -2.683901 0.795609 -3 0 -3 
C -0.795609 -3 -1.55874 -2.683901 -2.12132 -2.12132 
C -2.683901 -1.55874 -3 -0.795609 -3 0 
C -3 0.795609 -2.683901 1.55874 -2.12132 2.12132 
C -1.55874 2.683901 -0.795609 3 0 3 
z
" id="m3f6db81797" style="stroke:#1f77b4;"/>
    </defs>
    <g clip-path="url(#pf707f36012)">
     <use style="fill:#1f77b4;stroke:#1f77b4;" x="181.883486" xlink:href="#m3f6db81797" y="178.219624"/>
     <use style="fill:#1f77b4;stroke:#1f77b4;" x="99.587914" xlink:href="#m3f6db81797" y="132.009098"/>
     <use style="fill:#1f77b4;stroke:#1f77b4;" x="184.861246" xlink:href="#m3f6db81797" y="128.275611"/>
     <use style="fill:#1f77b4;stroke:#1f77b4;" x="138.37303" xlink:href="#m3f6db81797" y="142.594269"/>
     <use style="fill:#1f77b4;stroke:#1f77b4;" x="326.009575" xlink:href="#m3f6db81797" y="116.742382"/>
     <use style="fill:#1f77b4;stroke:#1f77b4;" x="109.920119" xlink:href="#m3f6db81797" y="130.117275"/>
     <use style="fill:#1f77b4;stroke:#1f77b4;" x="154.931082" xlink:href="#m3f6db81797" y="172.847062"/>
     <use style="fill:#1f77b4;stroke:#1f77b4;" x="352.427921" xlink:href="#m3f6db81797" y="148.627543"/>
     <use style="fill:#1f77b4;stroke:#1f77b4;" x="158.78462" xlink:href="#m3f6db81797" y="126.502917"/>
     <use style="fill:#1f77b4;stroke:#1f77b4;" x="326.036114" xlink:href="#m3f6db81797" y="173.679558"/>
     <use style="fill:#1f77b4;stroke:#1f77b4;" x="328.041505" xlink:href="#m3f6db81797" y="144.867147"/>
     <use style="fill:#1f77b4;stroke:#1f77b4;" x="138.61702" xlink:href="#m3f6db81797" y="150.599701"/>
     <use style="fill:#1f77b4;stroke:#1f77b4;" x="179.157341" xlink:href="#m3f6db81797" y="134.019149"/>
     <use style="fill:#1f77b4;stroke:#1f77b4;" x="298.953424" xlink:href="#m3f6db81797" y="173.059467"/>
     <use style="fill:#1f77b4;stroke:#1f77b4;" x="274.216753" xlink:href="#m3f6db81797" y="165.068153"/>
     <use style="fill:#1f77b4;stroke:#1f77b4;" x="104.559411" xlink:href="#m3f6db81797" y="141.577935"/>
     <use style="fill:#1f77b4;stroke:#1f77b4;" x="290.00631" xlink:href="#m3f6db81797" y="154.921518"/>
     <use style="fill:#1f77b4;stroke:#1f77b4;" x="188.072854" xlink:href="#m3f6db81797" y="146.428724"/>
     <use style="fill:#1f77b4;stroke:#1f77b4;" x="189.508215" xlink:href="#m3f6db81797" y="150.410275"/>
     <use style="fill:#1f77b4;stroke:#1f77b4;" x="261.095955" xlink:href="#m3f6db81797" y="189.020895"/>
     <use style="fill:#1f77b4;stroke:#1f77b4;" x="162.38641" xlink:href="#m3f6db81797" y="158.405655"/>
     <use style="fill:#1f77b4;stroke:#1f77b4;" x="318.255816" xlink:href="#m3f6db81797" y="171.534138"/>
     <use style="fill:#1f77b4;stroke:#1f77b4;" x="166.285483" xlink:href="#m3f6db81797" y="150.902908"/>
     <use style="fill:#1f77b4;stroke:#1f77b4;" x="208.260325" xlink:href="#m3f6db81797" y="117.959501"/>
     <use style="fill:#1f77b4;stroke:#1f77b4;" x="291.428332" xlink:href="#m3f6db81797" y="149.654626"/>
     <use style="fill:#1f77b4;stroke:#1f77b4;" x="158.939495" xlink:href="#m3f6db81797" y="148.151037"/>
     <use style="fill:#1f77b4;stroke:#1f77b4;" x="245.985802" xlink:href="#m3f6db81797" y="137.583362"/>
     <use style="fill:#1f77b4;stroke:#1f77b4;" x="161.232867" xlink:href="#m3f6db81797" y="125.526482"/>
     <use style="fill:#1f77b4;stroke:#1f77b4;" x="212.324207" xlink:href="#m3f6db81797" y="101.601742"/>
     <use style="fill:#1f77b4;stroke:#1f77b4;" x="189.61344" xlink:href="#m3f6db81797" y="180.752498"/>
     <use style="fill:#1f77b4;stroke:#1f77b4;" x="259.581382" xlink:href="#m3f6db81797" y="177.921655"/>
     <use style="fill:#1f77b4;stroke:#1f77b4;" x="156.460956" xlink:href="#m3f6db81797" y="151.264145"/>
     <use style="fill:#1f77b4;stroke:#1f77b4;" x="298.417491" xlink:href="#m3f6db81797" y="176.889355"/>
     <use style="fill:#1f77b4;stroke:#1f77b4;" x="161.592957" xlink:href="#m3f6db81797" y="107.762304"/>
     <use style="fill:#1f77b4;stroke:#1f77b4;" x="239.996235" xlink:href="#m3f6db81797" y="134.220864"/>
     <use style="fill:#1f77b4;stroke:#1f77b4;" x="154.027855" xlink:href="#m3f6db81797" y="173.00944"/>
     <use style="fill:#1f77b4;stroke:#1f77b4;" x="298.788317" xlink:href="#m3f6db81797" y="173.898353"/>
     <use style="fill:#1f77b4;stroke:#1f77b4;" x="314.717016" xlink:href="#m3f6db81797" y="146.707433"/>
     <use style="fill:#1f77b4;stroke:#1f77b4;" x="197.562605" xlink:href="#m3f6db81797" y="138.703222"/>
     <use style="fill:#1f77b4;stroke:#1f77b4;" x="172.111791" xlink:href="#m3f6db81797" y="160.886729"/>
     <use style="fill:#1f77b4;stroke:#1f77b4;" x="216.489326" xlink:href="#m3f6db81797" y="155.81778"/>
     <use style="fill:#1f77b4;stroke:#1f77b4;" x="218.634624" xlink:href="#m3f6db81797" y="140.279164"/>
     <use style="fill:#1f77b4;stroke:#1f77b4;" x="170.36599" xlink:href="#m3f6db81797" y="124.24592"/>
     <use style="fill:#1f77b4;stroke:#1f77b4;" x="148.844327" xlink:href="#m3f6db81797" y="136.40561"/>
     <use style="fill:#1f77b4;stroke:#1f77b4;" x="213.436701" xlink:href="#m3f6db81797" y="119.118237"/>
     <use style="fill:#1f77b4;stroke:#1f77b4;" x="330.283711" xlink:href="#m3f6db81797" y="131.724206"/>
     <use style="fill:#1f77b4;stroke:#1f77b4;" x="312.258122" xlink:href="#m3f6db81797" y="133.163121"/>
     <use style="fill:#1f77b4;stroke:#1f77b4;" x="115.210074" xlink:href="#m3f6db81797" y="128.471295"/>
     <use style="fill:#1f77b4;stroke:#1f77b4;" x="227.591025" xlink:href="#m3f6db81797" y="131.770577"/>
     <use style="fill:#1f77b4;stroke:#1f77b4;" x="107.085354" xlink:href="#m3f6db81797" y="140.721163"/>
     <use style="fill:#1f77b4;stroke:#1f77b4;" x="157.252225" xlink:href="#m3f6db81797" y="144.80093"/>
     <use style="fill:#1f77b4;stroke:#1f77b4;" x="155.236649" xlink:href="#m3f6db81797" y="129.055102"/>
     <use style="fill:#1f77b4;stroke:#1f77b4;" x="262.898871" xlink:href="#m3f6db81797" y="182.879294"/>
     <use style="fill:#1f77b4;stroke:#1f77b4;" x="329.984941" xlink:href="#m3f6db81797" y="158.510655"/>
     <use style="fill:#1f77b4;stroke:#1f77b4;" x="210.908045" xlink:href="#m3f6db81797" y="146.038298"/>
     <use style="fill:#1f77b4;stroke:#1f77b4;" x="128.21074" xlink:href="#m3f6db81797" y="111.17379"/>
     <use style="fill:#1f77b4;stroke:#1f77b4;" x="204.02028" xlink:href="#m3f6db81797" y="115.403468"/>
     <use style="fill:#1f77b4;stroke:#1f77b4;" x="57.838494" xlink:href="#m3f6db81797" y="132.70527"/>
     <use style="fill:#1f77b4;stroke:#1f77b4;" x="182.221631" xlink:href="#m3f6db81797" y="109.616807"/>
     <use style="fill:#1f77b4;stroke:#1f77b4;" x="176.80837" xlink:href="#m3f6db81797" y="118.33051"/>
     <use style="fill:#1f77b4;stroke:#1f77b4;" x="120.603724" xlink:href="#m3f6db81797" y="116.28187"/>
     <use style="fill:#1f77b4;stroke:#1f77b4;" x="151.668351" xlink:href="#m3f6db81797" y="131.806043"/>
     <use style="fill:#1f77b4;stroke:#1f77b4;" x="294.778338" xlink:href="#m3f6db81797" y="124.455265"/>
     <use style="fill:#1f77b4;stroke:#1f77b4;" x="235.468465" xlink:href="#m3f6db81797" y="124.25335"/>
     <use style="fill:#1f77b4;stroke:#1f77b4;" x="362.202131" xlink:href="#m3f6db81797" y="180.6841"/>
     <use style="fill:#1f77b4;stroke:#1f77b4;" x="196.528894" xlink:href="#m3f6db81797" y="118.269477"/>
     <use style="fill:#1f77b4;stroke:#1f77b4;" x="297.736449" xlink:href="#m3f6db81797" y="130.178119"/>
     <use style="fill:#1f77b4;stroke:#1f77b4;" x="325.215191" xlink:href="#m3f6db81797" y="133.008298"/>
     <use style="fill:#1f77b4;stroke:#1f77b4;" x="99.563191" xlink:href="#m3f6db81797" y="143.784937"/>
     <use style="fill:#1f77b4;stroke:#1f77b4;" x="343.970833" xlink:href="#m3f6db81797" y="141.915186"/>
     <use style="fill:#1f77b4;stroke:#1f77b4;" x="125.532114" xlink:href="#m3f6db81797" y="119.788272"/>
     <use style="fill:#1f77b4;stroke:#1f77b4;" x="163.585341" xlink:href="#m3f6db81797" y="139.640185"/>
     <use style="fill:#1f77b4;stroke:#1f77b4;" x="314.99465" xlink:href="#m3f6db81797" y="128.093893"/>
     <use style="fill:#1f77b4;stroke:#1f77b4;" x="102.61904" xlink:href="#m3f6db81797" y="127.08024"/>
     <use style="fill:#1f77b4;stroke:#1f77b4;" x="276.809452" xlink:href="#m3f6db81797" y="133.716219"/>
     <use style="fill:#1f77b4;stroke:#1f77b4;" x="192.038314" xlink:href="#m3f6db81797" y="139.617931"/>
     <use style="fill:#1f77b4;stroke:#1f77b4;" x="270.772068" xlink:href="#m3f6db81797" y="178.90535"/>
     <use style="fill:#1f77b4;stroke:#1f77b4;" x="157.022462" xlink:href="#m3f6db81797" y="144.906599"/>
     <use style="fill:#1f77b4;stroke:#1f77b4;" x="313.221366" xlink:href="#m3f6db81797" y="130.839945"/>
     <use style="fill:#1f77b4;stroke:#1f77b4;" x="224.795885" xlink:href="#m3f6db81797" y="124.754357"/>
     <use style="fill:#1f77b4;stroke:#1f77b4;" x="314.046672" xlink:href="#m3f6db81797" y="120.039403"/>
     <use style="fill:#1f77b4;stroke:#1f77b4;" x="288.134453" xlink:href="#m3f6db81797" y="125.782827"/>
     <use style="fill:#1f77b4;stroke:#1f77b4;" x="124.325202" xlink:href="#m3f6db81797" y="134.911593"/>
     <use style="fill:#1f77b4;stroke:#1f77b4;" x="212.830996" xlink:href="#m3f6db81797" y="135.760958"/>
     <use style="fill:#1f77b4;stroke:#1f77b4;" x="165.514441" xlink:href="#m3f6db81797" y="168.580022"/>
     <use style="fill:#1f77b4;stroke:#1f77b4;" x="347.204657" xlink:href="#m3f6db81797" y="133.888158"/>
     <use style="fill:#1f77b4;stroke:#1f77b4;" x="331.952833" xlink:href="#m3f6db81797" y="167.441635"/>
     <use style="fill:#1f77b4;stroke:#1f77b4;" x="298.025508" xlink:href="#m3f6db81797" y="174.159642"/>
     <use style="fill:#1f77b4;stroke:#1f77b4;" x="219.832731" xlink:href="#m3f6db81797" y="171.698391"/>
     <use style="fill:#1f77b4;stroke:#1f77b4;" x="208.034647" xlink:href="#m3f6db81797" y="121.920442"/>
     <use style="fill:#1f77b4;stroke:#1f77b4;" x="293.599589" xlink:href="#m3f6db81797" y="180.205761"/>
     <use style="fill:#1f77b4;stroke:#1f77b4;" x="227.433622" xlink:href="#m3f6db81797" y="214.756364"/>
     <use style="fill:#1f77b4;stroke:#1f77b4;" x="192.695117" xlink:href="#m3f6db81797" y="120.753462"/>
     <use style="fill:#1f77b4;stroke:#1f77b4;" x="309.710332" xlink:href="#m3f6db81797" y="188.754985"/>
     <use style="fill:#1f77b4;stroke:#1f77b4;" x="341.398088" xlink:href="#m3f6db81797" y="148.852953"/>
     <use style="fill:#1f77b4;stroke:#1f77b4;" x="281.538492" xlink:href="#m3f6db81797" y="118.915096"/>
     <use style="fill:#1f77b4;stroke:#1f77b4;" x="150.122467" xlink:href="#m3f6db81797" y="169.005129"/>
     <use style="fill:#1f77b4;stroke:#1f77b4;" x="316.564841" xlink:href="#m3f6db81797" y="177.31942"/>
     <use style="fill:#1f77b4;stroke:#1f77b4;" x="316.725336" xlink:href="#m3f6db81797" y="151.163165"/>
     <use style="fill:#1f77b4;stroke:#1f77b4;" x="172.519613" xlink:href="#m3f6db81797" y="139.292077"/>
     <use style="fill:#1f77b4;stroke:#1f77b4;" x="200.562564" xlink:href="#m3f6db81797" y="129.376451"/>
     <use style="fill:#1f77b4;stroke:#1f77b4;" x="119.274878" xlink:href="#m3f6db81797" y="114.801034"/>
     <use style="fill:#1f77b4;stroke:#1f77b4;" x="325.043737" xlink:href="#m3f6db81797" y="105.575034"/>
     <use style="fill:#1f77b4;stroke:#1f77b4;" x="300.087482" xlink:href="#m3f6db81797" y="111.847955"/>
     <use style="fill:#1f77b4;stroke:#1f77b4;" x="325.386103" xlink:href="#m3f6db81797" y="158.887668"/>
     <use style="fill:#1f77b4;stroke:#1f77b4;" x="109.497793" xlink:href="#m3f6db81797" y="119.173863"/>
     <use style="fill:#1f77b4;stroke:#1f77b4;" x="185.117651" xlink:href="#m3f6db81797" y="137.460695"/>
     <use style="fill:#1f77b4;stroke:#1f77b4;" x="180.101126" xlink:href="#m3f6db81797" y="157.127536"/>
     <use style="fill:#1f77b4;stroke:#1f77b4;" x="196.777835" xlink:href="#m3f6db81797" y="163.970642"/>
     <use style="fill:#1f77b4;stroke:#1f77b4;" x="292.615653" xlink:href="#m3f6db81797" y="156.063951"/>
     <use style="fill:#1f77b4;stroke:#1f77b4;" x="187.367626" xlink:href="#m3f6db81797" y="159.016177"/>
     <use style="fill:#1f77b4;stroke:#1f77b4;" x="212.879431" xlink:href="#m3f6db81797" y="169.733746"/>
     <use style="fill:#1f77b4;stroke:#1f77b4;" x="191.434145" xlink:href="#m3f6db81797" y="140.465956"/>
     <use style="fill:#1f77b4;stroke:#1f77b4;" x="322.914894" xlink:href="#m3f6db81797" y="129.637802"/>
     <use style="fill:#1f77b4;stroke:#1f77b4;" x="137.385734" xlink:href="#m3f6db81797" y="161.695859"/>
     <use style="fill:#1f77b4;stroke:#1f77b4;" x="297.354241" xlink:href="#m3f6db81797" y="136.380652"/>
     <use style="fill:#1f77b4;stroke:#1f77b4;" x="190.790606" xlink:href="#m3f6db81797" y="109.314579"/>
     <use style="fill:#1f77b4;stroke:#1f77b4;" x="134.590669" xlink:href="#m3f6db81797" y="134.9844"/>
     <use style="fill:#1f77b4;stroke:#1f77b4;" x="227.507403" xlink:href="#m3f6db81797" y="148.69499"/>
     <use style="fill:#1f77b4;stroke:#1f77b4;" x="146.136239" xlink:href="#m3f6db81797" y="118.902143"/>
     <use style="fill:#1f77b4;stroke:#1f77b4;" x="328.049968" xlink:href="#m3f6db81797" y="115.682458"/>
     <use style="fill:#1f77b4;stroke:#1f77b4;" x="227.319739" xlink:href="#m3f6db81797" y="104.722398"/>
     <use style="fill:#1f77b4;stroke:#1f77b4;" x="80.506593" xlink:href="#m3f6db81797" y="175.051421"/>
     <use style="fill:#1f77b4;stroke:#1f77b4;" x="331.310331" xlink:href="#m3f6db81797" y="112.788495"/>
     <use style="fill:#1f77b4;stroke:#1f77b4;" x="215.391611" xlink:href="#m3f6db81797" y="160.818421"/>
     <use style="fill:#1f77b4;stroke:#1f77b4;" x="166.380764" xlink:href="#m3f6db81797" y="110.521316"/>
     <use style="fill:#1f77b4;stroke:#1f77b4;" x="210.627308" xlink:href="#m3f6db81797" y="170.118628"/>
     <use style="fill:#1f77b4;stroke:#1f77b4;" x="205.929506" xlink:href="#m3f6db81797" y="103.407975"/>
     <use style="fill:#1f77b4;stroke:#1f77b4;" x="165.364243" xlink:href="#m3f6db81797" y="166.241424"/>
     <use style="fill:#1f77b4;stroke:#1f77b4;" x="289.603585" xlink:href="#m3f6db81797" y="144.903321"/>
     <use style="fill:#1f77b4;stroke:#1f77b4;" x="348.212376" xlink:href="#m3f6db81797" y="161.589621"/>
     <use style="fill:#1f77b4;stroke:#1f77b4;" x="288.104289" xlink:href="#m3f6db81797" y="162.76274"/>
     <use style="fill:#1f77b4;stroke:#1f77b4;" x="314.616327" xlink:href="#m3f6db81797" y="127.655359"/>
     <use style="fill:#1f77b4;stroke:#1f77b4;" x="150.861962" xlink:href="#m3f6db81797" y="116.865087"/>
     <use style="fill:#1f77b4;stroke:#1f77b4;" x="296.898979" xlink:href="#m3f6db81797" y="130.763199"/>
     <use style="fill:#1f77b4;stroke:#1f77b4;" x="233.092173" xlink:href="#m3f6db81797" y="127.256538"/>
     <use style="fill:#1f77b4;stroke:#1f77b4;" x="248.960025" xlink:href="#m3f6db81797" y="116.367946"/>
     <use style="fill:#1f77b4;stroke:#1f77b4;" x="340.342021" xlink:href="#m3f6db81797" y="113.993622"/>
     <use style="fill:#1f77b4;stroke:#1f77b4;" x="151.749586" xlink:href="#m3f6db81797" y="168.039596"/>
     <use style="fill:#1f77b4;stroke:#1f77b4;" x="154.346624" xlink:href="#m3f6db81797" y="148.478626"/>
     <use style="fill:#1f77b4;stroke:#1f77b4;" x="331.975814" xlink:href="#m3f6db81797" y="177.947674"/>
     <use style="fill:#1f77b4;stroke:#1f77b4;" x="338.727388" xlink:href="#m3f6db81797" y="152.45873"/>
     <use style="fill:#1f77b4;stroke:#1f77b4;" x="186.161555" xlink:href="#m3f6db81797" y="119.576064"/>
     <use style="fill:#1f77b4;stroke:#1f77b4;" x="196.844297" xlink:href="#m3f6db81797" y="139.273283"/>
     <use style="fill:#1f77b4;stroke:#1f77b4;" x="105.997203" xlink:href="#m3f6db81797" y="145.737224"/>
     <use style="fill:#1f77b4;stroke:#1f77b4;" x="178.205533" xlink:href="#m3f6db81797" y="133.988698"/>
     <use style="fill:#1f77b4;stroke:#1f77b4;" x="326.573739" xlink:href="#m3f6db81797" y="121.989834"/>
     <use style="fill:#1f77b4;stroke:#1f77b4;" x="168.876698" xlink:href="#m3f6db81797" y="151.229719"/>
    </g>
   </g>
   <g id="PathCollection_2">
    <defs>
     <path d="M -3 3 
L 3 -3 
M -3 -3 
L 3 3 
" id="m23ce0e914a" style="stroke:#ff7f0e;stroke-width:1.5;"/>
    </defs>
    <g clip-path="url(#pf707f36012)">
     <use style="fill:#ff7f0e;stroke:#ff7f0e;stroke-width:1.5;" x="194.490948" xlink:href="#m23ce0e914a" y="32.349879"/>
     <use style="fill:#ff7f0e;stroke:#ff7f0e;stroke-width:1.5;" x="106.802995" xlink:href="#m23ce0e914a" y="44.962456"/>
     <use style="fill:#ff7f0e;stroke:#ff7f0e;stroke-width:1.5;" x="90.896631" xlink:href="#m23ce0e914a" y="48.030227"/>
     <use style="fill:#ff7f0e;stroke:#ff7f0e;stroke-width:1.5;" x="199.203691" xlink:href="#m23ce0e914a" y="54.185757"/>
     <use style="fill:#ff7f0e;stroke:#ff7f0e;stroke-width:1.5;" x="179.95479" xlink:href="#m23ce0e914a" y="51.986206"/>
     <use style="fill:#ff7f0e;stroke:#ff7f0e;stroke-width:1.5;" x="145.603103" xlink:href="#m23ce0e914a" y="50.878313"/>
     <use style="fill:#ff7f0e;stroke:#ff7f0e;stroke-width:1.5;" x="151.50971" xlink:href="#m23ce0e914a" y="39.543676"/>
     <use style="fill:#ff7f0e;stroke:#ff7f0e;stroke-width:1.5;" x="190.986505" xlink:href="#m23ce0e914a" y="26.912335"/>
     <use style="fill:#ff7f0e;stroke:#ff7f0e;stroke-width:1.5;" x="190.31513" xlink:href="#m23ce0e914a" y="29.74416"/>
     <use style="fill:#ff7f0e;stroke:#ff7f0e;stroke-width:1.5;" x="155.008836" xlink:href="#m23ce0e914a" y="42.065178"/>
     <use style="fill:#ff7f0e;stroke:#ff7f0e;stroke-width:1.5;" x="172.207332" xlink:href="#m23ce0e914a" y="24.185291"/>
     <use style="fill:#ff7f0e;stroke:#ff7f0e;stroke-width:1.5;" x="174.798723" xlink:href="#m23ce0e914a" y="39.301487"/>
     <use style="fill:#ff7f0e;stroke:#ff7f0e;stroke-width:1.5;" x="199.474565" xlink:href="#m23ce0e914a" y="62.554229"/>
     <use style="fill:#ff7f0e;stroke:#ff7f0e;stroke-width:1.5;" x="169.354731" xlink:href="#m23ce0e914a" y="40.462171"/>
     <use style="fill:#ff7f0e;stroke:#ff7f0e;stroke-width:1.5;" x="147.857836" xlink:href="#m23ce0e914a" y="43.541006"/>
     <use style="fill:#ff7f0e;stroke:#ff7f0e;stroke-width:1.5;" x="147.617543" xlink:href="#m23ce0e914a" y="41.494876"/>
    </g>
   </g>
   <g id="PathCollection_3">
    <defs>
     <path d="M -3 0 
L 3 0 
M 0 3 
L 0 -3 
" id="m979464d1ec" style="stroke:#2ca02c;stroke-width:1.5;"/>
    </defs>
    <g clip-path="url(#pf707f36012)">
     <use style="fill:#2ca02c;stroke:#2ca02c;stroke-width:1.5;" x="233.012728" xlink:href="#m979464d1ec" y="51.086312"/>
     <use style="fill:#2ca02c;stroke:#2ca02c;stroke-width:1.5;" x="273.993088" xlink:href="#m979464d1ec" y="57.517081"/>
     <use style="fill:#2ca02c;stroke:#2ca02c;stroke-width:1.5;" x="202.907445" xlink:href="#m979464d1ec" y="51.792022"/>
     <use style="fill:#2ca02c;stroke:#2ca02c;stroke-width:1.5;" x="210.447044" xlink:href="#m979464d1ec" y="17.083636"/>
     <use style="fill:#2ca02c;stroke:#2ca02c;stroke-width:1.5;" x="233.110618" xlink:href="#m979464d1ec" y="39.538597"/>
     <use style="fill:#2ca02c;stroke:#2ca02c;stroke-width:1.5;" x="260.473069" xlink:href="#m979464d1ec" y="28.232096"/>
     <use style="fill:#2ca02c;stroke:#2ca02c;stroke-width:1.5;" x="243.325268" xlink:href="#m979464d1ec" y="72.525938"/>
     <use style="fill:#2ca02c;stroke:#2ca02c;stroke-width:1.5;" x="201.492498" xlink:href="#m979464d1ec" y="96.280872"/>
     <use style="fill:#2ca02c;stroke:#2ca02c;stroke-width:1.5;" x="202.555401" xlink:href="#m979464d1ec" y="95.423809"/>
     <use style="fill:#2ca02c;stroke:#2ca02c;stroke-width:1.5;" x="216.724433" xlink:href="#m979464d1ec" y="53.106234"/>
     <use style="fill:#2ca02c;stroke:#2ca02c;stroke-width:1.5;" x="230.928674" xlink:href="#m979464d1ec" y="45.701769"/>
    </g>
   </g>
   <g id="PathCollection_4">
    <defs>
     <path d="M 0 -5 
L -1.12257 -1.545085 
L -4.755283 -1.545085 
L -1.816356 0.59017 
L -2.938926 4.045085 
L -0 1.90983 
L 2.938926 4.045085 
L 1.816356 0.59017 
L 4.755283 -1.545085 
L 1.12257 -1.545085 
z
" id="m5b7cf4730d" style="stroke:#d62728;"/>
    </defs>
    <g clip-path="url(#pf707f36012)">
     <use style="fill:#d62728;stroke:#d62728;" x="245.031053" xlink:href="#m5b7cf4730d" y="143.521008"/>
     <use style="fill:#d62728;stroke:#d62728;" x="176.767785" xlink:href="#m5b7cf4730d" y="44.893323"/>
     <use style="fill:#d62728;stroke:#d62728;" x="222.276631" xlink:href="#m5b7cf4730d" y="44.893323"/>
    </g>
   </g>
   <g id="matplotlib.axis_1">
    <g id="xtick_1">
     <g id="line2d_1">
      <defs>
       <path d="M 0 0 
L 0 3.5 
" id="m74ec58f685" style="stroke:#000000;stroke-width:0.8;"/>
      </defs>
      <g>
       <use style="stroke:#000000;stroke-width:0.8;" x="85.750093" xlink:href="#m74ec58f685" y="224.64"/>
      </g>
     </g>
     <g id="text_1">
      <!-- −1 -->
      <g transform="translate(78.378999 239.238437)scale(0.1 -0.1)">
       <defs>
        <path d="M 10.59375 35.5 
L 73.1875 35.5 
L 73.1875 27.203125 
L 10.59375 27.203125 
z
" id="DejaVuSans-8722"/>
        <path d="M 12.40625 8.296875 
L 28.515625 8.296875 
L 28.515625 63.921875 
L 10.984375 60.40625 
L 10.984375 69.390625 
L 28.421875 72.90625 
L 38.28125 72.90625 
L 38.28125 8.296875 
L 54.390625 8.296875 
L 54.390625 0 
L 12.40625 0 
z
" id="DejaVuSans-49"/>
       </defs>
       <use xlink:href="#DejaVuSans-8722"/>
       <use x="83.789062" xlink:href="#DejaVuSans-49"/>
      </g>
     </g>
    </g>
    <g id="xtick_2">
     <g id="line2d_2">
      <g>
       <use style="stroke:#000000;stroke-width:0.8;" x="131.258939" xlink:href="#m74ec58f685" y="224.64"/>
      </g>
     </g>
     <g id="text_2">
      <!-- 0 -->
      <g transform="translate(128.077689 239.238437)scale(0.1 -0.1)">
       <defs>
        <path d="M 31.78125 66.40625 
Q 24.171875 66.40625 20.328125 58.90625 
Q 16.5 51.421875 16.5 36.375 
Q 16.5 21.390625 20.328125 13.890625 
Q 24.171875 6.390625 31.78125 6.390625 
Q 39.453125 6.390625 43.28125 13.890625 
Q 47.125 21.390625 47.125 36.375 
Q 47.125 51.421875 43.28125 58.90625 
Q 39.453125 66.40625 31.78125 66.40625 
z
M 31.78125 74.21875 
Q 44.046875 74.21875 50.515625 64.515625 
Q 56.984375 54.828125 56.984375 36.375 
Q 56.984375 17.96875 50.515625 8.265625 
Q 44.046875 -1.421875 31.78125 -1.421875 
Q 19.53125 -1.421875 13.0625 8.265625 
Q 6.59375 17.96875 6.59375 36.375 
Q 6.59375 54.828125 13.0625 64.515625 
Q 19.53125 74.21875 31.78125 74.21875 
z
" id="DejaVuSans-48"/>
       </defs>
       <use xlink:href="#DejaVuSans-48"/>
      </g>
     </g>
    </g>
    <g id="xtick_3">
     <g id="line2d_3">
      <g>
       <use style="stroke:#000000;stroke-width:0.8;" x="176.767785" xlink:href="#m74ec58f685" y="224.64"/>
      </g>
     </g>
     <g id="text_3">
      <!-- 1 -->
      <g transform="translate(173.586535 239.238437)scale(0.1 -0.1)">
       <use xlink:href="#DejaVuSans-49"/>
      </g>
     </g>
    </g>
    <g id="xtick_4">
     <g id="line2d_4">
      <g>
       <use style="stroke:#000000;stroke-width:0.8;" x="222.276631" xlink:href="#m74ec58f685" y="224.64"/>
      </g>
     </g>
     <g id="text_4">
      <!-- 2 -->
      <g transform="translate(219.095381 239.238437)scale(0.1 -0.1)">
       <defs>
        <path d="M 19.1875 8.296875 
L 53.609375 8.296875 
L 53.609375 0 
L 7.328125 0 
L 7.328125 8.296875 
Q 12.9375 14.109375 22.625 23.890625 
Q 32.328125 33.6875 34.8125 36.53125 
Q 39.546875 41.84375 41.421875 45.53125 
Q 43.3125 49.21875 43.3125 52.78125 
Q 43.3125 58.59375 39.234375 62.25 
Q 35.15625 65.921875 28.609375 65.921875 
Q 23.96875 65.921875 18.8125 64.3125 
Q 13.671875 62.703125 7.8125 59.421875 
L 7.8125 69.390625 
Q 13.765625 71.78125 18.9375 73 
Q 24.125 74.21875 28.421875 74.21875 
Q 39.75 74.21875 46.484375 68.546875 
Q 53.21875 62.890625 53.21875 53.421875 
Q 53.21875 48.921875 51.53125 44.890625 
Q 49.859375 40.875 45.40625 35.40625 
Q 44.1875 33.984375 37.640625 27.21875 
Q 31.109375 20.453125 19.1875 8.296875 
z
" id="DejaVuSans-50"/>
       </defs>
       <use xlink:href="#DejaVuSans-50"/>
      </g>
     </g>
    </g>
    <g id="xtick_5">
     <g id="line2d_5">
      <g>
       <use style="stroke:#000000;stroke-width:0.8;" x="267.785476" xlink:href="#m74ec58f685" y="224.64"/>
      </g>
     </g>
     <g id="text_5">
      <!-- 3 -->
      <g transform="translate(264.604226 239.238437)scale(0.1 -0.1)">
       <defs>
        <path d="M 40.578125 39.3125 
Q 47.65625 37.796875 51.625 33 
Q 55.609375 28.21875 55.609375 21.1875 
Q 55.609375 10.40625 48.1875 4.484375 
Q 40.765625 -1.421875 27.09375 -1.421875 
Q 22.515625 -1.421875 17.65625 -0.515625 
Q 12.796875 0.390625 7.625 2.203125 
L 7.625 11.71875 
Q 11.71875 9.328125 16.59375 8.109375 
Q 21.484375 6.890625 26.8125 6.890625 
Q 36.078125 6.890625 40.9375 10.546875 
Q 45.796875 14.203125 45.796875 21.1875 
Q 45.796875 27.640625 41.28125 31.265625 
Q 36.765625 34.90625 28.71875 34.90625 
L 20.21875 34.90625 
L 20.21875 43.015625 
L 29.109375 43.015625 
Q 36.375 43.015625 40.234375 45.921875 
Q 44.09375 48.828125 44.09375 54.296875 
Q 44.09375 59.90625 40.109375 62.90625 
Q 36.140625 65.921875 28.71875 65.921875 
Q 24.65625 65.921875 20.015625 65.03125 
Q 15.375 64.15625 9.8125 62.3125 
L 9.8125 71.09375 
Q 15.4375 72.65625 20.34375 73.4375 
Q 25.25 74.21875 29.59375 74.21875 
Q 40.828125 74.21875 47.359375 69.109375 
Q 53.90625 64.015625 53.90625 55.328125 
Q 53.90625 49.265625 50.4375 45.09375 
Q 46.96875 40.921875 40.578125 39.3125 
z
" id="DejaVuSans-51"/>
       </defs>
       <use xlink:href="#DejaVuSans-51"/>
      </g>
     </g>
    </g>
    <g id="xtick_6">
     <g id="line2d_6">
      <g>
       <use style="stroke:#000000;stroke-width:0.8;" x="313.294322" xlink:href="#m74ec58f685" y="224.64"/>
      </g>
     </g>
     <g id="text_6">
      <!-- 4 -->
      <g transform="translate(310.113072 239.238437)scale(0.1 -0.1)">
       <defs>
        <path d="M 37.796875 64.3125 
L 12.890625 25.390625 
L 37.796875 25.390625 
z
M 35.203125 72.90625 
L 47.609375 72.90625 
L 47.609375 25.390625 
L 58.015625 25.390625 
L 58.015625 17.1875 
L 47.609375 17.1875 
L 47.609375 0 
L 37.796875 0 
L 37.796875 17.1875 
L 4.890625 17.1875 
L 4.890625 26.703125 
z
" id="DejaVuSans-52"/>
       </defs>
       <use xlink:href="#DejaVuSans-52"/>
      </g>
     </g>
    </g>
    <g id="xtick_7">
     <g id="line2d_7">
      <g>
       <use style="stroke:#000000;stroke-width:0.8;" x="358.803168" xlink:href="#m74ec58f685" y="224.64"/>
      </g>
     </g>
     <g id="text_7">
      <!-- 5 -->
      <g transform="translate(355.621918 239.238437)scale(0.1 -0.1)">
       <defs>
        <path d="M 10.796875 72.90625 
L 49.515625 72.90625 
L 49.515625 64.59375 
L 19.828125 64.59375 
L 19.828125 46.734375 
Q 21.96875 47.46875 24.109375 47.828125 
Q 26.265625 48.1875 28.421875 48.1875 
Q 40.625 48.1875 47.75 41.5 
Q 54.890625 34.8125 54.890625 23.390625 
Q 54.890625 11.625 47.5625 5.09375 
Q 40.234375 -1.421875 26.90625 -1.421875 
Q 22.3125 -1.421875 17.546875 -0.640625 
Q 12.796875 0.140625 7.71875 1.703125 
L 7.71875 11.625 
Q 12.109375 9.234375 16.796875 8.0625 
Q 21.484375 6.890625 26.703125 6.890625 
Q 35.15625 6.890625 40.078125 11.328125 
Q 45.015625 15.765625 45.015625 23.390625 
Q 45.015625 31 40.078125 35.4375 
Q 35.15625 39.890625 26.703125 39.890625 
Q 22.75 39.890625 18.8125 39.015625 
Q 14.890625 38.140625 10.796875 36.28125 
z
" id="DejaVuSans-53"/>
       </defs>
       <use xlink:href="#DejaVuSans-53"/>
      </g>
     </g>
    </g>
    <g id="text_8">
     <!-- $x_1$ -->
     <g transform="translate(204.670313 252.916562)scale(0.1 -0.1)">
      <defs>
       <path d="M 60.015625 54.6875 
L 34.90625 27.875 
L 50.296875 0 
L 39.984375 0 
L 28.421875 21.6875 
L 8.296875 0 
L -2.59375 0 
L 24.3125 28.8125 
L 10.015625 54.6875 
L 20.3125 54.6875 
L 30.8125 34.90625 
L 49.125 54.6875 
z
" id="DejaVuSans-Oblique-120"/>
      </defs>
      <use transform="translate(0 0.3125)" xlink:href="#DejaVuSans-Oblique-120"/>
      <use transform="translate(59.179688 -16.09375)scale(0.7)" xlink:href="#DejaVuSans-49"/>
     </g>
    </g>
   </g>
   <g id="matplotlib.axis_2">
    <g id="ytick_1">
     <g id="line2d_8">
      <defs>
       <path d="M 0 0 
L -3.5 0 
" id="m4f8ebfcf14" style="stroke:#000000;stroke-width:0.8;"/>
      </defs>
      <g>
       <use style="stroke:#000000;stroke-width:0.8;" x="42.620313" xlink:href="#m4f8ebfcf14" y="217.491773"/>
      </g>
     </g>
     <g id="text_9">
      <!-- −2 -->
      <g transform="translate(20.878125 221.290991)scale(0.1 -0.1)">
       <use xlink:href="#DejaVuSans-8722"/>
       <use x="83.789062" xlink:href="#DejaVuSans-50"/>
      </g>
     </g>
    </g>
    <g id="ytick_2">
     <g id="line2d_9">
      <g>
       <use style="stroke:#000000;stroke-width:0.8;" x="42.620313" xlink:href="#m4f8ebfcf14" y="192.834851"/>
      </g>
     </g>
     <g id="text_10">
      <!-- −1 -->
      <g transform="translate(20.878125 196.63407)scale(0.1 -0.1)">
       <use xlink:href="#DejaVuSans-8722"/>
       <use x="83.789062" xlink:href="#DejaVuSans-49"/>
      </g>
     </g>
    </g>
    <g id="ytick_3">
     <g id="line2d_10">
      <g>
       <use style="stroke:#000000;stroke-width:0.8;" x="42.620313" xlink:href="#m4f8ebfcf14" y="168.17793"/>
      </g>
     </g>
     <g id="text_11">
      <!-- 0 -->
      <g transform="translate(29.257813 171.977149)scale(0.1 -0.1)">
       <use xlink:href="#DejaVuSans-48"/>
      </g>
     </g>
    </g>
    <g id="ytick_4">
     <g id="line2d_11">
      <g>
       <use style="stroke:#000000;stroke-width:0.8;" x="42.620313" xlink:href="#m4f8ebfcf14" y="143.521008"/>
      </g>
     </g>
     <g id="text_12">
      <!-- 1 -->
      <g transform="translate(29.257813 147.320227)scale(0.1 -0.1)">
       <use xlink:href="#DejaVuSans-49"/>
      </g>
     </g>
    </g>
    <g id="ytick_5">
     <g id="line2d_12">
      <g>
       <use style="stroke:#000000;stroke-width:0.8;" x="42.620313" xlink:href="#m4f8ebfcf14" y="118.864087"/>
      </g>
     </g>
     <g id="text_13">
      <!-- 2 -->
      <g transform="translate(29.257813 122.663306)scale(0.1 -0.1)">
       <use xlink:href="#DejaVuSans-50"/>
      </g>
     </g>
    </g>
    <g id="ytick_6">
     <g id="line2d_13">
      <g>
       <use style="stroke:#000000;stroke-width:0.8;" x="42.620313" xlink:href="#m4f8ebfcf14" y="94.207166"/>
      </g>
     </g>
     <g id="text_14">
      <!-- 3 -->
      <g transform="translate(29.257813 98.006384)scale(0.1 -0.1)">
       <use xlink:href="#DejaVuSans-51"/>
      </g>
     </g>
    </g>
    <g id="ytick_7">
     <g id="line2d_14">
      <g>
       <use style="stroke:#000000;stroke-width:0.8;" x="42.620313" xlink:href="#m4f8ebfcf14" y="69.550244"/>
      </g>
     </g>
     <g id="text_15">
      <!-- 4 -->
      <g transform="translate(29.257813 73.349463)scale(0.1 -0.1)">
       <use xlink:href="#DejaVuSans-52"/>
      </g>
     </g>
    </g>
    <g id="ytick_8">
     <g id="line2d_15">
      <g>
       <use style="stroke:#000000;stroke-width:0.8;" x="42.620313" xlink:href="#m4f8ebfcf14" y="44.893323"/>
      </g>
     </g>
     <g id="text_16">
      <!-- 5 -->
      <g transform="translate(29.257813 48.692542)scale(0.1 -0.1)">
       <use xlink:href="#DejaVuSans-53"/>
      </g>
     </g>
    </g>
    <g id="ytick_9">
     <g id="line2d_16">
      <g>
       <use style="stroke:#000000;stroke-width:0.8;" x="42.620313" xlink:href="#m4f8ebfcf14" y="20.236401"/>
      </g>
     </g>
     <g id="text_17">
      <!-- 6 -->
      <g transform="translate(29.257813 24.03562)scale(0.1 -0.1)">
       <defs>
        <path d="M 33.015625 40.375 
Q 26.375 40.375 22.484375 35.828125 
Q 18.609375 31.296875 18.609375 23.390625 
Q 18.609375 15.53125 22.484375 10.953125 
Q 26.375 6.390625 33.015625 6.390625 
Q 39.65625 6.390625 43.53125 10.953125 
Q 47.40625 15.53125 47.40625 23.390625 
Q 47.40625 31.296875 43.53125 35.828125 
Q 39.65625 40.375 33.015625 40.375 
z
M 52.59375 71.296875 
L 52.59375 62.3125 
Q 48.875 64.0625 45.09375 64.984375 
Q 41.3125 65.921875 37.59375 65.921875 
Q 27.828125 65.921875 22.671875 59.328125 
Q 17.53125 52.734375 16.796875 39.40625 
Q 19.671875 43.65625 24.015625 45.921875 
Q 28.375 48.1875 33.59375 48.1875 
Q 44.578125 48.1875 50.953125 41.515625 
Q 57.328125 34.859375 57.328125 23.390625 
Q 57.328125 12.15625 50.6875 5.359375 
Q 44.046875 -1.421875 33.015625 -1.421875 
Q 20.359375 -1.421875 13.671875 8.265625 
Q 6.984375 17.96875 6.984375 36.375 
Q 6.984375 53.65625 15.1875 63.9375 
Q 23.390625 74.21875 37.203125 74.21875 
Q 40.921875 74.21875 44.703125 73.484375 
Q 48.484375 72.75 52.59375 71.296875 
z
" id="DejaVuSans-54"/>
       </defs>
       <use xlink:href="#DejaVuSans-54"/>
      </g>
     </g>
    </g>
    <g id="text_18">
     <!-- $x_2$ -->
     <g transform="translate(14.798438 121.27)rotate(-90)scale(0.1 -0.1)">
      <use transform="translate(0 0.3125)" xlink:href="#DejaVuSans-Oblique-120"/>
      <use transform="translate(59.179688 -16.09375)scale(0.7)" xlink:href="#DejaVuSans-50"/>
     </g>
    </g>
   </g>
   <g id="patch_3">
    <path d="M 42.620313 224.64 
L 42.620313 7.2 
" style="fill:none;stroke:#000000;stroke-linecap:square;stroke-linejoin:miter;stroke-width:0.8;"/>
   </g>
   <g id="patch_4">
    <path d="M 377.420313 224.64 
L 377.420313 7.2 
" style="fill:none;stroke:#000000;stroke-linecap:square;stroke-linejoin:miter;stroke-width:0.8;"/>
   </g>
   <g id="patch_5">
    <path d="M 42.620313 224.64 
L 377.420313 224.64 
" style="fill:none;stroke:#000000;stroke-linecap:square;stroke-linejoin:miter;stroke-width:0.8;"/>
   </g>
   <g id="patch_6">
    <path d="M 42.620313 7.2 
L 377.420313 7.2 
" style="fill:none;stroke:#000000;stroke-linecap:square;stroke-linejoin:miter;stroke-width:0.8;"/>
   </g>
   <g id="legend_1">
    <g id="patch_7">
     <path d="M 261.49375 73.9125 
L 370.420313 73.9125 
Q 372.420313 73.9125 372.420313 71.9125 
L 372.420313 14.2 
Q 372.420313 12.2 370.420313 12.2 
L 261.49375 12.2 
Q 259.49375 12.2 259.49375 14.2 
L 259.49375 71.9125 
Q 259.49375 73.9125 261.49375 73.9125 
z
" style="fill:#ffffff;opacity:0.8;stroke:#cccccc;stroke-linejoin:miter;"/>
    </g>
    <g id="PathCollection_5">
     <g>
      <use style="fill:#1f77b4;stroke:#1f77b4;" x="273.49375" xlink:href="#m3f6db81797" y="21.173437"/>
     </g>
    </g>
    <g id="text_19">
     <!-- initial cluster 1 -->
     <g transform="translate(291.49375 23.798437)scale(0.1 -0.1)">
      <defs>
       <path d="M 9.421875 54.6875 
L 18.40625 54.6875 
L 18.40625 0 
L 9.421875 0 
z
M 9.421875 75.984375 
L 18.40625 75.984375 
L 18.40625 64.59375 
L 9.421875 64.59375 
z
" id="DejaVuSans-105"/>
       <path d="M 54.890625 33.015625 
L 54.890625 0 
L 45.90625 0 
L 45.90625 32.71875 
Q 45.90625 40.484375 42.875 44.328125 
Q 39.84375 48.1875 33.796875 48.1875 
Q 26.515625 48.1875 22.3125 43.546875 
Q 18.109375 38.921875 18.109375 30.90625 
L 18.109375 0 
L 9.078125 0 
L 9.078125 54.6875 
L 18.109375 54.6875 
L 18.109375 46.1875 
Q 21.34375 51.125 25.703125 53.5625 
Q 30.078125 56 35.796875 56 
Q 45.21875 56 50.046875 50.171875 
Q 54.890625 44.34375 54.890625 33.015625 
z
" id="DejaVuSans-110"/>
       <path d="M 18.3125 70.21875 
L 18.3125 54.6875 
L 36.8125 54.6875 
L 36.8125 47.703125 
L 18.3125 47.703125 
L 18.3125 18.015625 
Q 18.3125 11.328125 20.140625 9.421875 
Q 21.96875 7.515625 27.59375 7.515625 
L 36.8125 7.515625 
L 36.8125 0 
L 27.59375 0 
Q 17.1875 0 13.234375 3.875 
Q 9.28125 7.765625 9.28125 18.015625 
L 9.28125 47.703125 
L 2.6875 47.703125 
L 2.6875 54.6875 
L 9.28125 54.6875 
L 9.28125 70.21875 
z
" id="DejaVuSans-116"/>
       <path d="M 34.28125 27.484375 
Q 23.390625 27.484375 19.1875 25 
Q 14.984375 22.515625 14.984375 16.5 
Q 14.984375 11.71875 18.140625 8.90625 
Q 21.296875 6.109375 26.703125 6.109375 
Q 34.1875 6.109375 38.703125 11.40625 
Q 43.21875 16.703125 43.21875 25.484375 
L 43.21875 27.484375 
z
M 52.203125 31.203125 
L 52.203125 0 
L 43.21875 0 
L 43.21875 8.296875 
Q 40.140625 3.328125 35.546875 0.953125 
Q 30.953125 -1.421875 24.3125 -1.421875 
Q 15.921875 -1.421875 10.953125 3.296875 
Q 6 8.015625 6 15.921875 
Q 6 25.140625 12.171875 29.828125 
Q 18.359375 34.515625 30.609375 34.515625 
L 43.21875 34.515625 
L 43.21875 35.40625 
Q 43.21875 41.609375 39.140625 45 
Q 35.0625 48.390625 27.6875 48.390625 
Q 23 48.390625 18.546875 47.265625 
Q 14.109375 46.140625 10.015625 43.890625 
L 10.015625 52.203125 
Q 14.9375 54.109375 19.578125 55.046875 
Q 24.21875 56 28.609375 56 
Q 40.484375 56 46.34375 49.84375 
Q 52.203125 43.703125 52.203125 31.203125 
z
" id="DejaVuSans-97"/>
       <path d="M 9.421875 75.984375 
L 18.40625 75.984375 
L 18.40625 0 
L 9.421875 0 
z
" id="DejaVuSans-108"/>
       <path id="DejaVuSans-32"/>
       <path d="M 48.78125 52.59375 
L 48.78125 44.1875 
Q 44.96875 46.296875 41.140625 47.34375 
Q 37.3125 48.390625 33.40625 48.390625 
Q 24.65625 48.390625 19.8125 42.84375 
Q 14.984375 37.3125 14.984375 27.296875 
Q 14.984375 17.28125 19.8125 11.734375 
Q 24.65625 6.203125 33.40625 6.203125 
Q 37.3125 6.203125 41.140625 7.25 
Q 44.96875 8.296875 48.78125 10.40625 
L 48.78125 2.09375 
Q 45.015625 0.34375 40.984375 -0.53125 
Q 36.96875 -1.421875 32.421875 -1.421875 
Q 20.0625 -1.421875 12.78125 6.34375 
Q 5.515625 14.109375 5.515625 27.296875 
Q 5.515625 40.671875 12.859375 48.328125 
Q 20.21875 56 33.015625 56 
Q 37.15625 56 41.109375 55.140625 
Q 45.0625 54.296875 48.78125 52.59375 
z
" id="DejaVuSans-99"/>
       <path d="M 8.5 21.578125 
L 8.5 54.6875 
L 17.484375 54.6875 
L 17.484375 21.921875 
Q 17.484375 14.15625 20.5 10.265625 
Q 23.53125 6.390625 29.59375 6.390625 
Q 36.859375 6.390625 41.078125 11.03125 
Q 45.3125 15.671875 45.3125 23.6875 
L 45.3125 54.6875 
L 54.296875 54.6875 
L 54.296875 0 
L 45.3125 0 
L 45.3125 8.40625 
Q 42.046875 3.421875 37.71875 1 
Q 33.40625 -1.421875 27.6875 -1.421875 
Q 18.265625 -1.421875 13.375 4.4375 
Q 8.5 10.296875 8.5 21.578125 
z
M 31.109375 56 
z
" id="DejaVuSans-117"/>
       <path d="M 44.28125 53.078125 
L 44.28125 44.578125 
Q 40.484375 46.53125 36.375 47.5 
Q 32.28125 48.484375 27.875 48.484375 
Q 21.1875 48.484375 17.84375 46.4375 
Q 14.5 44.390625 14.5 40.28125 
Q 14.5 37.15625 16.890625 35.375 
Q 19.28125 33.59375 26.515625 31.984375 
L 29.59375 31.296875 
Q 39.15625 29.25 43.1875 25.515625 
Q 47.21875 21.78125 47.21875 15.09375 
Q 47.21875 7.46875 41.1875 3.015625 
Q 35.15625 -1.421875 24.609375 -1.421875 
Q 20.21875 -1.421875 15.453125 -0.5625 
Q 10.6875 0.296875 5.421875 2 
L 5.421875 11.28125 
Q 10.40625 8.6875 15.234375 7.390625 
Q 20.0625 6.109375 24.8125 6.109375 
Q 31.15625 6.109375 34.5625 8.28125 
Q 37.984375 10.453125 37.984375 14.40625 
Q 37.984375 18.0625 35.515625 20.015625 
Q 33.0625 21.96875 24.703125 23.78125 
L 21.578125 24.515625 
Q 13.234375 26.265625 9.515625 29.90625 
Q 5.8125 33.546875 5.8125 39.890625 
Q 5.8125 47.609375 11.28125 51.796875 
Q 16.75 56 26.8125 56 
Q 31.78125 56 36.171875 55.265625 
Q 40.578125 54.546875 44.28125 53.078125 
z
" id="DejaVuSans-115"/>
       <path d="M 56.203125 29.59375 
L 56.203125 25.203125 
L 14.890625 25.203125 
Q 15.484375 15.921875 20.484375 11.0625 
Q 25.484375 6.203125 34.421875 6.203125 
Q 39.59375 6.203125 44.453125 7.46875 
Q 49.3125 8.734375 54.109375 11.28125 
L 54.109375 2.78125 
Q 49.265625 0.734375 44.1875 -0.34375 
Q 39.109375 -1.421875 33.890625 -1.421875 
Q 20.796875 -1.421875 13.15625 6.1875 
Q 5.515625 13.8125 5.515625 26.8125 
Q 5.515625 40.234375 12.765625 48.109375 
Q 20.015625 56 32.328125 56 
Q 43.359375 56 49.78125 48.890625 
Q 56.203125 41.796875 56.203125 29.59375 
z
M 47.21875 32.234375 
Q 47.125 39.59375 43.09375 43.984375 
Q 39.0625 48.390625 32.421875 48.390625 
Q 24.90625 48.390625 20.390625 44.140625 
Q 15.875 39.890625 15.1875 32.171875 
z
" id="DejaVuSans-101"/>
       <path d="M 41.109375 46.296875 
Q 39.59375 47.171875 37.8125 47.578125 
Q 36.03125 48 33.890625 48 
Q 26.265625 48 22.1875 43.046875 
Q 18.109375 38.09375 18.109375 28.8125 
L 18.109375 0 
L 9.078125 0 
L 9.078125 54.6875 
L 18.109375 54.6875 
L 18.109375 46.1875 
Q 20.953125 51.171875 25.484375 53.578125 
Q 30.03125 56 36.53125 56 
Q 37.453125 56 38.578125 55.875 
Q 39.703125 55.765625 41.0625 55.515625 
z
" id="DejaVuSans-114"/>
      </defs>
      <use xlink:href="#DejaVuSans-105"/>
      <use x="27.783203" xlink:href="#DejaVuSans-110"/>
      <use x="91.162109" xlink:href="#DejaVuSans-105"/>
      <use x="118.945312" xlink:href="#DejaVuSans-116"/>
      <use x="158.154297" xlink:href="#DejaVuSans-105"/>
      <use x="185.9375" xlink:href="#DejaVuSans-97"/>
      <use x="247.216797" xlink:href="#DejaVuSans-108"/>
      <use x="275" xlink:href="#DejaVuSans-32"/>
      <use x="306.787109" xlink:href="#DejaVuSans-99"/>
      <use x="361.767578" xlink:href="#DejaVuSans-108"/>
      <use x="389.550781" xlink:href="#DejaVuSans-117"/>
      <use x="452.929688" xlink:href="#DejaVuSans-115"/>
      <use x="505.029297" xlink:href="#DejaVuSans-116"/>
      <use x="544.238281" xlink:href="#DejaVuSans-101"/>
      <use x="605.761719" xlink:href="#DejaVuSans-114"/>
      <use x="646.875" xlink:href="#DejaVuSans-32"/>
      <use x="678.662109" xlink:href="#DejaVuSans-49"/>
     </g>
    </g>
    <g id="PathCollection_6">
     <g>
      <use style="fill:#ff7f0e;stroke:#ff7f0e;stroke-width:1.5;" x="273.49375" xlink:href="#m23ce0e914a" y="35.851562"/>
     </g>
    </g>
    <g id="text_20">
     <!-- initial cluster 2 -->
     <g transform="translate(291.49375 38.476562)scale(0.1 -0.1)">
      <use xlink:href="#DejaVuSans-105"/>
      <use x="27.783203" xlink:href="#DejaVuSans-110"/>
      <use x="91.162109" xlink:href="#DejaVuSans-105"/>
      <use x="118.945312" xlink:href="#DejaVuSans-116"/>
      <use x="158.154297" xlink:href="#DejaVuSans-105"/>
      <use x="185.9375" xlink:href="#DejaVuSans-97"/>
      <use x="247.216797" xlink:href="#DejaVuSans-108"/>
      <use x="275" xlink:href="#DejaVuSans-32"/>
      <use x="306.787109" xlink:href="#DejaVuSans-99"/>
      <use x="361.767578" xlink:href="#DejaVuSans-108"/>
      <use x="389.550781" xlink:href="#DejaVuSans-117"/>
      <use x="452.929688" xlink:href="#DejaVuSans-115"/>
      <use x="505.029297" xlink:href="#DejaVuSans-116"/>
      <use x="544.238281" xlink:href="#DejaVuSans-101"/>
      <use x="605.761719" xlink:href="#DejaVuSans-114"/>
      <use x="646.875" xlink:href="#DejaVuSans-32"/>
      <use x="678.662109" xlink:href="#DejaVuSans-50"/>
     </g>
    </g>
    <g id="PathCollection_7">
     <g>
      <use style="fill:#2ca02c;stroke:#2ca02c;stroke-width:1.5;" x="273.49375" xlink:href="#m979464d1ec" y="50.529687"/>
     </g>
    </g>
    <g id="text_21">
     <!-- initial cluster 3 -->
     <g transform="translate(291.49375 53.154687)scale(0.1 -0.1)">
      <use xlink:href="#DejaVuSans-105"/>
      <use x="27.783203" xlink:href="#DejaVuSans-110"/>
      <use x="91.162109" xlink:href="#DejaVuSans-105"/>
      <use x="118.945312" xlink:href="#DejaVuSans-116"/>
      <use x="158.154297" xlink:href="#DejaVuSans-105"/>
      <use x="185.9375" xlink:href="#DejaVuSans-97"/>
      <use x="247.216797" xlink:href="#DejaVuSans-108"/>
      <use x="275" xlink:href="#DejaVuSans-32"/>
      <use x="306.787109" xlink:href="#DejaVuSans-99"/>
      <use x="361.767578" xlink:href="#DejaVuSans-108"/>
      <use x="389.550781" xlink:href="#DejaVuSans-117"/>
      <use x="452.929688" xlink:href="#DejaVuSans-115"/>
      <use x="505.029297" xlink:href="#DejaVuSans-116"/>
      <use x="544.238281" xlink:href="#DejaVuSans-101"/>
      <use x="605.761719" xlink:href="#DejaVuSans-114"/>
      <use x="646.875" xlink:href="#DejaVuSans-32"/>
      <use x="678.662109" xlink:href="#DejaVuSans-51"/>
     </g>
    </g>
    <g id="PathCollection_8">
     <g>
      <use style="fill:#d62728;stroke:#d62728;" x="273.49375" xlink:href="#m5b7cf4730d" y="65.207812"/>
     </g>
    </g>
    <g id="text_22">
     <!-- initial centroids -->
     <g transform="translate(291.49375 67.832812)scale(0.1 -0.1)">
      <defs>
       <path d="M 30.609375 48.390625 
Q 23.390625 48.390625 19.1875 42.75 
Q 14.984375 37.109375 14.984375 27.296875 
Q 14.984375 17.484375 19.15625 11.84375 
Q 23.34375 6.203125 30.609375 6.203125 
Q 37.796875 6.203125 41.984375 11.859375 
Q 46.1875 17.53125 46.1875 27.296875 
Q 46.1875 37.015625 41.984375 42.703125 
Q 37.796875 48.390625 30.609375 48.390625 
z
M 30.609375 56 
Q 42.328125 56 49.015625 48.375 
Q 55.71875 40.765625 55.71875 27.296875 
Q 55.71875 13.875 49.015625 6.21875 
Q 42.328125 -1.421875 30.609375 -1.421875 
Q 18.84375 -1.421875 12.171875 6.21875 
Q 5.515625 13.875 5.515625 27.296875 
Q 5.515625 40.765625 12.171875 48.375 
Q 18.84375 56 30.609375 56 
z
" id="DejaVuSans-111"/>
       <path d="M 45.40625 46.390625 
L 45.40625 75.984375 
L 54.390625 75.984375 
L 54.390625 0 
L 45.40625 0 
L 45.40625 8.203125 
Q 42.578125 3.328125 38.25 0.953125 
Q 33.9375 -1.421875 27.875 -1.421875 
Q 17.96875 -1.421875 11.734375 6.484375 
Q 5.515625 14.40625 5.515625 27.296875 
Q 5.515625 40.1875 11.734375 48.09375 
Q 17.96875 56 27.875 56 
Q 33.9375 56 38.25 53.625 
Q 42.578125 51.265625 45.40625 46.390625 
z
M 14.796875 27.296875 
Q 14.796875 17.390625 18.875 11.75 
Q 22.953125 6.109375 30.078125 6.109375 
Q 37.203125 6.109375 41.296875 11.75 
Q 45.40625 17.390625 45.40625 27.296875 
Q 45.40625 37.203125 41.296875 42.84375 
Q 37.203125 48.484375 30.078125 48.484375 
Q 22.953125 48.484375 18.875 42.84375 
Q 14.796875 37.203125 14.796875 27.296875 
z
" id="DejaVuSans-100"/>
      </defs>
      <use xlink:href="#DejaVuSans-105"/>
      <use x="27.783203" xlink:href="#DejaVuSans-110"/>
      <use x="91.162109" xlink:href="#DejaVuSans-105"/>
      <use x="118.945312" xlink:href="#DejaVuSans-116"/>
      <use x="158.154297" xlink:href="#DejaVuSans-105"/>
      <use x="185.9375" xlink:href="#DejaVuSans-97"/>
      <use x="247.216797" xlink:href="#DejaVuSans-108"/>
      <use x="275" xlink:href="#DejaVuSans-32"/>
      <use x="306.787109" xlink:href="#DejaVuSans-99"/>
      <use x="361.767578" xlink:href="#DejaVuSans-101"/>
      <use x="423.291016" xlink:href="#DejaVuSans-110"/>
      <use x="486.669922" xlink:href="#DejaVuSans-116"/>
      <use x="525.878906" xlink:href="#DejaVuSans-114"/>
      <use x="564.742188" xlink:href="#DejaVuSans-111"/>
      <use x="625.923828" xlink:href="#DejaVuSans-105"/>
      <use x="653.707031" xlink:href="#DejaVuSans-100"/>
      <use x="717.183594" xlink:href="#DejaVuSans-115"/>
     </g>
    </g>
   </g>
  </g>
 </g>
 <defs>
  <clipPath id="pf707f36012">
   <rect height="217.44" width="334.8" x="42.620313" y="7.2"/>
  </clipPath>
 </defs>
</svg>
