<?xml version="1.0" encoding="utf-8" standalone="no"?>
<!DOCTYPE svg PUBLIC "-//W3C//DTD SVG 1.1//EN"
  "http://www.w3.org/Graphics/SVG/1.1/DTD/svg11.dtd">
<svg xmlns:xlink="http://www.w3.org/1999/xlink" width="425.241875pt" height="310.86825pt" viewBox="0 0 425.241875 310.86825" xmlns="http://www.w3.org/2000/svg" version="1.1">
 <metadata>
  <rdf:RDF xmlns:dc="http://purl.org/dc/elements/1.1/" xmlns:cc="http://creativecommons.org/ns#" xmlns:rdf="http://www.w3.org/1999/02/22-rdf-syntax-ns#">
   <cc:Work>
    <dc:type rdf:resource="http://purl.org/dc/dcmitype/StillImage"/>
    <dc:date>2022-11-22T22:32:59.986857</dc:date>
    <dc:format>image/svg+xml</dc:format>
    <dc:creator>
     <cc:Agent>
      <dc:title>Matplotlib v3.6.1, https://matplotlib.org/</dc:title>
     </cc:Agent>
    </dc:creator>
   </cc:Work>
  </rdf:RDF>
 </metadata>
 <defs>
  <style type="text/css">*{stroke-linejoin: round; stroke-linecap: butt}</style>
 </defs>
 <g id="figure_1">
  <g id="patch_1">
   <path d="M 0 310.86825 
L 425.241875 310.86825 
L 425.241875 0 
L 0 0 
z
" style="fill: #ffffff"/>
  </g>
  <g id="axes_1">
   <g id="patch_2">
    <path d="M 51.378125 273.312 
L 408.498125 273.312 
L 408.498125 7.2 
L 51.378125 7.2 
z
" style="fill: #ffffff"/>
   </g>
   <g id="matplotlib.axis_1">
    <g id="xtick_1">
     <g id="line2d_1">
      <defs>
       <path id="mde412eed70" d="M 0 0 
L 0 3.5 
" style="stroke: #000000; stroke-width: 0.8"/>
      </defs>
      <g>
       <use xlink:href="#mde412eed70" x="51.378125" y="273.312" style="stroke: #000000; stroke-width: 0.8"/>
      </g>
     </g>
     <g id="text_1">
      <!-- 0 -->
      <g transform="translate(48.196875 287.910437) scale(0.1 -0.1)">
       <defs>
        <path id="DejaVuSans-30" d="M 2034 4250 
Q 1547 4250 1301 3770 
Q 1056 3291 1056 2328 
Q 1056 1369 1301 889 
Q 1547 409 2034 409 
Q 2525 409 2770 889 
Q 3016 1369 3016 2328 
Q 3016 3291 2770 3770 
Q 2525 4250 2034 4250 
z
M 2034 4750 
Q 2819 4750 3233 4129 
Q 3647 3509 3647 2328 
Q 3647 1150 3233 529 
Q 2819 -91 2034 -91 
Q 1250 -91 836 529 
Q 422 1150 422 2328 
Q 422 3509 836 4129 
Q 1250 4750 2034 4750 
z
" transform="scale(0.015625)"/>
       </defs>
       <use xlink:href="#DejaVuSans-30"/>
      </g>
     </g>
    </g>
    <g id="xtick_2">
     <g id="line2d_2">
      <g>
       <use xlink:href="#mde412eed70" x="122.802125" y="273.312" style="stroke: #000000; stroke-width: 0.8"/>
      </g>
     </g>
     <g id="text_2">
      <!-- 100 -->
      <g transform="translate(113.258375 287.910437) scale(0.1 -0.1)">
       <defs>
        <path id="DejaVuSans-31" d="M 794 531 
L 1825 531 
L 1825 4091 
L 703 3866 
L 703 4441 
L 1819 4666 
L 2450 4666 
L 2450 531 
L 3481 531 
L 3481 0 
L 794 0 
L 794 531 
z
" transform="scale(0.015625)"/>
       </defs>
       <use xlink:href="#DejaVuSans-31"/>
       <use xlink:href="#DejaVuSans-30" x="63.623047"/>
       <use xlink:href="#DejaVuSans-30" x="127.246094"/>
      </g>
     </g>
    </g>
    <g id="xtick_3">
     <g id="line2d_3">
      <g>
       <use xlink:href="#mde412eed70" x="194.226125" y="273.312" style="stroke: #000000; stroke-width: 0.8"/>
      </g>
     </g>
     <g id="text_3">
      <!-- 200 -->
      <g transform="translate(184.682375 287.910437) scale(0.1 -0.1)">
       <defs>
        <path id="DejaVuSans-32" d="M 1228 531 
L 3431 531 
L 3431 0 
L 469 0 
L 469 531 
Q 828 903 1448 1529 
Q 2069 2156 2228 2338 
Q 2531 2678 2651 2914 
Q 2772 3150 2772 3378 
Q 2772 3750 2511 3984 
Q 2250 4219 1831 4219 
Q 1534 4219 1204 4116 
Q 875 4013 500 3803 
L 500 4441 
Q 881 4594 1212 4672 
Q 1544 4750 1819 4750 
Q 2544 4750 2975 4387 
Q 3406 4025 3406 3419 
Q 3406 3131 3298 2873 
Q 3191 2616 2906 2266 
Q 2828 2175 2409 1742 
Q 1991 1309 1228 531 
z
" transform="scale(0.015625)"/>
       </defs>
       <use xlink:href="#DejaVuSans-32"/>
       <use xlink:href="#DejaVuSans-30" x="63.623047"/>
       <use xlink:href="#DejaVuSans-30" x="127.246094"/>
      </g>
     </g>
    </g>
    <g id="xtick_4">
     <g id="line2d_4">
      <g>
       <use xlink:href="#mde412eed70" x="265.650125" y="273.312" style="stroke: #000000; stroke-width: 0.8"/>
      </g>
     </g>
     <g id="text_4">
      <!-- 300 -->
      <g transform="translate(256.106375 287.910437) scale(0.1 -0.1)">
       <defs>
        <path id="DejaVuSans-33" d="M 2597 2516 
Q 3050 2419 3304 2112 
Q 3559 1806 3559 1356 
Q 3559 666 3084 287 
Q 2609 -91 1734 -91 
Q 1441 -91 1130 -33 
Q 819 25 488 141 
L 488 750 
Q 750 597 1062 519 
Q 1375 441 1716 441 
Q 2309 441 2620 675 
Q 2931 909 2931 1356 
Q 2931 1769 2642 2001 
Q 2353 2234 1838 2234 
L 1294 2234 
L 1294 2753 
L 1863 2753 
Q 2328 2753 2575 2939 
Q 2822 3125 2822 3475 
Q 2822 3834 2567 4026 
Q 2313 4219 1838 4219 
Q 1578 4219 1281 4162 
Q 984 4106 628 3988 
L 628 4550 
Q 988 4650 1302 4700 
Q 1616 4750 1894 4750 
Q 2613 4750 3031 4423 
Q 3450 4097 3450 3541 
Q 3450 3153 3228 2886 
Q 3006 2619 2597 2516 
z
" transform="scale(0.015625)"/>
       </defs>
       <use xlink:href="#DejaVuSans-33"/>
       <use xlink:href="#DejaVuSans-30" x="63.623047"/>
       <use xlink:href="#DejaVuSans-30" x="127.246094"/>
      </g>
     </g>
    </g>
    <g id="xtick_5">
     <g id="line2d_5">
      <g>
       <use xlink:href="#mde412eed70" x="337.074125" y="273.312" style="stroke: #000000; stroke-width: 0.8"/>
      </g>
     </g>
     <g id="text_5">
      <!-- 400 -->
      <g transform="translate(327.530375 287.910437) scale(0.1 -0.1)">
       <defs>
        <path id="DejaVuSans-34" d="M 2419 4116 
L 825 1625 
L 2419 1625 
L 2419 4116 
z
M 2253 4666 
L 3047 4666 
L 3047 1625 
L 3713 1625 
L 3713 1100 
L 3047 1100 
L 3047 0 
L 2419 0 
L 2419 1100 
L 313 1100 
L 313 1709 
L 2253 4666 
z
" transform="scale(0.015625)"/>
       </defs>
       <use xlink:href="#DejaVuSans-34"/>
       <use xlink:href="#DejaVuSans-30" x="63.623047"/>
       <use xlink:href="#DejaVuSans-30" x="127.246094"/>
      </g>
     </g>
    </g>
    <g id="xtick_6">
     <g id="line2d_6">
      <g>
       <use xlink:href="#mde412eed70" x="408.498125" y="273.312" style="stroke: #000000; stroke-width: 0.8"/>
      </g>
     </g>
     <g id="text_6">
      <!-- 500 -->
      <g transform="translate(398.954375 287.910437) scale(0.1 -0.1)">
       <defs>
        <path id="DejaVuSans-35" d="M 691 4666 
L 3169 4666 
L 3169 4134 
L 1269 4134 
L 1269 2991 
Q 1406 3038 1543 3061 
Q 1681 3084 1819 3084 
Q 2600 3084 3056 2656 
Q 3513 2228 3513 1497 
Q 3513 744 3044 326 
Q 2575 -91 1722 -91 
Q 1428 -91 1123 -41 
Q 819 9 494 109 
L 494 744 
Q 775 591 1075 516 
Q 1375 441 1709 441 
Q 2250 441 2565 725 
Q 2881 1009 2881 1497 
Q 2881 1984 2565 2268 
Q 2250 2553 1709 2553 
Q 1456 2553 1204 2497 
Q 953 2441 691 2322 
L 691 4666 
z
" transform="scale(0.015625)"/>
       </defs>
       <use xlink:href="#DejaVuSans-35"/>
       <use xlink:href="#DejaVuSans-30" x="63.623047"/>
       <use xlink:href="#DejaVuSans-30" x="127.246094"/>
      </g>
     </g>
    </g>
    <g id="text_7">
     <!-- epoch -->
     <g transform="translate(214.71 301.588562) scale(0.1 -0.1)">
      <defs>
       <path id="DejaVuSans-65" d="M 3597 1894 
L 3597 1613 
L 953 1613 
Q 991 1019 1311 708 
Q 1631 397 2203 397 
Q 2534 397 2845 478 
Q 3156 559 3463 722 
L 3463 178 
Q 3153 47 2828 -22 
Q 2503 -91 2169 -91 
Q 1331 -91 842 396 
Q 353 884 353 1716 
Q 353 2575 817 3079 
Q 1281 3584 2069 3584 
Q 2775 3584 3186 3129 
Q 3597 2675 3597 1894 
z
M 3022 2063 
Q 3016 2534 2758 2815 
Q 2500 3097 2075 3097 
Q 1594 3097 1305 2825 
Q 1016 2553 972 2059 
L 3022 2063 
z
" transform="scale(0.015625)"/>
       <path id="DejaVuSans-70" d="M 1159 525 
L 1159 -1331 
L 581 -1331 
L 581 3500 
L 1159 3500 
L 1159 2969 
Q 1341 3281 1617 3432 
Q 1894 3584 2278 3584 
Q 2916 3584 3314 3078 
Q 3713 2572 3713 1747 
Q 3713 922 3314 415 
Q 2916 -91 2278 -91 
Q 1894 -91 1617 61 
Q 1341 213 1159 525 
z
M 3116 1747 
Q 3116 2381 2855 2742 
Q 2594 3103 2138 3103 
Q 1681 3103 1420 2742 
Q 1159 2381 1159 1747 
Q 1159 1113 1420 752 
Q 1681 391 2138 391 
Q 2594 391 2855 752 
Q 3116 1113 3116 1747 
z
" transform="scale(0.015625)"/>
       <path id="DejaVuSans-6f" d="M 1959 3097 
Q 1497 3097 1228 2736 
Q 959 2375 959 1747 
Q 959 1119 1226 758 
Q 1494 397 1959 397 
Q 2419 397 2687 759 
Q 2956 1122 2956 1747 
Q 2956 2369 2687 2733 
Q 2419 3097 1959 3097 
z
M 1959 3584 
Q 2709 3584 3137 3096 
Q 3566 2609 3566 1747 
Q 3566 888 3137 398 
Q 2709 -91 1959 -91 
Q 1206 -91 779 398 
Q 353 888 353 1747 
Q 353 2609 779 3096 
Q 1206 3584 1959 3584 
z
" transform="scale(0.015625)"/>
       <path id="DejaVuSans-63" d="M 3122 3366 
L 3122 2828 
Q 2878 2963 2633 3030 
Q 2388 3097 2138 3097 
Q 1578 3097 1268 2742 
Q 959 2388 959 1747 
Q 959 1106 1268 751 
Q 1578 397 2138 397 
Q 2388 397 2633 464 
Q 2878 531 3122 666 
L 3122 134 
Q 2881 22 2623 -34 
Q 2366 -91 2075 -91 
Q 1284 -91 818 406 
Q 353 903 353 1747 
Q 353 2603 823 3093 
Q 1294 3584 2113 3584 
Q 2378 3584 2631 3529 
Q 2884 3475 3122 3366 
z
" transform="scale(0.015625)"/>
       <path id="DejaVuSans-68" d="M 3513 2113 
L 3513 0 
L 2938 0 
L 2938 2094 
Q 2938 2591 2744 2837 
Q 2550 3084 2163 3084 
Q 1697 3084 1428 2787 
Q 1159 2491 1159 1978 
L 1159 0 
L 581 0 
L 581 4863 
L 1159 4863 
L 1159 2956 
Q 1366 3272 1645 3428 
Q 1925 3584 2291 3584 
Q 2894 3584 3203 3211 
Q 3513 2838 3513 2113 
z
" transform="scale(0.015625)"/>
      </defs>
      <use xlink:href="#DejaVuSans-65"/>
      <use xlink:href="#DejaVuSans-70" x="61.523438"/>
      <use xlink:href="#DejaVuSans-6f" x="125"/>
      <use xlink:href="#DejaVuSans-63" x="186.181641"/>
      <use xlink:href="#DejaVuSans-68" x="241.162109"/>
     </g>
    </g>
   </g>
   <g id="matplotlib.axis_2">
    <g id="ytick_1">
     <g id="line2d_7">
      <defs>
       <path id="mef6bbbb2f4" d="M 0 0 
L -3.5 0 
" style="stroke: #000000; stroke-width: 0.8"/>
      </defs>
      <g>
       <use xlink:href="#mef6bbbb2f4" x="51.378125" y="256.986846" style="stroke: #000000; stroke-width: 0.8"/>
      </g>
     </g>
     <g id="text_8">
      <!-- $\mathdefault{10^{-4}}$ -->
      <g transform="translate(20.878125 260.786065) scale(0.1 -0.1)">
       <defs>
        <path id="DejaVuSans-2212" d="M 678 2272 
L 4684 2272 
L 4684 1741 
L 678 1741 
L 678 2272 
z
" transform="scale(0.015625)"/>
       </defs>
       <use xlink:href="#DejaVuSans-31" transform="translate(0 0.684375)"/>
       <use xlink:href="#DejaVuSans-30" transform="translate(63.623047 0.684375)"/>
       <use xlink:href="#DejaVuSans-2212" transform="translate(128.203125 38.965625) scale(0.7)"/>
       <use xlink:href="#DejaVuSans-34" transform="translate(186.855469 38.965625) scale(0.7)"/>
      </g>
     </g>
    </g>
    <g id="ytick_2">
     <g id="line2d_8">
      <g>
       <use xlink:href="#mef6bbbb2f4" x="51.378125" y="189.151373" style="stroke: #000000; stroke-width: 0.8"/>
      </g>
     </g>
     <g id="text_9">
      <!-- $\mathdefault{10^{-3}}$ -->
      <g transform="translate(20.878125 192.950592) scale(0.1 -0.1)">
       <use xlink:href="#DejaVuSans-31" transform="translate(0 0.765625)"/>
       <use xlink:href="#DejaVuSans-30" transform="translate(63.623047 0.765625)"/>
       <use xlink:href="#DejaVuSans-2212" transform="translate(128.203125 39.046875) scale(0.7)"/>
       <use xlink:href="#DejaVuSans-33" transform="translate(186.855469 39.046875) scale(0.7)"/>
      </g>
     </g>
    </g>
    <g id="ytick_3">
     <g id="line2d_9">
      <g>
       <use xlink:href="#mef6bbbb2f4" x="51.378125" y="121.3159" style="stroke: #000000; stroke-width: 0.8"/>
      </g>
     </g>
     <g id="text_10">
      <!-- $\mathdefault{10^{-2}}$ -->
      <g transform="translate(20.878125 125.115118) scale(0.1 -0.1)">
       <use xlink:href="#DejaVuSans-31" transform="translate(0 0.765625)"/>
       <use xlink:href="#DejaVuSans-30" transform="translate(63.623047 0.765625)"/>
       <use xlink:href="#DejaVuSans-2212" transform="translate(128.203125 39.046875) scale(0.7)"/>
       <use xlink:href="#DejaVuSans-32" transform="translate(186.855469 39.046875) scale(0.7)"/>
      </g>
     </g>
    </g>
    <g id="ytick_4">
     <g id="line2d_10">
      <g>
       <use xlink:href="#mef6bbbb2f4" x="51.378125" y="53.480426" style="stroke: #000000; stroke-width: 0.8"/>
      </g>
     </g>
     <g id="text_11">
      <!-- $\mathdefault{10^{-1}}$ -->
      <g transform="translate(20.878125 57.279645) scale(0.1 -0.1)">
       <use xlink:href="#DejaVuSans-31" transform="translate(0 0.684375)"/>
       <use xlink:href="#DejaVuSans-30" transform="translate(63.623047 0.684375)"/>
       <use xlink:href="#DejaVuSans-2212" transform="translate(128.203125 38.965625) scale(0.7)"/>
       <use xlink:href="#DejaVuSans-31" transform="translate(186.855469 38.965625) scale(0.7)"/>
      </g>
     </g>
    </g>
    <g id="ytick_5">
     <g id="line2d_11">
      <defs>
       <path id="m530396b87a" d="M 0 0 
L -2 0 
" style="stroke: #000000; stroke-width: 0.6"/>
      </defs>
      <g>
       <use xlink:href="#m530396b87a" x="51.378125" y="272.036061" style="stroke: #000000; stroke-width: 0.6"/>
      </g>
     </g>
    </g>
    <g id="ytick_6">
     <g id="line2d_12">
      <g>
       <use xlink:href="#m530396b87a" x="51.378125" y="267.494694" style="stroke: #000000; stroke-width: 0.6"/>
      </g>
     </g>
    </g>
    <g id="ytick_7">
     <g id="line2d_13">
      <g>
       <use xlink:href="#m530396b87a" x="51.378125" y="263.560783" style="stroke: #000000; stroke-width: 0.6"/>
      </g>
     </g>
    </g>
    <g id="ytick_8">
     <g id="line2d_14">
      <g>
       <use xlink:href="#m530396b87a" x="51.378125" y="260.090827" style="stroke: #000000; stroke-width: 0.6"/>
      </g>
     </g>
    </g>
    <g id="ytick_9">
     <g id="line2d_15">
      <g>
       <use xlink:href="#m530396b87a" x="51.378125" y="236.566334" style="stroke: #000000; stroke-width: 0.6"/>
      </g>
     </g>
    </g>
    <g id="ytick_10">
     <g id="line2d_16">
      <g>
       <use xlink:href="#m530396b87a" x="51.378125" y="224.6211" style="stroke: #000000; stroke-width: 0.6"/>
      </g>
     </g>
    </g>
    <g id="ytick_11">
     <g id="line2d_17">
      <g>
       <use xlink:href="#m530396b87a" x="51.378125" y="216.145822" style="stroke: #000000; stroke-width: 0.6"/>
      </g>
     </g>
    </g>
    <g id="ytick_12">
     <g id="line2d_18">
      <g>
       <use xlink:href="#m530396b87a" x="51.378125" y="209.571885" style="stroke: #000000; stroke-width: 0.6"/>
      </g>
     </g>
    </g>
    <g id="ytick_13">
     <g id="line2d_19">
      <g>
       <use xlink:href="#m530396b87a" x="51.378125" y="204.200588" style="stroke: #000000; stroke-width: 0.6"/>
      </g>
     </g>
    </g>
    <g id="ytick_14">
     <g id="line2d_20">
      <g>
       <use xlink:href="#m530396b87a" x="51.378125" y="199.659221" style="stroke: #000000; stroke-width: 0.6"/>
      </g>
     </g>
    </g>
    <g id="ytick_15">
     <g id="line2d_21">
      <g>
       <use xlink:href="#m530396b87a" x="51.378125" y="195.725309" style="stroke: #000000; stroke-width: 0.6"/>
      </g>
     </g>
    </g>
    <g id="ytick_16">
     <g id="line2d_22">
      <g>
       <use xlink:href="#m530396b87a" x="51.378125" y="192.255354" style="stroke: #000000; stroke-width: 0.6"/>
      </g>
     </g>
    </g>
    <g id="ytick_17">
     <g id="line2d_23">
      <g>
       <use xlink:href="#m530396b87a" x="51.378125" y="168.730861" style="stroke: #000000; stroke-width: 0.6"/>
      </g>
     </g>
    </g>
    <g id="ytick_18">
     <g id="line2d_24">
      <g>
       <use xlink:href="#m530396b87a" x="51.378125" y="156.785627" style="stroke: #000000; stroke-width: 0.6"/>
      </g>
     </g>
    </g>
    <g id="ytick_19">
     <g id="line2d_25">
      <g>
       <use xlink:href="#m530396b87a" x="51.378125" y="148.310348" style="stroke: #000000; stroke-width: 0.6"/>
      </g>
     </g>
    </g>
    <g id="ytick_20">
     <g id="line2d_26">
      <g>
       <use xlink:href="#m530396b87a" x="51.378125" y="141.736412" style="stroke: #000000; stroke-width: 0.6"/>
      </g>
     </g>
    </g>
    <g id="ytick_21">
     <g id="line2d_27">
      <g>
       <use xlink:href="#m530396b87a" x="51.378125" y="136.365114" style="stroke: #000000; stroke-width: 0.6"/>
      </g>
     </g>
    </g>
    <g id="ytick_22">
     <g id="line2d_28">
      <g>
       <use xlink:href="#m530396b87a" x="51.378125" y="131.823747" style="stroke: #000000; stroke-width: 0.6"/>
      </g>
     </g>
    </g>
    <g id="ytick_23">
     <g id="line2d_29">
      <g>
       <use xlink:href="#m530396b87a" x="51.378125" y="127.889836" style="stroke: #000000; stroke-width: 0.6"/>
      </g>
     </g>
    </g>
    <g id="ytick_24">
     <g id="line2d_30">
      <g>
       <use xlink:href="#m530396b87a" x="51.378125" y="124.419881" style="stroke: #000000; stroke-width: 0.6"/>
      </g>
     </g>
    </g>
    <g id="ytick_25">
     <g id="line2d_31">
      <g>
       <use xlink:href="#m530396b87a" x="51.378125" y="100.895387" style="stroke: #000000; stroke-width: 0.6"/>
      </g>
     </g>
    </g>
    <g id="ytick_26">
     <g id="line2d_32">
      <g>
       <use xlink:href="#m530396b87a" x="51.378125" y="88.950153" style="stroke: #000000; stroke-width: 0.6"/>
      </g>
     </g>
    </g>
    <g id="ytick_27">
     <g id="line2d_33">
      <g>
       <use xlink:href="#m530396b87a" x="51.378125" y="80.474875" style="stroke: #000000; stroke-width: 0.6"/>
      </g>
     </g>
    </g>
    <g id="ytick_28">
     <g id="line2d_34">
      <g>
       <use xlink:href="#m530396b87a" x="51.378125" y="73.900938" style="stroke: #000000; stroke-width: 0.6"/>
      </g>
     </g>
    </g>
    <g id="ytick_29">
     <g id="line2d_35">
      <g>
       <use xlink:href="#m530396b87a" x="51.378125" y="68.529641" style="stroke: #000000; stroke-width: 0.6"/>
      </g>
     </g>
    </g>
    <g id="ytick_30">
     <g id="line2d_36">
      <g>
       <use xlink:href="#m530396b87a" x="51.378125" y="63.988274" style="stroke: #000000; stroke-width: 0.6"/>
      </g>
     </g>
    </g>
    <g id="ytick_31">
     <g id="line2d_37">
      <g>
       <use xlink:href="#m530396b87a" x="51.378125" y="60.054363" style="stroke: #000000; stroke-width: 0.6"/>
      </g>
     </g>
    </g>
    <g id="ytick_32">
     <g id="line2d_38">
      <g>
       <use xlink:href="#m530396b87a" x="51.378125" y="56.584407" style="stroke: #000000; stroke-width: 0.6"/>
      </g>
     </g>
    </g>
    <g id="ytick_33">
     <g id="line2d_39">
      <g>
       <use xlink:href="#m530396b87a" x="51.378125" y="33.059914" style="stroke: #000000; stroke-width: 0.6"/>
      </g>
     </g>
    </g>
    <g id="ytick_34">
     <g id="line2d_40">
      <g>
       <use xlink:href="#m530396b87a" x="51.378125" y="21.11468" style="stroke: #000000; stroke-width: 0.6"/>
      </g>
     </g>
    </g>
    <g id="ytick_35">
     <g id="line2d_41">
      <g>
       <use xlink:href="#m530396b87a" x="51.378125" y="12.639402" style="stroke: #000000; stroke-width: 0.6"/>
      </g>
     </g>
    </g>
    <g id="text_12">
     <!-- MSE -->
     <g transform="translate(14.798438 150.903656) rotate(-90) scale(0.1 -0.1)">
      <defs>
       <path id="DejaVuSans-4d" d="M 628 4666 
L 1569 4666 
L 2759 1491 
L 3956 4666 
L 4897 4666 
L 4897 0 
L 4281 0 
L 4281 4097 
L 3078 897 
L 2444 897 
L 1241 4097 
L 1241 0 
L 628 0 
L 628 4666 
z
" transform="scale(0.015625)"/>
       <path id="DejaVuSans-53" d="M 3425 4513 
L 3425 3897 
Q 3066 4069 2747 4153 
Q 2428 4238 2131 4238 
Q 1616 4238 1336 4038 
Q 1056 3838 1056 3469 
Q 1056 3159 1242 3001 
Q 1428 2844 1947 2747 
L 2328 2669 
Q 3034 2534 3370 2195 
Q 3706 1856 3706 1288 
Q 3706 609 3251 259 
Q 2797 -91 1919 -91 
Q 1588 -91 1214 -16 
Q 841 59 441 206 
L 441 856 
Q 825 641 1194 531 
Q 1563 422 1919 422 
Q 2459 422 2753 634 
Q 3047 847 3047 1241 
Q 3047 1584 2836 1778 
Q 2625 1972 2144 2069 
L 1759 2144 
Q 1053 2284 737 2584 
Q 422 2884 422 3419 
Q 422 4038 858 4394 
Q 1294 4750 2059 4750 
Q 2388 4750 2728 4690 
Q 3069 4631 3425 4513 
z
" transform="scale(0.015625)"/>
       <path id="DejaVuSans-45" d="M 628 4666 
L 3578 4666 
L 3578 4134 
L 1259 4134 
L 1259 2753 
L 3481 2753 
L 3481 2222 
L 1259 2222 
L 1259 531 
L 3634 531 
L 3634 0 
L 628 0 
L 628 4666 
z
" transform="scale(0.015625)"/>
      </defs>
      <use xlink:href="#DejaVuSans-4d"/>
      <use xlink:href="#DejaVuSans-53" x="86.279297"/>
      <use xlink:href="#DejaVuSans-45" x="149.755859"/>
     </g>
    </g>
   </g>
   <g id="line2d_42">
    <path d="M 51.378125 38.24005 
L 52.092365 65.862025 
L 52.806605 80.121381 
L 54.235085 86.557298 
L 54.949325 88.541434 
L 55.663565 89.654072 
L 56.377805 92.347038 
L 57.092045 92.749215 
L 58.520525 98.822181 
L 59.234765 97.52317 
L 59.949005 102.215889 
L 60.663245 102.704013 
L 62.091725 107.597581 
L 62.805965 108.325202 
L 63.520205 109.590743 
L 64.234445 107.464582 
L 64.948685 114.423311 
L 65.662925 115.45828 
L 66.377165 118.121591 
L 67.091405 116.424312 
L 67.805645 118.633198 
L 68.519885 118.066338 
L 69.234125 124.219484 
L 69.948365 126.03416 
L 70.662605 123.495055 
L 71.376845 123.831278 
L 72.091085 124.593715 
L 72.805325 127.663419 
L 74.233805 132.561366 
L 74.948045 127.37147 
L 76.376525 132.994023 
L 77.090765 135.612304 
L 77.805005 120.850284 
L 78.519245 129.870079 
L 79.233485 136.508575 
L 80.661965 141.236557 
L 81.376205 142.388172 
L 82.090445 141.880102 
L 82.804685 144.357851 
L 83.518925 141.349164 
L 84.233165 146.276949 
L 84.947405 146.864542 
L 85.661645 144.191898 
L 86.375885 137.792985 
L 87.804365 150.270409 
L 88.518605 145.314089 
L 89.232845 152.904289 
L 89.947085 151.876989 
L 90.661325 153.166705 
L 91.375565 148.919729 
L 92.089805 137.503083 
L 92.804045 138.460195 
L 93.518285 156.803636 
L 94.232525 156.708994 
L 94.946765 162.210708 
L 95.661005 160.635492 
L 96.375245 161.13225 
L 97.089485 149.311476 
L 97.803725 162.786331 
L 99.232205 154.271431 
L 99.946445 156.44839 
L 100.660685 168.642713 
L 101.374925 162.927965 
L 102.089165 161.577811 
L 102.803405 168.85942 
L 103.517645 161.25642 
L 104.231885 151.586353 
L 104.946125 170.051955 
L 105.660365 161.737514 
L 106.374605 169.884138 
L 107.088845 162.484944 
L 107.803085 170.494884 
L 108.517325 172.369293 
L 109.231565 167.293575 
L 109.945805 169.350698 
L 110.660045 173.447004 
L 111.374285 170.572303 
L 112.088525 178.131097 
L 112.802765 151.517077 
L 113.517005 140.031271 
L 114.231245 148.051445 
L 114.945485 137.327006 
L 116.373965 176.932518 
L 117.088205 162.647625 
L 117.802445 174.344636 
L 118.516685 177.049417 
L 119.230925 178.12612 
L 119.945165 172.977633 
L 120.659405 177.99912 
L 121.373645 177.917899 
L 122.087885 175.771122 
L 122.802125 181.430771 
L 123.516365 188.085259 
L 124.230605 188.087184 
L 124.944845 184.594734 
L 125.659085 186.345734 
L 126.373325 151.634619 
L 127.087565 182.684322 
L 127.801805 189.405264 
L 128.516045 179.249672 
L 129.230285 181.459041 
L 129.944525 189.090395 
L 130.658765 181.959453 
L 131.373005 190.052077 
L 132.087245 183.493986 
L 132.801485 192.04967 
L 133.515725 194.053464 
L 134.229965 176.804263 
L 134.944205 170.021084 
L 135.658445 164.432317 
L 136.372685 195.114589 
L 137.086925 191.754007 
L 137.801165 193.028181 
L 138.515405 187.232776 
L 139.229645 200.480005 
L 139.943885 183.205034 
L 140.658125 178.415039 
L 142.086605 198.990587 
L 142.800845 180.489562 
L 143.515085 184.110348 
L 144.229325 202.118112 
L 145.657805 150.397593 
L 146.372045 192.430175 
L 147.086285 179.461775 
L 147.800525 155.894631 
L 148.514765 183.316112 
L 149.229005 187.606605 
L 149.943245 179.643244 
L 150.657485 169.412831 
L 151.371725 195.421352 
L 152.085965 165.42497 
L 152.800205 194.983589 
L 153.514445 169.860049 
L 154.228685 189.089706 
L 154.942925 187.323394 
L 155.657165 192.270986 
L 156.371405 193.126784 
L 157.085645 176.918597 
L 158.514125 206.56694 
L 159.228365 187.541633 
L 159.942605 205.763671 
L 160.656845 203.439574 
L 161.371085 189.223755 
L 162.085325 199.502695 
L 162.799565 162.507055 
L 163.513805 166.168821 
L 164.228045 174.855455 
L 164.942285 179.289859 
L 165.656525 161.132131 
L 166.370765 169.271759 
L 167.085005 185.496047 
L 167.799245 185.359448 
L 168.513485 190.637996 
L 169.227725 172.263401 
L 169.941965 144.264862 
L 170.656205 181.442739 
L 171.370445 187.298196 
L 172.084685 189.89074 
L 172.798925 179.063765 
L 173.513165 201.517881 
L 174.227405 209.051422 
L 174.941645 200.468455 
L 175.655885 200.878662 
L 176.370125 200.11096 
L 177.084365 207.002632 
L 177.798605 207.99546 
L 178.512845 187.334632 
L 179.227085 186.995102 
L 179.941325 211.486129 
L 180.655565 192.238376 
L 181.369805 186.791423 
L 182.084045 176.003011 
L 182.798285 180.214248 
L 183.512525 189.564404 
L 184.226765 175.011021 
L 185.655245 207.104794 
L 186.369485 207.359199 
L 187.083725 211.379193 
L 187.797965 186.536748 
L 188.512205 204.01475 
L 189.226445 174.061489 
L 189.940685 177.575946 
L 190.654925 189.778845 
L 191.369165 129.655081 
L 192.083405 151.538615 
L 192.797645 184.843308 
L 193.511885 202.68 
L 194.226125 205.378342 
L 195.654605 150.655234 
L 197.083085 199.730015 
L 197.797325 178.362597 
L 198.511565 191.645265 
L 199.225805 183.322204 
L 199.940045 209.465672 
L 200.654285 209.125606 
L 201.368525 216.860522 
L 202.082765 216.41644 
L 202.797005 210.730147 
L 204.225485 184.781878 
L 204.939725 210.031482 
L 205.653965 211.178069 
L 206.368205 193.492852 
L 207.082445 194.260984 
L 207.796685 194.457802 
L 208.510925 158.93715 
L 209.225165 204.309626 
L 209.939405 191.564563 
L 210.653645 207.164987 
L 211.367885 200.824522 
L 212.082125 215.651315 
L 212.796365 215.924627 
L 213.510605 206.23311 
L 214.224845 208.779099 
L 214.939085 192.270784 
L 215.653325 145.87214 
L 217.081805 229.041372 
L 217.796045 173.229209 
L 218.510285 173.339402 
L 219.224525 218.70741 
L 219.938765 228.353709 
L 220.653005 203.728055 
L 221.367245 215.116105 
L 222.081485 191.198148 
L 222.795725 198.760515 
L 223.509965 234.11509 
L 224.224205 233.440689 
L 225.652685 194.462498 
L 226.366925 202.201722 
L 227.081165 207.080581 
L 227.795405 223.472755 
L 228.509645 203.563948 
L 229.223885 205.7311 
L 229.938125 213.489102 
L 230.652365 195.920583 
L 231.366605 151.187805 
L 232.080845 212.809466 
L 232.795085 230.230833 
L 233.509325 233.585554 
L 234.223565 190.507535 
L 234.937805 181.886805 
L 235.652045 197.778293 
L 236.366285 203.854385 
L 237.080525 206.457029 
L 237.794765 238.469119 
L 238.509005 227.31809 
L 239.223245 196.843357 
L 239.937485 199.804241 
L 240.651725 199.860796 
L 241.365965 172.8793 
L 242.080205 213.193463 
L 242.794445 212.834411 
L 243.508685 194.66216 
L 244.222925 203.930842 
L 244.937165 225.699357 
L 245.651405 222.236264 
L 246.365645 155.833117 
L 247.079885 190.866822 
L 247.794125 193.156572 
L 248.508365 167.182229 
L 249.222605 184.154889 
L 249.936845 156.883886 
L 250.651085 197.74393 
L 251.365325 203.148168 
L 252.079565 197.057235 
L 252.793805 179.410754 
L 253.508045 190.780083 
L 254.222285 212.305167 
L 254.936525 224.308632 
L 255.650765 239.715699 
L 256.365005 233.547823 
L 257.079245 239.764092 
L 257.793485 226.926632 
L 258.507725 219.659944 
L 259.221965 178.616654 
L 259.936205 185.976945 
L 260.650445 178.530446 
L 261.364685 192.817165 
L 262.078925 222.948499 
L 262.793165 214.490137 
L 263.507405 229.832693 
L 264.221645 233.825609 
L 264.935885 216.870593 
L 265.650125 211.658869 
L 266.364365 240.562279 
L 267.078605 194.110574 
L 267.792845 179.276434 
L 268.507085 210.131416 
L 269.221325 219.04028 
L 269.935565 203.020918 
L 270.649805 192.104817 
L 271.364045 226.240479 
L 272.078285 196.158267 
L 272.792525 181.557943 
L 273.506765 199.049052 
L 274.221005 203.838798 
L 274.935245 237.573856 
L 275.649485 211.487217 
L 276.363725 235.553486 
L 277.077965 239.785492 
L 277.792205 175.906957 
L 278.506445 161.612376 
L 279.220685 166.368033 
L 279.934925 209.418501 
L 280.649165 238.650779 
L 281.363405 244.727468 
L 282.077645 224.094236 
L 282.791885 190.60514 
L 283.506125 177.313731 
L 284.220365 181.813925 
L 284.934605 190.901609 
L 285.648845 229.394181 
L 286.363085 237.436456 
L 287.077325 224.414587 
L 287.791565 222.865176 
L 289.220045 136.535334 
L 289.934285 181.493423 
L 290.648525 186.740396 
L 291.362765 204.09406 
L 292.077005 202.451969 
L 292.791245 218.082122 
L 293.505485 219.736382 
L 294.933965 236.724709 
L 295.648205 217.306434 
L 296.362445 229.77453 
L 297.076685 221.999678 
L 297.790925 223.426251 
L 298.505165 229.059969 
L 299.219405 230.784088 
L 299.933645 189.490395 
L 300.647885 238.85377 
L 301.362125 210.939564 
L 302.076365 163.620339 
L 302.790605 191.551925 
L 303.504845 210.991392 
L 304.219085 176.272378 
L 304.933325 183.634882 
L 305.647565 192.483613 
L 306.361805 187.754582 
L 307.076045 209.504693 
L 307.790285 175.16626 
L 308.504525 206.945146 
L 309.218765 191.527135 
L 309.933005 221.018107 
L 310.647245 231.526045 
L 311.361485 234.08433 
L 312.075725 229.594891 
L 312.789965 216.896831 
L 313.504205 210.658307 
L 314.218445 230.192364 
L 314.932685 197.406898 
L 315.646925 231.291281 
L 316.361165 221.862765 
L 317.075405 228.150001 
L 317.789645 179.289882 
L 318.503885 176.304335 
L 319.932365 226.066166 
L 320.646605 241.654324 
L 321.360845 184.060848 
L 322.075085 189.354536 
L 323.503565 205.395959 
L 324.217805 204.48683 
L 324.932045 239.98934 
L 325.646285 212.825669 
L 326.360525 181.121766 
L 327.074765 162.477574 
L 327.789005 192.789505 
L 328.503245 203.129749 
L 329.217485 199.787469 
L 329.931725 209.458806 
L 330.645965 204.304659 
L 331.360205 238.666825 
L 332.074445 235.191086 
L 332.788685 247.971103 
L 333.502925 247.890972 
L 334.217165 243.740717 
L 334.931405 204.528615 
L 335.645645 211.835454 
L 336.359885 233.256988 
L 337.074125 247.47872 
L 337.788365 230.749036 
L 338.502605 185.005823 
L 339.216845 219.704382 
L 339.931085 207.741027 
L 340.645325 154.315039 
L 341.359565 147.777786 
L 342.073805 194.751647 
L 342.788045 218.746266 
L 343.502285 238.611728 
L 344.216525 206.259632 
L 344.930765 227.118716 
L 345.645005 198.990881 
L 346.359245 181.590614 
L 347.073485 181.148871 
L 347.787725 182.110371 
L 348.501965 170.059425 
L 349.216205 164.527075 
L 349.930445 195.206861 
L 350.644685 194.899986 
L 351.358925 181.19618 
L 352.073165 210.886562 
L 352.787405 227.317834 
L 353.501645 150.835448 
L 354.215885 169.376587 
L 354.930125 195.72596 
L 355.644365 188.551811 
L 356.358605 190.392513 
L 357.072845 186.163421 
L 357.787085 192.328387 
L 358.501325 164.808637 
L 359.215565 184.158619 
L 359.929805 210.888811 
L 360.644045 225.223785 
L 361.358285 228.246439 
L 362.072525 238.361168 
L 362.786765 209.992382 
L 363.501005 223.750727 
L 364.215245 215.167361 
L 364.929485 184.563071 
L 365.643725 201.742862 
L 366.357965 245.885969 
L 367.072205 233.932191 
L 367.786445 236.313711 
L 369.214925 219.18648 
L 369.929165 244.526659 
L 370.643405 183.72311 
L 371.357645 169.03583 
L 372.071885 178.518179 
L 372.786125 222.922723 
L 373.500365 223.048377 
L 374.214605 225.234706 
L 374.928845 225.756811 
L 375.643085 230.165476 
L 376.357325 210.850594 
L 377.071565 176.85753 
L 378.500045 234.205515 
L 379.214285 227.656053 
L 379.928525 197.932901 
L 380.642765 200.703284 
L 381.357005 171.341153 
L 382.071245 167.996592 
L 382.785485 202.717567 
L 383.499725 176.41196 
L 384.213965 158.185505 
L 384.928205 204.618965 
L 385.642445 235.360196 
L 386.356685 228.84182 
L 387.070925 242.829353 
L 387.785165 245.54212 
L 388.499405 244.62577 
L 389.213645 244.106228 
L 389.927885 247.240373 
L 390.642125 241.92432 
L 392.070605 256.997691 
L 392.784845 221.042102 
L 393.499085 194.816844 
L 394.213325 178.631878 
L 394.927565 158.250811 
L 395.641805 186.412372 
L 396.356045 223.70363 
L 397.070285 218.571616 
L 397.784525 204.831168 
L 398.498765 216.732215 
L 399.213005 217.213957 
L 399.927245 182.344251 
L 400.641485 182.916986 
L 401.355725 194.430797 
L 402.069965 236.930861 
L 403.498445 249.989578 
L 404.212685 250.081429 
L 405.641165 160.732301 
L 407.069645 224.02304 
L 407.783885 232.333718 
L 407.783885 232.333718 
" clip-path="url(#pdccea96f89)" style="fill: none; stroke: #1f77b4; stroke-linecap: square"/>
   </g>
   <g id="line2d_43">
    <path d="M 51.378125 28.006752 
L 52.092365 49.866724 
L 52.806605 62.804989 
L 53.520845 72.707361 
L 54.235085 79.01659 
L 54.949325 82.738742 
L 55.663565 84.548227 
L 56.377805 85.994075 
L 57.092045 88.019364 
L 57.806285 89.068415 
L 58.520525 89.536192 
L 59.234765 92.215476 
L 59.949005 93.917809 
L 60.663245 95.083927 
L 61.377485 94.960406 
L 62.091725 96.510823 
L 63.520205 100.464966 
L 64.234445 100.752341 
L 64.948685 101.271573 
L 65.662925 103.602531 
L 66.377165 104.427262 
L 67.091405 106.06779 
L 67.805645 104.42345 
L 68.519885 107.169341 
L 69.234125 108.035344 
L 69.948365 110.152862 
L 70.662605 109.716343 
L 71.376845 111.308951 
L 72.805325 112.439652 
L 73.519565 112.227305 
L 74.233805 116.021946 
L 74.948045 115.290646 
L 75.662285 115.789268 
L 76.376525 118.674706 
L 77.090765 118.760465 
L 77.805005 114.283751 
L 78.519245 119.168639 
L 79.233485 120.454431 
L 79.947725 122.169241 
L 80.661965 125.509244 
L 81.376205 126.187262 
L 82.090445 125.901762 
L 82.804685 128.237155 
L 83.518925 126.65742 
L 84.233165 130.638414 
L 84.947405 129.505317 
L 85.661645 129.582055 
L 86.375885 125.585442 
L 87.090125 123.116561 
L 88.518605 126.455518 
L 89.232845 132.207846 
L 89.947085 134.391835 
L 90.661325 137.444315 
L 91.375565 137.649828 
L 92.089805 135.651026 
L 92.804045 129.96268 
L 93.518285 139.713496 
L 94.232525 141.215394 
L 94.946765 139.286764 
L 95.661005 134.702914 
L 97.089485 143.375225 
L 97.803725 140.868756 
L 98.517965 141.832973 
L 99.232205 139.492364 
L 99.946445 144.310059 
L 100.660685 145.696662 
L 101.374925 141.293133 
L 102.089165 147.358004 
L 102.803405 150.236988 
L 104.231885 152.406519 
L 104.946125 150.468656 
L 105.660365 151.356288 
L 106.374605 148.415543 
L 107.088845 152.098297 
L 107.803085 147.838706 
L 108.517325 139.176658 
L 109.231565 140.457814 
L 109.945805 152.163237 
L 110.660045 151.036585 
L 111.374285 157.868682 
L 112.088525 158.080663 
L 112.802765 153.76255 
L 113.517005 146.853331 
L 114.231245 143.299332 
L 114.945485 141.285591 
L 115.659725 152.950443 
L 116.373965 157.838685 
L 117.088205 161.560477 
L 117.802445 160.094968 
L 118.516685 157.590958 
L 119.230925 156.856866 
L 119.945165 155.302374 
L 121.373645 163.861901 
L 122.087885 163.880451 
L 122.802125 160.983607 
L 123.516365 167.893196 
L 124.230605 168.632399 
L 124.944845 166.600225 
L 125.659085 166.389123 
L 126.373325 145.599206 
L 127.087565 161.672438 
L 127.801805 166.157002 
L 128.516045 166.054875 
L 129.230285 172.271587 
L 129.944525 163.26836 
L 130.658765 165.516368 
L 131.373005 165.238229 
L 132.087245 167.295865 
L 132.801485 170.827979 
L 133.515725 161.949329 
L 134.229965 166.229246 
L 134.944205 159.826632 
L 135.658445 162.374678 
L 136.372685 152.773672 
L 137.086925 168.305077 
L 137.801165 171.515679 
L 138.515405 162.854906 
L 139.229645 170.141073 
L 139.943885 172.451331 
L 140.658125 178.434634 
L 141.372365 169.932076 
L 142.086605 163.801897 
L 142.800845 170.967531 
L 144.229325 155.475965 
L 144.943565 152.791622 
L 145.657805 168.955526 
L 146.372045 180.516856 
L 147.086285 177.287009 
L 147.800525 178.061408 
L 148.514765 174.45291 
L 149.229005 173.392128 
L 150.657485 186.218936 
L 151.371725 176.915207 
L 152.085965 178.502524 
L 153.514445 188.320821 
L 154.228685 188.500723 
L 154.942925 181.206621 
L 155.657165 177.604651 
L 156.371405 162.197943 
L 157.085645 173.858854 
L 157.799885 177.911052 
L 158.514125 180.986158 
L 159.228365 165.524535 
L 159.942605 165.291856 
L 160.656845 182.788153 
L 161.371085 190.050208 
L 162.085325 193.342245 
L 162.799565 190.342433 
L 163.513805 179.833901 
L 164.228045 191.762125 
L 164.942285 196.521623 
L 165.656525 191.653927 
L 166.370765 179.358636 
L 167.085005 178.707353 
L 167.799245 165.962575 
L 168.513485 193.428116 
L 169.227725 195.820384 
L 169.941965 192.875724 
L 170.656205 191.264064 
L 172.084685 199.822247 
L 172.798925 194.341735 
L 173.513165 184.118126 
L 174.227405 195.974486 
L 174.941645 168.422337 
L 175.655885 151.829669 
L 176.370125 176.766941 
L 177.084365 179.710727 
L 177.798605 191.143801 
L 178.512845 186.266782 
L 179.227085 183.552204 
L 179.941325 177.579309 
L 180.655565 198.651086 
L 181.369805 201.187754 
L 182.084045 201.636338 
L 182.798285 205.598029 
L 183.512525 191.447414 
L 184.226765 202.435889 
L 184.941005 201.258307 
L 185.655245 195.030854 
L 186.369485 160.778711 
L 187.083725 168.323039 
L 187.797965 192.907657 
L 188.512205 203.335642 
L 189.226445 203.06152 
L 189.940685 208.964819 
L 191.369165 193.646633 
L 192.083405 188.964621 
L 192.797645 174.097031 
L 193.511885 181.754105 
L 194.226125 197.731207 
L 194.940365 201.640091 
L 195.654605 207.478939 
L 196.368845 211.616643 
L 197.083085 209.641728 
L 197.797325 206.599721 
L 198.511565 211.066477 
L 199.225805 202.768821 
L 199.940045 215.731323 
L 200.654285 210.203222 
L 201.368525 217.02579 
L 202.082765 209.927244 
L 202.797005 198.623524 
L 203.511245 189.977163 
L 204.225485 201.375471 
L 204.939725 197.286079 
L 205.653965 189.411671 
L 206.368205 205.137454 
L 207.082445 196.94004 
L 207.796685 205.42331 
L 208.510925 195.2725 
L 209.225165 176.748079 
L 209.939405 201.295063 
L 210.653645 205.782209 
L 211.367885 202.14684 
L 212.082125 200.101012 
L 212.796365 192.307565 
L 213.510605 208.651996 
L 214.224845 193.01702 
L 214.939085 188.118132 
L 215.653325 218.08852 
L 216.367565 225.111687 
L 217.081805 215.055697 
L 217.796045 216.460819 
L 218.510285 208.540583 
L 219.224525 195.796704 
L 219.938765 195.697623 
L 220.653005 185.384892 
L 221.367245 192.77086 
L 222.081485 195.514434 
L 222.795725 215.066498 
L 223.509965 185.114506 
L 224.224205 174.677637 
L 224.938445 203.03979 
L 225.652685 217.84444 
L 226.366925 225.243095 
L 227.081165 225.721738 
L 227.795405 216.8312 
L 228.509645 203.004628 
L 229.223885 218.005956 
L 229.938125 206.937243 
L 230.652365 225.413316 
L 231.366605 224.202743 
L 232.080845 217.453787 
L 232.795085 229.275646 
L 233.509325 228.005195 
L 234.223565 215.31754 
L 234.937805 213.768175 
L 235.652045 196.217359 
L 236.366285 204.39095 
L 237.080525 204.363071 
L 237.794765 229.388928 
L 238.509005 217.222171 
L 239.223245 174.320047 
L 239.937485 184.234405 
L 240.651725 186.372023 
L 241.365965 199.273203 
L 242.080205 229.377795 
L 242.794445 223.250915 
L 243.508685 219.434009 
L 244.222925 224.205193 
L 244.937165 217.475315 
L 245.651405 225.604066 
L 246.365645 232.442556 
L 247.079885 228.908217 
L 247.794125 189.800422 
L 248.508365 225.135225 
L 249.222605 234.915116 
L 249.936845 229.033557 
L 250.651085 225.828366 
L 251.365325 190.053108 
L 252.079565 167.257879 
L 252.793805 208.868769 
L 253.508045 225.147621 
L 254.222285 208.340106 
L 254.936525 228.408087 
L 255.650765 239.592823 
L 256.365005 224.85562 
L 257.079245 232.018052 
L 257.793485 226.651533 
L 258.507725 229.828443 
L 259.221965 207.91725 
L 259.936205 198.501062 
L 260.650445 222.082426 
L 261.364685 205.011945 
L 262.078925 197.640992 
L 262.793165 205.633437 
L 263.507405 209.279662 
L 264.221645 242.196687 
L 264.935885 232.83874 
L 265.650125 229.773031 
L 266.364365 234.89282 
L 267.078605 238.739024 
L 268.507085 198.040583 
L 269.221325 198.121418 
L 269.935565 210.926662 
L 270.649805 239.481448 
L 271.364045 234.461095 
L 272.078285 232.103794 
L 272.792525 221.501236 
L 273.506765 228.406624 
L 274.221005 248.631233 
L 274.935245 239.577993 
L 275.649485 240.895353 
L 276.363725 214.370521 
L 277.077965 220.857711 
L 277.792205 211.033544 
L 278.506445 179.951947 
L 279.220685 154.161667 
L 279.934925 154.657482 
L 280.649165 207.337079 
L 281.363405 209.566851 
L 282.077645 185.736405 
L 282.791885 199.468633 
L 283.506125 225.181146 
L 284.220365 217.994918 
L 284.934605 225.271892 
L 285.648845 230.877861 
L 286.363085 242.312883 
L 287.077325 248.110097 
L 288.505805 222.770078 
L 289.220045 198.977763 
L 289.934285 200.020883 
L 290.648525 220.284811 
L 291.362765 233.559153 
L 292.077005 214.16225 
L 293.505485 200.954216 
L 294.219725 209.708289 
L 294.933965 241.779583 
L 295.648205 234.616397 
L 296.362445 236.054335 
L 297.790925 218.794964 
L 298.505165 162.203697 
L 299.219405 196.371538 
L 299.933645 185.852366 
L 300.647885 221.448959 
L 301.362125 226.977314 
L 302.076365 243.872147 
L 302.790605 196.368224 
L 303.504845 226.264822 
L 304.219085 241.949804 
L 304.933325 230.279113 
L 305.647565 206.242337 
L 306.361805 222.233261 
L 307.076045 227.385812 
L 307.790285 195.598762 
L 308.504525 197.760775 
L 309.218765 213.355606 
L 309.933005 222.052508 
L 310.647245 247.668817 
L 311.361485 204.764101 
L 312.789965 254.490534 
L 313.504205 255.669163 
L 314.218445 260.804349 
L 314.932685 261.216 
L 315.646925 167.776354 
L 316.361165 139.015771 
L 317.075405 149.628366 
L 317.789645 179.534888 
L 318.503885 199.758068 
L 319.218125 196.935417 
L 319.932365 205.371164 
L 320.646605 211.884669 
L 321.360845 221.350243 
L 322.075085 191.850452 
L 322.789325 192.195685 
L 323.503565 195.274012 
L 324.217805 187.205861 
L 324.932045 191.73546 
L 325.646285 221.130624 
L 326.360525 222.093841 
L 327.074765 199.974551 
L 327.789005 169.08049 
L 328.503245 166.014646 
L 329.217485 163.450608 
L 329.931725 174.4271 
L 330.645965 207.689288 
L 331.360205 221.783186 
L 332.074445 219.854925 
L 332.788685 233.398429 
L 333.502925 229.630869 
L 334.217165 237.203892 
L 334.931405 224.027052 
L 335.645645 230.098154 
L 336.359885 232.726212 
L 337.074125 211.102558 
L 337.788365 158.764177 
L 339.216845 184.892397 
L 339.931085 210.890644 
L 340.645325 213.697107 
L 341.359565 196.895934 
L 342.073805 197.828499 
L 342.788045 178.15318 
L 343.502285 142.344154 
L 344.930765 176.055013 
L 345.645005 209.36475 
L 346.359245 221.734675 
L 347.073485 220.846673 
L 347.787725 228.542602 
L 348.501965 222.393266 
L 349.216205 198.069267 
L 349.930445 205.016068 
L 350.644685 223.861044 
L 351.358925 218.422794 
L 352.073165 231.669136 
L 352.787405 180.511968 
L 354.215885 201.876744 
L 354.930125 229.999407 
L 355.644365 228.388692 
L 356.358605 222.680925 
L 357.072845 234.392094 
L 357.787085 208.514456 
L 358.501325 239.812602 
L 359.215565 235.095521 
L 359.929805 213.401536 
L 360.644045 220.97971 
L 361.358285 232.012237 
L 362.072525 240.401149 
L 362.786765 244.176753 
L 363.501005 247.337966 
L 364.215245 241.760626 
L 364.929485 234.722617 
L 365.643725 221.08629 
L 366.357965 241.743502 
L 367.072205 244.247021 
L 367.786445 241.226033 
L 368.500685 204.293495 
L 369.214925 216.679674 
L 369.929165 223.764156 
L 370.643405 214.282917 
L 372.071885 223.484365 
L 372.786125 189.80677 
L 373.500365 210.805658 
L 374.214605 226.473833 
L 374.928845 209.908791 
L 375.643085 198.846913 
L 376.357325 179.756492 
L 377.071565 181.981189 
L 377.785805 218.855274 
L 378.500045 213.817538 
L 379.214285 245.277774 
L 379.928525 245.055189 
L 380.642765 243.006522 
L 381.357005 230.97044 
L 382.071245 205.905705 
L 382.785485 246.743172 
L 383.499725 236.920301 
L 384.213965 234.919445 
L 384.928205 230.967552 
L 385.642445 238.954037 
L 386.356685 232.669587 
L 387.070925 253.163915 
L 387.785165 249.111234 
L 388.499405 243.392866 
L 389.213645 227.016503 
L 389.927885 245.422665 
L 390.642125 243.882967 
L 391.356365 255.164072 
L 392.070605 246.83414 
L 392.784845 253.670578 
L 393.499085 241.528139 
L 394.213325 249.625132 
L 394.927565 237.676708 
L 395.641805 212.33265 
L 396.356045 201.120267 
L 397.070285 171.428271 
L 397.784525 171.933134 
L 398.498765 200.291364 
L 399.213005 238.859643 
L 399.927245 233.955941 
L 400.641485 237.988474 
L 401.355725 244.191078 
L 402.069965 232.755127 
L 402.784205 229.091482 
L 403.498445 211.686915 
L 404.212685 205.398891 
L 404.926925 210.12594 
L 405.641165 211.770751 
L 406.355405 215.683782 
L 407.069645 230.277404 
L 407.783885 214.165388 
L 407.783885 214.165388 
" clip-path="url(#pdccea96f89)" style="fill: none; stroke: #ff7f0e; stroke-linecap: square"/>
   </g>
   <g id="line2d_44">
    <path d="M 51.378125 21.400688 
L 53.520845 37.475725 
L 55.663565 55.554968 
L 56.377805 59.118934 
L 57.092045 60.933908 
L 57.806285 63.754473 
L 59.234765 70.262592 
L 61.377485 77.890307 
L 62.091725 79.545694 
L 62.805965 80.777535 
L 64.948685 83.139011 
L 65.662925 83.700977 
L 67.091405 85.189901 
L 68.519885 86.630482 
L 69.234125 87.092614 
L 70.662605 88.616052 
L 74.233805 91.347373 
L 75.662285 92.328164 
L 76.376525 93.248982 
L 78.519245 95.112445 
L 79.947725 96.02804 
L 80.661965 95.660174 
L 82.090445 96.263128 
L 82.804685 97.473823 
L 83.518925 97.637616 
L 84.233165 98.657641 
L 84.947405 99.141762 
L 86.375885 100.601029 
L 87.804365 101.000275 
L 88.518605 102.008837 
L 89.232845 102.317695 
L 89.947085 102.85472 
L 90.661325 103.241104 
L 91.375565 103.865333 
L 92.089805 104.044106 
L 92.804045 104.653701 
L 93.518285 105.07329 
L 94.946765 106.079884 
L 95.661005 106.432991 
L 96.375245 106.605793 
L 97.089485 106.913777 
L 98.517965 108.254972 
L 99.946445 108.606928 
L 100.660685 108.779094 
L 101.374925 107.844632 
L 102.089165 109.695988 
L 102.803405 110.575352 
L 103.517645 110.06629 
L 104.946125 110.070673 
L 105.660365 109.377767 
L 106.374605 111.693149 
L 107.088845 113.006266 
L 107.803085 113.299457 
L 108.517325 113.714705 
L 109.231565 113.340496 
L 109.945805 114.579682 
L 110.660045 114.732602 
L 111.374285 115.085401 
L 112.088525 114.862109 
L 112.802765 115.240051 
L 114.231245 116.675404 
L 114.945485 116.550378 
L 115.659725 117.019535 
L 116.373965 116.818968 
L 117.088205 117.511808 
L 117.802445 118.038134 
L 118.516685 118.02464 
L 119.230925 117.889673 
L 120.659405 117.862101 
L 121.373645 118.104528 
L 122.087885 119.452114 
L 122.802125 119.595596 
L 123.516365 119.374622 
L 124.230605 120.674053 
L 124.944845 121.103363 
L 125.659085 121.16445 
L 126.373325 121.550986 
L 127.087565 122.59483 
L 127.801805 122.513746 
L 128.516045 122.856341 
L 129.230285 123.489728 
L 130.658765 123.916936 
L 131.373005 123.434811 
L 132.087245 122.090586 
L 133.515725 123.608246 
L 134.229965 122.398432 
L 134.944205 125.02331 
L 135.658445 124.88867 
L 136.372685 126.220252 
L 137.086925 124.907093 
L 137.801165 124.540285 
L 138.515405 123.107555 
L 139.229645 125.241671 
L 139.943885 124.686335 
L 140.658125 122.718332 
L 141.372365 119.367699 
L 142.086605 125.02555 
L 142.800845 124.72991 
L 143.515085 125.793299 
L 144.229325 128.538382 
L 144.943565 128.757879 
L 145.657805 127.183795 
L 146.372045 127.534263 
L 147.086285 129.593281 
L 147.800525 128.565803 
L 148.514765 129.073461 
L 149.229005 130.449528 
L 149.943245 130.79794 
L 151.371725 131.826726 
L 152.800205 131.732954 
L 153.514445 131.301189 
L 155.657165 133.389208 
L 156.371405 133.750283 
L 157.085645 133.840766 
L 157.799885 134.2122 
L 158.514125 134.178471 
L 159.228365 133.724204 
L 159.942605 134.471822 
L 160.656845 133.7228 
L 161.371085 131.576553 
L 162.085325 131.033851 
L 163.513805 133.73831 
L 164.228045 133.63346 
L 164.942285 133.885736 
L 166.370765 136.393967 
L 167.085005 136.029698 
L 167.799245 136.678974 
L 168.513485 137.65678 
L 169.227725 136.933889 
L 169.941965 135.856352 
L 170.656205 137.348764 
L 171.370445 137.665378 
L 172.084685 137.709643 
L 172.798925 136.511053 
L 173.513165 138.93692 
L 174.941645 139.390118 
L 175.655885 139.372704 
L 176.370125 139.722901 
L 177.084365 140.538287 
L 177.798605 139.474758 
L 178.512845 139.114513 
L 179.227085 135.914237 
L 179.941325 137.308573 
L 180.655565 137.659483 
L 181.369805 139.904591 
L 182.084045 139.433934 
L 182.798285 141.651652 
L 183.512525 142.128023 
L 184.226765 140.846257 
L 184.941005 141.130124 
L 185.655245 139.818226 
L 186.369485 139.258688 
L 187.083725 142.884318 
L 187.797965 143.509855 
L 189.226445 143.490655 
L 189.940685 142.239185 
L 190.654925 142.951749 
L 191.369165 142.226898 
L 192.083405 142.877074 
L 192.797645 145.314685 
L 193.511885 145.011482 
L 194.226125 146.053021 
L 194.940365 144.805655 
L 195.654605 145.647947 
L 196.368845 146.86944 
L 197.083085 145.73208 
L 197.797325 145.119748 
L 198.511565 142.224925 
L 199.225805 142.69207 
L 199.940045 140.197487 
L 200.654285 142.739363 
L 201.368525 142.819048 
L 202.082765 144.163909 
L 202.797005 144.443696 
L 204.225485 147.316494 
L 204.939725 148.47716 
L 205.653965 147.883943 
L 206.368205 147.081165 
L 207.082445 147.873701 
L 207.796685 149.467488 
L 208.510925 147.630957 
L 209.225165 148.809128 
L 209.939405 150.407885 
L 210.653645 150.254335 
L 211.367885 148.786082 
L 212.082125 149.628865 
L 212.796365 146.651431 
L 213.510605 145.660209 
L 214.224845 141.483496 
L 214.939085 144.292851 
L 215.653325 149.238816 
L 216.367565 151.897114 
L 217.081805 153.017263 
L 217.796045 153.244265 
L 218.510285 148.206278 
L 219.224525 146.67525 
L 220.653005 154.643639 
L 221.367245 153.662299 
L 222.081485 150.791326 
L 222.795725 152.093268 
L 223.509965 151.191939 
L 224.224205 153.649287 
L 224.938445 151.731322 
L 225.652685 151.736053 
L 226.366925 150.49421 
L 227.081165 152.817395 
L 227.795405 151.245362 
L 228.509645 153.594985 
L 229.223885 155.219279 
L 229.938125 156.018759 
L 230.652365 154.763337 
L 231.366605 152.086103 
L 232.080845 148.858663 
L 232.795085 154.817524 
L 233.509325 153.314736 
L 234.223565 153.481982 
L 234.937805 158.070916 
L 235.652045 154.322195 
L 236.366285 153.040874 
L 237.794765 155.683431 
L 238.509005 155.937326 
L 239.223245 156.403108 
L 239.937485 156.589101 
L 240.651725 155.784572 
L 241.365965 157.488529 
L 242.080205 154.904862 
L 242.794445 149.634826 
L 243.508685 155.875166 
L 244.222925 155.464721 
L 244.937165 158.038137 
L 245.651405 159.916863 
L 246.365645 159.531181 
L 247.079885 158.877032 
L 247.794125 161.386147 
L 248.508365 162.251888 
L 249.222605 162.127033 
L 249.936845 159.231989 
L 250.651085 157.332755 
L 251.365325 151.491574 
L 252.079565 147.663382 
L 252.793805 150.234651 
L 253.508045 151.705347 
L 254.222285 153.615133 
L 254.936525 149.964313 
L 255.650765 153.958674 
L 256.365005 154.313559 
L 257.079245 158.350479 
L 257.793485 161.105866 
L 259.221965 164.025457 
L 259.936205 158.815218 
L 261.364685 153.175353 
L 262.078925 163.061537 
L 263.507405 152.101189 
L 264.221645 159.773332 
L 264.935885 159.544809 
L 265.650125 160.54126 
L 266.364365 163.356493 
L 267.078605 161.043818 
L 267.792845 161.596674 
L 268.507085 160.664267 
L 269.935565 165.011959 
L 270.649805 165.456698 
L 271.364045 161.285715 
L 272.078285 156.226205 
L 272.792525 160.551325 
L 273.506765 167.668487 
L 274.221005 167.197719 
L 274.935245 168.629007 
L 275.649485 166.351764 
L 276.363725 166.231819 
L 277.077965 166.491203 
L 277.792205 167.331888 
L 278.506445 167.950245 
L 279.220685 167.215983 
L 279.934925 167.359977 
L 280.649165 168.907737 
L 281.363405 168.78669 
L 282.077645 165.29002 
L 283.506125 170.229759 
L 284.220365 168.470312 
L 284.934605 168.699592 
L 285.648845 169.684895 
L 286.363085 169.225039 
L 287.791565 169.545295 
L 288.505805 170.170317 
L 289.220045 172.532235 
L 289.934285 172.387777 
L 290.648525 172.386925 
L 291.362765 172.941464 
L 292.077005 172.130785 
L 292.791245 172.792022 
L 293.505485 166.813856 
L 294.219725 166.122444 
L 294.933965 159.995389 
L 295.648205 160.215743 
L 296.362445 159.404107 
L 297.076685 157.138498 
L 297.790925 164.098135 
L 298.505165 168.313203 
L 299.219405 169.805791 
L 299.933645 165.1921 
L 300.647885 166.157652 
L 301.362125 169.11314 
L 302.076365 169.659935 
L 302.790605 167.631262 
L 303.504845 161.470167 
L 304.219085 164.238567 
L 304.933325 168.561156 
L 305.647565 170.636984 
L 306.361805 169.361515 
L 307.790285 160.05698 
L 308.504525 167.819711 
L 309.933005 173.478654 
L 310.647245 174.149001 
L 311.361485 171.328049 
L 312.075725 169.667496 
L 312.789965 177.877723 
L 313.504205 178.183024 
L 314.218445 177.548685 
L 314.932685 178.996478 
L 315.646925 177.6327 
L 316.361165 176.718439 
L 317.789645 172.165237 
L 318.503885 160.817208 
L 319.218125 156.47122 
L 319.932365 159.511727 
L 320.646605 173.562305 
L 321.360845 176.148694 
L 322.075085 173.91913 
L 322.789325 172.085264 
L 323.503565 176.298892 
L 324.217805 179.349152 
L 324.932045 181.298273 
L 325.646285 175.046523 
L 326.360525 179.207587 
L 327.789005 164.841739 
L 328.503245 171.605748 
L 329.217485 172.291146 
L 329.931725 159.497383 
L 330.645965 160.343548 
L 331.360205 165.787125 
L 332.074445 166.080451 
L 332.788685 168.277386 
L 333.502925 172.445476 
L 334.217165 179.909548 
L 334.931405 177.834353 
L 335.645645 178.337985 
L 336.359885 182.193378 
L 337.074125 182.36582 
L 337.788365 182.417555 
L 339.216845 178.231305 
L 339.931085 182.543828 
L 340.645325 176.404308 
L 341.359565 175.497971 
L 342.073805 179.97339 
L 342.788045 179.608596 
L 343.502285 178.424754 
L 344.216525 185.454858 
L 344.930765 184.071011 
L 345.645005 186.209405 
L 346.359245 182.648163 
L 347.073485 185.416697 
L 347.787725 184.023658 
L 348.501965 175.358102 
L 349.216205 178.498498 
L 349.930445 182.301291 
L 350.644685 184.503678 
L 351.358925 182.717454 
L 352.073165 173.553699 
L 352.787405 173.283229 
L 353.501645 177.167221 
L 354.215885 184.718791 
L 354.930125 186.638948 
L 355.644365 181.905598 
L 356.358605 180.034466 
L 357.072845 183.527037 
L 357.787085 183.038714 
L 358.501325 178.567374 
L 359.215565 184.337405 
L 359.929805 188.642108 
L 360.644045 189.626839 
L 361.358285 185.690441 
L 362.072525 185.47834 
L 362.786765 182.370905 
L 363.501005 189.785524 
L 364.929485 188.383722 
L 365.643725 186.345905 
L 367.072205 179.796658 
L 367.786445 172.990814 
L 368.500685 168.427882 
L 369.214925 176.272265 
L 369.929165 171.612172 
L 370.643405 161.569873 
L 371.357645 157.816292 
L 372.071885 161.91146 
L 372.786125 174.523649 
L 373.500365 175.522677 
L 374.214605 179.615981 
L 375.643085 190.469067 
L 376.357325 189.950408 
L 377.071565 189.785425 
L 378.500045 193.106807 
L 379.214285 191.926694 
L 379.928525 187.857735 
L 380.642765 190.490553 
L 381.357005 189.304794 
L 382.071245 181.772109 
L 382.785485 183.743972 
L 383.499725 180.322629 
L 384.213965 180.090164 
L 384.928205 178.832441 
L 385.642445 184.657654 
L 386.356685 185.024482 
L 387.070925 184.490403 
L 387.785165 187.522935 
L 388.499405 188.749393 
L 389.213645 190.933681 
L 389.927885 183.363582 
L 390.642125 192.991983 
L 391.356365 196.168357 
L 392.070605 188.447066 
L 392.784845 192.201944 
L 393.499085 193.220106 
L 394.213325 187.590216 
L 394.927565 176.740888 
L 395.641805 187.495419 
L 396.356045 196.472281 
L 397.070285 192.960082 
L 397.784525 195.712336 
L 398.498765 196.984936 
L 399.213005 195.885976 
L 399.927245 198.679961 
L 400.641485 199.489542 
L 401.355725 195.988067 
L 402.069965 194.231304 
L 402.784205 197.220671 
L 403.498445 199.195302 
L 404.212685 199.595746 
L 404.926925 195.76121 
L 405.641165 197.103844 
L 406.355405 191.909472 
L 407.069645 191.680609 
L 407.783885 189.074821 
L 407.783885 189.074821 
" clip-path="url(#pdccea96f89)" style="fill: none; stroke: #2ca02c; stroke-linecap: square"/>
   </g>
   <g id="line2d_45">
    <path d="M 51.378125 19.296 
L 54.235085 24.740099 
L 58.520525 32.387523 
L 60.663245 36.760028 
L 65.662925 47.905607 
L 68.519885 54.07445 
L 69.948365 56.60079 
L 71.376845 58.435934 
L 72.091085 59.082521 
L 73.519565 59.990006 
L 74.948045 60.879342 
L 76.376525 62.137363 
L 78.519245 64.593785 
L 82.804685 69.653069 
L 89.232845 76.214262 
L 91.375565 78.082618 
L 92.804045 79.062272 
L 94.946765 80.192175 
L 97.089485 80.975398 
L 104.946125 83.454382 
L 108.517325 84.505697 
L 111.374285 85.330975 
L 122.087885 88.369542 
L 135.658445 92.5488 
L 147.800525 96.367835 
L 168.513485 102.912102 
L 196.368845 111.46203 
L 207.082445 114.615208 
L 208.510925 114.716703 
L 209.225165 114.765307 
L 210.653645 115.665089 
L 211.367885 115.775396 
L 212.082125 115.751726 
L 212.796365 116.021609 
L 213.510605 116.422029 
L 215.653325 116.85313 
L 216.367565 117.166048 
L 217.796045 117.359013 
L 219.224525 117.885264 
L 220.653005 118.118091 
L 222.081485 118.595487 
L 224.224205 119.059796 
L 225.652685 119.461415 
L 227.795405 119.955811 
L 229.938125 120.479938 
L 233.509325 121.367802 
L 244.222925 123.706444 
L 245.651405 123.622353 
L 246.365645 123.419293 
L 247.079885 123.504209 
L 247.794125 124.00545 
L 248.508365 124.724884 
L 249.222605 124.951448 
L 249.936845 124.721247 
L 250.651085 124.688298 
L 252.079565 125.575518 
L 252.793805 125.637997 
L 253.508045 125.508661 
L 254.222285 125.67235 
L 254.936525 126.075113 
L 255.650765 126.324135 
L 257.079245 126.323608 
L 259.221965 127.025236 
L 260.650445 127.143937 
L 262.793165 127.750543 
L 264.221645 127.912496 
L 267.078605 128.605206 
L 269.221325 128.960194 
L 272.792525 129.737043 
L 279.934925 130.82279 
L 283.506125 131.219661 
L 284.934605 131.823484 
L 286.363085 132.356277 
L 287.791565 132.506401 
L 289.934285 132.598863 
L 291.362765 132.893715 
L 294.933965 133.919878 
L 297.076685 134.164356 
L 298.505165 134.20612 
L 299.933645 134.032977 
L 301.362125 133.763938 
L 302.076365 133.918251 
L 302.790605 134.311023 
L 304.219085 135.48818 
L 304.933325 135.660423 
L 307.076045 135.3473 
L 307.790285 135.588961 
L 309.218765 136.362718 
L 309.933005 136.516715 
L 312.075725 136.461907 
L 312.789965 136.598006 
L 314.932685 137.349631 
L 316.361165 137.545171 
L 319.218125 137.721804 
L 321.360845 138.165547 
L 325.646285 139.135511 
L 332.074445 140.197914 
L 333.502925 140.327661 
L 334.217165 140.251793 
L 334.931405 139.903172 
L 335.645645 138.83766 
L 336.359885 136.726753 
L 337.074125 133.181554 
L 337.788365 132.896004 
L 339.216845 141.320093 
L 339.931085 138.211215 
L 340.645325 135.762094 
L 341.359565 140.126318 
L 342.073805 141.035952 
L 342.788045 137.835604 
L 344.216525 141.926103 
L 344.930765 139.647287 
L 345.645005 140.409882 
L 346.359245 142.299855 
L 347.073485 140.932562 
L 347.787725 141.028422 
L 348.501965 142.562006 
L 349.216205 141.850616 
L 349.930445 141.6257 
L 350.644685 142.799758 
L 352.073165 142.168432 
L 352.787405 143.02021 
L 353.501645 143.09835 
L 354.215885 142.690641 
L 354.930125 143.234745 
L 355.644365 143.547291 
L 356.358605 143.203136 
L 357.072845 143.465552 
L 357.787085 143.896409 
L 358.501325 143.709783 
L 359.215565 143.743089 
L 359.929805 144.16262 
L 360.644045 144.185438 
L 361.358285 144.090827 
L 362.786765 144.588266 
L 363.501005 144.519781 
L 364.215245 144.633195 
L 364.929485 144.888696 
L 367.072205 145.132896 
L 367.786445 145.304115 
L 369.214925 145.402837 
L 370.643405 145.70266 
L 372.071885 145.84534 
L 373.500365 146.107158 
L 374.928845 146.270262 
L 377.071565 146.591981 
L 391.356365 148.648067 
L 407.783885 151.002445 
L 407.783885 151.002445 
" clip-path="url(#pdccea96f89)" style="fill: none; stroke: #d62728; stroke-linecap: square"/>
   </g>
   <g id="patch_3">
    <path d="M 51.378125 273.312 
L 51.378125 7.2 
" style="fill: none; stroke: #000000; stroke-width: 0.8; stroke-linejoin: miter; stroke-linecap: square"/>
   </g>
   <g id="patch_4">
    <path d="M 408.498125 273.312 
L 408.498125 7.2 
" style="fill: none; stroke: #000000; stroke-width: 0.8; stroke-linejoin: miter; stroke-linecap: square"/>
   </g>
   <g id="patch_5">
    <path d="M 51.378125 273.312 
L 408.498125 273.312 
" style="fill: none; stroke: #000000; stroke-width: 0.8; stroke-linejoin: miter; stroke-linecap: square"/>
   </g>
   <g id="patch_6">
    <path d="M 51.378125 7.2 
L 408.498125 7.2 
" style="fill: none; stroke: #000000; stroke-width: 0.8; stroke-linejoin: miter; stroke-linecap: square"/>
   </g>
   <g id="legend_1">
    <g id="patch_7">
     <path d="M 295.729375 73.9125 
L 401.498125 73.9125 
Q 403.498125 73.9125 403.498125 71.9125 
L 403.498125 14.2 
Q 403.498125 12.2 401.498125 12.2 
L 295.729375 12.2 
Q 293.729375 12.2 293.729375 14.2 
L 293.729375 71.9125 
Q 293.729375 73.9125 295.729375 73.9125 
z
" style="fill: #ffffff; opacity: 0.8; stroke: #cccccc; stroke-linejoin: miter"/>
    </g>
    <g id="line2d_46">
     <path d="M 297.729375 20.298437 
L 307.729375 20.298437 
L 317.729375 20.298437 
" style="fill: none; stroke: #1f77b4; stroke-linecap: square"/>
    </g>
    <g id="text_13">
     <!-- 64, T=27.37s -->
     <g transform="translate(325.729375 23.798437) scale(0.1 -0.1)">
      <defs>
       <path id="DejaVuSans-36" d="M 2113 2584 
Q 1688 2584 1439 2293 
Q 1191 2003 1191 1497 
Q 1191 994 1439 701 
Q 1688 409 2113 409 
Q 2538 409 2786 701 
Q 3034 994 3034 1497 
Q 3034 2003 2786 2293 
Q 2538 2584 2113 2584 
z
M 3366 4563 
L 3366 3988 
Q 3128 4100 2886 4159 
Q 2644 4219 2406 4219 
Q 1781 4219 1451 3797 
Q 1122 3375 1075 2522 
Q 1259 2794 1537 2939 
Q 1816 3084 2150 3084 
Q 2853 3084 3261 2657 
Q 3669 2231 3669 1497 
Q 3669 778 3244 343 
Q 2819 -91 2113 -91 
Q 1303 -91 875 529 
Q 447 1150 447 2328 
Q 447 3434 972 4092 
Q 1497 4750 2381 4750 
Q 2619 4750 2861 4703 
Q 3103 4656 3366 4563 
z
" transform="scale(0.015625)"/>
       <path id="DejaVuSans-2c" d="M 750 794 
L 1409 794 
L 1409 256 
L 897 -744 
L 494 -744 
L 750 256 
L 750 794 
z
" transform="scale(0.015625)"/>
       <path id="DejaVuSans-20" transform="scale(0.015625)"/>
       <path id="DejaVuSans-54" d="M -19 4666 
L 3928 4666 
L 3928 4134 
L 2272 4134 
L 2272 0 
L 1638 0 
L 1638 4134 
L -19 4134 
L -19 4666 
z
" transform="scale(0.015625)"/>
       <path id="DejaVuSans-3d" d="M 678 2906 
L 4684 2906 
L 4684 2381 
L 678 2381 
L 678 2906 
z
M 678 1631 
L 4684 1631 
L 4684 1100 
L 678 1100 
L 678 1631 
z
" transform="scale(0.015625)"/>
       <path id="DejaVuSans-37" d="M 525 4666 
L 3525 4666 
L 3525 4397 
L 1831 0 
L 1172 0 
L 2766 4134 
L 525 4134 
L 525 4666 
z
" transform="scale(0.015625)"/>
       <path id="DejaVuSans-2e" d="M 684 794 
L 1344 794 
L 1344 0 
L 684 0 
L 684 794 
z
" transform="scale(0.015625)"/>
       <path id="DejaVuSans-73" d="M 2834 3397 
L 2834 2853 
Q 2591 2978 2328 3040 
Q 2066 3103 1784 3103 
Q 1356 3103 1142 2972 
Q 928 2841 928 2578 
Q 928 2378 1081 2264 
Q 1234 2150 1697 2047 
L 1894 2003 
Q 2506 1872 2764 1633 
Q 3022 1394 3022 966 
Q 3022 478 2636 193 
Q 2250 -91 1575 -91 
Q 1294 -91 989 -36 
Q 684 19 347 128 
L 347 722 
Q 666 556 975 473 
Q 1284 391 1588 391 
Q 1994 391 2212 530 
Q 2431 669 2431 922 
Q 2431 1156 2273 1281 
Q 2116 1406 1581 1522 
L 1381 1569 
Q 847 1681 609 1914 
Q 372 2147 372 2553 
Q 372 3047 722 3315 
Q 1072 3584 1716 3584 
Q 2034 3584 2315 3537 
Q 2597 3491 2834 3397 
z
" transform="scale(0.015625)"/>
      </defs>
      <use xlink:href="#DejaVuSans-36"/>
      <use xlink:href="#DejaVuSans-34" x="63.623047"/>
      <use xlink:href="#DejaVuSans-2c" x="127.246094"/>
      <use xlink:href="#DejaVuSans-20" x="159.033203"/>
      <use xlink:href="#DejaVuSans-54" x="190.820312"/>
      <use xlink:href="#DejaVuSans-3d" x="251.904297"/>
      <use xlink:href="#DejaVuSans-32" x="335.693359"/>
      <use xlink:href="#DejaVuSans-37" x="399.316406"/>
      <use xlink:href="#DejaVuSans-2e" x="462.939453"/>
      <use xlink:href="#DejaVuSans-33" x="494.726562"/>
      <use xlink:href="#DejaVuSans-37" x="558.349609"/>
      <use xlink:href="#DejaVuSans-73" x="621.972656"/>
     </g>
    </g>
    <g id="line2d_47">
     <path d="M 297.729375 34.976562 
L 307.729375 34.976562 
L 317.729375 34.976562 
" style="fill: none; stroke: #ff7f0e; stroke-linecap: square"/>
    </g>
    <g id="text_14">
     <!-- 128, T=17.90s -->
     <g transform="translate(325.729375 38.476562) scale(0.1 -0.1)">
      <defs>
       <path id="DejaVuSans-38" d="M 2034 2216 
Q 1584 2216 1326 1975 
Q 1069 1734 1069 1313 
Q 1069 891 1326 650 
Q 1584 409 2034 409 
Q 2484 409 2743 651 
Q 3003 894 3003 1313 
Q 3003 1734 2745 1975 
Q 2488 2216 2034 2216 
z
M 1403 2484 
Q 997 2584 770 2862 
Q 544 3141 544 3541 
Q 544 4100 942 4425 
Q 1341 4750 2034 4750 
Q 2731 4750 3128 4425 
Q 3525 4100 3525 3541 
Q 3525 3141 3298 2862 
Q 3072 2584 2669 2484 
Q 3125 2378 3379 2068 
Q 3634 1759 3634 1313 
Q 3634 634 3220 271 
Q 2806 -91 2034 -91 
Q 1263 -91 848 271 
Q 434 634 434 1313 
Q 434 1759 690 2068 
Q 947 2378 1403 2484 
z
M 1172 3481 
Q 1172 3119 1398 2916 
Q 1625 2713 2034 2713 
Q 2441 2713 2670 2916 
Q 2900 3119 2900 3481 
Q 2900 3844 2670 4047 
Q 2441 4250 2034 4250 
Q 1625 4250 1398 4047 
Q 1172 3844 1172 3481 
z
" transform="scale(0.015625)"/>
       <path id="DejaVuSans-39" d="M 703 97 
L 703 672 
Q 941 559 1184 500 
Q 1428 441 1663 441 
Q 2288 441 2617 861 
Q 2947 1281 2994 2138 
Q 2813 1869 2534 1725 
Q 2256 1581 1919 1581 
Q 1219 1581 811 2004 
Q 403 2428 403 3163 
Q 403 3881 828 4315 
Q 1253 4750 1959 4750 
Q 2769 4750 3195 4129 
Q 3622 3509 3622 2328 
Q 3622 1225 3098 567 
Q 2575 -91 1691 -91 
Q 1453 -91 1209 -44 
Q 966 3 703 97 
z
M 1959 2075 
Q 2384 2075 2632 2365 
Q 2881 2656 2881 3163 
Q 2881 3666 2632 3958 
Q 2384 4250 1959 4250 
Q 1534 4250 1286 3958 
Q 1038 3666 1038 3163 
Q 1038 2656 1286 2365 
Q 1534 2075 1959 2075 
z
" transform="scale(0.015625)"/>
      </defs>
      <use xlink:href="#DejaVuSans-31"/>
      <use xlink:href="#DejaVuSans-32" x="63.623047"/>
      <use xlink:href="#DejaVuSans-38" x="127.246094"/>
      <use xlink:href="#DejaVuSans-2c" x="190.869141"/>
      <use xlink:href="#DejaVuSans-20" x="222.65625"/>
      <use xlink:href="#DejaVuSans-54" x="254.443359"/>
      <use xlink:href="#DejaVuSans-3d" x="315.527344"/>
      <use xlink:href="#DejaVuSans-31" x="399.316406"/>
      <use xlink:href="#DejaVuSans-37" x="462.939453"/>
      <use xlink:href="#DejaVuSans-2e" x="526.5625"/>
      <use xlink:href="#DejaVuSans-39" x="558.349609"/>
      <use xlink:href="#DejaVuSans-30" x="621.972656"/>
      <use xlink:href="#DejaVuSans-73" x="685.595703"/>
     </g>
    </g>
    <g id="line2d_48">
     <path d="M 297.729375 49.654687 
L 307.729375 49.654687 
L 317.729375 49.654687 
" style="fill: none; stroke: #2ca02c; stroke-linecap: square"/>
    </g>
    <g id="text_15">
     <!-- 512, T=9.49s -->
     <g transform="translate(325.729375 53.154687) scale(0.1 -0.1)">
      <use xlink:href="#DejaVuSans-35"/>
      <use xlink:href="#DejaVuSans-31" x="63.623047"/>
      <use xlink:href="#DejaVuSans-32" x="127.246094"/>
      <use xlink:href="#DejaVuSans-2c" x="190.869141"/>
      <use xlink:href="#DejaVuSans-20" x="222.65625"/>
      <use xlink:href="#DejaVuSans-54" x="254.443359"/>
      <use xlink:href="#DejaVuSans-3d" x="315.527344"/>
      <use xlink:href="#DejaVuSans-39" x="399.316406"/>
      <use xlink:href="#DejaVuSans-2e" x="462.939453"/>
      <use xlink:href="#DejaVuSans-34" x="494.726562"/>
      <use xlink:href="#DejaVuSans-39" x="558.349609"/>
      <use xlink:href="#DejaVuSans-73" x="621.972656"/>
     </g>
    </g>
    <g id="line2d_49">
     <path d="M 297.729375 64.332812 
L 307.729375 64.332812 
L 317.729375 64.332812 
" style="fill: none; stroke: #d62728; stroke-linecap: square"/>
    </g>
    <g id="text_16">
     <!-- 2000, T=8.38s -->
     <g transform="translate(325.729375 67.832812) scale(0.1 -0.1)">
      <use xlink:href="#DejaVuSans-32"/>
      <use xlink:href="#DejaVuSans-30" x="63.623047"/>
      <use xlink:href="#DejaVuSans-30" x="127.246094"/>
      <use xlink:href="#DejaVuSans-30" x="190.869141"/>
      <use xlink:href="#DejaVuSans-2c" x="254.492188"/>
      <use xlink:href="#DejaVuSans-20" x="286.279297"/>
      <use xlink:href="#DejaVuSans-54" x="318.066406"/>
      <use xlink:href="#DejaVuSans-3d" x="379.150391"/>
      <use xlink:href="#DejaVuSans-38" x="462.939453"/>
      <use xlink:href="#DejaVuSans-2e" x="526.5625"/>
      <use xlink:href="#DejaVuSans-33" x="558.349609"/>
      <use xlink:href="#DejaVuSans-38" x="621.972656"/>
      <use xlink:href="#DejaVuSans-73" x="685.595703"/>
     </g>
    </g>
   </g>
  </g>
 </g>
 <defs>
  <clipPath id="pdccea96f89">
   <rect x="51.378125" y="7.2" width="357.12" height="266.112"/>
  </clipPath>
 </defs>
</svg>
