<?xml version="1.0" encoding="utf-8" standalone="no"?>
<!DOCTYPE svg PUBLIC "-//W3C//DTD SVG 1.1//EN"
  "http://www.w3.org/Graphics/SVG/1.1/DTD/svg11.dtd">
<!-- Created with matplotlib (https://matplotlib.org/) -->
<svg height="262.218125pt" version="1.1" viewBox="0 0 382.825 262.218125" width="382.825pt" xmlns="http://www.w3.org/2000/svg" xmlns:xlink="http://www.w3.org/1999/xlink">
 <metadata>
  <rdf:RDF xmlns:cc="http://creativecommons.org/ns#" xmlns:dc="http://purl.org/dc/elements/1.1/" xmlns:rdf="http://www.w3.org/1999/02/22-rdf-syntax-ns#">
   <cc:Work>
    <dc:type rdf:resource="http://purl.org/dc/dcmitype/StillImage"/>
    <dc:date>2021-12-08T10:26:53.498822</dc:date>
    <dc:format>image/svg+xml</dc:format>
    <dc:creator>
     <cc:Agent>
      <dc:title>Matplotlib v3.3.3, https://matplotlib.org/</dc:title>
     </cc:Agent>
    </dc:creator>
   </cc:Work>
  </rdf:RDF>
 </metadata>
 <defs>
  <style type="text/css">*{stroke-linecap:butt;stroke-linejoin:round;}</style>
 </defs>
 <g id="figure_1">
  <g id="patch_1">
   <path d="M 0 262.218125 
L 382.825 262.218125 
L 382.825 0 
L 0 0 
z
" style="fill:none;"/>
  </g>
  <g id="axes_1">
   <g id="patch_2">
    <path d="M 40.825 224.64 
L 375.625 224.64 
L 375.625 7.2 
L 40.825 7.2 
z
" style="fill:#ffffff;"/>
   </g>
   <g id="matplotlib.axis_1">
    <g id="xtick_1">
     <g id="line2d_1">
      <defs>
       <path d="M 0 0 
L 0 3.5 
" id="m0e6d83acbf" style="stroke:#000000;stroke-width:0.8;"/>
      </defs>
      <g>
       <use style="stroke:#000000;stroke-width:0.8;" x="56.043182" xlink:href="#m0e6d83acbf" y="224.64"/>
      </g>
     </g>
     <g id="text_1">
      <!-- 0 -->
      <g transform="translate(52.861932 239.238437)scale(0.1 -0.1)">
       <defs>
        <path d="M 31.78125 66.40625 
Q 24.171875 66.40625 20.328125 58.90625 
Q 16.5 51.421875 16.5 36.375 
Q 16.5 21.390625 20.328125 13.890625 
Q 24.171875 6.390625 31.78125 6.390625 
Q 39.453125 6.390625 43.28125 13.890625 
Q 47.125 21.390625 47.125 36.375 
Q 47.125 51.421875 43.28125 58.90625 
Q 39.453125 66.40625 31.78125 66.40625 
z
M 31.78125 74.21875 
Q 44.046875 74.21875 50.515625 64.515625 
Q 56.984375 54.828125 56.984375 36.375 
Q 56.984375 17.96875 50.515625 8.265625 
Q 44.046875 -1.421875 31.78125 -1.421875 
Q 19.53125 -1.421875 13.0625 8.265625 
Q 6.59375 17.96875 6.59375 36.375 
Q 6.59375 54.828125 13.0625 64.515625 
Q 19.53125 74.21875 31.78125 74.21875 
z
" id="DejaVuSans-48"/>
       </defs>
       <use xlink:href="#DejaVuSans-48"/>
      </g>
     </g>
    </g>
    <g id="xtick_2">
     <g id="line2d_2">
      <g>
       <use style="stroke:#000000;stroke-width:0.8;" x="97.034917" xlink:href="#m0e6d83acbf" y="224.64"/>
      </g>
     </g>
     <g id="text_2">
      <!-- 2 -->
      <g transform="translate(93.853667 239.238437)scale(0.1 -0.1)">
       <defs>
        <path d="M 19.1875 8.296875 
L 53.609375 8.296875 
L 53.609375 0 
L 7.328125 0 
L 7.328125 8.296875 
Q 12.9375 14.109375 22.625 23.890625 
Q 32.328125 33.6875 34.8125 36.53125 
Q 39.546875 41.84375 41.421875 45.53125 
Q 43.3125 49.21875 43.3125 52.78125 
Q 43.3125 58.59375 39.234375 62.25 
Q 35.15625 65.921875 28.609375 65.921875 
Q 23.96875 65.921875 18.8125 64.3125 
Q 13.671875 62.703125 7.8125 59.421875 
L 7.8125 69.390625 
Q 13.765625 71.78125 18.9375 73 
Q 24.125 74.21875 28.421875 74.21875 
Q 39.75 74.21875 46.484375 68.546875 
Q 53.21875 62.890625 53.21875 53.421875 
Q 53.21875 48.921875 51.53125 44.890625 
Q 49.859375 40.875 45.40625 35.40625 
Q 44.1875 33.984375 37.640625 27.21875 
Q 31.109375 20.453125 19.1875 8.296875 
z
" id="DejaVuSans-50"/>
       </defs>
       <use xlink:href="#DejaVuSans-50"/>
      </g>
     </g>
    </g>
    <g id="xtick_3">
     <g id="line2d_3">
      <g>
       <use style="stroke:#000000;stroke-width:0.8;" x="138.026653" xlink:href="#m0e6d83acbf" y="224.64"/>
      </g>
     </g>
     <g id="text_3">
      <!-- 4 -->
      <g transform="translate(134.845403 239.238437)scale(0.1 -0.1)">
       <defs>
        <path d="M 37.796875 64.3125 
L 12.890625 25.390625 
L 37.796875 25.390625 
z
M 35.203125 72.90625 
L 47.609375 72.90625 
L 47.609375 25.390625 
L 58.015625 25.390625 
L 58.015625 17.1875 
L 47.609375 17.1875 
L 47.609375 0 
L 37.796875 0 
L 37.796875 17.1875 
L 4.890625 17.1875 
L 4.890625 26.703125 
z
" id="DejaVuSans-52"/>
       </defs>
       <use xlink:href="#DejaVuSans-52"/>
      </g>
     </g>
    </g>
    <g id="xtick_4">
     <g id="line2d_4">
      <g>
       <use style="stroke:#000000;stroke-width:0.8;" x="179.018388" xlink:href="#m0e6d83acbf" y="224.64"/>
      </g>
     </g>
     <g id="text_4">
      <!-- 6 -->
      <g transform="translate(175.837138 239.238437)scale(0.1 -0.1)">
       <defs>
        <path d="M 33.015625 40.375 
Q 26.375 40.375 22.484375 35.828125 
Q 18.609375 31.296875 18.609375 23.390625 
Q 18.609375 15.53125 22.484375 10.953125 
Q 26.375 6.390625 33.015625 6.390625 
Q 39.65625 6.390625 43.53125 10.953125 
Q 47.40625 15.53125 47.40625 23.390625 
Q 47.40625 31.296875 43.53125 35.828125 
Q 39.65625 40.375 33.015625 40.375 
z
M 52.59375 71.296875 
L 52.59375 62.3125 
Q 48.875 64.0625 45.09375 64.984375 
Q 41.3125 65.921875 37.59375 65.921875 
Q 27.828125 65.921875 22.671875 59.328125 
Q 17.53125 52.734375 16.796875 39.40625 
Q 19.671875 43.65625 24.015625 45.921875 
Q 28.375 48.1875 33.59375 48.1875 
Q 44.578125 48.1875 50.953125 41.515625 
Q 57.328125 34.859375 57.328125 23.390625 
Q 57.328125 12.15625 50.6875 5.359375 
Q 44.046875 -1.421875 33.015625 -1.421875 
Q 20.359375 -1.421875 13.671875 8.265625 
Q 6.984375 17.96875 6.984375 36.375 
Q 6.984375 53.65625 15.1875 63.9375 
Q 23.390625 74.21875 37.203125 74.21875 
Q 40.921875 74.21875 44.703125 73.484375 
Q 48.484375 72.75 52.59375 71.296875 
z
" id="DejaVuSans-54"/>
       </defs>
       <use xlink:href="#DejaVuSans-54"/>
      </g>
     </g>
    </g>
    <g id="xtick_5">
     <g id="line2d_5">
      <g>
       <use style="stroke:#000000;stroke-width:0.8;" x="220.010124" xlink:href="#m0e6d83acbf" y="224.64"/>
      </g>
     </g>
     <g id="text_5">
      <!-- 8 -->
      <g transform="translate(216.828874 239.238437)scale(0.1 -0.1)">
       <defs>
        <path d="M 31.78125 34.625 
Q 24.75 34.625 20.71875 30.859375 
Q 16.703125 27.09375 16.703125 20.515625 
Q 16.703125 13.921875 20.71875 10.15625 
Q 24.75 6.390625 31.78125 6.390625 
Q 38.8125 6.390625 42.859375 10.171875 
Q 46.921875 13.96875 46.921875 20.515625 
Q 46.921875 27.09375 42.890625 30.859375 
Q 38.875 34.625 31.78125 34.625 
z
M 21.921875 38.8125 
Q 15.578125 40.375 12.03125 44.71875 
Q 8.5 49.078125 8.5 55.328125 
Q 8.5 64.0625 14.71875 69.140625 
Q 20.953125 74.21875 31.78125 74.21875 
Q 42.671875 74.21875 48.875 69.140625 
Q 55.078125 64.0625 55.078125 55.328125 
Q 55.078125 49.078125 51.53125 44.71875 
Q 48 40.375 41.703125 38.8125 
Q 48.828125 37.15625 52.796875 32.3125 
Q 56.78125 27.484375 56.78125 20.515625 
Q 56.78125 9.90625 50.3125 4.234375 
Q 43.84375 -1.421875 31.78125 -1.421875 
Q 19.734375 -1.421875 13.25 4.234375 
Q 6.78125 9.90625 6.78125 20.515625 
Q 6.78125 27.484375 10.78125 32.3125 
Q 14.796875 37.15625 21.921875 38.8125 
z
M 18.3125 54.390625 
Q 18.3125 48.734375 21.84375 45.5625 
Q 25.390625 42.390625 31.78125 42.390625 
Q 38.140625 42.390625 41.71875 45.5625 
Q 45.3125 48.734375 45.3125 54.390625 
Q 45.3125 60.0625 41.71875 63.234375 
Q 38.140625 66.40625 31.78125 66.40625 
Q 25.390625 66.40625 21.84375 63.234375 
Q 18.3125 60.0625 18.3125 54.390625 
z
" id="DejaVuSans-56"/>
       </defs>
       <use xlink:href="#DejaVuSans-56"/>
      </g>
     </g>
    </g>
    <g id="xtick_6">
     <g id="line2d_6">
      <g>
       <use style="stroke:#000000;stroke-width:0.8;" x="261.00186" xlink:href="#m0e6d83acbf" y="224.64"/>
      </g>
     </g>
     <g id="text_6">
      <!-- 10 -->
      <g transform="translate(254.63936 239.238437)scale(0.1 -0.1)">
       <defs>
        <path d="M 12.40625 8.296875 
L 28.515625 8.296875 
L 28.515625 63.921875 
L 10.984375 60.40625 
L 10.984375 69.390625 
L 28.421875 72.90625 
L 38.28125 72.90625 
L 38.28125 8.296875 
L 54.390625 8.296875 
L 54.390625 0 
L 12.40625 0 
z
" id="DejaVuSans-49"/>
       </defs>
       <use xlink:href="#DejaVuSans-49"/>
       <use x="63.623047" xlink:href="#DejaVuSans-48"/>
      </g>
     </g>
    </g>
    <g id="xtick_7">
     <g id="line2d_7">
      <g>
       <use style="stroke:#000000;stroke-width:0.8;" x="301.993595" xlink:href="#m0e6d83acbf" y="224.64"/>
      </g>
     </g>
     <g id="text_7">
      <!-- 12 -->
      <g transform="translate(295.631095 239.238437)scale(0.1 -0.1)">
       <use xlink:href="#DejaVuSans-49"/>
       <use x="63.623047" xlink:href="#DejaVuSans-50"/>
      </g>
     </g>
    </g>
    <g id="xtick_8">
     <g id="line2d_8">
      <g>
       <use style="stroke:#000000;stroke-width:0.8;" x="342.985331" xlink:href="#m0e6d83acbf" y="224.64"/>
      </g>
     </g>
     <g id="text_8">
      <!-- 14 -->
      <g transform="translate(336.622831 239.238437)scale(0.1 -0.1)">
       <use xlink:href="#DejaVuSans-49"/>
       <use x="63.623047" xlink:href="#DejaVuSans-52"/>
      </g>
     </g>
    </g>
    <g id="text_9">
     <!-- $\tilde{t}$ -->
     <g transform="translate(206.225 252.938437)scale(0.1 -0.1)">
      <defs>
       <path d="M -25.328125 66.890625 
L -28.109375 69.578125 
Q -29.171875 70.5625 -29.984375 71.015625 
Q -30.796875 71.484375 -31.421875 71.484375 
Q -33.28125 71.484375 -34.15625 69.703125 
Q -35.03125 67.921875 -35.140625 63.921875 
L -41.234375 63.921875 
Q -41.140625 70.515625 -38.640625 74.09375 
Q -36.15625 77.6875 -31.71875 77.6875 
Q -29.859375 77.6875 -28.296875 77 
Q -26.734375 76.3125 -24.9375 74.703125 
L -22.140625 72.015625 
Q -21.078125 71.046875 -20.265625 70.578125 
Q -19.46875 70.125 -18.828125 70.125 
Q -16.96875 70.125 -16.09375 71.90625 
Q -15.21875 73.6875 -15.109375 77.6875 
L -9.015625 77.6875 
Q -9.109375 71.09375 -11.59375 67.5 
Q -14.09375 63.921875 -18.53125 63.921875 
Q -20.390625 63.921875 -21.953125 64.59375 
Q -23.515625 65.28125 -25.328125 66.890625 
z
" id="DejaVuSans-771"/>
       <path d="M 42.28125 54.6875 
L 40.921875 47.703125 
L 23 47.703125 
L 17.1875 18.015625 
Q 16.890625 16.359375 16.75 15.234375 
Q 16.609375 14.109375 16.609375 13.484375 
Q 16.609375 10.359375 18.484375 8.9375 
Q 20.359375 7.515625 24.515625 7.515625 
L 33.59375 7.515625 
L 32.078125 0 
L 23.484375 0 
Q 15.484375 0 11.546875 3.125 
Q 7.625 6.25 7.625 12.59375 
Q 7.625 13.71875 7.765625 15.0625 
Q 7.90625 16.40625 8.203125 18.015625 
L 14.015625 47.703125 
L 6.390625 47.703125 
L 7.8125 54.6875 
L 15.28125 54.6875 
L 18.3125 70.21875 
L 27.296875 70.21875 
L 24.3125 54.6875 
z
" id="DejaVuSans-Oblique-116"/>
      </defs>
      <use transform="translate(50.036621 19.3125)" xlink:href="#DejaVuSans-771"/>
      <use transform="translate(0 0.515625)" xlink:href="#DejaVuSans-Oblique-116"/>
     </g>
    </g>
   </g>
   <g id="matplotlib.axis_2">
    <g id="ytick_1">
     <g id="line2d_9">
      <defs>
       <path d="M 0 0 
L -3.5 0 
" id="md888230d68" style="stroke:#000000;stroke-width:0.8;"/>
      </defs>
      <g>
       <use style="stroke:#000000;stroke-width:0.8;" x="40.825" xlink:href="#md888230d68" y="206.760747"/>
      </g>
     </g>
     <g id="text_10">
      <!-- 5 -->
      <g transform="translate(27.4625 210.559966)scale(0.1 -0.1)">
       <defs>
        <path d="M 10.796875 72.90625 
L 49.515625 72.90625 
L 49.515625 64.59375 
L 19.828125 64.59375 
L 19.828125 46.734375 
Q 21.96875 47.46875 24.109375 47.828125 
Q 26.265625 48.1875 28.421875 48.1875 
Q 40.625 48.1875 47.75 41.5 
Q 54.890625 34.8125 54.890625 23.390625 
Q 54.890625 11.625 47.5625 5.09375 
Q 40.234375 -1.421875 26.90625 -1.421875 
Q 22.3125 -1.421875 17.546875 -0.640625 
Q 12.796875 0.140625 7.71875 1.703125 
L 7.71875 11.625 
Q 12.109375 9.234375 16.796875 8.0625 
Q 21.484375 6.890625 26.703125 6.890625 
Q 35.15625 6.890625 40.078125 11.328125 
Q 45.015625 15.765625 45.015625 23.390625 
Q 45.015625 31 40.078125 35.4375 
Q 35.15625 39.890625 26.703125 39.890625 
Q 22.75 39.890625 18.8125 39.015625 
Q 14.890625 38.140625 10.796875 36.28125 
z
" id="DejaVuSans-53"/>
       </defs>
       <use xlink:href="#DejaVuSans-53"/>
      </g>
     </g>
    </g>
    <g id="ytick_2">
     <g id="line2d_10">
      <g>
       <use style="stroke:#000000;stroke-width:0.8;" x="40.825" xlink:href="#md888230d68" y="180.108692"/>
      </g>
     </g>
     <g id="text_11">
      <!-- 10 -->
      <g transform="translate(21.1 183.90791)scale(0.1 -0.1)">
       <use xlink:href="#DejaVuSans-49"/>
       <use x="63.623047" xlink:href="#DejaVuSans-48"/>
      </g>
     </g>
    </g>
    <g id="ytick_3">
     <g id="line2d_11">
      <g>
       <use style="stroke:#000000;stroke-width:0.8;" x="40.825" xlink:href="#md888230d68" y="153.456636"/>
      </g>
     </g>
     <g id="text_12">
      <!-- 15 -->
      <g transform="translate(21.1 157.255855)scale(0.1 -0.1)">
       <use xlink:href="#DejaVuSans-49"/>
       <use x="63.623047" xlink:href="#DejaVuSans-53"/>
      </g>
     </g>
    </g>
    <g id="ytick_4">
     <g id="line2d_12">
      <g>
       <use style="stroke:#000000;stroke-width:0.8;" x="40.825" xlink:href="#md888230d68" y="126.804581"/>
      </g>
     </g>
     <g id="text_13">
      <!-- 20 -->
      <g transform="translate(21.1 130.603799)scale(0.1 -0.1)">
       <use xlink:href="#DejaVuSans-50"/>
       <use x="63.623047" xlink:href="#DejaVuSans-48"/>
      </g>
     </g>
    </g>
    <g id="ytick_5">
     <g id="line2d_13">
      <g>
       <use style="stroke:#000000;stroke-width:0.8;" x="40.825" xlink:href="#md888230d68" y="100.152525"/>
      </g>
     </g>
     <g id="text_14">
      <!-- 25 -->
      <g transform="translate(21.1 103.951744)scale(0.1 -0.1)">
       <use xlink:href="#DejaVuSans-50"/>
       <use x="63.623047" xlink:href="#DejaVuSans-53"/>
      </g>
     </g>
    </g>
    <g id="ytick_6">
     <g id="line2d_14">
      <g>
       <use style="stroke:#000000;stroke-width:0.8;" x="40.825" xlink:href="#md888230d68" y="73.50047"/>
      </g>
     </g>
     <g id="text_15">
      <!-- 30 -->
      <g transform="translate(21.1 77.299688)scale(0.1 -0.1)">
       <defs>
        <path d="M 40.578125 39.3125 
Q 47.65625 37.796875 51.625 33 
Q 55.609375 28.21875 55.609375 21.1875 
Q 55.609375 10.40625 48.1875 4.484375 
Q 40.765625 -1.421875 27.09375 -1.421875 
Q 22.515625 -1.421875 17.65625 -0.515625 
Q 12.796875 0.390625 7.625 2.203125 
L 7.625 11.71875 
Q 11.71875 9.328125 16.59375 8.109375 
Q 21.484375 6.890625 26.8125 6.890625 
Q 36.078125 6.890625 40.9375 10.546875 
Q 45.796875 14.203125 45.796875 21.1875 
Q 45.796875 27.640625 41.28125 31.265625 
Q 36.765625 34.90625 28.71875 34.90625 
L 20.21875 34.90625 
L 20.21875 43.015625 
L 29.109375 43.015625 
Q 36.375 43.015625 40.234375 45.921875 
Q 44.09375 48.828125 44.09375 54.296875 
Q 44.09375 59.90625 40.109375 62.90625 
Q 36.140625 65.921875 28.71875 65.921875 
Q 24.65625 65.921875 20.015625 65.03125 
Q 15.375 64.15625 9.8125 62.3125 
L 9.8125 71.09375 
Q 15.4375 72.65625 20.34375 73.4375 
Q 25.25 74.21875 29.59375 74.21875 
Q 40.828125 74.21875 47.359375 69.109375 
Q 53.90625 64.015625 53.90625 55.328125 
Q 53.90625 49.265625 50.4375 45.09375 
Q 46.96875 40.921875 40.578125 39.3125 
z
" id="DejaVuSans-51"/>
       </defs>
       <use xlink:href="#DejaVuSans-51"/>
       <use x="63.623047" xlink:href="#DejaVuSans-48"/>
      </g>
     </g>
    </g>
    <g id="ytick_7">
     <g id="line2d_15">
      <g>
       <use style="stroke:#000000;stroke-width:0.8;" x="40.825" xlink:href="#md888230d68" y="46.848414"/>
      </g>
     </g>
     <g id="text_16">
      <!-- 35 -->
      <g transform="translate(21.1 50.647633)scale(0.1 -0.1)">
       <use xlink:href="#DejaVuSans-51"/>
       <use x="63.623047" xlink:href="#DejaVuSans-53"/>
      </g>
     </g>
    </g>
    <g id="ytick_8">
     <g id="line2d_16">
      <g>
       <use style="stroke:#000000;stroke-width:0.8;" x="40.825" xlink:href="#md888230d68" y="20.196359"/>
      </g>
     </g>
     <g id="text_17">
      <!-- 40 -->
      <g transform="translate(21.1 23.995577)scale(0.1 -0.1)">
       <use xlink:href="#DejaVuSans-52"/>
       <use x="63.623047" xlink:href="#DejaVuSans-48"/>
      </g>
     </g>
    </g>
    <g id="text_18">
     <!-- $\tilde{x}_b$ -->
     <g transform="translate(15.020313 121.32)rotate(-90)scale(0.1 -0.1)">
      <defs>
       <path d="M 60.015625 54.6875 
L 34.90625 27.875 
L 50.296875 0 
L 39.984375 0 
L 28.421875 21.6875 
L 8.296875 0 
L -2.59375 0 
L 24.3125 28.8125 
L 10.015625 54.6875 
L 20.3125 54.6875 
L 30.8125 34.90625 
L 49.125 54.6875 
z
" id="DejaVuSans-Oblique-120"/>
       <path d="M 49.515625 33.40625 
Q 49.515625 40.484375 46.265625 44.484375 
Q 43.015625 48.484375 37.3125 48.484375 
Q 33.15625 48.484375 29.515625 46.453125 
Q 25.875 44.4375 23.1875 40.578125 
Q 20.359375 36.53125 18.71875 31.171875 
Q 17.09375 25.828125 17.09375 20.515625 
Q 17.09375 13.765625 20.28125 9.9375 
Q 23.484375 6.109375 29.109375 6.109375 
Q 33.34375 6.109375 36.953125 8.078125 
Q 40.578125 10.0625 43.3125 13.921875 
Q 46.09375 17.921875 47.796875 23.234375 
Q 49.515625 28.5625 49.515625 33.40625 
z
M 21.578125 46.390625 
Q 24.90625 50.875 29.90625 53.4375 
Q 34.90625 56 40.375 56 
Q 48.78125 56 53.734375 50.328125 
Q 58.6875 44.671875 58.6875 35.015625 
Q 58.6875 27.09375 55.78125 19.671875 
Q 52.875 12.25 47.515625 6.5 
Q 44 2.6875 39.40625 0.625 
Q 34.8125 -1.421875 29.78125 -1.421875 
Q 24.46875 -1.421875 20.5625 1.015625 
Q 16.65625 3.46875 14.203125 8.296875 
L 12.59375 0 
L 3.609375 0 
L 18.40625 75.984375 
L 27.390625 75.984375 
z
" id="DejaVuSans-Oblique-98"/>
      </defs>
      <use transform="translate(62.029297 3.3125)" xlink:href="#DejaVuSans-771"/>
      <use transform="translate(0 0.046875)" xlink:href="#DejaVuSans-Oblique-120"/>
      <use transform="translate(60.136719 -16.359375)scale(0.7)" xlink:href="#DejaVuSans-Oblique-98"/>
     </g>
    </g>
   </g>
   <g id="line2d_17">
    <path clip-path="url(#p052d03eaa5)" d="M 56.043182 214.756364 
L 59.137877 214.636989 
L 62.219029 214.291536 
L 65.503334 213.695884 
L 68.956933 212.839557 
L 72.782979 211.655612 
L 76.879895 210.150409 
L 81.484693 208.217022 
L 86.597374 205.824142 
L 92.454949 202.830393 
L 99.023558 199.216931 
L 106.67565 194.748789 
L 115.715953 189.209437 
L 126.178326 182.541757 
L 138.841522 174.207789 
L 154.890599 163.359335 
L 174.291698 149.971872 
L 202.970112 129.849334 
L 248.171627 97.693001 
L 311.521465 52.247805 
L 360.379731 17.083636 
L 360.379731 17.083636 
" style="fill:none;stroke:#1f77b4;stroke-linecap:square;stroke-width:1.5;"/>
   </g>
   <g id="patch_3">
    <path d="M 40.825 224.64 
L 40.825 7.2 
" style="fill:none;stroke:#000000;stroke-linecap:square;stroke-linejoin:miter;stroke-width:0.8;"/>
   </g>
   <g id="patch_4">
    <path d="M 375.625 224.64 
L 375.625 7.2 
" style="fill:none;stroke:#000000;stroke-linecap:square;stroke-linejoin:miter;stroke-width:0.8;"/>
   </g>
   <g id="patch_5">
    <path d="M 40.825 224.64 
L 375.625 224.64 
" style="fill:none;stroke:#000000;stroke-linecap:square;stroke-linejoin:miter;stroke-width:0.8;"/>
   </g>
   <g id="patch_6">
    <path d="M 40.825 7.2 
L 375.625 7.2 
" style="fill:none;stroke:#000000;stroke-linecap:square;stroke-linejoin:miter;stroke-width:0.8;"/>
   </g>
   <g id="PathCollection_1">
    <defs>
     <path d="M 0 1.118034 
C 0.296506 1.118034 0.580908 1.000231 0.790569 0.790569 
C 1.000231 0.580908 1.118034 0.296506 1.118034 0 
C 1.118034 -0.296506 1.000231 -0.580908 0.790569 -0.790569 
C 0.580908 -1.000231 0.296506 -1.118034 0 -1.118034 
C -0.296506 -1.118034 -0.580908 -1.000231 -0.790569 -0.790569 
C -1.000231 -0.580908 -1.118034 -0.296506 -1.118034 0 
C -1.118034 0.296506 -1.000231 0.580908 -0.790569 0.790569 
C -0.580908 1.000231 -0.296506 1.118034 0 1.118034 
z
" id="m620260a498" style="stroke:#ff7f0e;"/>
    </defs>
    <g clip-path="url(#p052d03eaa5)">
     <use style="fill:#ff7f0e;stroke:#ff7f0e;" x="56.043182" xlink:href="#m620260a498" y="214.756364"/>
     <use style="fill:#ff7f0e;stroke:#ff7f0e;" x="59.117562" xlink:href="#m620260a498" y="214.639556"/>
     <use style="fill:#ff7f0e;stroke:#ff7f0e;" x="62.191942" xlink:href="#m620260a498" y="214.29649"/>
     <use style="fill:#ff7f0e;stroke:#ff7f0e;" x="65.266322" xlink:href="#m620260a498" y="213.746298"/>
     <use style="fill:#ff7f0e;stroke:#ff7f0e;" x="68.340702" xlink:href="#m620260a498" y="213.006498"/>
     <use style="fill:#ff7f0e;stroke:#ff7f0e;" x="71.415083" xlink:href="#m620260a498" y="212.100413"/>
     <use style="fill:#ff7f0e;stroke:#ff7f0e;" x="74.489463" xlink:href="#m620260a498" y="211.061485"/>
     <use style="fill:#ff7f0e;stroke:#ff7f0e;" x="77.563843" xlink:href="#m620260a498" y="209.880676"/>
     <use style="fill:#ff7f0e;stroke:#ff7f0e;" x="80.638223" xlink:href="#m620260a498" y="208.589066"/>
     <use style="fill:#ff7f0e;stroke:#ff7f0e;" x="83.712603" xlink:href="#m620260a498" y="207.200739"/>
     <use style="fill:#ff7f0e;stroke:#ff7f0e;" x="86.786983" xlink:href="#m620260a498" y="205.724426"/>
     <use style="fill:#ff7f0e;stroke:#ff7f0e;" x="89.861364" xlink:href="#m620260a498" y="204.192514"/>
     <use style="fill:#ff7f0e;stroke:#ff7f0e;" x="92.935744" xlink:href="#m620260a498" y="202.57788"/>
     <use style="fill:#ff7f0e;stroke:#ff7f0e;" x="96.010124" xlink:href="#m620260a498" y="200.90314"/>
     <use style="fill:#ff7f0e;stroke:#ff7f0e;" x="99.084504" xlink:href="#m620260a498" y="199.178508"/>
     <use style="fill:#ff7f0e;stroke:#ff7f0e;" x="102.158884" xlink:href="#m620260a498" y="197.40746"/>
     <use style="fill:#ff7f0e;stroke:#ff7f0e;" x="105.233264" xlink:href="#m620260a498" y="195.616445"/>
     <use style="fill:#ff7f0e;stroke:#ff7f0e;" x="108.307645" xlink:href="#m620260a498" y="193.771631"/>
     <use style="fill:#ff7f0e;stroke:#ff7f0e;" x="111.382025" xlink:href="#m620260a498" y="191.895285"/>
     <use style="fill:#ff7f0e;stroke:#ff7f0e;" x="114.456405" xlink:href="#m620260a498" y="189.990534"/>
     <use style="fill:#ff7f0e;stroke:#ff7f0e;" x="117.530785" xlink:href="#m620260a498" y="188.062295"/>
     <use style="fill:#ff7f0e;stroke:#ff7f0e;" x="120.605165" xlink:href="#m620260a498" y="186.131043"/>
     <use style="fill:#ff7f0e;stroke:#ff7f0e;" x="123.679545" xlink:href="#m620260a498" y="184.158529"/>
     <use style="fill:#ff7f0e;stroke:#ff7f0e;" x="126.753926" xlink:href="#m620260a498" y="182.168631"/>
     <use style="fill:#ff7f0e;stroke:#ff7f0e;" x="129.828306" xlink:href="#m620260a498" y="180.160439"/>
     <use style="fill:#ff7f0e;stroke:#ff7f0e;" x="132.902686" xlink:href="#m620260a498" y="178.136444"/>
     <use style="fill:#ff7f0e;stroke:#ff7f0e;" x="135.977066" xlink:href="#m620260a498" y="176.121683"/>
     <use style="fill:#ff7f0e;stroke:#ff7f0e;" x="139.051446" xlink:href="#m620260a498" y="174.072186"/>
     <use style="fill:#ff7f0e;stroke:#ff7f0e;" x="142.125826" xlink:href="#m620260a498" y="172.009118"/>
     <use style="fill:#ff7f0e;stroke:#ff7f0e;" x="145.200207" xlink:href="#m620260a498" y="169.936218"/>
     <use style="fill:#ff7f0e;stroke:#ff7f0e;" x="148.274587" xlink:href="#m620260a498" y="167.854485"/>
     <use style="fill:#ff7f0e;stroke:#ff7f0e;" x="151.348967" xlink:href="#m620260a498" y="165.784507"/>
     <use style="fill:#ff7f0e;stroke:#ff7f0e;" x="154.423347" xlink:href="#m620260a498" y="163.683247"/>
     <use style="fill:#ff7f0e;stroke:#ff7f0e;" x="157.497727" xlink:href="#m620260a498" y="161.575641"/>
     <use style="fill:#ff7f0e;stroke:#ff7f0e;" x="160.572107" xlink:href="#m620260a498" y="159.46086"/>
     <use style="fill:#ff7f0e;stroke:#ff7f0e;" x="163.646488" xlink:href="#m620260a498" y="157.338338"/>
     <use style="fill:#ff7f0e;stroke:#ff7f0e;" x="166.720868" xlink:href="#m620260a498" y="155.234429"/>
     <use style="fill:#ff7f0e;stroke:#ff7f0e;" x="169.795248" xlink:href="#m620260a498" y="153.104064"/>
     <use style="fill:#ff7f0e;stroke:#ff7f0e;" x="172.869628" xlink:href="#m620260a498" y="150.962563"/>
     <use style="fill:#ff7f0e;stroke:#ff7f0e;" x="175.944008" xlink:href="#m620260a498" y="148.815957"/>
     <use style="fill:#ff7f0e;stroke:#ff7f0e;" x="179.018388" xlink:href="#m620260a498" y="146.668986"/>
     <use style="fill:#ff7f0e;stroke:#ff7f0e;" x="182.092769" xlink:href="#m620260a498" y="144.540363"/>
     <use style="fill:#ff7f0e;stroke:#ff7f0e;" x="185.167149" xlink:href="#m620260a498" y="142.382014"/>
     <use style="fill:#ff7f0e;stroke:#ff7f0e;" x="188.241529" xlink:href="#m620260a498" y="140.223995"/>
     <use style="fill:#ff7f0e;stroke:#ff7f0e;" x="191.315909" xlink:href="#m620260a498" y="138.061796"/>
     <use style="fill:#ff7f0e;stroke:#ff7f0e;" x="194.390289" xlink:href="#m620260a498" y="135.890988"/>
     <use style="fill:#ff7f0e;stroke:#ff7f0e;" x="197.464669" xlink:href="#m620260a498" y="133.744655"/>
     <use style="fill:#ff7f0e;stroke:#ff7f0e;" x="200.53905" xlink:href="#m620260a498" y="131.573677"/>
     <use style="fill:#ff7f0e;stroke:#ff7f0e;" x="203.61343" xlink:href="#m620260a498" y="129.393545"/>
     <use style="fill:#ff7f0e;stroke:#ff7f0e;" x="206.68781" xlink:href="#m620260a498" y="127.211052"/>
     <use style="fill:#ff7f0e;stroke:#ff7f0e;" x="209.76219" xlink:href="#m620260a498" y="125.031622"/>
     <use style="fill:#ff7f0e;stroke:#ff7f0e;" x="212.83657" xlink:href="#m620260a498" y="122.871779"/>
     <use style="fill:#ff7f0e;stroke:#ff7f0e;" x="215.91095" xlink:href="#m620260a498" y="120.681672"/>
     <use style="fill:#ff7f0e;stroke:#ff7f0e;" x="218.985331" xlink:href="#m620260a498" y="118.495368"/>
     <use style="fill:#ff7f0e;stroke:#ff7f0e;" x="222.059711" xlink:href="#m620260a498" y="116.308427"/>
     <use style="fill:#ff7f0e;stroke:#ff7f0e;" x="225.134091" xlink:href="#m620260a498" y="114.113725"/>
     <use style="fill:#ff7f0e;stroke:#ff7f0e;" x="228.208471" xlink:href="#m620260a498" y="111.945515"/>
     <use style="fill:#ff7f0e;stroke:#ff7f0e;" x="231.282851" xlink:href="#m620260a498" y="109.754046"/>
     <use style="fill:#ff7f0e;stroke:#ff7f0e;" x="234.357231" xlink:href="#m620260a498" y="107.555182"/>
     <use style="fill:#ff7f0e;stroke:#ff7f0e;" x="237.431612" xlink:href="#m620260a498" y="105.355065"/>
     <use style="fill:#ff7f0e;stroke:#ff7f0e;" x="240.505992" xlink:href="#m620260a498" y="103.16113"/>
     <use style="fill:#ff7f0e;stroke:#ff7f0e;" x="243.580372" xlink:href="#m620260a498" y="100.98592"/>
     <use style="fill:#ff7f0e;stroke:#ff7f0e;" x="246.654752" xlink:href="#m620260a498" y="98.780856"/>
     <use style="fill:#ff7f0e;stroke:#ff7f0e;" x="249.729132" xlink:href="#m620260a498" y="96.582314"/>
     <use style="fill:#ff7f0e;stroke:#ff7f0e;" x="252.803512" xlink:href="#m620260a498" y="94.381966"/>
     <use style="fill:#ff7f0e;stroke:#ff7f0e;" x="255.877893" xlink:href="#m620260a498" y="92.174009"/>
     <use style="fill:#ff7f0e;stroke:#ff7f0e;" x="258.952273" xlink:href="#m620260a498" y="89.992138"/>
     <use style="fill:#ff7f0e;stroke:#ff7f0e;" x="262.026653" xlink:href="#m620260a498" y="87.790144"/>
     <use style="fill:#ff7f0e;stroke:#ff7f0e;" x="265.101033" xlink:href="#m620260a498" y="85.581399"/>
     <use style="fill:#ff7f0e;stroke:#ff7f0e;" x="268.175413" xlink:href="#m620260a498" y="83.369679"/>
     <use style="fill:#ff7f0e;stroke:#ff7f0e;" x="271.249793" xlink:href="#m620260a498" y="81.164652"/>
     <use style="fill:#ff7f0e;stroke:#ff7f0e;" x="274.324174" xlink:href="#m620260a498" y="78.981487"/>
     <use style="fill:#ff7f0e;stroke:#ff7f0e;" x="277.398554" xlink:href="#m620260a498" y="76.767448"/>
     <use style="fill:#ff7f0e;stroke:#ff7f0e;" x="280.472934" xlink:href="#m620260a498" y="74.557391"/>
     <use style="fill:#ff7f0e;stroke:#ff7f0e;" x="283.547314" xlink:href="#m620260a498" y="72.35067"/>
     <use style="fill:#ff7f0e;stroke:#ff7f0e;" x="286.621694" xlink:href="#m620260a498" y="70.135594"/>
     <use style="fill:#ff7f0e;stroke:#ff7f0e;" x="289.696074" xlink:href="#m620260a498" y="67.945314"/>
     <use style="fill:#ff7f0e;stroke:#ff7f0e;" x="292.770455" xlink:href="#m620260a498" y="65.736462"/>
     <use style="fill:#ff7f0e;stroke:#ff7f0e;" x="295.844835" xlink:href="#m620260a498" y="63.522461"/>
     <use style="fill:#ff7f0e;stroke:#ff7f0e;" x="298.919215" xlink:href="#m620260a498" y="61.303512"/>
     <use style="fill:#ff7f0e;stroke:#ff7f0e;" x="301.993595" xlink:href="#m620260a498" y="59.09131"/>
     <use style="fill:#ff7f0e;stroke:#ff7f0e;" x="305.067975" xlink:href="#m620260a498" y="56.904262"/>
     <use style="fill:#ff7f0e;stroke:#ff7f0e;" x="308.142355" xlink:href="#m620260a498" y="54.683143"/>
     <use style="fill:#ff7f0e;stroke:#ff7f0e;" x="311.216736" xlink:href="#m620260a498" y="52.466579"/>
     <use style="fill:#ff7f0e;stroke:#ff7f0e;" x="314.291116" xlink:href="#m620260a498" y="50.255988"/>
     <use style="fill:#ff7f0e;stroke:#ff7f0e;" x="317.365496" xlink:href="#m620260a498" y="48.036572"/>
     <use style="fill:#ff7f0e;stroke:#ff7f0e;" x="320.439876" xlink:href="#m620260a498" y="45.839809"/>
     <use style="fill:#ff7f0e;stroke:#ff7f0e;" x="323.514256" xlink:href="#m620260a498" y="43.628373"/>
     <use style="fill:#ff7f0e;stroke:#ff7f0e;" x="326.588636" xlink:href="#m620260a498" y="41.41322"/>
     <use style="fill:#ff7f0e;stroke:#ff7f0e;" x="329.663017" xlink:href="#m620260a498" y="39.188267"/>
     <use style="fill:#ff7f0e;stroke:#ff7f0e;" x="332.737397" xlink:href="#m620260a498" y="36.97354"/>
     <use style="fill:#ff7f0e;stroke:#ff7f0e;" x="335.811777" xlink:href="#m620260a498" y="34.786123"/>
     <use style="fill:#ff7f0e;stroke:#ff7f0e;" x="338.886157" xlink:href="#m620260a498" y="32.561749"/>
     <use style="fill:#ff7f0e;stroke:#ff7f0e;" x="341.960537" xlink:href="#m620260a498" y="30.341449"/>
     <use style="fill:#ff7f0e;stroke:#ff7f0e;" x="345.034917" xlink:href="#m620260a498" y="28.131139"/>
     <use style="fill:#ff7f0e;stroke:#ff7f0e;" x="348.109298" xlink:href="#m620260a498" y="25.910623"/>
     <use style="fill:#ff7f0e;stroke:#ff7f0e;" x="351.183678" xlink:href="#m620260a498" y="23.710603"/>
     <use style="fill:#ff7f0e;stroke:#ff7f0e;" x="354.258058" xlink:href="#m620260a498" y="21.500007"/>
     <use style="fill:#ff7f0e;stroke:#ff7f0e;" x="357.332438" xlink:href="#m620260a498" y="19.285169"/>
     <use style="fill:#ff7f0e;stroke:#ff7f0e;" x="360.406818" xlink:href="#m620260a498" y="17.083636"/>
    </g>
   </g>
   <g id="legend_1">
    <g id="patch_7">
     <path d="M 47.825 44.55625 
L 154.28125 44.55625 
Q 156.28125 44.55625 156.28125 42.55625 
L 156.28125 14.2 
Q 156.28125 12.2 154.28125 12.2 
L 47.825 12.2 
Q 45.825 12.2 45.825 14.2 
L 45.825 42.55625 
Q 45.825 44.55625 47.825 44.55625 
z
" style="fill:#ffffff;opacity:0.8;stroke:#cccccc;stroke-linejoin:miter;"/>
    </g>
    <g id="line2d_18">
     <path d="M 49.825 20.298437 
L 69.825 20.298437 
" style="fill:none;stroke:#1f77b4;stroke-linecap:square;stroke-width:1.5;"/>
    </g>
    <g id="line2d_19"/>
    <g id="text_19">
     <!-- center of mass -->
     <g transform="translate(77.825 23.798437)scale(0.1 -0.1)">
      <defs>
       <path d="M 48.78125 52.59375 
L 48.78125 44.1875 
Q 44.96875 46.296875 41.140625 47.34375 
Q 37.3125 48.390625 33.40625 48.390625 
Q 24.65625 48.390625 19.8125 42.84375 
Q 14.984375 37.3125 14.984375 27.296875 
Q 14.984375 17.28125 19.8125 11.734375 
Q 24.65625 6.203125 33.40625 6.203125 
Q 37.3125 6.203125 41.140625 7.25 
Q 44.96875 8.296875 48.78125 10.40625 
L 48.78125 2.09375 
Q 45.015625 0.34375 40.984375 -0.53125 
Q 36.96875 -1.421875 32.421875 -1.421875 
Q 20.0625 -1.421875 12.78125 6.34375 
Q 5.515625 14.109375 5.515625 27.296875 
Q 5.515625 40.671875 12.859375 48.328125 
Q 20.21875 56 33.015625 56 
Q 37.15625 56 41.109375 55.140625 
Q 45.0625 54.296875 48.78125 52.59375 
z
" id="DejaVuSans-99"/>
       <path d="M 56.203125 29.59375 
L 56.203125 25.203125 
L 14.890625 25.203125 
Q 15.484375 15.921875 20.484375 11.0625 
Q 25.484375 6.203125 34.421875 6.203125 
Q 39.59375 6.203125 44.453125 7.46875 
Q 49.3125 8.734375 54.109375 11.28125 
L 54.109375 2.78125 
Q 49.265625 0.734375 44.1875 -0.34375 
Q 39.109375 -1.421875 33.890625 -1.421875 
Q 20.796875 -1.421875 13.15625 6.1875 
Q 5.515625 13.8125 5.515625 26.8125 
Q 5.515625 40.234375 12.765625 48.109375 
Q 20.015625 56 32.328125 56 
Q 43.359375 56 49.78125 48.890625 
Q 56.203125 41.796875 56.203125 29.59375 
z
M 47.21875 32.234375 
Q 47.125 39.59375 43.09375 43.984375 
Q 39.0625 48.390625 32.421875 48.390625 
Q 24.90625 48.390625 20.390625 44.140625 
Q 15.875 39.890625 15.1875 32.171875 
z
" id="DejaVuSans-101"/>
       <path d="M 54.890625 33.015625 
L 54.890625 0 
L 45.90625 0 
L 45.90625 32.71875 
Q 45.90625 40.484375 42.875 44.328125 
Q 39.84375 48.1875 33.796875 48.1875 
Q 26.515625 48.1875 22.3125 43.546875 
Q 18.109375 38.921875 18.109375 30.90625 
L 18.109375 0 
L 9.078125 0 
L 9.078125 54.6875 
L 18.109375 54.6875 
L 18.109375 46.1875 
Q 21.34375 51.125 25.703125 53.5625 
Q 30.078125 56 35.796875 56 
Q 45.21875 56 50.046875 50.171875 
Q 54.890625 44.34375 54.890625 33.015625 
z
" id="DejaVuSans-110"/>
       <path d="M 18.3125 70.21875 
L 18.3125 54.6875 
L 36.8125 54.6875 
L 36.8125 47.703125 
L 18.3125 47.703125 
L 18.3125 18.015625 
Q 18.3125 11.328125 20.140625 9.421875 
Q 21.96875 7.515625 27.59375 7.515625 
L 36.8125 7.515625 
L 36.8125 0 
L 27.59375 0 
Q 17.1875 0 13.234375 3.875 
Q 9.28125 7.765625 9.28125 18.015625 
L 9.28125 47.703125 
L 2.6875 47.703125 
L 2.6875 54.6875 
L 9.28125 54.6875 
L 9.28125 70.21875 
z
" id="DejaVuSans-116"/>
       <path d="M 41.109375 46.296875 
Q 39.59375 47.171875 37.8125 47.578125 
Q 36.03125 48 33.890625 48 
Q 26.265625 48 22.1875 43.046875 
Q 18.109375 38.09375 18.109375 28.8125 
L 18.109375 0 
L 9.078125 0 
L 9.078125 54.6875 
L 18.109375 54.6875 
L 18.109375 46.1875 
Q 20.953125 51.171875 25.484375 53.578125 
Q 30.03125 56 36.53125 56 
Q 37.453125 56 38.578125 55.875 
Q 39.703125 55.765625 41.0625 55.515625 
z
" id="DejaVuSans-114"/>
       <path id="DejaVuSans-32"/>
       <path d="M 30.609375 48.390625 
Q 23.390625 48.390625 19.1875 42.75 
Q 14.984375 37.109375 14.984375 27.296875 
Q 14.984375 17.484375 19.15625 11.84375 
Q 23.34375 6.203125 30.609375 6.203125 
Q 37.796875 6.203125 41.984375 11.859375 
Q 46.1875 17.53125 46.1875 27.296875 
Q 46.1875 37.015625 41.984375 42.703125 
Q 37.796875 48.390625 30.609375 48.390625 
z
M 30.609375 56 
Q 42.328125 56 49.015625 48.375 
Q 55.71875 40.765625 55.71875 27.296875 
Q 55.71875 13.875 49.015625 6.21875 
Q 42.328125 -1.421875 30.609375 -1.421875 
Q 18.84375 -1.421875 12.171875 6.21875 
Q 5.515625 13.875 5.515625 27.296875 
Q 5.515625 40.765625 12.171875 48.375 
Q 18.84375 56 30.609375 56 
z
" id="DejaVuSans-111"/>
       <path d="M 37.109375 75.984375 
L 37.109375 68.5 
L 28.515625 68.5 
Q 23.6875 68.5 21.796875 66.546875 
Q 19.921875 64.59375 19.921875 59.515625 
L 19.921875 54.6875 
L 34.71875 54.6875 
L 34.71875 47.703125 
L 19.921875 47.703125 
L 19.921875 0 
L 10.890625 0 
L 10.890625 47.703125 
L 2.296875 47.703125 
L 2.296875 54.6875 
L 10.890625 54.6875 
L 10.890625 58.5 
Q 10.890625 67.625 15.140625 71.796875 
Q 19.390625 75.984375 28.609375 75.984375 
z
" id="DejaVuSans-102"/>
       <path d="M 52 44.1875 
Q 55.375 50.25 60.0625 53.125 
Q 64.75 56 71.09375 56 
Q 79.640625 56 84.28125 50.015625 
Q 88.921875 44.046875 88.921875 33.015625 
L 88.921875 0 
L 79.890625 0 
L 79.890625 32.71875 
Q 79.890625 40.578125 77.09375 44.375 
Q 74.3125 48.1875 68.609375 48.1875 
Q 61.625 48.1875 57.5625 43.546875 
Q 53.515625 38.921875 53.515625 30.90625 
L 53.515625 0 
L 44.484375 0 
L 44.484375 32.71875 
Q 44.484375 40.625 41.703125 44.40625 
Q 38.921875 48.1875 33.109375 48.1875 
Q 26.21875 48.1875 22.15625 43.53125 
Q 18.109375 38.875 18.109375 30.90625 
L 18.109375 0 
L 9.078125 0 
L 9.078125 54.6875 
L 18.109375 54.6875 
L 18.109375 46.1875 
Q 21.1875 51.21875 25.484375 53.609375 
Q 29.78125 56 35.6875 56 
Q 41.65625 56 45.828125 52.96875 
Q 50 49.953125 52 44.1875 
z
" id="DejaVuSans-109"/>
       <path d="M 34.28125 27.484375 
Q 23.390625 27.484375 19.1875 25 
Q 14.984375 22.515625 14.984375 16.5 
Q 14.984375 11.71875 18.140625 8.90625 
Q 21.296875 6.109375 26.703125 6.109375 
Q 34.1875 6.109375 38.703125 11.40625 
Q 43.21875 16.703125 43.21875 25.484375 
L 43.21875 27.484375 
z
M 52.203125 31.203125 
L 52.203125 0 
L 43.21875 0 
L 43.21875 8.296875 
Q 40.140625 3.328125 35.546875 0.953125 
Q 30.953125 -1.421875 24.3125 -1.421875 
Q 15.921875 -1.421875 10.953125 3.296875 
Q 6 8.015625 6 15.921875 
Q 6 25.140625 12.171875 29.828125 
Q 18.359375 34.515625 30.609375 34.515625 
L 43.21875 34.515625 
L 43.21875 35.40625 
Q 43.21875 41.609375 39.140625 45 
Q 35.0625 48.390625 27.6875 48.390625 
Q 23 48.390625 18.546875 47.265625 
Q 14.109375 46.140625 10.015625 43.890625 
L 10.015625 52.203125 
Q 14.9375 54.109375 19.578125 55.046875 
Q 24.21875 56 28.609375 56 
Q 40.484375 56 46.34375 49.84375 
Q 52.203125 43.703125 52.203125 31.203125 
z
" id="DejaVuSans-97"/>
       <path d="M 44.28125 53.078125 
L 44.28125 44.578125 
Q 40.484375 46.53125 36.375 47.5 
Q 32.28125 48.484375 27.875 48.484375 
Q 21.1875 48.484375 17.84375 46.4375 
Q 14.5 44.390625 14.5 40.28125 
Q 14.5 37.15625 16.890625 35.375 
Q 19.28125 33.59375 26.515625 31.984375 
L 29.59375 31.296875 
Q 39.15625 29.25 43.1875 25.515625 
Q 47.21875 21.78125 47.21875 15.09375 
Q 47.21875 7.46875 41.1875 3.015625 
Q 35.15625 -1.421875 24.609375 -1.421875 
Q 20.21875 -1.421875 15.453125 -0.5625 
Q 10.6875 0.296875 5.421875 2 
L 5.421875 11.28125 
Q 10.40625 8.6875 15.234375 7.390625 
Q 20.0625 6.109375 24.8125 6.109375 
Q 31.15625 6.109375 34.5625 8.28125 
Q 37.984375 10.453125 37.984375 14.40625 
Q 37.984375 18.0625 35.515625 20.015625 
Q 33.0625 21.96875 24.703125 23.78125 
L 21.578125 24.515625 
Q 13.234375 26.265625 9.515625 29.90625 
Q 5.8125 33.546875 5.8125 39.890625 
Q 5.8125 47.609375 11.28125 51.796875 
Q 16.75 56 26.8125 56 
Q 31.78125 56 36.171875 55.265625 
Q 40.578125 54.546875 44.28125 53.078125 
z
" id="DejaVuSans-115"/>
      </defs>
      <use xlink:href="#DejaVuSans-99"/>
      <use x="54.980469" xlink:href="#DejaVuSans-101"/>
      <use x="116.503906" xlink:href="#DejaVuSans-110"/>
      <use x="179.882812" xlink:href="#DejaVuSans-116"/>
      <use x="219.091797" xlink:href="#DejaVuSans-101"/>
      <use x="280.615234" xlink:href="#DejaVuSans-114"/>
      <use x="321.728516" xlink:href="#DejaVuSans-32"/>
      <use x="353.515625" xlink:href="#DejaVuSans-111"/>
      <use x="414.697266" xlink:href="#DejaVuSans-102"/>
      <use x="449.902344" xlink:href="#DejaVuSans-32"/>
      <use x="481.689453" xlink:href="#DejaVuSans-109"/>
      <use x="579.101562" xlink:href="#DejaVuSans-97"/>
      <use x="640.380859" xlink:href="#DejaVuSans-115"/>
      <use x="692.480469" xlink:href="#DejaVuSans-115"/>
     </g>
    </g>
    <g id="PathCollection_2">
     <g>
      <use style="fill:#ff7f0e;stroke:#ff7f0e;" x="59.825" xlink:href="#m620260a498" y="35.851562"/>
     </g>
    </g>
    <g id="text_20">
     <!-- write times -->
     <g transform="translate(77.825 38.476562)scale(0.1 -0.1)">
      <defs>
       <path d="M 4.203125 54.6875 
L 13.1875 54.6875 
L 24.421875 12.015625 
L 35.59375 54.6875 
L 46.1875 54.6875 
L 57.421875 12.015625 
L 68.609375 54.6875 
L 77.59375 54.6875 
L 63.28125 0 
L 52.6875 0 
L 40.921875 44.828125 
L 29.109375 0 
L 18.5 0 
z
" id="DejaVuSans-119"/>
       <path d="M 9.421875 54.6875 
L 18.40625 54.6875 
L 18.40625 0 
L 9.421875 0 
z
M 9.421875 75.984375 
L 18.40625 75.984375 
L 18.40625 64.59375 
L 9.421875 64.59375 
z
" id="DejaVuSans-105"/>
      </defs>
      <use xlink:href="#DejaVuSans-119"/>
      <use x="81.787109" xlink:href="#DejaVuSans-114"/>
      <use x="122.900391" xlink:href="#DejaVuSans-105"/>
      <use x="150.683594" xlink:href="#DejaVuSans-116"/>
      <use x="189.892578" xlink:href="#DejaVuSans-101"/>
      <use x="251.416016" xlink:href="#DejaVuSans-32"/>
      <use x="283.203125" xlink:href="#DejaVuSans-116"/>
      <use x="322.412109" xlink:href="#DejaVuSans-105"/>
      <use x="350.195312" xlink:href="#DejaVuSans-109"/>
      <use x="447.607422" xlink:href="#DejaVuSans-101"/>
      <use x="509.130859" xlink:href="#DejaVuSans-115"/>
     </g>
    </g>
   </g>
  </g>
 </g>
 <defs>
  <clipPath id="p052d03eaa5">
   <rect height="217.44" width="334.8" x="40.825" y="7.2"/>
  </clipPath>
 </defs>
</svg>
