<?xml version="1.0" encoding="utf-8" standalone="no"?>
<!DOCTYPE svg PUBLIC "-//W3C//DTD SVG 1.1//EN"
  "http://www.w3.org/Graphics/SVG/1.1/DTD/svg11.dtd">
<!-- Created with matplotlib (https://matplotlib.org/) -->
<svg height="262.19625pt" version="1.1" viewBox="0 0 390.029688 262.19625" width="390.029688pt" xmlns="http://www.w3.org/2000/svg" xmlns:xlink="http://www.w3.org/1999/xlink">
 <metadata>
  <rdf:RDF xmlns:cc="http://creativecommons.org/ns#" xmlns:dc="http://purl.org/dc/elements/1.1/" xmlns:rdf="http://www.w3.org/1999/02/22-rdf-syntax-ns#">
   <cc:Work>
    <dc:type rdf:resource="http://purl.org/dc/dcmitype/StillImage"/>
    <dc:date>2022-01-19T10:11:51.812540</dc:date>
    <dc:format>image/svg+xml</dc:format>
    <dc:creator>
     <cc:Agent>
      <dc:title>Matplotlib v3.3.3, https://matplotlib.org/</dc:title>
     </cc:Agent>
    </dc:creator>
   </cc:Work>
  </rdf:RDF>
 </metadata>
 <defs>
  <style type="text/css">*{stroke-linecap:butt;stroke-linejoin:round;}</style>
 </defs>
 <g id="figure_1">
  <g id="patch_1">
   <path d="M 0 262.19625 
L 390.029688 262.19625 
L 390.029688 -0 
L 0 -0 
z
" style="fill:none;"/>
  </g>
  <g id="axes_1">
   <g id="patch_2">
    <path d="M 41.667188 106.036364 
L 376.467188 106.036364 
L 376.467188 7.2 
L 41.667188 7.2 
z
" style="fill:#ffffff;"/>
   </g>
   <g id="matplotlib.axis_1">
    <g id="xtick_1">
     <g id="line2d_1">
      <defs>
       <path d="M 0 0 
L 0 3.5 
" id="m9bd47d767d" style="stroke:#000000;stroke-width:0.8;"/>
      </defs>
      <g>
       <use style="stroke:#000000;stroke-width:0.8;" x="41.667188" xlink:href="#m9bd47d767d" y="106.036364"/>
      </g>
     </g>
    </g>
    <g id="xtick_2">
     <g id="line2d_2">
      <g>
       <use style="stroke:#000000;stroke-width:0.8;" x="108.627188" xlink:href="#m9bd47d767d" y="106.036364"/>
      </g>
     </g>
    </g>
    <g id="xtick_3">
     <g id="line2d_3">
      <g>
       <use style="stroke:#000000;stroke-width:0.8;" x="175.587188" xlink:href="#m9bd47d767d" y="106.036364"/>
      </g>
     </g>
    </g>
    <g id="xtick_4">
     <g id="line2d_4">
      <g>
       <use style="stroke:#000000;stroke-width:0.8;" x="242.547188" xlink:href="#m9bd47d767d" y="106.036364"/>
      </g>
     </g>
    </g>
    <g id="xtick_5">
     <g id="line2d_5">
      <g>
       <use style="stroke:#000000;stroke-width:0.8;" x="309.507188" xlink:href="#m9bd47d767d" y="106.036364"/>
      </g>
     </g>
    </g>
    <g id="xtick_6">
     <g id="line2d_6">
      <g>
       <use style="stroke:#000000;stroke-width:0.8;" x="376.467188" xlink:href="#m9bd47d767d" y="106.036364"/>
      </g>
     </g>
    </g>
   </g>
   <g id="matplotlib.axis_2">
    <g id="ytick_1">
     <g id="line2d_7">
      <defs>
       <path d="M 0 0 
L -3.5 0 
" id="m27e489e2b6" style="stroke:#000000;stroke-width:0.8;"/>
      </defs>
      <g>
       <use style="stroke:#000000;stroke-width:0.8;" x="41.667188" xlink:href="#m27e489e2b6" y="100.712805"/>
      </g>
     </g>
     <g id="text_1">
      <!-- 2505 -->
      <g transform="translate(9.217188 104.512023)scale(0.1 -0.1)">
       <defs>
        <path d="M 19.1875 8.296875 
L 53.609375 8.296875 
L 53.609375 0 
L 7.328125 0 
L 7.328125 8.296875 
Q 12.9375 14.109375 22.625 23.890625 
Q 32.328125 33.6875 34.8125 36.53125 
Q 39.546875 41.84375 41.421875 45.53125 
Q 43.3125 49.21875 43.3125 52.78125 
Q 43.3125 58.59375 39.234375 62.25 
Q 35.15625 65.921875 28.609375 65.921875 
Q 23.96875 65.921875 18.8125 64.3125 
Q 13.671875 62.703125 7.8125 59.421875 
L 7.8125 69.390625 
Q 13.765625 71.78125 18.9375 73 
Q 24.125 74.21875 28.421875 74.21875 
Q 39.75 74.21875 46.484375 68.546875 
Q 53.21875 62.890625 53.21875 53.421875 
Q 53.21875 48.921875 51.53125 44.890625 
Q 49.859375 40.875 45.40625 35.40625 
Q 44.1875 33.984375 37.640625 27.21875 
Q 31.109375 20.453125 19.1875 8.296875 
z
" id="DejaVuSans-50"/>
        <path d="M 10.796875 72.90625 
L 49.515625 72.90625 
L 49.515625 64.59375 
L 19.828125 64.59375 
L 19.828125 46.734375 
Q 21.96875 47.46875 24.109375 47.828125 
Q 26.265625 48.1875 28.421875 48.1875 
Q 40.625 48.1875 47.75 41.5 
Q 54.890625 34.8125 54.890625 23.390625 
Q 54.890625 11.625 47.5625 5.09375 
Q 40.234375 -1.421875 26.90625 -1.421875 
Q 22.3125 -1.421875 17.546875 -0.640625 
Q 12.796875 0.140625 7.71875 1.703125 
L 7.71875 11.625 
Q 12.109375 9.234375 16.796875 8.0625 
Q 21.484375 6.890625 26.703125 6.890625 
Q 35.15625 6.890625 40.078125 11.328125 
Q 45.015625 15.765625 45.015625 23.390625 
Q 45.015625 31 40.078125 35.4375 
Q 35.15625 39.890625 26.703125 39.890625 
Q 22.75 39.890625 18.8125 39.015625 
Q 14.890625 38.140625 10.796875 36.28125 
z
" id="DejaVuSans-53"/>
        <path d="M 31.78125 66.40625 
Q 24.171875 66.40625 20.328125 58.90625 
Q 16.5 51.421875 16.5 36.375 
Q 16.5 21.390625 20.328125 13.890625 
Q 24.171875 6.390625 31.78125 6.390625 
Q 39.453125 6.390625 43.28125 13.890625 
Q 47.125 21.390625 47.125 36.375 
Q 47.125 51.421875 43.28125 58.90625 
Q 39.453125 66.40625 31.78125 66.40625 
z
M 31.78125 74.21875 
Q 44.046875 74.21875 50.515625 64.515625 
Q 56.984375 54.828125 56.984375 36.375 
Q 56.984375 17.96875 50.515625 8.265625 
Q 44.046875 -1.421875 31.78125 -1.421875 
Q 19.53125 -1.421875 13.0625 8.265625 
Q 6.59375 17.96875 6.59375 36.375 
Q 6.59375 54.828125 13.0625 64.515625 
Q 19.53125 74.21875 31.78125 74.21875 
z
" id="DejaVuSans-48"/>
       </defs>
       <use xlink:href="#DejaVuSans-50"/>
       <use x="63.623047" xlink:href="#DejaVuSans-53"/>
       <use x="127.246094" xlink:href="#DejaVuSans-48"/>
       <use x="190.869141" xlink:href="#DejaVuSans-53"/>
      </g>
     </g>
    </g>
    <g id="ytick_2">
     <g id="line2d_8">
      <g>
       <use style="stroke:#000000;stroke-width:0.8;" x="41.667188" xlink:href="#m27e489e2b6" y="75.462333"/>
      </g>
     </g>
     <g id="text_2">
      <!-- 2510 -->
      <g transform="translate(9.217188 79.261552)scale(0.1 -0.1)">
       <defs>
        <path d="M 12.40625 8.296875 
L 28.515625 8.296875 
L 28.515625 63.921875 
L 10.984375 60.40625 
L 10.984375 69.390625 
L 28.421875 72.90625 
L 38.28125 72.90625 
L 38.28125 8.296875 
L 54.390625 8.296875 
L 54.390625 0 
L 12.40625 0 
z
" id="DejaVuSans-49"/>
       </defs>
       <use xlink:href="#DejaVuSans-50"/>
       <use x="63.623047" xlink:href="#DejaVuSans-53"/>
       <use x="127.246094" xlink:href="#DejaVuSans-49"/>
       <use x="190.869141" xlink:href="#DejaVuSans-48"/>
      </g>
     </g>
    </g>
    <g id="ytick_3">
     <g id="line2d_9">
      <g>
       <use style="stroke:#000000;stroke-width:0.8;" x="41.667188" xlink:href="#m27e489e2b6" y="50.211861"/>
      </g>
     </g>
     <g id="text_3">
      <!-- 2515 -->
      <g transform="translate(9.217188 54.01108)scale(0.1 -0.1)">
       <use xlink:href="#DejaVuSans-50"/>
       <use x="63.623047" xlink:href="#DejaVuSans-53"/>
       <use x="127.246094" xlink:href="#DejaVuSans-49"/>
       <use x="190.869141" xlink:href="#DejaVuSans-53"/>
      </g>
     </g>
    </g>
    <g id="ytick_4">
     <g id="line2d_10">
      <g>
       <use style="stroke:#000000;stroke-width:0.8;" x="41.667188" xlink:href="#m27e489e2b6" y="24.961389"/>
      </g>
     </g>
     <g id="text_4">
      <!-- 2520 -->
      <g transform="translate(9.217188 28.760608)scale(0.1 -0.1)">
       <use xlink:href="#DejaVuSans-50"/>
       <use x="63.623047" xlink:href="#DejaVuSans-53"/>
       <use x="127.246094" xlink:href="#DejaVuSans-50"/>
       <use x="190.869141" xlink:href="#DejaVuSans-48"/>
      </g>
     </g>
    </g>
   </g>
   <g id="line2d_11">
    <path clip-path="url(#p4e1a03f6b6)" d="M 41.667188 11.692562 
L 42.504188 37.326476 
L 43.341187 73.180173 
L 44.178188 92.649422 
L 45.015187 81.364384 
L 45.852188 50.541054 
L 46.689188 27.148613 
L 47.526187 26.819419 
L 49.200187 73.125924 
L 50.037188 75.214513 
L 50.874188 50.813532 
L 51.711188 21.091212 
L 52.548188 12.503832 
L 53.385187 31.38867 
L 54.222188 66.600009 
L 55.059188 93.591383 
L 55.896187 91.695131 
L 57.570187 35.392004 
L 58.407188 27.345882 
L 59.244188 43.4147 
L 60.081187 70.20264 
L 60.918188 80.747917 
L 61.755187 63.259993 
L 62.592188 31.610598 
L 63.429188 14.338437 
L 64.266188 25.172221 
L 65.940187 89.809976 
L 66.777188 97.900484 
L 67.614188 76.121952 
L 68.451188 44.609412 
L 69.288188 28.919105 
L 70.125187 37.772798 
L 70.962187 64.029343 
L 71.799188 82.037566 
L 72.636188 73.165378 
L 73.473188 42.87221 
L 74.310187 18.224642 
L 75.147188 20.067877 
L 75.984188 46.860748 
L 76.821188 82.361827 
L 77.658188 100.013732 
L 78.495188 86.643804 
L 79.332188 54.953722 
L 80.169188 32.298575 
L 81.006188 33.293552 
L 82.680187 79.671567 
L 83.517188 80.099395 
L 84.354188 54.31383 
L 85.191188 24.539726 
L 86.028188 16.999106 
L 86.865187 36.919608 
L 87.702188 72.315887 
L 88.539188 98.223513 
L 89.376188 94.740476 
L 91.050187 37.823348 
L 91.887188 30.772203 
L 92.724188 47.702842 
L 93.561188 74.310773 
L 94.398188 83.722985 
L 95.235187 65.030485 
L 96.072188 33.10368 
L 96.909188 16.58854 
L 97.746188 28.371682 
L 99.420187 92.898474 
L 100.257188 99.756049 
L 101.094188 76.994869 
L 101.931188 45.510687 
L 102.768188 30.592195 
L 103.605187 40.28305 
L 104.442188 66.733166 
L 105.279188 83.983134 
L 106.116187 74.045693 
L 106.953188 43.28031 
L 107.790188 19.145643 
L 108.627188 21.881522 
L 109.464188 49.27853 
L 110.301187 84.592203 
L 111.138188 101.286119 
L 111.975188 86.917515 
L 112.812188 55.003039 
L 113.649188 32.929836 
L 114.486187 34.711425 
L 116.160188 81.085741 
L 116.997188 80.582704 
L 118.671188 24.654389 
L 119.508188 17.937369 
L 120.345188 38.549546 
L 121.182188 74.070351 
L 122.019188 99.270273 
L 122.856188 94.807055 
L 124.530188 37.808553 
L 125.367188 31.487304 
L 126.204188 49.02208 
L 127.041188 75.479594 
L 127.878188 84.09903 
L 128.715188 64.642111 
L 129.552188 32.723936 
L 130.389188 16.930062 
L 131.226188 29.470226 
L 132.900188 93.900849 
L 133.737188 99.839888 
L 134.574188 76.414157 
L 135.411188 45.082859 
L 136.248188 30.826452 
L 137.085188 41.185557 
L 137.922188 67.778693 
L 138.759188 84.402331 
L 139.596188 73.647455 
L 140.433188 42.618225 
L 141.270187 19.042077 
L 142.107188 22.573197 
L 142.944188 50.483106 
L 143.781188 85.630333 
L 144.618188 101.515444 
L 145.455187 86.338037 
L 146.292188 54.321227 
L 147.129188 32.806543 
L 147.966188 35.277341 
L 149.640187 81.622067 
L 150.477188 80.306527 
L 152.151188 24.214232 
L 152.988188 18.288755 
L 153.825187 39.532194 
L 154.662188 75.152867 
L 155.499188 99.698101 
L 156.336188 94.357034 
L 158.010188 37.399219 
L 158.847188 31.763481 
L 159.684188 49.844447 
L 160.521188 76.144145 
L 161.358188 84.021355 
L 162.195188 63.892488 
L 163.032188 32.034727 
L 163.869188 16.965817 
L 164.706188 30.226014 
L 166.380188 94.538275 
L 167.217188 99.608097 
L 168.054188 75.588092 
L 168.891188 44.442966 
L 169.728188 30.832617 
L 170.565188 41.831614 
L 171.402188 68.534481 
L 172.239188 84.551516 
L 173.076188 73.023591 
L 173.913188 41.785995 
L 174.750188 18.781928 
L 175.587188 23.092262 
L 176.424188 51.485481 
L 177.261188 86.456398 
L 178.098187 101.543802 
L 178.935188 85.59951 
L 179.772188 53.517355 
L 180.609188 32.564888 
L 181.446188 35.711334 
L 183.120188 81.990714 
L 183.957188 79.883631 
L 185.631188 23.695167 
L 186.468187 18.557534 
L 187.305188 40.410042 
L 188.142188 76.103458 
L 188.979188 99.995238 
L 189.816188 93.800981 
L 191.490188 36.93317 
L 192.327188 31.971847 
L 193.164188 50.587906 
L 194.001188 76.702664 
L 194.838188 83.845046 
L 195.675188 63.068888 
L 196.512188 31.309762 
L 197.349188 16.964584 
L 198.186188 30.93495 
L 199.860188 95.101726 
L 200.697188 99.304795 
L 201.534188 74.716408 
L 202.371188 43.779648 
L 203.208188 30.821521 
L 204.045188 42.444382 
L 204.882188 69.239719 
L 205.719188 84.637822 
L 206.556188 72.351642 
L 207.393188 40.931573 
L 208.230188 18.519313 
L 209.067188 23.596532 
L 209.904188 52.461964 
L 210.741188 87.23068 
L 211.578188 101.521609 
L 212.415188 84.828926 
L 213.252188 52.708551 
L 214.089188 32.326932 
L 214.926188 36.135463 
L 216.600188 82.322373 
L 217.437188 79.423747 
L 219.111188 23.178568 
L 219.948188 18.831245 
L 220.785188 41.282959 
L 221.622188 77.03309 
L 222.459188 100.259085 
L 223.296188 93.215338 
L 224.970188 36.475752 
L 225.807188 32.186378 
L 226.644188 51.322734 
L 227.481188 77.240222 
L 228.318188 83.637913 
L 229.155188 62.225562 
L 229.992188 30.590962 
L 230.829188 16.980612 
L 231.666188 31.647586 
L 233.340188 95.625722 
L 234.177188 98.968204 
L 235.014188 73.831162 
L 235.851188 43.124961 
L 236.688187 30.815356 
L 237.525188 43.062081 
L 238.362188 69.923997 
L 239.199188 84.694537 
L 240.036188 71.652569 
L 240.873188 40.078383 
L 241.710188 18.270261 
L 242.547188 24.11683 
L 242.547188 24.11683 
" style="fill:none;stroke:#1f77b4;stroke-linecap:square;stroke-width:1.5;"/>
   </g>
   <g id="line2d_12">
    <path clip-path="url(#p4e1a03f6b6)" d="M 41.667188 21.002441 
L 42.504188 47.982718 
L 43.341188 83.242141 
L 44.178188 99.754816 
L 45.015188 85.281413 
L 45.852188 53.507491 
L 46.689188 31.679642 
L 47.526188 33.6585 
L 49.200188 79.969937 
L 50.037188 79.252369 
L 51.711188 23.56201 
L 52.548188 17.186512 
L 53.385188 38.01322 
L 54.222188 73.546355 
L 55.059188 98.505854 
L 55.896188 93.768925 
L 57.570188 36.972624 
L 58.407188 30.921388 
L 59.244188 48.648502 
L 60.081188 75.013545 
L 60.918188 83.345708 
L 61.755188 63.686588 
L 62.592188 31.895405 
L 63.429188 16.461548 
L 64.266188 29.30378 
L 65.940188 93.645632 
L 66.777188 99.229586 
L 67.614188 75.611518 
L 68.451188 44.424472 
L 69.288188 30.467669 
L 70.125188 41.096786 
L 70.962188 67.707183 
L 71.799188 84.050945 
L 72.636188 72.981671 
L 73.473188 41.927783 
L 74.310188 18.663566 
L 75.147188 21.002441 
L 75.984188 47.982718 
L 76.821188 83.242141 
L 77.658188 99.754816 
L 78.495188 85.281413 
L 79.332188 53.507491 
L 80.169188 31.679642 
L 81.006188 33.6585 
L 82.680188 79.969937 
L 83.517188 79.252369 
L 85.191188 23.56201 
L 86.028188 17.186512 
L 86.865188 38.01322 
L 87.702188 73.546355 
L 88.539188 98.505854 
L 89.376188 93.768925 
L 91.050188 36.972624 
L 91.887188 30.921388 
L 92.724188 48.648502 
L 93.561188 75.013545 
L 94.398188 83.345708 
L 95.235188 63.686588 
L 96.072188 31.895405 
L 96.909188 16.461548 
L 97.746188 29.30378 
L 99.420188 93.645632 
L 100.257188 99.229586 
L 101.094188 75.611518 
L 101.931188 44.424472 
L 102.768188 30.467669 
L 103.605188 41.096786 
L 104.442188 67.707183 
L 105.279188 84.050945 
L 106.116188 72.981671 
L 106.953188 41.927783 
L 107.790188 18.663566 
L 108.627188 21.002441 
L 109.464188 47.982718 
L 110.301188 83.242141 
L 111.138188 99.754816 
L 111.975188 85.281413 
L 112.812188 53.507491 
L 113.649188 31.679642 
L 114.486188 33.6585 
L 116.160188 79.969937 
L 116.997188 79.252369 
L 118.671188 23.56201 
L 119.508188 17.186512 
L 120.345188 38.01322 
L 121.182188 73.546355 
L 122.019188 98.505854 
L 122.856188 93.768925 
L 124.530188 36.972624 
L 125.367188 30.921388 
L 126.204188 48.648502 
L 127.041188 75.013545 
L 127.878188 83.345708 
L 128.715188 63.686588 
L 129.552188 31.895405 
L 130.389188 16.461548 
L 131.226188 29.30378 
L 132.900188 93.645632 
L 133.737188 99.229586 
L 134.574188 75.611518 
L 135.411188 44.424472 
L 136.248188 30.467669 
L 137.085188 41.096786 
L 137.922188 67.707183 
L 138.759188 84.050945 
L 139.596188 72.981671 
L 140.433188 41.927783 
L 141.270188 18.663566 
L 142.107188 21.002441 
L 142.944188 47.982718 
L 143.781188 83.242141 
L 144.618188 99.754816 
L 145.455188 85.281413 
L 146.292188 53.507491 
L 147.129188 31.679642 
L 147.966188 33.6585 
L 149.640188 79.969937 
L 150.477188 79.252369 
L 152.151188 23.56201 
L 152.988188 17.186512 
L 153.825188 38.01322 
L 154.662188 73.546355 
L 155.499188 98.505854 
L 156.336188 93.768925 
L 158.010188 36.972624 
L 158.847188 30.921388 
L 159.684188 48.648502 
L 160.521188 75.013545 
L 161.358188 83.345708 
L 162.195188 63.686588 
L 163.032188 31.895405 
L 163.869188 16.461548 
L 164.706188 29.30378 
L 166.380188 93.645632 
L 167.217188 99.229586 
L 168.054188 75.611518 
L 168.891188 44.424472 
L 169.728188 30.467669 
L 170.565188 41.096786 
L 171.402188 67.707183 
L 172.239188 84.050945 
L 173.076188 72.981671 
L 173.913188 41.927783 
L 174.750188 18.663566 
L 175.587188 21.002441 
L 176.424188 47.982718 
L 177.261188 83.242141 
L 178.098188 99.754816 
L 178.935188 85.281413 
L 179.772188 53.507491 
L 180.609188 31.679642 
L 181.446188 33.6585 
L 183.120188 79.969937 
L 183.957188 79.252369 
L 185.631188 23.56201 
L 186.468188 17.186512 
L 187.305188 38.01322 
L 188.142188 73.546355 
L 188.979188 98.505854 
L 189.816188 93.768925 
L 191.490188 36.972624 
L 192.327188 30.921388 
L 193.164188 48.648502 
L 194.001188 75.013545 
L 194.838188 83.345708 
L 195.675188 63.686588 
L 196.512188 31.895405 
L 197.349188 16.461548 
L 198.186188 29.30378 
L 199.860188 93.645632 
L 200.697188 99.229586 
L 201.534188 75.611518 
L 202.371188 44.424472 
L 203.208188 30.467669 
L 204.045188 41.096786 
L 204.882188 67.707183 
L 205.719188 84.050945 
L 206.556188 72.981671 
L 207.393188 41.927783 
L 208.230188 18.663566 
L 209.067188 21.002441 
L 209.904188 47.982718 
L 210.741188 83.242141 
L 211.578188 99.754816 
L 212.415188 85.281413 
L 213.252188 53.507491 
L 214.089188 31.679642 
L 214.926188 33.6585 
L 216.600188 79.969937 
L 217.437188 79.252369 
L 219.111188 23.56201 
L 219.948188 17.186512 
L 220.785188 38.01322 
L 221.622188 73.546355 
L 222.459188 98.505854 
L 223.296188 93.768925 
L 224.970188 36.972624 
L 225.807188 30.921388 
L 226.644188 48.648502 
L 227.481188 75.013545 
L 228.318188 83.345708 
L 229.155188 63.686588 
L 229.992188 31.895405 
L 230.829188 16.461548 
L 231.666188 29.30378 
L 233.340188 93.645632 
L 234.177188 99.229586 
L 235.014188 75.611518 
L 235.851188 44.424472 
L 236.688188 30.467669 
L 237.525188 41.096786 
L 238.362188 67.707183 
L 239.199188 84.050945 
L 240.036188 72.981671 
L 240.873188 41.927783 
L 241.710188 18.663566 
L 242.547188 21.002441 
L 243.384188 47.982718 
L 244.221188 83.242141 
L 245.058188 99.754816 
L 245.895188 85.281413 
L 246.732188 53.507491 
L 247.569188 31.679642 
L 248.406188 33.6585 
L 250.080188 79.969937 
L 250.917188 79.252369 
L 252.591188 23.56201 
L 253.428188 17.186512 
L 254.265188 38.01322 
L 255.102188 73.546355 
L 255.939188 98.505854 
L 256.776188 93.768925 
L 258.450188 36.972624 
L 259.287188 30.921388 
L 260.124188 48.648502 
L 260.961188 75.013545 
L 261.798188 83.345708 
L 262.635188 63.686588 
L 263.472188 31.895405 
L 264.309188 16.461548 
L 265.146188 29.30378 
L 266.820188 93.645632 
L 267.657188 99.229586 
L 268.494188 75.611518 
L 269.331188 44.424472 
L 270.168188 30.467669 
L 271.005188 41.096786 
L 271.842188 67.707183 
L 272.679188 84.050945 
L 273.516188 72.981671 
L 274.353188 41.927783 
L 275.190188 18.663566 
L 276.027188 21.002441 
L 276.864188 47.982718 
L 277.701188 83.242141 
L 278.538188 99.754816 
L 279.375188 85.281413 
L 280.212188 53.507491 
L 281.049188 31.679642 
L 281.886188 33.6585 
L 283.560188 79.969937 
L 284.397188 79.252369 
L 286.071188 23.56201 
L 286.908188 17.186512 
L 287.745188 38.01322 
L 288.582188 73.546355 
L 289.419188 98.505854 
L 290.256188 93.768925 
L 291.930188 36.972624 
L 292.767188 30.921388 
L 293.604188 48.648502 
L 294.441188 75.013545 
L 295.278188 83.345708 
L 296.115188 63.686588 
L 296.952188 31.895405 
L 297.789188 16.461548 
L 298.626188 29.30378 
L 300.300188 93.645632 
L 301.137188 99.229586 
L 301.974188 75.611518 
L 302.811188 44.424472 
L 303.648188 30.467669 
L 304.485188 41.096786 
L 305.322188 67.707183 
L 306.159188 84.050945 
L 306.996188 72.981671 
L 307.833188 41.927783 
L 308.670188 18.663566 
L 309.507188 21.002441 
L 310.344188 47.982718 
L 311.181188 83.242141 
L 312.018188 99.754816 
L 312.855188 85.281413 
L 313.692188 53.507491 
L 314.529188 31.679642 
L 315.366188 33.6585 
L 317.040188 79.969937 
L 317.877188 79.252369 
L 319.551188 23.56201 
L 320.388188 17.186512 
L 321.225188 38.01322 
L 322.062188 73.546355 
L 322.899188 98.505854 
L 323.736188 93.768925 
L 325.410188 36.972624 
L 326.247188 30.921388 
L 327.084188 48.648502 
L 327.921188 75.013545 
L 328.758188 83.345708 
L 329.595188 63.686588 
L 330.432188 31.895405 
L 331.269188 16.461548 
L 332.106188 29.30378 
L 333.780188 93.645632 
L 334.617188 99.229586 
L 335.454188 75.611518 
L 336.291188 44.424472 
L 337.128188 30.467669 
L 337.965188 41.096786 
L 338.802188 67.707183 
L 339.639188 84.050945 
L 340.476188 72.981671 
L 341.313188 41.927783 
L 342.150188 18.663566 
L 342.987188 21.002441 
L 343.824188 47.982718 
L 344.661188 83.242141 
L 345.498188 99.754816 
L 346.335188 85.281413 
L 347.172188 53.507491 
L 348.009188 31.679642 
L 348.846188 33.6585 
L 350.520188 79.969937 
L 351.357188 79.252369 
L 353.031188 23.56201 
L 353.868188 17.186512 
L 354.705188 38.01322 
L 355.542188 73.546355 
L 356.379188 98.505854 
L 357.216188 93.768925 
L 358.890188 36.972624 
L 359.727188 30.921388 
L 360.564188 48.648502 
L 361.401188 75.013545 
L 362.238188 83.345708 
L 363.075188 63.686588 
L 363.912188 31.895405 
L 364.749188 16.461548 
L 365.586188 29.30378 
L 367.260188 93.645632 
L 368.097188 99.229586 
L 368.934188 75.611518 
L 369.771188 44.424472 
L 370.608188 30.467669 
L 371.445188 41.096786 
L 372.282188 67.707183 
L 373.119188 84.050945 
L 373.956188 72.981671 
L 374.793188 41.927783 
L 375.630188 18.663566 
L 376.467188 21.002441 
L 376.467188 21.002441 
" style="fill:none;stroke:#ff7f0e;stroke-dasharray:5.55,2.4;stroke-dashoffset:0;stroke-width:1.5;"/>
   </g>
   <g id="patch_3">
    <path d="M 41.667188 106.036364 
L 41.667188 7.2 
" style="fill:none;stroke:#000000;stroke-linecap:square;stroke-linejoin:miter;stroke-width:0.8;"/>
   </g>
   <g id="patch_4">
    <path d="M 376.467188 106.036364 
L 376.467188 7.2 
" style="fill:none;stroke:#000000;stroke-linecap:square;stroke-linejoin:miter;stroke-width:0.8;"/>
   </g>
   <g id="patch_5">
    <path d="M 41.667188 106.036364 
L 376.467188 106.036364 
" style="fill:none;stroke:#000000;stroke-linecap:square;stroke-linejoin:miter;stroke-width:0.8;"/>
   </g>
   <g id="patch_6">
    <path d="M 41.667188 7.2 
L 376.467188 7.2 
" style="fill:none;stroke:#000000;stroke-linecap:square;stroke-linejoin:miter;stroke-width:0.8;"/>
   </g>
   <g id="legend_1">
    <g id="patch_7">
     <path d="M 267.567187 31.2 
L 369.467188 31.2 
Q 371.467188 31.2 371.467188 29.2 
L 371.467188 14.2 
Q 371.467188 12.2 369.467188 12.2 
L 267.567187 12.2 
Q 265.567187 12.2 265.567187 14.2 
L 265.567187 29.2 
Q 265.567187 31.2 267.567187 31.2 
z
" style="fill:#ffffff;opacity:0.8;stroke:#cccccc;stroke-linejoin:miter;"/>
    </g>
    <g id="line2d_13">
     <path d="M 269.567187 21.620312 
L 289.567187 21.620312 
" style="fill:none;stroke:#1f77b4;stroke-linecap:square;stroke-width:1.5;"/>
    </g>
    <g id="line2d_14"/>
    <g id="text_5">
     <!-- $a_1$ -->
     <g transform="translate(297.567187 25.120312)scale(0.1 -0.1)">
      <defs>
       <path d="M 53.71875 31.203125 
L 47.609375 0 
L 38.625 0 
L 40.28125 8.296875 
Q 36.328125 3.421875 31.265625 1 
Q 26.21875 -1.421875 20.015625 -1.421875 
Q 13.03125 -1.421875 8.5625 2.84375 
Q 4.109375 7.125 4.109375 13.8125 
Q 4.109375 23.390625 11.75 28.953125 
Q 19.390625 34.515625 32.8125 34.515625 
L 45.3125 34.515625 
L 45.796875 36.921875 
Q 45.90625 37.3125 45.953125 37.765625 
Q 46 38.234375 46 39.203125 
Q 46 43.5625 42.453125 45.96875 
Q 38.921875 48.390625 32.515625 48.390625 
Q 28.125 48.390625 23.5 47.265625 
Q 18.890625 46.140625 14.015625 43.890625 
L 15.578125 52.203125 
Q 20.65625 54.109375 25.515625 55.046875 
Q 30.375 56 34.90625 56 
Q 44.578125 56 49.625 51.796875 
Q 54.6875 47.609375 54.6875 39.59375 
Q 54.6875 37.984375 54.4375 35.8125 
Q 54.203125 33.640625 53.71875 31.203125 
z
M 44 27.484375 
L 35.015625 27.484375 
Q 23.96875 27.484375 18.671875 24.53125 
Q 13.375 21.578125 13.375 15.375 
Q 13.375 11.078125 16.078125 8.640625 
Q 18.796875 6.203125 23.578125 6.203125 
Q 30.90625 6.203125 36.375 11.453125 
Q 41.84375 16.703125 43.609375 25.484375 
z
" id="DejaVuSans-Oblique-97"/>
      </defs>
      <use xlink:href="#DejaVuSans-Oblique-97"/>
      <use transform="translate(61.279297 -16.40625)scale(0.7)" xlink:href="#DejaVuSans-49"/>
     </g>
    </g>
    <g id="line2d_15">
     <path d="M 328.467187 21.620312 
L 348.467187 21.620312 
" style="fill:none;stroke:#ff7f0e;stroke-dasharray:5.55,2.4;stroke-dashoffset:0;stroke-width:1.5;"/>
    </g>
    <g id="line2d_16"/>
    <g id="text_6">
     <!-- $\hat{a}_1$ -->
     <g transform="translate(356.467187 25.120312)scale(0.1 -0.1)">
      <defs>
       <path d="M -28.609375 79.984375 
L -21.390625 79.984375 
L -9.421875 61.625 
L -16.21875 61.625 
L -25 73.578125 
L -33.796875 61.625 
L -40.578125 61.625 
z
M -25 56 
z
" id="DejaVuSans-770"/>
      </defs>
      <use transform="translate(62.897949 13.015625)" xlink:href="#DejaVuSans-770"/>
      <use transform="translate(0 0.515625)" xlink:href="#DejaVuSans-Oblique-97"/>
      <use transform="translate(62.236328 -15.890625)scale(0.7)" xlink:href="#DejaVuSans-49"/>
     </g>
    </g>
   </g>
  </g>
  <g id="axes_2">
   <g id="patch_8">
    <path d="M 41.667188 224.64 
L 376.467188 224.64 
L 376.467188 125.803636 
L 41.667188 125.803636 
z
" style="fill:#ffffff;"/>
   </g>
   <g id="matplotlib.axis_3">
    <g id="xtick_7">
     <g id="line2d_17">
      <g>
       <use style="stroke:#000000;stroke-width:0.8;" x="41.667188" xlink:href="#m9bd47d767d" y="224.64"/>
      </g>
     </g>
     <g id="text_7">
      <!-- 0 -->
      <g transform="translate(38.485938 239.238437)scale(0.1 -0.1)">
       <use xlink:href="#DejaVuSans-48"/>
      </g>
     </g>
    </g>
    <g id="xtick_8">
     <g id="line2d_18">
      <g>
       <use style="stroke:#000000;stroke-width:0.8;" x="108.627188" xlink:href="#m9bd47d767d" y="224.64"/>
      </g>
     </g>
     <g id="text_8">
      <!-- 2 -->
      <g transform="translate(105.445938 239.238437)scale(0.1 -0.1)">
       <use xlink:href="#DejaVuSans-50"/>
      </g>
     </g>
    </g>
    <g id="xtick_9">
     <g id="line2d_19">
      <g>
       <use style="stroke:#000000;stroke-width:0.8;" x="175.587188" xlink:href="#m9bd47d767d" y="224.64"/>
      </g>
     </g>
     <g id="text_9">
      <!-- 4 -->
      <g transform="translate(172.405938 239.238437)scale(0.1 -0.1)">
       <defs>
        <path d="M 37.796875 64.3125 
L 12.890625 25.390625 
L 37.796875 25.390625 
z
M 35.203125 72.90625 
L 47.609375 72.90625 
L 47.609375 25.390625 
L 58.015625 25.390625 
L 58.015625 17.1875 
L 47.609375 17.1875 
L 47.609375 0 
L 37.796875 0 
L 37.796875 17.1875 
L 4.890625 17.1875 
L 4.890625 26.703125 
z
" id="DejaVuSans-52"/>
       </defs>
       <use xlink:href="#DejaVuSans-52"/>
      </g>
     </g>
    </g>
    <g id="xtick_10">
     <g id="line2d_20">
      <g>
       <use style="stroke:#000000;stroke-width:0.8;" x="242.547188" xlink:href="#m9bd47d767d" y="224.64"/>
      </g>
     </g>
     <g id="text_10">
      <!-- 6 -->
      <g transform="translate(239.365938 239.238437)scale(0.1 -0.1)">
       <defs>
        <path d="M 33.015625 40.375 
Q 26.375 40.375 22.484375 35.828125 
Q 18.609375 31.296875 18.609375 23.390625 
Q 18.609375 15.53125 22.484375 10.953125 
Q 26.375 6.390625 33.015625 6.390625 
Q 39.65625 6.390625 43.53125 10.953125 
Q 47.40625 15.53125 47.40625 23.390625 
Q 47.40625 31.296875 43.53125 35.828125 
Q 39.65625 40.375 33.015625 40.375 
z
M 52.59375 71.296875 
L 52.59375 62.3125 
Q 48.875 64.0625 45.09375 64.984375 
Q 41.3125 65.921875 37.59375 65.921875 
Q 27.828125 65.921875 22.671875 59.328125 
Q 17.53125 52.734375 16.796875 39.40625 
Q 19.671875 43.65625 24.015625 45.921875 
Q 28.375 48.1875 33.59375 48.1875 
Q 44.578125 48.1875 50.953125 41.515625 
Q 57.328125 34.859375 57.328125 23.390625 
Q 57.328125 12.15625 50.6875 5.359375 
Q 44.046875 -1.421875 33.015625 -1.421875 
Q 20.359375 -1.421875 13.671875 8.265625 
Q 6.984375 17.96875 6.984375 36.375 
Q 6.984375 53.65625 15.1875 63.9375 
Q 23.390625 74.21875 37.203125 74.21875 
Q 40.921875 74.21875 44.703125 73.484375 
Q 48.484375 72.75 52.59375 71.296875 
z
" id="DejaVuSans-54"/>
       </defs>
       <use xlink:href="#DejaVuSans-54"/>
      </g>
     </g>
    </g>
    <g id="xtick_11">
     <g id="line2d_21">
      <g>
       <use style="stroke:#000000;stroke-width:0.8;" x="309.507188" xlink:href="#m9bd47d767d" y="224.64"/>
      </g>
     </g>
     <g id="text_11">
      <!-- 8 -->
      <g transform="translate(306.325938 239.238437)scale(0.1 -0.1)">
       <defs>
        <path d="M 31.78125 34.625 
Q 24.75 34.625 20.71875 30.859375 
Q 16.703125 27.09375 16.703125 20.515625 
Q 16.703125 13.921875 20.71875 10.15625 
Q 24.75 6.390625 31.78125 6.390625 
Q 38.8125 6.390625 42.859375 10.171875 
Q 46.921875 13.96875 46.921875 20.515625 
Q 46.921875 27.09375 42.890625 30.859375 
Q 38.875 34.625 31.78125 34.625 
z
M 21.921875 38.8125 
Q 15.578125 40.375 12.03125 44.71875 
Q 8.5 49.078125 8.5 55.328125 
Q 8.5 64.0625 14.71875 69.140625 
Q 20.953125 74.21875 31.78125 74.21875 
Q 42.671875 74.21875 48.875 69.140625 
Q 55.078125 64.0625 55.078125 55.328125 
Q 55.078125 49.078125 51.53125 44.71875 
Q 48 40.375 41.703125 38.8125 
Q 48.828125 37.15625 52.796875 32.3125 
Q 56.78125 27.484375 56.78125 20.515625 
Q 56.78125 9.90625 50.3125 4.234375 
Q 43.84375 -1.421875 31.78125 -1.421875 
Q 19.734375 -1.421875 13.25 4.234375 
Q 6.78125 9.90625 6.78125 20.515625 
Q 6.78125 27.484375 10.78125 32.3125 
Q 14.796875 37.15625 21.921875 38.8125 
z
M 18.3125 54.390625 
Q 18.3125 48.734375 21.84375 45.5625 
Q 25.390625 42.390625 31.78125 42.390625 
Q 38.140625 42.390625 41.71875 45.5625 
Q 45.3125 48.734375 45.3125 54.390625 
Q 45.3125 60.0625 41.71875 63.234375 
Q 38.140625 66.40625 31.78125 66.40625 
Q 25.390625 66.40625 21.84375 63.234375 
Q 18.3125 60.0625 18.3125 54.390625 
z
" id="DejaVuSans-56"/>
       </defs>
       <use xlink:href="#DejaVuSans-56"/>
      </g>
     </g>
    </g>
    <g id="xtick_12">
     <g id="line2d_22">
      <g>
       <use style="stroke:#000000;stroke-width:0.8;" x="376.467188" xlink:href="#m9bd47d767d" y="224.64"/>
      </g>
     </g>
     <g id="text_12">
      <!-- 10 -->
      <g transform="translate(370.104688 239.238437)scale(0.1 -0.1)">
       <use xlink:href="#DejaVuSans-49"/>
       <use x="63.623047" xlink:href="#DejaVuSans-48"/>
      </g>
     </g>
    </g>
    <g id="text_13">
     <!-- $t$ in $s$ -->
     <g transform="translate(196.717188 252.916562)scale(0.1 -0.1)">
      <defs>
       <path d="M 42.28125 54.6875 
L 40.921875 47.703125 
L 23 47.703125 
L 17.1875 18.015625 
Q 16.890625 16.359375 16.75 15.234375 
Q 16.609375 14.109375 16.609375 13.484375 
Q 16.609375 10.359375 18.484375 8.9375 
Q 20.359375 7.515625 24.515625 7.515625 
L 33.59375 7.515625 
L 32.078125 0 
L 23.484375 0 
Q 15.484375 0 11.546875 3.125 
Q 7.625 6.25 7.625 12.59375 
Q 7.625 13.71875 7.765625 15.0625 
Q 7.90625 16.40625 8.203125 18.015625 
L 14.015625 47.703125 
L 6.390625 47.703125 
L 7.8125 54.6875 
L 15.28125 54.6875 
L 18.3125 70.21875 
L 27.296875 70.21875 
L 24.3125 54.6875 
z
" id="DejaVuSans-Oblique-116"/>
       <path id="DejaVuSans-32"/>
       <path d="M 9.421875 54.6875 
L 18.40625 54.6875 
L 18.40625 0 
L 9.421875 0 
z
M 9.421875 75.984375 
L 18.40625 75.984375 
L 18.40625 64.59375 
L 9.421875 64.59375 
z
" id="DejaVuSans-105"/>
       <path d="M 54.890625 33.015625 
L 54.890625 0 
L 45.90625 0 
L 45.90625 32.71875 
Q 45.90625 40.484375 42.875 44.328125 
Q 39.84375 48.1875 33.796875 48.1875 
Q 26.515625 48.1875 22.3125 43.546875 
Q 18.109375 38.921875 18.109375 30.90625 
L 18.109375 0 
L 9.078125 0 
L 9.078125 54.6875 
L 18.109375 54.6875 
L 18.109375 46.1875 
Q 21.34375 51.125 25.703125 53.5625 
Q 30.078125 56 35.796875 56 
Q 45.21875 56 50.046875 50.171875 
Q 54.890625 44.34375 54.890625 33.015625 
z
" id="DejaVuSans-110"/>
       <path d="M 50 53.078125 
L 48.296875 44.578125 
Q 44.734375 46.53125 40.765625 47.5 
Q 36.8125 48.484375 32.625 48.484375 
Q 25.53125 48.484375 21.453125 46.0625 
Q 17.390625 43.65625 17.390625 39.5 
Q 17.390625 34.671875 26.859375 32.078125 
Q 27.59375 31.890625 27.9375 31.78125 
L 30.8125 30.90625 
Q 39.796875 28.421875 42.796875 25.6875 
Q 45.796875 22.953125 45.796875 18.21875 
Q 45.796875 9.515625 38.890625 4.046875 
Q 31.984375 -1.421875 20.796875 -1.421875 
Q 16.453125 -1.421875 11.671875 -0.578125 
Q 6.890625 0.25 1.125 2 
L 2.875 11.28125 
Q 7.8125 8.734375 12.59375 7.421875 
Q 17.390625 6.109375 21.78125 6.109375 
Q 28.375 6.109375 32.5 8.9375 
Q 36.625 11.765625 36.625 16.109375 
Q 36.625 20.796875 25.78125 23.6875 
L 24.859375 23.921875 
L 21.78125 24.703125 
Q 14.9375 26.515625 11.765625 29.46875 
Q 8.59375 32.421875 8.59375 37.015625 
Q 8.59375 45.75 15.15625 50.875 
Q 21.734375 56 33.015625 56 
Q 37.453125 56 41.671875 55.265625 
Q 45.90625 54.546875 50 53.078125 
z
" id="DejaVuSans-Oblique-115"/>
      </defs>
      <use transform="translate(0 0.015625)" xlink:href="#DejaVuSans-Oblique-116"/>
      <use transform="translate(39.208984 0.015625)" xlink:href="#DejaVuSans-32"/>
      <use transform="translate(70.996094 0.015625)" xlink:href="#DejaVuSans-105"/>
      <use transform="translate(98.779297 0.015625)" xlink:href="#DejaVuSans-110"/>
      <use transform="translate(162.158203 0.015625)" xlink:href="#DejaVuSans-32"/>
      <use transform="translate(193.945312 0.015625)" xlink:href="#DejaVuSans-Oblique-115"/>
     </g>
    </g>
   </g>
   <g id="matplotlib.axis_4">
    <g id="ytick_5">
     <g id="line2d_23">
      <g>
       <use style="stroke:#000000;stroke-width:0.8;" x="41.667188" xlink:href="#m27e489e2b6" y="202.017019"/>
      </g>
     </g>
     <g id="text_14">
      <!-- −500 -->
      <g transform="translate(7.2 205.816238)scale(0.1 -0.1)">
       <defs>
        <path d="M 10.59375 35.5 
L 73.1875 35.5 
L 73.1875 27.203125 
L 10.59375 27.203125 
z
" id="DejaVuSans-8722"/>
       </defs>
       <use xlink:href="#DejaVuSans-8722"/>
       <use x="83.789062" xlink:href="#DejaVuSans-53"/>
       <use x="147.412109" xlink:href="#DejaVuSans-48"/>
       <use x="211.035156" xlink:href="#DejaVuSans-48"/>
      </g>
     </g>
    </g>
    <g id="ytick_6">
     <g id="line2d_24">
      <g>
       <use style="stroke:#000000;stroke-width:0.8;" x="41.667188" xlink:href="#m27e489e2b6" y="175.223648"/>
      </g>
     </g>
     <g id="text_15">
      <!-- 0 -->
      <g transform="translate(28.304688 179.022867)scale(0.1 -0.1)">
       <use xlink:href="#DejaVuSans-48"/>
      </g>
     </g>
    </g>
    <g id="ytick_7">
     <g id="line2d_25">
      <g>
       <use style="stroke:#000000;stroke-width:0.8;" x="41.667188" xlink:href="#m27e489e2b6" y="148.430277"/>
      </g>
     </g>
     <g id="text_16">
      <!-- 500 -->
      <g transform="translate(15.579688 152.229496)scale(0.1 -0.1)">
       <use xlink:href="#DejaVuSans-53"/>
       <use x="63.623047" xlink:href="#DejaVuSans-48"/>
       <use x="127.246094" xlink:href="#DejaVuSans-48"/>
      </g>
     </g>
    </g>
   </g>
   <g id="line2d_26">
    <path clip-path="url(#pc2bf2d0ed6)" d="M 41.667188 179.747826 
L 42.504188 199.428775 
L 43.341187 213.926326 
L 44.178188 219.949771 
L 45.015187 216.027846 
L 45.852188 203.47592 
L 48.363188 145.464661 
L 49.200187 133.421263 
L 50.037188 130.678864 
L 50.874188 137.627119 
L 51.711188 152.589672 
L 53.385187 193.473541 
L 54.222188 210.04534 
L 55.059188 219.148764 
L 55.896187 218.412338 
L 56.733188 208.433377 
L 57.570187 191.272773 
L 59.244188 150.860217 
L 60.081187 136.376563 
L 60.918188 130.405691 
L 61.755187 134.34637 
L 62.592188 146.940242 
L 65.103188 205.339185 
L 65.940187 217.247458 
L 66.777188 219.783925 
L 67.614188 212.604486 
L 68.451188 197.486496 
L 70.125187 156.80915 
L 70.962187 140.27511 
L 71.799188 131.227922 
L 72.636188 131.999821 
L 73.473188 141.994468 
L 74.310187 159.269295 
L 75.984188 199.950858 
L 76.821188 214.314346 
L 77.658188 220.09689 
L 78.495188 215.922975 
L 79.332188 203.14203 
L 81.843188 144.98413 
L 82.680187 133.1267 
L 83.517188 130.643822 
L 84.354188 137.834912 
L 85.191188 153.016928 
L 86.865187 194.003231 
L 87.702188 210.449912 
L 88.539188 219.32573 
L 89.376188 218.326388 
L 90.213188 208.119229 
L 91.050187 190.772085 
L 92.724188 150.364652 
L 93.561188 136.046621 
L 94.398188 130.329919 
L 95.235187 134.525073 
L 96.072188 147.336854 
L 98.583188 205.778417 
L 99.420187 217.480255 
L 100.257188 219.74939 
L 101.094188 212.329667 
L 101.931188 197.016471 
L 103.605187 156.288398 
L 104.442188 139.89633 
L 105.279188 131.088323 
L 106.116187 132.125536 
L 106.953188 142.346932 
L 107.790188 159.794209 
L 109.464188 200.428995 
L 110.301187 214.611866 
L 111.138188 220.133024 
L 111.975188 215.703644 
L 112.812188 202.71472 
L 115.323188 144.55558 
L 116.160188 132.913671 
L 116.997188 130.699983 
L 117.834188 138.131693 
L 118.671188 153.504981 
L 120.345188 194.518375 
L 121.182188 210.811302 
L 122.019188 219.442061 
L 122.856188 218.175267 
L 123.693188 207.745159 
L 124.530188 190.239217 
L 126.204188 149.891275 
L 127.041188 135.759413 
L 127.878188 130.305968 
L 128.715188 134.756467 
L 129.552188 147.776073 
L 132.063188 206.197446 
L 132.900188 217.6792 
L 133.737188 219.676628 
L 134.574188 212.017423 
L 135.411188 196.520919 
L 137.085188 155.776913 
L 137.922188 139.540212 
L 138.759188 130.979403 
L 139.596188 132.283366 
L 140.433188 142.728146 
L 141.270187 160.33475 
L 142.944188 200.897642 
L 143.781188 214.89004 
L 144.618188 220.145407 
L 145.455187 215.46057 
L 146.292188 202.268331 
L 148.803188 144.139249 
L 149.640187 132.719657 
L 150.477188 130.776854 
L 151.314188 138.447741 
L 152.151188 154.006108 
L 153.825187 195.028648 
L 154.662188 211.161176 
L 155.499188 219.542536 
L 156.336188 218.008053 
L 157.173188 207.356884 
L 158.010188 189.698921 
L 159.684188 149.424639 
L 160.521188 135.484631 
L 161.358188 130.296797 
L 162.195188 135.00183 
L 163.032188 148.226352 
L 165.543188 206.609181 
L 166.380188 217.866512 
L 167.217188 219.591446 
L 168.054188 211.69412 
L 168.891188 196.018012 
L 170.565188 155.269467 
L 171.402188 139.192484 
L 172.239188 130.881715 
L 173.076188 132.452044 
L 173.913188 143.118615 
L 174.750188 160.880125 
L 176.424188 201.361406 
L 177.261188 215.159429 
L 178.098187 220.147438 
L 178.935188 215.208159 
L 179.772188 201.814751 
L 182.283187 143.728835 
L 183.120188 132.534773 
L 183.957188 130.863261 
L 184.794188 138.772133 
L 185.631188 154.512838 
L 187.305188 195.535525 
L 188.142188 211.504352 
L 188.979188 219.63407 
L 189.816188 217.832477 
L 190.653188 206.961881 
L 191.490188 189.155295 
L 193.164188 148.962439 
L 194.001188 135.217436 
L 194.838188 130.296198 
L 195.675188 135.254584 
L 196.512188 148.682155 
L 199.023188 207.015772 
L 199.860188 218.046189 
L 200.697188 219.498559 
L 201.534188 211.364478 
L 202.371188 195.51108 
L 204.045188 154.765339 
L 204.882188 138.850993 
L 205.719188 130.792026 
L 206.556188 132.627954 
L 207.393188 143.514825 
L 208.230188 161.428292 
L 209.904188 201.820964 
L 210.741188 215.421924 
L 211.578188 220.141708 
L 212.415188 214.949298 
L 213.252188 201.35647 
L 215.763188 143.323461 
L 216.600188 132.357332 
L 217.437188 130.957042 
L 218.274188 139.102468 
L 219.111188 155.023409 
L 220.785188 196.038994 
L 221.622188 211.841467 
L 222.459188 219.717812 
L 223.296188 217.649931 
L 224.133188 206.561508 
L 224.970188 188.60915 
L 226.644188 148.504206 
L 227.481188 134.95694 
L 228.318188 130.303116 
L 229.155188 135.513727 
L 229.992188 149.142817 
L 232.503188 207.417388 
L 233.340188 218.218433 
L 234.177188 219.39829 
L 235.014188 211.028897 
L 235.851188 195.000337 
L 237.525188 154.264319 
L 238.362188 138.515418 
L 239.199188 130.709929 
L 240.036188 132.810742 
L 240.873188 143.91651 
L 241.710188 161.979113 
L 242.547188 183.140777 
L 242.547188 183.140777 
" style="fill:none;stroke:#1f77b4;stroke-linecap:square;stroke-width:1.5;"/>
   </g>
   <g id="line2d_27">
    <path clip-path="url(#pc2bf2d0ed6)" d="M 41.667188 181.443646 
L 42.504188 200.648108 
L 43.341188 214.720655 
L 44.178188 220.102375 
L 45.015188 215.545415 
L 45.852188 202.462039 
L 48.363188 144.365986 
L 49.200188 132.845569 
L 50.037188 130.769972 
L 50.874188 138.319344 
L 51.711188 153.775656 
L 53.385188 194.766384 
L 54.222188 210.968926 
L 55.059188 219.468495 
L 55.896188 218.067406 
L 56.733188 207.529677 
L 57.570188 189.957906 
L 59.244188 149.667904 
L 60.081188 135.640262 
L 60.918188 130.322949 
L 61.755188 134.899674 
L 62.592188 148.017415 
L 65.103188 206.392898 
L 65.940188 217.756339 
L 66.777188 219.616378 
L 67.614188 211.839845 
L 68.451188 196.258888 
L 70.125188 155.528931 
L 70.962188 139.378422 
L 71.799188 130.946552 
L 72.636188 132.383242 
L 73.473188 142.936583 
L 74.310188 160.614298 
L 75.984188 200.648108 
L 76.821188 214.720655 
L 77.658188 220.102375 
L 78.495188 215.545415 
L 79.332188 202.462039 
L 81.843188 144.365986 
L 82.680188 132.845569 
L 83.517188 130.769972 
L 84.354188 138.319344 
L 85.191188 153.775656 
L 86.865188 194.766384 
L 87.702188 210.968926 
L 88.539188 219.468495 
L 89.376188 218.067406 
L 90.213188 207.529677 
L 91.050188 189.957906 
L 92.724188 149.667904 
L 93.561188 135.640262 
L 94.398188 130.322949 
L 95.235188 134.899674 
L 96.072188 148.017415 
L 98.583188 206.392898 
L 99.420188 217.756339 
L 100.257188 219.616378 
L 101.094188 211.839845 
L 101.931188 196.258888 
L 103.605188 155.528931 
L 104.442188 139.378422 
L 105.279188 130.946552 
L 106.116188 132.383242 
L 106.953188 142.936583 
L 107.790188 160.614298 
L 109.464188 200.648108 
L 110.301188 214.720655 
L 111.138188 220.102375 
L 111.975188 215.545415 
L 112.812188 202.462039 
L 115.323188 144.365986 
L 116.160188 132.845569 
L 116.997188 130.769972 
L 117.834188 138.319344 
L 118.671188 153.775656 
L 120.345188 194.766384 
L 121.182188 210.968926 
L 122.019188 219.468495 
L 122.856188 218.067406 
L 123.693188 207.529677 
L 124.530188 189.957906 
L 126.204188 149.667904 
L 127.041188 135.640262 
L 127.878188 130.322949 
L 128.715188 134.899674 
L 129.552188 148.017415 
L 132.063188 206.392898 
L 132.900188 217.756339 
L 133.737188 219.616378 
L 134.574188 211.839845 
L 135.411188 196.258888 
L 137.085188 155.528931 
L 137.922188 139.378422 
L 138.759188 130.946552 
L 139.596188 132.383242 
L 140.433188 142.936583 
L 141.270188 160.614298 
L 142.944188 200.648108 
L 143.781188 214.720655 
L 144.618188 220.102375 
L 145.455188 215.545415 
L 146.292188 202.462039 
L 148.803188 144.365986 
L 149.640188 132.845569 
L 150.477188 130.769972 
L 151.314188 138.319344 
L 152.151188 153.775656 
L 153.825188 194.766384 
L 154.662188 210.968926 
L 155.499188 219.468495 
L 156.336188 218.067406 
L 157.173188 207.529677 
L 158.010188 189.957906 
L 159.684188 149.667904 
L 160.521188 135.640262 
L 161.358188 130.322949 
L 162.195188 134.899674 
L 163.032188 148.017415 
L 165.543188 206.392898 
L 166.380188 217.756339 
L 167.217188 219.616378 
L 168.054188 211.839845 
L 168.891188 196.258888 
L 170.565188 155.528931 
L 171.402188 139.378422 
L 172.239188 130.946552 
L 173.076188 132.383242 
L 173.913188 142.936583 
L 174.750188 160.614298 
L 176.424188 200.648108 
L 177.261188 214.720655 
L 178.098188 220.102375 
L 178.935188 215.545415 
L 179.772188 202.462039 
L 182.283188 144.365986 
L 183.120188 132.845569 
L 183.957188 130.769972 
L 184.794188 138.319344 
L 185.631188 153.775656 
L 187.305188 194.766384 
L 188.142188 210.968926 
L 188.979188 219.468495 
L 189.816188 218.067406 
L 190.653188 207.529677 
L 191.490188 189.957906 
L 193.164188 149.667904 
L 194.001188 135.640262 
L 194.838188 130.322949 
L 195.675188 134.899674 
L 196.512188 148.017415 
L 199.023188 206.392898 
L 199.860188 217.756339 
L 200.697188 219.616378 
L 201.534188 211.839845 
L 202.371188 196.258888 
L 204.045188 155.528931 
L 204.882188 139.378422 
L 205.719188 130.946552 
L 206.556188 132.383242 
L 207.393188 142.936583 
L 208.230188 160.614298 
L 209.904188 200.648108 
L 210.741188 214.720655 
L 211.578188 220.102375 
L 212.415188 215.545415 
L 213.252188 202.462039 
L 215.763188 144.365986 
L 216.600188 132.845569 
L 217.437188 130.769972 
L 218.274188 138.319344 
L 219.111188 153.775656 
L 220.785188 194.766384 
L 221.622188 210.968926 
L 222.459188 219.468495 
L 223.296188 218.067406 
L 224.133188 207.529677 
L 224.970188 189.957906 
L 226.644188 149.667904 
L 227.481188 135.640262 
L 228.318188 130.322949 
L 229.155188 134.899674 
L 229.992188 148.017415 
L 232.503188 206.392898 
L 233.340188 217.756339 
L 234.177188 219.616378 
L 235.014188 211.839845 
L 235.851188 196.258888 
L 237.525188 155.528931 
L 238.362188 139.378422 
L 239.199188 130.946552 
L 240.036188 132.383242 
L 240.873188 142.936583 
L 241.710188 160.614298 
L 243.384188 200.648108 
L 244.221188 214.720655 
L 245.058188 220.102375 
L 245.895188 215.545415 
L 246.732188 202.462039 
L 249.243188 144.365986 
L 250.080188 132.845569 
L 250.917188 130.769972 
L 251.754188 138.319344 
L 252.591188 153.775656 
L 254.265188 194.766384 
L 255.102188 210.968926 
L 255.939188 219.468495 
L 256.776188 218.067406 
L 257.613188 207.529677 
L 258.450188 189.957906 
L 260.124188 149.667904 
L 260.961188 135.640262 
L 261.798188 130.322949 
L 262.635188 134.899674 
L 263.472188 148.017415 
L 265.983188 206.392898 
L 266.820188 217.756339 
L 267.657188 219.616378 
L 268.494188 211.839845 
L 269.331188 196.258888 
L 271.005188 155.528931 
L 271.842188 139.378422 
L 272.679188 130.946552 
L 273.516188 132.383242 
L 274.353188 142.936583 
L 275.190188 160.614298 
L 276.864188 200.648108 
L 277.701188 214.720655 
L 278.538188 220.102375 
L 279.375188 215.545415 
L 280.212188 202.462039 
L 282.723188 144.365986 
L 283.560188 132.845569 
L 284.397188 130.769972 
L 285.234188 138.319344 
L 286.071188 153.775656 
L 287.745188 194.766384 
L 288.582188 210.968926 
L 289.419188 219.468495 
L 290.256188 218.067406 
L 291.093188 207.529677 
L 291.930188 189.957906 
L 293.604188 149.667904 
L 294.441188 135.640262 
L 295.278188 130.322949 
L 296.115188 134.899674 
L 296.952188 148.017415 
L 299.463188 206.392898 
L 300.300188 217.756339 
L 301.137188 219.616378 
L 301.974188 211.839845 
L 302.811188 196.258888 
L 304.485188 155.528931 
L 305.322188 139.378422 
L 306.159188 130.946552 
L 306.996188 132.383242 
L 307.833188 142.936583 
L 308.670188 160.614298 
L 310.344188 200.648108 
L 311.181188 214.720655 
L 312.018188 220.102375 
L 312.855188 215.545415 
L 313.692188 202.462039 
L 316.203188 144.365986 
L 317.040188 132.845569 
L 317.877188 130.769972 
L 318.714188 138.319344 
L 319.551188 153.775656 
L 321.225188 194.766384 
L 322.062188 210.968926 
L 322.899188 219.468495 
L 323.736188 218.067406 
L 324.573188 207.529677 
L 325.410188 189.957906 
L 327.084188 149.667904 
L 327.921188 135.640262 
L 328.758188 130.322949 
L 329.595188 134.899674 
L 330.432188 148.017415 
L 332.943188 206.392898 
L 333.780188 217.756339 
L 334.617188 219.616378 
L 335.454188 211.839845 
L 336.291188 196.258888 
L 337.965188 155.528931 
L 338.802188 139.378422 
L 339.639188 130.946552 
L 340.476188 132.383242 
L 341.313188 142.936583 
L 342.150188 160.614298 
L 343.824188 200.648108 
L 344.661188 214.720655 
L 345.498188 220.102375 
L 346.335188 215.545415 
L 347.172188 202.462039 
L 349.683188 144.365986 
L 350.520188 132.845569 
L 351.357188 130.769972 
L 352.194188 138.319344 
L 353.031188 153.775656 
L 354.705188 194.766384 
L 355.542188 210.968926 
L 356.379188 219.468495 
L 357.216188 218.067406 
L 358.053188 207.529677 
L 358.890188 189.957906 
L 360.564188 149.667904 
L 361.401188 135.640262 
L 362.238188 130.322949 
L 363.075188 134.899674 
L 363.912188 148.017415 
L 366.423188 206.392898 
L 367.260188 217.756339 
L 368.097188 219.616378 
L 368.934188 211.839845 
L 369.771188 196.258888 
L 371.445188 155.528931 
L 372.282188 139.378422 
L 373.119188 130.946552 
L 373.956188 132.383242 
L 374.793188 142.936583 
L 375.630188 160.614298 
L 376.467188 181.443646 
L 376.467188 181.443646 
" style="fill:none;stroke:#ff7f0e;stroke-dasharray:5.55,2.4;stroke-dashoffset:0;stroke-width:1.5;"/>
   </g>
   <g id="patch_9">
    <path d="M 41.667188 224.64 
L 41.667188 125.803636 
" style="fill:none;stroke:#000000;stroke-linecap:square;stroke-linejoin:miter;stroke-width:0.8;"/>
   </g>
   <g id="patch_10">
    <path d="M 376.467188 224.64 
L 376.467188 125.803636 
" style="fill:none;stroke:#000000;stroke-linecap:square;stroke-linejoin:miter;stroke-width:0.8;"/>
   </g>
   <g id="patch_11">
    <path d="M 41.667188 224.64 
L 376.467188 224.64 
" style="fill:none;stroke:#000000;stroke-linecap:square;stroke-linejoin:miter;stroke-width:0.8;"/>
   </g>
   <g id="patch_12">
    <path d="M 41.667188 125.803636 
L 376.467188 125.803636 
" style="fill:none;stroke:#000000;stroke-linecap:square;stroke-linejoin:miter;stroke-width:0.8;"/>
   </g>
   <g id="legend_2">
    <g id="patch_13">
     <path d="M 267.567187 184.721818 
L 369.467188 184.721818 
Q 371.467188 184.721818 371.467188 182.721818 
L 371.467188 167.721818 
Q 371.467188 165.721818 369.467188 165.721818 
L 267.567187 165.721818 
Q 265.567187 165.721818 265.567187 167.721818 
L 265.567187 182.721818 
Q 265.567187 184.721818 267.567187 184.721818 
z
" style="fill:#ffffff;opacity:0.8;stroke:#cccccc;stroke-linejoin:miter;"/>
    </g>
    <g id="line2d_28">
     <path d="M 269.567187 175.142131 
L 289.567187 175.142131 
" style="fill:none;stroke:#1f77b4;stroke-linecap:square;stroke-width:1.5;"/>
    </g>
    <g id="line2d_29"/>
    <g id="text_17">
     <!-- $a_2$ -->
     <g transform="translate(297.567187 178.642131)scale(0.1 -0.1)">
      <use xlink:href="#DejaVuSans-Oblique-97"/>
      <use transform="translate(61.279297 -16.40625)scale(0.7)" xlink:href="#DejaVuSans-50"/>
     </g>
    </g>
    <g id="line2d_30">
     <path d="M 328.467187 175.142131 
L 348.467187 175.142131 
" style="fill:none;stroke:#ff7f0e;stroke-dasharray:5.55,2.4;stroke-dashoffset:0;stroke-width:1.5;"/>
    </g>
    <g id="line2d_31"/>
    <g id="text_18">
     <!-- $\hat{a}_2$ -->
     <g transform="translate(356.467187 178.642131)scale(0.1 -0.1)">
      <use transform="translate(62.897949 13.015625)" xlink:href="#DejaVuSans-770"/>
      <use transform="translate(0 0.515625)" xlink:href="#DejaVuSans-Oblique-97"/>
      <use transform="translate(62.236328 -15.890625)scale(0.7)" xlink:href="#DejaVuSans-50"/>
     </g>
    </g>
   </g>
  </g>
 </g>
 <defs>
  <clipPath id="p4e1a03f6b6">
   <rect height="98.836364" width="334.8" x="41.667188" y="7.2"/>
  </clipPath>
  <clipPath id="pc2bf2d0ed6">
   <rect height="98.836364" width="334.8" x="41.667188" y="125.803636"/>
  </clipPath>
 </defs>
</svg>
