<?xml version="1.0" encoding="utf-8" standalone="no"?>
<!DOCTYPE svg PUBLIC "-//W3C//DTD SVG 1.1//EN"
  "http://www.w3.org/Graphics/SVG/1.1/DTD/svg11.dtd">
<!-- Created with matplotlib (https://matplotlib.org/) -->
<svg height="322.42825pt" version="1.1" viewBox="0 0 423.2 322.42825" width="423.2pt" xmlns="http://www.w3.org/2000/svg" xmlns:xlink="http://www.w3.org/1999/xlink">
 <metadata>
  <rdf:RDF xmlns:cc="http://creativecommons.org/ns#" xmlns:dc="http://purl.org/dc/elements/1.1/" xmlns:rdf="http://www.w3.org/1999/02/22-rdf-syntax-ns#">
   <cc:Work>
    <dc:type rdf:resource="http://purl.org/dc/dcmitype/StillImage"/>
    <dc:date>2021-11-09T19:49:03.137181</dc:date>
    <dc:format>image/svg+xml</dc:format>
    <dc:creator>
     <cc:Agent>
      <dc:title>Matplotlib v3.3.3, https://matplotlib.org/</dc:title>
     </cc:Agent>
    </dc:creator>
   </cc:Work>
  </rdf:RDF>
 </metadata>
 <defs>
  <style type="text/css">*{stroke-linecap:butt;stroke-linejoin:round;}</style>
 </defs>
 <g id="figure_1">
  <g id="patch_1">
   <path d="M 0 322.42825 
L 423.2 322.42825 
L 423.2 0 
L 0 0 
z
" style="fill:none;"/>
  </g>
  <g id="axes_1">
   <g id="patch_2">
    <path d="M 44.2 284.872 
L 379 284.872 
L 379 67.432 
L 44.2 67.432 
z
" style="fill:#ffffff;"/>
   </g>
   <g id="matplotlib.axis_1">
    <g id="xtick_1">
     <g id="line2d_1">
      <defs>
       <path d="M 0 0 
L 0 3.5 
" id="maeb44392db" style="stroke:#000000;stroke-width:0.8;"/>
      </defs>
      <g>
       <use style="stroke:#000000;stroke-width:0.8;" x="44.2" xlink:href="#maeb44392db" y="284.872"/>
      </g>
     </g>
     <g id="text_1">
      <!-- 0.0 -->
      <g transform="translate(36.248438 299.470437)scale(0.1 -0.1)">
       <defs>
        <path d="M 31.78125 66.40625 
Q 24.171875 66.40625 20.328125 58.90625 
Q 16.5 51.421875 16.5 36.375 
Q 16.5 21.390625 20.328125 13.890625 
Q 24.171875 6.390625 31.78125 6.390625 
Q 39.453125 6.390625 43.28125 13.890625 
Q 47.125 21.390625 47.125 36.375 
Q 47.125 51.421875 43.28125 58.90625 
Q 39.453125 66.40625 31.78125 66.40625 
z
M 31.78125 74.21875 
Q 44.046875 74.21875 50.515625 64.515625 
Q 56.984375 54.828125 56.984375 36.375 
Q 56.984375 17.96875 50.515625 8.265625 
Q 44.046875 -1.421875 31.78125 -1.421875 
Q 19.53125 -1.421875 13.0625 8.265625 
Q 6.59375 17.96875 6.59375 36.375 
Q 6.59375 54.828125 13.0625 64.515625 
Q 19.53125 74.21875 31.78125 74.21875 
z
" id="DejaVuSans-48"/>
        <path d="M 10.6875 12.40625 
L 21 12.40625 
L 21 0 
L 10.6875 0 
z
" id="DejaVuSans-46"/>
       </defs>
       <use xlink:href="#DejaVuSans-48"/>
       <use x="63.623047" xlink:href="#DejaVuSans-46"/>
       <use x="95.410156" xlink:href="#DejaVuSans-48"/>
      </g>
     </g>
    </g>
    <g id="xtick_2">
     <g id="line2d_2">
      <g>
       <use style="stroke:#000000;stroke-width:0.8;" x="105.072727" xlink:href="#maeb44392db" y="284.872"/>
      </g>
     </g>
     <g id="text_2">
      <!-- 0.2 -->
      <g transform="translate(97.121165 299.470437)scale(0.1 -0.1)">
       <defs>
        <path d="M 19.1875 8.296875 
L 53.609375 8.296875 
L 53.609375 0 
L 7.328125 0 
L 7.328125 8.296875 
Q 12.9375 14.109375 22.625 23.890625 
Q 32.328125 33.6875 34.8125 36.53125 
Q 39.546875 41.84375 41.421875 45.53125 
Q 43.3125 49.21875 43.3125 52.78125 
Q 43.3125 58.59375 39.234375 62.25 
Q 35.15625 65.921875 28.609375 65.921875 
Q 23.96875 65.921875 18.8125 64.3125 
Q 13.671875 62.703125 7.8125 59.421875 
L 7.8125 69.390625 
Q 13.765625 71.78125 18.9375 73 
Q 24.125 74.21875 28.421875 74.21875 
Q 39.75 74.21875 46.484375 68.546875 
Q 53.21875 62.890625 53.21875 53.421875 
Q 53.21875 48.921875 51.53125 44.890625 
Q 49.859375 40.875 45.40625 35.40625 
Q 44.1875 33.984375 37.640625 27.21875 
Q 31.109375 20.453125 19.1875 8.296875 
z
" id="DejaVuSans-50"/>
       </defs>
       <use xlink:href="#DejaVuSans-48"/>
       <use x="63.623047" xlink:href="#DejaVuSans-46"/>
       <use x="95.410156" xlink:href="#DejaVuSans-50"/>
      </g>
     </g>
    </g>
    <g id="xtick_3">
     <g id="line2d_3">
      <g>
       <use style="stroke:#000000;stroke-width:0.8;" x="165.945455" xlink:href="#maeb44392db" y="284.872"/>
      </g>
     </g>
     <g id="text_3">
      <!-- 0.4 -->
      <g transform="translate(157.993892 299.470437)scale(0.1 -0.1)">
       <defs>
        <path d="M 37.796875 64.3125 
L 12.890625 25.390625 
L 37.796875 25.390625 
z
M 35.203125 72.90625 
L 47.609375 72.90625 
L 47.609375 25.390625 
L 58.015625 25.390625 
L 58.015625 17.1875 
L 47.609375 17.1875 
L 47.609375 0 
L 37.796875 0 
L 37.796875 17.1875 
L 4.890625 17.1875 
L 4.890625 26.703125 
z
" id="DejaVuSans-52"/>
       </defs>
       <use xlink:href="#DejaVuSans-48"/>
       <use x="63.623047" xlink:href="#DejaVuSans-46"/>
       <use x="95.410156" xlink:href="#DejaVuSans-52"/>
      </g>
     </g>
    </g>
    <g id="xtick_4">
     <g id="line2d_4">
      <g>
       <use style="stroke:#000000;stroke-width:0.8;" x="226.818182" xlink:href="#maeb44392db" y="284.872"/>
      </g>
     </g>
     <g id="text_4">
      <!-- 0.6 -->
      <g transform="translate(218.866619 299.470437)scale(0.1 -0.1)">
       <defs>
        <path d="M 33.015625 40.375 
Q 26.375 40.375 22.484375 35.828125 
Q 18.609375 31.296875 18.609375 23.390625 
Q 18.609375 15.53125 22.484375 10.953125 
Q 26.375 6.390625 33.015625 6.390625 
Q 39.65625 6.390625 43.53125 10.953125 
Q 47.40625 15.53125 47.40625 23.390625 
Q 47.40625 31.296875 43.53125 35.828125 
Q 39.65625 40.375 33.015625 40.375 
z
M 52.59375 71.296875 
L 52.59375 62.3125 
Q 48.875 64.0625 45.09375 64.984375 
Q 41.3125 65.921875 37.59375 65.921875 
Q 27.828125 65.921875 22.671875 59.328125 
Q 17.53125 52.734375 16.796875 39.40625 
Q 19.671875 43.65625 24.015625 45.921875 
Q 28.375 48.1875 33.59375 48.1875 
Q 44.578125 48.1875 50.953125 41.515625 
Q 57.328125 34.859375 57.328125 23.390625 
Q 57.328125 12.15625 50.6875 5.359375 
Q 44.046875 -1.421875 33.015625 -1.421875 
Q 20.359375 -1.421875 13.671875 8.265625 
Q 6.984375 17.96875 6.984375 36.375 
Q 6.984375 53.65625 15.1875 63.9375 
Q 23.390625 74.21875 37.203125 74.21875 
Q 40.921875 74.21875 44.703125 73.484375 
Q 48.484375 72.75 52.59375 71.296875 
z
" id="DejaVuSans-54"/>
       </defs>
       <use xlink:href="#DejaVuSans-48"/>
       <use x="63.623047" xlink:href="#DejaVuSans-46"/>
       <use x="95.410156" xlink:href="#DejaVuSans-54"/>
      </g>
     </g>
    </g>
    <g id="xtick_5">
     <g id="line2d_5">
      <g>
       <use style="stroke:#000000;stroke-width:0.8;" x="287.690909" xlink:href="#maeb44392db" y="284.872"/>
      </g>
     </g>
     <g id="text_5">
      <!-- 0.8 -->
      <g transform="translate(279.739347 299.470437)scale(0.1 -0.1)">
       <defs>
        <path d="M 31.78125 34.625 
Q 24.75 34.625 20.71875 30.859375 
Q 16.703125 27.09375 16.703125 20.515625 
Q 16.703125 13.921875 20.71875 10.15625 
Q 24.75 6.390625 31.78125 6.390625 
Q 38.8125 6.390625 42.859375 10.171875 
Q 46.921875 13.96875 46.921875 20.515625 
Q 46.921875 27.09375 42.890625 30.859375 
Q 38.875 34.625 31.78125 34.625 
z
M 21.921875 38.8125 
Q 15.578125 40.375 12.03125 44.71875 
Q 8.5 49.078125 8.5 55.328125 
Q 8.5 64.0625 14.71875 69.140625 
Q 20.953125 74.21875 31.78125 74.21875 
Q 42.671875 74.21875 48.875 69.140625 
Q 55.078125 64.0625 55.078125 55.328125 
Q 55.078125 49.078125 51.53125 44.71875 
Q 48 40.375 41.703125 38.8125 
Q 48.828125 37.15625 52.796875 32.3125 
Q 56.78125 27.484375 56.78125 20.515625 
Q 56.78125 9.90625 50.3125 4.234375 
Q 43.84375 -1.421875 31.78125 -1.421875 
Q 19.734375 -1.421875 13.25 4.234375 
Q 6.78125 9.90625 6.78125 20.515625 
Q 6.78125 27.484375 10.78125 32.3125 
Q 14.796875 37.15625 21.921875 38.8125 
z
M 18.3125 54.390625 
Q 18.3125 48.734375 21.84375 45.5625 
Q 25.390625 42.390625 31.78125 42.390625 
Q 38.140625 42.390625 41.71875 45.5625 
Q 45.3125 48.734375 45.3125 54.390625 
Q 45.3125 60.0625 41.71875 63.234375 
Q 38.140625 66.40625 31.78125 66.40625 
Q 25.390625 66.40625 21.84375 63.234375 
Q 18.3125 60.0625 18.3125 54.390625 
z
" id="DejaVuSans-56"/>
       </defs>
       <use xlink:href="#DejaVuSans-48"/>
       <use x="63.623047" xlink:href="#DejaVuSans-46"/>
       <use x="95.410156" xlink:href="#DejaVuSans-56"/>
      </g>
     </g>
    </g>
    <g id="xtick_6">
     <g id="line2d_6">
      <g>
       <use style="stroke:#000000;stroke-width:0.8;" x="348.563636" xlink:href="#maeb44392db" y="284.872"/>
      </g>
     </g>
     <g id="text_6">
      <!-- 1.0 -->
      <g transform="translate(340.612074 299.470437)scale(0.1 -0.1)">
       <defs>
        <path d="M 12.40625 8.296875 
L 28.515625 8.296875 
L 28.515625 63.921875 
L 10.984375 60.40625 
L 10.984375 69.390625 
L 28.421875 72.90625 
L 38.28125 72.90625 
L 38.28125 8.296875 
L 54.390625 8.296875 
L 54.390625 0 
L 12.40625 0 
z
" id="DejaVuSans-49"/>
       </defs>
       <use xlink:href="#DejaVuSans-49"/>
       <use x="63.623047" xlink:href="#DejaVuSans-46"/>
       <use x="95.410156" xlink:href="#DejaVuSans-48"/>
      </g>
     </g>
    </g>
    <g id="text_7">
     <!-- $U_x$ -->
     <g transform="translate(205.7 313.148562)scale(0.1 -0.1)">
      <defs>
       <path d="M 15.484375 72.90625 
L 25.390625 72.90625 
L 16.796875 28.609375 
Q 16.265625 25.640625 16.046875 23.703125 
Q 15.828125 21.78125 15.828125 20.3125 
Q 15.828125 13.578125 19.578125 10.078125 
Q 23.34375 6.59375 30.609375 6.59375 
Q 40.046875 6.59375 45.28125 11.765625 
Q 50.53125 16.9375 52.78125 28.609375 
L 61.375 72.90625 
L 71.296875 72.90625 
L 62.5 27.390625 
Q 59.625 12.640625 51.5625 5.609375 
Q 43.5 -1.421875 29.5 -1.421875 
Q 18.5625 -1.421875 12.1875 4.078125 
Q 5.8125 9.578125 5.8125 19 
Q 5.8125 20.703125 6.046875 22.828125 
Q 6.296875 24.953125 6.78125 27.390625 
z
" id="DejaVuSans-Oblique-85"/>
       <path d="M 60.015625 54.6875 
L 34.90625 27.875 
L 50.296875 0 
L 39.984375 0 
L 28.421875 21.6875 
L 8.296875 0 
L -2.59375 0 
L 24.3125 28.8125 
L 10.015625 54.6875 
L 20.3125 54.6875 
L 30.8125 34.90625 
L 49.125 54.6875 
z
" id="DejaVuSans-Oblique-120"/>
      </defs>
      <use transform="translate(0 0.09375)" xlink:href="#DejaVuSans-Oblique-85"/>
      <use transform="translate(73.193359 -16.3125)scale(0.7)" xlink:href="#DejaVuSans-Oblique-120"/>
     </g>
    </g>
   </g>
   <g id="matplotlib.axis_2">
    <g id="ytick_1">
     <g id="line2d_7">
      <defs>
       <path d="M 0 0 
L -3.5 0 
" id="ma326e5ca0e" style="stroke:#000000;stroke-width:0.8;"/>
      </defs>
      <g>
       <use style="stroke:#000000;stroke-width:0.8;" x="44.2" xlink:href="#ma326e5ca0e" y="280.608471"/>
      </g>
     </g>
     <g id="text_8">
      <!-- 0.0 -->
      <g transform="translate(21.296875 284.407689)scale(0.1 -0.1)">
       <use xlink:href="#DejaVuSans-48"/>
       <use x="63.623047" xlink:href="#DejaVuSans-46"/>
       <use x="95.410156" xlink:href="#DejaVuSans-48"/>
      </g>
     </g>
    </g>
    <g id="ytick_2">
     <g id="line2d_8">
      <g>
       <use style="stroke:#000000;stroke-width:0.8;" x="44.2" xlink:href="#ma326e5ca0e" y="237.973176"/>
      </g>
     </g>
     <g id="text_9">
      <!-- 0.1 -->
      <g transform="translate(21.296875 241.772395)scale(0.1 -0.1)">
       <use xlink:href="#DejaVuSans-48"/>
       <use x="63.623047" xlink:href="#DejaVuSans-46"/>
       <use x="95.410156" xlink:href="#DejaVuSans-49"/>
      </g>
     </g>
    </g>
    <g id="ytick_3">
     <g id="line2d_9">
      <g>
       <use style="stroke:#000000;stroke-width:0.8;" x="44.2" xlink:href="#ma326e5ca0e" y="195.337882"/>
      </g>
     </g>
     <g id="text_10">
      <!-- 0.2 -->
      <g transform="translate(21.296875 199.137101)scale(0.1 -0.1)">
       <use xlink:href="#DejaVuSans-48"/>
       <use x="63.623047" xlink:href="#DejaVuSans-46"/>
       <use x="95.410156" xlink:href="#DejaVuSans-50"/>
      </g>
     </g>
    </g>
    <g id="ytick_4">
     <g id="line2d_10">
      <g>
       <use style="stroke:#000000;stroke-width:0.8;" x="44.2" xlink:href="#ma326e5ca0e" y="152.702588"/>
      </g>
     </g>
     <g id="text_11">
      <!-- 0.3 -->
      <g transform="translate(21.296875 156.501807)scale(0.1 -0.1)">
       <defs>
        <path d="M 40.578125 39.3125 
Q 47.65625 37.796875 51.625 33 
Q 55.609375 28.21875 55.609375 21.1875 
Q 55.609375 10.40625 48.1875 4.484375 
Q 40.765625 -1.421875 27.09375 -1.421875 
Q 22.515625 -1.421875 17.65625 -0.515625 
Q 12.796875 0.390625 7.625 2.203125 
L 7.625 11.71875 
Q 11.71875 9.328125 16.59375 8.109375 
Q 21.484375 6.890625 26.8125 6.890625 
Q 36.078125 6.890625 40.9375 10.546875 
Q 45.796875 14.203125 45.796875 21.1875 
Q 45.796875 27.640625 41.28125 31.265625 
Q 36.765625 34.90625 28.71875 34.90625 
L 20.21875 34.90625 
L 20.21875 43.015625 
L 29.109375 43.015625 
Q 36.375 43.015625 40.234375 45.921875 
Q 44.09375 48.828125 44.09375 54.296875 
Q 44.09375 59.90625 40.109375 62.90625 
Q 36.140625 65.921875 28.71875 65.921875 
Q 24.65625 65.921875 20.015625 65.03125 
Q 15.375 64.15625 9.8125 62.3125 
L 9.8125 71.09375 
Q 15.4375 72.65625 20.34375 73.4375 
Q 25.25 74.21875 29.59375 74.21875 
Q 40.828125 74.21875 47.359375 69.109375 
Q 53.90625 64.015625 53.90625 55.328125 
Q 53.90625 49.265625 50.4375 45.09375 
Q 46.96875 40.921875 40.578125 39.3125 
z
" id="DejaVuSans-51"/>
       </defs>
       <use xlink:href="#DejaVuSans-48"/>
       <use x="63.623047" xlink:href="#DejaVuSans-46"/>
       <use x="95.410156" xlink:href="#DejaVuSans-51"/>
      </g>
     </g>
    </g>
    <g id="ytick_5">
     <g id="line2d_11">
      <g>
       <use style="stroke:#000000;stroke-width:0.8;" x="44.2" xlink:href="#ma326e5ca0e" y="110.067294"/>
      </g>
     </g>
     <g id="text_12">
      <!-- 0.4 -->
      <g transform="translate(21.296875 113.866513)scale(0.1 -0.1)">
       <use xlink:href="#DejaVuSans-48"/>
       <use x="63.623047" xlink:href="#DejaVuSans-46"/>
       <use x="95.410156" xlink:href="#DejaVuSans-52"/>
      </g>
     </g>
    </g>
    <g id="ytick_6">
     <g id="line2d_12">
      <g>
       <use style="stroke:#000000;stroke-width:0.8;" x="44.2" xlink:href="#ma326e5ca0e" y="67.432"/>
      </g>
     </g>
     <g id="text_13">
      <!-- 0.5 -->
      <g transform="translate(21.296875 71.231219)scale(0.1 -0.1)">
       <defs>
        <path d="M 10.796875 72.90625 
L 49.515625 72.90625 
L 49.515625 64.59375 
L 19.828125 64.59375 
L 19.828125 46.734375 
Q 21.96875 47.46875 24.109375 47.828125 
Q 26.265625 48.1875 28.421875 48.1875 
Q 40.625 48.1875 47.75 41.5 
Q 54.890625 34.8125 54.890625 23.390625 
Q 54.890625 11.625 47.5625 5.09375 
Q 40.234375 -1.421875 26.90625 -1.421875 
Q 22.3125 -1.421875 17.546875 -0.640625 
Q 12.796875 0.140625 7.71875 1.703125 
L 7.71875 11.625 
Q 12.109375 9.234375 16.796875 8.0625 
Q 21.484375 6.890625 26.703125 6.890625 
Q 35.15625 6.890625 40.078125 11.328125 
Q 45.015625 15.765625 45.015625 23.390625 
Q 45.015625 31 40.078125 35.4375 
Q 35.15625 39.890625 26.703125 39.890625 
Q 22.75 39.890625 18.8125 39.015625 
Q 14.890625 38.140625 10.796875 36.28125 
z
" id="DejaVuSans-53"/>
       </defs>
       <use xlink:href="#DejaVuSans-48"/>
       <use x="63.623047" xlink:href="#DejaVuSans-46"/>
       <use x="95.410156" xlink:href="#DejaVuSans-53"/>
      </g>
     </g>
    </g>
    <g id="text_14">
     <!-- $y$ -->
     <g transform="translate(15.196875 179.152)rotate(-90)scale(0.1 -0.1)">
      <defs>
       <path d="M 24.8125 -5.078125 
Q 18.5625 -15.578125 14.625 -18.1875 
Q 10.6875 -20.796875 4.59375 -20.796875 
L -2.484375 -20.796875 
L -0.984375 -13.28125 
L 4.203125 -13.28125 
Q 7.953125 -13.28125 10.59375 -11.234375 
Q 13.234375 -9.1875 16.5 -3.21875 
L 19.28125 2 
L 7.171875 54.6875 
L 16.703125 54.6875 
L 25.78125 12.796875 
L 50.875 54.6875 
L 60.296875 54.6875 
z
" id="DejaVuSans-Oblique-121"/>
      </defs>
      <use transform="translate(0 0.3125)" xlink:href="#DejaVuSans-Oblique-121"/>
     </g>
    </g>
   </g>
   <g id="line2d_13">
    <path clip-path="url(#pc9c741ced3)" d="M 44.272206 280.5944 
L 60.55274 277.317086 
L 65.309905 276.143481 
L 68.3487 275.189419 
L 70.615567 274.269286 
L 72.584462 273.218135 
L 74.270707 272.017309 
L 75.72464 270.645496 
L 77.003819 269.07835 
L 78.158611 267.288056 
L 79.228187 265.242837 
L 80.439145 262.400619 
L 81.603212 259.066076 
L 82.74367 255.153945 
L 84.065168 249.725364 
L 85.392844 243.184624 
L 86.737912 235.303866 
L 88.107282 225.808567 
L 89.503659 214.367959 
L 90.924088 200.583483 
L 92.151881 186.541272 
L 93.371542 170.066731 
L 94.549927 150.738518 
L 95.45648 132.097679 
L 96.088402 115.29135 
L 96.581605 96.596331 
L 96.814002 81.208878 
L 96.879226 70.24613 
L 96.879226 70.24613 
" style="fill:none;stroke:#1f77b4;stroke-linecap:square;stroke-width:1.5;"/>
   </g>
   <g id="line2d_14">
    <path clip-path="url(#pc9c741ced3)" d="M 44.294309 280.5944 
L 63.359938 277.649823 
L 68.963671 276.566311 
L 72.453553 275.68549 
L 75.005809 274.835995 
L 77.193134 273.865537 
L 79.053564 272.756895 
L 80.656122 271.490392 
L 82.070301 270.043551 
L 83.35321 268.390693 
L 84.547609 266.502484 
L 85.906588 263.878452 
L 87.218258 260.799896 
L 88.506798 257.18809 
L 89.788603 252.95066 
L 91.075184 247.979244 
L 92.374849 242.146702 
L 93.693599 235.303866 
L 95.035447 227.275758 
L 96.402218 217.857042 
L 97.792749 206.806868 
L 99.201204 193.842635 
L 100.613927 178.63279 
L 101.775277 163.963853 
L 102.892475 147.20619 
L 103.916839 128.062384 
L 104.615186 110.802555 
L 105.133693 91.603146 
L 105.344982 75.800438 
L 105.370956 70.24613 
L 105.370956 70.24613 
" style="fill:none;stroke:#ff7f0e;stroke-linecap:square;stroke-width:1.5;"/>
   </g>
   <g id="line2d_15">
    <path clip-path="url(#pc9c741ced3)" d="M 44.388432 280.5944 
L 73.414047 278.330239 
L 81.033733 277.54185 
L 86.056128 276.830008 
L 89.561394 276.143481 
L 92.480632 275.359197 
L 94.933111 274.46324 
L 97.047415 273.439707 
L 98.929109 272.270429 
L 100.655335 270.93466 
L 102.279638 269.408686 
L 103.838563 267.665428 
L 105.357091 265.673947 
L 106.852635 263.398896 
L 108.634283 260.237273 
L 110.416425 256.528013 
L 112.210918 252.176245 
L 114.027162 247.070689 
L 115.872895 241.08077 
L 117.754353 234.053305 
L 119.35284 227.275758 
L 120.980648 219.533137 
L 122.637329 210.688048 
L 124.319689 200.583483 
L 126.020208 189.040139 
L 127.724283 175.853107 
L 129.405618 160.788369 
L 130.704385 147.20619 
L 131.921607 132.097679 
L 132.746391 119.66218 
L 133.456213 106.192643 
L 134.001029 91.603146 
L 134.313752 75.800438 
L 134.352221 70.24613 
L 134.352221 70.24613 
" style="fill:none;stroke:#2ca02c;stroke-linecap:square;stroke-width:1.5;"/>
   </g>
   <g id="line2d_16">
    <path clip-path="url(#pc9c741ced3)" d="M 44.459486 280.5944 
L 79.724965 278.585199 
L 88.94843 277.857332 
L 94.783657 277.200135 
L 98.754375 276.566311 
L 102.026169 275.842236 
L 104.774346 275.015059 
L 107.158509 274.070099 
L 109.298928 272.990586 
L 111.279167 271.757358 
L 113.155432 270.34853 
L 114.965335 268.739099 
L 116.734357 266.900496 
L 118.480198 264.800096 
L 120.215636 262.400619 
L 121.950356 259.659471 
L 123.692111 256.528013 
L 125.447409 252.95066 
L 127.221937 248.863927 
L 129.020747 244.195277 
L 130.848329 238.861852 
L 132.708493 232.768996 
L 134.604097 225.808567 
L 136.536628 217.857042 
L 138.505379 208.773283 
L 140.506194 198.396086 
L 142.529278 186.541272 
L 144.151427 175.853107 
L 145.759433 163.963853 
L 147.327221 150.738518 
L 148.813888 136.026965 
L 149.838347 123.918171 
L 150.742437 110.802555 
L 151.471507 96.596331 
L 151.824586 86.47516 
L 152.039934 75.800438 
L 152.086277 70.24613 
L 152.086277 70.24613 
" style="fill:none;stroke:#d62728;stroke-linecap:square;stroke-width:1.5;"/>
   </g>
   <g id="line2d_17">
    <path clip-path="url(#pc9c741ced3)" d="M 44.592653 280.5944 
L 91.013806 278.820585 
L 102.575217 278.148595 
L 109.410693 277.54185 
L 114.719028 276.830008 
L 118.287989 276.143481 
L 121.338117 275.359197 
L 124.046569 274.46324 
L 126.53305 273.439707 
L 128.875878 272.270429 
L 131.126102 270.93466 
L 133.317476 269.408686 
L 135.472911 267.665428 
L 137.608645 265.673947 
L 139.73675 263.398896 
L 141.866806 260.799896 
L 144.006866 257.830824 
L 146.164052 254.43898 
L 148.344913 250.564171 
L 150.55558 246.13762 
L 152.80175 241.08077 
L 155.088566 235.303866 
L 157.420364 228.704385 
L 159.800164 221.165199 
L 162.228874 212.552489 
L 164.205515 204.787403 
L 166.208209 196.149668 
L 168.229769 186.541272 
L 170.257914 175.853107 
L 172.272445 163.963853 
L 174.241041 150.738518 
L 175.657483 139.853012 
L 176.987889 128.062384 
L 178.18735 115.29135 
L 179.193114 101.458374 
L 179.714554 91.603146 
L 180.079815 81.208878 
L 180.251089 70.24613 
L 180.251089 70.24613 
" style="fill:none;stroke:#9467bd;stroke-linecap:square;stroke-width:1.5;"/>
   </g>
   <g id="line2d_18">
    <path clip-path="url(#pc9c741ced3)" d="M 44.706594 280.5944 
L 97.293904 279.037901 
L 110.951019 278.417499 
L 118.848012 277.857332 
L 124.890765 277.200135 
L 129.657295 276.429103 
L 133.639905 275.524516 
L 137.158391 274.46324 
L 140.403096 273.218135 
L 143.485543 271.757358 
L 145.979245 270.34853 
L 148.43172 268.739099 
L 150.860466 266.900496 
L 153.278544 264.800096 
L 155.696387 262.400619 
L 158.122856 259.659471 
L 160.565916 256.528013 
L 163.033022 252.95066 
L 165.531277 248.863927 
L 168.067493 244.195277 
L 170.648092 238.861852 
L 172.748459 234.053305 
L 174.883476 228.704385 
L 177.055049 222.754377 
L 179.264119 216.135725 
L 181.510253 208.773283 
L 183.79091 200.583483 
L 186.100421 191.473347 
L 188.428327 181.339456 
L 190.756896 170.066731 
L 193.057101 157.527194 
L 194.736494 147.20619 
L 196.344955 136.026965 
L 197.840974 123.918171 
L 199.165974 110.802555 
L 199.915018 101.458374 
L 200.520871 91.603146 
L 200.945581 81.208878 
L 201.144811 70.24613 
L 201.144811 70.24613 
" style="fill:none;stroke:#8c564b;stroke-linecap:square;stroke-width:1.5;"/>
   </g>
   <g id="line2d_19">
    <path clip-path="url(#pc9c741ced3)" d="M 44.831012 280.5944 
L 104.396073 279.17343 
L 119.977524 278.585199 
L 128.735934 278.05408 
L 135.356207 277.430964 
L 140.574742 276.699915 
L 144.957199 275.842236 
L 148.85194 274.835995 
L 152.460173 273.655457 
L 155.897885 272.270429 
L 159.233914 270.645496 
L 161.96779 269.07835 
L 164.678264 267.288056 
L 167.378407 265.242837 
L 170.078921 262.906402 
L 172.789178 260.237273 
L 175.517766 257.18809 
L 178.272914 253.704725 
L 180.501523 250.564171 
L 182.756238 247.070689 
L 185.04094 243.184624 
L 187.359349 238.861852 
L 189.714894 234.053305 
L 192.110578 228.704385 
L 194.54873 222.754377 
L 197.030667 216.135725 
L 199.556197 208.773283 
L 202.122837 200.583483 
L 204.724562 191.473347 
L 207.35007 181.339456 
L 209.979896 170.066731 
L 211.936347 160.788369 
L 213.856968 150.738518 
L 215.712334 139.853012 
L 217.46052 128.062384 
L 219.041895 115.29135 
L 219.963156 106.192643 
L 220.7409 96.596331 
L 221.335197 86.47516 
L 221.698426 75.800438 
L 221.77667 70.24613 
L 221.77667 70.24613 
" style="fill:none;stroke:#e377c2;stroke-linecap:square;stroke-width:1.5;"/>
   </g>
   <g id="line2d_20">
    <path clip-path="url(#pc9c741ced3)" d="M 44.889687 280.5944 
L 109.335574 279.17343 
L 123.592623 278.665759 
L 132.817179 278.148595 
L 139.752388 277.54185 
L 145.207588 276.830008 
L 149.78854 275.994863 
L 153.862183 275.015059 
L 157.638189 273.865537 
L 161.236598 272.516901 
L 164.728389 270.93466 
L 167.589193 269.408686 
L 170.424508 267.665428 
L 173.247777 265.673947 
L 176.070039 263.398896 
L 178.900918 260.799896 
L 181.749312 257.830824 
L 184.623731 254.43898 
L 186.947574 251.380939 
L 189.297541 247.979244 
L 191.677694 244.195277 
L 194.091963 239.986081 
L 196.543985 235.303866 
L 199.037006 230.095494 
L 201.573658 224.301795 
L 204.155608 217.857042 
L 206.783058 210.688048 
L 209.454083 202.713423 
L 212.163424 193.842635 
L 214.900865 183.974973 
L 217.648484 172.998407 
L 219.698563 163.963853 
L 221.718926 154.17804 
L 223.682342 143.578527 
L 225.549881 132.097679 
L 227.266229 119.66218 
L 228.288938 110.802555 
L 229.179739 101.458374 
L 229.900936 91.603146 
L 230.406902 81.208878 
L 230.644356 70.24613 
L 230.644356 70.24613 
" style="fill:none;stroke:#7f7f7f;stroke-linecap:square;stroke-width:1.5;"/>
   </g>
   <g id="line2d_21">
    <path clip-path="url(#pc9c741ced3)" d="M 44.979935 280.5944 
L 114.264734 279.238535 
L 129.558379 278.744202 
L 139.296139 278.240626 
L 146.573215 277.649823 
L 152.303666 276.956683 
L 157.134699 276.143481 
L 161.447329 275.189419 
L 165.455908 274.070099 
L 169.282247 272.756895 
L 172.998222 271.216225 
L 176.043461 269.730345 
L 179.061425 268.03289 
L 182.065945 266.093731 
L 185.068452 263.878452 
L 188.078986 261.347736 
L 191.106918 258.456672 
L 193.547828 255.850122 
L 196.010163 252.95066 
L 198.498385 249.725364 
L 201.016914 246.13762 
L 203.570056 242.146702 
L 206.161894 237.707293 
L 208.796201 232.768996 
L 211.476224 227.275758 
L 214.204359 221.165199 
L 216.981839 214.367959 
L 219.807974 206.806868 
L 222.679282 198.396086 
L 225.58796 189.040139 
L 228.519625 178.63279 
L 230.719244 170.066731 
L 232.902426 160.788369 
L 235.046369 150.738518 
L 237.11829 139.853012 
L 239.071384 128.062384 
L 240.275526 119.66218 
L 241.371562 110.802555 
L 242.326656 101.458374 
L 243.100228 91.603146 
L 243.64313 81.208878 
L 243.897981 70.24613 
L 243.897981 70.24613 
" style="fill:none;stroke:#bcbd22;stroke-linecap:square;stroke-width:1.5;"/>
   </g>
   <g id="line2d_22">
    <path clip-path="url(#pc9c741ced3)" d="M 45.22555 280.5944 
L 127.027351 279.363659 
L 144.761253 278.89496 
L 155.641908 278.417499 
L 163.692638 277.857332 
L 170.071393 277.200135 
L 175.507879 276.429103 
L 180.40696 275.524516 
L 184.989736 274.46324 
L 189.380302 273.218135 
L 193.651942 271.757358 
L 197.154718 270.34853 
L 200.626164 268.739099 
L 204.081101 266.900496 
L 207.532047 264.800096 
L 210.99025 262.400619 
L 214.466322 259.659471 
L 217.267041 257.18809 
L 220.091144 254.43898 
L 222.94393 251.380939 
L 225.830712 247.979244 
L 228.756698 244.195277 
L 231.727021 239.986081 
L 234.746545 235.303866 
L 237.819694 230.095494 
L 240.950226 224.301795 
L 244.140787 217.857042 
L 247.392431 210.688048 
L 250.703579 202.713423 
L 254.068824 193.842635 
L 256.62164 186.541272 
L 259.190547 178.63279 
L 261.763318 170.066731 
L 264.322011 160.788369 
L 266.840358 150.738518 
L 269.280352 139.853012 
L 270.8372 132.097679 
L 272.313372 123.918171 
L 273.68095 115.29135 
L 274.904648 106.192643 
L 275.9402 96.596331 
L 276.733201 86.47516 
L 277.218649 75.800438 
L 277.323307 70.24613 
L 277.323307 70.24613 
" style="fill:none;stroke:#17becf;stroke-linecap:square;stroke-width:1.5;"/>
   </g>
   <g id="line2d_23">
    <path clip-path="url(#pc9c741ced3)" d="M 45.37621 280.5944 
L 134.127248 279.423766 
L 153.231177 278.967382 
L 164.746286 278.502464 
L 173.234388 277.957015 
L 179.983311 277.317086 
L 185.764822 276.566311 
L 190.996228 275.68549 
L 195.90252 274.652098 
L 200.609419 273.439707 
L 205.19127 272.017309 
L 208.948553 270.645496 
L 212.671476 269.07835 
L 216.375442 267.288056 
L 220.073493 265.242837 
L 223.777476 262.906402 
L 227.49864 260.237273 
L 230.49536 257.830824 
L 233.515772 255.153945 
L 236.565555 252.176245 
L 239.650406 248.863927 
L 242.775967 245.179374 
L 245.94777 241.08077 
L 249.171167 236.521575 
L 252.451093 231.45004 
L 255.791812 225.808567 
L 259.19657 219.533137 
L 262.667054 212.552489 
L 266.202503 204.787403 
L 268.894174 198.396086 
L 271.616032 191.473347 
L 274.361673 183.974973 
L 277.121175 175.853107 
L 279.879697 167.055908 
L 282.615396 157.527194 
L 285.296436 147.20619 
L 287.876682 136.026965 
L 289.508998 128.062384 
L 291.040847 119.66218 
L 292.438485 110.802555 
L 293.659298 101.458374 
L 294.650277 91.603146 
L 295.347001 81.208878 
L 295.674473 70.24613 
L 295.674473 70.24613 
" style="fill:none;stroke:#1f77b4;stroke-linecap:square;stroke-width:1.5;"/>
   </g>
   <g id="line2d_24">
    <path clip-path="url(#pc9c741ced3)" d="M 45.455808 280.5944 
L 135.942241 279.482295 
L 156.260207 279.037901 
L 168.448174 278.585199 
L 177.368588 278.05408 
L 184.422524 277.430964 
L 190.444826 276.699915 
L 195.883 275.842236 
L 200.976458 274.835995 
L 205.858259 273.655457 
L 210.606667 272.270429 
L 215.271369 270.645496 
L 219.119795 269.07835 
L 222.949608 267.288056 
L 226.774142 265.242837 
L 230.605533 262.906402 
L 233.683417 260.799896 
L 236.779044 258.456672 
L 239.898273 255.850122 
L 243.047055 252.95066 
L 246.231339 249.725364 
L 249.457131 246.13762 
L 252.730273 242.146702 
L 256.056514 237.707293 
L 259.441226 232.768996 
L 262.889233 227.275758 
L 266.4044 221.165199 
L 269.989194 214.367959 
L 273.643869 206.806868 
L 276.428968 200.583483 
L 279.248482 193.842635 
L 282.096931 186.541272 
L 284.96559 178.63279 
L 287.841179 170.066731 
L 290.703996 160.788369 
L 293.525051 150.738518 
L 296.262039 139.853012 
L 298.010625 132.097679 
L 299.670426 123.918171 
L 301.209948 115.29135 
L 302.589137 106.192643 
L 303.757684 96.596331 
L 304.653457 86.47516 
L 305.202273 75.800438 
L 305.320646 70.24613 
L 305.320646 70.24613 
" style="fill:none;stroke:#ff7f0e;stroke-linecap:square;stroke-width:1.5;"/>
   </g>
   <g id="line2d_25">
    <path clip-path="url(#pc9c741ced3)" d="M 45.736783 280.5944 
L 149.261802 279.539285 
L 171.454654 279.106568 
L 184.395439 278.665759 
L 193.874674 278.148595 
L 201.460164 277.54185 
L 209.041836 276.699915 
L 215.888034 275.68549 
L 221.423764 274.652098 
L 226.770967 273.439707 
L 231.99615 272.017309 
L 236.289514 270.645496 
L 240.547993 269.07835 
L 244.787277 267.288056 
L 249.021264 265.242837 
L 253.262852 262.906402 
L 256.670041 260.799896 
L 260.096533 258.456672 
L 263.548803 255.850122 
L 267.033311 252.95066 
L 270.55666 249.725364 
L 274.12538 246.13762 
L 277.745986 242.146702 
L 281.424753 237.707293 
L 285.167613 232.768996 
L 288.979829 227.275758 
L 292.865663 221.165199 
L 295.830036 216.135725 
L 298.837604 210.688048 
L 301.887587 204.787403 
L 304.977681 198.396086 
L 308.103568 191.473347 
L 311.258064 183.974973 
L 314.429976 175.853107 
L 317.60245 167.055908 
L 320.750615 157.527194 
L 323.838097 147.20619 
L 325.837433 139.853012 
L 327.765529 132.097679 
L 329.595225 123.918171 
L 331.291835 115.29135 
L 332.811311 106.192643 
L 334.098341 96.596331 
L 335.084693 86.47516 
L 335.440121 81.208878 
L 335.688896 75.800438 
L 335.819188 70.24613 
L 335.819188 70.24613 
" style="fill:none;stroke:#2ca02c;stroke-linecap:square;stroke-width:1.5;"/>
   </g>
   <g id="line2d_26">
    <path clip-path="url(#pc9c741ced3)" d="M 45.836277 280.5944 
L 150.975365 279.594778 
L 174.674205 279.17343 
L 188.409152 278.744202 
L 198.383767 278.240626 
L 206.3145 277.649823 
L 214.208151 276.830008 
L 221.317273 275.842236 
L 227.056604 274.835995 
L 232.594565 273.655457 
L 238.001327 272.270429 
L 243.32335 270.645496 
L 247.718216 269.07835 
L 252.093688 267.288056 
L 256.463845 265.242837 
L 260.841948 262.906402 
L 264.358839 260.799896 
L 267.895685 258.456672 
L 271.459144 255.850122 
L 275.055966 252.95066 
L 278.692917 249.725364 
L 282.376818 246.13762 
L 286.114381 242.146702 
L 289.912138 237.707293 
L 293.776239 232.768996 
L 297.712179 227.275758 
L 300.713996 222.754377 
L 303.760061 217.857042 
L 306.850953 212.552489 
L 309.986292 206.806868 
L 313.164299 200.583483 
L 316.381329 193.842635 
L 319.631086 186.541272 
L 322.903629 178.63279 
L 326.183773 170.066731 
L 329.448986 160.788369 
L 332.666179 150.738518 
L 334.761249 143.578527 
L 336.794637 136.026965 
L 338.741473 128.062384 
L 340.570008 119.66218 
L 342.23975 110.802555 
L 343.699505 101.458374 
L 344.885414 91.603146 
L 345.719777 81.208878 
L 345.977241 75.800438 
L 346.112105 70.24613 
L 346.112105 70.24613 
" style="fill:none;stroke:#d62728;stroke-linecap:square;stroke-width:1.5;"/>
   </g>
   <g id="line2d_27">
    <path clip-path="url(#pc9c741ced3)" d="M 46.086156 280.5944 
L 160.153624 279.648813 
L 185.839964 279.238535 
L 200.45431 278.820585 
L 211.039922 278.330239 
L 220.7696 277.649823 
L 229.072378 276.830008 
L 236.630121 275.842236 
L 242.765082 274.835995 
L 248.701103 273.655457 
L 254.505508 272.270429 
L 260.224049 270.645496 
L 264.948782 269.07835 
L 269.654248 267.288056 
L 274.355396 265.242837 
L 279.066414 262.906402 
L 282.85178 260.799896 
L 286.65966 258.456672 
L 290.497328 255.850122 
L 294.372241 252.95066 
L 298.291854 249.725364 
L 302.263733 246.13762 
L 306.29537 242.146702 
L 310.394021 237.707293 
L 314.56669 232.768996 
L 317.748544 228.704385 
L 320.977874 224.301795 
L 324.256476 219.533137 
L 327.585511 214.367959 
L 330.965252 208.773283 
L 334.394628 202.713423 
L 337.870845 196.149668 
L 341.388588 189.040139 
L 344.93904 181.339456 
L 348.508468 172.998407 
L 352.07601 163.963853 
L 355.61066 154.17804 
L 357.926965 147.20619 
L 360.190261 139.853012 
L 362.3766 132.097679 
L 364.455179 123.918171 
L 366.386341 115.29135 
L 368.119433 106.192643 
L 369.590309 96.596331 
L 370.203273 91.603146 
L 370.719652 86.47516 
L 371.127074 81.208878 
L 371.412403 75.800438 
L 371.561925 70.24613 
L 371.561925 70.24613 
" style="fill:none;stroke:#9467bd;stroke-linecap:square;stroke-width:1.5;"/>
   </g>
   <g id="patch_3">
    <path d="M 44.2 284.872 
L 44.2 67.432 
" style="fill:none;stroke:#000000;stroke-linecap:square;stroke-linejoin:miter;stroke-width:0.8;"/>
   </g>
   <g id="patch_4">
    <path d="M 379 284.872 
L 379 67.432 
" style="fill:none;stroke:#000000;stroke-linecap:square;stroke-linejoin:miter;stroke-width:0.8;"/>
   </g>
   <g id="patch_5">
    <path d="M 44.2 284.872 
L 379 284.872 
" style="fill:none;stroke:#000000;stroke-linecap:square;stroke-linejoin:miter;stroke-width:0.8;"/>
   </g>
   <g id="patch_6">
    <path d="M 44.2 67.432 
L 379 67.432 
" style="fill:none;stroke:#000000;stroke-linecap:square;stroke-linejoin:miter;stroke-width:0.8;"/>
   </g>
   <g id="legend_1">
    <g id="patch_7">
     <path d="M 9.2 68.9125 
L 414 68.9125 
Q 416 68.9125 416 66.9125 
L 416 9.2 
Q 416 7.2 414 7.2 
L 9.2 7.2 
Q 7.2 7.2 7.2 9.2 
L 7.2 66.9125 
Q 7.2 68.9125 9.2 68.9125 
z
" style="fill:#ffffff;opacity:0.8;stroke:#cccccc;stroke-linejoin:miter;"/>
    </g>
    <g id="line2d_28">
     <path d="M 11.2 15.298437 
L 31.2 15.298437 
" style="fill:none;stroke:#1f77b4;stroke-linecap:square;stroke-width:1.5;"/>
    </g>
    <g id="line2d_29"/>
    <g id="text_15">
     <!-- $Re=15210$ -->
     <g transform="translate(39.2 18.798437)scale(0.1 -0.1)">
      <defs>
       <path d="M 25.203125 64.796875 
L 20.21875 38.921875 
L 32.90625 38.921875 
Q 40.375 38.921875 44.984375 43.046875 
Q 49.609375 47.171875 49.609375 53.8125 
Q 49.609375 59.125 46.5 61.953125 
Q 43.40625 64.796875 37.59375 64.796875 
z
M 43.3125 35.015625 
Q 46.4375 34.28125 48.515625 31.390625 
Q 50.59375 28.515625 53.328125 19.921875 
L 59.515625 0 
L 49.125 0 
L 43.40625 18.703125 
Q 41.21875 25.921875 38.328125 28.359375 
Q 35.453125 30.8125 29.5 30.8125 
L 18.609375 30.8125 
L 12.59375 0 
L 2.6875 0 
L 16.890625 72.90625 
L 39.109375 72.90625 
Q 49.21875 72.90625 54.609375 68.328125 
Q 60.015625 63.765625 60.015625 55.171875 
Q 60.015625 47.5625 55.421875 41.984375 
Q 50.828125 36.421875 43.3125 35.015625 
z
" id="DejaVuSans-Oblique-82"/>
       <path d="M 48.09375 32.234375 
Q 48.25 33.015625 48.3125 33.84375 
Q 48.390625 34.671875 48.390625 35.5 
Q 48.390625 41.453125 44.890625 44.921875 
Q 41.40625 48.390625 35.40625 48.390625 
Q 28.71875 48.390625 23.578125 44.15625 
Q 18.453125 39.9375 15.828125 32.171875 
z
M 55.90625 25.203125 
L 14.109375 25.203125 
Q 13.8125 23.34375 13.71875 22.265625 
Q 13.625 21.1875 13.625 20.40625 
Q 13.625 13.625 17.796875 9.90625 
Q 21.96875 6.203125 29.59375 6.203125 
Q 35.453125 6.203125 40.671875 7.515625 
Q 45.90625 8.84375 50.390625 11.375 
L 48.6875 2.484375 
Q 43.84375 0.53125 38.6875 -0.4375 
Q 33.546875 -1.421875 28.21875 -1.421875 
Q 16.84375 -1.421875 10.71875 4.015625 
Q 4.59375 9.46875 4.59375 19.484375 
Q 4.59375 28.03125 7.640625 35.375 
Q 10.6875 42.71875 16.609375 48.484375 
Q 20.40625 52.09375 25.65625 54.046875 
Q 30.90625 56 36.8125 56 
Q 46.09375 56 51.578125 50.4375 
Q 57.078125 44.875 57.078125 35.5 
Q 57.078125 33.25 56.78125 30.6875 
Q 56.5 28.125 55.90625 25.203125 
z
" id="DejaVuSans-Oblique-101"/>
       <path d="M 10.59375 45.40625 
L 73.1875 45.40625 
L 73.1875 37.203125 
L 10.59375 37.203125 
z
M 10.59375 25.484375 
L 73.1875 25.484375 
L 73.1875 17.1875 
L 10.59375 17.1875 
z
" id="DejaVuSans-61"/>
      </defs>
      <use transform="translate(0 0.78125)" xlink:href="#DejaVuSans-Oblique-82"/>
      <use transform="translate(69.482422 0.78125)" xlink:href="#DejaVuSans-Oblique-101"/>
      <use transform="translate(150.488281 0.78125)" xlink:href="#DejaVuSans-61"/>
      <use transform="translate(253.759766 0.78125)" xlink:href="#DejaVuSans-49"/>
      <use transform="translate(317.382812 0.78125)" xlink:href="#DejaVuSans-53"/>
      <use transform="translate(381.005859 0.78125)" xlink:href="#DejaVuSans-50"/>
      <use transform="translate(444.628906 0.78125)" xlink:href="#DejaVuSans-49"/>
      <use transform="translate(508.251953 0.78125)" xlink:href="#DejaVuSans-48"/>
     </g>
    </g>
    <g id="line2d_30">
     <path d="M 11.2 29.976562 
L 31.2 29.976562 
" style="fill:none;stroke:#ff7f0e;stroke-linecap:square;stroke-width:1.5;"/>
    </g>
    <g id="line2d_31"/>
    <g id="text_16">
     <!-- $Re=17700$ -->
     <g transform="translate(39.2 33.476562)scale(0.1 -0.1)">
      <defs>
       <path d="M 8.203125 72.90625 
L 55.078125 72.90625 
L 55.078125 68.703125 
L 28.609375 0 
L 18.3125 0 
L 43.21875 64.59375 
L 8.203125 64.59375 
z
" id="DejaVuSans-55"/>
      </defs>
      <use transform="translate(0 0.78125)" xlink:href="#DejaVuSans-Oblique-82"/>
      <use transform="translate(69.482422 0.78125)" xlink:href="#DejaVuSans-Oblique-101"/>
      <use transform="translate(150.488281 0.78125)" xlink:href="#DejaVuSans-61"/>
      <use transform="translate(253.759766 0.78125)" xlink:href="#DejaVuSans-49"/>
      <use transform="translate(317.382812 0.78125)" xlink:href="#DejaVuSans-55"/>
      <use transform="translate(379.255859 0.78125)" xlink:href="#DejaVuSans-55"/>
      <use transform="translate(442.878906 0.78125)" xlink:href="#DejaVuSans-48"/>
      <use transform="translate(506.501953 0.78125)" xlink:href="#DejaVuSans-48"/>
     </g>
    </g>
    <g id="line2d_32">
     <path d="M 11.2 44.654687 
L 31.2 44.654687 
" style="fill:none;stroke:#2ca02c;stroke-linecap:square;stroke-width:1.5;"/>
    </g>
    <g id="line2d_33"/>
    <g id="text_17">
     <!-- $Re=26200$ -->
     <g transform="translate(39.2 48.154687)scale(0.1 -0.1)">
      <use transform="translate(0 0.78125)" xlink:href="#DejaVuSans-Oblique-82"/>
      <use transform="translate(69.482422 0.78125)" xlink:href="#DejaVuSans-Oblique-101"/>
      <use transform="translate(150.488281 0.78125)" xlink:href="#DejaVuSans-61"/>
      <use transform="translate(253.759766 0.78125)" xlink:href="#DejaVuSans-50"/>
      <use transform="translate(317.382812 0.78125)" xlink:href="#DejaVuSans-54"/>
      <use transform="translate(381.005859 0.78125)" xlink:href="#DejaVuSans-50"/>
      <use transform="translate(444.628906 0.78125)" xlink:href="#DejaVuSans-48"/>
      <use transform="translate(508.251953 0.78125)" xlink:href="#DejaVuSans-48"/>
     </g>
    </g>
    <g id="line2d_34">
     <path d="M 11.2 59.332812 
L 31.2 59.332812 
" style="fill:none;stroke:#d62728;stroke-linecap:square;stroke-width:1.5;"/>
    </g>
    <g id="line2d_35"/>
    <g id="text_18">
     <!-- $Re=31400$ -->
     <g transform="translate(39.2 62.832812)scale(0.1 -0.1)">
      <use transform="translate(0 0.78125)" xlink:href="#DejaVuSans-Oblique-82"/>
      <use transform="translate(69.482422 0.78125)" xlink:href="#DejaVuSans-Oblique-101"/>
      <use transform="translate(150.488281 0.78125)" xlink:href="#DejaVuSans-61"/>
      <use transform="translate(253.759766 0.78125)" xlink:href="#DejaVuSans-51"/>
      <use transform="translate(317.382812 0.78125)" xlink:href="#DejaVuSans-49"/>
      <use transform="translate(381.005859 0.78125)" xlink:href="#DejaVuSans-52"/>
      <use transform="translate(444.628906 0.78125)" xlink:href="#DejaVuSans-48"/>
      <use transform="translate(508.251953 0.78125)" xlink:href="#DejaVuSans-48"/>
     </g>
    </g>
    <g id="line2d_36">
     <path d="M 116.4 15.298437 
L 136.4 15.298437 
" style="fill:none;stroke:#9467bd;stroke-linecap:square;stroke-width:1.5;"/>
    </g>
    <g id="line2d_37"/>
    <g id="text_19">
     <!-- $Re=39670$ -->
     <g transform="translate(144.4 18.798437)scale(0.1 -0.1)">
      <defs>
       <path d="M 10.984375 1.515625 
L 10.984375 10.5 
Q 14.703125 8.734375 18.5 7.8125 
Q 22.3125 6.890625 25.984375 6.890625 
Q 35.75 6.890625 40.890625 13.453125 
Q 46.046875 20.015625 46.78125 33.40625 
Q 43.953125 29.203125 39.59375 26.953125 
Q 35.25 24.703125 29.984375 24.703125 
Q 19.046875 24.703125 12.671875 31.3125 
Q 6.296875 37.9375 6.296875 49.421875 
Q 6.296875 60.640625 12.9375 67.421875 
Q 19.578125 74.21875 30.609375 74.21875 
Q 43.265625 74.21875 49.921875 64.515625 
Q 56.59375 54.828125 56.59375 36.375 
Q 56.59375 19.140625 48.40625 8.859375 
Q 40.234375 -1.421875 26.421875 -1.421875 
Q 22.703125 -1.421875 18.890625 -0.6875 
Q 15.09375 0.046875 10.984375 1.515625 
z
M 30.609375 32.421875 
Q 37.25 32.421875 41.125 36.953125 
Q 45.015625 41.5 45.015625 49.421875 
Q 45.015625 57.28125 41.125 61.84375 
Q 37.25 66.40625 30.609375 66.40625 
Q 23.96875 66.40625 20.09375 61.84375 
Q 16.21875 57.28125 16.21875 49.421875 
Q 16.21875 41.5 20.09375 36.953125 
Q 23.96875 32.421875 30.609375 32.421875 
z
" id="DejaVuSans-57"/>
      </defs>
      <use transform="translate(0 0.78125)" xlink:href="#DejaVuSans-Oblique-82"/>
      <use transform="translate(69.482422 0.78125)" xlink:href="#DejaVuSans-Oblique-101"/>
      <use transform="translate(150.488281 0.78125)" xlink:href="#DejaVuSans-61"/>
      <use transform="translate(253.759766 0.78125)" xlink:href="#DejaVuSans-51"/>
      <use transform="translate(317.382812 0.78125)" xlink:href="#DejaVuSans-57"/>
      <use transform="translate(381.005859 0.78125)" xlink:href="#DejaVuSans-54"/>
      <use transform="translate(444.628906 0.78125)" xlink:href="#DejaVuSans-55"/>
      <use transform="translate(508.251953 0.78125)" xlink:href="#DejaVuSans-48"/>
     </g>
    </g>
    <g id="line2d_38">
     <path d="M 116.4 29.976562 
L 136.4 29.976562 
" style="fill:none;stroke:#8c564b;stroke-linecap:square;stroke-width:1.5;"/>
    </g>
    <g id="line2d_39"/>
    <g id="text_20">
     <!-- $Re=45800$ -->
     <g transform="translate(144.4 33.476562)scale(0.1 -0.1)">
      <use transform="translate(0 0.78125)" xlink:href="#DejaVuSans-Oblique-82"/>
      <use transform="translate(69.482422 0.78125)" xlink:href="#DejaVuSans-Oblique-101"/>
      <use transform="translate(150.488281 0.78125)" xlink:href="#DejaVuSans-61"/>
      <use transform="translate(253.759766 0.78125)" xlink:href="#DejaVuSans-52"/>
      <use transform="translate(317.382812 0.78125)" xlink:href="#DejaVuSans-53"/>
      <use transform="translate(381.005859 0.78125)" xlink:href="#DejaVuSans-56"/>
      <use transform="translate(444.628906 0.78125)" xlink:href="#DejaVuSans-48"/>
      <use transform="translate(508.251953 0.78125)" xlink:href="#DejaVuSans-48"/>
     </g>
    </g>
    <g id="line2d_40">
     <path d="M 116.4 44.654687 
L 136.4 44.654687 
" style="fill:none;stroke:#e377c2;stroke-linecap:square;stroke-width:1.5;"/>
    </g>
    <g id="line2d_41"/>
    <g id="text_21">
     <!-- $Re=51850$ -->
     <g transform="translate(144.4 48.154687)scale(0.1 -0.1)">
      <use transform="translate(0 0.78125)" xlink:href="#DejaVuSans-Oblique-82"/>
      <use transform="translate(69.482422 0.78125)" xlink:href="#DejaVuSans-Oblique-101"/>
      <use transform="translate(150.488281 0.78125)" xlink:href="#DejaVuSans-61"/>
      <use transform="translate(253.759766 0.78125)" xlink:href="#DejaVuSans-53"/>
      <use transform="translate(317.382812 0.78125)" xlink:href="#DejaVuSans-49"/>
      <use transform="translate(381.005859 0.78125)" xlink:href="#DejaVuSans-56"/>
      <use transform="translate(444.628906 0.78125)" xlink:href="#DejaVuSans-53"/>
      <use transform="translate(508.251953 0.78125)" xlink:href="#DejaVuSans-48"/>
     </g>
    </g>
    <g id="line2d_42">
     <path d="M 116.4 59.332812 
L 136.4 59.332812 
" style="fill:none;stroke:#7f7f7f;stroke-linecap:square;stroke-width:1.5;"/>
    </g>
    <g id="line2d_43"/>
    <g id="text_22">
     <!-- $Re=54480$ -->
     <g transform="translate(144.4 62.832812)scale(0.1 -0.1)">
      <use transform="translate(0 0.78125)" xlink:href="#DejaVuSans-Oblique-82"/>
      <use transform="translate(69.482422 0.78125)" xlink:href="#DejaVuSans-Oblique-101"/>
      <use transform="translate(150.488281 0.78125)" xlink:href="#DejaVuSans-61"/>
      <use transform="translate(253.759766 0.78125)" xlink:href="#DejaVuSans-53"/>
      <use transform="translate(317.382812 0.78125)" xlink:href="#DejaVuSans-52"/>
      <use transform="translate(381.005859 0.78125)" xlink:href="#DejaVuSans-52"/>
      <use transform="translate(444.628906 0.78125)" xlink:href="#DejaVuSans-56"/>
      <use transform="translate(508.251953 0.78125)" xlink:href="#DejaVuSans-48"/>
     </g>
    </g>
    <g id="line2d_44">
     <path d="M 221.6 15.298437 
L 241.6 15.298437 
" style="fill:none;stroke:#bcbd22;stroke-linecap:square;stroke-width:1.5;"/>
    </g>
    <g id="line2d_45"/>
    <g id="text_23">
     <!-- $Re=58380$ -->
     <g transform="translate(249.6 18.798437)scale(0.1 -0.1)">
      <use transform="translate(0 0.78125)" xlink:href="#DejaVuSans-Oblique-82"/>
      <use transform="translate(69.482422 0.78125)" xlink:href="#DejaVuSans-Oblique-101"/>
      <use transform="translate(150.488281 0.78125)" xlink:href="#DejaVuSans-61"/>
      <use transform="translate(253.759766 0.78125)" xlink:href="#DejaVuSans-53"/>
      <use transform="translate(317.382812 0.78125)" xlink:href="#DejaVuSans-56"/>
      <use transform="translate(381.005859 0.78125)" xlink:href="#DejaVuSans-51"/>
      <use transform="translate(444.628906 0.78125)" xlink:href="#DejaVuSans-56"/>
      <use transform="translate(508.251953 0.78125)" xlink:href="#DejaVuSans-48"/>
     </g>
    </g>
    <g id="line2d_46">
     <path d="M 221.6 29.976562 
L 241.6 29.976562 
" style="fill:none;stroke:#17becf;stroke-linecap:square;stroke-width:1.5;"/>
    </g>
    <g id="line2d_47"/>
    <g id="text_24">
     <!-- $Re=68160$ -->
     <g transform="translate(249.6 33.476562)scale(0.1 -0.1)">
      <use transform="translate(0 0.78125)" xlink:href="#DejaVuSans-Oblique-82"/>
      <use transform="translate(69.482422 0.78125)" xlink:href="#DejaVuSans-Oblique-101"/>
      <use transform="translate(150.488281 0.78125)" xlink:href="#DejaVuSans-61"/>
      <use transform="translate(253.759766 0.78125)" xlink:href="#DejaVuSans-54"/>
      <use transform="translate(317.382812 0.78125)" xlink:href="#DejaVuSans-56"/>
      <use transform="translate(381.005859 0.78125)" xlink:href="#DejaVuSans-49"/>
      <use transform="translate(444.628906 0.78125)" xlink:href="#DejaVuSans-54"/>
      <use transform="translate(508.251953 0.78125)" xlink:href="#DejaVuSans-48"/>
     </g>
    </g>
    <g id="line2d_48">
     <path d="M 221.6 44.654687 
L 241.6 44.654687 
" style="fill:none;stroke:#1f77b4;stroke-linecap:square;stroke-width:1.5;"/>
    </g>
    <g id="line2d_49"/>
    <g id="text_25">
     <!-- $Re=73580$ -->
     <g transform="translate(249.6 48.154687)scale(0.1 -0.1)">
      <use transform="translate(0 0.78125)" xlink:href="#DejaVuSans-Oblique-82"/>
      <use transform="translate(69.482422 0.78125)" xlink:href="#DejaVuSans-Oblique-101"/>
      <use transform="translate(150.488281 0.78125)" xlink:href="#DejaVuSans-61"/>
      <use transform="translate(253.759766 0.78125)" xlink:href="#DejaVuSans-55"/>
      <use transform="translate(317.382812 0.78125)" xlink:href="#DejaVuSans-51"/>
      <use transform="translate(381.005859 0.78125)" xlink:href="#DejaVuSans-53"/>
      <use transform="translate(444.628906 0.78125)" xlink:href="#DejaVuSans-56"/>
      <use transform="translate(508.251953 0.78125)" xlink:href="#DejaVuSans-48"/>
     </g>
    </g>
    <g id="line2d_50">
     <path d="M 221.6 59.332812 
L 241.6 59.332812 
" style="fill:none;stroke:#ff7f0e;stroke-linecap:square;stroke-width:1.5;"/>
    </g>
    <g id="line2d_51"/>
    <g id="text_26">
     <!-- $Re=76380$ -->
     <g transform="translate(249.6 62.832812)scale(0.1 -0.1)">
      <use transform="translate(0 0.78125)" xlink:href="#DejaVuSans-Oblique-82"/>
      <use transform="translate(69.482422 0.78125)" xlink:href="#DejaVuSans-Oblique-101"/>
      <use transform="translate(150.488281 0.78125)" xlink:href="#DejaVuSans-61"/>
      <use transform="translate(253.759766 0.78125)" xlink:href="#DejaVuSans-55"/>
      <use transform="translate(317.382812 0.78125)" xlink:href="#DejaVuSans-54"/>
      <use transform="translate(381.005859 0.78125)" xlink:href="#DejaVuSans-51"/>
      <use transform="translate(444.628906 0.78125)" xlink:href="#DejaVuSans-56"/>
      <use transform="translate(508.251953 0.78125)" xlink:href="#DejaVuSans-48"/>
     </g>
    </g>
    <g id="line2d_52">
     <path d="M 326.8 15.298437 
L 346.8 15.298437 
" style="fill:none;stroke:#2ca02c;stroke-linecap:square;stroke-width:1.5;"/>
    </g>
    <g id="line2d_53"/>
    <g id="text_27">
     <!-- $Re=85430$ -->
     <g transform="translate(354.8 18.798437)scale(0.1 -0.1)">
      <use transform="translate(0 0.78125)" xlink:href="#DejaVuSans-Oblique-82"/>
      <use transform="translate(69.482422 0.78125)" xlink:href="#DejaVuSans-Oblique-101"/>
      <use transform="translate(150.488281 0.78125)" xlink:href="#DejaVuSans-61"/>
      <use transform="translate(253.759766 0.78125)" xlink:href="#DejaVuSans-56"/>
      <use transform="translate(317.382812 0.78125)" xlink:href="#DejaVuSans-53"/>
      <use transform="translate(381.005859 0.78125)" xlink:href="#DejaVuSans-52"/>
      <use transform="translate(444.628906 0.78125)" xlink:href="#DejaVuSans-51"/>
      <use transform="translate(508.251953 0.78125)" xlink:href="#DejaVuSans-48"/>
     </g>
    </g>
    <g id="line2d_54">
     <path d="M 326.8 29.976562 
L 346.8 29.976562 
" style="fill:none;stroke:#d62728;stroke-linecap:square;stroke-width:1.5;"/>
    </g>
    <g id="line2d_55"/>
    <g id="text_28">
     <!-- $Re=88470$ -->
     <g transform="translate(354.8 33.476562)scale(0.1 -0.1)">
      <use transform="translate(0 0.78125)" xlink:href="#DejaVuSans-Oblique-82"/>
      <use transform="translate(69.482422 0.78125)" xlink:href="#DejaVuSans-Oblique-101"/>
      <use transform="translate(150.488281 0.78125)" xlink:href="#DejaVuSans-61"/>
      <use transform="translate(253.759766 0.78125)" xlink:href="#DejaVuSans-56"/>
      <use transform="translate(317.382812 0.78125)" xlink:href="#DejaVuSans-56"/>
      <use transform="translate(381.005859 0.78125)" xlink:href="#DejaVuSans-52"/>
      <use transform="translate(444.628906 0.78125)" xlink:href="#DejaVuSans-55"/>
      <use transform="translate(508.251953 0.78125)" xlink:href="#DejaVuSans-48"/>
     </g>
    </g>
    <g id="line2d_56">
     <path d="M 326.8 44.654687 
L 346.8 44.654687 
" style="fill:none;stroke:#9467bd;stroke-linecap:square;stroke-width:1.5;"/>
    </g>
    <g id="line2d_57"/>
    <g id="text_29">
     <!-- $Re=95890$ -->
     <g transform="translate(354.8 48.154687)scale(0.1 -0.1)">
      <use transform="translate(0 0.78125)" xlink:href="#DejaVuSans-Oblique-82"/>
      <use transform="translate(69.482422 0.78125)" xlink:href="#DejaVuSans-Oblique-101"/>
      <use transform="translate(150.488281 0.78125)" xlink:href="#DejaVuSans-61"/>
      <use transform="translate(253.759766 0.78125)" xlink:href="#DejaVuSans-57"/>
      <use transform="translate(317.382812 0.78125)" xlink:href="#DejaVuSans-53"/>
      <use transform="translate(381.005859 0.78125)" xlink:href="#DejaVuSans-56"/>
      <use transform="translate(444.628906 0.78125)" xlink:href="#DejaVuSans-57"/>
      <use transform="translate(508.251953 0.78125)" xlink:href="#DejaVuSans-48"/>
     </g>
    </g>
   </g>
  </g>
 </g>
 <defs>
  <clipPath id="pc9c741ced3">
   <rect height="217.44" width="334.8" x="44.2" y="67.432"/>
  </clipPath>
 </defs>
</svg>
