<?xml version="1.0" encoding="utf-8" standalone="no"?>
<!DOCTYPE svg PUBLIC "-//W3C//DTD SVG 1.1//EN"
  "http://www.w3.org/Graphics/SVG/1.1/DTD/svg11.dtd">
<!-- Created with matplotlib (https://matplotlib.org/) -->
<svg height="227.29825pt" version="1.1" viewBox="0 0 414.971875 227.29825" width="414.971875pt" xmlns="http://www.w3.org/2000/svg" xmlns:xlink="http://www.w3.org/1999/xlink">
 <metadata>
  <rdf:RDF xmlns:cc="http://creativecommons.org/ns#" xmlns:dc="http://purl.org/dc/elements/1.1/" xmlns:rdf="http://www.w3.org/1999/02/22-rdf-syntax-ns#">
   <cc:Work>
    <dc:type rdf:resource="http://purl.org/dc/dcmitype/StillImage"/>
    <dc:date>2021-12-22T12:08:54.737535</dc:date>
    <dc:format>image/svg+xml</dc:format>
    <dc:creator>
     <cc:Agent>
      <dc:title>Matplotlib v3.3.3, https://matplotlib.org/</dc:title>
     </cc:Agent>
    </dc:creator>
   </cc:Work>
  </rdf:RDF>
 </metadata>
 <defs>
  <style type="text/css">*{stroke-linecap:butt;stroke-linejoin:round;}</style>
 </defs>
 <g id="figure_1">
  <g id="patch_1">
   <path d="M 0 227.29825 
L 414.971875 227.29825 
L 414.971875 0 
L 0 0 
z
" style="fill:none;"/>
  </g>
  <g id="axes_1">
   <g id="patch_2">
    <path d="M 59.445313 189.742 
L 394.245313 189.742 
L 394.245313 26.662 
L 59.445313 26.662 
z
" style="fill:#ffffff;"/>
   </g>
   <g id="matplotlib.axis_1">
    <g id="xtick_1">
     <g id="line2d_1">
      <defs>
       <path d="M 0 0 
L 0 3.5 
" id="m7ddfd2aee7" style="stroke:#000000;stroke-width:0.8;"/>
      </defs>
      <g>
       <use style="stroke:#000000;stroke-width:0.8;" x="73.390006" xlink:href="#m7ddfd2aee7" y="189.742"/>
      </g>
     </g>
     <g id="text_1">
      <!-- 4 -->
      <g transform="translate(70.208756 204.340438)scale(0.1 -0.1)">
       <defs>
        <path d="M 37.796875 64.3125 
L 12.890625 25.390625 
L 37.796875 25.390625 
z
M 35.203125 72.90625 
L 47.609375 72.90625 
L 47.609375 25.390625 
L 58.015625 25.390625 
L 58.015625 17.1875 
L 47.609375 17.1875 
L 47.609375 0 
L 37.796875 0 
L 37.796875 17.1875 
L 4.890625 17.1875 
L 4.890625 26.703125 
z
" id="DejaVuSans-52"/>
       </defs>
       <use xlink:href="#DejaVuSans-52"/>
      </g>
     </g>
    </g>
    <g id="xtick_2">
     <g id="line2d_2">
      <g>
       <use style="stroke:#000000;stroke-width:0.8;" x="124.329527" xlink:href="#m7ddfd2aee7" y="189.742"/>
      </g>
     </g>
     <g id="text_2">
      <!-- 5 -->
      <g transform="translate(121.148277 204.340438)scale(0.1 -0.1)">
       <defs>
        <path d="M 10.796875 72.90625 
L 49.515625 72.90625 
L 49.515625 64.59375 
L 19.828125 64.59375 
L 19.828125 46.734375 
Q 21.96875 47.46875 24.109375 47.828125 
Q 26.265625 48.1875 28.421875 48.1875 
Q 40.625 48.1875 47.75 41.5 
Q 54.890625 34.8125 54.890625 23.390625 
Q 54.890625 11.625 47.5625 5.09375 
Q 40.234375 -1.421875 26.90625 -1.421875 
Q 22.3125 -1.421875 17.546875 -0.640625 
Q 12.796875 0.140625 7.71875 1.703125 
L 7.71875 11.625 
Q 12.109375 9.234375 16.796875 8.0625 
Q 21.484375 6.890625 26.703125 6.890625 
Q 35.15625 6.890625 40.078125 11.328125 
Q 45.015625 15.765625 45.015625 23.390625 
Q 45.015625 31 40.078125 35.4375 
Q 35.15625 39.890625 26.703125 39.890625 
Q 22.75 39.890625 18.8125 39.015625 
Q 14.890625 38.140625 10.796875 36.28125 
z
" id="DejaVuSans-53"/>
       </defs>
       <use xlink:href="#DejaVuSans-53"/>
      </g>
     </g>
    </g>
    <g id="xtick_3">
     <g id="line2d_3">
      <g>
       <use style="stroke:#000000;stroke-width:0.8;" x="175.269048" xlink:href="#m7ddfd2aee7" y="189.742"/>
      </g>
     </g>
     <g id="text_3">
      <!-- 6 -->
      <g transform="translate(172.087798 204.340438)scale(0.1 -0.1)">
       <defs>
        <path d="M 33.015625 40.375 
Q 26.375 40.375 22.484375 35.828125 
Q 18.609375 31.296875 18.609375 23.390625 
Q 18.609375 15.53125 22.484375 10.953125 
Q 26.375 6.390625 33.015625 6.390625 
Q 39.65625 6.390625 43.53125 10.953125 
Q 47.40625 15.53125 47.40625 23.390625 
Q 47.40625 31.296875 43.53125 35.828125 
Q 39.65625 40.375 33.015625 40.375 
z
M 52.59375 71.296875 
L 52.59375 62.3125 
Q 48.875 64.0625 45.09375 64.984375 
Q 41.3125 65.921875 37.59375 65.921875 
Q 27.828125 65.921875 22.671875 59.328125 
Q 17.53125 52.734375 16.796875 39.40625 
Q 19.671875 43.65625 24.015625 45.921875 
Q 28.375 48.1875 33.59375 48.1875 
Q 44.578125 48.1875 50.953125 41.515625 
Q 57.328125 34.859375 57.328125 23.390625 
Q 57.328125 12.15625 50.6875 5.359375 
Q 44.046875 -1.421875 33.015625 -1.421875 
Q 20.359375 -1.421875 13.671875 8.265625 
Q 6.984375 17.96875 6.984375 36.375 
Q 6.984375 53.65625 15.1875 63.9375 
Q 23.390625 74.21875 37.203125 74.21875 
Q 40.921875 74.21875 44.703125 73.484375 
Q 48.484375 72.75 52.59375 71.296875 
z
" id="DejaVuSans-54"/>
       </defs>
       <use xlink:href="#DejaVuSans-54"/>
      </g>
     </g>
    </g>
    <g id="xtick_4">
     <g id="line2d_4">
      <g>
       <use style="stroke:#000000;stroke-width:0.8;" x="226.208568" xlink:href="#m7ddfd2aee7" y="189.742"/>
      </g>
     </g>
     <g id="text_4">
      <!-- 7 -->
      <g transform="translate(223.027318 204.340438)scale(0.1 -0.1)">
       <defs>
        <path d="M 8.203125 72.90625 
L 55.078125 72.90625 
L 55.078125 68.703125 
L 28.609375 0 
L 18.3125 0 
L 43.21875 64.59375 
L 8.203125 64.59375 
z
" id="DejaVuSans-55"/>
       </defs>
       <use xlink:href="#DejaVuSans-55"/>
      </g>
     </g>
    </g>
    <g id="xtick_5">
     <g id="line2d_5">
      <g>
       <use style="stroke:#000000;stroke-width:0.8;" x="277.148089" xlink:href="#m7ddfd2aee7" y="189.742"/>
      </g>
     </g>
     <g id="text_5">
      <!-- 8 -->
      <g transform="translate(273.966839 204.340438)scale(0.1 -0.1)">
       <defs>
        <path d="M 31.78125 34.625 
Q 24.75 34.625 20.71875 30.859375 
Q 16.703125 27.09375 16.703125 20.515625 
Q 16.703125 13.921875 20.71875 10.15625 
Q 24.75 6.390625 31.78125 6.390625 
Q 38.8125 6.390625 42.859375 10.171875 
Q 46.921875 13.96875 46.921875 20.515625 
Q 46.921875 27.09375 42.890625 30.859375 
Q 38.875 34.625 31.78125 34.625 
z
M 21.921875 38.8125 
Q 15.578125 40.375 12.03125 44.71875 
Q 8.5 49.078125 8.5 55.328125 
Q 8.5 64.0625 14.71875 69.140625 
Q 20.953125 74.21875 31.78125 74.21875 
Q 42.671875 74.21875 48.875 69.140625 
Q 55.078125 64.0625 55.078125 55.328125 
Q 55.078125 49.078125 51.53125 44.71875 
Q 48 40.375 41.703125 38.8125 
Q 48.828125 37.15625 52.796875 32.3125 
Q 56.78125 27.484375 56.78125 20.515625 
Q 56.78125 9.90625 50.3125 4.234375 
Q 43.84375 -1.421875 31.78125 -1.421875 
Q 19.734375 -1.421875 13.25 4.234375 
Q 6.78125 9.90625 6.78125 20.515625 
Q 6.78125 27.484375 10.78125 32.3125 
Q 14.796875 37.15625 21.921875 38.8125 
z
M 18.3125 54.390625 
Q 18.3125 48.734375 21.84375 45.5625 
Q 25.390625 42.390625 31.78125 42.390625 
Q 38.140625 42.390625 41.71875 45.5625 
Q 45.3125 48.734375 45.3125 54.390625 
Q 45.3125 60.0625 41.71875 63.234375 
Q 38.140625 66.40625 31.78125 66.40625 
Q 25.390625 66.40625 21.84375 63.234375 
Q 18.3125 60.0625 18.3125 54.390625 
z
" id="DejaVuSans-56"/>
       </defs>
       <use xlink:href="#DejaVuSans-56"/>
      </g>
     </g>
    </g>
    <g id="xtick_6">
     <g id="line2d_6">
      <g>
       <use style="stroke:#000000;stroke-width:0.8;" x="328.08761" xlink:href="#m7ddfd2aee7" y="189.742"/>
      </g>
     </g>
     <g id="text_6">
      <!-- 9 -->
      <g transform="translate(324.90636 204.340438)scale(0.1 -0.1)">
       <defs>
        <path d="M 10.984375 1.515625 
L 10.984375 10.5 
Q 14.703125 8.734375 18.5 7.8125 
Q 22.3125 6.890625 25.984375 6.890625 
Q 35.75 6.890625 40.890625 13.453125 
Q 46.046875 20.015625 46.78125 33.40625 
Q 43.953125 29.203125 39.59375 26.953125 
Q 35.25 24.703125 29.984375 24.703125 
Q 19.046875 24.703125 12.671875 31.3125 
Q 6.296875 37.9375 6.296875 49.421875 
Q 6.296875 60.640625 12.9375 67.421875 
Q 19.578125 74.21875 30.609375 74.21875 
Q 43.265625 74.21875 49.921875 64.515625 
Q 56.59375 54.828125 56.59375 36.375 
Q 56.59375 19.140625 48.40625 8.859375 
Q 40.234375 -1.421875 26.421875 -1.421875 
Q 22.703125 -1.421875 18.890625 -0.6875 
Q 15.09375 0.046875 10.984375 1.515625 
z
M 30.609375 32.421875 
Q 37.25 32.421875 41.125 36.953125 
Q 45.015625 41.5 45.015625 49.421875 
Q 45.015625 57.28125 41.125 61.84375 
Q 37.25 66.40625 30.609375 66.40625 
Q 23.96875 66.40625 20.09375 61.84375 
Q 16.21875 57.28125 16.21875 49.421875 
Q 16.21875 41.5 20.09375 36.953125 
Q 23.96875 32.421875 30.609375 32.421875 
z
" id="DejaVuSans-57"/>
       </defs>
       <use xlink:href="#DejaVuSans-57"/>
      </g>
     </g>
    </g>
    <g id="xtick_7">
     <g id="line2d_7">
      <g>
       <use style="stroke:#000000;stroke-width:0.8;" x="379.027131" xlink:href="#m7ddfd2aee7" y="189.742"/>
      </g>
     </g>
     <g id="text_7">
      <!-- 10 -->
      <g transform="translate(372.664631 204.340438)scale(0.1 -0.1)">
       <defs>
        <path d="M 12.40625 8.296875 
L 28.515625 8.296875 
L 28.515625 63.921875 
L 10.984375 60.40625 
L 10.984375 69.390625 
L 28.421875 72.90625 
L 38.28125 72.90625 
L 38.28125 8.296875 
L 54.390625 8.296875 
L 54.390625 0 
L 12.40625 0 
z
" id="DejaVuSans-49"/>
        <path d="M 31.78125 66.40625 
Q 24.171875 66.40625 20.328125 58.90625 
Q 16.5 51.421875 16.5 36.375 
Q 16.5 21.390625 20.328125 13.890625 
Q 24.171875 6.390625 31.78125 6.390625 
Q 39.453125 6.390625 43.28125 13.890625 
Q 47.125 21.390625 47.125 36.375 
Q 47.125 51.421875 43.28125 58.90625 
Q 39.453125 66.40625 31.78125 66.40625 
z
M 31.78125 74.21875 
Q 44.046875 74.21875 50.515625 64.515625 
Q 56.984375 54.828125 56.984375 36.375 
Q 56.984375 17.96875 50.515625 8.265625 
Q 44.046875 -1.421875 31.78125 -1.421875 
Q 19.53125 -1.421875 13.0625 8.265625 
Q 6.59375 17.96875 6.59375 36.375 
Q 6.59375 54.828125 13.0625 64.515625 
Q 19.53125 74.21875 31.78125 74.21875 
z
" id="DejaVuSans-48"/>
       </defs>
       <use xlink:href="#DejaVuSans-49"/>
       <use x="63.623047" xlink:href="#DejaVuSans-48"/>
      </g>
     </g>
    </g>
    <g id="text_8">
     <!-- $t$ in $s$ -->
     <g transform="translate(214.495313 218.018563)scale(0.1 -0.1)">
      <defs>
       <path d="M 42.28125 54.6875 
L 40.921875 47.703125 
L 23 47.703125 
L 17.1875 18.015625 
Q 16.890625 16.359375 16.75 15.234375 
Q 16.609375 14.109375 16.609375 13.484375 
Q 16.609375 10.359375 18.484375 8.9375 
Q 20.359375 7.515625 24.515625 7.515625 
L 33.59375 7.515625 
L 32.078125 0 
L 23.484375 0 
Q 15.484375 0 11.546875 3.125 
Q 7.625 6.25 7.625 12.59375 
Q 7.625 13.71875 7.765625 15.0625 
Q 7.90625 16.40625 8.203125 18.015625 
L 14.015625 47.703125 
L 6.390625 47.703125 
L 7.8125 54.6875 
L 15.28125 54.6875 
L 18.3125 70.21875 
L 27.296875 70.21875 
L 24.3125 54.6875 
z
" id="DejaVuSans-Oblique-116"/>
       <path id="DejaVuSans-32"/>
       <path d="M 9.421875 54.6875 
L 18.40625 54.6875 
L 18.40625 0 
L 9.421875 0 
z
M 9.421875 75.984375 
L 18.40625 75.984375 
L 18.40625 64.59375 
L 9.421875 64.59375 
z
" id="DejaVuSans-105"/>
       <path d="M 54.890625 33.015625 
L 54.890625 0 
L 45.90625 0 
L 45.90625 32.71875 
Q 45.90625 40.484375 42.875 44.328125 
Q 39.84375 48.1875 33.796875 48.1875 
Q 26.515625 48.1875 22.3125 43.546875 
Q 18.109375 38.921875 18.109375 30.90625 
L 18.109375 0 
L 9.078125 0 
L 9.078125 54.6875 
L 18.109375 54.6875 
L 18.109375 46.1875 
Q 21.34375 51.125 25.703125 53.5625 
Q 30.078125 56 35.796875 56 
Q 45.21875 56 50.046875 50.171875 
Q 54.890625 44.34375 54.890625 33.015625 
z
" id="DejaVuSans-110"/>
       <path d="M 50 53.078125 
L 48.296875 44.578125 
Q 44.734375 46.53125 40.765625 47.5 
Q 36.8125 48.484375 32.625 48.484375 
Q 25.53125 48.484375 21.453125 46.0625 
Q 17.390625 43.65625 17.390625 39.5 
Q 17.390625 34.671875 26.859375 32.078125 
Q 27.59375 31.890625 27.9375 31.78125 
L 30.8125 30.90625 
Q 39.796875 28.421875 42.796875 25.6875 
Q 45.796875 22.953125 45.796875 18.21875 
Q 45.796875 9.515625 38.890625 4.046875 
Q 31.984375 -1.421875 20.796875 -1.421875 
Q 16.453125 -1.421875 11.671875 -0.578125 
Q 6.890625 0.25 1.125 2 
L 2.875 11.28125 
Q 7.8125 8.734375 12.59375 7.421875 
Q 17.390625 6.109375 21.78125 6.109375 
Q 28.375 6.109375 32.5 8.9375 
Q 36.625 11.765625 36.625 16.109375 
Q 36.625 20.796875 25.78125 23.6875 
L 24.859375 23.921875 
L 21.78125 24.703125 
Q 14.9375 26.515625 11.765625 29.46875 
Q 8.59375 32.421875 8.59375 37.015625 
Q 8.59375 45.75 15.15625 50.875 
Q 21.734375 56 33.015625 56 
Q 37.453125 56 41.671875 55.265625 
Q 45.90625 54.546875 50 53.078125 
z
" id="DejaVuSans-Oblique-115"/>
      </defs>
      <use transform="translate(0 0.015625)" xlink:href="#DejaVuSans-Oblique-116"/>
      <use transform="translate(39.208984 0.015625)" xlink:href="#DejaVuSans-32"/>
      <use transform="translate(70.996094 0.015625)" xlink:href="#DejaVuSans-105"/>
      <use transform="translate(98.779297 0.015625)" xlink:href="#DejaVuSans-110"/>
      <use transform="translate(162.158203 0.015625)" xlink:href="#DejaVuSans-32"/>
      <use transform="translate(193.945312 0.015625)" xlink:href="#DejaVuSans-Oblique-115"/>
     </g>
    </g>
   </g>
   <g id="matplotlib.axis_2">
    <g id="ytick_1">
     <g id="line2d_8">
      <defs>
       <path d="M 0 0 
L -3.5 0 
" id="mfb08a93146" style="stroke:#000000;stroke-width:0.8;"/>
      </defs>
      <g>
       <use style="stroke:#000000;stroke-width:0.8;" x="59.445313" xlink:href="#mfb08a93146" y="168.650001"/>
      </g>
     </g>
     <g id="text_9">
      <!-- −0.75 -->
      <g transform="translate(21.8 172.44922)scale(0.1 -0.1)">
       <defs>
        <path d="M 10.59375 35.5 
L 73.1875 35.5 
L 73.1875 27.203125 
L 10.59375 27.203125 
z
" id="DejaVuSans-8722"/>
        <path d="M 10.6875 12.40625 
L 21 12.40625 
L 21 0 
L 10.6875 0 
z
" id="DejaVuSans-46"/>
       </defs>
       <use xlink:href="#DejaVuSans-8722"/>
       <use x="83.789062" xlink:href="#DejaVuSans-48"/>
       <use x="147.412109" xlink:href="#DejaVuSans-46"/>
       <use x="179.199219" xlink:href="#DejaVuSans-55"/>
       <use x="242.822266" xlink:href="#DejaVuSans-53"/>
      </g>
     </g>
    </g>
    <g id="ytick_2">
     <g id="line2d_9">
      <g>
       <use style="stroke:#000000;stroke-width:0.8;" x="59.445313" xlink:href="#mfb08a93146" y="146.218017"/>
      </g>
     </g>
     <g id="text_10">
      <!-- −0.50 -->
      <g transform="translate(21.8 150.017236)scale(0.1 -0.1)">
       <use xlink:href="#DejaVuSans-8722"/>
       <use x="83.789062" xlink:href="#DejaVuSans-48"/>
       <use x="147.412109" xlink:href="#DejaVuSans-46"/>
       <use x="179.199219" xlink:href="#DejaVuSans-53"/>
       <use x="242.822266" xlink:href="#DejaVuSans-48"/>
      </g>
     </g>
    </g>
    <g id="ytick_3">
     <g id="line2d_10">
      <g>
       <use style="stroke:#000000;stroke-width:0.8;" x="59.445313" xlink:href="#mfb08a93146" y="123.786034"/>
      </g>
     </g>
     <g id="text_11">
      <!-- −0.25 -->
      <g transform="translate(21.8 127.585253)scale(0.1 -0.1)">
       <defs>
        <path d="M 19.1875 8.296875 
L 53.609375 8.296875 
L 53.609375 0 
L 7.328125 0 
L 7.328125 8.296875 
Q 12.9375 14.109375 22.625 23.890625 
Q 32.328125 33.6875 34.8125 36.53125 
Q 39.546875 41.84375 41.421875 45.53125 
Q 43.3125 49.21875 43.3125 52.78125 
Q 43.3125 58.59375 39.234375 62.25 
Q 35.15625 65.921875 28.609375 65.921875 
Q 23.96875 65.921875 18.8125 64.3125 
Q 13.671875 62.703125 7.8125 59.421875 
L 7.8125 69.390625 
Q 13.765625 71.78125 18.9375 73 
Q 24.125 74.21875 28.421875 74.21875 
Q 39.75 74.21875 46.484375 68.546875 
Q 53.21875 62.890625 53.21875 53.421875 
Q 53.21875 48.921875 51.53125 44.890625 
Q 49.859375 40.875 45.40625 35.40625 
Q 44.1875 33.984375 37.640625 27.21875 
Q 31.109375 20.453125 19.1875 8.296875 
z
" id="DejaVuSans-50"/>
       </defs>
       <use xlink:href="#DejaVuSans-8722"/>
       <use x="83.789062" xlink:href="#DejaVuSans-48"/>
       <use x="147.412109" xlink:href="#DejaVuSans-46"/>
       <use x="179.199219" xlink:href="#DejaVuSans-50"/>
       <use x="242.822266" xlink:href="#DejaVuSans-53"/>
      </g>
     </g>
    </g>
    <g id="ytick_4">
     <g id="line2d_11">
      <g>
       <use style="stroke:#000000;stroke-width:0.8;" x="59.445313" xlink:href="#mfb08a93146" y="101.35405"/>
      </g>
     </g>
     <g id="text_12">
      <!-- 0.00 -->
      <g transform="translate(30.179688 105.153269)scale(0.1 -0.1)">
       <use xlink:href="#DejaVuSans-48"/>
       <use x="63.623047" xlink:href="#DejaVuSans-46"/>
       <use x="95.410156" xlink:href="#DejaVuSans-48"/>
       <use x="159.033203" xlink:href="#DejaVuSans-48"/>
      </g>
     </g>
    </g>
    <g id="ytick_5">
     <g id="line2d_12">
      <g>
       <use style="stroke:#000000;stroke-width:0.8;" x="59.445313" xlink:href="#mfb08a93146" y="78.922067"/>
      </g>
     </g>
     <g id="text_13">
      <!-- 0.25 -->
      <g transform="translate(30.179688 82.721286)scale(0.1 -0.1)">
       <use xlink:href="#DejaVuSans-48"/>
       <use x="63.623047" xlink:href="#DejaVuSans-46"/>
       <use x="95.410156" xlink:href="#DejaVuSans-50"/>
       <use x="159.033203" xlink:href="#DejaVuSans-53"/>
      </g>
     </g>
    </g>
    <g id="ytick_6">
     <g id="line2d_13">
      <g>
       <use style="stroke:#000000;stroke-width:0.8;" x="59.445313" xlink:href="#mfb08a93146" y="56.490083"/>
      </g>
     </g>
     <g id="text_14">
      <!-- 0.50 -->
      <g transform="translate(30.179688 60.289302)scale(0.1 -0.1)">
       <use xlink:href="#DejaVuSans-48"/>
       <use x="63.623047" xlink:href="#DejaVuSans-46"/>
       <use x="95.410156" xlink:href="#DejaVuSans-53"/>
       <use x="159.033203" xlink:href="#DejaVuSans-48"/>
      </g>
     </g>
    </g>
    <g id="ytick_7">
     <g id="line2d_14">
      <g>
       <use style="stroke:#000000;stroke-width:0.8;" x="59.445313" xlink:href="#mfb08a93146" y="34.0581"/>
      </g>
     </g>
     <g id="text_15">
      <!-- 0.75 -->
      <g transform="translate(30.179688 37.857318)scale(0.1 -0.1)">
       <use xlink:href="#DejaVuSans-48"/>
       <use x="63.623047" xlink:href="#DejaVuSans-46"/>
       <use x="95.410156" xlink:href="#DejaVuSans-55"/>
       <use x="159.033203" xlink:href="#DejaVuSans-53"/>
      </g>
     </g>
    </g>
    <g id="text_16">
     <!-- $u_i^\prime$ -->
     <g transform="translate(15 112.702)rotate(-90)scale(0.1 -0.1)">
      <defs>
       <path d="M 6.6875 21.6875 
L 13.09375 54.6875 
L 22.125 54.6875 
L 15.71875 22.015625 
Q 15.234375 19.625 15.015625 17.921875 
Q 14.796875 16.21875 14.796875 15.09375 
Q 14.796875 10.9375 17.328125 8.65625 
Q 19.875 6.390625 24.515625 6.390625 
Q 31.734375 6.390625 37 11.265625 
Q 42.28125 16.15625 43.890625 24.421875 
L 49.90625 54.6875 
L 58.890625 54.6875 
L 48.296875 0 
L 39.3125 0 
L 41.109375 8.59375 
Q 37.3125 3.8125 32.0625 1.1875 
Q 26.8125 -1.421875 20.90625 -1.421875 
Q 13.71875 -1.421875 9.71875 2.515625 
Q 5.71875 6.453125 5.71875 13.484375 
Q 5.71875 14.9375 5.953125 17.140625 
Q 6.203125 19.34375 6.6875 21.6875 
z
" id="DejaVuSans-Oblique-117"/>
       <path d="M 3.515625 5.421875 
Q 2.875 5.609375 2.875 6.390625 
L 15.09375 51.8125 
Q 15.671875 53.65625 17.078125 54.78125 
Q 18.5 55.90625 20.3125 55.90625 
Q 22.65625 55.90625 24.4375 54.359375 
Q 26.21875 52.828125 26.21875 50.484375 
Q 26.21875 49.46875 25.6875 48.1875 
L 7.625 4.984375 
Q 7.28125 4.296875 6.6875 4.296875 
Q 6.15625 4.296875 5 4.78125 
Q 3.859375 5.28125 3.515625 5.421875 
z
" id="Cmsy10-48"/>
       <path d="M 18.3125 75.984375 
L 27.296875 75.984375 
L 25.09375 64.59375 
L 16.109375 64.59375 
z
M 14.203125 54.6875 
L 23.1875 54.6875 
L 12.5 0 
L 3.515625 0 
z
" id="DejaVuSans-Oblique-105"/>
      </defs>
      <use transform="translate(0 0.520313)" xlink:href="#DejaVuSans-Oblique-117"/>
      <use transform="translate(67.845052 38.865625)scale(0.7)" xlink:href="#Cmsy10-48"/>
      <use transform="translate(63.378906 -26.823437)scale(0.7)" xlink:href="#DejaVuSans-Oblique-105"/>
     </g>
    </g>
   </g>
   <g id="line2d_15">
    <path clip-path="url(#p31659e4056)" d="M 74.663494 123.467559 
L 75.936982 159.665215 
L 77.21047 179.525221 
L 78.483958 180.833279 
L 79.757446 160.9022 
L 81.030934 119.100362 
L 82.304422 84.844895 
L 83.57791 60.67619 
L 84.851398 43.03197 
L 86.124886 35.548542 
L 87.398375 41.527297 
L 88.671863 56.474771 
L 89.945351 78.201766 
L 91.218839 110.880481 
L 92.492327 149.272022 
L 93.765815 175.381264 
L 95.039303 182.329273 
L 96.312791 170.17864 
L 98.859767 94.120848 
L 100.133255 67.572054 
L 101.406743 47.676284 
L 102.680231 36.185128 
L 103.953719 37.905869 
L 105.227207 50.667619 
L 106.500695 69.922461 
L 107.774183 98.92686 
L 109.047671 137.328282 
L 110.321159 169.166482 
L 111.594647 181.973393 
L 112.868135 176.633994 
L 114.141623 147.173875 
L 115.415111 104.812882 
L 116.688599 75.198697 
L 117.962087 53.311053 
L 119.235575 38.477121 
L 120.509063 35.634113 
L 121.782551 45.544748 
L 123.056039 62.743035 
L 124.329527 88.092029 
L 126.876503 160.78478 
L 128.149991 179.870849 
L 129.423479 180.524485 
L 130.696967 159.667867 
L 131.970455 117.348034 
L 133.243943 83.619109 
L 134.517431 59.700464 
L 135.790919 42.168535 
L 137.064407 34.880359 
L 138.337895 41.174112 
L 139.611383 56.426552 
L 140.884871 78.570214 
L 142.158359 111.835098 
L 143.431847 150.381437 
L 144.705335 175.895268 
L 145.978823 182.236599 
L 147.252311 169.385748 
L 149.799287 92.996319 
L 151.072775 66.73013 
L 152.346263 46.983478 
L 153.619751 35.708988 
L 154.893239 37.755873 
L 156.166727 50.782081 
L 157.440216 70.322549 
L 158.713704 99.778604 
L 159.987192 138.4321 
L 161.26068 169.844811 
L 162.534168 182.060772 
L 163.807656 176.151774 
L 165.081144 145.88506 
L 166.354632 103.67202 
L 167.62812 74.397108 
L 168.901608 52.676489 
L 170.175096 38.050944 
L 171.448584 35.546242 
L 172.722072 45.740096 
L 173.99556 63.150354 
L 175.269048 88.856095 
L 177.816024 161.615747 
L 179.089512 180.123792 
L 180.363 180.268183 
L 181.636488 158.666738 
L 182.909976 116.123681 
L 184.183464 82.802941 
L 185.456952 59.072874 
L 186.73044 41.726977 
L 188.003928 34.766057 
L 189.277416 41.385858 
L 190.550904 56.830266 
L 191.824392 79.248922 
L 193.09788 112.864263 
L 194.371368 151.342466 
L 195.644856 176.315338 
L 196.918344 182.167843 
L 198.191832 168.675175 
L 200.738808 92.124338 
L 202.012296 66.082858 
L 203.285784 46.502857 
L 204.559272 35.520902 
L 205.83276 37.93016 
L 207.106248 51.170682 
L 208.379736 70.920692 
L 209.653224 100.725268 
L 210.926712 139.479497 
L 212.2002 170.444782 
L 213.473688 182.139861 
L 214.747176 175.687732 
L 216.020664 144.703829 
L 217.294152 102.692138 
L 218.56764 73.710998 
L 219.841128 52.152387 
L 221.114616 37.772581 
L 222.388104 35.641119 
L 223.661592 46.100972 
L 224.93508 63.684564 
L 226.208568 89.700137 
L 228.755545 162.390273 
L 230.029033 180.354727 
L 231.302521 180.010079 
L 232.576009 157.689626 
L 233.849497 114.998548 
L 235.122985 82.059006 
L 236.396473 58.505569 
L 237.669961 41.361256 
L 238.943449 34.753072 
L 240.216937 41.696717 
L 241.490425 57.311455 
L 242.763913 79.98692 
L 244.037401 113.908756 
L 245.310889 152.269775 
L 246.584377 176.709259 
L 247.857865 182.085443 
L 249.131353 167.95558 
L 251.678329 91.299971 
L 252.951817 65.470842 
L 254.225305 46.062325 
L 255.498793 35.389497 
L 256.772281 38.165075 
L 258.045769 51.609887 
L 259.319257 71.561267 
L 260.592745 101.693779 
L 261.866233 140.511492 
L 263.139721 171.016083 
L 264.413209 182.211366 
L 265.686697 175.213159 
L 266.960185 143.529658 
L 268.233673 101.748908 
L 269.507161 73.047864 
L 270.780649 51.650501 
L 272.054137 37.526596 
L 273.327625 35.774546 
L 274.601113 46.49399 
L 275.874601 64.245591 
L 277.148089 90.565492 
L 279.695065 163.143311 
L 280.968553 180.570244 
L 282.242041 179.744605 
L 283.515529 156.702471 
L 284.789017 113.899862 
L 286.062505 81.332089 
L 287.335993 57.95156 
L 288.609481 41.014971 
L 289.882969 34.766603 
L 291.156457 42.030273 
L 292.429945 57.811747 
L 293.703433 80.741242 
L 294.976921 114.959512 
L 296.250409 153.182039 
L 297.523898 177.087527 
L 298.797386 181.984255 
L 300.070874 167.216239 
L 302.61785 90.491083 
L 303.891338 64.86856 
L 305.164826 45.633988 
L 306.438314 35.276575 
L 307.711802 38.41721 
L 308.98529 52.058783 
L 310.258778 72.216529 
L 311.532266 102.671195 
L 312.805754 141.535512 
L 314.079242 171.571082 
L 315.35273 182.268571 
L 316.626218 174.720386 
L 317.899706 142.349307 
L 319.173194 100.821664 
L 320.446682 72.392506 
L 321.72017 51.15652 
L 322.993658 37.294067 
L 324.267146 35.921868 
L 325.540634 46.894655 
L 326.814122 64.816073 
L 328.08761 91.441126 
L 330.634586 163.87971 
L 331.908074 180.773968 
L 333.181562 179.461455 
L 334.45505 155.697052 
L 335.728538 112.816712 
L 337.002026 80.61281 
L 338.275514 57.403305 
L 339.549002 40.678376 
L 340.82249 34.792702 
L 342.095978 42.371392 
L 343.369466 58.317954 
L 344.642954 81.506473 
L 345.916442 116.014498 
L 347.18993 154.082206 
L 348.463418 177.452718 
L 349.736906 181.876654 
L 351.010394 166.460431 
L 353.55737 89.690965 
L 354.830858 64.271155 
L 356.104346 45.212571 
L 357.377834 35.175526 
L 358.651322 38.678299 
L 359.92481 52.513722 
L 361.198298 72.877182 
L 362.471786 103.657312 
L 363.745274 142.552397 
L 365.018762 172.112122 
L 366.29225 182.312897 
L 367.565739 174.207269 
L 368.839227 141.162122 
L 370.112715 99.906923 
L 371.386203 71.74255 
L 372.659691 50.668079 
L 373.933179 37.071624 
L 375.206667 36.080292 
L 376.480155 47.300873 
L 377.753643 65.393464 
L 379.027131 92.32612 
L 379.027131 92.32612 
" style="fill:none;stroke:#1f77b4;stroke-linecap:square;stroke-width:1.5;"/>
   </g>
   <g id="line2d_16">
    <path clip-path="url(#p31659e4056)" d="M 74.663494 98.366848 
L 75.936982 127.432502 
L 77.21047 152.577585 
L 78.483958 165.751457 
L 79.757446 164.881867 
L 81.030934 150.431566 
L 83.57791 93.299552 
L 84.851398 64.963009 
L 86.124886 44.848738 
L 87.398375 37.667216 
L 88.671863 41.858682 
L 89.945351 58.906347 
L 92.492327 118.287875 
L 93.765815 145.662858 
L 95.039303 163.363036 
L 96.312791 166.837239 
L 97.586279 156.895584 
L 98.859767 132.582569 
L 101.406743 73.601735 
L 102.680231 49.840707 
L 103.953719 38.584304 
L 105.227207 39.182506 
L 106.500695 51.602549 
L 107.774183 78.597522 
L 110.321159 137.53249 
L 111.594647 159.309078 
L 112.868135 167.340964 
L 114.141623 161.739889 
L 115.415111 141.89167 
L 117.962087 82.857881 
L 119.235575 56.28721 
L 120.509063 40.764434 
L 121.782551 37.749338 
L 123.056039 46.006105 
L 124.329527 68.578963 
L 126.876503 128.605478 
L 128.149991 153.662099 
L 129.423479 166.391498 
L 130.696967 165.066032 
L 131.970455 150.028279 
L 135.790919 64.02002 
L 137.064407 44.287231 
L 138.337895 37.477483 
L 139.611383 41.957115 
L 140.884871 59.527514 
L 143.431847 119.258413 
L 144.705335 146.593023 
L 145.978823 163.92179 
L 147.252311 166.974003 
L 148.525799 156.579227 
L 149.799287 131.786045 
L 152.346263 72.724341 
L 153.619751 49.236708 
L 154.893239 38.369766 
L 156.166727 39.255963 
L 157.440216 52.076052 
L 158.713704 79.491233 
L 161.26068 138.396131 
L 162.534168 159.877356 
L 163.807656 167.496651 
L 165.081144 161.504654 
L 166.354632 141.18314 
L 168.901608 82.01598 
L 170.175096 55.619947 
L 171.448584 40.480637 
L 172.722072 37.770944 
L 173.99556 46.360087 
L 175.269048 69.393483 
L 177.816024 129.439981 
L 179.089512 154.28264 
L 180.363 166.611309 
L 181.636488 164.911287 
L 182.909976 149.442876 
L 186.73044 63.29168 
L 188.003928 43.908161 
L 189.277416 37.430932 
L 190.550904 42.209871 
L 191.824392 60.214148 
L 194.371368 120.076473 
L 195.644856 147.278245 
L 196.918344 164.234847 
L 198.191832 166.911343 
L 199.46532 156.126106 
L 200.738808 130.976242 
L 203.285784 71.95182 
L 204.559272 48.748781 
L 205.83276 38.236307 
L 207.106248 39.415249 
L 208.379736 52.616541 
L 209.653224 80.348991 
L 212.2002 139.136881 
L 213.473688 160.302303 
L 214.747176 167.529328 
L 216.020664 161.172809 
L 217.294152 140.441928 
L 219.841128 81.220748 
L 221.114616 55.024601 
L 222.388104 40.248461 
L 223.661592 37.833673 
L 224.93508 46.76379 
L 226.208568 70.210226 
L 228.755545 130.216177 
L 230.029033 154.819846 
L 231.302521 166.754406 
L 232.576009 164.693091 
L 233.849497 148.818072 
L 237.669961 62.604468 
L 238.943449 43.564961 
L 240.216937 37.410203 
L 241.490425 42.495032 
L 242.763913 60.920424 
L 245.310889 120.868412 
L 246.584377 147.91651 
L 247.857865 164.498844 
L 249.131353 166.80455 
L 250.404841 155.638334 
L 251.678329 130.163775 
L 254.225305 71.199895 
L 255.498793 48.287846 
L 256.772281 38.122129 
L 258.045769 39.59843 
L 259.319257 53.18075 
L 261.866233 111.36421 
L 263.139721 139.852385 
L 264.413209 160.692984 
L 265.686697 167.535109 
L 266.960185 160.816816 
L 268.233673 139.687746 
L 270.780649 80.43463 
L 272.054137 54.448354 
L 273.327625 40.031987 
L 274.601113 37.920988 
L 275.874601 47.1854 
L 277.148089 71.033255 
L 279.695065 130.980245 
L 280.968553 155.334733 
L 282.242041 166.875462 
L 283.515529 164.458423 
L 284.789017 148.179069 
L 288.609481 61.929945 
L 289.882969 43.236052 
L 291.156457 37.400704 
L 292.429945 42.794558 
L 293.703433 61.639909 
L 296.250409 121.655088 
L 297.523898 148.540142 
L 298.797386 164.745846 
L 300.070874 166.680103 
L 301.344362 155.134817 
L 302.61785 129.349289 
L 305.164826 70.455703 
L 306.438314 47.839897 
L 307.711802 38.017614 
L 308.98529 39.790965 
L 310.258778 53.756029 
L 314.079242 140.55908 
L 315.35273 161.069492 
L 316.626218 167.527285 
L 317.899706 160.447967 
L 319.173194 138.926662 
L 321.72017 79.651674 
L 322.993658 53.883001 
L 324.267146 39.825215 
L 325.540634 38.018058 
L 326.814122 47.618764 
L 328.08761 71.861392 
L 330.634586 131.739347 
L 331.908074 155.837325 
L 333.181562 166.985159 
L 334.45505 164.211603 
L 335.728538 147.527867 
L 339.549002 61.263466 
L 340.82249 42.917578 
L 342.095978 37.401464 
L 343.369466 43.103823 
L 344.642954 62.36984 
L 347.18993 122.439933 
L 348.463418 149.154624 
L 349.736906 164.981595 
L 351.010394 166.548275 
L 352.283882 154.621251 
L 353.55737 128.531557 
L 356.104346 69.716384 
L 357.377834 47.402205 
L 358.651322 37.922127 
L 359.92481 39.990464 
L 361.198298 54.345144 
L 365.018762 141.259464 
L 366.29225 161.435202 
L 367.565739 167.508898 
L 368.839227 160.067175 
L 370.112715 138.158029 
L 372.659691 78.871205 
L 373.933179 53.327349 
L 375.206667 39.627364 
L 376.480155 38.118422 
L 377.753643 48.063949 
L 379.027131 72.69422 
L 379.027131 72.69422 
" style="fill:none;stroke:#1f77b4;stroke-dasharray:5.55,2.4;stroke-dashoffset:0;stroke-width:1.5;"/>
   </g>
   <g id="line2d_17">
    <path clip-path="url(#p31659e4056)" d="M 74.663494 64.931637 
L 75.936982 45.074534 
L 77.21047 35.589894 
L 78.483958 38.902934 
L 79.757446 51.20783 
L 81.030934 70.900454 
L 82.304422 102.672853 
L 83.57791 142.104962 
L 84.851398 169.594151 
L 86.124886 178.194246 
L 87.398375 174.82773 
L 88.671863 151.522626 
L 89.945351 106.289579 
L 91.218839 72.745225 
L 92.492327 50.084622 
L 93.765815 36.752005 
L 95.039303 36.005674 
L 96.312791 46.073599 
L 97.586279 63.078185 
L 98.859767 90.758985 
L 100.133255 129.599112 
L 101.406743 163.044123 
L 102.680231 176.768662 
L 103.953719 177.178174 
L 105.227207 162.119676 
L 107.774183 81.77415 
L 109.047671 56.259314 
L 110.321159 39.564688 
L 111.594647 34.498808 
L 112.868135 41.716313 
L 114.141623 56.479863 
L 115.415111 80.161266 
L 117.962087 154.213376 
L 119.235575 174.178624 
L 120.509063 178.095898 
L 121.782551 169.548836 
L 123.056039 136.029461 
L 124.329527 92.1931 
L 125.603015 63.413678 
L 126.876503 43.764984 
L 128.149991 34.493759 
L 129.423479 38.168701 
L 130.696967 50.855555 
L 131.970455 71.037363 
L 133.243943 103.520104 
L 134.517431 143.241305 
L 135.790919 169.981029 
L 137.064407 177.938779 
L 138.337895 174.242257 
L 139.611383 150.065203 
L 140.884871 104.544894 
L 142.158359 71.524777 
L 143.431847 49.114512 
L 144.705335 36.012883 
L 145.978823 35.600601 
L 147.252311 45.977182 
L 148.525799 63.310265 
L 149.799287 91.517547 
L 151.072775 130.724053 
L 152.346263 163.702358 
L 153.619751 176.766437 
L 154.893239 176.857779 
L 156.166727 161.163856 
L 157.440216 119.071755 
L 158.713704 80.672121 
L 159.987192 55.434236 
L 161.26068 38.972557 
L 162.534168 34.23558 
L 163.807656 41.754777 
L 165.081144 56.763564 
L 166.354632 80.84535 
L 168.901608 155.074778 
L 170.175096 174.384653 
L 171.448584 177.95677 
L 172.722072 168.946917 
L 173.99556 134.601143 
L 175.269048 91.082818 
L 176.542536 62.631963 
L 177.816024 43.210985 
L 179.089512 34.255047 
L 180.363 38.256486 
L 181.636488 51.155332 
L 182.909976 71.644229 
L 184.183464 104.53699 
L 185.456952 144.248285 
L 186.73044 170.387198 
L 188.003928 177.927013 
L 189.277416 173.886607 
L 190.550904 148.923068 
L 191.824392 103.324852 
L 193.09788 70.726429 
L 194.371368 48.547346 
L 195.644856 35.734274 
L 196.918344 35.672085 
L 198.191832 46.275216 
L 199.46532 63.843941 
L 200.738808 92.437946 
L 202.012296 131.810997 
L 203.285784 164.315209 
L 204.559272 176.875984 
L 205.83276 176.675555 
L 207.106248 160.337452 
L 208.379736 117.741208 
L 209.653224 79.818794 
L 210.926712 54.829825 
L 212.2002 38.624902 
L 213.473688 34.24265 
L 214.747176 42.03084 
L 216.020664 57.231713 
L 217.294152 81.65273 
L 219.841128 155.886496 
L 221.114616 174.625306 
L 222.388104 177.911931 
L 223.661592 168.402106 
L 224.93508 133.297976 
L 226.208568 90.127999 
L 227.482057 61.975579 
L 228.755545 42.787975 
L 230.029033 34.167626 
L 231.302521 38.486256 
L 232.576009 51.569048 
L 233.849497 72.336933 
L 235.122985 105.585713 
L 236.396473 145.22391 
L 237.669961 170.789897 
L 238.943449 177.96068 
L 240.216937 173.559185 
L 241.490425 147.815884 
L 242.763913 102.205013 
L 244.037401 70.00301 
L 245.310889 48.052017 
L 246.584377 35.540038 
L 247.857865 35.829611 
L 249.131353 46.642541 
L 250.404841 64.433548 
L 251.678329 93.392445 
L 252.951817 132.887419 
L 254.225305 164.908009 
L 255.498793 176.999956 
L 256.772281 176.501359 
L 258.045769 159.509213 
L 259.319257 116.463931 
L 260.592745 79.013377 
L 261.866233 54.26683 
L 263.139721 38.325521 
L 264.413209 34.302903 
L 265.686697 42.350855 
L 266.960185 57.736508 
L 268.233673 82.489804 
L 270.780649 156.677709 
L 272.054137 174.863616 
L 273.327625 177.850913 
L 274.601113 167.849701 
L 275.874601 132.008076 
L 277.148089 89.208632 
L 278.421577 61.344961 
L 279.695065 42.393502 
L 280.968553 34.114347 
L 282.242041 38.745782 
L 283.515529 52.004648 
L 284.789017 73.053822 
L 286.062505 106.644229 
L 287.335993 146.184404 
L 288.609481 171.180133 
L 289.882969 177.99609 
L 291.156457 173.222494 
L 292.429945 146.698366 
L 293.703433 101.115783 
L 294.976921 69.29794 
L 296.250409 47.574433 
L 297.523898 35.368265 
L 298.797386 36.007867 
L 300.070874 47.025291 
L 301.344362 65.039339 
L 302.61785 94.359859 
L 303.891338 133.9563 
L 305.164826 165.483882 
L 306.438314 177.121001 
L 307.711802 176.323654 
L 308.98529 158.665834 
L 310.258778 115.20509 
L 311.532266 78.222763 
L 312.805754 53.715623 
L 314.079242 38.041531 
L 315.35273 34.379318 
L 316.626218 42.681342 
L 317.899706 58.25061 
L 319.173194 83.340355 
L 321.72017 157.452343 
L 322.993658 175.093712 
L 324.267146 177.782034 
L 325.540634 167.278492 
L 326.814122 130.716284 
L 328.08761 88.305118 
L 329.361098 60.723885 
L 330.634586 42.009833 
L 331.908074 34.074727 
L 333.181562 39.014733 
L 334.45505 52.449159 
L 335.728538 73.780905 
L 337.002026 107.709292 
L 338.275514 147.132571 
L 339.549002 171.556663 
L 340.82249 178.021141 
L 342.095978 172.871476 
L 343.369466 145.563234 
L 344.642954 100.044153 
L 345.916442 68.601369 
L 347.18993 47.105161 
L 348.463418 35.208578 
L 349.736906 36.196273 
L 351.010394 47.413923 
L 352.283882 65.65743 
L 353.55737 95.336596 
L 354.830858 135.019145 
L 356.104346 166.043614 
L 357.377834 177.233763 
L 358.651322 176.139328 
L 359.92481 157.79727 
L 361.198298 113.958622 
L 362.471786 77.44085 
L 363.745274 53.171401 
L 365.018762 37.767682 
L 366.29225 34.466483 
L 367.565739 43.018011 
L 368.839227 58.774808 
L 370.112715 84.200988 
L 372.659691 158.21067 
L 373.933179 175.313956 
L 375.206667 177.717085 
L 376.480155 166.686195 
L 377.753643 129.420963 
L 379.027131 87.413546 
L 379.027131 87.413546 
" style="fill:none;stroke:#ff7f0e;stroke-linecap:square;stroke-width:1.5;"/>
   </g>
   <g id="line2d_18">
    <path clip-path="url(#p31659e4056)" d="M 74.663494 93.468095 
L 75.936982 68.120788 
L 77.21047 51.810284 
L 78.483958 44.212147 
L 79.757446 47.483685 
L 81.030934 57.778048 
L 82.304422 73.511313 
L 83.57791 101.38101 
L 84.851398 137.343369 
L 86.124886 162.35413 
L 87.398375 170.031805 
L 88.671863 167.25473 
L 89.945351 146.049985 
L 91.218839 104.348011 
L 92.492327 74.662863 
L 93.765815 55.831163 
L 95.039303 45.015009 
L 96.312791 44.820414 
L 97.586279 53.554621 
L 98.859767 67.06213 
L 100.133255 90.663285 
L 101.406743 125.880344 
L 102.680231 156.427611 
L 103.953719 168.713901 
L 105.227207 169.235041 
L 106.500695 155.766087 
L 109.047671 82.416559 
L 110.321159 60.851507 
L 111.594647 47.243888 
L 112.868135 43.350322 
L 114.141623 49.864169 
L 115.415111 61.800083 
L 116.688599 81.312356 
L 119.235575 148.390553 
L 120.509063 166.404526 
L 121.782551 169.944009 
L 123.056039 162.498895 
L 124.329527 131.678388 
L 125.603015 91.585551 
L 126.876503 66.74999 
L 128.149991 50.639702 
L 129.423479 43.188036 
L 130.696967 46.757233 
L 131.970455 57.348159 
L 133.243943 73.511232 
L 134.517431 102.100802 
L 135.790919 138.358814 
L 137.064407 162.660063 
L 138.337895 169.73705 
L 139.611383 166.667455 
L 140.884871 144.650299 
L 142.158359 102.704357 
L 143.431847 73.565276 
L 144.705335 54.984966 
L 145.978823 44.345489 
L 147.252311 44.42545 
L 148.525799 53.402887 
L 149.799287 67.1696 
L 151.072775 91.305704 
L 152.346263 126.894885 
L 153.619751 157.00626 
L 154.893239 168.676111 
L 156.166727 168.916892 
L 157.440216 154.859075 
L 158.713704 116.002093 
L 159.987192 81.424703 
L 161.26068 60.14382 
L 162.534168 46.727481 
L 163.807656 43.104722 
L 165.081144 49.864902 
L 166.354632 61.975325 
L 167.62812 81.882207 
L 170.175096 149.168171 
L 171.448584 166.569968 
L 172.722072 169.804154 
L 173.99556 161.936944 
L 175.269048 130.340696 
L 176.542536 90.579223 
L 177.816024 66.082187 
L 179.089512 50.171247 
L 180.363 42.978312 
L 181.636488 46.822128 
L 182.909976 57.560349 
L 184.183464 74.000863 
L 185.456952 103.013764 
L 186.73044 139.276407 
L 188.003928 163.016066 
L 189.277416 169.717224 
L 190.550904 166.342632 
L 191.824392 143.586472 
L 193.09788 101.586496 
L 194.371368 72.877607 
L 195.644856 54.513645 
L 196.918344 44.110066 
L 198.191832 44.488778 
L 199.46532 53.63516 
L 200.738808 67.585783 
L 202.012296 92.12206 
L 203.285784 127.887602 
L 204.559272 157.557317 
L 205.83276 168.766961 
L 207.106248 168.755398 
L 208.379736 154.09656 
L 209.653224 114.772345 
L 210.926712 80.678188 
L 212.2002 59.643287 
L 213.473688 46.439395 
L 214.747176 43.117418 
L 216.020664 50.094591 
L 217.294152 62.335309 
L 218.56764 82.582222 
L 221.114616 149.906474 
L 222.388104 166.779644 
L 223.661592 169.76831 
L 224.93508 161.44209 
L 226.208568 129.132388 
L 227.482057 89.727803 
L 228.755545 65.53394 
L 230.029033 49.824042 
L 231.302521 42.91186 
L 232.576009 47.0229 
L 233.849497 57.883477 
L 235.122985 74.580151 
L 236.396473 103.962632 
L 237.669961 140.168482 
L 238.943449 163.374422 
L 240.216937 169.7485 
L 241.490425 166.052267 
L 242.763913 142.561928 
L 244.037401 100.569062 
L 245.310889 72.262858 
L 246.584377 54.108609 
L 247.857865 43.953508 
L 249.131353 44.633505 
L 250.404841 53.933135 
L 251.678329 68.05919 
L 252.951817 92.974646 
L 254.225305 128.87288 
L 255.498793 158.092175 
L 256.772281 168.875872 
L 258.045769 168.606124 
L 259.319257 153.336073 
L 260.592745 113.596805 
L 261.866233 79.979202 
L 263.139721 59.181274 
L 264.413209 46.195394 
L 265.686697 43.18049 
L 266.960185 50.365601 
L 268.233673 62.730926 
L 269.507161 83.313426 
L 272.054137 150.626797 
L 273.327625 166.989502 
L 274.601113 169.71985 
L 275.874601 160.942371 
L 277.148089 127.938797 
L 278.421577 88.911939 
L 279.695065 65.01025 
L 280.968553 49.502572 
L 282.242041 42.876969 
L 283.515529 47.251621 
L 284.789017 58.226818 
L 286.062505 75.184586 
L 287.335993 104.922155 
L 288.609481 141.047058 
L 289.882969 163.722302 
L 291.156457 169.783429 
L 292.429945 165.754731 
L 293.703433 141.528915 
L 294.976921 99.582169 
L 296.250409 71.666156 
L 297.523898 53.719442 
L 298.797386 43.817295 
L 300.070874 44.796679 
L 301.344362 54.2444 
L 302.61785 68.548944 
L 303.891338 93.840764 
L 305.164826 129.851667 
L 306.438314 158.611731 
L 307.711802 168.98337 
L 308.98529 168.454781 
L 310.258778 152.561813 
L 311.532266 112.440023 
L 312.805754 79.295064 
L 314.079242 58.729953 
L 315.35273 45.964919 
L 316.626218 43.257969 
L 317.899706 50.645269 
L 319.173194 63.134994 
L 320.446682 84.058735 
L 322.993658 151.331829 
L 324.267146 167.192498 
L 325.540634 169.664902 
L 326.814122 160.42521 
L 328.08761 126.744103 
L 329.361098 88.112031 
L 330.634586 64.495574 
L 331.908074 49.1902 
L 333.181562 42.854276 
L 334.45505 47.488044 
L 335.728538 58.577323 
L 337.002026 75.79995 
L 338.275514 105.888521 
L 339.549002 141.914255 
L 340.82249 164.057778 
L 342.095978 169.809384 
L 343.369466 165.444032 
L 344.642954 140.479475 
L 345.916442 98.612954 
L 347.18993 71.07791 
L 348.463418 53.33734 
L 349.736906 43.691676 
L 351.010394 44.969094 
L 352.283882 54.560078 
L 353.55737 69.050846 
L 354.830858 94.716468 
L 356.104346 130.825037 
L 357.377834 159.116345 
L 358.651322 169.083815 
L 359.92481 168.297763 
L 361.198298 151.763878 
L 362.471786 111.295497 
L 363.745274 78.619912 
L 365.018762 58.284795 
L 366.29225 45.743113 
L 367.565739 43.344781 
L 368.839227 50.929344 
L 370.112715 63.54822 
L 371.386203 84.814638 
L 373.933179 152.021661 
L 375.206667 167.386815 
L 376.480155 169.614549 
L 377.753643 159.888267 
L 379.027131 125.546544 
L 379.027131 125.546544 
" style="fill:none;stroke:#ff7f0e;stroke-dasharray:5.55,2.4;stroke-dashoffset:0;stroke-width:1.5;"/>
   </g>
   <g id="patch_3">
    <path d="M 59.445313 189.742 
L 59.445313 26.662 
" style="fill:none;stroke:#000000;stroke-linecap:square;stroke-linejoin:miter;stroke-width:0.8;"/>
   </g>
   <g id="patch_4">
    <path d="M 394.245313 189.742 
L 394.245313 26.662 
" style="fill:none;stroke:#000000;stroke-linecap:square;stroke-linejoin:miter;stroke-width:0.8;"/>
   </g>
   <g id="patch_5">
    <path d="M 59.445312 189.742 
L 394.245313 189.742 
" style="fill:none;stroke:#000000;stroke-linecap:square;stroke-linejoin:miter;stroke-width:0.8;"/>
   </g>
   <g id="patch_6">
    <path d="M 59.445312 26.662 
L 394.245313 26.662 
" style="fill:none;stroke:#000000;stroke-linecap:square;stroke-linejoin:miter;stroke-width:0.8;"/>
   </g>
   <g id="legend_1">
    <g id="patch_7">
     <path d="M 47.91875 24.878125 
L 405.771875 24.878125 
Q 407.771875 24.878125 407.771875 22.878125 
L 407.771875 9.2 
Q 407.771875 7.2 405.771875 7.2 
L 47.91875 7.2 
Q 45.91875 7.2 45.91875 9.2 
L 45.91875 22.878125 
Q 45.91875 24.878125 47.91875 24.878125 
z
" style="fill:#ffffff;opacity:0.8;stroke:#cccccc;stroke-linejoin:miter;"/>
    </g>
    <g id="line2d_19">
     <path d="M 49.91875 15.298437 
L 69.91875 15.298437 
" style="fill:none;stroke:#1f77b4;stroke-linecap:square;stroke-width:1.5;"/>
    </g>
    <g id="line2d_20"/>
    <g id="text_17">
     <!-- p. 1 true -->
     <g transform="translate(77.91875 18.798437)scale(0.1 -0.1)">
      <defs>
       <path d="M 18.109375 8.203125 
L 18.109375 -20.796875 
L 9.078125 -20.796875 
L 9.078125 54.6875 
L 18.109375 54.6875 
L 18.109375 46.390625 
Q 20.953125 51.265625 25.265625 53.625 
Q 29.59375 56 35.59375 56 
Q 45.5625 56 51.78125 48.09375 
Q 58.015625 40.1875 58.015625 27.296875 
Q 58.015625 14.40625 51.78125 6.484375 
Q 45.5625 -1.421875 35.59375 -1.421875 
Q 29.59375 -1.421875 25.265625 0.953125 
Q 20.953125 3.328125 18.109375 8.203125 
z
M 48.6875 27.296875 
Q 48.6875 37.203125 44.609375 42.84375 
Q 40.53125 48.484375 33.40625 48.484375 
Q 26.265625 48.484375 22.1875 42.84375 
Q 18.109375 37.203125 18.109375 27.296875 
Q 18.109375 17.390625 22.1875 11.75 
Q 26.265625 6.109375 33.40625 6.109375 
Q 40.53125 6.109375 44.609375 11.75 
Q 48.6875 17.390625 48.6875 27.296875 
z
" id="DejaVuSans-112"/>
       <path d="M 18.3125 70.21875 
L 18.3125 54.6875 
L 36.8125 54.6875 
L 36.8125 47.703125 
L 18.3125 47.703125 
L 18.3125 18.015625 
Q 18.3125 11.328125 20.140625 9.421875 
Q 21.96875 7.515625 27.59375 7.515625 
L 36.8125 7.515625 
L 36.8125 0 
L 27.59375 0 
Q 17.1875 0 13.234375 3.875 
Q 9.28125 7.765625 9.28125 18.015625 
L 9.28125 47.703125 
L 2.6875 47.703125 
L 2.6875 54.6875 
L 9.28125 54.6875 
L 9.28125 70.21875 
z
" id="DejaVuSans-116"/>
       <path d="M 41.109375 46.296875 
Q 39.59375 47.171875 37.8125 47.578125 
Q 36.03125 48 33.890625 48 
Q 26.265625 48 22.1875 43.046875 
Q 18.109375 38.09375 18.109375 28.8125 
L 18.109375 0 
L 9.078125 0 
L 9.078125 54.6875 
L 18.109375 54.6875 
L 18.109375 46.1875 
Q 20.953125 51.171875 25.484375 53.578125 
Q 30.03125 56 36.53125 56 
Q 37.453125 56 38.578125 55.875 
Q 39.703125 55.765625 41.0625 55.515625 
z
" id="DejaVuSans-114"/>
       <path d="M 8.5 21.578125 
L 8.5 54.6875 
L 17.484375 54.6875 
L 17.484375 21.921875 
Q 17.484375 14.15625 20.5 10.265625 
Q 23.53125 6.390625 29.59375 6.390625 
Q 36.859375 6.390625 41.078125 11.03125 
Q 45.3125 15.671875 45.3125 23.6875 
L 45.3125 54.6875 
L 54.296875 54.6875 
L 54.296875 0 
L 45.3125 0 
L 45.3125 8.40625 
Q 42.046875 3.421875 37.71875 1 
Q 33.40625 -1.421875 27.6875 -1.421875 
Q 18.265625 -1.421875 13.375 4.4375 
Q 8.5 10.296875 8.5 21.578125 
z
M 31.109375 56 
z
" id="DejaVuSans-117"/>
       <path d="M 56.203125 29.59375 
L 56.203125 25.203125 
L 14.890625 25.203125 
Q 15.484375 15.921875 20.484375 11.0625 
Q 25.484375 6.203125 34.421875 6.203125 
Q 39.59375 6.203125 44.453125 7.46875 
Q 49.3125 8.734375 54.109375 11.28125 
L 54.109375 2.78125 
Q 49.265625 0.734375 44.1875 -0.34375 
Q 39.109375 -1.421875 33.890625 -1.421875 
Q 20.796875 -1.421875 13.15625 6.1875 
Q 5.515625 13.8125 5.515625 26.8125 
Q 5.515625 40.234375 12.765625 48.109375 
Q 20.015625 56 32.328125 56 
Q 43.359375 56 49.78125 48.890625 
Q 56.203125 41.796875 56.203125 29.59375 
z
M 47.21875 32.234375 
Q 47.125 39.59375 43.09375 43.984375 
Q 39.0625 48.390625 32.421875 48.390625 
Q 24.90625 48.390625 20.390625 44.140625 
Q 15.875 39.890625 15.1875 32.171875 
z
" id="DejaVuSans-101"/>
      </defs>
      <use xlink:href="#DejaVuSans-112"/>
      <use x="63.476562" xlink:href="#DejaVuSans-46"/>
      <use x="95.263672" xlink:href="#DejaVuSans-32"/>
      <use x="127.050781" xlink:href="#DejaVuSans-49"/>
      <use x="190.673828" xlink:href="#DejaVuSans-32"/>
      <use x="222.460938" xlink:href="#DejaVuSans-116"/>
      <use x="261.669922" xlink:href="#DejaVuSans-114"/>
      <use x="302.783203" xlink:href="#DejaVuSans-117"/>
      <use x="366.162109" xlink:href="#DejaVuSans-101"/>
     </g>
    </g>
    <g id="line2d_21">
     <path d="M 140.685937 15.298437 
L 160.685937 15.298437 
" style="fill:none;stroke:#1f77b4;stroke-dasharray:5.55,2.4;stroke-dashoffset:0;stroke-width:1.5;"/>
    </g>
    <g id="line2d_22"/>
    <g id="text_18">
     <!-- p. 1 pred. -->
     <g transform="translate(168.685937 18.798437)scale(0.1 -0.1)">
      <defs>
       <path d="M 45.40625 46.390625 
L 45.40625 75.984375 
L 54.390625 75.984375 
L 54.390625 0 
L 45.40625 0 
L 45.40625 8.203125 
Q 42.578125 3.328125 38.25 0.953125 
Q 33.9375 -1.421875 27.875 -1.421875 
Q 17.96875 -1.421875 11.734375 6.484375 
Q 5.515625 14.40625 5.515625 27.296875 
Q 5.515625 40.1875 11.734375 48.09375 
Q 17.96875 56 27.875 56 
Q 33.9375 56 38.25 53.625 
Q 42.578125 51.265625 45.40625 46.390625 
z
M 14.796875 27.296875 
Q 14.796875 17.390625 18.875 11.75 
Q 22.953125 6.109375 30.078125 6.109375 
Q 37.203125 6.109375 41.296875 11.75 
Q 45.40625 17.390625 45.40625 27.296875 
Q 45.40625 37.203125 41.296875 42.84375 
Q 37.203125 48.484375 30.078125 48.484375 
Q 22.953125 48.484375 18.875 42.84375 
Q 14.796875 37.203125 14.796875 27.296875 
z
" id="DejaVuSans-100"/>
      </defs>
      <use xlink:href="#DejaVuSans-112"/>
      <use x="63.476562" xlink:href="#DejaVuSans-46"/>
      <use x="95.263672" xlink:href="#DejaVuSans-32"/>
      <use x="127.050781" xlink:href="#DejaVuSans-49"/>
      <use x="190.673828" xlink:href="#DejaVuSans-32"/>
      <use x="222.460938" xlink:href="#DejaVuSans-112"/>
      <use x="285.9375" xlink:href="#DejaVuSans-114"/>
      <use x="324.800781" xlink:href="#DejaVuSans-101"/>
      <use x="386.324219" xlink:href="#DejaVuSans-100"/>
      <use x="449.800781" xlink:href="#DejaVuSans-46"/>
     </g>
    </g>
    <g id="line2d_23">
     <path d="M 236.845313 15.298437 
L 256.845312 15.298437 
" style="fill:none;stroke:#ff7f0e;stroke-linecap:square;stroke-width:1.5;"/>
    </g>
    <g id="line2d_24"/>
    <g id="text_19">
     <!-- p. 2 true -->
     <g transform="translate(264.845312 18.798437)scale(0.1 -0.1)">
      <use xlink:href="#DejaVuSans-112"/>
      <use x="63.476562" xlink:href="#DejaVuSans-46"/>
      <use x="95.263672" xlink:href="#DejaVuSans-32"/>
      <use x="127.050781" xlink:href="#DejaVuSans-50"/>
      <use x="190.673828" xlink:href="#DejaVuSans-32"/>
      <use x="222.460938" xlink:href="#DejaVuSans-116"/>
      <use x="261.669922" xlink:href="#DejaVuSans-114"/>
      <use x="302.783203" xlink:href="#DejaVuSans-117"/>
      <use x="366.162109" xlink:href="#DejaVuSans-101"/>
     </g>
    </g>
    <g id="line2d_25">
     <path d="M 327.6125 15.298437 
L 347.6125 15.298437 
" style="fill:none;stroke:#ff7f0e;stroke-dasharray:5.55,2.4;stroke-dashoffset:0;stroke-width:1.5;"/>
    </g>
    <g id="line2d_26"/>
    <g id="text_20">
     <!-- p. 2 pred. -->
     <g transform="translate(355.6125 18.798437)scale(0.1 -0.1)">
      <use xlink:href="#DejaVuSans-112"/>
      <use x="63.476562" xlink:href="#DejaVuSans-46"/>
      <use x="95.263672" xlink:href="#DejaVuSans-32"/>
      <use x="127.050781" xlink:href="#DejaVuSans-50"/>
      <use x="190.673828" xlink:href="#DejaVuSans-32"/>
      <use x="222.460938" xlink:href="#DejaVuSans-112"/>
      <use x="285.9375" xlink:href="#DejaVuSans-114"/>
      <use x="324.800781" xlink:href="#DejaVuSans-101"/>
      <use x="386.324219" xlink:href="#DejaVuSans-100"/>
      <use x="449.800781" xlink:href="#DejaVuSans-46"/>
     </g>
    </g>
   </g>
  </g>
 </g>
 <defs>
  <clipPath id="p31659e4056">
   <rect height="163.08" width="334.8" x="59.445313" y="26.662"/>
  </clipPath>
 </defs>
</svg>
