<?xml version="1.0" encoding="utf-8" standalone="no"?>
<!DOCTYPE svg PUBLIC "-//W3C//DTD SVG 1.1//EN"
  "http://www.w3.org/Graphics/SVG/1.1/DTD/svg11.dtd">
<!-- Created with matplotlib (https://matplotlib.org/) -->
<svg height="207.55845pt" version="1.1" viewBox="0 0 391.748426 207.55845" width="391.748426pt" xmlns="http://www.w3.org/2000/svg" xmlns:xlink="http://www.w3.org/1999/xlink">
 <metadata>
  <rdf:RDF xmlns:cc="http://creativecommons.org/ns#" xmlns:dc="http://purl.org/dc/elements/1.1/" xmlns:rdf="http://www.w3.org/1999/02/22-rdf-syntax-ns#">
   <cc:Work>
    <dc:type rdf:resource="http://purl.org/dc/dcmitype/StillImage"/>
    <dc:date>2021-12-02T16:16:41.345251</dc:date>
    <dc:format>image/svg+xml</dc:format>
    <dc:creator>
     <cc:Agent>
      <dc:title>Matplotlib v3.3.3, https://matplotlib.org/</dc:title>
     </cc:Agent>
    </dc:creator>
   </cc:Work>
  </rdf:RDF>
 </metadata>
 <defs>
  <style type="text/css">*{stroke-linecap:butt;stroke-linejoin:round;}</style>
 </defs>
 <g id="figure_1">
  <g id="patch_1">
   <path d="M 0 207.55845 
L 391.748426 207.55845 
L 391.748426 0 
L 0 0 
z
" style="fill:none;"/>
  </g>
  <g id="axes_1">
   <g id="patch_2">
    <path d="M 40.892719 170.28 
L 375.692719 170.28 
L 375.692719 7.2 
L 40.892719 7.2 
z
" style="fill:#ffffff;"/>
   </g>
   <g id="matplotlib.axis_1">
    <g id="xtick_1">
     <g id="line2d_1">
      <defs>
       <path d="M 0 0 
L 0 3.5 
" id="md43065690a" style="stroke:#000000;stroke-width:0.8;"/>
      </defs>
      <g>
       <use style="stroke:#000000;stroke-width:0.8;" x="40.892719" xlink:href="#md43065690a" y="170.28"/>
      </g>
     </g>
     <g id="text_1">
      <!-- $\mathdefault{0.0}$ -->
      <g transform="translate(34.52768 184.198498)scale(0.1 -0.1)">
       <defs>
        <path d="M 42 31.640625 
C 42 37.75 41.90625 48.125 37.703125 56.109375 
C 34 63.109375 28.09375 65.59375 22.90625 65.59375 
C 18.09375 65.59375 12 63.40625 8.203125 56.203125 
C 4.203125 48.71875 3.796875 39.4375 3.796875 31.640625 
C 3.796875 25.953125 3.90625 17.28125 7 9.671875 
C 11.296875 -0.609375 19 -2 22.90625 -2 
C 27.5 -2 34.5 -0.109375 38.59375 9.375 
C 41.59375 16.28125 42 24.359375 42 31.640625 
z
M 22.90625 -0.40625 
C 16.5 -0.40625 12.703125 5.078125 11.296875 12.6875 
C 10.203125 18.5625 10.203125 27.15625 10.203125 32.75 
C 10.203125 40.4375 10.203125 46.828125 11.5 52.921875 
C 13.40625 61.390625 19 64 22.90625 64 
C 27 64 32.296875 61.296875 34.203125 53.125 
C 35.5 47.4375 35.59375 40.734375 35.59375 32.75 
C 35.59375 26.25 35.59375 18.265625 34.40625 12.375 
C 32.296875 1.484375 26.40625 -0.40625 22.90625 -0.40625 
z
" id="CMR17-48"/>
        <path d="M 18.40625 4.796875 
C 18.40625 7.6875 16 9.671875 13.59375 9.671875 
C 10.703125 9.671875 8.703125 7.28125 8.703125 4.890625 
C 8.703125 2 11.09375 0 13.5 0 
C 16.40625 0 18.40625 2.390625 18.40625 4.796875 
z
" id="CMMI12-58"/>
       </defs>
       <use transform="scale(0.996264)" xlink:href="#CMR17-48"/>
       <use transform="translate(45.690477 0)scale(0.996264)" xlink:href="#CMMI12-58"/>
       <use transform="translate(72.787654 0)scale(0.996264)" xlink:href="#CMR17-48"/>
      </g>
     </g>
    </g>
    <g id="xtick_2">
     <g id="line2d_2">
      <g>
       <use style="stroke:#000000;stroke-width:0.8;" x="82.742719" xlink:href="#md43065690a" y="170.28"/>
      </g>
     </g>
     <g id="text_2">
      <!-- $\mathdefault{2.5}$ -->
      <g transform="translate(76.37768 184.198498)scale(0.1 -0.1)">
       <defs>
        <path d="M 41.703125 15.453125 
L 39.90625 15.453125 
C 38.90625 8.375 38.09375 7.171875 37.703125 6.5625 
C 37.203125 5.765625 30 5.765625 28.59375 5.765625 
L 9.40625 5.765625 
C 13 9.671875 20 16.75 28.5 24.953125 
C 34.59375 30.734375 41.703125 37.53125 41.703125 47.421875 
C 41.703125 59.21875 32.296875 66 21.796875 66 
C 10.796875 66 4.09375 56.3125 4.09375 47.34375 
C 4.09375 43.4375 7 42.9375 8.203125 42.9375 
C 9.203125 42.9375 12.203125 43.546875 12.203125 47.03125 
C 12.203125 50.109375 9.59375 51 8.203125 51 
C 7.59375 51 7 50.90625 6.59375 50.703125 
C 8.5 59.21875 14.296875 63.40625 20.40625 63.40625 
C 29.09375 63.40625 34.796875 56.515625 34.796875 47.421875 
C 34.796875 38.734375 29.703125 31.25 24 24.75 
L 4.09375 2.28125 
L 4.09375 0 
L 39.296875 0 
z
" id="CMR17-50"/>
        <path d="M 11.40625 57.6875 
C 12.40625 57.28125 16.5 56 20.703125 56 
C 30 56 35.09375 61.109375 38 64.0625 
C 38 64.953125 38 65.5 37.40625 65.5 
C 37.296875 65.5 37.09375 65.5 36.296875 65.046875 
C 32.796875 63.40625 28.703125 62.078125 23.703125 62.078125 
C 20.703125 62.078125 16.203125 62.484375 11.296875 64.671875 
C 10.203125 65.171875 10 65.171875 9.90625 65.171875 
C 9.40625 65.171875 9.296875 65.0625 9.296875 63.078125 
L 9.296875 34.421875 
C 9.296875 32.640625 9.296875 32.140625 10.296875 32.140625 
C 10.796875 32.140625 11 32.34375 11.5 33.03125 
C 14.703125 37.515625 19.09375 39.40625 24.09375 39.40625 
C 27.59375 39.40625 35.09375 37.21875 35.09375 20.140625 
C 35.09375 16.953125 35.09375 11.171875 32.09375 6.578125 
C 29.59375 2.484375 25.703125 0.390625 21.40625 0.390625 
C 14.796875 0.390625 8.09375 5 6.296875 12.71875 
C 6.703125 12.609375 7.5 12.421875 7.90625 12.421875 
C 9.203125 12.421875 11.703125 13.125 11.703125 16.21875 
C 11.703125 18.90625 9.796875 20 7.90625 20 
C 5.59375 20 4.09375 18.59375 4.09375 15.796875 
C 4.09375 7.09375 11 -2 21.59375 -2 
C 31.90625 -2 41.703125 6.875 41.703125 19.75 
C 41.703125 31.71875 33.90625 41 24.203125 41 
C 19.09375 41 14.796875 39.109375 11.40625 35.53125 
z
" id="CMR17-53"/>
       </defs>
       <use transform="scale(0.996264)" xlink:href="#CMR17-50"/>
       <use transform="translate(45.690477 0)scale(0.996264)" xlink:href="#CMMI12-58"/>
       <use transform="translate(72.787654 0)scale(0.996264)" xlink:href="#CMR17-53"/>
      </g>
     </g>
    </g>
    <g id="xtick_3">
     <g id="line2d_3">
      <g>
       <use style="stroke:#000000;stroke-width:0.8;" x="124.592719" xlink:href="#md43065690a" y="170.28"/>
      </g>
     </g>
     <g id="text_3">
      <!-- $\mathdefault{5.0}$ -->
      <g transform="translate(118.22768 184.198498)scale(0.1 -0.1)">
       <use transform="scale(0.996264)" xlink:href="#CMR17-53"/>
       <use transform="translate(45.690477 0)scale(0.996264)" xlink:href="#CMMI12-58"/>
       <use transform="translate(72.787654 0)scale(0.996264)" xlink:href="#CMR17-48"/>
      </g>
     </g>
    </g>
    <g id="xtick_4">
     <g id="line2d_4">
      <g>
       <use style="stroke:#000000;stroke-width:0.8;" x="166.442719" xlink:href="#md43065690a" y="170.28"/>
      </g>
     </g>
     <g id="text_4">
      <!-- $\mathdefault{7.5}$ -->
      <g transform="translate(160.07768 184.198498)scale(0.1 -0.1)">
       <defs>
        <path d="M 45.09375 61.578125 
L 45.09375 63.765625 
L 21.59375 63.765625 
C 9.90625 63.765625 9.703125 65.078125 9.296875 67 
L 7.5 67 
L 4.59375 48.34375 
L 6.40625 48.34375 
C 6.703125 50.234375 7.40625 55.3125 8.59375 57.203125 
C 9.203125 58 16.59375 58 18.296875 58 
L 40.296875 58 
L 29.203125 41.578125 
C 21.796875 30.53125 16.703125 15.609375 16.703125 2.578125 
C 16.703125 1.390625 16.703125 -2 20.296875 -2 
C 23.90625 -2 23.90625 1.390625 23.90625 2.671875 
L 23.90625 7.265625 
C 23.90625 23.5625 26.703125 34.3125 31.296875 41.1875 
z
" id="CMR17-55"/>
       </defs>
       <use transform="scale(0.996264)" xlink:href="#CMR17-55"/>
       <use transform="translate(45.690477 0)scale(0.996264)" xlink:href="#CMMI12-58"/>
       <use transform="translate(72.787654 0)scale(0.996264)" xlink:href="#CMR17-53"/>
      </g>
     </g>
    </g>
    <g id="xtick_5">
     <g id="line2d_5">
      <g>
       <use style="stroke:#000000;stroke-width:0.8;" x="208.292719" xlink:href="#md43065690a" y="170.28"/>
      </g>
     </g>
     <g id="text_5">
      <!-- $\mathdefault{10.0}$ -->
      <g transform="translate(199.437012 184.198498)scale(0.1 -0.1)">
       <defs>
        <path d="M 26.59375 63.40625 
C 26.59375 65.5 26.5 65.5 25.09375 65.5 
C 21.203125 61.1875 15.296875 59.796875 9.703125 59.796875 
C 9.40625 59.796875 8.90625 59.796875 8.796875 59.5 
C 8.703125 59.296875 8.703125 59.09375 8.703125 57 
C 11.796875 57 17 57.59375 21 59.984375 
L 21 7.203125 
C 21 3.6875 20.796875 2.5 12.203125 2.5 
L 9.203125 2.5 
L 9.203125 0 
C 14 0 19 0 23.796875 0 
C 28.59375 0 33.59375 0 38.40625 0 
L 38.40625 2.5 
L 35.40625 2.5 
C 26.796875 2.5 26.59375 3.59375 26.59375 7.15625 
z
" id="CMR17-49"/>
       </defs>
       <use transform="scale(0.996264)" xlink:href="#CMR17-49"/>
       <use transform="translate(45.690477 0)scale(0.996264)" xlink:href="#CMR17-48"/>
       <use transform="translate(91.380954 0)scale(0.996264)" xlink:href="#CMMI12-58"/>
       <use transform="translate(118.478131 0)scale(0.996264)" xlink:href="#CMR17-48"/>
      </g>
     </g>
    </g>
    <g id="xtick_6">
     <g id="line2d_6">
      <g>
       <use style="stroke:#000000;stroke-width:0.8;" x="250.142719" xlink:href="#md43065690a" y="170.28"/>
      </g>
     </g>
     <g id="text_6">
      <!-- $\mathdefault{12.5}$ -->
      <g transform="translate(241.287012 184.198498)scale(0.1 -0.1)">
       <use transform="scale(0.996264)" xlink:href="#CMR17-49"/>
       <use transform="translate(45.690477 0)scale(0.996264)" xlink:href="#CMR17-50"/>
       <use transform="translate(91.380954 0)scale(0.996264)" xlink:href="#CMMI12-58"/>
       <use transform="translate(118.478131 0)scale(0.996264)" xlink:href="#CMR17-53"/>
      </g>
     </g>
    </g>
    <g id="xtick_7">
     <g id="line2d_7">
      <g>
       <use style="stroke:#000000;stroke-width:0.8;" x="291.992719" xlink:href="#md43065690a" y="170.28"/>
      </g>
     </g>
     <g id="text_7">
      <!-- $\mathdefault{15.0}$ -->
      <g transform="translate(283.137012 184.198498)scale(0.1 -0.1)">
       <use transform="scale(0.996264)" xlink:href="#CMR17-49"/>
       <use transform="translate(45.690477 0)scale(0.996264)" xlink:href="#CMR17-53"/>
       <use transform="translate(91.380954 0)scale(0.996264)" xlink:href="#CMMI12-58"/>
       <use transform="translate(118.478131 0)scale(0.996264)" xlink:href="#CMR17-48"/>
      </g>
     </g>
    </g>
    <g id="xtick_8">
     <g id="line2d_8">
      <g>
       <use style="stroke:#000000;stroke-width:0.8;" x="333.842719" xlink:href="#md43065690a" y="170.28"/>
      </g>
     </g>
     <g id="text_8">
      <!-- $\mathdefault{17.5}$ -->
      <g transform="translate(324.987012 184.198498)scale(0.1 -0.1)">
       <use transform="scale(0.996264)" xlink:href="#CMR17-49"/>
       <use transform="translate(45.690477 0)scale(0.996264)" xlink:href="#CMR17-55"/>
       <use transform="translate(91.380954 0)scale(0.996264)" xlink:href="#CMMI12-58"/>
       <use transform="translate(118.478131 0)scale(0.996264)" xlink:href="#CMR17-53"/>
      </g>
     </g>
    </g>
    <g id="xtick_9">
     <g id="line2d_9">
      <g>
       <use style="stroke:#000000;stroke-width:0.8;" x="375.692719" xlink:href="#md43065690a" y="170.28"/>
      </g>
     </g>
     <g id="text_9">
      <!-- $\mathdefault{20.0}$ -->
      <g transform="translate(366.837012 184.198498)scale(0.1 -0.1)">
       <use transform="scale(0.996264)" xlink:href="#CMR17-50"/>
       <use transform="translate(45.690477 0)scale(0.996264)" xlink:href="#CMR17-48"/>
       <use transform="translate(91.380954 0)scale(0.996264)" xlink:href="#CMMI12-58"/>
       <use transform="translate(118.478131 0)scale(0.996264)" xlink:href="#CMR17-48"/>
      </g>
     </g>
    </g>
    <g id="text_10">
     <!-- $\bar{f}$ -->
     <g transform="translate(204.729649 198.421271)scale(0.1 -0.1)">
      <defs>
       <path d="M 39.90625 55 
L 39.90625 57.28125 
L 5.90625 57.28125 
L 5.90625 55 
z
" id="CMR17-22"/>
       <path d="M 44.59375 40.09375 
C 46.59375 40.09375 47.40625 40.09375 47.40625 42 
C 47.40625 43 46.59375 43 44.796875 43 
L 36.703125 43 
C 38.59375 53.578125 40 60.890625 40.796875 64.171875 
C 41.40625 66.640625 43.5 69 46.09375 69 
C 48.203125 69 50.296875 68.09375 51.296875 67.15625 
C 47.40625 66.75 46.203125 63.78125 46.203125 62.015625 
C 46.203125 59.953125 47.703125 58.734375 49.59375 58.734375 
C 51.59375 58.734375 54.59375 60.46875 54.59375 64.359375 
C 54.59375 68.640625 50.40625 71 46 71 
C 41.703125 71 37.5 67.71875 35.5 63.71875 
C 33.703125 60.125 32.703125 56.421875 30.40625 43 
L 23.703125 43 
C 21.796875 43 20.796875 43 20.796875 41.203125 
C 20.796875 40.09375 21.40625 40.09375 23.40625 40.09375 
L 29.796875 40.09375 
C 28 30.875 23.90625 8.46875 21.59375 -2.140625 
C 19.90625 -10.765625 18.40625 -18 13.40625 -18 
C 13.09375 -18 10.203125 -18 8.40625 -16.109375 
C 13.5 -15.703125 13.5 -11.34375 13.5 -11.25 
C 13.5 -9.265625 12 -8.078125 10.09375 -8.078125 
C 8.09375 -8.078125 5.09375 -9.765625 5.09375 -13.546875 
C 5.09375 -17.8125 9.5 -20 13.40625 -20 
C 23.59375 -20 27.796875 -1.84375 28.90625 3.109375 
C 30.703125 10.75 35.59375 37.125 36.09375 40.09375 
z
" id="CMMI12-102"/>
      </defs>
      <use transform="translate(22.773228 26.296621)scale(0.996264)" xlink:href="#CMR17-22"/>
      <use transform="scale(0.996264)" xlink:href="#CMMI12-102"/>
     </g>
    </g>
   </g>
   <g id="matplotlib.axis_2">
    <g id="ytick_1">
     <g id="line2d_10">
      <defs>
       <path d="M 0 0 
L -3.5 0 
" id="m2473e32443" style="stroke:#000000;stroke-width:0.8;"/>
      </defs>
      <g>
       <use style="stroke:#000000;stroke-width:0.8;" x="40.892719" xlink:href="#m2473e32443" y="170.28"/>
      </g>
     </g>
     <g id="text_11">
      <!-- $\mathdefault{0.0}$ -->
      <g transform="translate(21.16264 173.739249)scale(0.1 -0.1)">
       <use transform="scale(0.996264)" xlink:href="#CMR17-48"/>
       <use transform="translate(45.690477 0)scale(0.996264)" xlink:href="#CMMI12-58"/>
       <use transform="translate(72.787654 0)scale(0.996264)" xlink:href="#CMR17-48"/>
      </g>
     </g>
    </g>
    <g id="ytick_2">
     <g id="line2d_11">
      <g>
       <use style="stroke:#000000;stroke-width:0.8;" x="40.892719" xlink:href="#m2473e32443" y="133.216364"/>
      </g>
     </g>
     <g id="text_12">
      <!-- $\mathdefault{0.5}$ -->
      <g transform="translate(21.16264 136.675613)scale(0.1 -0.1)">
       <use transform="scale(0.996264)" xlink:href="#CMR17-48"/>
       <use transform="translate(45.690477 0)scale(0.996264)" xlink:href="#CMMI12-58"/>
       <use transform="translate(72.787654 0)scale(0.996264)" xlink:href="#CMR17-53"/>
      </g>
     </g>
    </g>
    <g id="ytick_3">
     <g id="line2d_12">
      <g>
       <use style="stroke:#000000;stroke-width:0.8;" x="40.892719" xlink:href="#m2473e32443" y="96.152727"/>
      </g>
     </g>
     <g id="text_13">
      <!-- $\mathdefault{1.0}$ -->
      <g transform="translate(21.16264 99.611976)scale(0.1 -0.1)">
       <use transform="scale(0.996264)" xlink:href="#CMR17-49"/>
       <use transform="translate(45.690477 0)scale(0.996264)" xlink:href="#CMMI12-58"/>
       <use transform="translate(72.787654 0)scale(0.996264)" xlink:href="#CMR17-48"/>
      </g>
     </g>
    </g>
    <g id="ytick_4">
     <g id="line2d_13">
      <g>
       <use style="stroke:#000000;stroke-width:0.8;" x="40.892719" xlink:href="#m2473e32443" y="59.089091"/>
      </g>
     </g>
     <g id="text_14">
      <!-- $\mathdefault{1.5}$ -->
      <g transform="translate(21.16264 62.54834)scale(0.1 -0.1)">
       <use transform="scale(0.996264)" xlink:href="#CMR17-49"/>
       <use transform="translate(45.690477 0)scale(0.996264)" xlink:href="#CMMI12-58"/>
       <use transform="translate(72.787654 0)scale(0.996264)" xlink:href="#CMR17-53"/>
      </g>
     </g>
    </g>
    <g id="ytick_5">
     <g id="line2d_14">
      <g>
       <use style="stroke:#000000;stroke-width:0.8;" x="40.892719" xlink:href="#m2473e32443" y="22.025455"/>
      </g>
     </g>
     <g id="text_15">
      <!-- $\mathdefault{2.0}$ -->
      <g transform="translate(21.16264 25.484704)scale(0.1 -0.1)">
       <use transform="scale(0.996264)" xlink:href="#CMR17-50"/>
       <use transform="translate(45.690477 0)scale(0.996264)" xlink:href="#CMMI12-58"/>
       <use transform="translate(72.787654 0)scale(0.996264)" xlink:href="#CMR17-48"/>
      </g>
     </g>
    </g>
    <g id="text_16">
     <!-- $|b_i|$ -->
     <g transform="translate(14.67198 95.303643)rotate(-90)scale(0.1 -0.1)">
      <defs>
       <path d="M 15.90625 71.40625 
C 15.90625 73.203125 15.90625 75 13.90625 75 
C 11.90625 75 11.90625 73.203125 11.90625 71.40625 
L 11.90625 -21.40625 
C 11.90625 -23.203125 11.90625 -25 13.90625 -25 
C 15.90625 -25 15.90625 -23.203125 15.90625 -21.40625 
z
" id="CMSY10-106"/>
       <path d="M 23.09375 66.515625 
C 23.203125 66.921875 23.40625 67.515625 23.40625 68 
C 23.40625 69 22.40625 69 22.203125 69 
C 22.09375 69 18.5 68.640625 16.703125 68.390625 
C 15 68.390625 13.5 68.09375 11.703125 68.09375 
C 9.296875 67.890625 8.59375 67.796875 8.59375 66 
C 8.59375 65 9.59375 65 10.59375 65 
C 15.703125 65 15.703125 64.109375 15.703125 63.125 
C 15.703125 62.4375 14.90625 59.546875 14.5 57.75 
L 12.09375 48.203125 
C 11.09375 44.234375 5.40625 21.671875 5 19.875 
C 4.5 17.40625 4.5 15.703125 4.5 14.40625 
C 4.5 4.28125 10.203125 -1 16.703125 -1 
C 28.296875 -1 40.296875 13.875 40.296875 28.34375 
C 40.296875 37.515625 35.09375 44 27.59375 44 
C 22.40625 44 17.703125 39.71875 15.796875 37.71875 
z
M 16.796875 1 
C 13.59375 1 10.09375 3.390625 10.09375 11.171875 
C 10.09375 14.46875 10.40625 16.359375 12.203125 23.34375 
C 12.5 24.640625 14.09375 31.03125 14.5 32.328125 
C 14.703125 33.125 20.59375 42.015625 27.40625 42.015625 
C 31.796875 42.015625 33.796875 37.625 33.796875 32.4375 
C 33.796875 27.640625 31 16.359375 28.5 11.171875 
C 26 5.78125 21.40625 1 16.796875 1 
z
" id="CMMI12-98"/>
       <path d="M 28.296875 14.265625 
C 28.296875 14.765625 27.90625 15.171875 27.296875 15.171875 
C 26.40625 15.171875 26.296875 14.875 25.796875 13.171875 
C 23.203125 4.09375 19.09375 1 15.796875 1 
C 14.59375 1 13.203125 1.296875 13.203125 4.296875 
C 13.203125 6.984375 14.40625 9.984375 15.5 12.96875 
L 22.5 31.53125 
C 22.796875 32.328125 23.5 34.125 23.5 36.015625 
C 23.5 40.21875 20.5 44 15.59375 44 
C 6.40625 44 2.703125 29.53125 2.703125 28.734375 
C 2.703125 28.34375 3.09375 27.84375 3.796875 27.84375 
C 4.703125 27.84375 4.796875 28.234375 5.203125 29.625 
C 7.59375 37.9375 11.40625 41.90625 15.296875 41.90625 
C 16.203125 41.90625 17.90625 41.90625 17.90625 38.71875 
C 17.90625 36.125 16.59375 32.828125 15.796875 30.640625 
L 8.796875 12.078125 
C 8.203125 10.484375 7.59375 8.875 7.59375 7.078125 
C 7.59375 2.59375 10.703125 -1 15.5 -1 
C 24.703125 -1 28.296875 13.578125 28.296875 14.265625 
z
M 27.5 62.703125 
C 27.5 64.203125 26.296875 66 24.09375 66 
C 21.796875 66 19.203125 63.796875 19.203125 61.203125 
C 19.203125 58.71875 21.296875 57.921875 22.5 57.921875 
C 25.203125 57.921875 27.5 60.515625 27.5 62.703125 
z
" id="CMMI12-105"/>
      </defs>
      <use transform="scale(0.996264)" xlink:href="#CMSY10-106"/>
      <use transform="translate(27.674085 0)scale(0.996264)" xlink:href="#CMMI12-98"/>
      <use transform="translate(69.149959 -14.943915)scale(0.697382)" xlink:href="#CMMI12-105"/>
      <use transform="translate(92.942998 0)scale(0.996264)" xlink:href="#CMSY10-106"/>
     </g>
    </g>
   </g>
   <g id="LineCollection_1">
    <path clip-path="url(#pda6fd7402e)" style="fill:none;stroke:#1f77b4;stroke-width:1.5;"/>
    <path clip-path="url(#pda6fd7402e)" style="fill:none;stroke:#1f77b4;stroke-width:1.5;"/>
    <path clip-path="url(#pda6fd7402e)" style="fill:none;stroke:#1f77b4;stroke-width:1.5;"/>
    <path clip-path="url(#pda6fd7402e)" style="fill:none;stroke:#1f77b4;stroke-width:1.5;"/>
    <path clip-path="url(#pda6fd7402e)" style="fill:none;stroke:#1f77b4;stroke-width:1.5;"/>
    <path clip-path="url(#pda6fd7402e)" style="fill:none;stroke:#1f77b4;stroke-width:1.5;"/>
    <path clip-path="url(#pda6fd7402e)" style="fill:none;stroke:#1f77b4;stroke-width:1.5;"/>
    <path clip-path="url(#pda6fd7402e)" d="M 384.971642 170.28 
L 384.971642 144.168716 
" style="fill:none;stroke:#1f77b4;stroke-width:1.5;"/>
    <path clip-path="url(#pda6fd7402e)" d="M 379.089232 170.28 
L 379.089232 154.175428 
" style="fill:none;stroke:#1f77b4;stroke-width:1.5;"/>
    <path clip-path="url(#pda6fd7402e)" d="M 362.774622 170.28 
L 362.774622 131.239753 
" style="fill:none;stroke:#1f77b4;stroke-width:1.5;"/>
    <path clip-path="url(#pda6fd7402e)" d="M 351.954677 170.28 
L 351.954677 149.488171 
" style="fill:none;stroke:#1f77b4;stroke-width:1.5;"/>
    <path clip-path="url(#pda6fd7402e)" d="M 330.356039 170.28 
L 330.356039 121.682407 
" style="fill:none;stroke:#1f77b4;stroke-width:1.5;"/>
    <path clip-path="url(#pda6fd7402e)" d="M 323.368693 170.28 
L 323.368693 144.826855 
" style="fill:none;stroke:#1f77b4;stroke-width:1.5;"/>
    <path clip-path="url(#pda6fd7402e)" d="M 312.892272 170.28 
L 312.892272 151.470037 
" style="fill:none;stroke:#1f77b4;stroke-width:1.5;"/>
    <path clip-path="url(#pda6fd7402e)" d="M 302.604328 170.28 
L 302.604328 141.008322 
" style="fill:none;stroke:#1f77b4;stroke-width:1.5;"/>
    <path clip-path="url(#pda6fd7402e)" d="M 286.037542 170.28 
L 286.037542 126.027507 
" style="fill:none;stroke:#1f77b4;stroke-width:1.5;"/>
    <path clip-path="url(#pda6fd7402e)" d="M 276.332973 170.28 
L 276.332973 131.907986 
" style="fill:none;stroke:#1f77b4;stroke-width:1.5;"/>
    <path clip-path="url(#pda6fd7402e)" d="M 260.703241 170.28 
L 260.703241 145.121253 
" style="fill:none;stroke:#1f77b4;stroke-width:1.5;"/>
    <path clip-path="url(#pda6fd7402e)" d="M 256.406442 170.28 
L 256.406442 149.839008 
" style="fill:none;stroke:#1f77b4;stroke-width:1.5;"/>
    <path clip-path="url(#pda6fd7402e)" d="M 249.138663 170.28 
L 249.138663 127.708589 
" style="fill:none;stroke:#1f77b4;stroke-width:1.5;"/>
    <path clip-path="url(#pda6fd7402e)" d="M 238.011832 170.28 
L 238.011832 85.017927 
" style="fill:none;stroke:#1f77b4;stroke-width:1.5;"/>
    <path clip-path="url(#pda6fd7402e)" d="M 228.089412 170.28 
L 228.089412 160.706083 
" style="fill:none;stroke:#1f77b4;stroke-width:1.5;"/>
    <path clip-path="url(#pda6fd7402e)" d="M 214.585673 170.28 
L 214.585673 152.496933 
" style="fill:none;stroke:#1f77b4;stroke-width:1.5;"/>
    <path clip-path="url(#pda6fd7402e)" d="M 204.673038 170.28 
L 204.673038 106.950816 
" style="fill:none;stroke:#1f77b4;stroke-width:1.5;"/>
    <path clip-path="url(#pda6fd7402e)" d="M 200.000195 170.28 
L 200.000195 157.609713 
" style="fill:none;stroke:#1f77b4;stroke-width:1.5;"/>
    <path clip-path="url(#pda6fd7402e)" d="M 191.593461 170.28 
L 191.593461 145.143764 
" style="fill:none;stroke:#1f77b4;stroke-width:1.5;"/>
    <path clip-path="url(#pda6fd7402e)" d="M 184.460694 170.28 
L 184.460694 122.873279 
" style="fill:none;stroke:#1f77b4;stroke-width:1.5;"/>
    <path clip-path="url(#pda6fd7402e)" d="M 172.48036 170.28 
L 172.48036 105.101564 
" style="fill:none;stroke:#1f77b4;stroke-width:1.5;"/>
    <path clip-path="url(#pda6fd7402e)" d="M 171.194132 170.28 
L 171.194132 73.446869 
" style="fill:none;stroke:#1f77b4;stroke-width:1.5;"/>
    <path clip-path="url(#pda6fd7402e)" d="M 162.015306 170.28 
L 162.015306 105.148725 
" style="fill:none;stroke:#1f77b4;stroke-width:1.5;"/>
    <path clip-path="url(#pda6fd7402e)" d="M 143.412184 170.28 
L 143.412184 127.341514 
" style="fill:none;stroke:#1f77b4;stroke-width:1.5;"/>
    <path clip-path="url(#pda6fd7402e)" d="M 140.967571 170.28 
L 140.967571 110.555347 
" style="fill:none;stroke:#1f77b4;stroke-width:1.5;"/>
    <path clip-path="url(#pda6fd7402e)" d="M 131.470844 170.28 
L 131.470844 151.308529 
" style="fill:none;stroke:#1f77b4;stroke-width:1.5;"/>
    <path clip-path="url(#pda6fd7402e)" d="M 122.11205 170.28 
L 122.11205 109.61324 
" style="fill:none;stroke:#1f77b4;stroke-width:1.5;"/>
    <path clip-path="url(#pda6fd7402e)" d="M 127.694272 170.28 
L 127.694272 135.849962 
" style="fill:none;stroke:#1f77b4;stroke-width:1.5;"/>
    <path clip-path="url(#pda6fd7402e)" d="M 115.724443 170.28 
L 115.724443 140.447906 
" style="fill:none;stroke:#1f77b4;stroke-width:1.5;"/>
    <path clip-path="url(#pda6fd7402e)" d="M 110.620063 170.28 
L 110.620063 102.468778 
" style="fill:none;stroke:#1f77b4;stroke-width:1.5;"/>
    <path clip-path="url(#pda6fd7402e)" d="M 101.912234 170.28 
L 101.912234 148.21138 
" style="fill:none;stroke:#1f77b4;stroke-width:1.5;"/>
    <path clip-path="url(#pda6fd7402e)" d="M 100.826983 170.28 
L 100.826983 132.681573 
" style="fill:none;stroke:#1f77b4;stroke-width:1.5;"/>
    <path clip-path="url(#pda6fd7402e)" d="M 91.675368 170.28 
L 91.675368 118.579736 
" style="fill:none;stroke:#1f77b4;stroke-width:1.5;"/>
    <path clip-path="url(#pda6fd7402e)" d="M 85.08931 170.28 
L 85.08931 158.926696 
" style="fill:none;stroke:#1f77b4;stroke-width:1.5;"/>
    <path clip-path="url(#pda6fd7402e)" d="M 81.724207 170.28 
L 81.724207 135.990039 
" style="fill:none;stroke:#1f77b4;stroke-width:1.5;"/>
    <path clip-path="url(#pda6fd7402e)" d="M 62.887764 170.28 
L 62.887764 117.065672 
" style="fill:none;stroke:#1f77b4;stroke-width:1.5;"/>
    <path clip-path="url(#pda6fd7402e)" d="M 52.079304 170.28 
L 52.079304 22.605281 
" style="fill:none;stroke:#1f77b4;stroke-width:1.5;"/>
    <path clip-path="url(#pda6fd7402e)" d="M 63.721986 170.28 
L 63.721986 121.283091 
" style="fill:none;stroke:#1f77b4;stroke-width:1.5;"/>
    <path clip-path="url(#pda6fd7402e)" d="M 74.250615 170.28 
L 74.250615 129.248337 
" style="fill:none;stroke:#1f77b4;stroke-width:1.5;"/>
    <path clip-path="url(#pda6fd7402e)" d="M 75.983969 170.28 
L 75.983969 143.055483 
" style="fill:none;stroke:#1f77b4;stroke-width:1.5;"/>
    <path clip-path="url(#pda6fd7402e)" d="M 49.638248 170.28 
L 49.638248 142.293539 
" style="fill:none;stroke:#1f77b4;stroke-width:1.5;"/>
    <path clip-path="url(#pda6fd7402e)" d="M 47.479896 170.28 
L 47.479896 169.317481 
" style="fill:none;stroke:#1f77b4;stroke-width:1.5;"/>
   </g>
   <g id="LineCollection_2">
    <path clip-path="url(#pda6fd7402e)" style="fill:none;stroke:#ff7f0e;stroke-dasharray:5.55,2.4;stroke-dashoffset:0;stroke-width:1.5;"/>
    <path clip-path="url(#pda6fd7402e)" style="fill:none;stroke:#ff7f0e;stroke-dasharray:5.55,2.4;stroke-dashoffset:0;stroke-width:1.5;"/>
    <path clip-path="url(#pda6fd7402e)" d="M 338.195953 170.28 
L 338.195953 154.884326 
" style="fill:none;stroke:#ff7f0e;stroke-dasharray:5.55,2.4;stroke-dashoffset:0;stroke-width:1.5;"/>
    <path clip-path="url(#pda6fd7402e)" d="M 299.59398 170.28 
L 299.59398 152.924307 
" style="fill:none;stroke:#ff7f0e;stroke-dasharray:5.55,2.4;stroke-dashoffset:0;stroke-width:1.5;"/>
    <path clip-path="url(#pda6fd7402e)" d="M 274.698687 170.28 
L 274.698687 163.344193 
" style="fill:none;stroke:#ff7f0e;stroke-dasharray:5.55,2.4;stroke-dashoffset:0;stroke-width:1.5;"/>
    <path clip-path="url(#pda6fd7402e)" d="M 259.370189 170.28 
L 259.370189 146.242766 
" style="fill:none;stroke:#ff7f0e;stroke-dasharray:5.55,2.4;stroke-dashoffset:0;stroke-width:1.5;"/>
    <path clip-path="url(#pda6fd7402e)" d="M 225.188245 170.28 
L 225.188245 158.525111 
" style="fill:none;stroke:#ff7f0e;stroke-dasharray:5.55,2.4;stroke-dashoffset:0;stroke-width:1.5;"/>
    <path clip-path="url(#pda6fd7402e)" d="M 201.236933 170.28 
L 201.236933 157.360015 
" style="fill:none;stroke:#ff7f0e;stroke-dasharray:5.55,2.4;stroke-dashoffset:0;stroke-width:1.5;"/>
    <path clip-path="url(#pda6fd7402e)" d="M 188.933773 170.28 
L 188.933773 164.272589 
" style="fill:none;stroke:#ff7f0e;stroke-dasharray:5.55,2.4;stroke-dashoffset:0;stroke-width:1.5;"/>
    <path clip-path="url(#pda6fd7402e)" d="M 166.472932 170.28 
L 166.472932 161.119139 
" style="fill:none;stroke:#ff7f0e;stroke-dasharray:5.55,2.4;stroke-dashoffset:0;stroke-width:1.5;"/>
    <path clip-path="url(#pda6fd7402e)" d="M 161.119218 170.28 
L 161.119218 167.626677 
" style="fill:none;stroke:#ff7f0e;stroke-dasharray:5.55,2.4;stroke-dashoffset:0;stroke-width:1.5;"/>
    <path clip-path="url(#pda6fd7402e)" d="M 142.179524 170.28 
L 142.179524 149.989512 
" style="fill:none;stroke:#ff7f0e;stroke-dasharray:5.55,2.4;stroke-dashoffset:0;stroke-width:1.5;"/>
    <path clip-path="url(#pda6fd7402e)" d="M 130.169952 170.28 
L 130.169952 163.876105 
" style="fill:none;stroke:#ff7f0e;stroke-dasharray:5.55,2.4;stroke-dashoffset:0;stroke-width:1.5;"/>
    <path clip-path="url(#pda6fd7402e)" d="M 117.86332 170.28 
L 117.86332 166.465292 
" style="fill:none;stroke:#ff7f0e;stroke-dasharray:5.55,2.4;stroke-dashoffset:0;stroke-width:1.5;"/>
    <path clip-path="url(#pda6fd7402e)" d="M 102.049992 170.28 
L 102.049992 160.206969 
" style="fill:none;stroke:#ff7f0e;stroke-dasharray:5.55,2.4;stroke-dashoffset:0;stroke-width:1.5;"/>
    <path clip-path="url(#pda6fd7402e)" d="M 84.925243 170.28 
L 84.925243 163.150971 
" style="fill:none;stroke:#ff7f0e;stroke-dasharray:5.55,2.4;stroke-dashoffset:0;stroke-width:1.5;"/>
    <path clip-path="url(#pda6fd7402e)" d="M 80.362455 170.28 
L 80.362455 144.088731 
" style="fill:none;stroke:#ff7f0e;stroke-dasharray:5.55,2.4;stroke-dashoffset:0;stroke-width:1.5;"/>
    <path clip-path="url(#pda6fd7402e)" d="M 80.364666 170.28 
L 80.364666 157.186302 
" style="fill:none;stroke:#ff7f0e;stroke-dasharray:5.55,2.4;stroke-dashoffset:0;stroke-width:1.5;"/>
    <path clip-path="url(#pda6fd7402e)" d="M 68.715704 170.28 
L 68.715704 158.580861 
" style="fill:none;stroke:#ff7f0e;stroke-dasharray:5.55,2.4;stroke-dashoffset:0;stroke-width:1.5;"/>
    <path clip-path="url(#pda6fd7402e)" d="M 61.393175 170.28 
L 61.393175 146.311385 
" style="fill:none;stroke:#ff7f0e;stroke-dasharray:5.55,2.4;stroke-dashoffset:0;stroke-width:1.5;"/>
    <path clip-path="url(#pda6fd7402e)" d="M 60.979489 170.28 
L 60.979489 141.854695 
" style="fill:none;stroke:#ff7f0e;stroke-dasharray:5.55,2.4;stroke-dashoffset:0;stroke-width:1.5;"/>
    <path clip-path="url(#pda6fd7402e)" d="M 54.525429 170.28 
L 54.525429 145.845033 
" style="fill:none;stroke:#ff7f0e;stroke-dasharray:5.55,2.4;stroke-dashoffset:0;stroke-width:1.5;"/>
    <path clip-path="url(#pda6fd7402e)" d="M 50.691891 170.28 
L 50.691891 90.518182 
" style="fill:none;stroke:#ff7f0e;stroke-dasharray:5.55,2.4;stroke-dashoffset:0;stroke-width:1.5;"/>
    <path clip-path="url(#pda6fd7402e)" d="M 43.571764 170.28 
L 43.571764 161.720403 
" style="fill:none;stroke:#ff7f0e;stroke-dasharray:5.55,2.4;stroke-dashoffset:0;stroke-width:1.5;"/>
   </g>
   <g id="line2d_15">
    <defs>
     <path d="M 0 3 
C 0.795609 3 1.55874 2.683901 2.12132 2.12132 
C 2.683901 1.55874 3 0.795609 3 0 
C 3 -0.795609 2.683901 -1.55874 2.12132 -2.12132 
C 1.55874 -2.683901 0.795609 -3 0 -3 
C -0.795609 -3 -1.55874 -2.683901 -2.12132 -2.12132 
C -2.683901 -1.55874 -3 -0.795609 -3 0 
C -3 0.795609 -2.683901 1.55874 -2.12132 2.12132 
C -1.55874 2.683901 -0.795609 3 0 3 
z
" id="mecd46ef618" style="stroke:#1f77b4;"/>
    </defs>
    <g clip-path="url(#pda6fd7402e)">
     <use style="fill:#1f77b4;stroke:#1f77b4;" x="595.029798" xlink:href="#mecd46ef618" y="145.610419"/>
     <use style="fill:#1f77b4;stroke:#1f77b4;" x="557.707875" xlink:href="#mecd46ef618" y="150.337648"/>
     <use style="fill:#1f77b4;stroke:#1f77b4;" x="505.840593" xlink:href="#mecd46ef618" y="150.125791"/>
     <use style="fill:#1f77b4;stroke:#1f77b4;" x="460.035482" xlink:href="#mecd46ef618" y="132.019266"/>
     <use style="fill:#1f77b4;stroke:#1f77b4;" x="444.26788" xlink:href="#mecd46ef618" y="159.086139"/>
     <use style="fill:#1f77b4;stroke:#1f77b4;" x="434.045103" xlink:href="#mecd46ef618" y="149.232599"/>
     <use style="fill:#1f77b4;stroke:#1f77b4;" x="408.292149" xlink:href="#mecd46ef618" y="145.077014"/>
     <use style="fill:#1f77b4;stroke:#1f77b4;" x="384.971642" xlink:href="#mecd46ef618" y="144.168716"/>
     <use style="fill:#1f77b4;stroke:#1f77b4;" x="379.089232" xlink:href="#mecd46ef618" y="154.175428"/>
     <use style="fill:#1f77b4;stroke:#1f77b4;" x="362.774622" xlink:href="#mecd46ef618" y="131.239753"/>
     <use style="fill:#1f77b4;stroke:#1f77b4;" x="351.954677" xlink:href="#mecd46ef618" y="149.488171"/>
     <use style="fill:#1f77b4;stroke:#1f77b4;" x="330.356039" xlink:href="#mecd46ef618" y="121.682407"/>
     <use style="fill:#1f77b4;stroke:#1f77b4;" x="323.368693" xlink:href="#mecd46ef618" y="144.826855"/>
     <use style="fill:#1f77b4;stroke:#1f77b4;" x="312.892272" xlink:href="#mecd46ef618" y="151.470037"/>
     <use style="fill:#1f77b4;stroke:#1f77b4;" x="302.604328" xlink:href="#mecd46ef618" y="141.008322"/>
     <use style="fill:#1f77b4;stroke:#1f77b4;" x="286.037542" xlink:href="#mecd46ef618" y="126.027507"/>
     <use style="fill:#1f77b4;stroke:#1f77b4;" x="276.332973" xlink:href="#mecd46ef618" y="131.907986"/>
     <use style="fill:#1f77b4;stroke:#1f77b4;" x="260.703241" xlink:href="#mecd46ef618" y="145.121253"/>
     <use style="fill:#1f77b4;stroke:#1f77b4;" x="256.406442" xlink:href="#mecd46ef618" y="149.839008"/>
     <use style="fill:#1f77b4;stroke:#1f77b4;" x="249.138663" xlink:href="#mecd46ef618" y="127.708589"/>
     <use style="fill:#1f77b4;stroke:#1f77b4;" x="238.011832" xlink:href="#mecd46ef618" y="85.017927"/>
     <use style="fill:#1f77b4;stroke:#1f77b4;" x="228.089412" xlink:href="#mecd46ef618" y="160.706083"/>
     <use style="fill:#1f77b4;stroke:#1f77b4;" x="214.585673" xlink:href="#mecd46ef618" y="152.496933"/>
     <use style="fill:#1f77b4;stroke:#1f77b4;" x="204.673038" xlink:href="#mecd46ef618" y="106.950816"/>
     <use style="fill:#1f77b4;stroke:#1f77b4;" x="200.000195" xlink:href="#mecd46ef618" y="157.609713"/>
     <use style="fill:#1f77b4;stroke:#1f77b4;" x="191.593461" xlink:href="#mecd46ef618" y="145.143764"/>
     <use style="fill:#1f77b4;stroke:#1f77b4;" x="184.460694" xlink:href="#mecd46ef618" y="122.873279"/>
     <use style="fill:#1f77b4;stroke:#1f77b4;" x="172.48036" xlink:href="#mecd46ef618" y="105.101564"/>
     <use style="fill:#1f77b4;stroke:#1f77b4;" x="171.194132" xlink:href="#mecd46ef618" y="73.446869"/>
     <use style="fill:#1f77b4;stroke:#1f77b4;" x="162.015306" xlink:href="#mecd46ef618" y="105.148725"/>
     <use style="fill:#1f77b4;stroke:#1f77b4;" x="143.412184" xlink:href="#mecd46ef618" y="127.341514"/>
     <use style="fill:#1f77b4;stroke:#1f77b4;" x="140.967571" xlink:href="#mecd46ef618" y="110.555347"/>
     <use style="fill:#1f77b4;stroke:#1f77b4;" x="131.470844" xlink:href="#mecd46ef618" y="151.308529"/>
     <use style="fill:#1f77b4;stroke:#1f77b4;" x="122.11205" xlink:href="#mecd46ef618" y="109.61324"/>
     <use style="fill:#1f77b4;stroke:#1f77b4;" x="127.694272" xlink:href="#mecd46ef618" y="135.849962"/>
     <use style="fill:#1f77b4;stroke:#1f77b4;" x="115.724443" xlink:href="#mecd46ef618" y="140.447906"/>
     <use style="fill:#1f77b4;stroke:#1f77b4;" x="110.620063" xlink:href="#mecd46ef618" y="102.468778"/>
     <use style="fill:#1f77b4;stroke:#1f77b4;" x="101.912234" xlink:href="#mecd46ef618" y="148.21138"/>
     <use style="fill:#1f77b4;stroke:#1f77b4;" x="100.826983" xlink:href="#mecd46ef618" y="132.681573"/>
     <use style="fill:#1f77b4;stroke:#1f77b4;" x="91.675368" xlink:href="#mecd46ef618" y="118.579736"/>
     <use style="fill:#1f77b4;stroke:#1f77b4;" x="85.08931" xlink:href="#mecd46ef618" y="158.926696"/>
     <use style="fill:#1f77b4;stroke:#1f77b4;" x="81.724207" xlink:href="#mecd46ef618" y="135.990039"/>
     <use style="fill:#1f77b4;stroke:#1f77b4;" x="62.887764" xlink:href="#mecd46ef618" y="117.065672"/>
     <use style="fill:#1f77b4;stroke:#1f77b4;" x="52.079304" xlink:href="#mecd46ef618" y="22.605281"/>
     <use style="fill:#1f77b4;stroke:#1f77b4;" x="63.721986" xlink:href="#mecd46ef618" y="121.283091"/>
     <use style="fill:#1f77b4;stroke:#1f77b4;" x="74.250615" xlink:href="#mecd46ef618" y="129.248337"/>
     <use style="fill:#1f77b4;stroke:#1f77b4;" x="75.983969" xlink:href="#mecd46ef618" y="143.055483"/>
     <use style="fill:#1f77b4;stroke:#1f77b4;" x="49.638248" xlink:href="#mecd46ef618" y="142.293539"/>
     <use style="fill:#1f77b4;stroke:#1f77b4;" x="47.479896" xlink:href="#mecd46ef618" y="169.317481"/>
    </g>
   </g>
   <g id="line2d_16">
    <path clip-path="url(#pda6fd7402e)" d="M 47.479896 170.28 
L 392.748426 170.28 
" style="fill:none;stroke:#000000;stroke-linecap:square;stroke-opacity:0;stroke-width:1.5;"/>
   </g>
   <g id="line2d_17">
    <defs>
     <path d="M 0 3 
C 0.795609 3 1.55874 2.683901 2.12132 2.12132 
C 2.683901 1.55874 3 0.795609 3 0 
C 3 -0.795609 2.683901 -1.55874 2.12132 -2.12132 
C 1.55874 -2.683901 0.795609 -3 0 -3 
C -0.795609 -3 -1.55874 -2.683901 -2.12132 -2.12132 
C -2.683901 -1.55874 -3 -0.795609 -3 0 
C -3 0.795609 -2.683901 1.55874 -2.12132 2.12132 
C -1.55874 2.683901 -0.795609 3 0 3 
z
" id="mb14542fb70" style="stroke:#ff7f0e;"/>
    </defs>
    <g clip-path="url(#pda6fd7402e)">
     <use style="fill:#ff7f0e;stroke:#ff7f0e;" x="496.403174" xlink:href="#mb14542fb70" y="163.155529"/>
     <use style="fill:#ff7f0e;stroke:#ff7f0e;" x="407.443475" xlink:href="#mb14542fb70" y="163.245133"/>
     <use style="fill:#ff7f0e;stroke:#ff7f0e;" x="338.195953" xlink:href="#mb14542fb70" y="154.884326"/>
     <use style="fill:#ff7f0e;stroke:#ff7f0e;" x="299.59398" xlink:href="#mb14542fb70" y="152.924307"/>
     <use style="fill:#ff7f0e;stroke:#ff7f0e;" x="274.698687" xlink:href="#mb14542fb70" y="163.344193"/>
     <use style="fill:#ff7f0e;stroke:#ff7f0e;" x="259.370189" xlink:href="#mb14542fb70" y="146.242766"/>
     <use style="fill:#ff7f0e;stroke:#ff7f0e;" x="225.188245" xlink:href="#mb14542fb70" y="158.525111"/>
     <use style="fill:#ff7f0e;stroke:#ff7f0e;" x="201.236933" xlink:href="#mb14542fb70" y="157.360015"/>
     <use style="fill:#ff7f0e;stroke:#ff7f0e;" x="188.933773" xlink:href="#mb14542fb70" y="164.272589"/>
     <use style="fill:#ff7f0e;stroke:#ff7f0e;" x="166.472932" xlink:href="#mb14542fb70" y="161.119139"/>
     <use style="fill:#ff7f0e;stroke:#ff7f0e;" x="161.119218" xlink:href="#mb14542fb70" y="167.626677"/>
     <use style="fill:#ff7f0e;stroke:#ff7f0e;" x="142.179524" xlink:href="#mb14542fb70" y="149.989512"/>
     <use style="fill:#ff7f0e;stroke:#ff7f0e;" x="130.169952" xlink:href="#mb14542fb70" y="163.876105"/>
     <use style="fill:#ff7f0e;stroke:#ff7f0e;" x="117.86332" xlink:href="#mb14542fb70" y="166.465292"/>
     <use style="fill:#ff7f0e;stroke:#ff7f0e;" x="102.049992" xlink:href="#mb14542fb70" y="160.206969"/>
     <use style="fill:#ff7f0e;stroke:#ff7f0e;" x="84.925243" xlink:href="#mb14542fb70" y="163.150971"/>
     <use style="fill:#ff7f0e;stroke:#ff7f0e;" x="80.362455" xlink:href="#mb14542fb70" y="144.088731"/>
     <use style="fill:#ff7f0e;stroke:#ff7f0e;" x="80.364666" xlink:href="#mb14542fb70" y="157.186302"/>
     <use style="fill:#ff7f0e;stroke:#ff7f0e;" x="68.715704" xlink:href="#mb14542fb70" y="158.580861"/>
     <use style="fill:#ff7f0e;stroke:#ff7f0e;" x="61.393175" xlink:href="#mb14542fb70" y="146.311385"/>
     <use style="fill:#ff7f0e;stroke:#ff7f0e;" x="60.979489" xlink:href="#mb14542fb70" y="141.854695"/>
     <use style="fill:#ff7f0e;stroke:#ff7f0e;" x="54.525429" xlink:href="#mb14542fb70" y="145.845033"/>
     <use style="fill:#ff7f0e;stroke:#ff7f0e;" x="50.691891" xlink:href="#mb14542fb70" y="90.518182"/>
     <use style="fill:#ff7f0e;stroke:#ff7f0e;" x="43.571764" xlink:href="#mb14542fb70" y="161.720403"/>
    </g>
   </g>
   <g id="line2d_18">
    <path clip-path="url(#pda6fd7402e)" d="M 43.571764 170.28 
L 392.748426 170.28 
" style="fill:none;stroke:#000000;stroke-linecap:square;stroke-opacity:0;stroke-width:1.5;"/>
   </g>
   <g id="line2d_19">
    <path clip-path="url(#pda6fd7402e)" d="M 48.760519 170.28 
L 48.760519 7.2 
" style="fill:none;stroke:#000000;stroke-dasharray:5.55,2.4;stroke-dashoffset:0;stroke-width:1.5;"/>
   </g>
   <g id="patch_3">
    <path d="M 40.892719 170.28 
L 40.892719 7.2 
" style="fill:none;stroke:#000000;stroke-linecap:square;stroke-linejoin:miter;stroke-width:0.8;"/>
   </g>
   <g id="patch_4">
    <path d="M 375.692719 170.28 
L 375.692719 7.2 
" style="fill:none;stroke:#000000;stroke-linecap:square;stroke-linejoin:miter;stroke-width:0.8;"/>
   </g>
   <g id="patch_5">
    <path d="M 40.892719 170.28 
L 375.692719 170.28 
" style="fill:none;stroke:#000000;stroke-linecap:square;stroke-linejoin:miter;stroke-width:0.8;"/>
   </g>
   <g id="patch_6">
    <path d="M 40.892719 7.2 
L 375.692719 7.2 
" style="fill:none;stroke:#000000;stroke-linecap:square;stroke-linejoin:miter;stroke-width:0.8;"/>
   </g>
   <g id="legend_1">
    <g id="patch_7">
     <path d="M 269.085027 59.091866 
L 368.692719 59.091866 
Q 370.692719 59.091866 370.692719 57.091866 
L 370.692719 14.2 
Q 370.692719 12.2 368.692719 12.2 
L 269.085027 12.2 
Q 267.085027 12.2 267.085027 14.2 
L 267.085027 57.091866 
Q 267.085027 59.091866 269.085027 59.091866 
z
" style="fill:#ffffff;opacity:0.8;stroke:#cccccc;stroke-linejoin:miter;"/>
    </g>
    <g id="line2d_20">
     <path d="M 271.085027 20.298437 
L 291.085027 20.298437 
" style="fill:none;stroke:#000000;stroke-dasharray:5.55,2.4;stroke-dashoffset:0;stroke-width:1.5;"/>
    </g>
    <g id="line2d_21"/>
    <g id="text_17">
     <!-- exp. buffet freq. -->
     <g transform="translate(299.085027 23.798437)scale(0.1 -0.1)">
      <defs>
       <path d="M 39.09375 21.515625 
C 39.09375 24.84375 38.90625 31.296875 35.703125 36.640625 
C 32.203125 42.390625 26.5 44 22.203125 44 
C 11.796875 44 3 34.1875 3 21.484375 
C 3 9.09375 12.09375 -1 23.59375 -1 
C 28.09375 -1 33.59375 0.296875 38.59375 3.875 
C 38.59375 4.28125 38.40625 6.46875 38.296875 6.5625 
C 38.296875 6.765625 38 9.84375 38 10.25 
C 33.203125 6.359375 27.703125 5.078125 23.703125 5.078125 
C 17.296875 5.078125 10.40625 10.421875 10.09375 21.515625 
z
M 10.90625 27 
C 12.203125 32.5625 16.59375 37.828125 22.203125 37.828125 
C 23.703125 37.828125 30.703125 37.828125 32.5 27 
z
" id="CMSS17-101"/>
       <path d="M 24.796875 22.09375 
L 41.5 42.796875 
L 32.796875 42.796875 
L 21.296875 27.765625 
L 9.40625 42.796875 
L 0.5 42.796875 
L 17.796875 22.09375 
L 0 0 
L 8.796875 0 
L 21.296875 17.515625 
L 34.296875 0 
L 43.09375 0 
z
" id="CMSS17-120"/>
       <path d="M 15.09375 5.203125 
C 18.40625 2.015625 22.90625 -0.078125 27.703125 -0.078125 
C 37 -0.078125 45 9.421875 45 22.0625 
C 45 33.734375 39 44 30.40625 44 
C 25.40625 44 19.40625 42.21875 14.90625 38.625 
L 14.90625 43.203125 
L 7.5 43.203125 
L 7.5 -19 
L 15.09375 -19 
z
M 15.09375 32.8125 
C 15.90625 34 19.296875 37.734375 24.796875 37.734375 
C 31.796875 37.734375 37.40625 30.625 37.40625 22.0625 
C 37.40625 12.296875 30.59375 6 23.90625 6 
C 21.90625 6 19.796875 6.484375 17.796875 8.171875 
C 15.09375 10.53125 15.09375 12 15.09375 13.390625 
z
" id="CMSS17-112"/>
       <path d="M 17 7.96875 
L 9 7.96875 
L 9 0 
L 17 0 
z
" id="CMSS17-46"/>
       <path d="M 14.90625 69 
L 7.5 69 
L 7.5 -0.203125 
L 15.09375 -0.203125 
L 15.09375 4.28125 
C 18.90625 0.59375 23.5 -1 27.59375 -1 
C 37.203125 -1 45 8.578125 45 21.125 
C 45 32.59375 39 43.0625 30.09375 43.0625 
C 23.796875 43.0625 18.203125 40.484375 14.90625 37.796875 
z
M 15.09375 31.96875 
C 17.296875 34.71875 20.40625 37 24.796875 37 
C 30.703125 37 37.40625 32.765625 37.40625 21.125 
C 37.40625 8.71875 29.40625 5.078125 23.90625 5.078125 
C 21.90625 5.078125 19.796875 5.5625 17.796875 7.25 
C 15.09375 9.609375 15.09375 11.078125 15.09375 12.453125 
z
" id="CMSS17-98"/>
       <path d="M 40.90625 42.796875 
L 33.296875 42.796875 
L 33.296875 15.1875 
C 33.296875 7.78125 27.90625 4.78125 22.203125 4.78125 
C 15.59375 4.78125 15 6.984375 15 11.078125 
L 15 42.796875 
L 7.40625 42.796875 
L 7.40625 10.59375 
C 7.40625 2.796875 10.09375 -1 17 -1 
C 20.40625 -1 28.09375 -0.203125 33.5 4.78125 
L 33.5 0 
L 40.90625 0 
z
" id="CMSS17-117"/>
       <path d="M 16.796875 37 
L 27.09375 37 
L 27.09375 42.765625 
L 16.59375 42.765625 
L 16.59375 55.609375 
C 16.59375 62.515625 21.796875 63.9375 25.203125 63.9375 
C 28.703125 63.9375 31.59375 63.03125 32.703125 62.640625 
L 32.703125 69.203125 
C 31.59375 69.40625 28.59375 70 25.296875 70 
C 16.09375 70 9.40625 62.484375 9.40625 52.484375 
L 9.40625 42.765625 
L 2.5 42.765625 
L 2.5 37 
L 9.40625 37 
L 9.40625 0 
L 16.796875 0 
z
M 42.796875 37 
L 53.09375 37 
L 53.09375 42.765625 
L 42.59375 42.765625 
L 42.59375 55.609375 
C 42.59375 62.515625 47.796875 63.9375 51.203125 63.9375 
C 54.703125 63.9375 57.59375 63.03125 58.703125 62.640625 
L 58.703125 69.203125 
C 57.59375 69.40625 54.59375 70 51.296875 70 
C 42.09375 70 35.40625 62.515625 35.40625 52.546875 
L 35.40625 0 
L 42.796875 0 
z
" id="CMSS17-11"/>
       <path d="M 16.703125 37 
L 29.703125 37 
L 29.703125 42.765625 
L 16.703125 42.765625 
L 16.703125 55 
L 9.59375 55 
L 9.59375 42.765625 
L 1.703125 42.765625 
L 1.703125 37 
L 9.40625 37 
L 9.40625 11.703125 
C 9.40625 6 10.703125 -1 17.296875 -1 
C 22.296875 -1 26.90625 0.390625 31.296875 2.6875 
L 29.703125 8.5625 
C 27.296875 6.46875 24.40625 5.265625 21.296875 5.265625 
C 16.90625 5.265625 16.703125 10.875 16.703125 13.375 
z
" id="CMSS17-116"/>
       <path d="M 16.796875 37 
L 26.90625 37 
L 26.90625 42.765625 
L 16.59375 42.765625 
L 16.59375 55.609375 
C 16.59375 62.71875 22 63.9375 25.09375 63.9375 
C 26.09375 63.9375 28.90625 63.9375 32.5 62.640625 
L 32.5 69.203125 
C 30.203125 69.703125 27.40625 70 25.203125 70 
C 15.90625 70 9.40625 62.390625 9.40625 52.484375 
L 9.40625 42.765625 
L 2.5 42.765625 
L 2.5 37 
L 9.40625 37 
L 9.40625 0 
L 16.796875 0 
z
" id="CMSS17-102"/>
       <path d="M 14.90625 21.296875 
C 14.90625 30.703125 21.796875 37 30.59375 37 
L 30.59375 43.578125 
C 24.203125 43.578125 18.203125 40.390625 14.59375 35.203125 
L 14.59375 43.09375 
L 7.5 43.09375 
L 7.5 0 
L 14.90625 0 
z
" id="CMSS17-114"/>
       <path d="M 40.796875 44 
L 33.40625 44 
L 33.40625 37.9375 
C 33 38.4375 28.40625 44 20.59375 44 
C 11.5 44 3.296875 34.8125 3.296875 21.859375 
C 3.296875 9.890625 10.203125 -0.078125 19.203125 -0.078125 
C 23.40625 -0.078125 28.703125 1.421875 33.203125 5.703125 
L 33.203125 -19 
L 40.796875 -19 
z
M 33.40625 14.28125 
C 33.40625 13 33.40625 11.21875 30.296875 8.65625 
C 29.5 7.96875 27.296875 6 23.5 6 
C 16.40625 6 10.90625 13.28125 10.90625 21.859375 
C 10.90625 31.421875 17.59375 37.734375 24.40625 37.734375 
C 30.09375 37.734375 33.40625 32.203125 33.40625 28.078125 
z
" id="CMSS17-113"/>
      </defs>
      <use transform="scale(0.996264)" xlink:href="#CMSS17-101"/>
      <use transform="translate(41.638822 0)scale(0.996264)" xlink:href="#CMSS17-120"/>
      <use transform="translate(84.638964 0)scale(0.996264)" xlink:href="#CMSS17-112"/>
      <use transform="translate(132.843907 0)scale(0.996264)" xlink:href="#CMSS17-46"/>
      <use transform="translate(200.506919 0)scale(0.996264)" xlink:href="#CMSS17-98"/>
      <use transform="translate(248.711862 0)scale(0.996264)" xlink:href="#CMSS17-117"/>
      <use transform="translate(296.916805 0)scale(0.996264)" xlink:href="#CMSS17-11"/>
      <use transform="translate(351.567775 0)scale(0.996264)" xlink:href="#CMSS17-101"/>
      <use transform="translate(393.206597 0)scale(0.996264)" xlink:href="#CMSS17-116"/>
      <use transform="translate(458.267277 0)scale(0.996264)" xlink:href="#CMSS17-102"/>
      <use transform="translate(486.893935 0)scale(0.996264)" xlink:href="#CMSS17-114"/>
      <use transform="translate(518.803708 0)scale(0.996264)" xlink:href="#CMSS17-101"/>
      <use transform="translate(560.44253 0)scale(0.996264)" xlink:href="#CMSS17-113"/>
      <use transform="translate(608.647473 0)scale(0.996264)" xlink:href="#CMSS17-46"/>
     </g>
    </g>
    <g id="line2d_22">
     <path d="M 281.085027 38.476562 
L 281.085027 33.664062 
" style="fill:none;stroke:#1f77b4;stroke-width:1.5;"/>
    </g>
    <g id="line2d_23">
     <path d="M 271.085027 38.476562 
L 291.085027 38.476562 
" style="fill:none;stroke:#000000;stroke-linecap:square;stroke-opacity:0;stroke-width:1.5;"/>
    </g>
    <g id="line2d_24">
     <g>
      <use style="fill:#1f77b4;stroke:#1f77b4;" x="281.085027" xlink:href="#mecd46ef618" y="33.664062"/>
     </g>
    </g>
    <g id="text_18">
     <!-- 2D, ~6 cycles -->
     <g transform="translate(299.085027 38.476562)scale(0.1 -0.1)">
      <defs>
       <path d="M 25.796875 21.203125 
C 28.59375 24.078125 32.796875 27.5625 35.703125 31.046875 
C 38.5 34.4375 42.203125 39.234375 42.203125 46.203125 
C 42.203125 57.140625 34.796875 67 22.203125 67 
C 12.296875 67 6.59375 60.828125 3.90625 51.15625 
L 7.796875 45.765625 
C 10 54.84375 13.09375 60.625 20.90625 60.625 
C 29.5 60.625 34.296875 53.640625 34.296875 45.96875 
C 34.296875 36.796875 27.296875 29.703125 22 24.421875 
C 16.09375 18.546875 10.296875 12.5625 4.703125 6.375 
L 4.703125 0 
L 42.203125 0 
L 42.203125 6.765625 
L 25.203125 6.765625 
C 24 6.765625 22.796875 6.765625 21.59375 6.765625 
L 11.59375 6.765625 
L 11.59375 6.859375 
z
" id="CMSS17-50"/>
       <path d="M 8.90625 69 
L 8.90625 0 
L 33.5 0 
C 49.90625 0 62.5 15.3125 62.5 33.90625 
C 62.5 53.09375 49.90625 69 33.5 69 
z
M 17.09375 5.578125 
L 17.09375 63.421875 
L 31.296875 63.421875 
C 44.703125 63.421875 54.296875 51.203125 54.296875 33.90625 
C 54.296875 17.296875 44.796875 5.578125 31.296875 5.578125 
z
" id="CMSS17-68"/>
       <path d="M 17 0.09375 
L 17 7.96875 
L 9 7.96875 
L 9 0 
L 11.5 0 
L 8.90625 -12.5 
L 12.90625 -12.5 
z
" id="CMSS17-44"/>
       <path d="M 39 64.078125 
C 34.796875 65.78125 31.796875 66.078125 29 66.078125 
C 16 66.078125 3.90625 52.625 3.90625 31.34375 
C 3.90625 4.140625 15.40625 -2 23.59375 -2 
C 28.09375 -2 32.59375 -0.609375 36.90625 4.375 
C 41.296875 9.640625 43 14.03125 43 21.703125 
C 43 34.046875 36.90625 45 27.796875 45 
C 21.203125 45 15.5 41.515625 12 37.125 
C 13 50.90625 19.59375 60 29.09375 60 
C 31.703125 60 35.09375 59.625 39 57.96875 
z
M 12.09375 21.390625 
C 12.09375 22.1875 12.09375 22.6875 12.203125 24.1875 
C 12.203125 31.953125 16.703125 38.921875 24 38.921875 
C 28.703125 38.921875 31.09375 36.4375 32.90625 33.359375 
C 35 29.46875 35.09375 25.78125 35.09375 21.6875 
C 35.09375 17.8125 35.09375 13.921875 32.796875 9.953125 
C 30.90625 6.859375 28.40625 4.171875 23.59375 4.171875 
C 14.09375 4.171875 12.5 17.40625 12.09375 21.390625 
z
" id="CMSS17-54"/>
       <path d="M 38.5 39.703125 
C 38.5 40.390625 33.90625 42.40625 32.703125 42.796875 
C 29.40625 44 25.203125 44 24.09375 44 
C 11.09375 44 3.296875 32.703125 3.296875 21.296875 
C 3.296875 9.296875 12 -1 23.703125 -1 
C 30.40625 -1 35.203125 1.1875 39.09375 3.78125 
L 38.5 10.375 
C 34.203125 7.078125 29.203125 5.265625 23.796875 5.265625 
C 16 5.265625 10.90625 12.09375 10.90625 21.390625 
C 10.90625 28.609375 14.203125 37.71875 24.203125 37.71875 
C 29.703125 37.71875 32.796875 36.609375 37.40625 33.515625 
z
" id="CMSS17-99"/>
       <path d="M 41.796875 43 
L 34 43 
C 25.5 20.21875 22.59375 10.96875 22.40625 5.984375 
L 22.296875 5.984375 
C 22 10.875 17.59375 22.8125 14.09375 31.359375 
L 9.40625 43 
L 1.296875 43 
L 19 0.203125 
C 17.90625 -2.78125 16.296875 -7.265625 15.796875 -8.265625 
C 13.59375 -13.828125 12.09375 -13.828125 10.5 -13.828125 
C 10.09375 -13.828125 6.90625 -13.828125 3.296875 -12.640625 
L 3.90625 -19.203125 
C 6.40625 -19.703125 8.90625 -20 10.703125 -20 
C 13.203125 -20 18.203125 -20 22.796875 -7.765625 
z
" id="CMSS17-121"/>
       <path d="M 14.796875 69 
L 7.40625 69 
L 7.40625 0 
L 14.796875 0 
z
" id="CMSS17-108"/>
       <path d="M 32.203125 41.046875 
C 26.296875 43.859375 21.703125 43.859375 18.703125 43.859375 
C 11.59375 43.859375 3.09375 41.375 3.09375 31.296875 
C 3.09375 21.234375 14.09375 19.03125 17.09375 18.421875 
C 21.703125 17.53125 26.796875 16.53125 26.796875 11.5625 
C 26.796875 5.265625 19.59375 5.265625 18.296875 5.265625 
C 14.296875 5.265625 8.796875 6.359375 3.796875 9.96875 
L 2.59375 3.28125 
C 8.296875 0 13.796875 -1 18.40625 -1 
C 30.703125 -1 33.796875 6.5 33.796875 12.203125 
C 33.796875 17.09375 31 20.390625 29.09375 21.890625 
C 25.796875 24.5 24.59375 24.796875 16.40625 26.5 
C 15 26.703125 10.09375 27.796875 10.09375 32.28125 
C 10.09375 38 16.40625 38 17.796875 38 
C 24.296875 38 28.296875 35.984375 31 34.5 
z
" id="CMSS17-115"/>
      </defs>
      <use transform="scale(0.996264)" xlink:href="#CMSS17-50"/>
      <use transform="translate(46.843624 0)scale(0.996264)" xlink:href="#CMSS17-68"/>
      <use transform="translate(114.386465 0)scale(0.996264)" xlink:href="#CMSS17-44"/>
      <use transform="translate(202.868896 0)scale(0.996264)" xlink:href="#CMSS17-54"/>
      <use transform="translate(280.941632 0)scale(0.996264)" xlink:href="#CMSS17-99"/>
      <use transform="translate(322.580454 0)scale(0.996264)" xlink:href="#CMSS17-121"/>
      <use transform="translate(365.580596 0)scale(0.996264)" xlink:href="#CMSS17-99"/>
      <use transform="translate(407.219418 0)scale(0.996264)" xlink:href="#CMSS17-108"/>
      <use transform="translate(429.400141 0)scale(0.996264)" xlink:href="#CMSS17-101"/>
      <use transform="translate(471.038963 0)scale(0.996264)" xlink:href="#CMSS17-115"/>
     </g>
    </g>
    <g id="line2d_25">
     <path d="M 281.085027 53.154687 
L 281.085027 48.342187 
" style="fill:none;stroke:#ff7f0e;stroke-dasharray:8.325,3.6;stroke-dashoffset:0;stroke-width:1.5;"/>
    </g>
    <g id="line2d_26">
     <path d="M 271.085027 53.154687 
L 291.085027 53.154687 
" style="fill:none;stroke:#000000;stroke-linecap:square;stroke-opacity:0;stroke-width:1.5;"/>
    </g>
    <g id="line2d_27">
     <g>
      <use style="fill:#ff7f0e;stroke:#ff7f0e;" x="281.085027" xlink:href="#mb14542fb70" y="48.342187"/>
     </g>
    </g>
    <g id="text_19">
     <!-- 3D, ~3 cycles -->
     <g transform="translate(299.085027 53.154687)scale(0.1 -0.1)">
      <defs>
       <path d="M 15.703125 31.640625 
L 22.5 31.640625 
C 31.90625 31.640625 34.59375 23.546875 34.59375 17.90625 
C 34.59375 10.203125 30.203125 4.171875 23 4.171875 
C 17.40625 4.171875 9.5 6.9375 5 14.25 
C 4.296875 10.796875 4.296875 10.59375 3.90625 8.21875 
C 8.59375 1.375 16.203125 -2 23.203125 -2 
C 34.59375 -2 43 7.390625 43 17.78125 
C 43 25.59375 37.5 32.140625 30 34.609375 
C 36 37.875 40.40625 44 40.40625 51.140625 
C 40.40625 59.453125 32.703125 66.078125 23.296875 66.078125 
C 14.703125 66.078125 8 60.8125 5.203125 55.15625 
C 5.90625 54.1875 7.703125 51.3125 8.59375 49.828125 
C 10.796875 55.65625 16.5 60 23.203125 60 
C 28.796875 60 32.5 56.359375 32.5 51.109375 
C 32.5 45.671875 29 39.734375 23.09375 38.359375 
C 22.703125 38.359375 16.5 37.765625 15.703125 37.671875 
z
" id="CMSS17-51"/>
      </defs>
      <use transform="scale(0.996264)" xlink:href="#CMSS17-51"/>
      <use transform="translate(46.843624 0)scale(0.996264)" xlink:href="#CMSS17-68"/>
      <use transform="translate(114.386465 0)scale(0.996264)" xlink:href="#CMSS17-44"/>
      <use transform="translate(202.868896 0)scale(0.996264)" xlink:href="#CMSS17-51"/>
      <use transform="translate(280.941632 0)scale(0.996264)" xlink:href="#CMSS17-99"/>
      <use transform="translate(322.580454 0)scale(0.996264)" xlink:href="#CMSS17-121"/>
      <use transform="translate(365.580596 0)scale(0.996264)" xlink:href="#CMSS17-99"/>
      <use transform="translate(407.219418 0)scale(0.996264)" xlink:href="#CMSS17-108"/>
      <use transform="translate(429.400141 0)scale(0.996264)" xlink:href="#CMSS17-101"/>
      <use transform="translate(471.038963 0)scale(0.996264)" xlink:href="#CMSS17-115"/>
     </g>
    </g>
   </g>
  </g>
 </g>
 <defs>
  <clipPath id="pda6fd7402e">
   <rect height="163.08" width="334.8" x="40.892719" y="7.2"/>
  </clipPath>
 </defs>
</svg>
