<?xml version="1.0" encoding="utf-8" standalone="no"?>
<!DOCTYPE svg PUBLIC "-//W3C//DTD SVG 1.1//EN"
  "http://www.w3.org/Graphics/SVG/1.1/DTD/svg11.dtd">
<!-- Created with matplotlib (https://matplotlib.org/) -->
<svg height="281.11465pt" version="1.1" viewBox="0 0 395.831657 281.11465" width="395.831657pt" xmlns="http://www.w3.org/2000/svg" xmlns:xlink="http://www.w3.org/1999/xlink">
 <metadata>
  <rdf:RDF xmlns:cc="http://creativecommons.org/ns#" xmlns:dc="http://purl.org/dc/elements/1.1/" xmlns:rdf="http://www.w3.org/1999/02/22-rdf-syntax-ns#">
   <cc:Work>
    <dc:type rdf:resource="http://purl.org/dc/dcmitype/StillImage"/>
    <dc:date>2021-11-16T23:51:16.779378</dc:date>
    <dc:format>image/svg+xml</dc:format>
    <dc:creator>
     <cc:Agent>
      <dc:title>Matplotlib v3.3.3, https://matplotlib.org/</dc:title>
     </cc:Agent>
    </dc:creator>
   </cc:Work>
  </rdf:RDF>
 </metadata>
 <defs>
  <style type="text/css">*{stroke-linecap:butt;stroke-linejoin:round;}</style>
 </defs>
 <g id="figure_1">
  <g id="patch_1">
   <path d="M 0 281.11465 
L 395.831657 281.11465 
L 395.831657 0 
L 0 0 
z
" style="fill:none;"/>
  </g>
  <g id="axes_1">
   <g id="patch_2">
    <path d="M 52.160938 243.5584 
L 386.960938 243.5584 
L 386.960938 26.1184 
L 52.160938 26.1184 
z
" style="fill:#ffffff;"/>
   </g>
   <g id="PathCollection_1">
    <defs>
     <path d="M 0 3 
C 0.795609 3 1.55874 2.683901 2.12132 2.12132 
C 2.683901 1.55874 3 0.795609 3 0 
C 3 -0.795609 2.683901 -1.55874 2.12132 -2.12132 
C 1.55874 -2.683901 0.795609 -3 0 -3 
C -0.795609 -3 -1.55874 -2.683901 -2.12132 -2.12132 
C -2.683901 -1.55874 -3 -0.795609 -3 0 
C -3 0.795609 -2.683901 1.55874 -2.12132 2.12132 
C -1.55874 2.683901 -0.795609 3 0 3 
z
" id="m43f118e662" style="stroke:#1f77b4;"/>
    </defs>
    <g clip-path="url(#p7bc3266932)">
     <use style="fill:#1f77b4;stroke:#1f77b4;" x="67.753361" xlink:href="#m43f118e662" y="114.732623"/>
     <use style="fill:#1f77b4;stroke:#1f77b4;" x="67.974538" xlink:href="#m43f118e662" y="232.405026"/>
     <use style="fill:#1f77b4;stroke:#1f77b4;" x="68.082349" xlink:href="#m43f118e662" y="173.993031"/>
     <use style="fill:#1f77b4;stroke:#1f77b4;" x="68.147762" xlink:href="#m43f118e662" y="138.436178"/>
     <use style="fill:#1f77b4;stroke:#1f77b4;" x="68.225173" xlink:href="#m43f118e662" y="96.954408"/>
     <use style="fill:#1f77b4;stroke:#1f77b4;" x="68.925037" xlink:href="#m43f118e662" y="192.616423"/>
     <use style="fill:#1f77b4;stroke:#1f77b4;" x="92.535277" xlink:href="#m43f118e662" y="233.251319"/>
     <use style="fill:#1f77b4;stroke:#1f77b4;" x="93.149147" xlink:href="#m43f118e662" y="138.436178"/>
     <use style="fill:#1f77b4;stroke:#1f77b4;" x="93.192892" xlink:href="#m43f118e662" y="114.732623"/>
     <use style="fill:#1f77b4;stroke:#1f77b4;" x="93.226035" xlink:href="#m43f118e662" y="96.531627"/>
     <use style="fill:#1f77b4;stroke:#1f77b4;" x="93.926154" xlink:href="#m43f118e662" y="192.616423"/>
     <use style="fill:#1f77b4;stroke:#1f77b4;" x="149.993007" xlink:href="#m43f118e662" y="233.251319"/>
     <use style="fill:#1f77b4;stroke:#1f77b4;" x="150.103298" xlink:href="#m43f118e662" y="174.415655"/>
     <use style="fill:#1f77b4;stroke:#1f77b4;" x="150.605303" xlink:href="#m43f118e662" y="138.859249"/>
     <use style="fill:#1f77b4;stroke:#1f77b4;" x="150.649059" xlink:href="#m43f118e662" y="115.154377"/>
     <use style="fill:#1f77b4;stroke:#1f77b4;" x="150.94526" xlink:href="#m43f118e662" y="192.616423"/>
     <use style="fill:#1f77b4;stroke:#1f77b4;" x="174.994569" xlink:href="#m43f118e662" y="233.251319"/>
     <use style="fill:#1f77b4;stroke:#1f77b4;" x="175.508267" xlink:href="#m43f118e662" y="192.193059"/>
     <use style="fill:#1f77b4;stroke:#1f77b4;" x="180.727485" xlink:href="#m43f118e662" y="215.897312"/>
    </g>
   </g>
   <g id="PathCollection_2">
    <defs>
     <path d="M -3 3 
L 3 -3 
M -3 -3 
L 3 3 
" id="mee937991b2" style="stroke:#ff7f0e;stroke-width:1.5;"/>
    </defs>
    <g clip-path="url(#p7bc3266932)">
     <use style="fill:#ff7f0e;stroke:#ff7f0e;stroke-width:1.5;" x="175.54121" xlink:href="#mee937991b2" y="173.993031"/>
     <use style="fill:#ff7f0e;stroke:#ff7f0e;stroke-width:1.5;" x="175.653102" xlink:href="#mee937991b2" y="114.310081"/>
     <use style="fill:#ff7f0e;stroke:#ff7f0e;stroke-width:1.5;" x="176.046599" xlink:href="#mee937991b2" y="138.436178"/>
     <use style="fill:#ff7f0e;stroke:#ff7f0e;stroke-width:1.5;" x="190.860015" xlink:href="#mee937991b2" y="191.769913"/>
     <use style="fill:#ff7f0e;stroke:#ff7f0e;stroke-width:1.5;" x="191.254762" xlink:href="#mee937991b2" y="215.897312"/>
     <use style="fill:#ff7f0e;stroke:#ff7f0e;stroke-width:1.5;" x="206.791649" xlink:href="#mee937991b2" y="115.154377"/>
     <use style="fill:#ff7f0e;stroke:#ff7f0e;stroke-width:1.5;" x="207.122233" xlink:href="#mee937991b2" y="173.993031"/>
     <use style="fill:#ff7f0e;stroke:#ff7f0e;stroke-width:1.5;" x="207.452673" xlink:href="#mee937991b2" y="232.827204"/>
     <use style="fill:#ff7f0e;stroke:#ff7f0e;stroke-width:1.5;" x="207.625675" xlink:href="#mee937991b2" y="138.436178"/>
     <use style="fill:#ff7f0e;stroke:#ff7f0e;stroke-width:1.5;" x="207.966253" xlink:href="#mee937991b2" y="192.193059"/>
     <use style="fill:#ff7f0e;stroke:#ff7f0e;stroke-width:1.5;" x="219.732386" xlink:href="#mee937991b2" y="233.251319"/>
     <use style="fill:#ff7f0e;stroke:#ff7f0e;stroke-width:1.5;" x="220.642042" xlink:href="#mee937991b2" y="215.473622"/>
     <use style="fill:#ff7f0e;stroke:#ff7f0e;stroke-width:1.5;" x="231.312112" xlink:href="#mee937991b2" y="138.012973"/>
     <use style="fill:#ff7f0e;stroke:#ff7f0e;stroke-width:1.5;" x="231.355928" xlink:href="#mee937991b2" y="114.310081"/>
     <use style="fill:#ff7f0e;stroke:#ff7f0e;stroke-width:1.5;" x="231.575593" xlink:href="#mee937991b2" y="232.827204"/>
     <use style="fill:#ff7f0e;stroke:#ff7f0e;stroke-width:1.5;" x="231.650976" xlink:href="#mee937991b2" y="192.193059"/>
     <use style="fill:#ff7f0e;stroke:#ff7f0e;stroke-width:1.5;" x="232.12326" xlink:href="#mee937991b2" y="173.569678"/>
     <use style="fill:#ff7f0e;stroke:#ff7f0e;stroke-width:1.5;" x="256.214797" xlink:href="#mee937991b2" y="191.346584"/>
     <use style="fill:#ff7f0e;stroke:#ff7f0e;stroke-width:1.5;" x="256.246287" xlink:href="#mee937991b2" y="173.993031"/>
     <use style="fill:#ff7f0e;stroke:#ff7f0e;stroke-width:1.5;" x="256.35534" xlink:href="#mee937991b2" y="115.154377"/>
     <use style="fill:#ff7f0e;stroke:#ff7f0e;stroke-width:1.5;" x="256.576426" xlink:href="#mee937991b2" y="232.827204"/>
     <use style="fill:#ff7f0e;stroke:#ff7f0e;stroke-width:1.5;" x="256.750296" xlink:href="#mee937991b2" y="138.859249"/>
     <use style="fill:#ff7f0e;stroke:#ff7f0e;stroke-width:1.5;" x="284.789114" xlink:href="#mee937991b2" y="156.214439"/>
     <use style="fill:#ff7f0e;stroke:#ff7f0e;stroke-width:1.5;" x="304.385676" xlink:href="#mee937991b2" y="232.827204"/>
     <use style="fill:#ff7f0e;stroke:#ff7f0e;stroke-width:1.5;" x="305.337603" xlink:href="#mee937991b2" y="192.193059"/>
     <use style="fill:#ff7f0e;stroke:#ff7f0e;stroke-width:1.5;" x="369.736307" xlink:href="#mee937991b2" y="233.674764"/>
     <use style="fill:#ff7f0e;stroke:#ff7f0e;stroke-width:1.5;" x="371.130174" xlink:href="#mee937991b2" y="191.769913"/>
    </g>
   </g>
   <g id="PathCollection_3">
    <defs>
     <path d="M -3 -0 
L 3 3 
L 3 -3 
z
" id="m540bbc67cf" style="stroke:#2ca02c;"/>
    </defs>
    <g clip-path="url(#p7bc3266932)">
     <use style="fill:#2ca02c;stroke:#2ca02c;" x="67.379119" xlink:href="#m540bbc67cf" y="79.600037"/>
     <use style="fill:#2ca02c;stroke:#2ca02c;" x="67.425881" xlink:href="#m540bbc67cf" y="54.626008"/>
     <use style="fill:#2ca02c;stroke:#2ca02c;" x="67.831206" xlink:href="#m540bbc67cf" y="72.403684"/>
     <use style="fill:#2ca02c;stroke:#2ca02c;" x="67.896851" xlink:href="#m540bbc67cf" y="36.847668"/>
     <use style="fill:#2ca02c;stroke:#2ca02c;" x="92.019368" xlink:href="#m540bbc67cf" y="37.69481"/>
     <use style="fill:#2ca02c;stroke:#2ca02c;" x="92.820193" xlink:href="#m540bbc67cf" y="78.752868"/>
     <use style="fill:#2ca02c;stroke:#2ca02c;" x="93.707325" xlink:href="#m540bbc67cf" y="73.673823"/>
     <use style="fill:#2ca02c;stroke:#2ca02c;" x="94.177703" xlink:href="#m540bbc67cf" y="56.318721"/>
     <use style="fill:#2ca02c;stroke:#2ca02c;" x="150.683419" xlink:href="#m540bbc67cf" y="96.531627"/>
     <use style="fill:#2ca02c;stroke:#2ca02c;" x="150.717763" xlink:href="#m540bbc67cf" y="78.752868"/>
     <use style="fill:#2ca02c;stroke:#2ca02c;" x="150.727127" xlink:href="#m540bbc67cf" y="74.09699"/>
     <use style="fill:#2ca02c;stroke:#2ca02c;" x="175.683786" xlink:href="#m540bbc67cf" y="97.377692"/>
    </g>
   </g>
   <g id="PathCollection_4">
    <defs>
     <path d="M 3 0 
L -3 -3 
L -3 3 
z
" id="m41f254a9a5" style="stroke:#d62728;"/>
    </defs>
    <g clip-path="url(#p7bc3266932)">
     <use style="fill:#d62728;stroke:#d62728;" x="149.882543" xlink:href="#m41f254a9a5" y="56.318721"/>
     <use style="fill:#d62728;stroke:#d62728;" x="150.354747" xlink:href="#m41f254a9a5" y="37.69481"/>
     <use style="fill:#d62728;stroke:#d62728;" x="174.477103" xlink:href="#m41f254a9a5" y="38.54132"/>
     <use style="fill:#d62728;stroke:#d62728;" x="174.839505" xlink:href="#m41f254a9a5" y="80.023274"/>
     <use style="fill:#d62728;stroke:#d62728;" x="174.881628" xlink:href="#m41f254a9a5" y="56.318721"/>
     <use style="fill:#d62728;stroke:#d62728;" x="175.288254" xlink:href="#m41f254a9a5" y="73.673823"/>
     <use style="fill:#d62728;stroke:#d62728;" x="232.264921" xlink:href="#m41f254a9a5" y="96.954408"/>
     <use style="fill:#d62728;stroke:#d62728;" x="256.387465" xlink:href="#m41f254a9a5" y="97.801386"/>
     <use style="fill:#d62728;stroke:#d62728;" x="285.745254" xlink:href="#m41f254a9a5" y="113.463226"/>
     <use style="fill:#d62728;stroke:#d62728;" x="294.469034" xlink:href="#m41f254a9a5" y="138.859249"/>
     <use style="fill:#d62728;stroke:#d62728;" x="304.60107" xlink:href="#m41f254a9a5" y="115.154377"/>
     <use style="fill:#d62728;stroke:#d62728;" x="305.368997" xlink:href="#m41f254a9a5" y="174.415655"/>
     <use style="fill:#d62728;stroke:#d62728;" x="334.409694" xlink:href="#m41f254a9a5" y="125.314994"/>
     <use style="fill:#d62728;stroke:#d62728;" x="335.250448" xlink:href="#m41f254a9a5" y="144.784993"/>
     <use style="fill:#d62728;stroke:#d62728;" x="370.281874" xlink:href="#m41f254a9a5" y="175.685781"/>
     <use style="fill:#d62728;stroke:#d62728;" x="370.787385" xlink:href="#m41f254a9a5" y="139.705838"/>
    </g>
   </g>
   <g id="PathCollection_5">
    <defs>
     <path d="M 0 -3 
L -0.673542 -0.927051 
L -2.85317 -0.927051 
L -1.089814 0.354102 
L -1.763356 2.427051 
L -0 1.145898 
L 1.763356 2.427051 
L 1.089814 0.354102 
L 2.85317 -0.927051 
L 0.673542 -0.927051 
z
" id="m46fbd0293f" style="stroke:#9467bd;"/>
    </defs>
    <g clip-path="url(#p7bc3266932)">
     <use style="fill:#9467bd;stroke:#9467bd;" x="206.462342" xlink:href="#m46fbd0293f" y="55.896141"/>
     <use style="fill:#9467bd;stroke:#9467bd;" x="206.859298" xlink:href="#m46fbd0293f" y="79.176527"/>
     <use style="fill:#9467bd;stroke:#9467bd;" x="206.869159" xlink:href="#m46fbd0293f" y="73.250299"/>
     <use style="fill:#9467bd;stroke:#9467bd;" x="207.810764" xlink:href="#m46fbd0293f" y="38.54132"/>
     <use style="fill:#9467bd;stroke:#9467bd;" x="231.429557" xlink:href="#m46fbd0293f" y="74.520204"/>
     <use style="fill:#9467bd;stroke:#9467bd;" x="231.463361" xlink:href="#m46fbd0293f" y="55.896141"/>
     <use style="fill:#9467bd;stroke:#9467bd;" x="232.375886" xlink:href="#m46fbd0293f" y="36.847668"/>
     <use style="fill:#9467bd;stroke:#9467bd;" x="232.737032" xlink:href="#m46fbd0293f" y="79.176527"/>
     <use style="fill:#9467bd;stroke:#9467bd;" x="255.982042" xlink:href="#m46fbd0293f" y="79.600037"/>
     <use style="fill:#9467bd;stroke:#9467bd;" x="256.432834" xlink:href="#m46fbd0293f" y="73.250299"/>
     <use style="fill:#9467bd;stroke:#9467bd;" x="256.464923" xlink:href="#m46fbd0293f" y="55.896141"/>
     <use style="fill:#9467bd;stroke:#9467bd;" x="257.37477" xlink:href="#m46fbd0293f" y="38.118534"/>
     <use style="fill:#9467bd;stroke:#9467bd;" x="294.546322" xlink:href="#m46fbd0293f" y="98.224041"/>
     <use style="fill:#9467bd;stroke:#9467bd;" x="304.99835" xlink:href="#m46fbd0293f" y="137.589751"/>
     <use style="fill:#9467bd;stroke:#9467bd;" x="305.061427" xlink:href="#m46fbd0293f" y="104.573134"/>
     <use style="fill:#9467bd;stroke:#9467bd;" x="305.075437" xlink:href="#m46fbd0293f" y="96.531627"/>
     <use style="fill:#9467bd;stroke:#9467bd;" x="305.543158" xlink:href="#m46fbd0293f" y="80.023274"/>
     <use style="fill:#9467bd;stroke:#9467bd;" x="305.557072" xlink:href="#m46fbd0293f" y="72.827052"/>
     <use style="fill:#9467bd;stroke:#9467bd;" x="305.591846" xlink:href="#m46fbd0293f" y="54.626008"/>
     <use style="fill:#9467bd;stroke:#9467bd;" x="305.623127" xlink:href="#m46fbd0293f" y="38.118534"/>
     <use style="fill:#9467bd;stroke:#9467bd;" x="327.373313" xlink:href="#m46fbd0293f" y="135.473104"/>
     <use style="fill:#9467bd;stroke:#9467bd;" x="334.020395" xlink:href="#m46fbd0293f" y="98.224041"/>
     <use style="fill:#9467bd;stroke:#9467bd;" x="344.483858" xlink:href="#m46fbd0293f" y="132.933484"/>
     <use style="fill:#9467bd;stroke:#9467bd;" x="369.594692" xlink:href="#m46fbd0293f" y="72.827052"/>
     <use style="fill:#9467bd;stroke:#9467bd;" x="370.066105" xlink:href="#m46fbd0293f" y="55.472644"/>
     <use style="fill:#9467bd;stroke:#9467bd;" x="370.460948" xlink:href="#m46fbd0293f" y="79.176527"/>
     <use style="fill:#9467bd;stroke:#9467bd;" x="370.539929" xlink:href="#m46fbd0293f" y="36.002036"/>
     <use style="fill:#9467bd;stroke:#9467bd;" x="370.831531" xlink:href="#m46fbd0293f" y="116.002984"/>
     <use style="fill:#9467bd;stroke:#9467bd;" x="371.742756" xlink:href="#m46fbd0293f" y="97.377692"/>
    </g>
   </g>
   <g id="matplotlib.axis_1">
    <g id="xtick_1">
     <g id="line2d_1">
      <defs>
       <path d="M 0 0 
L 0 3.5 
" id="mcb4d489bb0" style="stroke:#000000;stroke-width:0.8;"/>
      </defs>
      <g>
       <use style="stroke:#000000;stroke-width:0.8;" x="52.545505" xlink:href="#mcb4d489bb0" y="243.5584"/>
      </g>
     </g>
     <g id="text_1">
      <!-- 0.75 -->
      <g transform="translate(41.412693 258.156837)scale(0.1 -0.1)">
       <defs>
        <path d="M 31.78125 66.40625 
Q 24.171875 66.40625 20.328125 58.90625 
Q 16.5 51.421875 16.5 36.375 
Q 16.5 21.390625 20.328125 13.890625 
Q 24.171875 6.390625 31.78125 6.390625 
Q 39.453125 6.390625 43.28125 13.890625 
Q 47.125 21.390625 47.125 36.375 
Q 47.125 51.421875 43.28125 58.90625 
Q 39.453125 66.40625 31.78125 66.40625 
z
M 31.78125 74.21875 
Q 44.046875 74.21875 50.515625 64.515625 
Q 56.984375 54.828125 56.984375 36.375 
Q 56.984375 17.96875 50.515625 8.265625 
Q 44.046875 -1.421875 31.78125 -1.421875 
Q 19.53125 -1.421875 13.0625 8.265625 
Q 6.59375 17.96875 6.59375 36.375 
Q 6.59375 54.828125 13.0625 64.515625 
Q 19.53125 74.21875 31.78125 74.21875 
z
" id="DejaVuSans-48"/>
        <path d="M 10.6875 12.40625 
L 21 12.40625 
L 21 0 
L 10.6875 0 
z
" id="DejaVuSans-46"/>
        <path d="M 8.203125 72.90625 
L 55.078125 72.90625 
L 55.078125 68.703125 
L 28.609375 0 
L 18.3125 0 
L 43.21875 64.59375 
L 8.203125 64.59375 
z
" id="DejaVuSans-55"/>
        <path d="M 10.796875 72.90625 
L 49.515625 72.90625 
L 49.515625 64.59375 
L 19.828125 64.59375 
L 19.828125 46.734375 
Q 21.96875 47.46875 24.109375 47.828125 
Q 26.265625 48.1875 28.421875 48.1875 
Q 40.625 48.1875 47.75 41.5 
Q 54.890625 34.8125 54.890625 23.390625 
Q 54.890625 11.625 47.5625 5.09375 
Q 40.234375 -1.421875 26.90625 -1.421875 
Q 22.3125 -1.421875 17.546875 -0.640625 
Q 12.796875 0.140625 7.71875 1.703125 
L 7.71875 11.625 
Q 12.109375 9.234375 16.796875 8.0625 
Q 21.484375 6.890625 26.703125 6.890625 
Q 35.15625 6.890625 40.078125 11.328125 
Q 45.015625 15.765625 45.015625 23.390625 
Q 45.015625 31 40.078125 35.4375 
Q 35.15625 39.890625 26.703125 39.890625 
Q 22.75 39.890625 18.8125 39.015625 
Q 14.890625 38.140625 10.796875 36.28125 
z
" id="DejaVuSans-53"/>
       </defs>
       <use xlink:href="#DejaVuSans-48"/>
       <use x="63.623047" xlink:href="#DejaVuSans-46"/>
       <use x="95.410156" xlink:href="#DejaVuSans-55"/>
       <use x="159.033203" xlink:href="#DejaVuSans-53"/>
      </g>
     </g>
    </g>
    <g id="xtick_2">
     <g id="line2d_2">
      <g>
       <use style="stroke:#000000;stroke-width:0.8;" x="93.164672" xlink:href="#mcb4d489bb0" y="243.5584"/>
      </g>
     </g>
     <g id="text_2">
      <!-- 1.00 -->
      <g transform="translate(82.03186 258.156837)scale(0.1 -0.1)">
       <defs>
        <path d="M 12.40625 8.296875 
L 28.515625 8.296875 
L 28.515625 63.921875 
L 10.984375 60.40625 
L 10.984375 69.390625 
L 28.421875 72.90625 
L 38.28125 72.90625 
L 38.28125 8.296875 
L 54.390625 8.296875 
L 54.390625 0 
L 12.40625 0 
z
" id="DejaVuSans-49"/>
       </defs>
       <use xlink:href="#DejaVuSans-49"/>
       <use x="63.623047" xlink:href="#DejaVuSans-46"/>
       <use x="95.410156" xlink:href="#DejaVuSans-48"/>
       <use x="159.033203" xlink:href="#DejaVuSans-48"/>
      </g>
     </g>
    </g>
    <g id="xtick_3">
     <g id="line2d_3">
      <g>
       <use style="stroke:#000000;stroke-width:0.8;" x="133.78384" xlink:href="#mcb4d489bb0" y="243.5584"/>
      </g>
     </g>
     <g id="text_3">
      <!-- 1.25 -->
      <g transform="translate(122.651027 258.156837)scale(0.1 -0.1)">
       <defs>
        <path d="M 19.1875 8.296875 
L 53.609375 8.296875 
L 53.609375 0 
L 7.328125 0 
L 7.328125 8.296875 
Q 12.9375 14.109375 22.625 23.890625 
Q 32.328125 33.6875 34.8125 36.53125 
Q 39.546875 41.84375 41.421875 45.53125 
Q 43.3125 49.21875 43.3125 52.78125 
Q 43.3125 58.59375 39.234375 62.25 
Q 35.15625 65.921875 28.609375 65.921875 
Q 23.96875 65.921875 18.8125 64.3125 
Q 13.671875 62.703125 7.8125 59.421875 
L 7.8125 69.390625 
Q 13.765625 71.78125 18.9375 73 
Q 24.125 74.21875 28.421875 74.21875 
Q 39.75 74.21875 46.484375 68.546875 
Q 53.21875 62.890625 53.21875 53.421875 
Q 53.21875 48.921875 51.53125 44.890625 
Q 49.859375 40.875 45.40625 35.40625 
Q 44.1875 33.984375 37.640625 27.21875 
Q 31.109375 20.453125 19.1875 8.296875 
z
" id="DejaVuSans-50"/>
       </defs>
       <use xlink:href="#DejaVuSans-49"/>
       <use x="63.623047" xlink:href="#DejaVuSans-46"/>
       <use x="95.410156" xlink:href="#DejaVuSans-50"/>
       <use x="159.033203" xlink:href="#DejaVuSans-53"/>
      </g>
     </g>
    </g>
    <g id="xtick_4">
     <g id="line2d_4">
      <g>
       <use style="stroke:#000000;stroke-width:0.8;" x="174.403007" xlink:href="#mcb4d489bb0" y="243.5584"/>
      </g>
     </g>
     <g id="text_4">
      <!-- 1.50 -->
      <g transform="translate(163.270195 258.156837)scale(0.1 -0.1)">
       <use xlink:href="#DejaVuSans-49"/>
       <use x="63.623047" xlink:href="#DejaVuSans-46"/>
       <use x="95.410156" xlink:href="#DejaVuSans-53"/>
       <use x="159.033203" xlink:href="#DejaVuSans-48"/>
      </g>
     </g>
    </g>
    <g id="xtick_5">
     <g id="line2d_5">
      <g>
       <use style="stroke:#000000;stroke-width:0.8;" x="215.022175" xlink:href="#mcb4d489bb0" y="243.5584"/>
      </g>
     </g>
     <g id="text_5">
      <!-- 1.75 -->
      <g transform="translate(203.889362 258.156837)scale(0.1 -0.1)">
       <use xlink:href="#DejaVuSans-49"/>
       <use x="63.623047" xlink:href="#DejaVuSans-46"/>
       <use x="95.410156" xlink:href="#DejaVuSans-55"/>
       <use x="159.033203" xlink:href="#DejaVuSans-53"/>
      </g>
     </g>
    </g>
    <g id="xtick_6">
     <g id="line2d_6">
      <g>
       <use style="stroke:#000000;stroke-width:0.8;" x="255.641342" xlink:href="#mcb4d489bb0" y="243.5584"/>
      </g>
     </g>
     <g id="text_6">
      <!-- 2.00 -->
      <g transform="translate(244.50853 258.156837)scale(0.1 -0.1)">
       <use xlink:href="#DejaVuSans-50"/>
       <use x="63.623047" xlink:href="#DejaVuSans-46"/>
       <use x="95.410156" xlink:href="#DejaVuSans-48"/>
       <use x="159.033203" xlink:href="#DejaVuSans-48"/>
      </g>
     </g>
    </g>
    <g id="xtick_7">
     <g id="line2d_7">
      <g>
       <use style="stroke:#000000;stroke-width:0.8;" x="296.26051" xlink:href="#mcb4d489bb0" y="243.5584"/>
      </g>
     </g>
     <g id="text_7">
      <!-- 2.25 -->
      <g transform="translate(285.127697 258.156837)scale(0.1 -0.1)">
       <use xlink:href="#DejaVuSans-50"/>
       <use x="63.623047" xlink:href="#DejaVuSans-46"/>
       <use x="95.410156" xlink:href="#DejaVuSans-50"/>
       <use x="159.033203" xlink:href="#DejaVuSans-53"/>
      </g>
     </g>
    </g>
    <g id="xtick_8">
     <g id="line2d_8">
      <g>
       <use style="stroke:#000000;stroke-width:0.8;" x="336.879677" xlink:href="#mcb4d489bb0" y="243.5584"/>
      </g>
     </g>
     <g id="text_8">
      <!-- 2.50 -->
      <g transform="translate(325.746864 258.156837)scale(0.1 -0.1)">
       <use xlink:href="#DejaVuSans-50"/>
       <use x="63.623047" xlink:href="#DejaVuSans-46"/>
       <use x="95.410156" xlink:href="#DejaVuSans-53"/>
       <use x="159.033203" xlink:href="#DejaVuSans-48"/>
      </g>
     </g>
    </g>
    <g id="xtick_9">
     <g id="line2d_9">
      <g>
       <use style="stroke:#000000;stroke-width:0.8;" x="377.498844" xlink:href="#mcb4d489bb0" y="243.5584"/>
      </g>
     </g>
     <g id="text_9">
      <!-- 2.75 -->
      <g transform="translate(366.366032 258.156837)scale(0.1 -0.1)">
       <use xlink:href="#DejaVuSans-50"/>
       <use x="63.623047" xlink:href="#DejaVuSans-46"/>
       <use x="95.410156" xlink:href="#DejaVuSans-55"/>
       <use x="159.033203" xlink:href="#DejaVuSans-53"/>
      </g>
     </g>
    </g>
    <g id="text_10">
     <!-- $Ga^\prime$ -->
     <g transform="translate(211.260938 271.834962)scale(0.1 -0.1)">
      <defs>
       <path d="M 54.59375 10.890625 
L 58.40625 29.984375 
L 42.1875 29.984375 
L 43.703125 38.09375 
L 69.578125 38.09375 
L 63.28125 6 
Q 56.78125 2.4375 49.109375 0.5 
Q 41.453125 -1.421875 33.6875 -1.421875 
Q 19.96875 -1.421875 12.234375 6.1875 
Q 4.5 13.8125 4.5 27.390625 
Q 4.5 38.671875 9.203125 48.84375 
Q 13.921875 59.03125 22.21875 65.828125 
Q 27.4375 70.0625 33.640625 72.140625 
Q 39.84375 74.21875 47.40625 74.21875 
Q 54.25 74.21875 60.515625 72.484375 
Q 66.796875 70.75 72.515625 67.28125 
L 70.515625 56.78125 
Q 66.109375 61.375 60.203125 63.796875 
Q 54.296875 66.21875 47.609375 66.21875 
Q 39.84375 66.21875 33.9375 63.25 
Q 28.03125 60.296875 23.390625 54.109375 
Q 19.4375 48.828125 17.15625 41.671875 
Q 14.890625 34.515625 14.890625 27.09375 
Q 14.890625 16.890625 20.109375 11.734375 
Q 25.34375 6.59375 35.6875 6.59375 
Q 40.875 6.59375 45.703125 7.6875 
Q 50.53125 8.796875 54.59375 10.890625 
z
" id="DejaVuSans-Oblique-71"/>
       <path d="M 53.71875 31.203125 
L 47.609375 0 
L 38.625 0 
L 40.28125 8.296875 
Q 36.328125 3.421875 31.265625 1 
Q 26.21875 -1.421875 20.015625 -1.421875 
Q 13.03125 -1.421875 8.5625 2.84375 
Q 4.109375 7.125 4.109375 13.8125 
Q 4.109375 23.390625 11.75 28.953125 
Q 19.390625 34.515625 32.8125 34.515625 
L 45.3125 34.515625 
L 45.796875 36.921875 
Q 45.90625 37.3125 45.953125 37.765625 
Q 46 38.234375 46 39.203125 
Q 46 43.5625 42.453125 45.96875 
Q 38.921875 48.390625 32.515625 48.390625 
Q 28.125 48.390625 23.5 47.265625 
Q 18.890625 46.140625 14.015625 43.890625 
L 15.578125 52.203125 
Q 20.65625 54.109375 25.515625 55.046875 
Q 30.375 56 34.90625 56 
Q 44.578125 56 49.625 51.796875 
Q 54.6875 47.609375 54.6875 39.59375 
Q 54.6875 37.984375 54.4375 35.8125 
Q 54.203125 33.640625 53.71875 31.203125 
z
M 44 27.484375 
L 35.015625 27.484375 
Q 23.96875 27.484375 18.671875 24.53125 
Q 13.375 21.578125 13.375 15.375 
Q 13.375 11.078125 16.078125 8.640625 
Q 18.796875 6.203125 23.578125 6.203125 
Q 30.90625 6.203125 36.375 11.453125 
Q 41.84375 16.703125 43.609375 25.484375 
z
" id="DejaVuSans-Oblique-97"/>
       <path d="M 3.515625 5.421875 
Q 2.875 5.609375 2.875 6.390625 
L 15.09375 51.8125 
Q 15.671875 53.65625 17.078125 54.78125 
Q 18.5 55.90625 20.3125 55.90625 
Q 22.65625 55.90625 24.4375 54.359375 
Q 26.21875 52.828125 26.21875 50.484375 
Q 26.21875 49.46875 25.6875 48.1875 
L 7.625 4.984375 
Q 7.28125 4.296875 6.6875 4.296875 
Q 6.15625 4.296875 5 4.78125 
Q 3.859375 5.28125 3.515625 5.421875 
z
" id="Cmsy10-48"/>
      </defs>
      <use transform="translate(0 0.584375)" xlink:href="#DejaVuSans-Oblique-71"/>
      <use transform="translate(77.490234 0.584375)" xlink:href="#DejaVuSans-Oblique-97"/>
      <use transform="translate(143.419427 38.865625)scale(0.7)" xlink:href="#Cmsy10-48"/>
     </g>
    </g>
   </g>
   <g id="matplotlib.axis_2">
    <g id="ytick_1">
     <g id="line2d_10">
      <defs>
       <path d="M 0 0 
L -3.5 0 
" id="m7d07998d14" style="stroke:#000000;stroke-width:0.8;"/>
      </defs>
      <g>
       <use style="stroke:#000000;stroke-width:0.8;" x="52.160938" xlink:href="#m7d07998d14" y="233.581781"/>
      </g>
     </g>
     <g id="text_11">
      <!-- −1.0 -->
      <g transform="translate(20.878125 237.380999)scale(0.1 -0.1)">
       <defs>
        <path d="M 10.59375 35.5 
L 73.1875 35.5 
L 73.1875 27.203125 
L 10.59375 27.203125 
z
" id="DejaVuSans-8722"/>
       </defs>
       <use xlink:href="#DejaVuSans-8722"/>
       <use x="83.789062" xlink:href="#DejaVuSans-49"/>
       <use x="147.412109" xlink:href="#DejaVuSans-46"/>
       <use x="179.199219" xlink:href="#DejaVuSans-48"/>
      </g>
     </g>
    </g>
    <g id="ytick_2">
     <g id="line2d_11">
      <g>
       <use style="stroke:#000000;stroke-width:0.8;" x="52.160938" xlink:href="#m7d07998d14" y="203.899073"/>
      </g>
     </g>
     <g id="text_12">
      <!-- −0.5 -->
      <g transform="translate(20.878125 207.698291)scale(0.1 -0.1)">
       <use xlink:href="#DejaVuSans-8722"/>
       <use x="83.789062" xlink:href="#DejaVuSans-48"/>
       <use x="147.412109" xlink:href="#DejaVuSans-46"/>
       <use x="179.199219" xlink:href="#DejaVuSans-53"/>
      </g>
     </g>
    </g>
    <g id="ytick_3">
     <g id="line2d_12">
      <g>
       <use style="stroke:#000000;stroke-width:0.8;" x="52.160938" xlink:href="#m7d07998d14" y="174.216364"/>
      </g>
     </g>
     <g id="text_13">
      <!-- 0.0 -->
      <g transform="translate(29.257812 178.015583)scale(0.1 -0.1)">
       <use xlink:href="#DejaVuSans-48"/>
       <use x="63.623047" xlink:href="#DejaVuSans-46"/>
       <use x="95.410156" xlink:href="#DejaVuSans-48"/>
      </g>
     </g>
    </g>
    <g id="ytick_4">
     <g id="line2d_13">
      <g>
       <use style="stroke:#000000;stroke-width:0.8;" x="52.160938" xlink:href="#m7d07998d14" y="144.533656"/>
      </g>
     </g>
     <g id="text_14">
      <!-- 0.5 -->
      <g transform="translate(29.257812 148.332875)scale(0.1 -0.1)">
       <use xlink:href="#DejaVuSans-48"/>
       <use x="63.623047" xlink:href="#DejaVuSans-46"/>
       <use x="95.410156" xlink:href="#DejaVuSans-53"/>
      </g>
     </g>
    </g>
    <g id="ytick_5">
     <g id="line2d_14">
      <g>
       <use style="stroke:#000000;stroke-width:0.8;" x="52.160938" xlink:href="#m7d07998d14" y="114.850948"/>
      </g>
     </g>
     <g id="text_15">
      <!-- 1.0 -->
      <g transform="translate(29.257812 118.650167)scale(0.1 -0.1)">
       <use xlink:href="#DejaVuSans-49"/>
       <use x="63.623047" xlink:href="#DejaVuSans-46"/>
       <use x="95.410156" xlink:href="#DejaVuSans-48"/>
      </g>
     </g>
    </g>
    <g id="ytick_6">
     <g id="line2d_15">
      <g>
       <use style="stroke:#000000;stroke-width:0.8;" x="52.160938" xlink:href="#m7d07998d14" y="85.16824"/>
      </g>
     </g>
     <g id="text_16">
      <!-- 1.5 -->
      <g transform="translate(29.257812 88.967459)scale(0.1 -0.1)">
       <use xlink:href="#DejaVuSans-49"/>
       <use x="63.623047" xlink:href="#DejaVuSans-46"/>
       <use x="95.410156" xlink:href="#DejaVuSans-53"/>
      </g>
     </g>
    </g>
    <g id="ytick_7">
     <g id="line2d_16">
      <g>
       <use style="stroke:#000000;stroke-width:0.8;" x="52.160938" xlink:href="#m7d07998d14" y="55.485532"/>
      </g>
     </g>
     <g id="text_17">
      <!-- 2.0 -->
      <g transform="translate(29.257812 59.284751)scale(0.1 -0.1)">
       <use xlink:href="#DejaVuSans-50"/>
       <use x="63.623047" xlink:href="#DejaVuSans-46"/>
       <use x="95.410156" xlink:href="#DejaVuSans-48"/>
      </g>
     </g>
    </g>
    <g id="text_18">
     <!-- $Eo^\prime$ -->
     <g transform="translate(14.798438 142.3884)rotate(-90)scale(0.1 -0.1)">
      <defs>
       <path d="M 16.890625 72.90625 
L 62.984375 72.90625 
L 61.375 64.59375 
L 25.09375 64.59375 
L 20.90625 43.015625 
L 55.71875 43.015625 
L 54.109375 34.71875 
L 19.28125 34.71875 
L 14.203125 8.296875 
L 51.3125 8.296875 
L 49.703125 0 
L 2.6875 0 
z
" id="DejaVuSans-Oblique-69"/>
       <path d="M 25.390625 -1.421875 
Q 15.765625 -1.421875 10.171875 4.515625 
Q 4.59375 10.453125 4.59375 20.703125 
Q 4.59375 26.65625 6.515625 32.828125 
Q 8.453125 39.015625 11.53125 43.21875 
Q 16.359375 49.75 22.3125 52.875 
Q 28.265625 56 35.796875 56 
Q 45.125 56 50.859375 50.1875 
Q 56.59375 44.390625 56.59375 35.015625 
Q 56.59375 28.515625 54.6875 22.0625 
Q 52.78125 15.625 49.703125 11.375 
Q 44.921875 4.828125 38.96875 1.703125 
Q 33.015625 -1.421875 25.390625 -1.421875 
z
M 13.921875 21 
Q 13.921875 13.578125 17.015625 9.890625 
Q 20.125 6.203125 26.421875 6.203125 
Q 35.453125 6.203125 41.375 14.078125 
Q 47.3125 21.96875 47.3125 34.078125 
Q 47.3125 41.15625 44.140625 44.765625 
Q 40.96875 48.390625 34.8125 48.390625 
Q 29.734375 48.390625 25.78125 46.015625 
Q 21.828125 43.65625 18.703125 38.8125 
Q 16.40625 35.203125 15.15625 30.5625 
Q 13.921875 25.921875 13.921875 21 
z
" id="DejaVuSans-Oblique-111"/>
      </defs>
      <use transform="translate(0 0.584375)" xlink:href="#DejaVuSans-Oblique-69"/>
      <use transform="translate(63.183594 0.584375)" xlink:href="#DejaVuSans-Oblique-111"/>
      <use transform="translate(129.01513 38.865625)scale(0.7)" xlink:href="#Cmsy10-48"/>
     </g>
    </g>
   </g>
   <g id="patch_3">
    <path d="M 52.160938 243.5584 
L 52.160938 26.1184 
" style="fill:none;stroke:#000000;stroke-linecap:square;stroke-linejoin:miter;stroke-width:0.8;"/>
   </g>
   <g id="patch_4">
    <path d="M 386.960938 243.5584 
L 386.960938 26.1184 
" style="fill:none;stroke:#000000;stroke-linecap:square;stroke-linejoin:miter;stroke-width:0.8;"/>
   </g>
   <g id="patch_5">
    <path d="M 52.160937 243.5584 
L 386.960938 243.5584 
" style="fill:none;stroke:#000000;stroke-linecap:square;stroke-linejoin:miter;stroke-width:0.8;"/>
   </g>
   <g id="patch_6">
    <path d="M 52.160937 26.1184 
L 386.960938 26.1184 
" style="fill:none;stroke:#000000;stroke-linecap:square;stroke-linejoin:miter;stroke-width:0.8;"/>
   </g>
   <g id="legend_1">
    <g id="patch_7">
     <path d="M 90.395313 24.878125 
L 348.726562 24.878125 
Q 350.726562 24.878125 350.726562 22.878125 
L 350.726562 9.2 
Q 350.726562 7.2 348.726562 7.2 
L 90.395313 7.2 
Q 88.395313 7.2 88.395313 9.2 
L 88.395313 22.878125 
Q 88.395313 24.878125 90.395313 24.878125 
z
" style="fill:#ffffff;opacity:0.8;stroke:#cccccc;stroke-linejoin:miter;"/>
    </g>
    <g id="PathCollection_6">
     <g>
      <use style="fill:#1f77b4;stroke:#1f77b4;" x="102.395313" xlink:href="#m43f118e662" y="16.173437"/>
     </g>
    </g>
    <g id="text_19">
     <!-- I -->
     <g transform="translate(120.395313 18.798437)scale(0.1 -0.1)">
      <defs>
       <path d="M 9.8125 72.90625 
L 19.671875 72.90625 
L 19.671875 0 
L 9.8125 0 
z
" id="DejaVuSans-73"/>
      </defs>
      <use xlink:href="#DejaVuSans-73"/>
     </g>
    </g>
    <g id="PathCollection_7">
     <g>
      <use style="fill:#ff7f0e;stroke:#ff7f0e;stroke-width:1.5;" x="153.345313" xlink:href="#mee937991b2" y="16.173437"/>
     </g>
    </g>
    <g id="text_20">
     <!-- II -->
     <g transform="translate(171.345313 18.798437)scale(0.1 -0.1)">
      <use xlink:href="#DejaVuSans-73"/>
      <use x="29.492188" xlink:href="#DejaVuSans-73"/>
     </g>
    </g>
    <g id="PathCollection_8">
     <g>
      <use style="fill:#2ca02c;stroke:#2ca02c;" x="207.245313" xlink:href="#m540bbc67cf" y="16.173437"/>
     </g>
    </g>
    <g id="text_21">
     <!-- III -->
     <g transform="translate(225.245313 18.798437)scale(0.1 -0.1)">
      <use xlink:href="#DejaVuSans-73"/>
      <use x="29.492188" xlink:href="#DejaVuSans-73"/>
      <use x="58.984375" xlink:href="#DejaVuSans-73"/>
     </g>
    </g>
    <g id="PathCollection_9">
     <g>
      <use style="fill:#d62728;stroke:#d62728;" x="264.095312" xlink:href="#m41f254a9a5" y="16.173437"/>
     </g>
    </g>
    <g id="text_22">
     <!-- IV -->
     <g transform="translate(282.095312 18.798437)scale(0.1 -0.1)">
      <defs>
       <path d="M 28.609375 0 
L 0.78125 72.90625 
L 11.078125 72.90625 
L 34.1875 11.53125 
L 57.328125 72.90625 
L 67.578125 72.90625 
L 39.796875 0 
z
" id="DejaVuSans-86"/>
      </defs>
      <use xlink:href="#DejaVuSans-73"/>
      <use x="29.492188" xlink:href="#DejaVuSans-86"/>
     </g>
    </g>
    <g id="PathCollection_10">
     <g>
      <use style="fill:#9467bd;stroke:#9467bd;" x="321.885938" xlink:href="#m46fbd0293f" y="16.173437"/>
     </g>
    </g>
    <g id="text_23">
     <!-- V -->
     <g transform="translate(339.885938 18.798437)scale(0.1 -0.1)">
      <use xlink:href="#DejaVuSans-86"/>
     </g>
    </g>
   </g>
  </g>
 </g>
 <defs>
  <clipPath id="p7bc3266932">
   <rect height="217.44" width="334.8" x="52.160938" y="26.1184"/>
  </clipPath>
 </defs>
</svg>
