<?xml version="1.0" encoding="utf-8" standalone="no"?>
<!DOCTYPE svg PUBLIC "-//W3C//DTD SVG 1.1//EN"
  "http://www.w3.org/Graphics/SVG/1.1/DTD/svg11.dtd">
<svg xmlns:xlink="http://www.w3.org/1999/xlink" width="423.365312pt" height="335.762445pt" viewBox="0 0 423.365312 335.762445" xmlns="http://www.w3.org/2000/svg" version="1.1">
 <metadata>
  <rdf:RDF xmlns:dc="http://purl.org/dc/elements/1.1/" xmlns:cc="http://creativecommons.org/ns#" xmlns:rdf="http://www.w3.org/1999/02/22-rdf-syntax-ns#">
   <cc:Work>
    <dc:type rdf:resource="http://purl.org/dc/dcmitype/StillImage"/>
    <dc:date>2022-11-30T14:11:00.176117</dc:date>
    <dc:format>image/svg+xml</dc:format>
    <dc:creator>
     <cc:Agent>
      <dc:title>Matplotlib v3.6.2, https://matplotlib.org/</dc:title>
     </cc:Agent>
    </dc:creator>
   </cc:Work>
  </rdf:RDF>
 </metadata>
 <defs>
  <style type="text/css">*{stroke-linejoin: round; stroke-linecap: butt}</style>
 </defs>
 <g id="figure_1">
  <g id="patch_1">
   <path d="M 0 335.762445 
L 423.365312 335.762445 
L 423.365312 0 
L 0 0 
z
" style="fill: #ffffff"/>
  </g>
  <g id="axes_1">
   <g id="patch_2">
    <path d="M 59.045313 297.58432 
L 416.165313 297.58432 
L 416.165313 31.47232 
L 59.045313 31.47232 
z
" style="fill: #ffffff"/>
   </g>
   <g id="PathCollection_1">
    <defs>
     <path id="mcedc187c8d" d="M 0 3 
C 0.795609 3 1.55874 2.683901 2.12132 2.12132 
C 2.683901 1.55874 3 0.795609 3 0 
C 3 -0.795609 2.683901 -1.55874 2.12132 -2.12132 
C 1.55874 -2.683901 0.795609 -3 0 -3 
C -0.795609 -3 -1.55874 -2.683901 -2.12132 -2.12132 
C -2.683901 -1.55874 -3 -0.795609 -3 0 
C -3 0.795609 -2.683901 1.55874 -2.12132 2.12132 
C -1.55874 2.683901 -0.795609 3 0 3 
z
" style="stroke: #1f77b4"/>
    </defs>
    <g clip-path="url(#p9925098507)">
     <use xlink:href="#mcedc187c8d" x="75.677231" y="139.922044" style="fill: #1f77b4; stroke: #1f77b4"/>
     <use xlink:href="#mcedc187c8d" x="75.913153" y="283.934363" style="fill: #1f77b4; stroke: #1f77b4"/>
     <use xlink:href="#mcedc187c8d" x="76.028152" y="212.447365" style="fill: #1f77b4; stroke: #1f77b4"/>
     <use xlink:href="#mcedc187c8d" x="76.097925" y="168.931429" style="fill: #1f77b4; stroke: #1f77b4"/>
     <use xlink:href="#mcedc187c8d" x="76.180497" y="118.164335" style="fill: #1f77b4; stroke: #1f77b4"/>
     <use xlink:href="#mcedc187c8d" x="76.927018" y="235.239437" style="fill: #1f77b4; stroke: #1f77b4"/>
     <use xlink:href="#mcedc187c8d" x="102.111274" y="284.970091" style="fill: #1f77b4; stroke: #1f77b4"/>
     <use xlink:href="#mcedc187c8d" x="102.766069" y="168.931429" style="fill: #1f77b4; stroke: #1f77b4"/>
     <use xlink:href="#mcedc187c8d" x="102.812731" y="139.922044" style="fill: #1f77b4; stroke: #1f77b4"/>
     <use xlink:href="#mcedc187c8d" x="102.848084" y="117.646918" style="fill: #1f77b4; stroke: #1f77b4"/>
     <use xlink:href="#mcedc187c8d" x="103.594877" y="235.239437" style="fill: #1f77b4; stroke: #1f77b4"/>
     <use xlink:href="#mcedc187c8d" x="163.39952" y="284.970091" style="fill: #1f77b4; stroke: #1f77b4"/>
     <use xlink:href="#mcedc187c8d" x="163.517164" y="212.964589" style="fill: #1f77b4; stroke: #1f77b4"/>
     <use xlink:href="#mcedc187c8d" x="164.052636" y="169.4492" style="fill: #1f77b4; stroke: #1f77b4"/>
     <use xlink:href="#mcedc187c8d" x="164.099309" y="140.438205" style="fill: #1f77b4; stroke: #1f77b4"/>
     <use xlink:href="#mcedc187c8d" x="164.415256" y="235.239437" style="fill: #1f77b4; stroke: #1f77b4"/>
     <use xlink:href="#mcedc187c8d" x="190.067852" y="284.970091" style="fill: #1f77b4; stroke: #1f77b4"/>
     <use xlink:href="#mcedc187c8d" x="190.615798" y="234.721307" style="fill: #1f77b4; stroke: #1f77b4"/>
     <use xlink:href="#mcedc187c8d" x="196.182963" y="263.731545" style="fill: #1f77b4; stroke: #1f77b4"/>
    </g>
   </g>
   <g id="PathCollection_2">
    <defs>
     <path id="m35b5eb63d5" d="M -3 3 
L 3 -3 
M -3 -3 
L 3 3 
" style="stroke: #ff7f0e; stroke-width: 1.5"/>
    </defs>
    <g clip-path="url(#p9925098507)">
     <use xlink:href="#m35b5eb63d5" x="190.650937" y="212.447365" style="fill: #ff7f0e; stroke: #ff7f0e; stroke-width: 1.5"/>
     <use xlink:href="#m35b5eb63d5" x="190.770288" y="139.404921" style="fill: #ff7f0e; stroke: #ff7f0e; stroke-width: 1.5"/>
     <use xlink:href="#m35b5eb63d5" x="191.190019" y="168.931429" style="fill: #ff7f0e; stroke: #ff7f0e; stroke-width: 1.5"/>
     <use xlink:href="#m35b5eb63d5" x="206.990995" y="234.203443" style="fill: #ff7f0e; stroke: #ff7f0e; stroke-width: 1.5"/>
     <use xlink:href="#m35b5eb63d5" x="207.412059" y="263.731545" style="fill: #ff7f0e; stroke: #ff7f0e; stroke-width: 1.5"/>
     <use xlink:href="#m35b5eb63d5" x="223.984738" y="140.438205" style="fill: #ff7f0e; stroke: #ff7f0e; stroke-width: 1.5"/>
     <use xlink:href="#m35b5eb63d5" x="224.337361" y="212.447365" style="fill: #ff7f0e; stroke: #ff7f0e; stroke-width: 1.5"/>
     <use xlink:href="#m35b5eb63d5" x="224.68983" y="284.451042" style="fill: #ff7f0e; stroke: #ff7f0e; stroke-width: 1.5"/>
     <use xlink:href="#m35b5eb63d5" x="224.874366" y="168.931429" style="fill: #ff7f0e; stroke: #ff7f0e; stroke-width: 1.5"/>
     <use xlink:href="#m35b5eb63d5" x="225.237649" y="234.721307" style="fill: #ff7f0e; stroke: #ff7f0e; stroke-width: 1.5"/>
     <use xlink:href="#m35b5eb63d5" x="237.788191" y="284.970091" style="fill: #ff7f0e; stroke: #ff7f0e; stroke-width: 1.5"/>
     <use xlink:href="#m35b5eb63d5" x="238.758491" y="263.213015" style="fill: #ff7f0e; stroke: #ff7f0e; stroke-width: 1.5"/>
     <use xlink:href="#m35b5eb63d5" x="250.139898" y="168.413493" style="fill: #ff7f0e; stroke: #ff7f0e; stroke-width: 1.5"/>
     <use xlink:href="#m35b5eb63d5" x="250.186635" y="139.404921" style="fill: #ff7f0e; stroke: #ff7f0e; stroke-width: 1.5"/>
     <use xlink:href="#m35b5eb63d5" x="250.420945" y="284.451042" style="fill: #ff7f0e; stroke: #ff7f0e; stroke-width: 1.5"/>
     <use xlink:href="#m35b5eb63d5" x="250.501354" y="234.721307" style="fill: #ff7f0e; stroke: #ff7f0e; stroke-width: 1.5"/>
     <use xlink:href="#m35b5eb63d5" x="251.005124" y="211.929249" style="fill: #ff7f0e; stroke: #ff7f0e; stroke-width: 1.5"/>
     <use xlink:href="#m35b5eb63d5" x="276.702763" y="233.685356" style="fill: #ff7f0e; stroke: #ff7f0e; stroke-width: 1.5"/>
     <use xlink:href="#m35b5eb63d5" x="276.736352" y="212.447365" style="fill: #ff7f0e; stroke: #ff7f0e; stroke-width: 1.5"/>
     <use xlink:href="#m35b5eb63d5" x="276.852676" y="140.438205" style="fill: #ff7f0e; stroke: #ff7f0e; stroke-width: 1.5"/>
     <use xlink:href="#m35b5eb63d5" x="277.0885" y="284.451042" style="fill: #ff7f0e; stroke: #ff7f0e; stroke-width: 1.5"/>
     <use xlink:href="#m35b5eb63d5" x="277.273961" y="169.4492" style="fill: #ff7f0e; stroke: #ff7f0e; stroke-width: 1.5"/>
     <use xlink:href="#m35b5eb63d5" x="307.182034" y="190.689194" style="fill: #ff7f0e; stroke: #ff7f0e; stroke-width: 1.5"/>
     <use xlink:href="#m35b5eb63d5" x="328.085033" y="284.451042" style="fill: #ff7f0e; stroke: #ff7f0e; stroke-width: 1.5"/>
     <use xlink:href="#m35b5eb63d5" x="329.100422" y="234.721307" style="fill: #ff7f0e; stroke: #ff7f0e; stroke-width: 1.5"/>
     <use xlink:href="#m35b5eb63d5" x="397.792373" y="285.48832" style="fill: #ff7f0e; stroke: #ff7f0e; stroke-width: 1.5"/>
     <use xlink:href="#m35b5eb63d5" x="399.279164" y="234.203443" style="fill: #ff7f0e; stroke: #ff7f0e; stroke-width: 1.5"/>
    </g>
   </g>
   <g id="PathCollection_3">
    <defs>
     <path id="mf9fb940cac" d="M -3 -0 
L 3 3 
L 3 -3 
z
" style="stroke: #2ca02c"/>
    </defs>
    <g clip-path="url(#p9925098507)">
     <use xlink:href="#mf9fb940cac" x="75.27804" y="96.925344" style="fill: #2ca02c; stroke: #2ca02c"/>
     <use xlink:href="#mf9fb940cac" x="75.327919" y="66.361101" style="fill: #2ca02c; stroke: #2ca02c"/>
     <use xlink:href="#mf9fb940cac" x="75.760265" y="88.118151" style="fill: #2ca02c; stroke: #2ca02c"/>
     <use xlink:href="#mf9fb940cac" x="75.830287" y="44.603239" style="fill: #2ca02c; stroke: #2ca02c"/>
     <use xlink:href="#mf9fb940cac" x="101.560972" y="45.640005" style="fill: #2ca02c; stroke: #2ca02c"/>
     <use xlink:href="#mf9fb940cac" x="102.415185" y="95.888543" style="fill: #2ca02c; stroke: #2ca02c"/>
     <use xlink:href="#mf9fb940cac" x="103.361459" y="89.672599" style="fill: #2ca02c; stroke: #2ca02c"/>
     <use xlink:href="#mf9fb940cac" x="103.863195" y="68.432713" style="fill: #2ca02c; stroke: #2ca02c"/>
     <use xlink:href="#mf9fb940cac" x="164.13596" y="117.646918" style="fill: #2ca02c; stroke: #2ca02c"/>
     <use xlink:href="#mf9fb940cac" x="164.172593" y="95.888543" style="fill: #2ca02c; stroke: #2ca02c"/>
     <use xlink:href="#mf9fb940cac" x="164.182581" y="90.190488" style="fill: #2ca02c; stroke: #2ca02c"/>
     <use xlink:href="#mf9fb940cac" x="190.803017" y="118.682367" style="fill: #2ca02c; stroke: #2ca02c"/>
    </g>
   </g>
   <g id="PathCollection_4">
    <defs>
     <path id="m2d42aed21f" d="M 3 0 
L -3 -3 
L -3 3 
z
" style="stroke: #d62728"/>
    </defs>
    <g clip-path="url(#p9925098507)">
     <use xlink:href="#m2d42aed21f" x="163.281692" y="68.432713" style="fill: #d62728; stroke: #d62728"/>
     <use xlink:href="#m2d42aed21f" x="163.785376" y="45.640005" style="fill: #d62728; stroke: #d62728"/>
     <use xlink:href="#m2d42aed21f" x="189.515889" y="46.676" style="fill: #d62728; stroke: #d62728"/>
     <use xlink:href="#m2d42aed21f" x="189.902451" y="97.443318" style="fill: #d62728; stroke: #d62728"/>
     <use xlink:href="#m2d42aed21f" x="189.947382" y="68.432713" style="fill: #d62728; stroke: #d62728"/>
     <use xlink:href="#m2d42aed21f" x="190.381117" y="89.672599" style="fill: #d62728; stroke: #d62728"/>
     <use xlink:href="#m2d42aed21f" x="251.156228" y="118.164335" style="fill: #d62728; stroke: #d62728"/>
     <use xlink:href="#m2d42aed21f" x="276.886942" y="119.200902" style="fill: #d62728; stroke: #d62728"/>
     <use xlink:href="#m2d42aed21f" x="308.201917" y="138.368504" style="fill: #d62728; stroke: #d62728"/>
     <use xlink:href="#m2d42aed21f" x="317.507282" y="169.4492" style="fill: #d62728; stroke: #d62728"/>
     <use xlink:href="#m2d42aed21f" x="328.314787" y="140.438205" style="fill: #d62728; stroke: #d62728"/>
     <use xlink:href="#m2d42aed21f" x="329.13391" y="212.964589" style="fill: #d62728; stroke: #d62728"/>
     <use xlink:href="#m2d42aed21f" x="360.110653" y="152.873185" style="fill: #d62728; stroke: #d62728"/>
     <use xlink:href="#m2d42aed21f" x="361.007457" y="176.701369" style="fill: #d62728; stroke: #d62728"/>
     <use xlink:href="#m2d42aed21f" x="398.374312" y="214.519022" style="fill: #d62728; stroke: #d62728"/>
     <use xlink:href="#m2d42aed21f" x="398.913523" y="170.485291" style="fill: #d62728; stroke: #d62728"/>
    </g>
   </g>
   <g id="PathCollection_5">
    <defs>
     <path id="m44751b26c5" d="M 0 -3 
L -0.673542 -0.927051 
L -2.85317 -0.927051 
L -1.089814 0.354102 
L -1.763356 2.427051 
L -0 1.145898 
L 1.763356 2.427051 
L 1.089814 0.354102 
L 2.85317 -0.927051 
L 0.673542 -0.927051 
z
" style="stroke: #9467bd"/>
    </defs>
    <g clip-path="url(#p9925098507)">
     <use xlink:href="#m44751b26c5" x="223.633477" y="67.915542" style="fill: #9467bd; stroke: #9467bd"/>
     <use xlink:href="#m44751b26c5" x="224.056897" y="96.407034" style="fill: #9467bd; stroke: #9467bd"/>
     <use xlink:href="#m44751b26c5" x="224.067415" y="89.154273" style="fill: #9467bd; stroke: #9467bd"/>
     <use xlink:href="#m44751b26c5" x="225.071794" y="46.676" style="fill: #9467bd; stroke: #9467bd"/>
     <use xlink:href="#m44751b26c5" x="250.265173" y="90.708435" style="fill: #9467bd; stroke: #9467bd"/>
     <use xlink:href="#m44751b26c5" x="250.301231" y="67.915542" style="fill: #9467bd; stroke: #9467bd"/>
     <use xlink:href="#m44751b26c5" x="251.274591" y="44.603239" style="fill: #9467bd; stroke: #9467bd"/>
     <use xlink:href="#m44751b26c5" x="251.659813" y="96.407034" style="fill: #9467bd; stroke: #9467bd"/>
     <use xlink:href="#m44751b26c5" x="276.45449" y="96.925344" style="fill: #9467bd; stroke: #9467bd"/>
     <use xlink:href="#m44751b26c5" x="276.935335" y="89.154273" style="fill: #9467bd; stroke: #9467bd"/>
     <use xlink:href="#m44751b26c5" x="276.969564" y="67.915542" style="fill: #9467bd; stroke: #9467bd"/>
     <use xlink:href="#m44751b26c5" x="277.940067" y="46.158577" style="fill: #9467bd; stroke: #9467bd"/>
     <use xlink:href="#m44751b26c5" x="317.589723" y="119.718165" style="fill: #9467bd; stroke: #9467bd"/>
     <use xlink:href="#m44751b26c5" x="328.738552" y="167.895536" style="fill: #9467bd; stroke: #9467bd"/>
     <use xlink:href="#m44751b26c5" x="328.805835" y="127.488445" style="fill: #9467bd; stroke: #9467bd"/>
     <use xlink:href="#m44751b26c5" x="328.820779" y="117.646918" style="fill: #9467bd; stroke: #9467bd"/>
     <use xlink:href="#m44751b26c5" x="329.319681" y="97.443318" style="fill: #9467bd; stroke: #9467bd"/>
     <use xlink:href="#m44751b26c5" x="329.334522" y="88.636287" style="fill: #9467bd; stroke: #9467bd"/>
     <use xlink:href="#m44751b26c5" x="329.371614" y="66.361101" style="fill: #9467bd; stroke: #9467bd"/>
     <use xlink:href="#m44751b26c5" x="329.404982" y="46.158577" style="fill: #9467bd; stroke: #9467bd"/>
     <use xlink:href="#m44751b26c5" x="352.60518" y="165.305097" style="fill: #9467bd; stroke: #9467bd"/>
     <use xlink:href="#m44751b26c5" x="359.6954" y="119.718165" style="fill: #9467bd; stroke: #9467bd"/>
     <use xlink:href="#m44751b26c5" x="370.856428" y="162.197005" style="fill: #9467bd; stroke: #9467bd"/>
     <use xlink:href="#m44751b26c5" x="397.641318" y="88.636287" style="fill: #9467bd; stroke: #9467bd"/>
     <use xlink:href="#m44751b26c5" x="398.144158" y="67.397249" style="fill: #9467bd; stroke: #9467bd"/>
     <use xlink:href="#m44751b26c5" x="398.565324" y="96.407034" style="fill: #9467bd; stroke: #9467bd"/>
     <use xlink:href="#m44751b26c5" x="398.649571" y="43.56832" style="fill: #9467bd; stroke: #9467bd"/>
     <use xlink:href="#m44751b26c5" x="398.960613" y="141.476765" style="fill: #9467bd; stroke: #9467bd"/>
     <use xlink:href="#m44751b26c5" x="399.932585" y="118.682367" style="fill: #9467bd; stroke: #9467bd"/>
    </g>
   </g>
   <g id="matplotlib.axis_1">
    <g id="xtick_1">
     <g id="line2d_1">
      <defs>
       <path id="mfd64d4b582" d="M 0 0 
L 0 3.5 
" style="stroke: #000000; stroke-width: 0.8"/>
      </defs>
      <g>
       <use xlink:href="#mfd64d4b582" x="75.27804" y="297.58432" style="stroke: #000000; stroke-width: 0.8"/>
      </g>
     </g>
     <g id="text_1">
      <!-- −1.00 -->
      <g transform="translate(59.955384 312.182757) scale(0.1 -0.1)">
       <defs>
        <path id="DejaVuSans-2212" d="M 678 2272 
L 4684 2272 
L 4684 1741 
L 678 1741 
L 678 2272 
z
" transform="scale(0.015625)"/>
        <path id="DejaVuSans-31" d="M 794 531 
L 1825 531 
L 1825 4091 
L 703 3866 
L 703 4441 
L 1819 4666 
L 2450 4666 
L 2450 531 
L 3481 531 
L 3481 0 
L 794 0 
L 794 531 
z
" transform="scale(0.015625)"/>
        <path id="DejaVuSans-2e" d="M 684 794 
L 1344 794 
L 1344 0 
L 684 0 
L 684 794 
z
" transform="scale(0.015625)"/>
        <path id="DejaVuSans-30" d="M 2034 4250 
Q 1547 4250 1301 3770 
Q 1056 3291 1056 2328 
Q 1056 1369 1301 889 
Q 1547 409 2034 409 
Q 2525 409 2770 889 
Q 3016 1369 3016 2328 
Q 3016 3291 2770 3770 
Q 2525 4250 2034 4250 
z
M 2034 4750 
Q 2819 4750 3233 4129 
Q 3647 3509 3647 2328 
Q 3647 1150 3233 529 
Q 2819 -91 2034 -91 
Q 1250 -91 836 529 
Q 422 1150 422 2328 
Q 422 3509 836 4129 
Q 1250 4750 2034 4750 
z
" transform="scale(0.015625)"/>
       </defs>
       <use xlink:href="#DejaVuSans-2212"/>
       <use xlink:href="#DejaVuSans-31" x="83.789062"/>
       <use xlink:href="#DejaVuSans-2e" x="147.412109"/>
       <use xlink:href="#DejaVuSans-30" x="179.199219"/>
       <use xlink:href="#DejaVuSans-30" x="242.822266"/>
      </g>
     </g>
    </g>
    <g id="xtick_2">
     <g id="line2d_2">
      <g>
       <use xlink:href="#mfd64d4b582" x="115.859858" y="297.58432" style="stroke: #000000; stroke-width: 0.8"/>
      </g>
     </g>
     <g id="text_2">
      <!-- −0.75 -->
      <g transform="translate(100.537202 312.182757) scale(0.1 -0.1)">
       <defs>
        <path id="DejaVuSans-37" d="M 525 4666 
L 3525 4666 
L 3525 4397 
L 1831 0 
L 1172 0 
L 2766 4134 
L 525 4134 
L 525 4666 
z
" transform="scale(0.015625)"/>
        <path id="DejaVuSans-35" d="M 691 4666 
L 3169 4666 
L 3169 4134 
L 1269 4134 
L 1269 2991 
Q 1406 3038 1543 3061 
Q 1681 3084 1819 3084 
Q 2600 3084 3056 2656 
Q 3513 2228 3513 1497 
Q 3513 744 3044 326 
Q 2575 -91 1722 -91 
Q 1428 -91 1123 -41 
Q 819 9 494 109 
L 494 744 
Q 775 591 1075 516 
Q 1375 441 1709 441 
Q 2250 441 2565 725 
Q 2881 1009 2881 1497 
Q 2881 1984 2565 2268 
Q 2250 2553 1709 2553 
Q 1456 2553 1204 2497 
Q 953 2441 691 2322 
L 691 4666 
z
" transform="scale(0.015625)"/>
       </defs>
       <use xlink:href="#DejaVuSans-2212"/>
       <use xlink:href="#DejaVuSans-30" x="83.789062"/>
       <use xlink:href="#DejaVuSans-2e" x="147.412109"/>
       <use xlink:href="#DejaVuSans-37" x="179.199219"/>
       <use xlink:href="#DejaVuSans-35" x="242.822266"/>
      </g>
     </g>
    </g>
    <g id="xtick_3">
     <g id="line2d_3">
      <g>
       <use xlink:href="#mfd64d4b582" x="156.441676" y="297.58432" style="stroke: #000000; stroke-width: 0.8"/>
      </g>
     </g>
     <g id="text_3">
      <!-- −0.50 -->
      <g transform="translate(141.11902 312.182757) scale(0.1 -0.1)">
       <use xlink:href="#DejaVuSans-2212"/>
       <use xlink:href="#DejaVuSans-30" x="83.789062"/>
       <use xlink:href="#DejaVuSans-2e" x="147.412109"/>
       <use xlink:href="#DejaVuSans-35" x="179.199219"/>
       <use xlink:href="#DejaVuSans-30" x="242.822266"/>
      </g>
     </g>
    </g>
    <g id="xtick_4">
     <g id="line2d_4">
      <g>
       <use xlink:href="#mfd64d4b582" x="197.023494" y="297.58432" style="stroke: #000000; stroke-width: 0.8"/>
      </g>
     </g>
     <g id="text_4">
      <!-- −0.25 -->
      <g transform="translate(181.700838 312.182757) scale(0.1 -0.1)">
       <defs>
        <path id="DejaVuSans-32" d="M 1228 531 
L 3431 531 
L 3431 0 
L 469 0 
L 469 531 
Q 828 903 1448 1529 
Q 2069 2156 2228 2338 
Q 2531 2678 2651 2914 
Q 2772 3150 2772 3378 
Q 2772 3750 2511 3984 
Q 2250 4219 1831 4219 
Q 1534 4219 1204 4116 
Q 875 4013 500 3803 
L 500 4441 
Q 881 4594 1212 4672 
Q 1544 4750 1819 4750 
Q 2544 4750 2975 4387 
Q 3406 4025 3406 3419 
Q 3406 3131 3298 2873 
Q 3191 2616 2906 2266 
Q 2828 2175 2409 1742 
Q 1991 1309 1228 531 
z
" transform="scale(0.015625)"/>
       </defs>
       <use xlink:href="#DejaVuSans-2212"/>
       <use xlink:href="#DejaVuSans-30" x="83.789062"/>
       <use xlink:href="#DejaVuSans-2e" x="147.412109"/>
       <use xlink:href="#DejaVuSans-32" x="179.199219"/>
       <use xlink:href="#DejaVuSans-35" x="242.822266"/>
      </g>
     </g>
    </g>
    <g id="xtick_5">
     <g id="line2d_5">
      <g>
       <use xlink:href="#mfd64d4b582" x="237.605312" y="297.58432" style="stroke: #000000; stroke-width: 0.8"/>
      </g>
     </g>
     <g id="text_5">
      <!-- 0.00 -->
      <g transform="translate(226.4725 312.182757) scale(0.1 -0.1)">
       <use xlink:href="#DejaVuSans-30"/>
       <use xlink:href="#DejaVuSans-2e" x="63.623047"/>
       <use xlink:href="#DejaVuSans-30" x="95.410156"/>
       <use xlink:href="#DejaVuSans-30" x="159.033203"/>
      </g>
     </g>
    </g>
    <g id="xtick_6">
     <g id="line2d_6">
      <g>
       <use xlink:href="#mfd64d4b582" x="278.187131" y="297.58432" style="stroke: #000000; stroke-width: 0.8"/>
      </g>
     </g>
     <g id="text_6">
      <!-- 0.25 -->
      <g transform="translate(267.054318 312.182757) scale(0.1 -0.1)">
       <use xlink:href="#DejaVuSans-30"/>
       <use xlink:href="#DejaVuSans-2e" x="63.623047"/>
       <use xlink:href="#DejaVuSans-32" x="95.410156"/>
       <use xlink:href="#DejaVuSans-35" x="159.033203"/>
      </g>
     </g>
    </g>
    <g id="xtick_7">
     <g id="line2d_7">
      <g>
       <use xlink:href="#mfd64d4b582" x="318.768949" y="297.58432" style="stroke: #000000; stroke-width: 0.8"/>
      </g>
     </g>
     <g id="text_7">
      <!-- 0.50 -->
      <g transform="translate(307.636136 312.182757) scale(0.1 -0.1)">
       <use xlink:href="#DejaVuSans-30"/>
       <use xlink:href="#DejaVuSans-2e" x="63.623047"/>
       <use xlink:href="#DejaVuSans-35" x="95.410156"/>
       <use xlink:href="#DejaVuSans-30" x="159.033203"/>
      </g>
     </g>
    </g>
    <g id="xtick_8">
     <g id="line2d_8">
      <g>
       <use xlink:href="#mfd64d4b582" x="359.350767" y="297.58432" style="stroke: #000000; stroke-width: 0.8"/>
      </g>
     </g>
     <g id="text_8">
      <!-- 0.75 -->
      <g transform="translate(348.217955 312.182757) scale(0.1 -0.1)">
       <use xlink:href="#DejaVuSans-30"/>
       <use xlink:href="#DejaVuSans-2e" x="63.623047"/>
       <use xlink:href="#DejaVuSans-37" x="95.410156"/>
       <use xlink:href="#DejaVuSans-35" x="159.033203"/>
      </g>
     </g>
    </g>
    <g id="xtick_9">
     <g id="line2d_9">
      <g>
       <use xlink:href="#mfd64d4b582" x="399.932585" y="297.58432" style="stroke: #000000; stroke-width: 0.8"/>
      </g>
     </g>
     <g id="text_9">
      <!-- 1.00 -->
      <g transform="translate(388.799773 312.182757) scale(0.1 -0.1)">
       <use xlink:href="#DejaVuSans-31"/>
       <use xlink:href="#DejaVuSans-2e" x="63.623047"/>
       <use xlink:href="#DejaVuSans-30" x="95.410156"/>
       <use xlink:href="#DejaVuSans-30" x="159.033203"/>
      </g>
     </g>
    </g>
    <g id="text_10">
     <!-- $\tilde{Ga}$ -->
     <g transform="translate(230.655313 326.482757) scale(0.1 -0.1)">
      <defs>
       <path id="DejaVuSans-303" d="M -1621 4281 
L -1799 4453 
Q -1867 4516 -1919 4545 
Q -1971 4575 -2011 4575 
Q -2130 4575 -2186 4461 
Q -2242 4347 -2249 4091 
L -2639 4091 
Q -2633 4513 -2473 4742 
Q -2314 4972 -2030 4972 
Q -1911 4972 -1811 4928 
Q -1711 4884 -1596 4781 
L -1417 4609 
Q -1349 4547 -1297 4517 
Q -1246 4488 -1205 4488 
Q -1086 4488 -1030 4602 
Q -974 4716 -967 4972 
L -577 4972 
Q -583 4550 -742 4320 
Q -902 4091 -1186 4091 
Q -1305 4091 -1405 4134 
Q -1505 4178 -1621 4281 
z
" transform="scale(0.015625)"/>
       <path id="DejaVuSans-Oblique-47" d="M 3494 697 
L 3738 1919 
L 2700 1919 
L 2797 2438 
L 4453 2438 
L 4050 384 
Q 3634 156 3143 32 
Q 2653 -91 2156 -91 
Q 1278 -91 783 396 
Q 288 884 288 1753 
Q 288 2475 589 3126 
Q 891 3778 1422 4213 
Q 1756 4484 2153 4617 
Q 2550 4750 3034 4750 
Q 3472 4750 3873 4639 
Q 4275 4528 4641 4306 
L 4513 3634 
Q 4231 3928 3853 4083 
Q 3475 4238 3047 4238 
Q 2550 4238 2172 4048 
Q 1794 3859 1497 3463 
Q 1244 3125 1098 2667 
Q 953 2209 953 1734 
Q 953 1081 1287 751 
Q 1622 422 2284 422 
Q 2616 422 2925 492 
Q 3234 563 3494 697 
z
" transform="scale(0.015625)"/>
       <path id="DejaVuSans-Oblique-61" d="M 3438 1997 
L 3047 0 
L 2472 0 
L 2578 531 
Q 2325 219 2001 64 
Q 1678 -91 1281 -91 
Q 834 -91 548 182 
Q 263 456 263 884 
Q 263 1497 752 1853 
Q 1241 2209 2100 2209 
L 2900 2209 
L 2931 2363 
Q 2938 2388 2941 2417 
Q 2944 2447 2944 2509 
Q 2944 2788 2717 2942 
Q 2491 3097 2081 3097 
Q 1800 3097 1504 3025 
Q 1209 2953 897 2809 
L 997 3341 
Q 1322 3463 1633 3523 
Q 1944 3584 2234 3584 
Q 2853 3584 3176 3315 
Q 3500 3047 3500 2534 
Q 3500 2431 3484 2292 
Q 3469 2153 3438 1997 
z
M 2816 1759 
L 2241 1759 
Q 1534 1759 1195 1570 
Q 856 1381 856 984 
Q 856 709 1029 553 
Q 1203 397 1509 397 
Q 1978 397 2328 733 
Q 2678 1069 2791 1631 
L 2816 1759 
z
" transform="scale(0.015625)"/>
      </defs>
      <use xlink:href="#DejaVuSans-303" transform="translate(111.926758 23.3125)"/>
      <use xlink:href="#DejaVuSans-Oblique-47" transform="translate(0 0.515625)"/>
      <use xlink:href="#DejaVuSans-Oblique-61" transform="translate(77.490234 0.515625)"/>
     </g>
    </g>
   </g>
   <g id="matplotlib.axis_2">
    <g id="ytick_1">
     <g id="line2d_10">
      <defs>
       <path id="mc6af2d8b4f" d="M 0 0 
L -3.5 0 
" style="stroke: #000000; stroke-width: 0.8"/>
      </defs>
      <g>
       <use xlink:href="#mc6af2d8b4f" x="59.045313" y="285.48832" style="stroke: #000000; stroke-width: 0.8"/>
      </g>
     </g>
     <g id="text_11">
      <!-- −1.00 -->
      <g transform="translate(21.4 289.287539) scale(0.1 -0.1)">
       <use xlink:href="#DejaVuSans-2212"/>
       <use xlink:href="#DejaVuSans-31" x="83.789062"/>
       <use xlink:href="#DejaVuSans-2e" x="147.412109"/>
       <use xlink:href="#DejaVuSans-30" x="179.199219"/>
       <use xlink:href="#DejaVuSans-30" x="242.822266"/>
      </g>
     </g>
    </g>
    <g id="ytick_2">
     <g id="line2d_11">
      <g>
       <use xlink:href="#mc6af2d8b4f" x="59.045313" y="255.24832" style="stroke: #000000; stroke-width: 0.8"/>
      </g>
     </g>
     <g id="text_12">
      <!-- −0.75 -->
      <g transform="translate(21.4 259.047539) scale(0.1 -0.1)">
       <use xlink:href="#DejaVuSans-2212"/>
       <use xlink:href="#DejaVuSans-30" x="83.789062"/>
       <use xlink:href="#DejaVuSans-2e" x="147.412109"/>
       <use xlink:href="#DejaVuSans-37" x="179.199219"/>
       <use xlink:href="#DejaVuSans-35" x="242.822266"/>
      </g>
     </g>
    </g>
    <g id="ytick_3">
     <g id="line2d_12">
      <g>
       <use xlink:href="#mc6af2d8b4f" x="59.045313" y="225.00832" style="stroke: #000000; stroke-width: 0.8"/>
      </g>
     </g>
     <g id="text_13">
      <!-- −0.50 -->
      <g transform="translate(21.4 228.807539) scale(0.1 -0.1)">
       <use xlink:href="#DejaVuSans-2212"/>
       <use xlink:href="#DejaVuSans-30" x="83.789062"/>
       <use xlink:href="#DejaVuSans-2e" x="147.412109"/>
       <use xlink:href="#DejaVuSans-35" x="179.199219"/>
       <use xlink:href="#DejaVuSans-30" x="242.822266"/>
      </g>
     </g>
    </g>
    <g id="ytick_4">
     <g id="line2d_13">
      <g>
       <use xlink:href="#mc6af2d8b4f" x="59.045313" y="194.76832" style="stroke: #000000; stroke-width: 0.8"/>
      </g>
     </g>
     <g id="text_14">
      <!-- −0.25 -->
      <g transform="translate(21.4 198.567539) scale(0.1 -0.1)">
       <use xlink:href="#DejaVuSans-2212"/>
       <use xlink:href="#DejaVuSans-30" x="83.789062"/>
       <use xlink:href="#DejaVuSans-2e" x="147.412109"/>
       <use xlink:href="#DejaVuSans-32" x="179.199219"/>
       <use xlink:href="#DejaVuSans-35" x="242.822266"/>
      </g>
     </g>
    </g>
    <g id="ytick_5">
     <g id="line2d_14">
      <g>
       <use xlink:href="#mc6af2d8b4f" x="59.045313" y="164.52832" style="stroke: #000000; stroke-width: 0.8"/>
      </g>
     </g>
     <g id="text_15">
      <!-- 0.00 -->
      <g transform="translate(29.779688 168.327539) scale(0.1 -0.1)">
       <use xlink:href="#DejaVuSans-30"/>
       <use xlink:href="#DejaVuSans-2e" x="63.623047"/>
       <use xlink:href="#DejaVuSans-30" x="95.410156"/>
       <use xlink:href="#DejaVuSans-30" x="159.033203"/>
      </g>
     </g>
    </g>
    <g id="ytick_6">
     <g id="line2d_15">
      <g>
       <use xlink:href="#mc6af2d8b4f" x="59.045313" y="134.28832" style="stroke: #000000; stroke-width: 0.8"/>
      </g>
     </g>
     <g id="text_16">
      <!-- 0.25 -->
      <g transform="translate(29.779688 138.087539) scale(0.1 -0.1)">
       <use xlink:href="#DejaVuSans-30"/>
       <use xlink:href="#DejaVuSans-2e" x="63.623047"/>
       <use xlink:href="#DejaVuSans-32" x="95.410156"/>
       <use xlink:href="#DejaVuSans-35" x="159.033203"/>
      </g>
     </g>
    </g>
    <g id="ytick_7">
     <g id="line2d_16">
      <g>
       <use xlink:href="#mc6af2d8b4f" x="59.045313" y="104.04832" style="stroke: #000000; stroke-width: 0.8"/>
      </g>
     </g>
     <g id="text_17">
      <!-- 0.50 -->
      <g transform="translate(29.779688 107.847539) scale(0.1 -0.1)">
       <use xlink:href="#DejaVuSans-30"/>
       <use xlink:href="#DejaVuSans-2e" x="63.623047"/>
       <use xlink:href="#DejaVuSans-35" x="95.410156"/>
       <use xlink:href="#DejaVuSans-30" x="159.033203"/>
      </g>
     </g>
    </g>
    <g id="ytick_8">
     <g id="line2d_17">
      <g>
       <use xlink:href="#mc6af2d8b4f" x="59.045313" y="73.80832" style="stroke: #000000; stroke-width: 0.8"/>
      </g>
     </g>
     <g id="text_18">
      <!-- 0.75 -->
      <g transform="translate(29.779688 77.607539) scale(0.1 -0.1)">
       <use xlink:href="#DejaVuSans-30"/>
       <use xlink:href="#DejaVuSans-2e" x="63.623047"/>
       <use xlink:href="#DejaVuSans-37" x="95.410156"/>
       <use xlink:href="#DejaVuSans-35" x="159.033203"/>
      </g>
     </g>
    </g>
    <g id="ytick_9">
     <g id="line2d_18">
      <g>
       <use xlink:href="#mc6af2d8b4f" x="59.045313" y="43.56832" style="stroke: #000000; stroke-width: 0.8"/>
      </g>
     </g>
     <g id="text_19">
      <!-- 1.00 -->
      <g transform="translate(29.779688 47.367539) scale(0.1 -0.1)">
       <use xlink:href="#DejaVuSans-31"/>
       <use xlink:href="#DejaVuSans-2e" x="63.623047"/>
       <use xlink:href="#DejaVuSans-30" x="95.410156"/>
       <use xlink:href="#DejaVuSans-30" x="159.033203"/>
      </g>
     </g>
    </g>
    <g id="text_20">
     <!-- $\tilde{Eo}$ -->
     <g transform="translate(15.320312 170.77832) rotate(-90) scale(0.1 -0.1)">
      <defs>
       <path id="DejaVuSans-Oblique-45" d="M 1081 4666 
L 4031 4666 
L 3928 4134 
L 1606 4134 
L 1338 2753 
L 3566 2753 
L 3463 2222 
L 1234 2222 
L 909 531 
L 3284 531 
L 3181 0 
L 172 0 
L 1081 4666 
z
" transform="scale(0.015625)"/>
       <path id="DejaVuSans-Oblique-6f" d="M 1625 -91 
Q 1009 -91 651 289 
Q 294 669 294 1325 
Q 294 1706 417 2101 
Q 541 2497 738 2766 
Q 1047 3184 1428 3384 
Q 1809 3584 2291 3584 
Q 2888 3584 3255 3212 
Q 3622 2841 3622 2241 
Q 3622 1825 3500 1412 
Q 3378 1000 3181 728 
Q 2875 309 2494 109 
Q 2113 -91 1625 -91 
z
M 891 1344 
Q 891 869 1089 633 
Q 1288 397 1691 397 
Q 2269 397 2648 901 
Q 3028 1406 3028 2181 
Q 3028 2634 2825 2865 
Q 2622 3097 2228 3097 
Q 1903 3097 1650 2945 
Q 1397 2794 1197 2484 
Q 1050 2253 970 1956 
Q 891 1659 891 1344 
z
" transform="scale(0.015625)"/>
      </defs>
      <use xlink:href="#DejaVuSans-303" transform="translate(103.325684 22.3125)"/>
      <use xlink:href="#DejaVuSans-Oblique-45" transform="translate(0 0.828125)"/>
      <use xlink:href="#DejaVuSans-Oblique-6f" transform="translate(63.183594 0.828125)"/>
     </g>
    </g>
   </g>
   <g id="patch_3">
    <path d="M 59.045313 297.58432 
L 59.045313 31.47232 
" style="fill: none; stroke: #000000; stroke-width: 0.8; stroke-linejoin: miter; stroke-linecap: square"/>
   </g>
   <g id="patch_4">
    <path d="M 416.165313 297.58432 
L 416.165313 31.47232 
" style="fill: none; stroke: #000000; stroke-width: 0.8; stroke-linejoin: miter; stroke-linecap: square"/>
   </g>
   <g id="patch_5">
    <path d="M 59.045312 297.58432 
L 416.165313 297.58432 
" style="fill: none; stroke: #000000; stroke-width: 0.8; stroke-linejoin: miter; stroke-linecap: square"/>
   </g>
   <g id="patch_6">
    <path d="M 59.045312 31.47232 
L 416.165313 31.47232 
" style="fill: none; stroke: #000000; stroke-width: 0.8; stroke-linejoin: miter; stroke-linecap: square"/>
   </g>
   <g id="legend_1">
    <g id="patch_7">
     <path d="M 108.439687 24.878125 
L 366.770938 24.878125 
Q 368.770938 24.878125 368.770938 22.878125 
L 368.770938 9.2 
Q 368.770938 7.2 366.770938 7.2 
L 108.439687 7.2 
Q 106.439687 7.2 106.439687 9.2 
L 106.439687 22.878125 
Q 106.439687 24.878125 108.439687 24.878125 
z
" style="fill: #ffffff; opacity: 0.8; stroke: #cccccc; stroke-linejoin: miter"/>
    </g>
    <g id="PathCollection_6">
     <g>
      <use xlink:href="#mcedc187c8d" x="120.439687" y="16.173437" style="fill: #1f77b4; stroke: #1f77b4"/>
     </g>
    </g>
    <g id="text_21">
     <!-- I -->
     <g transform="translate(138.439687 18.798437) scale(0.1 -0.1)">
      <defs>
       <path id="DejaVuSans-49" d="M 628 4666 
L 1259 4666 
L 1259 0 
L 628 0 
L 628 4666 
z
" transform="scale(0.015625)"/>
      </defs>
      <use xlink:href="#DejaVuSans-49"/>
     </g>
    </g>
    <g id="PathCollection_7">
     <g>
      <use xlink:href="#m35b5eb63d5" x="171.389687" y="16.173437" style="fill: #ff7f0e; stroke: #ff7f0e; stroke-width: 1.5"/>
     </g>
    </g>
    <g id="text_22">
     <!-- II -->
     <g transform="translate(189.389687 18.798437) scale(0.1 -0.1)">
      <use xlink:href="#DejaVuSans-49"/>
      <use xlink:href="#DejaVuSans-49" x="29.492188"/>
     </g>
    </g>
    <g id="PathCollection_8">
     <g>
      <use xlink:href="#mf9fb940cac" x="225.289687" y="16.173437" style="fill: #2ca02c; stroke: #2ca02c"/>
     </g>
    </g>
    <g id="text_23">
     <!-- III -->
     <g transform="translate(243.289687 18.798437) scale(0.1 -0.1)">
      <use xlink:href="#DejaVuSans-49"/>
      <use xlink:href="#DejaVuSans-49" x="29.492188"/>
      <use xlink:href="#DejaVuSans-49" x="58.984375"/>
     </g>
    </g>
    <g id="PathCollection_9">
     <g>
      <use xlink:href="#m2d42aed21f" x="282.139687" y="16.173437" style="fill: #d62728; stroke: #d62728"/>
     </g>
    </g>
    <g id="text_24">
     <!-- IV -->
     <g transform="translate(300.139687 18.798437) scale(0.1 -0.1)">
      <defs>
       <path id="DejaVuSans-56" d="M 1831 0 
L 50 4666 
L 709 4666 
L 2188 738 
L 3669 4666 
L 4325 4666 
L 2547 0 
L 1831 0 
z
" transform="scale(0.015625)"/>
      </defs>
      <use xlink:href="#DejaVuSans-49"/>
      <use xlink:href="#DejaVuSans-56" x="29.492188"/>
     </g>
    </g>
    <g id="PathCollection_10">
     <g>
      <use xlink:href="#m44751b26c5" x="339.930313" y="16.173437" style="fill: #9467bd; stroke: #9467bd"/>
     </g>
    </g>
    <g id="text_25">
     <!-- V -->
     <g transform="translate(357.930313 18.798437) scale(0.1 -0.1)">
      <use xlink:href="#DejaVuSans-56"/>
     </g>
    </g>
   </g>
  </g>
 </g>
 <defs>
  <clipPath id="p9925098507">
   <rect x="59.045313" y="31.47232" width="357.12" height="266.112"/>
  </clipPath>
 </defs>
</svg>
