<?xml version="1.0" encoding="utf-8" standalone="no"?>
<!DOCTYPE svg PUBLIC "-//W3C//DTD SVG 1.1//EN"
  "http://www.w3.org/Graphics/SVG/1.1/DTD/svg11.dtd">
<!-- Created with matplotlib (https://matplotlib.org/) -->
<svg height="262.19625pt" version="1.1" viewBox="0 0 385.803125 262.19625" width="385.803125pt" xmlns="http://www.w3.org/2000/svg" xmlns:xlink="http://www.w3.org/1999/xlink">
 <metadata>
  <rdf:RDF xmlns:cc="http://creativecommons.org/ns#" xmlns:dc="http://purl.org/dc/elements/1.1/" xmlns:rdf="http://www.w3.org/1999/02/22-rdf-syntax-ns#">
   <cc:Work>
    <dc:type rdf:resource="http://purl.org/dc/dcmitype/StillImage"/>
    <dc:date>2022-02-02T12:23:39.485370</dc:date>
    <dc:format>image/svg+xml</dc:format>
    <dc:creator>
     <cc:Agent>
      <dc:title>Matplotlib v3.3.3, https://matplotlib.org/</dc:title>
     </cc:Agent>
    </dc:creator>
   </cc:Work>
  </rdf:RDF>
 </metadata>
 <defs>
  <style type="text/css">*{stroke-linecap:butt;stroke-linejoin:round;}</style>
 </defs>
 <g id="figure_1">
  <g id="patch_1">
   <path d="M 0 262.19625 
L 385.803125 262.19625 
L 385.803125 0 
L 0 0 
z
" style="fill:none;"/>
  </g>
  <g id="axes_1">
   <g id="patch_2">
    <path d="M 43.803125 224.64 
L 378.603125 224.64 
L 378.603125 7.2 
L 43.803125 7.2 
z
" style="fill:#ffffff;"/>
   </g>
   <g id="matplotlib.axis_1">
    <g id="xtick_1">
     <g id="line2d_1">
      <defs>
       <path d="M 0 0 
L 0 3.5 
" id="m5e0d1f4d05" style="stroke:#000000;stroke-width:0.8;"/>
      </defs>
      <g>
       <use style="stroke:#000000;stroke-width:0.8;" x="59.021307" xlink:href="#m5e0d1f4d05" y="224.64"/>
      </g>
     </g>
     <g id="text_1">
      <!-- −0.50 -->
      <g transform="translate(43.698651 239.238437)scale(0.1 -0.1)">
       <defs>
        <path d="M 10.59375 35.5 
L 73.1875 35.5 
L 73.1875 27.203125 
L 10.59375 27.203125 
z
" id="DejaVuSans-8722"/>
        <path d="M 31.78125 66.40625 
Q 24.171875 66.40625 20.328125 58.90625 
Q 16.5 51.421875 16.5 36.375 
Q 16.5 21.390625 20.328125 13.890625 
Q 24.171875 6.390625 31.78125 6.390625 
Q 39.453125 6.390625 43.28125 13.890625 
Q 47.125 21.390625 47.125 36.375 
Q 47.125 51.421875 43.28125 58.90625 
Q 39.453125 66.40625 31.78125 66.40625 
z
M 31.78125 74.21875 
Q 44.046875 74.21875 50.515625 64.515625 
Q 56.984375 54.828125 56.984375 36.375 
Q 56.984375 17.96875 50.515625 8.265625 
Q 44.046875 -1.421875 31.78125 -1.421875 
Q 19.53125 -1.421875 13.0625 8.265625 
Q 6.59375 17.96875 6.59375 36.375 
Q 6.59375 54.828125 13.0625 64.515625 
Q 19.53125 74.21875 31.78125 74.21875 
z
" id="DejaVuSans-48"/>
        <path d="M 10.6875 12.40625 
L 21 12.40625 
L 21 0 
L 10.6875 0 
z
" id="DejaVuSans-46"/>
        <path d="M 10.796875 72.90625 
L 49.515625 72.90625 
L 49.515625 64.59375 
L 19.828125 64.59375 
L 19.828125 46.734375 
Q 21.96875 47.46875 24.109375 47.828125 
Q 26.265625 48.1875 28.421875 48.1875 
Q 40.625 48.1875 47.75 41.5 
Q 54.890625 34.8125 54.890625 23.390625 
Q 54.890625 11.625 47.5625 5.09375 
Q 40.234375 -1.421875 26.90625 -1.421875 
Q 22.3125 -1.421875 17.546875 -0.640625 
Q 12.796875 0.140625 7.71875 1.703125 
L 7.71875 11.625 
Q 12.109375 9.234375 16.796875 8.0625 
Q 21.484375 6.890625 26.703125 6.890625 
Q 35.15625 6.890625 40.078125 11.328125 
Q 45.015625 15.765625 45.015625 23.390625 
Q 45.015625 31 40.078125 35.4375 
Q 35.15625 39.890625 26.703125 39.890625 
Q 22.75 39.890625 18.8125 39.015625 
Q 14.890625 38.140625 10.796875 36.28125 
z
" id="DejaVuSans-53"/>
       </defs>
       <use xlink:href="#DejaVuSans-8722"/>
       <use x="83.789062" xlink:href="#DejaVuSans-48"/>
       <use x="147.412109" xlink:href="#DejaVuSans-46"/>
       <use x="179.199219" xlink:href="#DejaVuSans-53"/>
       <use x="242.822266" xlink:href="#DejaVuSans-48"/>
      </g>
     </g>
    </g>
    <g id="xtick_2">
     <g id="line2d_2">
      <g>
       <use style="stroke:#000000;stroke-width:0.8;" x="97.066761" xlink:href="#m5e0d1f4d05" y="224.64"/>
      </g>
     </g>
     <g id="text_2">
      <!-- −0.25 -->
      <g transform="translate(81.744105 239.238437)scale(0.1 -0.1)">
       <defs>
        <path d="M 19.1875 8.296875 
L 53.609375 8.296875 
L 53.609375 0 
L 7.328125 0 
L 7.328125 8.296875 
Q 12.9375 14.109375 22.625 23.890625 
Q 32.328125 33.6875 34.8125 36.53125 
Q 39.546875 41.84375 41.421875 45.53125 
Q 43.3125 49.21875 43.3125 52.78125 
Q 43.3125 58.59375 39.234375 62.25 
Q 35.15625 65.921875 28.609375 65.921875 
Q 23.96875 65.921875 18.8125 64.3125 
Q 13.671875 62.703125 7.8125 59.421875 
L 7.8125 69.390625 
Q 13.765625 71.78125 18.9375 73 
Q 24.125 74.21875 28.421875 74.21875 
Q 39.75 74.21875 46.484375 68.546875 
Q 53.21875 62.890625 53.21875 53.421875 
Q 53.21875 48.921875 51.53125 44.890625 
Q 49.859375 40.875 45.40625 35.40625 
Q 44.1875 33.984375 37.640625 27.21875 
Q 31.109375 20.453125 19.1875 8.296875 
z
" id="DejaVuSans-50"/>
       </defs>
       <use xlink:href="#DejaVuSans-8722"/>
       <use x="83.789062" xlink:href="#DejaVuSans-48"/>
       <use x="147.412109" xlink:href="#DejaVuSans-46"/>
       <use x="179.199219" xlink:href="#DejaVuSans-50"/>
       <use x="242.822266" xlink:href="#DejaVuSans-53"/>
      </g>
     </g>
    </g>
    <g id="xtick_3">
     <g id="line2d_3">
      <g>
       <use style="stroke:#000000;stroke-width:0.8;" x="135.112216" xlink:href="#m5e0d1f4d05" y="224.64"/>
      </g>
     </g>
     <g id="text_3">
      <!-- 0.00 -->
      <g transform="translate(123.979403 239.238437)scale(0.1 -0.1)">
       <use xlink:href="#DejaVuSans-48"/>
       <use x="63.623047" xlink:href="#DejaVuSans-46"/>
       <use x="95.410156" xlink:href="#DejaVuSans-48"/>
       <use x="159.033203" xlink:href="#DejaVuSans-48"/>
      </g>
     </g>
    </g>
    <g id="xtick_4">
     <g id="line2d_4">
      <g>
       <use style="stroke:#000000;stroke-width:0.8;" x="173.15767" xlink:href="#m5e0d1f4d05" y="224.64"/>
      </g>
     </g>
     <g id="text_4">
      <!-- 0.25 -->
      <g transform="translate(162.024858 239.238437)scale(0.1 -0.1)">
       <use xlink:href="#DejaVuSans-48"/>
       <use x="63.623047" xlink:href="#DejaVuSans-46"/>
       <use x="95.410156" xlink:href="#DejaVuSans-50"/>
       <use x="159.033203" xlink:href="#DejaVuSans-53"/>
      </g>
     </g>
    </g>
    <g id="xtick_5">
     <g id="line2d_5">
      <g>
       <use style="stroke:#000000;stroke-width:0.8;" x="211.203125" xlink:href="#m5e0d1f4d05" y="224.64"/>
      </g>
     </g>
     <g id="text_5">
      <!-- 0.50 -->
      <g transform="translate(200.070313 239.238437)scale(0.1 -0.1)">
       <use xlink:href="#DejaVuSans-48"/>
       <use x="63.623047" xlink:href="#DejaVuSans-46"/>
       <use x="95.410156" xlink:href="#DejaVuSans-53"/>
       <use x="159.033203" xlink:href="#DejaVuSans-48"/>
      </g>
     </g>
    </g>
    <g id="xtick_6">
     <g id="line2d_6">
      <g>
       <use style="stroke:#000000;stroke-width:0.8;" x="249.24858" xlink:href="#m5e0d1f4d05" y="224.64"/>
      </g>
     </g>
     <g id="text_6">
      <!-- 0.75 -->
      <g transform="translate(238.115767 239.238437)scale(0.1 -0.1)">
       <defs>
        <path d="M 8.203125 72.90625 
L 55.078125 72.90625 
L 55.078125 68.703125 
L 28.609375 0 
L 18.3125 0 
L 43.21875 64.59375 
L 8.203125 64.59375 
z
" id="DejaVuSans-55"/>
       </defs>
       <use xlink:href="#DejaVuSans-48"/>
       <use x="63.623047" xlink:href="#DejaVuSans-46"/>
       <use x="95.410156" xlink:href="#DejaVuSans-55"/>
       <use x="159.033203" xlink:href="#DejaVuSans-53"/>
      </g>
     </g>
    </g>
    <g id="xtick_7">
     <g id="line2d_7">
      <g>
       <use style="stroke:#000000;stroke-width:0.8;" x="287.294034" xlink:href="#m5e0d1f4d05" y="224.64"/>
      </g>
     </g>
     <g id="text_7">
      <!-- 1.00 -->
      <g transform="translate(276.161222 239.238437)scale(0.1 -0.1)">
       <defs>
        <path d="M 12.40625 8.296875 
L 28.515625 8.296875 
L 28.515625 63.921875 
L 10.984375 60.40625 
L 10.984375 69.390625 
L 28.421875 72.90625 
L 38.28125 72.90625 
L 38.28125 8.296875 
L 54.390625 8.296875 
L 54.390625 0 
L 12.40625 0 
z
" id="DejaVuSans-49"/>
       </defs>
       <use xlink:href="#DejaVuSans-49"/>
       <use x="63.623047" xlink:href="#DejaVuSans-46"/>
       <use x="95.410156" xlink:href="#DejaVuSans-48"/>
       <use x="159.033203" xlink:href="#DejaVuSans-48"/>
      </g>
     </g>
    </g>
    <g id="xtick_8">
     <g id="line2d_8">
      <g>
       <use style="stroke:#000000;stroke-width:0.8;" x="325.339489" xlink:href="#m5e0d1f4d05" y="224.64"/>
      </g>
     </g>
     <g id="text_8">
      <!-- 1.25 -->
      <g transform="translate(314.206676 239.238437)scale(0.1 -0.1)">
       <use xlink:href="#DejaVuSans-49"/>
       <use x="63.623047" xlink:href="#DejaVuSans-46"/>
       <use x="95.410156" xlink:href="#DejaVuSans-50"/>
       <use x="159.033203" xlink:href="#DejaVuSans-53"/>
      </g>
     </g>
    </g>
    <g id="xtick_9">
     <g id="line2d_9">
      <g>
       <use style="stroke:#000000;stroke-width:0.8;" x="363.384943" xlink:href="#m5e0d1f4d05" y="224.64"/>
      </g>
     </g>
     <g id="text_9">
      <!-- 1.50 -->
      <g transform="translate(352.252131 239.238437)scale(0.1 -0.1)">
       <use xlink:href="#DejaVuSans-49"/>
       <use x="63.623047" xlink:href="#DejaVuSans-46"/>
       <use x="95.410156" xlink:href="#DejaVuSans-53"/>
       <use x="159.033203" xlink:href="#DejaVuSans-48"/>
      </g>
     </g>
    </g>
    <g id="text_10">
     <!-- $x$ -->
     <g transform="translate(208.203125 252.916562)scale(0.1 -0.1)">
      <defs>
       <path d="M 60.015625 54.6875 
L 34.90625 27.875 
L 50.296875 0 
L 39.984375 0 
L 28.421875 21.6875 
L 8.296875 0 
L -2.59375 0 
L 24.3125 28.8125 
L 10.015625 54.6875 
L 20.3125 54.6875 
L 30.8125 34.90625 
L 49.125 54.6875 
z
" id="DejaVuSans-Oblique-120"/>
      </defs>
      <use transform="translate(0 0.3125)" xlink:href="#DejaVuSans-Oblique-120"/>
     </g>
    </g>
   </g>
   <g id="matplotlib.axis_2">
    <g id="ytick_1">
     <g id="line2d_10">
      <defs>
       <path d="M 0 0 
L -3.5 0 
" id="m8bf8208eae" style="stroke:#000000;stroke-width:0.8;"/>
      </defs>
      <g>
       <use style="stroke:#000000;stroke-width:0.8;" x="43.803125" xlink:href="#m8bf8208eae" y="214.756364"/>
      </g>
     </g>
     <g id="text_11">
      <!-- 0.0 -->
      <g transform="translate(20.9 218.555582)scale(0.1 -0.1)">
       <use xlink:href="#DejaVuSans-48"/>
       <use x="63.623047" xlink:href="#DejaVuSans-46"/>
       <use x="95.410156" xlink:href="#DejaVuSans-48"/>
      </g>
     </g>
    </g>
    <g id="ytick_2">
     <g id="line2d_11">
      <g>
       <use style="stroke:#000000;stroke-width:0.8;" x="43.803125" xlink:href="#m8bf8208eae" y="189.961532"/>
      </g>
     </g>
     <g id="text_12">
      <!-- 0.2 -->
      <g transform="translate(20.9 193.76075)scale(0.1 -0.1)">
       <use xlink:href="#DejaVuSans-48"/>
       <use x="63.623047" xlink:href="#DejaVuSans-46"/>
       <use x="95.410156" xlink:href="#DejaVuSans-50"/>
      </g>
     </g>
    </g>
    <g id="ytick_3">
     <g id="line2d_12">
      <g>
       <use style="stroke:#000000;stroke-width:0.8;" x="43.803125" xlink:href="#m8bf8208eae" y="165.1667"/>
      </g>
     </g>
     <g id="text_13">
      <!-- 0.4 -->
      <g transform="translate(20.9 168.965918)scale(0.1 -0.1)">
       <defs>
        <path d="M 37.796875 64.3125 
L 12.890625 25.390625 
L 37.796875 25.390625 
z
M 35.203125 72.90625 
L 47.609375 72.90625 
L 47.609375 25.390625 
L 58.015625 25.390625 
L 58.015625 17.1875 
L 47.609375 17.1875 
L 47.609375 0 
L 37.796875 0 
L 37.796875 17.1875 
L 4.890625 17.1875 
L 4.890625 26.703125 
z
" id="DejaVuSans-52"/>
       </defs>
       <use xlink:href="#DejaVuSans-48"/>
       <use x="63.623047" xlink:href="#DejaVuSans-46"/>
       <use x="95.410156" xlink:href="#DejaVuSans-52"/>
      </g>
     </g>
    </g>
    <g id="ytick_4">
     <g id="line2d_13">
      <g>
       <use style="stroke:#000000;stroke-width:0.8;" x="43.803125" xlink:href="#m8bf8208eae" y="140.371868"/>
      </g>
     </g>
     <g id="text_14">
      <!-- 0.6 -->
      <g transform="translate(20.9 144.171086)scale(0.1 -0.1)">
       <defs>
        <path d="M 33.015625 40.375 
Q 26.375 40.375 22.484375 35.828125 
Q 18.609375 31.296875 18.609375 23.390625 
Q 18.609375 15.53125 22.484375 10.953125 
Q 26.375 6.390625 33.015625 6.390625 
Q 39.65625 6.390625 43.53125 10.953125 
Q 47.40625 15.53125 47.40625 23.390625 
Q 47.40625 31.296875 43.53125 35.828125 
Q 39.65625 40.375 33.015625 40.375 
z
M 52.59375 71.296875 
L 52.59375 62.3125 
Q 48.875 64.0625 45.09375 64.984375 
Q 41.3125 65.921875 37.59375 65.921875 
Q 27.828125 65.921875 22.671875 59.328125 
Q 17.53125 52.734375 16.796875 39.40625 
Q 19.671875 43.65625 24.015625 45.921875 
Q 28.375 48.1875 33.59375 48.1875 
Q 44.578125 48.1875 50.953125 41.515625 
Q 57.328125 34.859375 57.328125 23.390625 
Q 57.328125 12.15625 50.6875 5.359375 
Q 44.046875 -1.421875 33.015625 -1.421875 
Q 20.359375 -1.421875 13.671875 8.265625 
Q 6.984375 17.96875 6.984375 36.375 
Q 6.984375 53.65625 15.1875 63.9375 
Q 23.390625 74.21875 37.203125 74.21875 
Q 40.921875 74.21875 44.703125 73.484375 
Q 48.484375 72.75 52.59375 71.296875 
z
" id="DejaVuSans-54"/>
       </defs>
       <use xlink:href="#DejaVuSans-48"/>
       <use x="63.623047" xlink:href="#DejaVuSans-46"/>
       <use x="95.410156" xlink:href="#DejaVuSans-54"/>
      </g>
     </g>
    </g>
    <g id="ytick_5">
     <g id="line2d_14">
      <g>
       <use style="stroke:#000000;stroke-width:0.8;" x="43.803125" xlink:href="#m8bf8208eae" y="115.577036"/>
      </g>
     </g>
     <g id="text_15">
      <!-- 0.8 -->
      <g transform="translate(20.9 119.376254)scale(0.1 -0.1)">
       <defs>
        <path d="M 31.78125 34.625 
Q 24.75 34.625 20.71875 30.859375 
Q 16.703125 27.09375 16.703125 20.515625 
Q 16.703125 13.921875 20.71875 10.15625 
Q 24.75 6.390625 31.78125 6.390625 
Q 38.8125 6.390625 42.859375 10.171875 
Q 46.921875 13.96875 46.921875 20.515625 
Q 46.921875 27.09375 42.890625 30.859375 
Q 38.875 34.625 31.78125 34.625 
z
M 21.921875 38.8125 
Q 15.578125 40.375 12.03125 44.71875 
Q 8.5 49.078125 8.5 55.328125 
Q 8.5 64.0625 14.71875 69.140625 
Q 20.953125 74.21875 31.78125 74.21875 
Q 42.671875 74.21875 48.875 69.140625 
Q 55.078125 64.0625 55.078125 55.328125 
Q 55.078125 49.078125 51.53125 44.71875 
Q 48 40.375 41.703125 38.8125 
Q 48.828125 37.15625 52.796875 32.3125 
Q 56.78125 27.484375 56.78125 20.515625 
Q 56.78125 9.90625 50.3125 4.234375 
Q 43.84375 -1.421875 31.78125 -1.421875 
Q 19.734375 -1.421875 13.25 4.234375 
Q 6.78125 9.90625 6.78125 20.515625 
Q 6.78125 27.484375 10.78125 32.3125 
Q 14.796875 37.15625 21.921875 38.8125 
z
M 18.3125 54.390625 
Q 18.3125 48.734375 21.84375 45.5625 
Q 25.390625 42.390625 31.78125 42.390625 
Q 38.140625 42.390625 41.71875 45.5625 
Q 45.3125 48.734375 45.3125 54.390625 
Q 45.3125 60.0625 41.71875 63.234375 
Q 38.140625 66.40625 31.78125 66.40625 
Q 25.390625 66.40625 21.84375 63.234375 
Q 18.3125 60.0625 18.3125 54.390625 
z
" id="DejaVuSans-56"/>
       </defs>
       <use xlink:href="#DejaVuSans-48"/>
       <use x="63.623047" xlink:href="#DejaVuSans-46"/>
       <use x="95.410156" xlink:href="#DejaVuSans-56"/>
      </g>
     </g>
    </g>
    <g id="ytick_6">
     <g id="line2d_15">
      <g>
       <use style="stroke:#000000;stroke-width:0.8;" x="43.803125" xlink:href="#m8bf8208eae" y="90.782204"/>
      </g>
     </g>
     <g id="text_16">
      <!-- 1.0 -->
      <g transform="translate(20.9 94.581422)scale(0.1 -0.1)">
       <use xlink:href="#DejaVuSans-49"/>
       <use x="63.623047" xlink:href="#DejaVuSans-46"/>
       <use x="95.410156" xlink:href="#DejaVuSans-48"/>
      </g>
     </g>
    </g>
    <g id="ytick_7">
     <g id="line2d_16">
      <g>
       <use style="stroke:#000000;stroke-width:0.8;" x="43.803125" xlink:href="#m8bf8208eae" y="65.987372"/>
      </g>
     </g>
     <g id="text_17">
      <!-- 1.2 -->
      <g transform="translate(20.9 69.78659)scale(0.1 -0.1)">
       <use xlink:href="#DejaVuSans-49"/>
       <use x="63.623047" xlink:href="#DejaVuSans-46"/>
       <use x="95.410156" xlink:href="#DejaVuSans-50"/>
      </g>
     </g>
    </g>
    <g id="ytick_8">
     <g id="line2d_17">
      <g>
       <use style="stroke:#000000;stroke-width:0.8;" x="43.803125" xlink:href="#m8bf8208eae" y="41.19254"/>
      </g>
     </g>
     <g id="text_18">
      <!-- 1.4 -->
      <g transform="translate(20.9 44.991758)scale(0.1 -0.1)">
       <use xlink:href="#DejaVuSans-49"/>
       <use x="63.623047" xlink:href="#DejaVuSans-46"/>
       <use x="95.410156" xlink:href="#DejaVuSans-52"/>
      </g>
     </g>
    </g>
    <g id="ytick_9">
     <g id="line2d_18">
      <g>
       <use style="stroke:#000000;stroke-width:0.8;" x="43.803125" xlink:href="#m8bf8208eae" y="16.397708"/>
      </g>
     </g>
     <g id="text_19">
      <!-- 1.6 -->
      <g transform="translate(20.9 20.196926)scale(0.1 -0.1)">
       <use xlink:href="#DejaVuSans-49"/>
       <use x="63.623047" xlink:href="#DejaVuSans-46"/>
       <use x="95.410156" xlink:href="#DejaVuSans-54"/>
      </g>
     </g>
    </g>
    <g id="text_20">
     <!-- $p(x)$ -->
     <g transform="translate(14.8 125.97)rotate(-90)scale(0.1 -0.1)">
      <defs>
       <path d="M 49.609375 33.6875 
Q 49.609375 40.875 46.484375 44.671875 
Q 43.359375 48.484375 37.5 48.484375 
Q 33.5 48.484375 29.859375 46.4375 
Q 26.21875 44.390625 23.390625 40.484375 
Q 20.609375 36.625 18.9375 31.15625 
Q 17.28125 25.6875 17.28125 20.3125 
Q 17.28125 13.484375 20.40625 9.796875 
Q 23.53125 6.109375 29.296875 6.109375 
Q 33.546875 6.109375 37.1875 8.109375 
Q 40.828125 10.109375 43.40625 13.921875 
Q 46.1875 17.921875 47.890625 23.34375 
Q 49.609375 28.765625 49.609375 33.6875 
z
M 21.78125 46.390625 
Q 25.390625 51.125 30.296875 53.5625 
Q 35.203125 56 41.21875 56 
Q 49.609375 56 54.25 50.5 
Q 58.890625 45.015625 58.890625 35.109375 
Q 58.890625 27 56 19.65625 
Q 53.125 12.3125 47.703125 6.5 
Q 44.09375 2.640625 39.546875 0.609375 
Q 35.015625 -1.421875 29.984375 -1.421875 
Q 24.171875 -1.421875 20.21875 1 
Q 16.265625 3.421875 14.3125 8.203125 
L 8.6875 -20.796875 
L -0.296875 -20.796875 
L 14.40625 54.6875 
L 23.390625 54.6875 
z
" id="DejaVuSans-Oblique-112"/>
       <path d="M 31 75.875 
Q 24.46875 64.65625 21.28125 53.65625 
Q 18.109375 42.671875 18.109375 31.390625 
Q 18.109375 20.125 21.3125 9.0625 
Q 24.515625 -2 31 -13.1875 
L 23.1875 -13.1875 
Q 15.875 -1.703125 12.234375 9.375 
Q 8.59375 20.453125 8.59375 31.390625 
Q 8.59375 42.28125 12.203125 53.3125 
Q 15.828125 64.359375 23.1875 75.875 
z
" id="DejaVuSans-40"/>
       <path d="M 8.015625 75.875 
L 15.828125 75.875 
Q 23.140625 64.359375 26.78125 53.3125 
Q 30.421875 42.28125 30.421875 31.390625 
Q 30.421875 20.453125 26.78125 9.375 
Q 23.140625 -1.703125 15.828125 -13.1875 
L 8.015625 -13.1875 
Q 14.5 -2 17.703125 9.0625 
Q 20.90625 20.125 20.90625 31.390625 
Q 20.90625 42.671875 17.703125 53.65625 
Q 14.5 64.65625 8.015625 75.875 
z
" id="DejaVuSans-41"/>
      </defs>
      <use transform="translate(0 0.125)" xlink:href="#DejaVuSans-Oblique-112"/>
      <use transform="translate(63.476562 0.125)" xlink:href="#DejaVuSans-40"/>
      <use transform="translate(102.490234 0.125)" xlink:href="#DejaVuSans-Oblique-120"/>
      <use transform="translate(161.669922 0.125)" xlink:href="#DejaVuSans-41"/>
     </g>
    </g>
   </g>
   <g id="line2d_19">
    <path clip-path="url(#p54ef1526de)" d="M 59.021307 214.689998 
L 62.095686 214.664972 
L 65.170069 214.631329 
L 68.244448 214.586415 
L 71.318826 214.52687 
L 74.393205 214.44848 
L 77.467588 214.346002 
L 80.541967 214.212974 
L 83.616346 214.041505 
L 86.690725 213.82205 
L 89.765108 213.543172 
L 92.839487 213.191306 
L 95.913865 212.750528 
L 98.988246 212.202344 
L 102.062627 211.525509 
L 105.137006 210.695912 
L 108.211389 209.686505 
L 111.28577 208.467368 
L 114.360149 207.005847 
L 117.43453 205.26684 
L 120.50891 203.21328 
L 123.58329 200.80671 
L 126.657671 198.008124 
L 129.73205 194.778963 
L 132.806431 191.082291 
L 135.880811 186.884186 
L 138.955191 182.155211 
L 142.029571 176.872071 
L 145.103951 171.019324 
L 148.178331 164.591036 
L 151.252712 157.592431 
L 154.327091 150.041436 
L 157.401472 141.969823 
L 160.475853 133.42431 
L 163.550232 124.467043 
L 166.624613 115.175655 
L 169.698992 105.642965 
L 172.773373 95.975905 
L 175.847754 86.293949 
L 178.922132 76.727098 
L 181.996511 67.413083 
L 185.07089 58.494271 
L 188.145273 50.114237 
L 191.219652 42.413854 
L 194.294031 35.527505 
L 197.368409 29.579157 
L 200.442793 24.678631 
L 203.517171 20.91834 
L 206.591555 18.370226 
L 209.665933 17.083636 
L 212.740317 17.083636 
L 215.814691 18.370226 
L 218.889074 20.91834 
L 221.963457 24.678631 
L 225.037841 29.579157 
L 228.112215 35.527491 
L 231.186598 42.413854 
L 234.260981 50.114237 
L 237.335356 58.494271 
L 240.409739 67.413083 
L 243.484122 76.727112 
L 246.558496 86.293949 
L 249.63288 95.975905 
L 252.707254 105.642957 
L 255.781637 115.175655 
L 258.85602 124.467043 
L 261.930395 133.42431 
L 265.004778 141.969823 
L 268.079161 150.041436 
L 271.153535 157.592431 
L 274.227919 164.591036 
L 277.302302 171.019335 
L 280.376676 176.872071 
L 283.45106 182.155211 
L 286.525434 186.884179 
L 289.599817 191.082291 
L 292.6742 194.778963 
L 295.748584 198.008124 
L 298.822949 200.806703 
L 301.897332 203.213274 
L 304.971715 205.26684 
L 308.046099 207.005847 
L 311.120482 208.467368 
L 314.194847 209.6865 
L 317.26923 210.695906 
L 320.343614 211.525507 
L 323.417997 212.202343 
L 326.49238 212.750528 
L 329.566763 213.191306 
L 332.641147 213.543172 
L 335.71553 213.82205 
L 338.789913 214.041506 
L 341.864278 214.212974 
L 344.938662 214.346002 
L 348.013045 214.44848 
L 351.087428 214.52687 
L 354.161811 214.586415 
L 357.236177 214.631329 
L 360.31056 214.664972 
L 363.384943 214.689998 
" style="fill:none;stroke:#1f77b4;stroke-linecap:square;stroke-width:1.5;"/>
   </g>
   <g id="line2d_20">
    <path clip-path="url(#p54ef1526de)" d="M 135.112216 214.756364 
L 138.217967 199.885664 
L 141.323719 185.634573 
L 144.42947 172.00308 
L 147.535221 158.991237 
L 150.640972 146.598987 
L 153.746724 134.82633 
L 156.852474 123.673314 
L 159.958227 113.139887 
L 163.063979 103.22608 
L 166.169729 93.931921 
L 169.275481 85.257344 
L 172.381233 77.202357 
L 175.486983 69.767003 
L 178.592733 62.951283 
L 181.698483 56.755138 
L 184.804237 51.178611 
L 187.909987 46.221733 
L 191.015742 41.884445 
L 194.121491 38.166761 
L 197.227241 35.06871 
L 200.332991 32.590249 
L 203.438746 30.731437 
L 206.544496 29.492199 
L 209.65025 28.872565 
L 212.756 28.872565 
L 215.86175 29.492199 
L 218.9675 30.731407 
L 222.073259 32.590249 
L 225.179009 35.06871 
L 228.284759 38.166761 
L 231.390508 41.884445 
L 234.496258 46.221719 
L 237.602008 51.178611 
L 240.707758 56.755123 
L 243.813517 62.951283 
L 246.919267 69.767003 
L 250.025017 77.202357 
L 253.130767 85.257329 
L 256.236517 93.931891 
L 259.342276 103.226095 
L 262.448026 113.139895 
L 265.553776 123.673314 
L 268.659535 134.826367 
L 271.765285 146.599016 
L 274.871034 158.991262 
L 277.976784 172.003113 
L 281.082534 185.634588 
L 284.188284 199.885671 
L 287.294034 214.756364 
" style="fill:none;stroke:#ff7f0e;stroke-linecap:square;stroke-width:1.5;"/>
   </g>
   <g id="patch_3">
    <path d="M 43.803125 224.64 
L 43.803125 7.2 
" style="fill:none;stroke:#000000;stroke-linecap:square;stroke-linejoin:miter;stroke-width:0.8;"/>
   </g>
   <g id="patch_4">
    <path d="M 378.603125 224.64 
L 378.603125 7.2 
" style="fill:none;stroke:#000000;stroke-linecap:square;stroke-linejoin:miter;stroke-width:0.8;"/>
   </g>
   <g id="patch_5">
    <path d="M 43.803125 224.64 
L 378.603125 224.64 
" style="fill:none;stroke:#000000;stroke-linecap:square;stroke-linejoin:miter;stroke-width:0.8;"/>
   </g>
   <g id="patch_6">
    <path d="M 43.803125 7.2 
L 378.603125 7.2 
" style="fill:none;stroke:#000000;stroke-linecap:square;stroke-linejoin:miter;stroke-width:0.8;"/>
   </g>
   <g id="text_21">
    <!-- Gauss: $p(x) = \frac{1}{\sigma\sqrt{2\pi}} e^{-\frac{1}{2}\left(\frac{x-\mu}{\sigma}\right)^2}$ -->
    <g transform="translate(241.639489 28.795124)scale(0.1 -0.1)">
     <defs>
      <path d="M 59.515625 10.40625 
L 59.515625 29.984375 
L 43.40625 29.984375 
L 43.40625 38.09375 
L 69.28125 38.09375 
L 69.28125 6.78125 
Q 63.578125 2.734375 56.6875 0.65625 
Q 49.8125 -1.421875 42 -1.421875 
Q 24.90625 -1.421875 15.25 8.5625 
Q 5.609375 18.5625 5.609375 36.375 
Q 5.609375 54.25 15.25 64.234375 
Q 24.90625 74.21875 42 74.21875 
Q 49.125 74.21875 55.546875 72.453125 
Q 61.96875 70.703125 67.390625 67.28125 
L 67.390625 56.78125 
Q 61.921875 61.421875 55.765625 63.765625 
Q 49.609375 66.109375 42.828125 66.109375 
Q 29.4375 66.109375 22.71875 58.640625 
Q 16.015625 51.171875 16.015625 36.375 
Q 16.015625 21.625 22.71875 14.15625 
Q 29.4375 6.6875 42.828125 6.6875 
Q 48.046875 6.6875 52.140625 7.59375 
Q 56.25 8.5 59.515625 10.40625 
z
" id="DejaVuSans-71"/>
      <path d="M 34.28125 27.484375 
Q 23.390625 27.484375 19.1875 25 
Q 14.984375 22.515625 14.984375 16.5 
Q 14.984375 11.71875 18.140625 8.90625 
Q 21.296875 6.109375 26.703125 6.109375 
Q 34.1875 6.109375 38.703125 11.40625 
Q 43.21875 16.703125 43.21875 25.484375 
L 43.21875 27.484375 
z
M 52.203125 31.203125 
L 52.203125 0 
L 43.21875 0 
L 43.21875 8.296875 
Q 40.140625 3.328125 35.546875 0.953125 
Q 30.953125 -1.421875 24.3125 -1.421875 
Q 15.921875 -1.421875 10.953125 3.296875 
Q 6 8.015625 6 15.921875 
Q 6 25.140625 12.171875 29.828125 
Q 18.359375 34.515625 30.609375 34.515625 
L 43.21875 34.515625 
L 43.21875 35.40625 
Q 43.21875 41.609375 39.140625 45 
Q 35.0625 48.390625 27.6875 48.390625 
Q 23 48.390625 18.546875 47.265625 
Q 14.109375 46.140625 10.015625 43.890625 
L 10.015625 52.203125 
Q 14.9375 54.109375 19.578125 55.046875 
Q 24.21875 56 28.609375 56 
Q 40.484375 56 46.34375 49.84375 
Q 52.203125 43.703125 52.203125 31.203125 
z
" id="DejaVuSans-97"/>
      <path d="M 8.5 21.578125 
L 8.5 54.6875 
L 17.484375 54.6875 
L 17.484375 21.921875 
Q 17.484375 14.15625 20.5 10.265625 
Q 23.53125 6.390625 29.59375 6.390625 
Q 36.859375 6.390625 41.078125 11.03125 
Q 45.3125 15.671875 45.3125 23.6875 
L 45.3125 54.6875 
L 54.296875 54.6875 
L 54.296875 0 
L 45.3125 0 
L 45.3125 8.40625 
Q 42.046875 3.421875 37.71875 1 
Q 33.40625 -1.421875 27.6875 -1.421875 
Q 18.265625 -1.421875 13.375 4.4375 
Q 8.5 10.296875 8.5 21.578125 
z
M 31.109375 56 
z
" id="DejaVuSans-117"/>
      <path d="M 44.28125 53.078125 
L 44.28125 44.578125 
Q 40.484375 46.53125 36.375 47.5 
Q 32.28125 48.484375 27.875 48.484375 
Q 21.1875 48.484375 17.84375 46.4375 
Q 14.5 44.390625 14.5 40.28125 
Q 14.5 37.15625 16.890625 35.375 
Q 19.28125 33.59375 26.515625 31.984375 
L 29.59375 31.296875 
Q 39.15625 29.25 43.1875 25.515625 
Q 47.21875 21.78125 47.21875 15.09375 
Q 47.21875 7.46875 41.1875 3.015625 
Q 35.15625 -1.421875 24.609375 -1.421875 
Q 20.21875 -1.421875 15.453125 -0.5625 
Q 10.6875 0.296875 5.421875 2 
L 5.421875 11.28125 
Q 10.40625 8.6875 15.234375 7.390625 
Q 20.0625 6.109375 24.8125 6.109375 
Q 31.15625 6.109375 34.5625 8.28125 
Q 37.984375 10.453125 37.984375 14.40625 
Q 37.984375 18.0625 35.515625 20.015625 
Q 33.0625 21.96875 24.703125 23.78125 
L 21.578125 24.515625 
Q 13.234375 26.265625 9.515625 29.90625 
Q 5.8125 33.546875 5.8125 39.890625 
Q 5.8125 47.609375 11.28125 51.796875 
Q 16.75 56 26.8125 56 
Q 31.78125 56 36.171875 55.265625 
Q 40.578125 54.546875 44.28125 53.078125 
z
" id="DejaVuSans-115"/>
      <path d="M 11.71875 12.40625 
L 22.015625 12.40625 
L 22.015625 0 
L 11.71875 0 
z
M 11.71875 51.703125 
L 22.015625 51.703125 
L 22.015625 39.3125 
L 11.71875 39.3125 
z
" id="DejaVuSans-58"/>
      <path id="DejaVuSans-32"/>
      <path d="M 10.59375 45.40625 
L 73.1875 45.40625 
L 73.1875 37.203125 
L 10.59375 37.203125 
z
M 10.59375 25.484375 
L 73.1875 25.484375 
L 73.1875 17.1875 
L 10.59375 17.1875 
z
" id="DejaVuSans-61"/>
      <path d="M 34.671875 47.5625 
Q 27.25 47.5625 22.21875 42.1875 
Q 16.890625 36.578125 15.140625 27.296875 
Q 13.1875 17.484375 16.3125 11.8125 
Q 19.390625 6.203125 26.65625 6.203125 
Q 33.84375 6.203125 39.109375 11.859375 
Q 44.4375 17.53125 46.34375 27.296875 
Q 48.046875 36.234375 45.015625 42.1875 
Q 42.1875 47.5625 34.671875 47.5625 
z
M 36.078125 54.734375 
L 65.921875 54.6875 
L 64.15625 45.703125 
L 54.109375 45.703125 
Q 57.90625 38.09375 55.859375 27.296875 
Q 53.21875 13.875 45.0625 6.25 
Q 36.859375 -1.421875 25.140625 -1.421875 
Q 13.375 -1.421875 8.203125 6.25 
Q 3.03125 13.875 5.671875 27.296875 
Q 8.25 40.765625 16.40625 48.390625 
Q 23.1875 54.734375 36.078125 54.734375 
z
" id="DejaVuSans-Oblique-963"/>
      <path d="M 108.90625 155.203125 
L 52.703125 -29.5 
L 48.5 -29.5 
L 25.40625 45.59375 
Q 24.296875 49.203125 22.890625 50.796875 
Q 21.5 52.40625 19.203125 52.40625 
Q 15.796875 52.40625 12.40625 49.703125 
L 11.203125 51.703125 
L 27.59375 64.296875 
L 30.09375 64.296875 
L 52.796875 -9.40625 
L 53.203125 -9.40625 
L 103.203125 155.203125 
z
" id="STIXSizeOneSym-Regular-8730"/>
      <path d="M 9.125 54.6875 
L 61.53125 54.6875 
L 59.765625 45.703125 
L 52.875 45.703125 
L 46.34375 12.109375 
Q 45.65625 8.59375 46.578125 7.03125 
Q 47.46875 5.515625 50.140625 5.515625 
Q 50.875 5.515625 51.953125 5.671875 
Q 53.078125 5.765625 53.421875 5.8125 
L 52.15625 -0.6875 
Q 50.34375 -1.3125 48.484375 -1.609375 
Q 46.578125 -1.90625 44.78125 -1.90625 
Q 38.921875 -1.90625 37.3125 1.265625 
Q 35.6875 4.5 37.359375 13.09375 
L 43.703125 45.703125 
L 23.53125 45.703125 
L 14.65625 0 
L 5.46875 0 
L 14.359375 45.703125 
L 7.375 45.703125 
z
" id="DejaVuSans-Oblique-960"/>
      <path d="M 48.09375 32.234375 
Q 48.25 33.015625 48.3125 33.84375 
Q 48.390625 34.671875 48.390625 35.5 
Q 48.390625 41.453125 44.890625 44.921875 
Q 41.40625 48.390625 35.40625 48.390625 
Q 28.71875 48.390625 23.578125 44.15625 
Q 18.453125 39.9375 15.828125 32.171875 
z
M 55.90625 25.203125 
L 14.109375 25.203125 
Q 13.8125 23.34375 13.71875 22.265625 
Q 13.625 21.1875 13.625 20.40625 
Q 13.625 13.625 17.796875 9.90625 
Q 21.96875 6.203125 29.59375 6.203125 
Q 35.453125 6.203125 40.671875 7.515625 
Q 45.90625 8.84375 50.390625 11.375 
L 48.6875 2.484375 
Q 43.84375 0.53125 38.6875 -0.4375 
Q 33.546875 -1.421875 28.21875 -1.421875 
Q 16.84375 -1.421875 10.71875 4.015625 
Q 4.59375 9.46875 4.59375 19.484375 
Q 4.59375 28.03125 7.640625 35.375 
Q 10.6875 42.71875 16.609375 48.484375 
Q 20.40625 52.09375 25.65625 54.046875 
Q 30.90625 56 36.8125 56 
Q 46.09375 56 51.578125 50.4375 
Q 57.078125 44.875 57.078125 35.5 
Q 57.078125 33.25 56.78125 30.6875 
Q 56.5 28.125 55.90625 25.203125 
z
" id="DejaVuSans-Oblique-101"/>
      <path d="M 38.203125 -13.40625 
L 38.203125 -16.40625 
Q 27 -5.796875 20.453125 9.84375 
Q 13.90625 25.5 13.90625 45.09375 
Q 13.90625 64.40625 20.453125 80.25 
Q 27 96.09375 38.203125 106.59375 
L 38.203125 103.59375 
Q 22 83.796875 22 45.09375 
Q 22 6.40625 38.203125 -13.40625 
z
" id="STIXSizeOneSym-Regular-40"/>
      <path d="M -1.3125 -20.796875 
L 13.375 54.6875 
L 22.40625 54.6875 
L 15.765625 20.65625 
Q 15.578125 19.625 15.421875 18.359375 
Q 15.28125 17.09375 15.28125 15.828125 
Q 15.28125 11.28125 18.140625 8.828125 
Q 21 6.390625 26.3125 6.390625 
Q 33.546875 6.390625 37.984375 10.484375 
Q 42.4375 14.59375 44 22.796875 
L 50.203125 54.6875 
L 59.1875 54.6875 
L 51.03125 12.640625 
Q 50.828125 11.71875 50.75 11.03125 
Q 50.6875 10.359375 50.6875 9.8125 
Q 50.6875 8.296875 51.296875 7.59375 
Q 51.90625 6.890625 53.21875 6.890625 
Q 53.71875 6.890625 54.5625 7.125 
Q 55.421875 7.375 56.984375 8.015625 
L 55.609375 0.78125 
Q 53.46875 -0.296875 51.515625 -0.859375 
Q 49.5625 -1.421875 47.703125 -1.421875 
Q 44.484375 -1.421875 42.65625 0.625 
Q 40.828125 2.6875 40.828125 6.296875 
Q 38.09375 2.390625 34.296875 0.484375 
Q 30.515625 -1.421875 25.390625 -1.421875 
Q 20.84375 -1.421875 17.453125 0.671875 
Q 14.0625 2.78125 12.984375 6.203125 
L 7.71875 -20.796875 
z
" id="DejaVuSans-Oblique-956"/>
      <path d="M 8.59375 103.59375 
L 8.59375 106.59375 
Q 19.796875 96 26.34375 80.34375 
Q 32.90625 64.703125 32.90625 45.09375 
Q 32.90625 25.796875 26.34375 9.9375 
Q 19.796875 -5.90625 8.59375 -16.40625 
L 8.59375 -13.40625 
Q 24.796875 6.40625 24.796875 45.09375 
Q 24.796875 83.796875 8.59375 103.59375 
z
" id="STIXSizeOneSym-Regular-41"/>
     </defs>
     <use transform="translate(0 0.073594)" xlink:href="#DejaVuSans-71"/>
     <use transform="translate(77.490234 0.073594)" xlink:href="#DejaVuSans-97"/>
     <use transform="translate(138.769531 0.073594)" xlink:href="#DejaVuSans-117"/>
     <use transform="translate(202.148438 0.073594)" xlink:href="#DejaVuSans-115"/>
     <use transform="translate(254.248047 0.073594)" xlink:href="#DejaVuSans-115"/>
     <use transform="translate(306.347656 0.073594)" xlink:href="#DejaVuSans-58"/>
     <use transform="translate(340.039062 0.073594)" xlink:href="#DejaVuSans-32"/>
     <use transform="translate(371.826172 0.073594)" xlink:href="#DejaVuSans-Oblique-112"/>
     <use transform="translate(435.302734 0.073594)" xlink:href="#DejaVuSans-40"/>
     <use transform="translate(474.316406 0.073594)" xlink:href="#DejaVuSans-Oblique-120"/>
     <use transform="translate(533.496094 0.073594)" xlink:href="#DejaVuSans-41"/>
     <use transform="translate(591.992188 0.073594)" xlink:href="#DejaVuSans-61"/>
     <use transform="translate(769.263672 43.870469)scale(0.7)" xlink:href="#DejaVuSans-49"/>
     <use transform="translate(695.263672 -65.232656)scale(0.7)" xlink:href="#DejaVuSans-Oblique-963"/>
     <use transform="translate(739.628906 -54.590469)scale(0.406937)" xlink:href="#STIXSizeOneSym-Regular-8730"/>
     <use transform="translate(791.385583 -65.707656)scale(0.7)" xlink:href="#DejaVuSans-50"/>
     <use transform="translate(835.921716 -65.707656)scale(0.7)" xlink:href="#DejaVuSans-Oblique-960"/>
     <use transform="translate(899.315271 0.073594)" xlink:href="#DejaVuSans-Oblique-101"/>
     <use transform="translate(965.488604 38.354844)scale(0.7)" xlink:href="#DejaVuSans-8722"/>
     <use transform="translate(1024.140948 69.012656)scale(0.49)" xlink:href="#DejaVuSans-49"/>
     <use transform="translate(1024.140948 10.770469)scale(0.49)" xlink:href="#DejaVuSans-50"/>
     <use transform="translate(1064.066241 31.105469)scale(0.702268)" xlink:href="#STIXSizeOneSym-Regular-40"/>
     <use transform="translate(1096.949087 79.203125)scale(0.49)" xlink:href="#DejaVuSans-Oblique-120"/>
     <use transform="translate(1135.493521 79.203125)scale(0.49)" xlink:href="#DejaVuSans-8722"/>
     <use transform="translate(1186.096548 79.203125)scale(0.49)" xlink:href="#DejaVuSans-Oblique-956"/>
     <use transform="translate(1141.949087 20.317813)scale(0.49)" xlink:href="#DejaVuSans-Oblique-963"/>
     <use transform="translate(1226.021841 31.105469)scale(0.702268)" xlink:href="#STIXSizeOneSym-Regular-41"/>
     <use transform="translate(1259.574609 65.151719)scale(0.49)" xlink:href="#DejaVuSans-50"/>
     <path d="M 695.263672 18.870469 
L 695.263672 25.120469 
L 886.815271 25.120469 
L 886.815271 18.870469 
L 695.263672 18.870469 
z
"/>
     <path d="M 782.635583 3.870469 
L 782.635583 8.245469 
L 886.815271 8.245469 
L 886.815271 3.870469 
L 782.635583 3.870469 
z
"/>
     <path d="M 1024.140948 51.512656 
L 1024.140948 55.887656 
L 1055.316241 55.887656 
L 1055.316241 51.512656 
L 1024.140948 51.512656 
z
"/>
     <path d="M 1096.949087 51.512656 
L 1096.949087 55.887656 
L 1217.271841 55.887656 
L 1217.271841 51.512656 
L 1096.949087 51.512656 
z
"/>
    </g>
   </g>
   <g id="text_22">
    <!-- Beta: $p(x) = \frac{x^{\alpha - 1} (1-x)^{\beta - 1}}{B(\alpha, \beta)}$ -->
    <g transform="translate(59.021307 28.795124)scale(0.1 -0.1)">
     <defs>
      <path d="M 19.671875 34.8125 
L 19.671875 8.109375 
L 35.5 8.109375 
Q 43.453125 8.109375 47.28125 11.40625 
Q 51.125 14.703125 51.125 21.484375 
Q 51.125 28.328125 47.28125 31.5625 
Q 43.453125 34.8125 35.5 34.8125 
z
M 19.671875 64.796875 
L 19.671875 42.828125 
L 34.28125 42.828125 
Q 41.5 42.828125 45.03125 45.53125 
Q 48.578125 48.25 48.578125 53.8125 
Q 48.578125 59.328125 45.03125 62.0625 
Q 41.5 64.796875 34.28125 64.796875 
z
M 9.8125 72.90625 
L 35.015625 72.90625 
Q 46.296875 72.90625 52.390625 68.21875 
Q 58.5 63.53125 58.5 54.890625 
Q 58.5 48.1875 55.375 44.234375 
Q 52.25 40.28125 46.1875 39.3125 
Q 53.46875 37.75 57.5 32.78125 
Q 61.53125 27.828125 61.53125 20.40625 
Q 61.53125 10.640625 54.890625 5.3125 
Q 48.25 0 35.984375 0 
L 9.8125 0 
z
" id="DejaVuSans-66"/>
      <path d="M 56.203125 29.59375 
L 56.203125 25.203125 
L 14.890625 25.203125 
Q 15.484375 15.921875 20.484375 11.0625 
Q 25.484375 6.203125 34.421875 6.203125 
Q 39.59375 6.203125 44.453125 7.46875 
Q 49.3125 8.734375 54.109375 11.28125 
L 54.109375 2.78125 
Q 49.265625 0.734375 44.1875 -0.34375 
Q 39.109375 -1.421875 33.890625 -1.421875 
Q 20.796875 -1.421875 13.15625 6.1875 
Q 5.515625 13.8125 5.515625 26.8125 
Q 5.515625 40.234375 12.765625 48.109375 
Q 20.015625 56 32.328125 56 
Q 43.359375 56 49.78125 48.890625 
Q 56.203125 41.796875 56.203125 29.59375 
z
M 47.21875 32.234375 
Q 47.125 39.59375 43.09375 43.984375 
Q 39.0625 48.390625 32.421875 48.390625 
Q 24.90625 48.390625 20.390625 44.140625 
Q 15.875 39.890625 15.1875 32.171875 
z
" id="DejaVuSans-101"/>
      <path d="M 18.3125 70.21875 
L 18.3125 54.6875 
L 36.8125 54.6875 
L 36.8125 47.703125 
L 18.3125 47.703125 
L 18.3125 18.015625 
Q 18.3125 11.328125 20.140625 9.421875 
Q 21.96875 7.515625 27.59375 7.515625 
L 36.8125 7.515625 
L 36.8125 0 
L 27.59375 0 
Q 17.1875 0 13.234375 3.875 
Q 9.28125 7.765625 9.28125 18.015625 
L 9.28125 47.703125 
L 2.6875 47.703125 
L 2.6875 54.6875 
L 9.28125 54.6875 
L 9.28125 70.21875 
z
" id="DejaVuSans-116"/>
      <path d="M 40.921875 25.4375 
L 40.96875 36.71875 
Q 41.015625 48.25 32.328125 48.296875 
Q 25.828125 48.34375 21.78125 42.921875 
Q 16.703125 36.234375 14.984375 27.296875 
Q 12.890625 16.546875 15.53125 11.421875 
Q 18.265625 6.203125 24.171875 6.203125 
Q 30.71875 6.203125 36.234375 16.609375 
z
M 33.84375 55.90625 
Q 49.078125 56.15625 48.875 40.375 
Q 48.875 40.375 56.5 54.6875 
L 64.5 54.6875 
L 48.734375 25.046875 
L 48.578125 14.359375 
Q 48.578125 11.96875 49.90625 9.96875 
Q 51.421875 7.625 52.984375 7.625 
L 57.328125 7.625 
L 55.859375 0 
L 50.4375 0 
Q 45.84375 0 42.53125 4.109375 
Q 40.96875 6.15625 40.921875 10.453125 
Q 37.75 5.21875 32.28125 0.78125 
Q 29.6875 -1.265625 22.703125 -1.21875 
Q 11.28125 -1.125 7.125 6.203125 
Q 2.875 13.8125 5.515625 27.296875 
Q 8.34375 41.796875 15.765625 48.390625 
Q 24.125 55.765625 33.84375 55.90625 
z
" id="DejaVuSans-Oblique-945"/>
      <path d="M 13.625 3.375 
L 8.9375 -20.796875 
L -0.09375 -20.796875 
L 14.5 54.34375 
Q 18.84375 76.609375 39.65625 76.609375 
Q 60.75 76.609375 57.171875 57.8125 
Q 54.734375 44.4375 45.21875 39.546875 
Q 58.015625 35.15625 55.515625 22.125 
Q 51.125 -1.078125 27.484375 -1.03125 
Q 17.140625 -0.984375 13.625 3.375 
z
M 15.921875 15.09375 
Q 19.671875 6.59375 29.296875 6.640625 
Q 43.359375 6.640625 46.34375 21.96875 
Q 49.03125 35.75 26.171875 34.671875 
L 27.78125 42.96875 
Q 45.453125 42.671875 48.53125 58.59375 
Q 50.640625 69.34375 39.203125 69.28125 
Q 26.421875 69.28125 23.484375 54.046875 
z
" id="DejaVuSans-Oblique-946"/>
      <path d="M 16.890625 72.90625 
L 42.09375 72.90625 
Q 52.34375 72.90625 57.421875 69.09375 
Q 62.5 65.28125 62.5 57.625 
Q 62.5 50.59375 58.125 45.484375 
Q 53.765625 40.375 46.6875 39.3125 
Q 52.734375 37.9375 55.765625 34.078125 
Q 58.796875 30.21875 58.796875 23.78125 
Q 58.796875 12.796875 50.65625 6.390625 
Q 42.53125 0 28.421875 0 
L 2.6875 0 
z
M 19.28125 34.8125 
L 14.109375 8.109375 
L 29.984375 8.109375 
Q 38.921875 8.109375 43.75 12.203125 
Q 48.578125 16.3125 48.578125 23.78125 
Q 48.578125 29.546875 45.375 32.171875 
Q 42.1875 34.8125 35.109375 34.8125 
z
M 25.09375 64.796875 
L 20.796875 42.828125 
L 35.5 42.828125 
Q 43.359375 42.828125 47.78125 46.234375 
Q 52.203125 49.65625 52.203125 55.71875 
Q 52.203125 60.453125 49.21875 62.625 
Q 46.234375 64.796875 39.703125 64.796875 
z
" id="DejaVuSans-Oblique-66"/>
      <path d="M 11.71875 12.40625 
L 22.015625 12.40625 
L 22.015625 4 
L 14.015625 -11.625 
L 7.71875 -11.625 
L 11.71875 4 
z
" id="DejaVuSans-44"/>
     </defs>
     <use transform="translate(0 0.636406)" xlink:href="#DejaVuSans-66"/>
     <use transform="translate(68.603516 0.636406)" xlink:href="#DejaVuSans-101"/>
     <use transform="translate(130.126953 0.636406)" xlink:href="#DejaVuSans-116"/>
     <use transform="translate(169.335938 0.636406)" xlink:href="#DejaVuSans-97"/>
     <use transform="translate(230.615234 0.636406)" xlink:href="#DejaVuSans-58"/>
     <use transform="translate(264.306641 0.636406)" xlink:href="#DejaVuSans-32"/>
     <use transform="translate(296.09375 0.636406)" xlink:href="#DejaVuSans-Oblique-112"/>
     <use transform="translate(359.570312 0.636406)" xlink:href="#DejaVuSans-40"/>
     <use transform="translate(398.583984 0.636406)" xlink:href="#DejaVuSans-Oblique-120"/>
     <use transform="translate(457.763672 0.636406)" xlink:href="#DejaVuSans-41"/>
     <use transform="translate(516.259766 0.636406)" xlink:href="#DejaVuSans-61"/>
     <use transform="translate(619.53125 53.664531)scale(0.7)" xlink:href="#DejaVuSans-Oblique-120"/>
     <use transform="translate(664.083333 80.461406)scale(0.49)" xlink:href="#DejaVuSans-Oblique-945"/>
     <use transform="translate(705.929525 80.461406)scale(0.49)" xlink:href="#DejaVuSans-8722"/>
     <use transform="translate(756.532552 80.461406)scale(0.49)" xlink:href="#DejaVuSans-49"/>
     <use transform="translate(789.621908 53.664531)scale(0.7)" xlink:href="#DejaVuSans-40"/>
     <use transform="translate(816.931478 53.664531)scale(0.7)" xlink:href="#DejaVuSans-49"/>
     <use transform="translate(875.105306 53.664531)scale(0.7)" xlink:href="#DejaVuSans-8722"/>
     <use transform="translate(947.395345 53.664531)scale(0.7)" xlink:href="#DejaVuSans-Oblique-120"/>
     <use transform="translate(988.821126 53.664531)scale(0.7)" xlink:href="#DejaVuSans-41"/>
     <use transform="translate(1016.800618 80.461406)scale(0.49)" xlink:href="#DejaVuSans-Oblique-946"/>
     <use transform="translate(1057.618001 80.461406)scale(0.49)" xlink:href="#DejaVuSans-8722"/>
     <use transform="translate(1108.221029 80.461406)scale(0.49)" xlink:href="#DejaVuSans-49"/>
     <use transform="translate(765.53125 -40.443281)scale(0.7)" xlink:href="#DejaVuSans-Oblique-66"/>
     <use transform="translate(813.553711 -40.443281)scale(0.7)" xlink:href="#DejaVuSans-40"/>
     <use transform="translate(840.863281 -40.443281)scale(0.7)" xlink:href="#DejaVuSans-Oblique-945"/>
     <use transform="translate(887.005859 -40.443281)scale(0.7)" xlink:href="#DejaVuSans-44"/>
     <use transform="translate(922.894531 -40.443281)scale(0.7)" xlink:href="#DejaVuSans-Oblique-946"/>
     <use transform="translate(967.567383 -40.443281)scale(0.7)" xlink:href="#DejaVuSans-41"/>
     <path d="M 619.53125 19.433281 
L 619.53125 25.683281 
L 1141.310384 25.683281 
L 1141.310384 19.433281 
L 619.53125 19.433281 
z
"/>
    </g>
   </g>
   <g id="text_23">
    <!-- $B(\alpha, \beta ) = \int_0^1 x^{\alpha - 1} (1-x)^{\beta - 1} \mathrm{d}x$ -->
    <g transform="translate(59.021307 53.589956)scale(0.1 -0.1)">
     <defs>
      <path d="M 33.34375 86.328125 
Q 33.9375 97.859375 39.5 102.4375 
Q 45.0625 107.03125 50.28125 107.03125 
Q 55.515625 107.03125 59.890625 102.734375 
Q 64.265625 98.4375 65.625 88.71875 
L 55.375 87.703125 
Q 54.203125 96.6875 50.296875 96.6875 
Q 45.40625 96.6875 44.828125 84.578125 
L 40.328125 -9.328125 
Q 39.796875 -20.84375 34.171875 -25.4375 
Q 28.5625 -30.03125 23.390625 -30.03125 
Q 18.171875 -30.03125 13.796875 -25.734375 
Q 9.421875 -21.4375 8.0625 -11.71875 
L 18.3125 -10.6875 
Q 19.484375 -19.671875 23.390625 -19.671875 
Q 28.265625 -19.671875 28.859375 -7.625 
z
" id="DejaVuSansDisplay-8747"/>
      <path d="M 45.40625 46.390625 
L 45.40625 75.984375 
L 54.390625 75.984375 
L 54.390625 0 
L 45.40625 0 
L 45.40625 8.203125 
Q 42.578125 3.328125 38.25 0.953125 
Q 33.9375 -1.421875 27.875 -1.421875 
Q 17.96875 -1.421875 11.734375 6.484375 
Q 5.515625 14.40625 5.515625 27.296875 
Q 5.515625 40.1875 11.734375 48.09375 
Q 17.96875 56 27.875 56 
Q 33.9375 56 38.25 53.625 
Q 42.578125 51.265625 45.40625 46.390625 
z
M 14.796875 27.296875 
Q 14.796875 17.390625 18.875 11.75 
Q 22.953125 6.109375 30.078125 6.109375 
Q 37.203125 6.109375 41.296875 11.75 
Q 45.40625 17.390625 45.40625 27.296875 
Q 45.40625 37.203125 41.296875 42.84375 
Q 37.203125 48.484375 30.078125 48.484375 
Q 22.953125 48.484375 18.875 42.84375 
Q 14.796875 37.203125 14.796875 27.296875 
z
" id="DejaVuSans-100"/>
     </defs>
     <use transform="translate(0 0.809375)" xlink:href="#DejaVuSans-Oblique-66"/>
     <use transform="translate(68.603516 0.809375)" xlink:href="#DejaVuSans-40"/>
     <use transform="translate(107.617188 0.809375)" xlink:href="#DejaVuSans-Oblique-945"/>
     <use transform="translate(173.535156 0.809375)" xlink:href="#DejaVuSans-44"/>
     <use transform="translate(224.804688 0.809375)" xlink:href="#DejaVuSans-Oblique-946"/>
     <use transform="translate(288.623047 0.809375)" xlink:href="#DejaVuSans-41"/>
     <use transform="translate(347.119141 0.809375)" xlink:href="#DejaVuSans-61"/>
     <use transform="translate(450.390625 0.809375)" xlink:href="#DejaVuSansDisplay-8747"/>
     <use transform="translate(537.134766 85.965625)scale(0.7)" xlink:href="#DejaVuSans-49"/>
     <use transform="translate(522.150391 -51.096875)scale(0.7)" xlink:href="#DejaVuSans-48"/>
     <use transform="translate(581.670898 0.809375)" xlink:href="#DejaVuSans-Oblique-120"/>
     <use transform="translate(645.316732 39.090625)scale(0.7)" xlink:href="#DejaVuSans-Oblique-945"/>
     <use transform="translate(705.097005 39.090625)scale(0.7)" xlink:href="#DejaVuSans-8722"/>
     <use transform="translate(777.387044 39.090625)scale(0.7)" xlink:href="#DejaVuSans-49"/>
     <use transform="translate(824.657552 0.809375)" xlink:href="#DejaVuSans-40"/>
     <use transform="translate(863.671224 0.809375)" xlink:href="#DejaVuSans-49"/>
     <use transform="translate(946.776693 0.809375)" xlink:href="#DejaVuSans-8722"/>
     <use transform="translate(1050.048177 0.809375)" xlink:href="#DejaVuSans-Oblique-120"/>
     <use transform="translate(1109.227865 0.809375)" xlink:href="#DejaVuSans-41"/>
     <use transform="translate(1149.198568 39.090625)scale(0.7)" xlink:href="#DejaVuSans-Oblique-946"/>
     <use transform="translate(1207.509115 39.090625)scale(0.7)" xlink:href="#DejaVuSans-8722"/>
     <use transform="translate(1279.799154 39.090625)scale(0.7)" xlink:href="#DejaVuSans-49"/>
     <use transform="translate(1327.069661 0.809375)" xlink:href="#DejaVuSans-100"/>
     <use transform="translate(1390.546224 0.809375)" xlink:href="#DejaVuSans-Oblique-120"/>
    </g>
   </g>
   <g id="legend_1">
    <g id="patch_7">
     <path d="M 206.103125 132.17 
L 371.603125 132.17 
Q 373.603125 132.17 373.603125 130.17 
L 373.603125 101.67 
Q 373.603125 99.67 371.603125 99.67 
L 206.103125 99.67 
Q 204.103125 99.67 204.103125 101.67 
L 204.103125 130.17 
Q 204.103125 132.17 206.103125 132.17 
z
" style="fill:#ffffff;opacity:0.8;stroke:#cccccc;stroke-linejoin:miter;"/>
    </g>
    <g id="line2d_21">
     <path d="M 208.103125 107.77 
L 228.103125 107.77 
" style="fill:none;stroke:#1f77b4;stroke-linecap:square;stroke-width:1.5;"/>
    </g>
    <g id="line2d_22"/>
    <g id="text_24">
     <!-- Gaussian, $\mu=0.5$, $\sigma = 0.25$ -->
     <g transform="translate(236.103125 111.27)scale(0.1 -0.1)">
      <defs>
       <path d="M 9.421875 54.6875 
L 18.40625 54.6875 
L 18.40625 0 
L 9.421875 0 
z
M 9.421875 75.984375 
L 18.40625 75.984375 
L 18.40625 64.59375 
L 9.421875 64.59375 
z
" id="DejaVuSans-105"/>
       <path d="M 54.890625 33.015625 
L 54.890625 0 
L 45.90625 0 
L 45.90625 32.71875 
Q 45.90625 40.484375 42.875 44.328125 
Q 39.84375 48.1875 33.796875 48.1875 
Q 26.515625 48.1875 22.3125 43.546875 
Q 18.109375 38.921875 18.109375 30.90625 
L 18.109375 0 
L 9.078125 0 
L 9.078125 54.6875 
L 18.109375 54.6875 
L 18.109375 46.1875 
Q 21.34375 51.125 25.703125 53.5625 
Q 30.078125 56 35.796875 56 
Q 45.21875 56 50.046875 50.171875 
Q 54.890625 44.34375 54.890625 33.015625 
z
" id="DejaVuSans-110"/>
      </defs>
      <use transform="translate(0 0.015625)" xlink:href="#DejaVuSans-71"/>
      <use transform="translate(77.490234 0.015625)" xlink:href="#DejaVuSans-97"/>
      <use transform="translate(138.769531 0.015625)" xlink:href="#DejaVuSans-117"/>
      <use transform="translate(202.148438 0.015625)" xlink:href="#DejaVuSans-115"/>
      <use transform="translate(254.248047 0.015625)" xlink:href="#DejaVuSans-115"/>
      <use transform="translate(306.347656 0.015625)" xlink:href="#DejaVuSans-105"/>
      <use transform="translate(334.130859 0.015625)" xlink:href="#DejaVuSans-97"/>
      <use transform="translate(395.410156 0.015625)" xlink:href="#DejaVuSans-110"/>
      <use transform="translate(458.789062 0.015625)" xlink:href="#DejaVuSans-44"/>
      <use transform="translate(490.576172 0.015625)" xlink:href="#DejaVuSans-32"/>
      <use transform="translate(522.363281 0.015625)" xlink:href="#DejaVuSans-Oblique-956"/>
      <use transform="translate(605.46875 0.015625)" xlink:href="#DejaVuSans-61"/>
      <use transform="translate(708.740234 0.015625)" xlink:href="#DejaVuSans-48"/>
      <use transform="translate(772.363281 0.015625)" xlink:href="#DejaVuSans-46"/>
      <use transform="translate(804.150391 0.015625)" xlink:href="#DejaVuSans-53"/>
      <use transform="translate(867.773438 0.015625)" xlink:href="#DejaVuSans-44"/>
      <use transform="translate(899.560547 0.015625)" xlink:href="#DejaVuSans-32"/>
      <use transform="translate(931.347656 0.015625)" xlink:href="#DejaVuSans-Oblique-963"/>
      <use transform="translate(1014.208984 0.015625)" xlink:href="#DejaVuSans-61"/>
      <use transform="translate(1117.480469 0.015625)" xlink:href="#DejaVuSans-48"/>
      <use transform="translate(1181.103516 0.015625)" xlink:href="#DejaVuSans-46"/>
      <use transform="translate(1207.390625 0.015625)" xlink:href="#DejaVuSans-50"/>
      <use transform="translate(1271.013672 0.015625)" xlink:href="#DejaVuSans-53"/>
     </g>
    </g>
    <g id="line2d_23">
     <path d="M 208.103125 122.57 
L 228.103125 122.57 
" style="fill:none;stroke:#ff7f0e;stroke-linecap:square;stroke-width:1.5;"/>
    </g>
    <g id="line2d_24"/>
    <g id="text_25">
     <!-- Beta, $\alpha=2$, $\beta = 2$ -->
     <g transform="translate(236.103125 126.07)scale(0.1 -0.1)">
      <use transform="translate(0 0.390625)" xlink:href="#DejaVuSans-66"/>
      <use transform="translate(68.603516 0.390625)" xlink:href="#DejaVuSans-101"/>
      <use transform="translate(130.126953 0.390625)" xlink:href="#DejaVuSans-116"/>
      <use transform="translate(169.335938 0.390625)" xlink:href="#DejaVuSans-97"/>
      <use transform="translate(230.615234 0.390625)" xlink:href="#DejaVuSans-44"/>
      <use transform="translate(262.402344 0.390625)" xlink:href="#DejaVuSans-32"/>
      <use transform="translate(294.189453 0.390625)" xlink:href="#DejaVuSans-Oblique-945"/>
      <use transform="translate(379.589844 0.390625)" xlink:href="#DejaVuSans-61"/>
      <use transform="translate(482.861328 0.390625)" xlink:href="#DejaVuSans-50"/>
      <use transform="translate(546.484375 0.390625)" xlink:href="#DejaVuSans-44"/>
      <use transform="translate(578.271484 0.390625)" xlink:href="#DejaVuSans-32"/>
      <use transform="translate(610.058594 0.390625)" xlink:href="#DejaVuSans-Oblique-946"/>
      <use transform="translate(693.359375 0.390625)" xlink:href="#DejaVuSans-61"/>
      <use transform="translate(796.630859 0.390625)" xlink:href="#DejaVuSans-50"/>
     </g>
    </g>
   </g>
  </g>
 </g>
 <defs>
  <clipPath id="p54ef1526de">
   <rect height="217.44" width="334.8" x="43.803125" y="7.2"/>
  </clipPath>
 </defs>
</svg>
