<?xml version="1.0" encoding="utf-8" standalone="no"?>
<!DOCTYPE svg PUBLIC "-//W3C//DTD SVG 1.1//EN"
  "http://www.w3.org/Graphics/SVG/1.1/DTD/svg11.dtd">
<svg xmlns:xlink="http://www.w3.org/1999/xlink" width="425.241875pt" height="310.86825pt" viewBox="0 0 425.241875 310.86825" xmlns="http://www.w3.org/2000/svg" version="1.1">
 <metadata>
  <rdf:RDF xmlns:dc="http://purl.org/dc/elements/1.1/" xmlns:cc="http://creativecommons.org/ns#" xmlns:rdf="http://www.w3.org/1999/02/22-rdf-syntax-ns#">
   <cc:Work>
    <dc:type rdf:resource="http://purl.org/dc/dcmitype/StillImage"/>
    <dc:date>2022-11-22T22:31:54.561861</dc:date>
    <dc:format>image/svg+xml</dc:format>
    <dc:creator>
     <cc:Agent>
      <dc:title>Matplotlib v3.6.1, https://matplotlib.org/</dc:title>
     </cc:Agent>
    </dc:creator>
   </cc:Work>
  </rdf:RDF>
 </metadata>
 <defs>
  <style type="text/css">*{stroke-linejoin: round; stroke-linecap: butt}</style>
 </defs>
 <g id="figure_1">
  <g id="patch_1">
   <path d="M 0 310.86825 
L 425.241875 310.86825 
L 425.241875 0 
L 0 0 
z
" style="fill: #ffffff"/>
  </g>
  <g id="axes_1">
   <g id="patch_2">
    <path d="M 51.378125 273.312 
L 408.498125 273.312 
L 408.498125 7.2 
L 51.378125 7.2 
z
" style="fill: #ffffff"/>
   </g>
   <g id="matplotlib.axis_1">
    <g id="xtick_1">
     <g id="line2d_1">
      <defs>
       <path id="mb32df44da4" d="M 0 0 
L 0 3.5 
" style="stroke: #000000; stroke-width: 0.8"/>
      </defs>
      <g>
       <use xlink:href="#mb32df44da4" x="51.378125" y="273.312" style="stroke: #000000; stroke-width: 0.8"/>
      </g>
     </g>
     <g id="text_1">
      <!-- 0 -->
      <g transform="translate(48.196875 287.910437) scale(0.1 -0.1)">
       <defs>
        <path id="DejaVuSans-30" d="M 2034 4250 
Q 1547 4250 1301 3770 
Q 1056 3291 1056 2328 
Q 1056 1369 1301 889 
Q 1547 409 2034 409 
Q 2525 409 2770 889 
Q 3016 1369 3016 2328 
Q 3016 3291 2770 3770 
Q 2525 4250 2034 4250 
z
M 2034 4750 
Q 2819 4750 3233 4129 
Q 3647 3509 3647 2328 
Q 3647 1150 3233 529 
Q 2819 -91 2034 -91 
Q 1250 -91 836 529 
Q 422 1150 422 2328 
Q 422 3509 836 4129 
Q 1250 4750 2034 4750 
z
" transform="scale(0.015625)"/>
       </defs>
       <use xlink:href="#DejaVuSans-30"/>
      </g>
     </g>
    </g>
    <g id="xtick_2">
     <g id="line2d_2">
      <g>
       <use xlink:href="#mb32df44da4" x="122.802125" y="273.312" style="stroke: #000000; stroke-width: 0.8"/>
      </g>
     </g>
     <g id="text_2">
      <!-- 100 -->
      <g transform="translate(113.258375 287.910437) scale(0.1 -0.1)">
       <defs>
        <path id="DejaVuSans-31" d="M 794 531 
L 1825 531 
L 1825 4091 
L 703 3866 
L 703 4441 
L 1819 4666 
L 2450 4666 
L 2450 531 
L 3481 531 
L 3481 0 
L 794 0 
L 794 531 
z
" transform="scale(0.015625)"/>
       </defs>
       <use xlink:href="#DejaVuSans-31"/>
       <use xlink:href="#DejaVuSans-30" x="63.623047"/>
       <use xlink:href="#DejaVuSans-30" x="127.246094"/>
      </g>
     </g>
    </g>
    <g id="xtick_3">
     <g id="line2d_3">
      <g>
       <use xlink:href="#mb32df44da4" x="194.226125" y="273.312" style="stroke: #000000; stroke-width: 0.8"/>
      </g>
     </g>
     <g id="text_3">
      <!-- 200 -->
      <g transform="translate(184.682375 287.910437) scale(0.1 -0.1)">
       <defs>
        <path id="DejaVuSans-32" d="M 1228 531 
L 3431 531 
L 3431 0 
L 469 0 
L 469 531 
Q 828 903 1448 1529 
Q 2069 2156 2228 2338 
Q 2531 2678 2651 2914 
Q 2772 3150 2772 3378 
Q 2772 3750 2511 3984 
Q 2250 4219 1831 4219 
Q 1534 4219 1204 4116 
Q 875 4013 500 3803 
L 500 4441 
Q 881 4594 1212 4672 
Q 1544 4750 1819 4750 
Q 2544 4750 2975 4387 
Q 3406 4025 3406 3419 
Q 3406 3131 3298 2873 
Q 3191 2616 2906 2266 
Q 2828 2175 2409 1742 
Q 1991 1309 1228 531 
z
" transform="scale(0.015625)"/>
       </defs>
       <use xlink:href="#DejaVuSans-32"/>
       <use xlink:href="#DejaVuSans-30" x="63.623047"/>
       <use xlink:href="#DejaVuSans-30" x="127.246094"/>
      </g>
     </g>
    </g>
    <g id="xtick_4">
     <g id="line2d_4">
      <g>
       <use xlink:href="#mb32df44da4" x="265.650125" y="273.312" style="stroke: #000000; stroke-width: 0.8"/>
      </g>
     </g>
     <g id="text_4">
      <!-- 300 -->
      <g transform="translate(256.106375 287.910437) scale(0.1 -0.1)">
       <defs>
        <path id="DejaVuSans-33" d="M 2597 2516 
Q 3050 2419 3304 2112 
Q 3559 1806 3559 1356 
Q 3559 666 3084 287 
Q 2609 -91 1734 -91 
Q 1441 -91 1130 -33 
Q 819 25 488 141 
L 488 750 
Q 750 597 1062 519 
Q 1375 441 1716 441 
Q 2309 441 2620 675 
Q 2931 909 2931 1356 
Q 2931 1769 2642 2001 
Q 2353 2234 1838 2234 
L 1294 2234 
L 1294 2753 
L 1863 2753 
Q 2328 2753 2575 2939 
Q 2822 3125 2822 3475 
Q 2822 3834 2567 4026 
Q 2313 4219 1838 4219 
Q 1578 4219 1281 4162 
Q 984 4106 628 3988 
L 628 4550 
Q 988 4650 1302 4700 
Q 1616 4750 1894 4750 
Q 2613 4750 3031 4423 
Q 3450 4097 3450 3541 
Q 3450 3153 3228 2886 
Q 3006 2619 2597 2516 
z
" transform="scale(0.015625)"/>
       </defs>
       <use xlink:href="#DejaVuSans-33"/>
       <use xlink:href="#DejaVuSans-30" x="63.623047"/>
       <use xlink:href="#DejaVuSans-30" x="127.246094"/>
      </g>
     </g>
    </g>
    <g id="xtick_5">
     <g id="line2d_5">
      <g>
       <use xlink:href="#mb32df44da4" x="337.074125" y="273.312" style="stroke: #000000; stroke-width: 0.8"/>
      </g>
     </g>
     <g id="text_5">
      <!-- 400 -->
      <g transform="translate(327.530375 287.910437) scale(0.1 -0.1)">
       <defs>
        <path id="DejaVuSans-34" d="M 2419 4116 
L 825 1625 
L 2419 1625 
L 2419 4116 
z
M 2253 4666 
L 3047 4666 
L 3047 1625 
L 3713 1625 
L 3713 1100 
L 3047 1100 
L 3047 0 
L 2419 0 
L 2419 1100 
L 313 1100 
L 313 1709 
L 2253 4666 
z
" transform="scale(0.015625)"/>
       </defs>
       <use xlink:href="#DejaVuSans-34"/>
       <use xlink:href="#DejaVuSans-30" x="63.623047"/>
       <use xlink:href="#DejaVuSans-30" x="127.246094"/>
      </g>
     </g>
    </g>
    <g id="xtick_6">
     <g id="line2d_6">
      <g>
       <use xlink:href="#mb32df44da4" x="408.498125" y="273.312" style="stroke: #000000; stroke-width: 0.8"/>
      </g>
     </g>
     <g id="text_6">
      <!-- 500 -->
      <g transform="translate(398.954375 287.910437) scale(0.1 -0.1)">
       <defs>
        <path id="DejaVuSans-35" d="M 691 4666 
L 3169 4666 
L 3169 4134 
L 1269 4134 
L 1269 2991 
Q 1406 3038 1543 3061 
Q 1681 3084 1819 3084 
Q 2600 3084 3056 2656 
Q 3513 2228 3513 1497 
Q 3513 744 3044 326 
Q 2575 -91 1722 -91 
Q 1428 -91 1123 -41 
Q 819 9 494 109 
L 494 744 
Q 775 591 1075 516 
Q 1375 441 1709 441 
Q 2250 441 2565 725 
Q 2881 1009 2881 1497 
Q 2881 1984 2565 2268 
Q 2250 2553 1709 2553 
Q 1456 2553 1204 2497 
Q 953 2441 691 2322 
L 691 4666 
z
" transform="scale(0.015625)"/>
       </defs>
       <use xlink:href="#DejaVuSans-35"/>
       <use xlink:href="#DejaVuSans-30" x="63.623047"/>
       <use xlink:href="#DejaVuSans-30" x="127.246094"/>
      </g>
     </g>
    </g>
    <g id="text_7">
     <!-- epoch -->
     <g transform="translate(214.71 301.588562) scale(0.1 -0.1)">
      <defs>
       <path id="DejaVuSans-65" d="M 3597 1894 
L 3597 1613 
L 953 1613 
Q 991 1019 1311 708 
Q 1631 397 2203 397 
Q 2534 397 2845 478 
Q 3156 559 3463 722 
L 3463 178 
Q 3153 47 2828 -22 
Q 2503 -91 2169 -91 
Q 1331 -91 842 396 
Q 353 884 353 1716 
Q 353 2575 817 3079 
Q 1281 3584 2069 3584 
Q 2775 3584 3186 3129 
Q 3597 2675 3597 1894 
z
M 3022 2063 
Q 3016 2534 2758 2815 
Q 2500 3097 2075 3097 
Q 1594 3097 1305 2825 
Q 1016 2553 972 2059 
L 3022 2063 
z
" transform="scale(0.015625)"/>
       <path id="DejaVuSans-70" d="M 1159 525 
L 1159 -1331 
L 581 -1331 
L 581 3500 
L 1159 3500 
L 1159 2969 
Q 1341 3281 1617 3432 
Q 1894 3584 2278 3584 
Q 2916 3584 3314 3078 
Q 3713 2572 3713 1747 
Q 3713 922 3314 415 
Q 2916 -91 2278 -91 
Q 1894 -91 1617 61 
Q 1341 213 1159 525 
z
M 3116 1747 
Q 3116 2381 2855 2742 
Q 2594 3103 2138 3103 
Q 1681 3103 1420 2742 
Q 1159 2381 1159 1747 
Q 1159 1113 1420 752 
Q 1681 391 2138 391 
Q 2594 391 2855 752 
Q 3116 1113 3116 1747 
z
" transform="scale(0.015625)"/>
       <path id="DejaVuSans-6f" d="M 1959 3097 
Q 1497 3097 1228 2736 
Q 959 2375 959 1747 
Q 959 1119 1226 758 
Q 1494 397 1959 397 
Q 2419 397 2687 759 
Q 2956 1122 2956 1747 
Q 2956 2369 2687 2733 
Q 2419 3097 1959 3097 
z
M 1959 3584 
Q 2709 3584 3137 3096 
Q 3566 2609 3566 1747 
Q 3566 888 3137 398 
Q 2709 -91 1959 -91 
Q 1206 -91 779 398 
Q 353 888 353 1747 
Q 353 2609 779 3096 
Q 1206 3584 1959 3584 
z
" transform="scale(0.015625)"/>
       <path id="DejaVuSans-63" d="M 3122 3366 
L 3122 2828 
Q 2878 2963 2633 3030 
Q 2388 3097 2138 3097 
Q 1578 3097 1268 2742 
Q 959 2388 959 1747 
Q 959 1106 1268 751 
Q 1578 397 2138 397 
Q 2388 397 2633 464 
Q 2878 531 3122 666 
L 3122 134 
Q 2881 22 2623 -34 
Q 2366 -91 2075 -91 
Q 1284 -91 818 406 
Q 353 903 353 1747 
Q 353 2603 823 3093 
Q 1294 3584 2113 3584 
Q 2378 3584 2631 3529 
Q 2884 3475 3122 3366 
z
" transform="scale(0.015625)"/>
       <path id="DejaVuSans-68" d="M 3513 2113 
L 3513 0 
L 2938 0 
L 2938 2094 
Q 2938 2591 2744 2837 
Q 2550 3084 2163 3084 
Q 1697 3084 1428 2787 
Q 1159 2491 1159 1978 
L 1159 0 
L 581 0 
L 581 4863 
L 1159 4863 
L 1159 2956 
Q 1366 3272 1645 3428 
Q 1925 3584 2291 3584 
Q 2894 3584 3203 3211 
Q 3513 2838 3513 2113 
z
" transform="scale(0.015625)"/>
      </defs>
      <use xlink:href="#DejaVuSans-65"/>
      <use xlink:href="#DejaVuSans-70" x="61.523438"/>
      <use xlink:href="#DejaVuSans-6f" x="125"/>
      <use xlink:href="#DejaVuSans-63" x="186.181641"/>
      <use xlink:href="#DejaVuSans-68" x="241.162109"/>
     </g>
    </g>
   </g>
   <g id="matplotlib.axis_2">
    <g id="ytick_1">
     <g id="line2d_7">
      <defs>
       <path id="m40eb9997f4" d="M 0 0 
L -3.5 0 
" style="stroke: #000000; stroke-width: 0.8"/>
      </defs>
      <g>
       <use xlink:href="#m40eb9997f4" x="51.378125" y="241.363339" style="stroke: #000000; stroke-width: 0.8"/>
      </g>
     </g>
     <g id="text_8">
      <!-- $\mathdefault{10^{-1}}$ -->
      <g transform="translate(20.878125 245.162558) scale(0.1 -0.1)">
       <defs>
        <path id="DejaVuSans-2212" d="M 678 2272 
L 4684 2272 
L 4684 1741 
L 678 1741 
L 678 2272 
z
" transform="scale(0.015625)"/>
       </defs>
       <use xlink:href="#DejaVuSans-31" transform="translate(0 0.684375)"/>
       <use xlink:href="#DejaVuSans-30" transform="translate(63.623047 0.684375)"/>
       <use xlink:href="#DejaVuSans-2212" transform="translate(128.203125 38.965625) scale(0.7)"/>
       <use xlink:href="#DejaVuSans-31" transform="translate(186.855469 38.965625) scale(0.7)"/>
      </g>
     </g>
    </g>
    <g id="ytick_2">
     <g id="line2d_8">
      <g>
       <use xlink:href="#m40eb9997f4" x="51.378125" y="179.258631" style="stroke: #000000; stroke-width: 0.8"/>
      </g>
     </g>
     <g id="text_9">
      <!-- $\mathdefault{10^{1}}$ -->
      <g transform="translate(26.778125 183.05785) scale(0.1 -0.1)">
       <use xlink:href="#DejaVuSans-31" transform="translate(0 0.684375)"/>
       <use xlink:href="#DejaVuSans-30" transform="translate(63.623047 0.684375)"/>
       <use xlink:href="#DejaVuSans-31" transform="translate(128.203125 38.965625) scale(0.7)"/>
      </g>
     </g>
    </g>
    <g id="ytick_3">
     <g id="line2d_9">
      <g>
       <use xlink:href="#m40eb9997f4" x="51.378125" y="117.153923" style="stroke: #000000; stroke-width: 0.8"/>
      </g>
     </g>
     <g id="text_10">
      <!-- $\mathdefault{10^{3}}$ -->
      <g transform="translate(26.778125 120.953141) scale(0.1 -0.1)">
       <use xlink:href="#DejaVuSans-31" transform="translate(0 0.765625)"/>
       <use xlink:href="#DejaVuSans-30" transform="translate(63.623047 0.765625)"/>
       <use xlink:href="#DejaVuSans-33" transform="translate(128.203125 39.046875) scale(0.7)"/>
      </g>
     </g>
    </g>
    <g id="ytick_4">
     <g id="line2d_10">
      <g>
       <use xlink:href="#m40eb9997f4" x="51.378125" y="55.049214" style="stroke: #000000; stroke-width: 0.8"/>
      </g>
     </g>
     <g id="text_11">
      <!-- $\mathdefault{10^{5}}$ -->
      <g transform="translate(26.778125 58.848433) scale(0.1 -0.1)">
       <use xlink:href="#DejaVuSans-31" transform="translate(0 0.684375)"/>
       <use xlink:href="#DejaVuSans-30" transform="translate(63.623047 0.684375)"/>
       <use xlink:href="#DejaVuSans-35" transform="translate(128.203125 38.965625) scale(0.7)"/>
      </g>
     </g>
    </g>
    <g id="text_12">
     <!-- MSE -->
     <g transform="translate(14.798438 150.903656) rotate(-90) scale(0.1 -0.1)">
      <defs>
       <path id="DejaVuSans-4d" d="M 628 4666 
L 1569 4666 
L 2759 1491 
L 3956 4666 
L 4897 4666 
L 4897 0 
L 4281 0 
L 4281 4097 
L 3078 897 
L 2444 897 
L 1241 4097 
L 1241 0 
L 628 0 
L 628 4666 
z
" transform="scale(0.015625)"/>
       <path id="DejaVuSans-53" d="M 3425 4513 
L 3425 3897 
Q 3066 4069 2747 4153 
Q 2428 4238 2131 4238 
Q 1616 4238 1336 4038 
Q 1056 3838 1056 3469 
Q 1056 3159 1242 3001 
Q 1428 2844 1947 2747 
L 2328 2669 
Q 3034 2534 3370 2195 
Q 3706 1856 3706 1288 
Q 3706 609 3251 259 
Q 2797 -91 1919 -91 
Q 1588 -91 1214 -16 
Q 841 59 441 206 
L 441 856 
Q 825 641 1194 531 
Q 1563 422 1919 422 
Q 2459 422 2753 634 
Q 3047 847 3047 1241 
Q 3047 1584 2836 1778 
Q 2625 1972 2144 2069 
L 1759 2144 
Q 1053 2284 737 2584 
Q 422 2884 422 3419 
Q 422 4038 858 4394 
Q 1294 4750 2059 4750 
Q 2388 4750 2728 4690 
Q 3069 4631 3425 4513 
z
" transform="scale(0.015625)"/>
       <path id="DejaVuSans-45" d="M 628 4666 
L 3578 4666 
L 3578 4134 
L 1259 4134 
L 1259 2753 
L 3481 2753 
L 3481 2222 
L 1259 2222 
L 1259 531 
L 3634 531 
L 3634 0 
L 628 0 
L 628 4666 
z
" transform="scale(0.015625)"/>
      </defs>
      <use xlink:href="#DejaVuSans-4d"/>
      <use xlink:href="#DejaVuSans-53" x="86.279297"/>
      <use xlink:href="#DejaVuSans-45" x="149.755859"/>
     </g>
    </g>
   </g>
   <g id="line2d_11">
    <path d="M 51.378125 19.296 
L 52.092365 57.087112 
L 52.806605 46.529534 
L 53.520845 31.841294 
L 54.235085 32.169881 
L 54.949325 39.372726 
L 55.663565 55.391318 
L 56.377805 112.428225 
L 57.092045 66.335094 
L 57.806285 49.744826 
L 58.520525 44.298286 
L 59.234765 44.534589 
L 59.949005 49.463703 
L 60.663245 60.219609 
L 62.091725 108.125768 
L 62.805965 71.064272 
L 63.520205 59.758804 
L 64.234445 55.803502 
L 64.948685 56.49735 
L 65.662925 61.513364 
L 66.377165 72.299696 
L 67.805645 117.979019 
L 68.519885 82.125501 
L 69.234125 70.892938 
L 69.948365 66.934264 
L 70.662605 67.676363 
L 71.376845 72.905368 
L 72.091085 84.329968 
L 72.805325 111.189247 
L 73.519565 120.71919 
L 74.233805 90.690861 
L 74.948045 80.614311 
L 75.662285 77.431962 
L 76.376525 79.034824 
L 77.090765 85.574372 
L 77.805005 99.808664 
L 78.519245 142.383682 
L 79.233485 116.001413 
L 79.947725 96.1941 
L 80.661965 89.010334 
L 81.376205 87.858807 
L 82.090445 91.679902 
L 82.804685 101.670537 
L 84.233165 147.9932 
L 84.947405 111.586228 
L 85.661645 100.738552 
L 86.375885 97.6407 
L 87.090125 99.944406 
L 87.804365 108.166873 
L 88.518605 127.237754 
L 89.232845 184.754397 
L 89.947085 124.394832 
L 90.661325 111.336696 
L 91.375565 107.36873 
L 92.089805 109.244231 
L 92.804045 117.296956 
L 93.518285 136.530833 
L 94.232525 189.542222 
L 94.946765 132.864944 
L 95.661005 120.229128 
L 96.375245 116.72169 
L 97.089485 119.30295 
L 97.803725 128.708552 
L 99.232205 172.352561 
L 99.946445 137.78292 
L 100.660685 127.84258 
L 101.374925 126.056227 
L 102.089165 130.577929 
L 102.803405 143.439595 
L 103.517645 182.916382 
L 104.946125 141.359053 
L 105.660365 135.267616 
L 106.374605 136.311575 
L 107.088845 144.370499 
L 107.803085 165.273152 
L 108.517325 198.775055 
L 109.231565 156.457893 
L 109.945805 145.704586 
L 110.660045 143.927972 
L 111.374285 149.063195 
L 112.088525 163.861321 
L 112.802765 223.613805 
L 113.517005 172.257819 
L 114.231245 156.472491 
L 114.945485 152.393476 
L 115.659725 155.6046 
L 116.373965 167.431381 
L 117.088205 203.575601 
L 117.802445 187.467975 
L 118.516685 166.839647 
L 119.230925 161.073517 
L 119.945165 163.12047 
L 120.659405 173.516006 
L 121.373645 203.680891 
L 122.087885 200.141827 
L 122.802125 176.241832 
L 123.516365 169.592809 
L 124.230605 171.182712 
L 124.944845 181.227973 
L 125.659085 210.483083 
L 126.373325 208.577487 
L 127.087565 184.400569 
L 127.801805 177.800038 
L 128.516045 179.638033 
L 129.230285 190.311446 
L 129.944525 222.337522 
L 130.658765 212.859571 
L 131.373005 191.385786 
L 132.087245 185.751616 
L 132.801485 188.546808 
L 133.515725 200.910265 
L 134.229965 240.062215 
L 134.944205 214.728398 
L 135.658445 197.572647 
L 136.372685 193.671445 
L 137.086925 198.152379 
L 137.801165 213.580085 
L 138.515405 254.950451 
L 139.229645 215.964541 
L 139.943885 203.480219 
L 140.658125 201.922337 
L 141.372365 208.908167 
L 142.086605 229.394254 
L 142.800845 244.845447 
L 143.515085 217.679003 
L 144.229325 209.666652 
L 144.943565 210.962601 
L 145.657805 221.460478 
L 146.372045 248.160225 
L 147.086285 236.720755 
L 147.800525 220.455376 
L 148.514765 216.63411 
L 149.229005 221.334287 
L 149.943245 236.468569 
L 150.657485 254.065082 
L 151.371725 233.607267 
L 152.085965 224.613759 
L 152.800205 224.860936 
L 153.514445 233.486242 
L 154.228685 251.34043 
L 154.942925 246.930082 
L 155.657165 233.915081 
L 156.371405 230.396273 
L 157.085645 234.631373 
L 157.799885 246.580938 
L 158.514125 254.332433 
L 159.228365 243.139598 
L 159.942605 236.8431 
L 160.656845 237.811755 
L 161.371085 245.313896 
L 162.085325 254.558724 
L 162.799565 250.219732 
L 163.513805 243.15531 
L 164.228045 241.807555 
L 164.942285 246.098345 
L 165.656525 253.301991 
L 166.370765 253.794849 
L 167.085005 248.305539 
L 167.799245 245.766348 
L 168.513485 247.807164 
L 169.227725 252.726091 
L 169.941965 254.849235 
L 171.370445 249.050501 
L 172.084685 249.678365 
L 172.798925 252.802435 
L 173.513165 254.942645 
L 174.227405 253.531507 
L 174.941645 251.429687 
L 175.655885 251.39135 
L 177.084365 254.867455 
L 177.798605 254.388445 
L 178.512845 252.992415 
L 179.227085 252.657087 
L 180.655565 254.821234 
L 181.369805 254.739018 
L 182.084045 253.874317 
L 182.798285 253.523034 
L 183.512525 254.084516 
L 184.226765 254.82765 
L 184.941005 254.871856 
L 185.655245 254.360995 
L 186.369485 254.086246 
L 187.083725 254.376228 
L 187.797965 254.852823 
L 188.512205 254.918776 
L 189.940685 254.411937 
L 192.083405 254.936861 
L 193.511885 254.639862 
L 195.654605 254.946797 
L 197.083085 254.764306 
L 199.225805 254.945296 
L 200.654285 254.842906 
L 203.511245 254.908532 
L 207.082445 254.928836 
L 219.224525 254.95523 
L 298.505165 254.958464 
L 323.503565 254.956839 
L 349.930445 254.96027 
L 407.783885 254.960784 
L 407.783885 254.960784 
" clip-path="url(#pdf16d616fb)" style="fill: none; stroke: #1f77b4; stroke-linecap: square"/>
   </g>
   <g id="line2d_12">
    <path d="M 51.378125 58.287237 
L 52.092365 47.72843 
L 52.806605 33.040435 
L 53.520845 33.369026 
L 54.235085 40.571803 
L 54.949325 56.590155 
L 55.663565 113.623164 
L 56.377805 67.535272 
L 57.092045 50.944628 
L 57.806285 45.498012 
L 58.520525 45.734321 
L 59.234765 50.663496 
L 59.949005 61.419615 
L 61.377485 109.321229 
L 62.091725 72.262666 
L 62.805965 60.957519 
L 63.520205 57.002311 
L 64.234445 57.696147 
L 64.948685 62.71203 
L 65.662925 73.498027 
L 67.091405 119.183924 
L 67.805645 83.326327 
L 68.519885 72.093279 
L 69.234125 68.134458 
L 69.948365 68.876586 
L 70.662605 74.105777 
L 71.376845 85.530943 
L 72.091085 112.392958 
L 72.805325 121.912197 
L 73.519565 91.888144 
L 74.233805 81.81227 
L 74.948045 78.630076 
L 75.662285 80.232855 
L 76.376525 86.772026 
L 77.090765 101.005096 
L 77.805005 143.568741 
L 78.519245 117.20601 
L 79.233485 97.396013 
L 79.947725 90.21163 
L 80.661965 89.060007 
L 81.376205 92.881386 
L 82.090445 102.873008 
L 83.518925 149.175076 
L 84.233165 112.781068 
L 84.947405 101.934875 
L 85.661645 98.837373 
L 86.375885 101.140839 
L 87.090125 109.362241 
L 87.804365 128.429085 
L 88.518605 186.018848 
L 89.232845 125.601379 
L 89.947085 112.540467 
L 90.661325 108.571935 
L 91.375565 110.447692 
L 92.089805 118.501857 
L 92.804045 137.741563 
L 93.518285 190.656078 
L 94.232525 134.054325 
L 94.946765 121.422304 
L 95.661005 117.915653 
L 96.375245 120.496278 
L 97.089485 129.899429 
L 98.517965 173.593765 
L 99.232205 138.994018 
L 99.946445 129.050112 
L 100.660685 127.263244 
L 101.374925 131.786309 
L 102.089165 144.653506 
L 102.803405 184.176703 
L 104.231885 142.544668 
L 104.946125 136.455998 
L 105.660365 137.499629 
L 106.374605 145.55456 
L 107.088845 166.438617 
L 107.803085 200.078923 
L 108.517325 157.680473 
L 109.231565 146.919793 
L 109.945805 145.14228 
L 110.660045 150.28042 
L 111.374285 165.091249 
L 112.088525 225.033476 
L 112.802765 173.413343 
L 113.517005 157.647504 
L 114.231245 153.571984 
L 114.945485 156.780552 
L 115.659725 168.593825 
L 116.373965 204.627491 
L 117.088205 188.739227 
L 117.802445 168.07295 
L 118.516685 162.30062 
L 119.230925 164.349827 
L 119.945165 174.758881 
L 120.659405 205.002902 
L 121.373645 201.212995 
L 122.087885 177.389943 
L 122.802125 170.752734 
L 123.516365 172.33975 
L 124.230605 182.365704 
L 124.944845 211.489712 
L 125.659085 209.923505 
L 126.373325 185.663821 
L 127.087565 179.049989 
L 127.801805 180.89142 
L 128.516045 191.590376 
L 129.230285 223.751781 
L 129.944525 213.845163 
L 130.658765 192.4936 
L 131.373005 186.877344 
L 132.087245 189.663997 
L 132.801485 201.977263 
L 133.515725 240.655673 
L 134.229965 216.104188 
L 134.944205 198.873582 
L 135.658445 194.959345 
L 136.372685 199.454394 
L 137.086925 214.947464 
L 137.801165 255.585839 
L 138.515405 216.925493 
L 139.229645 204.533384 
L 139.943885 202.985379 
L 140.658125 209.926536 
L 141.372365 230.184406 
L 142.086605 246.235616 
L 142.800845 219.065877 
L 143.515085 211.013031 
L 144.229325 212.316822 
L 144.943565 222.866828 
L 145.657805 249.465775 
L 146.372045 237.385795 
L 147.086285 221.367713 
L 147.800525 217.591097 
L 148.514765 222.238233 
L 149.229005 237.141908 
L 149.943245 254.962125 
L 150.657485 235.062398 
L 151.371725 226.036487 
L 152.085965 226.286553 
L 152.800205 234.940032 
L 153.514445 252.49773 
L 154.228685 247.383976 
L 154.942925 234.635278 
L 155.657165 231.171412 
L 156.371405 235.332374 
L 157.085645 247.042822 
L 157.799885 255.186394 
L 158.514125 244.560116 
L 159.228365 238.299025 
L 159.942605 239.264246 
L 160.656845 246.694857 
L 161.371085 255.368459 
L 162.085325 250.627147 
L 162.799565 243.689679 
L 163.513805 242.367947 
L 164.228045 246.564402 
L 164.942285 253.735324 
L 165.656525 254.732137 
L 166.370765 249.604764 
L 167.085005 247.137844 
L 167.799245 249.120109 
L 168.513485 253.780296 
L 169.227725 255.4262 
L 169.941965 252.100539 
L 170.656205 249.477886 
L 171.370445 250.09241 
L 172.084685 253.226772 
L 172.798925 255.565838 
L 173.513165 254.501352 
L 174.227405 252.582482 
L 174.941645 252.543745 
L 175.655885 254.234033 
L 176.370125 255.587535 
L 177.084365 254.895619 
L 177.798605 253.418345 
L 178.512845 253.071648 
L 179.941325 255.389976 
L 180.655565 255.507152 
L 181.369805 254.798624 
L 182.084045 254.500999 
L 183.512525 255.56638 
L 184.226765 255.445994 
L 184.941005 254.850014 
L 185.655245 254.55449 
L 186.369485 254.876961 
L 187.083725 255.427453 
L 187.797965 255.614764 
L 189.226445 255.254746 
L 190.654925 255.602691 
L 191.369165 255.559108 
L 192.083405 255.30204 
L 192.797645 255.169502 
L 193.511885 255.282761 
L 194.226125 255.517599 
L 194.940365 255.624658 
L 197.083085 255.565584 
L 198.511565 255.572863 
L 199.940045 255.407829 
L 202.797005 255.607742 
L 227.795405 255.609373 
L 288.505805 255.60624 
L 305.647565 255.611627 
L 324.217805 255.606062 
L 407.783885 255.611578 
L 407.783885 255.611578 
" clip-path="url(#pdf16d616fb)" style="fill: none; stroke: #ff7f0e; stroke-linecap: square"/>
   </g>
   <g id="line2d_13">
    <path d="M 51.378125 64.368536 
L 52.092365 53.80882 
L 52.806605 39.12103 
L 53.520845 39.44962 
L 54.235085 46.652348 
L 54.949325 62.67054 
L 55.663565 119.70099 
L 56.377805 73.616525 
L 57.092045 57.025647 
L 57.806285 51.578976 
L 58.520525 51.815284 
L 59.234765 56.744507 
L 59.949005 67.50077 
L 61.377485 115.399585 
L 62.091725 78.342784 
L 62.805965 67.037845 
L 63.520205 63.082687 
L 64.234445 63.776507 
L 64.948685 68.792331 
L 65.662925 79.578107 
L 67.091405 125.268245 
L 67.805645 89.407997 
L 68.519885 78.174639 
L 69.234125 74.215758 
L 69.948365 74.957889 
L 70.662605 80.187197 
L 71.376845 91.612711 
L 72.091085 118.47654 
L 72.805325 127.988997 
L 73.519565 97.967599 
L 74.233805 87.892079 
L 74.948045 84.709983 
L 75.662285 86.312733 
L 76.376525 92.851664 
L 77.090765 107.083985 
L 77.805005 149.640394 
L 78.519245 123.290167 
L 79.233485 103.478366 
L 79.947725 96.293605 
L 80.661965 95.141963 
L 81.376205 98.963487 
L 82.090445 108.955733 
L 83.518925 155.244256 
L 84.233165 118.858929 
L 84.947405 108.013643 
L 85.661645 104.91639 
L 86.375885 107.219713 
L 87.090125 115.440476 
L 87.804365 134.504679 
L 88.518605 192.140091 
L 89.232845 131.686772 
L 89.947085 118.624073 
L 90.661325 114.655146 
L 91.375565 116.531087 
L 92.089805 124.586197 
L 92.804045 143.829545 
L 93.518285 196.680627 
L 94.232525 140.128642 
L 94.946765 127.49904 
L 95.661005 123.992781 
L 96.375245 126.573108 
L 97.089485 135.974744 
L 98.517965 179.700939 
L 99.232205 145.082343 
L 99.946445 135.136134 
L 100.660685 133.348938 
L 101.374925 137.872907 
L 102.089165 150.743582 
L 102.803405 190.295727 
L 104.231885 148.616569 
L 104.946125 142.529846 
L 105.660365 143.572974 
L 106.374605 151.625338 
L 107.088845 172.497489 
L 107.803085 206.226041 
L 108.517325 163.776128 
L 109.231565 153.01076 
L 109.945805 151.232534 
L 110.660045 156.372707 
L 111.374285 171.191488 
L 112.088525 231.239613 
L 112.802765 179.465332 
L 113.517005 163.712599 
L 114.231245 159.639475 
L 114.945485 162.845824 
L 115.659725 174.650685 
L 116.373965 210.608809 
L 117.088205 194.864082 
L 117.802445 174.176112 
L 118.516685 168.398843 
L 119.230925 170.449234 
L 119.945165 180.867706 
L 120.659405 211.16122 
L 121.373645 207.20937 
L 122.087885 183.437744 
L 122.802125 176.807374 
L 123.516365 178.393339 
L 124.230605 188.406257 
L 124.944845 217.441879 
L 125.659085 216.091193 
L 126.373325 191.784629 
L 127.087565 185.162405 
L 127.801805 187.006824 
L 128.516045 197.720101 
L 129.230285 229.95316 
L 129.944525 219.783057 
L 130.658765 198.51439 
L 131.373005 192.909708 
L 132.087245 195.69079 
L 132.801485 207.970034 
L 133.515725 246.306589 
L 134.229965 222.287007 
L 134.944205 205.01645 
L 135.658445 201.095966 
L 136.372685 205.598912 
L 137.086925 221.128503 
L 137.801165 261.133415 
L 138.515405 222.841652 
L 139.229645 210.516599 
L 139.943885 208.974784 
L 140.658125 215.887066 
L 141.372365 235.985218 
L 142.086605 252.35794 
L 142.800845 225.256946 
L 143.515085 217.185188 
L 144.229325 218.491605 
L 144.943565 229.069328 
L 145.657805 255.504937 
L 146.372045 243.087267 
L 147.086285 227.254366 
L 147.800525 223.505003 
L 148.514765 228.11908 
L 149.229005 242.841108 
L 149.943245 260.697185 
L 150.657485 241.272756 
L 151.371725 232.244246 
L 152.085965 232.491463 
L 152.800205 241.152481 
L 153.514445 258.41516 
L 154.228685 252.91955 
L 154.942925 240.369924 
L 155.657165 236.958448 
L 156.371405 241.068263 
L 157.085645 252.580895 
L 157.799885 260.88456 
L 158.514125 250.702459 
L 159.228365 244.497933 
L 159.942605 245.463874 
L 161.371085 261.036682 
L 162.085325 256.115226 
L 162.799565 249.285166 
L 163.513805 247.983157 
L 164.228045 252.11219 
L 164.942285 259.190142 
L 165.656525 260.478711 
L 166.370765 255.638506 
L 167.085005 253.237277 
L 167.799245 255.176059 
L 168.513485 259.619563 
L 169.227725 260.93981 
L 169.941965 257.559266 
L 170.656205 254.968537 
L 171.370445 255.577818 
L 172.084685 258.680168 
L 172.798925 261.120297 
L 173.513165 260.282687 
L 174.227405 258.50008 
L 174.941645 258.460771 
L 175.655885 260.036979 
L 176.370125 261.201399 
L 177.084365 260.373769 
L 177.798605 258.881244 
L 178.512845 258.526574 
L 179.227085 259.593374 
L 179.941325 260.912698 
L 180.655565 261.1506 
L 181.369805 260.555669 
L 182.084045 260.272417 
L 183.512525 261.186935 
L 184.226765 260.98082 
L 184.941005 260.331626 
L 185.655245 260.021751 
L 186.369485 260.361914 
L 187.083725 260.951183 
L 187.797965 261.205935 
L 189.226445 260.943636 
L 190.654925 261.204237 
L 191.369165 261.112641 
L 192.083405 260.819009 
L 192.797645 260.668749 
L 193.511885 260.79252 
L 194.940365 261.203124 
L 198.511565 261.129021 
L 199.940045 260.940649 
L 204.225485 261.216 
L 209.939405 261.204154 
L 219.224525 261.184084 
L 223.509965 261.169587 
L 227.795405 261.18168 
L 235.652045 261.177583 
L 268.507085 261.176022 
L 358.501325 261.182342 
L 370.643405 261.178874 
L 389.213645 261.185844 
L 398.498765 261.184563 
L 407.783885 261.175488 
L 407.783885 261.175488 
" clip-path="url(#pdf16d616fb)" style="fill: none; stroke: #2ca02c; stroke-linecap: square"/>
   </g>
   <g id="patch_3">
    <path d="M 51.378125 273.312 
L 51.378125 7.2 
" style="fill: none; stroke: #000000; stroke-width: 0.8; stroke-linejoin: miter; stroke-linecap: square"/>
   </g>
   <g id="patch_4">
    <path d="M 408.498125 273.312 
L 408.498125 7.2 
" style="fill: none; stroke: #000000; stroke-width: 0.8; stroke-linejoin: miter; stroke-linecap: square"/>
   </g>
   <g id="patch_5">
    <path d="M 51.378125 273.312 
L 408.498125 273.312 
" style="fill: none; stroke: #000000; stroke-width: 0.8; stroke-linejoin: miter; stroke-linecap: square"/>
   </g>
   <g id="patch_6">
    <path d="M 51.378125 7.2 
L 408.498125 7.2 
" style="fill: none; stroke: #000000; stroke-width: 0.8; stroke-linejoin: miter; stroke-linecap: square"/>
   </g>
   <g id="legend_1">
    <g id="patch_7">
     <path d="M 320.26375 59.234375 
L 401.498125 59.234375 
Q 403.498125 59.234375 403.498125 57.234375 
L 403.498125 14.2 
Q 403.498125 12.2 401.498125 12.2 
L 320.26375 12.2 
Q 318.26375 12.2 318.26375 14.2 
L 318.26375 57.234375 
Q 318.26375 59.234375 320.26375 59.234375 
z
" style="fill: #ffffff; opacity: 0.8; stroke: #cccccc; stroke-linejoin: miter"/>
    </g>
    <g id="line2d_14">
     <path d="M 322.26375 20.298437 
L 332.26375 20.298437 
L 342.26375 20.298437 
" style="fill: none; stroke: #1f77b4; stroke-linecap: square"/>
    </g>
    <g id="text_13">
     <!-- training -->
     <g transform="translate(350.26375 23.798437) scale(0.1 -0.1)">
      <defs>
       <path id="DejaVuSans-74" d="M 1172 4494 
L 1172 3500 
L 2356 3500 
L 2356 3053 
L 1172 3053 
L 1172 1153 
Q 1172 725 1289 603 
Q 1406 481 1766 481 
L 2356 481 
L 2356 0 
L 1766 0 
Q 1100 0 847 248 
Q 594 497 594 1153 
L 594 3053 
L 172 3053 
L 172 3500 
L 594 3500 
L 594 4494 
L 1172 4494 
z
" transform="scale(0.015625)"/>
       <path id="DejaVuSans-72" d="M 2631 2963 
Q 2534 3019 2420 3045 
Q 2306 3072 2169 3072 
Q 1681 3072 1420 2755 
Q 1159 2438 1159 1844 
L 1159 0 
L 581 0 
L 581 3500 
L 1159 3500 
L 1159 2956 
Q 1341 3275 1631 3429 
Q 1922 3584 2338 3584 
Q 2397 3584 2469 3576 
Q 2541 3569 2628 3553 
L 2631 2963 
z
" transform="scale(0.015625)"/>
       <path id="DejaVuSans-61" d="M 2194 1759 
Q 1497 1759 1228 1600 
Q 959 1441 959 1056 
Q 959 750 1161 570 
Q 1363 391 1709 391 
Q 2188 391 2477 730 
Q 2766 1069 2766 1631 
L 2766 1759 
L 2194 1759 
z
M 3341 1997 
L 3341 0 
L 2766 0 
L 2766 531 
Q 2569 213 2275 61 
Q 1981 -91 1556 -91 
Q 1019 -91 701 211 
Q 384 513 384 1019 
Q 384 1609 779 1909 
Q 1175 2209 1959 2209 
L 2766 2209 
L 2766 2266 
Q 2766 2663 2505 2880 
Q 2244 3097 1772 3097 
Q 1472 3097 1187 3025 
Q 903 2953 641 2809 
L 641 3341 
Q 956 3463 1253 3523 
Q 1550 3584 1831 3584 
Q 2591 3584 2966 3190 
Q 3341 2797 3341 1997 
z
" transform="scale(0.015625)"/>
       <path id="DejaVuSans-69" d="M 603 3500 
L 1178 3500 
L 1178 0 
L 603 0 
L 603 3500 
z
M 603 4863 
L 1178 4863 
L 1178 4134 
L 603 4134 
L 603 4863 
z
" transform="scale(0.015625)"/>
       <path id="DejaVuSans-6e" d="M 3513 2113 
L 3513 0 
L 2938 0 
L 2938 2094 
Q 2938 2591 2744 2837 
Q 2550 3084 2163 3084 
Q 1697 3084 1428 2787 
Q 1159 2491 1159 1978 
L 1159 0 
L 581 0 
L 581 3500 
L 1159 3500 
L 1159 2956 
Q 1366 3272 1645 3428 
Q 1925 3584 2291 3584 
Q 2894 3584 3203 3211 
Q 3513 2838 3513 2113 
z
" transform="scale(0.015625)"/>
       <path id="DejaVuSans-67" d="M 2906 1791 
Q 2906 2416 2648 2759 
Q 2391 3103 1925 3103 
Q 1463 3103 1205 2759 
Q 947 2416 947 1791 
Q 947 1169 1205 825 
Q 1463 481 1925 481 
Q 2391 481 2648 825 
Q 2906 1169 2906 1791 
z
M 3481 434 
Q 3481 -459 3084 -895 
Q 2688 -1331 1869 -1331 
Q 1566 -1331 1297 -1286 
Q 1028 -1241 775 -1147 
L 775 -588 
Q 1028 -725 1275 -790 
Q 1522 -856 1778 -856 
Q 2344 -856 2625 -561 
Q 2906 -266 2906 331 
L 2906 616 
Q 2728 306 2450 153 
Q 2172 0 1784 0 
Q 1141 0 747 490 
Q 353 981 353 1791 
Q 353 2603 747 3093 
Q 1141 3584 1784 3584 
Q 2172 3584 2450 3431 
Q 2728 3278 2906 2969 
L 2906 3500 
L 3481 3500 
L 3481 434 
z
" transform="scale(0.015625)"/>
      </defs>
      <use xlink:href="#DejaVuSans-74"/>
      <use xlink:href="#DejaVuSans-72" x="39.208984"/>
      <use xlink:href="#DejaVuSans-61" x="80.322266"/>
      <use xlink:href="#DejaVuSans-69" x="141.601562"/>
      <use xlink:href="#DejaVuSans-6e" x="169.384766"/>
      <use xlink:href="#DejaVuSans-69" x="232.763672"/>
      <use xlink:href="#DejaVuSans-6e" x="260.546875"/>
      <use xlink:href="#DejaVuSans-67" x="323.925781"/>
     </g>
    </g>
    <g id="line2d_15">
     <path d="M 322.26375 34.976562 
L 332.26375 34.976562 
L 342.26375 34.976562 
" style="fill: none; stroke: #ff7f0e; stroke-linecap: square"/>
    </g>
    <g id="text_14">
     <!-- validation -->
     <g transform="translate(350.26375 38.476562) scale(0.1 -0.1)">
      <defs>
       <path id="DejaVuSans-76" d="M 191 3500 
L 800 3500 
L 1894 563 
L 2988 3500 
L 3597 3500 
L 2284 0 
L 1503 0 
L 191 3500 
z
" transform="scale(0.015625)"/>
       <path id="DejaVuSans-6c" d="M 603 4863 
L 1178 4863 
L 1178 0 
L 603 0 
L 603 4863 
z
" transform="scale(0.015625)"/>
       <path id="DejaVuSans-64" d="M 2906 2969 
L 2906 4863 
L 3481 4863 
L 3481 0 
L 2906 0 
L 2906 525 
Q 2725 213 2448 61 
Q 2172 -91 1784 -91 
Q 1150 -91 751 415 
Q 353 922 353 1747 
Q 353 2572 751 3078 
Q 1150 3584 1784 3584 
Q 2172 3584 2448 3432 
Q 2725 3281 2906 2969 
z
M 947 1747 
Q 947 1113 1208 752 
Q 1469 391 1925 391 
Q 2381 391 2643 752 
Q 2906 1113 2906 1747 
Q 2906 2381 2643 2742 
Q 2381 3103 1925 3103 
Q 1469 3103 1208 2742 
Q 947 2381 947 1747 
z
" transform="scale(0.015625)"/>
      </defs>
      <use xlink:href="#DejaVuSans-76"/>
      <use xlink:href="#DejaVuSans-61" x="59.179688"/>
      <use xlink:href="#DejaVuSans-6c" x="120.458984"/>
      <use xlink:href="#DejaVuSans-69" x="148.242188"/>
      <use xlink:href="#DejaVuSans-64" x="176.025391"/>
      <use xlink:href="#DejaVuSans-61" x="239.501953"/>
      <use xlink:href="#DejaVuSans-74" x="300.78125"/>
      <use xlink:href="#DejaVuSans-69" x="339.990234"/>
      <use xlink:href="#DejaVuSans-6f" x="367.773438"/>
      <use xlink:href="#DejaVuSans-6e" x="428.955078"/>
     </g>
    </g>
    <g id="line2d_16">
     <path d="M 322.26375 49.654687 
L 332.26375 49.654687 
L 342.26375 49.654687 
" style="fill: none; stroke: #2ca02c; stroke-linecap: square"/>
    </g>
    <g id="text_15">
     <!-- testing -->
     <g transform="translate(350.26375 53.154687) scale(0.1 -0.1)">
      <defs>
       <path id="DejaVuSans-73" d="M 2834 3397 
L 2834 2853 
Q 2591 2978 2328 3040 
Q 2066 3103 1784 3103 
Q 1356 3103 1142 2972 
Q 928 2841 928 2578 
Q 928 2378 1081 2264 
Q 1234 2150 1697 2047 
L 1894 2003 
Q 2506 1872 2764 1633 
Q 3022 1394 3022 966 
Q 3022 478 2636 193 
Q 2250 -91 1575 -91 
Q 1294 -91 989 -36 
Q 684 19 347 128 
L 347 722 
Q 666 556 975 473 
Q 1284 391 1588 391 
Q 1994 391 2212 530 
Q 2431 669 2431 922 
Q 2431 1156 2273 1281 
Q 2116 1406 1581 1522 
L 1381 1569 
Q 847 1681 609 1914 
Q 372 2147 372 2553 
Q 372 3047 722 3315 
Q 1072 3584 1716 3584 
Q 2034 3584 2315 3537 
Q 2597 3491 2834 3397 
z
" transform="scale(0.015625)"/>
      </defs>
      <use xlink:href="#DejaVuSans-74"/>
      <use xlink:href="#DejaVuSans-65" x="39.208984"/>
      <use xlink:href="#DejaVuSans-73" x="100.732422"/>
      <use xlink:href="#DejaVuSans-74" x="152.832031"/>
      <use xlink:href="#DejaVuSans-69" x="192.041016"/>
      <use xlink:href="#DejaVuSans-6e" x="219.824219"/>
      <use xlink:href="#DejaVuSans-67" x="283.203125"/>
     </g>
    </g>
   </g>
  </g>
 </g>
 <defs>
  <clipPath id="pdf16d616fb">
   <rect x="51.378125" y="7.2" width="357.12" height="266.112"/>
  </clipPath>
 </defs>
</svg>
