<?xml version="1.0" encoding="utf-8" standalone="no"?>
<!DOCTYPE svg PUBLIC "-//W3C//DTD SVG 1.1//EN"
  "http://www.w3.org/Graphics/SVG/1.1/DTD/svg11.dtd">
<svg xmlns:xlink="http://www.w3.org/1999/xlink" width="425.241875pt" height="310.86825pt" viewBox="0 0 425.241875 310.86825" xmlns="http://www.w3.org/2000/svg" version="1.1">
 <metadata>
  <rdf:RDF xmlns:dc="http://purl.org/dc/elements/1.1/" xmlns:cc="http://creativecommons.org/ns#" xmlns:rdf="http://www.w3.org/1999/02/22-rdf-syntax-ns#">
   <cc:Work>
    <dc:type rdf:resource="http://purl.org/dc/dcmitype/StillImage"/>
    <dc:date>2022-11-22T22:31:40.693163</dc:date>
    <dc:format>image/svg+xml</dc:format>
    <dc:creator>
     <cc:Agent>
      <dc:title>Matplotlib v3.6.1, https://matplotlib.org/</dc:title>
     </cc:Agent>
    </dc:creator>
   </cc:Work>
  </rdf:RDF>
 </metadata>
 <defs>
  <style type="text/css">*{stroke-linejoin: round; stroke-linecap: butt}</style>
 </defs>
 <g id="figure_1">
  <g id="patch_1">
   <path d="M 0 310.86825 
L 425.241875 310.86825 
L 425.241875 0 
L 0 0 
z
" style="fill: #ffffff"/>
  </g>
  <g id="axes_1">
   <g id="patch_2">
    <path d="M 51.378125 273.312 
L 408.498125 273.312 
L 408.498125 7.2 
L 51.378125 7.2 
z
" style="fill: #ffffff"/>
   </g>
   <g id="matplotlib.axis_1">
    <g id="xtick_1">
     <g id="line2d_1">
      <defs>
       <path id="m4ff61a84c1" d="M 0 0 
L 0 3.5 
" style="stroke: #000000; stroke-width: 0.8"/>
      </defs>
      <g>
       <use xlink:href="#m4ff61a84c1" x="51.378125" y="273.312" style="stroke: #000000; stroke-width: 0.8"/>
      </g>
     </g>
     <g id="text_1">
      <!-- 0 -->
      <g transform="translate(48.196875 287.910437) scale(0.1 -0.1)">
       <defs>
        <path id="DejaVuSans-30" d="M 2034 4250 
Q 1547 4250 1301 3770 
Q 1056 3291 1056 2328 
Q 1056 1369 1301 889 
Q 1547 409 2034 409 
Q 2525 409 2770 889 
Q 3016 1369 3016 2328 
Q 3016 3291 2770 3770 
Q 2525 4250 2034 4250 
z
M 2034 4750 
Q 2819 4750 3233 4129 
Q 3647 3509 3647 2328 
Q 3647 1150 3233 529 
Q 2819 -91 2034 -91 
Q 1250 -91 836 529 
Q 422 1150 422 2328 
Q 422 3509 836 4129 
Q 1250 4750 2034 4750 
z
" transform="scale(0.015625)"/>
       </defs>
       <use xlink:href="#DejaVuSans-30"/>
      </g>
     </g>
    </g>
    <g id="xtick_2">
     <g id="line2d_2">
      <g>
       <use xlink:href="#m4ff61a84c1" x="122.802125" y="273.312" style="stroke: #000000; stroke-width: 0.8"/>
      </g>
     </g>
     <g id="text_2">
      <!-- 100 -->
      <g transform="translate(113.258375 287.910437) scale(0.1 -0.1)">
       <defs>
        <path id="DejaVuSans-31" d="M 794 531 
L 1825 531 
L 1825 4091 
L 703 3866 
L 703 4441 
L 1819 4666 
L 2450 4666 
L 2450 531 
L 3481 531 
L 3481 0 
L 794 0 
L 794 531 
z
" transform="scale(0.015625)"/>
       </defs>
       <use xlink:href="#DejaVuSans-31"/>
       <use xlink:href="#DejaVuSans-30" x="63.623047"/>
       <use xlink:href="#DejaVuSans-30" x="127.246094"/>
      </g>
     </g>
    </g>
    <g id="xtick_3">
     <g id="line2d_3">
      <g>
       <use xlink:href="#m4ff61a84c1" x="194.226125" y="273.312" style="stroke: #000000; stroke-width: 0.8"/>
      </g>
     </g>
     <g id="text_3">
      <!-- 200 -->
      <g transform="translate(184.682375 287.910437) scale(0.1 -0.1)">
       <defs>
        <path id="DejaVuSans-32" d="M 1228 531 
L 3431 531 
L 3431 0 
L 469 0 
L 469 531 
Q 828 903 1448 1529 
Q 2069 2156 2228 2338 
Q 2531 2678 2651 2914 
Q 2772 3150 2772 3378 
Q 2772 3750 2511 3984 
Q 2250 4219 1831 4219 
Q 1534 4219 1204 4116 
Q 875 4013 500 3803 
L 500 4441 
Q 881 4594 1212 4672 
Q 1544 4750 1819 4750 
Q 2544 4750 2975 4387 
Q 3406 4025 3406 3419 
Q 3406 3131 3298 2873 
Q 3191 2616 2906 2266 
Q 2828 2175 2409 1742 
Q 1991 1309 1228 531 
z
" transform="scale(0.015625)"/>
       </defs>
       <use xlink:href="#DejaVuSans-32"/>
       <use xlink:href="#DejaVuSans-30" x="63.623047"/>
       <use xlink:href="#DejaVuSans-30" x="127.246094"/>
      </g>
     </g>
    </g>
    <g id="xtick_4">
     <g id="line2d_4">
      <g>
       <use xlink:href="#m4ff61a84c1" x="265.650125" y="273.312" style="stroke: #000000; stroke-width: 0.8"/>
      </g>
     </g>
     <g id="text_4">
      <!-- 300 -->
      <g transform="translate(256.106375 287.910437) scale(0.1 -0.1)">
       <defs>
        <path id="DejaVuSans-33" d="M 2597 2516 
Q 3050 2419 3304 2112 
Q 3559 1806 3559 1356 
Q 3559 666 3084 287 
Q 2609 -91 1734 -91 
Q 1441 -91 1130 -33 
Q 819 25 488 141 
L 488 750 
Q 750 597 1062 519 
Q 1375 441 1716 441 
Q 2309 441 2620 675 
Q 2931 909 2931 1356 
Q 2931 1769 2642 2001 
Q 2353 2234 1838 2234 
L 1294 2234 
L 1294 2753 
L 1863 2753 
Q 2328 2753 2575 2939 
Q 2822 3125 2822 3475 
Q 2822 3834 2567 4026 
Q 2313 4219 1838 4219 
Q 1578 4219 1281 4162 
Q 984 4106 628 3988 
L 628 4550 
Q 988 4650 1302 4700 
Q 1616 4750 1894 4750 
Q 2613 4750 3031 4423 
Q 3450 4097 3450 3541 
Q 3450 3153 3228 2886 
Q 3006 2619 2597 2516 
z
" transform="scale(0.015625)"/>
       </defs>
       <use xlink:href="#DejaVuSans-33"/>
       <use xlink:href="#DejaVuSans-30" x="63.623047"/>
       <use xlink:href="#DejaVuSans-30" x="127.246094"/>
      </g>
     </g>
    </g>
    <g id="xtick_5">
     <g id="line2d_5">
      <g>
       <use xlink:href="#m4ff61a84c1" x="337.074125" y="273.312" style="stroke: #000000; stroke-width: 0.8"/>
      </g>
     </g>
     <g id="text_5">
      <!-- 400 -->
      <g transform="translate(327.530375 287.910437) scale(0.1 -0.1)">
       <defs>
        <path id="DejaVuSans-34" d="M 2419 4116 
L 825 1625 
L 2419 1625 
L 2419 4116 
z
M 2253 4666 
L 3047 4666 
L 3047 1625 
L 3713 1625 
L 3713 1100 
L 3047 1100 
L 3047 0 
L 2419 0 
L 2419 1100 
L 313 1100 
L 313 1709 
L 2253 4666 
z
" transform="scale(0.015625)"/>
       </defs>
       <use xlink:href="#DejaVuSans-34"/>
       <use xlink:href="#DejaVuSans-30" x="63.623047"/>
       <use xlink:href="#DejaVuSans-30" x="127.246094"/>
      </g>
     </g>
    </g>
    <g id="xtick_6">
     <g id="line2d_6">
      <g>
       <use xlink:href="#m4ff61a84c1" x="408.498125" y="273.312" style="stroke: #000000; stroke-width: 0.8"/>
      </g>
     </g>
     <g id="text_6">
      <!-- 500 -->
      <g transform="translate(398.954375 287.910437) scale(0.1 -0.1)">
       <defs>
        <path id="DejaVuSans-35" d="M 691 4666 
L 3169 4666 
L 3169 4134 
L 1269 4134 
L 1269 2991 
Q 1406 3038 1543 3061 
Q 1681 3084 1819 3084 
Q 2600 3084 3056 2656 
Q 3513 2228 3513 1497 
Q 3513 744 3044 326 
Q 2575 -91 1722 -91 
Q 1428 -91 1123 -41 
Q 819 9 494 109 
L 494 744 
Q 775 591 1075 516 
Q 1375 441 1709 441 
Q 2250 441 2565 725 
Q 2881 1009 2881 1497 
Q 2881 1984 2565 2268 
Q 2250 2553 1709 2553 
Q 1456 2553 1204 2497 
Q 953 2441 691 2322 
L 691 4666 
z
" transform="scale(0.015625)"/>
       </defs>
       <use xlink:href="#DejaVuSans-35"/>
       <use xlink:href="#DejaVuSans-30" x="63.623047"/>
       <use xlink:href="#DejaVuSans-30" x="127.246094"/>
      </g>
     </g>
    </g>
    <g id="text_7">
     <!-- epoch -->
     <g transform="translate(214.71 301.588562) scale(0.1 -0.1)">
      <defs>
       <path id="DejaVuSans-65" d="M 3597 1894 
L 3597 1613 
L 953 1613 
Q 991 1019 1311 708 
Q 1631 397 2203 397 
Q 2534 397 2845 478 
Q 3156 559 3463 722 
L 3463 178 
Q 3153 47 2828 -22 
Q 2503 -91 2169 -91 
Q 1331 -91 842 396 
Q 353 884 353 1716 
Q 353 2575 817 3079 
Q 1281 3584 2069 3584 
Q 2775 3584 3186 3129 
Q 3597 2675 3597 1894 
z
M 3022 2063 
Q 3016 2534 2758 2815 
Q 2500 3097 2075 3097 
Q 1594 3097 1305 2825 
Q 1016 2553 972 2059 
L 3022 2063 
z
" transform="scale(0.015625)"/>
       <path id="DejaVuSans-70" d="M 1159 525 
L 1159 -1331 
L 581 -1331 
L 581 3500 
L 1159 3500 
L 1159 2969 
Q 1341 3281 1617 3432 
Q 1894 3584 2278 3584 
Q 2916 3584 3314 3078 
Q 3713 2572 3713 1747 
Q 3713 922 3314 415 
Q 2916 -91 2278 -91 
Q 1894 -91 1617 61 
Q 1341 213 1159 525 
z
M 3116 1747 
Q 3116 2381 2855 2742 
Q 2594 3103 2138 3103 
Q 1681 3103 1420 2742 
Q 1159 2381 1159 1747 
Q 1159 1113 1420 752 
Q 1681 391 2138 391 
Q 2594 391 2855 752 
Q 3116 1113 3116 1747 
z
" transform="scale(0.015625)"/>
       <path id="DejaVuSans-6f" d="M 1959 3097 
Q 1497 3097 1228 2736 
Q 959 2375 959 1747 
Q 959 1119 1226 758 
Q 1494 397 1959 397 
Q 2419 397 2687 759 
Q 2956 1122 2956 1747 
Q 2956 2369 2687 2733 
Q 2419 3097 1959 3097 
z
M 1959 3584 
Q 2709 3584 3137 3096 
Q 3566 2609 3566 1747 
Q 3566 888 3137 398 
Q 2709 -91 1959 -91 
Q 1206 -91 779 398 
Q 353 888 353 1747 
Q 353 2609 779 3096 
Q 1206 3584 1959 3584 
z
" transform="scale(0.015625)"/>
       <path id="DejaVuSans-63" d="M 3122 3366 
L 3122 2828 
Q 2878 2963 2633 3030 
Q 2388 3097 2138 3097 
Q 1578 3097 1268 2742 
Q 959 2388 959 1747 
Q 959 1106 1268 751 
Q 1578 397 2138 397 
Q 2388 397 2633 464 
Q 2878 531 3122 666 
L 3122 134 
Q 2881 22 2623 -34 
Q 2366 -91 2075 -91 
Q 1284 -91 818 406 
Q 353 903 353 1747 
Q 353 2603 823 3093 
Q 1294 3584 2113 3584 
Q 2378 3584 2631 3529 
Q 2884 3475 3122 3366 
z
" transform="scale(0.015625)"/>
       <path id="DejaVuSans-68" d="M 3513 2113 
L 3513 0 
L 2938 0 
L 2938 2094 
Q 2938 2591 2744 2837 
Q 2550 3084 2163 3084 
Q 1697 3084 1428 2787 
Q 1159 2491 1159 1978 
L 1159 0 
L 581 0 
L 581 4863 
L 1159 4863 
L 1159 2956 
Q 1366 3272 1645 3428 
Q 1925 3584 2291 3584 
Q 2894 3584 3203 3211 
Q 3513 2838 3513 2113 
z
" transform="scale(0.015625)"/>
      </defs>
      <use xlink:href="#DejaVuSans-65"/>
      <use xlink:href="#DejaVuSans-70" x="61.523438"/>
      <use xlink:href="#DejaVuSans-6f" x="125"/>
      <use xlink:href="#DejaVuSans-63" x="186.181641"/>
      <use xlink:href="#DejaVuSans-68" x="241.162109"/>
     </g>
    </g>
   </g>
   <g id="matplotlib.axis_2">
    <g id="ytick_1">
     <g id="line2d_7">
      <defs>
       <path id="m423cd41eb0" d="M 0 0 
L -3.5 0 
" style="stroke: #000000; stroke-width: 0.8"/>
      </defs>
      <g>
       <use xlink:href="#m423cd41eb0" x="51.378125" y="191.272805" style="stroke: #000000; stroke-width: 0.8"/>
      </g>
     </g>
     <g id="text_8">
      <!-- $\mathdefault{10^{-2}}$ -->
      <g transform="translate(20.878125 195.072024) scale(0.1 -0.1)">
       <defs>
        <path id="DejaVuSans-2212" d="M 678 2272 
L 4684 2272 
L 4684 1741 
L 678 1741 
L 678 2272 
z
" transform="scale(0.015625)"/>
       </defs>
       <use xlink:href="#DejaVuSans-31" transform="translate(0 0.765625)"/>
       <use xlink:href="#DejaVuSans-30" transform="translate(63.623047 0.765625)"/>
       <use xlink:href="#DejaVuSans-2212" transform="translate(128.203125 39.046875) scale(0.7)"/>
       <use xlink:href="#DejaVuSans-32" transform="translate(186.855469 39.046875) scale(0.7)"/>
      </g>
     </g>
    </g>
    <g id="ytick_2">
     <g id="line2d_8">
      <g>
       <use xlink:href="#m423cd41eb0" x="51.378125" y="82.187805" style="stroke: #000000; stroke-width: 0.8"/>
      </g>
     </g>
     <g id="text_9">
      <!-- $\mathdefault{10^{-1}}$ -->
      <g transform="translate(20.878125 85.987024) scale(0.1 -0.1)">
       <use xlink:href="#DejaVuSans-31" transform="translate(0 0.684375)"/>
       <use xlink:href="#DejaVuSans-30" transform="translate(63.623047 0.684375)"/>
       <use xlink:href="#DejaVuSans-2212" transform="translate(128.203125 38.965625) scale(0.7)"/>
       <use xlink:href="#DejaVuSans-31" transform="translate(186.855469 38.965625) scale(0.7)"/>
      </g>
     </g>
    </g>
    <g id="ytick_3">
     <g id="line2d_9">
      <defs>
       <path id="m0f5c0795e0" d="M 0 0 
L -2 0 
" style="stroke: #000000; stroke-width: 0.6"/>
      </defs>
      <g>
       <use xlink:href="#m0f5c0795e0" x="51.378125" y="267.519949" style="stroke: #000000; stroke-width: 0.6"/>
      </g>
     </g>
    </g>
    <g id="ytick_4">
     <g id="line2d_10">
      <g>
       <use xlink:href="#m0f5c0795e0" x="51.378125" y="248.311034" style="stroke: #000000; stroke-width: 0.6"/>
      </g>
     </g>
    </g>
    <g id="ytick_5">
     <g id="line2d_11">
      <g>
       <use xlink:href="#m0f5c0795e0" x="51.378125" y="234.682091" style="stroke: #000000; stroke-width: 0.6"/>
      </g>
     </g>
    </g>
    <g id="ytick_6">
     <g id="line2d_12">
      <g>
       <use xlink:href="#m0f5c0795e0" x="51.378125" y="224.110663" style="stroke: #000000; stroke-width: 0.6"/>
      </g>
     </g>
    </g>
    <g id="ytick_7">
     <g id="line2d_13">
      <g>
       <use xlink:href="#m0f5c0795e0" x="51.378125" y="215.473176" style="stroke: #000000; stroke-width: 0.6"/>
      </g>
     </g>
    </g>
    <g id="ytick_8">
     <g id="line2d_14">
      <g>
       <use xlink:href="#m0f5c0795e0" x="51.378125" y="208.170286" style="stroke: #000000; stroke-width: 0.6"/>
      </g>
     </g>
    </g>
    <g id="ytick_9">
     <g id="line2d_15">
      <g>
       <use xlink:href="#m0f5c0795e0" x="51.378125" y="201.844234" style="stroke: #000000; stroke-width: 0.6"/>
      </g>
     </g>
    </g>
    <g id="ytick_10">
     <g id="line2d_16">
      <g>
       <use xlink:href="#m0f5c0795e0" x="51.378125" y="196.264261" style="stroke: #000000; stroke-width: 0.6"/>
      </g>
     </g>
    </g>
    <g id="ytick_11">
     <g id="line2d_17">
      <g>
       <use xlink:href="#m0f5c0795e0" x="51.378125" y="158.434948" style="stroke: #000000; stroke-width: 0.6"/>
      </g>
     </g>
    </g>
    <g id="ytick_12">
     <g id="line2d_18">
      <g>
       <use xlink:href="#m0f5c0795e0" x="51.378125" y="139.226033" style="stroke: #000000; stroke-width: 0.6"/>
      </g>
     </g>
    </g>
    <g id="ytick_13">
     <g id="line2d_19">
      <g>
       <use xlink:href="#m0f5c0795e0" x="51.378125" y="125.597091" style="stroke: #000000; stroke-width: 0.6"/>
      </g>
     </g>
    </g>
    <g id="ytick_14">
     <g id="line2d_20">
      <g>
       <use xlink:href="#m0f5c0795e0" x="51.378125" y="115.025662" style="stroke: #000000; stroke-width: 0.6"/>
      </g>
     </g>
    </g>
    <g id="ytick_15">
     <g id="line2d_21">
      <g>
       <use xlink:href="#m0f5c0795e0" x="51.378125" y="106.388176" style="stroke: #000000; stroke-width: 0.6"/>
      </g>
     </g>
    </g>
    <g id="ytick_16">
     <g id="line2d_22">
      <g>
       <use xlink:href="#m0f5c0795e0" x="51.378125" y="99.085285" style="stroke: #000000; stroke-width: 0.6"/>
      </g>
     </g>
    </g>
    <g id="ytick_17">
     <g id="line2d_23">
      <g>
       <use xlink:href="#m0f5c0795e0" x="51.378125" y="92.759234" style="stroke: #000000; stroke-width: 0.6"/>
      </g>
     </g>
    </g>
    <g id="ytick_18">
     <g id="line2d_24">
      <g>
       <use xlink:href="#m0f5c0795e0" x="51.378125" y="87.179261" style="stroke: #000000; stroke-width: 0.6"/>
      </g>
     </g>
    </g>
    <g id="ytick_19">
     <g id="line2d_25">
      <g>
       <use xlink:href="#m0f5c0795e0" x="51.378125" y="49.349948" style="stroke: #000000; stroke-width: 0.6"/>
      </g>
     </g>
    </g>
    <g id="ytick_20">
     <g id="line2d_26">
      <g>
       <use xlink:href="#m0f5c0795e0" x="51.378125" y="30.141032" style="stroke: #000000; stroke-width: 0.6"/>
      </g>
     </g>
    </g>
    <g id="ytick_21">
     <g id="line2d_27">
      <g>
       <use xlink:href="#m0f5c0795e0" x="51.378125" y="16.51209" style="stroke: #000000; stroke-width: 0.6"/>
      </g>
     </g>
    </g>
    <g id="text_10">
     <!-- MSE -->
     <g transform="translate(14.798438 150.903656) rotate(-90) scale(0.1 -0.1)">
      <defs>
       <path id="DejaVuSans-4d" d="M 628 4666 
L 1569 4666 
L 2759 1491 
L 3956 4666 
L 4897 4666 
L 4897 0 
L 4281 0 
L 4281 4097 
L 3078 897 
L 2444 897 
L 1241 4097 
L 1241 0 
L 628 0 
L 628 4666 
z
" transform="scale(0.015625)"/>
       <path id="DejaVuSans-53" d="M 3425 4513 
L 3425 3897 
Q 3066 4069 2747 4153 
Q 2428 4238 2131 4238 
Q 1616 4238 1336 4038 
Q 1056 3838 1056 3469 
Q 1056 3159 1242 3001 
Q 1428 2844 1947 2747 
L 2328 2669 
Q 3034 2534 3370 2195 
Q 3706 1856 3706 1288 
Q 3706 609 3251 259 
Q 2797 -91 1919 -91 
Q 1588 -91 1214 -16 
Q 841 59 441 206 
L 441 856 
Q 825 641 1194 531 
Q 1563 422 1919 422 
Q 2459 422 2753 634 
Q 3047 847 3047 1241 
Q 3047 1584 2836 1778 
Q 2625 1972 2144 2069 
L 1759 2144 
Q 1053 2284 737 2584 
Q 422 2884 422 3419 
Q 422 4038 858 4394 
Q 1294 4750 2059 4750 
Q 2388 4750 2728 4690 
Q 3069 4631 3425 4513 
z
" transform="scale(0.015625)"/>
       <path id="DejaVuSans-45" d="M 628 4666 
L 3578 4666 
L 3578 4134 
L 1259 4134 
L 1259 2753 
L 3481 2753 
L 3481 2222 
L 1259 2222 
L 1259 531 
L 3634 531 
L 3634 0 
L 628 0 
L 628 4666 
z
" transform="scale(0.015625)"/>
      </defs>
      <use xlink:href="#DejaVuSans-4d"/>
      <use xlink:href="#DejaVuSans-53" x="86.279297"/>
      <use xlink:href="#DejaVuSans-45" x="149.755859"/>
     </g>
    </g>
   </g>
   <g id="line2d_28">
    <path d="M 51.378125 27.216446 
L 54.235085 35.970999 
L 58.520525 48.268691 
L 60.663245 55.30003 
L 64.948685 70.630535 
L 67.805645 80.791401 
L 69.234125 85.304862 
L 70.662605 88.834039 
L 71.376845 90.156671 
L 72.091085 91.196428 
L 73.519565 92.655742 
L 74.948045 94.085864 
L 75.662285 95.00533 
L 77.090765 97.353236 
L 84.233165 110.512652 
L 87.090125 115.162462 
L 88.518605 117.632767 
L 90.661325 120.811592 
L 92.089805 122.587589 
L 93.518285 123.97732 
L 94.946765 125.142465 
L 96.375245 126.022985 
L 98.517965 127.114687 
L 100.660685 128.101732 
L 105.660365 130.690746 
L 107.803085 131.703143 
L 110.660045 133.098593 
L 118.516685 136.574676 
L 122.802125 138.651314 
L 127.801805 141.162146 
L 133.515725 143.93719 
L 155.657165 155.175815 
L 169.227725 162.035236 
L 204.939725 179.568456 
L 206.368205 180.133272 
L 208.510925 180.643069 
L 209.939405 181.867595 
L 210.653645 182.081015 
L 211.367885 182.11086 
L 212.082125 182.466066 
L 212.796365 183.04452 
L 213.510605 183.3815 
L 214.224845 183.472677 
L 214.939085 183.724174 
L 216.367565 184.5996 
L 217.796045 184.979523 
L 219.224525 185.77426 
L 221.367245 186.508453 
L 222.795725 187.224299 
L 225.652685 188.294513 
L 227.795405 189.195697 
L 230.652365 190.283198 
L 234.223565 191.722907 
L 236.366285 192.421042 
L 237.794765 192.743669 
L 239.223245 192.952623 
L 239.937485 193.139513 
L 241.365965 194.171825 
L 242.080205 194.679446 
L 242.794445 194.938972 
L 244.222925 195.069586 
L 244.937165 195.257297 
L 247.079885 196.496006 
L 248.508365 196.825316 
L 249.936845 197.175834 
L 253.508045 198.700586 
L 256.365005 199.420718 
L 258.507725 200.233948 
L 262.793165 201.898698 
L 265.650125 202.767127 
L 266.364365 202.907059 
L 267.078605 202.926246 
L 267.792845 202.711772 
L 268.507085 201.961326 
L 269.221325 200.907784 
L 269.935565 200.15822 
L 270.649805 201.915625 
L 271.364045 204.32344 
L 272.078285 204.496082 
L 272.792525 203.119206 
L 273.506765 203.23592 
L 274.221005 205.146365 
L 274.935245 205.46633 
L 275.649485 204.455868 
L 276.363725 204.925018 
L 277.077965 206.232213 
L 277.792205 206.203371 
L 278.506445 205.665164 
L 279.220685 206.282162 
L 279.934925 207.150912 
L 281.363405 206.739069 
L 282.077645 207.43775 
L 282.791885 207.965484 
L 283.506125 207.778631 
L 284.220365 207.830297 
L 284.934605 208.389684 
L 285.648845 208.765184 
L 286.363085 208.678907 
L 287.077325 208.761057 
L 287.791565 209.244087 
L 288.505805 209.569262 
L 289.934285 209.680037 
L 291.362765 210.383749 
L 293.505485 210.79989 
L 294.933965 211.389643 
L 297.076685 211.8538 
L 299.219405 212.555307 
L 301.362125 213.08841 
L 303.504845 213.773028 
L 309.218765 215.359321 
L 315.646925 217.093449 
L 317.075405 217.223184 
L 317.789645 217.020573 
L 318.503885 216.281629 
L 319.218125 214.773162 
L 319.932365 211.795053 
L 320.646605 210.025925 
L 321.360845 211.179502 
L 322.075085 216.962068 
L 322.789325 218.693027 
L 323.503565 215.152121 
L 324.217805 214.657325 
L 324.932045 218.204904 
L 325.646285 219.449824 
L 326.360525 216.952007 
L 327.074765 217.05712 
L 327.789005 219.935638 
L 328.503245 219.558318 
L 329.217485 217.98246 
L 330.645965 220.887632 
L 331.360205 219.809485 
L 332.074445 219.675277 
L 332.788685 221.144234 
L 333.502925 221.348625 
L 334.217165 220.58995 
L 334.931405 221.119763 
L 335.645645 222.093016 
L 337.074125 221.523546 
L 337.788365 222.277002 
L 338.502605 222.783757 
L 339.216845 222.493019 
L 339.931085 222.538112 
L 340.645325 223.151242 
L 341.359565 223.448884 
L 342.073805 223.283719 
L 342.788045 223.397136 
L 343.502285 223.88471 
L 344.216525 224.143532 
L 344.930765 224.089887 
L 345.645005 224.2018 
L 347.073485 224.850713 
L 348.501965 224.968488 
L 350.644685 225.680542 
L 352.073165 225.920477 
L 353.501645 226.402239 
L 356.358605 227.058475 
L 357.787085 227.425217 
L 359.929805 227.912286 
L 362.072525 228.470569 
L 365.643725 229.332518 
L 369.929165 230.348714 
L 379.928525 232.634397 
L 380.642765 232.660877 
L 381.357005 232.569786 
L 382.071245 232.190508 
L 382.785485 231.378565 
L 383.499725 229.578336 
L 384.213965 227.055494 
L 384.928205 223.260689 
L 385.642445 222.622306 
L 386.356685 224.971701 
L 387.070925 231.850642 
L 387.785165 234.484364 
L 388.499405 230.815002 
L 389.213645 228.307605 
L 389.927885 230.422043 
L 390.642125 234.745948 
L 391.356365 234.312025 
L 392.070605 231.335665 
L 392.784845 231.996769 
L 393.499085 235.04569 
L 394.213325 235.694863 
L 394.927565 233.7709 
L 395.641805 233.415907 
L 396.356045 235.564731 
L 397.070285 236.550143 
L 397.784525 235.387416 
L 398.498765 234.930004 
L 399.927245 237.218607 
L 400.641485 236.753822 
L 401.355725 236.128892 
L 402.069965 236.751834 
L 402.784205 237.732597 
L 403.498445 237.840507 
L 404.212685 237.387353 
L 404.926925 237.431121 
L 405.641165 238.135011 
L 406.355405 238.619717 
L 407.783885 238.334794 
L 407.783885 238.334794 
" clip-path="url(#p8179cd257c)" style="fill: none; stroke: #1f77b4; stroke-linecap: square"/>
   </g>
   <g id="line2d_29">
    <path d="M 51.378125 49.869746 
L 54.235085 60.249921 
L 56.377805 66.819107 
L 60.663245 79.098223 
L 62.805965 84.280692 
L 67.805645 96.035101 
L 69.234125 99.631422 
L 70.662605 102.588953 
L 72.091085 104.648437 
L 74.948045 108.08782 
L 77.090765 111.458615 
L 78.519245 113.613156 
L 80.661965 116.306512 
L 82.804685 118.802924 
L 85.661645 121.939977 
L 87.804365 124.777519 
L 89.947085 126.919792 
L 91.375565 128.085315 
L 92.804045 128.846919 
L 94.232525 129.343523 
L 99.232205 130.461327 
L 100.660685 131.133898 
L 102.089165 131.999471 
L 104.231885 133.572311 
L 105.660365 134.283612 
L 112.088525 136.75845 
L 115.659725 138.494429 
L 122.802125 141.578275 
L 127.801805 144.3321 
L 134.944205 147.836199 
L 159.942605 160.593834 
L 174.941645 168.290084 
L 183.512525 172.569166 
L 189.226445 175.397251 
L 204.225485 182.879604 
L 204.939725 182.822125 
L 205.653965 183.697402 
L 206.368205 182.985555 
L 207.082445 184.354172 
L 207.796685 183.135581 
L 208.510925 185.065846 
L 209.939405 185.058543 
L 210.653645 186.02307 
L 211.367885 185.242803 
L 212.082125 186.621421 
L 212.796365 186.900264 
L 213.510605 186.416115 
L 214.224845 187.619172 
L 214.939085 187.348723 
L 216.367565 188.537447 
L 217.081805 188.04344 
L 217.796045 189.149053 
L 219.224525 189.310072 
L 219.938765 190.081099 
L 220.653005 189.72733 
L 221.367245 190.639012 
L 222.795725 190.866317 
L 223.509965 191.59422 
L 224.224205 191.327332 
L 224.938445 192.185933 
L 225.652685 192.163085 
L 227.081165 193.038199 
L 227.795405 192.967322 
L 228.509645 193.698866 
L 229.223885 193.466661 
L 229.938125 194.269212 
L 230.652365 194.232682 
L 231.366605 194.814385 
L 232.795085 195.257705 
L 233.509325 195.706507 
L 234.223565 195.661484 
L 234.937805 196.386313 
L 235.652045 196.013744 
L 236.366285 196.992223 
L 237.080525 196.177659 
L 237.794765 197.470921 
L 238.509005 196.277399 
L 239.223245 197.931888 
L 239.937485 196.977096 
L 240.651725 198.698728 
L 241.365965 198.614315 
L 242.080205 198.88489 
L 242.794445 199.529482 
L 243.508685 198.685353 
L 244.222925 199.998849 
L 244.937165 199.369979 
L 245.651405 200.614642 
L 247.079885 200.76583 
L 247.794125 201.435259 
L 248.508365 200.774699 
L 249.222605 201.945555 
L 249.936845 201.374824 
L 250.651085 202.495933 
L 251.365325 202.406379 
L 252.793805 203.250135 
L 253.508045 202.971801 
L 254.222285 203.829229 
L 254.936525 203.203253 
L 255.650765 204.340968 
L 256.365005 203.662498 
L 257.079245 204.869366 
L 257.793485 204.309773 
L 258.507725 205.392782 
L 259.221965 205.082467 
L 259.936205 205.874109 
L 260.650445 205.847191 
L 261.364685 206.282558 
L 262.793165 206.673495 
L 263.507405 207.107103 
L 264.221645 207.037196 
L 264.935885 207.711538 
L 265.650125 207.210168 
L 266.364365 208.207465 
L 267.078605 206.594057 
L 267.792845 207.901545 
L 268.507085 204.146535 
L 269.221325 206.682058 
L 269.935565 205.16961 
L 270.649805 209.71961 
L 271.364045 209.94038 
L 272.078285 206.515766 
L 272.792525 209.491195 
L 273.506765 209.36973 
L 274.221005 209.78378 
L 274.935245 210.527871 
L 275.649485 208.717095 
L 276.363725 211.487751 
L 277.077965 211.728707 
L 277.792205 209.506665 
L 278.506445 212.040676 
L 279.220685 212.011517 
L 279.934925 211.265281 
L 280.649165 212.668859 
L 281.363405 211.795744 
L 282.077645 212.863556 
L 282.791885 213.439211 
L 283.506125 212.045395 
L 284.220365 213.895244 
L 284.934605 213.945076 
L 285.648845 213.181821 
L 286.363085 214.530993 
L 287.077325 213.940064 
L 288.505805 215.195351 
L 289.220045 214.256852 
L 289.934285 215.627879 
L 291.362765 215.426357 
L 292.077005 216.282317 
L 292.791245 215.590721 
L 293.505485 216.668352 
L 294.219725 216.690634 
L 294.933965 216.493205 
L 295.648205 217.344872 
L 296.362445 216.776246 
L 297.076685 217.740116 
L 298.505165 217.72934 
L 299.219405 218.379985 
L 299.933645 217.912807 
L 300.647885 218.870043 
L 301.362125 218.540301 
L 302.076365 219.073514 
L 302.790605 219.271513 
L 303.504845 219.235144 
L 304.219085 219.931033 
L 304.933325 219.463638 
L 305.647565 220.335266 
L 306.361805 219.835255 
L 307.076045 220.772148 
L 307.790285 220.470853 
L 308.504525 221.109881 
L 309.218765 220.962055 
L 309.933005 221.400132 
L 311.361485 221.791123 
L 312.075725 222.047762 
L 312.789965 222.033102 
L 313.504205 222.549137 
L 314.218445 222.359377 
L 314.932685 223.132226 
L 315.646925 222.33159 
L 316.361165 223.641535 
L 317.075405 221.603738 
L 317.789645 223.634506 
L 318.503885 218.120508 
L 319.218125 220.543392 
L 319.932365 212.084932 
L 320.646605 220.132952 
L 321.360845 220.894125 
L 322.075085 223.630968 
L 322.789325 223.518272 
L 323.503565 217.17978 
L 324.217805 225.614302 
L 324.932045 225.991811 
L 325.646285 220.268082 
L 326.360525 225.144459 
L 327.074765 224.769223 
L 327.789005 223.865486 
L 328.503245 226.008644 
L 329.217485 223.676374 
L 329.931725 226.534359 
L 330.645965 227.231982 
L 331.360205 223.409468 
L 332.074445 227.683971 
L 332.788685 227.876721 
L 333.502925 224.708649 
L 334.217165 228.309408 
L 334.931405 227.655452 
L 335.645645 226.474655 
L 336.359885 228.782989 
L 337.074125 227.130811 
L 337.788365 228.415324 
L 338.502605 229.408439 
L 339.216845 227.102012 
L 339.931085 229.58415 
L 340.645325 229.549836 
L 341.359565 228.107769 
L 342.073805 230.301889 
L 342.788045 229.19858 
L 343.502285 229.737107 
L 344.216525 230.739835 
L 344.930765 229.082368 
L 345.645005 230.972176 
L 346.359245 230.803536 
L 347.073485 230.155882 
L 347.787725 231.650002 
L 348.501965 230.47914 
L 349.216205 231.570257 
L 349.930445 231.880311 
L 350.644685 231.017718 
L 351.358925 232.466183 
L 352.073165 231.677118 
L 352.787405 232.322428 
L 353.501645 232.771628 
L 354.215885 232.022306 
L 354.930125 233.292328 
L 355.644365 232.653304 
L 356.358605 233.241465 
L 357.072845 233.551439 
L 357.787085 233.036773 
L 358.501325 234.116249 
L 359.215565 233.446508 
L 359.929805 234.275528 
L 361.358285 234.193578 
L 362.072525 234.879812 
L 362.786765 234.302646 
L 363.501005 235.274741 
L 364.215245 234.725856 
L 364.929485 235.469104 
L 365.643725 235.363161 
L 366.357965 235.552904 
L 367.072205 235.959188 
L 367.786445 235.687358 
L 368.500685 236.463851 
L 369.214925 235.875167 
L 369.929165 236.848553 
L 370.643405 236.201817 
L 371.357645 237.229355 
L 372.071885 236.54469 
L 372.786125 237.534199 
L 373.500365 236.943748 
L 374.214605 237.876076 
L 374.928845 237.287997 
L 375.643085 238.225462 
L 376.357325 237.604276 
L 377.071565 238.665299 
L 377.785805 237.745789 
L 378.500045 239.181672 
L 379.214285 237.648653 
L 379.928525 239.84615 
L 380.642765 236.818028 
L 381.357005 240.428125 
L 382.071245 234.218197 
L 382.785485 239.673278 
L 383.499725 227.834833 
L 384.213965 235.289403 
L 384.928205 222.215372 
L 385.642445 236.777284 
L 386.356685 234.440118 
L 387.070925 239.592208 
L 387.785165 240.980605 
L 388.499405 228.45219 
L 389.213645 240.975459 
L 389.927885 239.069496 
L 390.642125 237.801593 
L 391.356365 241.674853 
L 392.070605 233.48456 
L 392.784845 243.050656 
L 393.499085 242.880048 
L 394.213325 236.059589 
L 394.927565 243.075291 
L 395.641805 239.059813 
L 396.356045 241.752155 
L 397.070285 243.971454 
L 397.784525 237.353395 
L 398.498765 244.287537 
L 399.213005 242.933436 
L 399.927245 240.65855 
L 400.641485 244.73429 
L 401.355725 240.136355 
L 402.069965 244.364926 
L 402.784205 244.675694 
L 403.498445 241.085288 
L 404.212685 245.530759 
L 404.926925 242.499271 
L 405.641165 244.459641 
L 406.355405 245.643915 
L 407.069645 242.29747 
L 407.783885 246.181897 
L 407.783885 246.181897 
" clip-path="url(#p8179cd257c)" style="fill: none; stroke: #ff7f0e; stroke-linecap: square"/>
   </g>
   <g id="line2d_30">
    <path d="M 51.378125 19.296 
L 56.377805 40.044231 
L 57.806285 46.885545 
L 59.234765 54.913534 
L 60.663245 64.271618 
L 62.805965 80.288493 
L 65.662925 102.100888 
L 67.091405 111.165447 
L 67.805645 114.772166 
L 68.519885 117.667553 
L 69.234125 119.790147 
L 69.948365 121.137874 
L 70.662605 121.814997 
L 71.376845 121.972594 
L 73.519565 121.607665 
L 74.233805 121.736967 
L 74.948045 122.139132 
L 75.662285 122.83803 
L 76.376525 123.829561 
L 77.805005 126.555162 
L 79.233485 129.866575 
L 82.804685 139.014969 
L 86.375885 146.529837 
L 87.804365 149.56607 
L 88.518605 150.637768 
L 89.232845 151.403325 
L 90.661325 152.4328 
L 91.375565 152.710257 
L 92.804045 152.81494 
L 94.232525 152.691907 
L 96.375245 152.384155 
L 99.946445 152.469112 
L 102.089165 153.151363 
L 104.946125 154.561181 
L 106.374605 155.537203 
L 108.517325 156.992098 
L 111.374285 158.47354 
L 114.231245 159.71662 
L 117.802445 161.050368 
L 122.087885 163.043109 
L 127.801805 165.471692 
L 129.944525 166.380172 
L 132.801485 167.927498 
L 160.656845 183.814332 
L 174.227405 190.916112 
L 183.512525 195.731911 
L 203.511245 206.208308 
L 204.225485 206.248882 
L 204.939725 206.995244 
L 205.653965 206.482355 
L 206.368205 207.649702 
L 207.082445 206.132692 
L 207.796685 208.038884 
L 208.510925 207.301911 
L 209.225165 208.922116 
L 209.939405 209.314202 
L 210.653645 208.140499 
L 211.367885 209.883108 
L 212.082125 209.761651 
L 212.796365 210.200642 
L 213.510605 210.870082 
L 214.224845 209.963954 
L 214.939085 211.514202 
L 215.653325 211.721359 
L 216.367565 211.334232 
L 217.081805 212.406806 
L 217.796045 212.028551 
L 218.510285 212.897593 
L 219.224525 213.289238 
L 219.938765 212.750572 
L 220.653005 213.903612 
L 221.367245 213.72548 
L 222.081485 214.319714 
L 222.795725 214.748316 
L 223.509965 214.302023 
L 224.224205 215.339625 
L 224.938445 215.060258 
L 225.652685 215.880412 
L 226.366925 216.02672 
L 227.081165 216.028859 
L 227.795405 216.745401 
L 228.509645 216.433044 
L 229.223885 217.350021 
L 229.938125 217.020979 
L 230.652365 217.811512 
L 231.366605 217.803146 
L 232.795085 218.63623 
L 233.509325 218.667198 
L 234.223565 219.298502 
L 234.937805 218.846692 
L 235.652045 219.809183 
L 236.366285 218.841445 
L 237.080525 220.274087 
L 237.794765 218.730589 
L 238.509005 220.548024 
L 239.223245 218.686943 
L 239.937485 221.142862 
L 240.651725 220.347026 
L 241.365965 221.849095 
L 242.080205 222.131668 
L 242.794445 221.345608 
L 243.508685 222.586067 
L 244.222925 221.155798 
L 244.937165 223.123436 
L 245.651405 222.606651 
L 246.365645 223.51117 
L 247.079885 223.84873 
L 247.794125 223.134612 
L 248.508365 224.37255 
L 249.222605 223.260711 
L 249.936845 224.869347 
L 250.651085 224.232105 
L 251.365325 225.276487 
L 252.079565 225.389896 
L 252.793805 225.249344 
L 253.508045 226.059179 
L 254.222285 225.236727 
L 254.936525 226.530152 
L 255.650765 225.412937 
L 256.365005 226.960972 
L 257.079245 225.88376 
L 257.793485 227.459436 
L 258.507725 226.74386 
L 259.221965 227.885765 
L 259.936205 227.483843 
L 260.650445 228.228281 
L 261.364685 228.262667 
L 262.793165 228.847466 
L 263.507405 228.811445 
L 264.221645 229.40833 
L 264.935885 228.912396 
L 265.650125 229.908453 
L 266.364365 228.520687 
L 267.078605 229.952086 
L 267.792845 226.02422 
L 268.507085 228.00282 
L 269.221325 222.395188 
L 269.935565 228.865379 
L 270.649805 229.790355 
L 271.364045 229.764949 
L 272.078285 230.081237 
L 272.792525 226.777996 
L 273.506765 231.932777 
L 274.221005 232.184276 
L 274.935245 228.448921 
L 275.649485 231.868252 
L 276.363725 231.957264 
L 277.077965 231.569404 
L 277.792205 232.522121 
L 278.506445 231.051753 
L 279.220685 233.316328 
L 279.934925 233.598318 
L 280.649165 231.41286 
L 281.363405 233.993746 
L 282.077645 234.022335 
L 282.791885 232.770384 
L 283.506125 234.418119 
L 284.220365 233.811899 
L 284.934605 234.537899 
L 285.648845 235.077947 
L 286.363085 233.643312 
L 287.077325 235.536341 
L 287.791565 235.56858 
L 288.505805 234.827499 
L 289.220045 235.982999 
L 289.934285 235.213964 
L 290.648525 236.305962 
L 291.362765 236.616722 
L 292.077005 235.701038 
L 292.791245 236.905196 
L 293.505485 236.468416 
L 294.219725 237.104306 
L 294.933965 237.52031 
L 295.648205 236.7652 
L 296.362445 237.812839 
L 297.076685 237.43616 
L 297.790925 238.092278 
L 298.505165 238.363958 
L 299.219405 237.882554 
L 299.933645 238.731534 
L 300.647885 238.261633 
L 301.362125 239.144258 
L 302.076365 239.031615 
L 302.790605 239.144807 
L 303.504845 239.568903 
L 304.219085 239.291928 
L 304.933325 240.100045 
L 305.647565 239.573501 
L 306.361805 240.381102 
L 307.076045 239.944322 
L 307.790285 240.757236 
L 308.504525 240.57894 
L 309.218765 241.054681 
L 309.933005 241.022937 
L 311.361485 241.509308 
L 312.075725 241.618406 
L 312.789965 241.940844 
L 313.504205 241.853037 
L 314.218445 242.401198 
L 314.932685 241.993486 
L 315.646925 242.81888 
L 316.361165 241.611894 
L 317.075405 242.894994 
L 317.789645 239.452291 
L 318.503885 240.501812 
L 319.218125 231.969866 
L 319.932365 234.575397 
L 320.646605 230.542759 
L 321.360845 242.615494 
L 322.075085 244.14323 
L 322.789325 236.576607 
L 323.503565 239.701006 
L 324.217805 241.346234 
L 324.932045 243.453991 
L 325.646285 242.379906 
L 326.360525 238.996899 
L 327.074765 245.373667 
L 327.789005 245.105079 
L 328.503245 240.264059 
L 329.217485 244.955637 
L 329.931725 245.736471 
L 330.645965 243.106849 
L 331.360205 245.137868 
L 332.074445 245.466136 
L 332.788685 245.453184 
L 333.502925 245.941401 
L 334.217165 244.581695 
L 334.931405 247.041165 
L 335.645645 247.132442 
L 336.359885 244.968967 
L 337.074125 247.460703 
L 337.788365 247.58488 
L 338.502605 246.282388 
L 339.216845 247.773391 
L 339.931085 247.387788 
L 340.645325 247.97641 
L 341.359565 248.406041 
L 342.073805 247.133098 
L 342.788045 248.689451 
L 343.502285 248.815722 
L 344.216525 248.119075 
L 344.930765 249.194931 
L 345.645005 248.692298 
L 347.073485 249.593963 
L 347.787725 248.880062 
L 348.501965 249.983273 
L 349.216205 249.840123 
L 349.930445 249.827278 
L 350.644685 250.352813 
L 351.358925 249.81118 
L 352.073165 250.660357 
L 353.501645 250.642205 
L 354.215885 251.127417 
L 354.930125 250.696005 
L 355.644365 251.360588 
L 357.072845 251.496894 
L 357.787085 251.874821 
L 358.501325 251.540318 
L 359.215565 252.126384 
L 359.929805 252.062465 
L 361.358285 252.561348 
L 362.072525 252.445815 
L 362.786765 252.900034 
L 363.501005 252.708194 
L 364.215245 253.162707 
L 364.929485 253.112543 
L 365.643725 253.443982 
L 366.357965 253.592882 
L 367.072205 253.587453 
L 367.786445 253.870851 
L 368.500685 253.802963 
L 369.214925 254.274429 
L 369.929165 254.092575 
L 370.643405 254.500787 
L 371.357645 254.338879 
L 372.071885 254.853429 
L 372.786125 254.695252 
L 373.500365 255.087154 
L 374.214605 254.983213 
L 374.928845 255.437469 
L 375.643085 255.294173 
L 376.357325 255.668895 
L 377.071565 255.528624 
L 377.785805 256.063028 
L 378.500045 255.724061 
L 379.214285 256.252121 
L 379.928525 255.502062 
L 380.642765 256.293564 
L 381.357005 254.549625 
L 382.071245 255.01724 
L 382.785485 250.364937 
L 383.499725 249.9193 
L 384.213965 242.113829 
L 384.928205 244.429076 
L 385.642445 243.86878 
L 386.356685 255.156981 
L 387.070925 257.753293 
L 387.785165 251.785085 
L 388.499405 250.67932 
L 389.213645 250.979019 
L 389.927885 257.864617 
L 390.642125 257.510971 
L 391.356365 252.014307 
L 392.070605 254.978049 
L 392.784845 257.414731 
L 393.499085 258.041112 
L 394.213325 256.79593 
L 394.927565 254.206582 
L 395.641805 258.709902 
L 396.356045 259.559735 
L 397.070285 256.969598 
L 397.784525 257.862511 
L 398.498765 257.744561 
L 399.213005 259.868413 
L 399.927245 259.732124 
L 400.641485 257.743089 
L 401.355725 259.640702 
L 402.069965 260.010074 
L 403.498445 260.22496 
L 404.212685 259.306641 
L 404.926925 260.961715 
L 405.641165 261.216 
L 406.355405 260.715629 
L 407.069645 261.063434 
L 407.783885 260.625948 
L 407.783885 260.625948 
" clip-path="url(#p8179cd257c)" style="fill: none; stroke: #2ca02c; stroke-linecap: square"/>
   </g>
   <g id="patch_3">
    <path d="M 51.378125 273.312 
L 51.378125 7.2 
" style="fill: none; stroke: #000000; stroke-width: 0.8; stroke-linejoin: miter; stroke-linecap: square"/>
   </g>
   <g id="patch_4">
    <path d="M 408.498125 273.312 
L 408.498125 7.2 
" style="fill: none; stroke: #000000; stroke-width: 0.8; stroke-linejoin: miter; stroke-linecap: square"/>
   </g>
   <g id="patch_5">
    <path d="M 51.378125 273.312 
L 408.498125 273.312 
" style="fill: none; stroke: #000000; stroke-width: 0.8; stroke-linejoin: miter; stroke-linecap: square"/>
   </g>
   <g id="patch_6">
    <path d="M 51.378125 7.2 
L 408.498125 7.2 
" style="fill: none; stroke: #000000; stroke-width: 0.8; stroke-linejoin: miter; stroke-linecap: square"/>
   </g>
   <g id="legend_1">
    <g id="patch_7">
     <path d="M 320.26375 59.234375 
L 401.498125 59.234375 
Q 403.498125 59.234375 403.498125 57.234375 
L 403.498125 14.2 
Q 403.498125 12.2 401.498125 12.2 
L 320.26375 12.2 
Q 318.26375 12.2 318.26375 14.2 
L 318.26375 57.234375 
Q 318.26375 59.234375 320.26375 59.234375 
z
" style="fill: #ffffff; opacity: 0.8; stroke: #cccccc; stroke-linejoin: miter"/>
    </g>
    <g id="line2d_31">
     <path d="M 322.26375 20.298437 
L 332.26375 20.298437 
L 342.26375 20.298437 
" style="fill: none; stroke: #1f77b4; stroke-linecap: square"/>
    </g>
    <g id="text_11">
     <!-- training -->
     <g transform="translate(350.26375 23.798437) scale(0.1 -0.1)">
      <defs>
       <path id="DejaVuSans-74" d="M 1172 4494 
L 1172 3500 
L 2356 3500 
L 2356 3053 
L 1172 3053 
L 1172 1153 
Q 1172 725 1289 603 
Q 1406 481 1766 481 
L 2356 481 
L 2356 0 
L 1766 0 
Q 1100 0 847 248 
Q 594 497 594 1153 
L 594 3053 
L 172 3053 
L 172 3500 
L 594 3500 
L 594 4494 
L 1172 4494 
z
" transform="scale(0.015625)"/>
       <path id="DejaVuSans-72" d="M 2631 2963 
Q 2534 3019 2420 3045 
Q 2306 3072 2169 3072 
Q 1681 3072 1420 2755 
Q 1159 2438 1159 1844 
L 1159 0 
L 581 0 
L 581 3500 
L 1159 3500 
L 1159 2956 
Q 1341 3275 1631 3429 
Q 1922 3584 2338 3584 
Q 2397 3584 2469 3576 
Q 2541 3569 2628 3553 
L 2631 2963 
z
" transform="scale(0.015625)"/>
       <path id="DejaVuSans-61" d="M 2194 1759 
Q 1497 1759 1228 1600 
Q 959 1441 959 1056 
Q 959 750 1161 570 
Q 1363 391 1709 391 
Q 2188 391 2477 730 
Q 2766 1069 2766 1631 
L 2766 1759 
L 2194 1759 
z
M 3341 1997 
L 3341 0 
L 2766 0 
L 2766 531 
Q 2569 213 2275 61 
Q 1981 -91 1556 -91 
Q 1019 -91 701 211 
Q 384 513 384 1019 
Q 384 1609 779 1909 
Q 1175 2209 1959 2209 
L 2766 2209 
L 2766 2266 
Q 2766 2663 2505 2880 
Q 2244 3097 1772 3097 
Q 1472 3097 1187 3025 
Q 903 2953 641 2809 
L 641 3341 
Q 956 3463 1253 3523 
Q 1550 3584 1831 3584 
Q 2591 3584 2966 3190 
Q 3341 2797 3341 1997 
z
" transform="scale(0.015625)"/>
       <path id="DejaVuSans-69" d="M 603 3500 
L 1178 3500 
L 1178 0 
L 603 0 
L 603 3500 
z
M 603 4863 
L 1178 4863 
L 1178 4134 
L 603 4134 
L 603 4863 
z
" transform="scale(0.015625)"/>
       <path id="DejaVuSans-6e" d="M 3513 2113 
L 3513 0 
L 2938 0 
L 2938 2094 
Q 2938 2591 2744 2837 
Q 2550 3084 2163 3084 
Q 1697 3084 1428 2787 
Q 1159 2491 1159 1978 
L 1159 0 
L 581 0 
L 581 3500 
L 1159 3500 
L 1159 2956 
Q 1366 3272 1645 3428 
Q 1925 3584 2291 3584 
Q 2894 3584 3203 3211 
Q 3513 2838 3513 2113 
z
" transform="scale(0.015625)"/>
       <path id="DejaVuSans-67" d="M 2906 1791 
Q 2906 2416 2648 2759 
Q 2391 3103 1925 3103 
Q 1463 3103 1205 2759 
Q 947 2416 947 1791 
Q 947 1169 1205 825 
Q 1463 481 1925 481 
Q 2391 481 2648 825 
Q 2906 1169 2906 1791 
z
M 3481 434 
Q 3481 -459 3084 -895 
Q 2688 -1331 1869 -1331 
Q 1566 -1331 1297 -1286 
Q 1028 -1241 775 -1147 
L 775 -588 
Q 1028 -725 1275 -790 
Q 1522 -856 1778 -856 
Q 2344 -856 2625 -561 
Q 2906 -266 2906 331 
L 2906 616 
Q 2728 306 2450 153 
Q 2172 0 1784 0 
Q 1141 0 747 490 
Q 353 981 353 1791 
Q 353 2603 747 3093 
Q 1141 3584 1784 3584 
Q 2172 3584 2450 3431 
Q 2728 3278 2906 2969 
L 2906 3500 
L 3481 3500 
L 3481 434 
z
" transform="scale(0.015625)"/>
      </defs>
      <use xlink:href="#DejaVuSans-74"/>
      <use xlink:href="#DejaVuSans-72" x="39.208984"/>
      <use xlink:href="#DejaVuSans-61" x="80.322266"/>
      <use xlink:href="#DejaVuSans-69" x="141.601562"/>
      <use xlink:href="#DejaVuSans-6e" x="169.384766"/>
      <use xlink:href="#DejaVuSans-69" x="232.763672"/>
      <use xlink:href="#DejaVuSans-6e" x="260.546875"/>
      <use xlink:href="#DejaVuSans-67" x="323.925781"/>
     </g>
    </g>
    <g id="line2d_32">
     <path d="M 322.26375 34.976562 
L 332.26375 34.976562 
L 342.26375 34.976562 
" style="fill: none; stroke: #ff7f0e; stroke-linecap: square"/>
    </g>
    <g id="text_12">
     <!-- validation -->
     <g transform="translate(350.26375 38.476562) scale(0.1 -0.1)">
      <defs>
       <path id="DejaVuSans-76" d="M 191 3500 
L 800 3500 
L 1894 563 
L 2988 3500 
L 3597 3500 
L 2284 0 
L 1503 0 
L 191 3500 
z
" transform="scale(0.015625)"/>
       <path id="DejaVuSans-6c" d="M 603 4863 
L 1178 4863 
L 1178 0 
L 603 0 
L 603 4863 
z
" transform="scale(0.015625)"/>
       <path id="DejaVuSans-64" d="M 2906 2969 
L 2906 4863 
L 3481 4863 
L 3481 0 
L 2906 0 
L 2906 525 
Q 2725 213 2448 61 
Q 2172 -91 1784 -91 
Q 1150 -91 751 415 
Q 353 922 353 1747 
Q 353 2572 751 3078 
Q 1150 3584 1784 3584 
Q 2172 3584 2448 3432 
Q 2725 3281 2906 2969 
z
M 947 1747 
Q 947 1113 1208 752 
Q 1469 391 1925 391 
Q 2381 391 2643 752 
Q 2906 1113 2906 1747 
Q 2906 2381 2643 2742 
Q 2381 3103 1925 3103 
Q 1469 3103 1208 2742 
Q 947 2381 947 1747 
z
" transform="scale(0.015625)"/>
      </defs>
      <use xlink:href="#DejaVuSans-76"/>
      <use xlink:href="#DejaVuSans-61" x="59.179688"/>
      <use xlink:href="#DejaVuSans-6c" x="120.458984"/>
      <use xlink:href="#DejaVuSans-69" x="148.242188"/>
      <use xlink:href="#DejaVuSans-64" x="176.025391"/>
      <use xlink:href="#DejaVuSans-61" x="239.501953"/>
      <use xlink:href="#DejaVuSans-74" x="300.78125"/>
      <use xlink:href="#DejaVuSans-69" x="339.990234"/>
      <use xlink:href="#DejaVuSans-6f" x="367.773438"/>
      <use xlink:href="#DejaVuSans-6e" x="428.955078"/>
     </g>
    </g>
    <g id="line2d_33">
     <path d="M 322.26375 49.654687 
L 332.26375 49.654687 
L 342.26375 49.654687 
" style="fill: none; stroke: #2ca02c; stroke-linecap: square"/>
    </g>
    <g id="text_13">
     <!-- testing -->
     <g transform="translate(350.26375 53.154687) scale(0.1 -0.1)">
      <defs>
       <path id="DejaVuSans-73" d="M 2834 3397 
L 2834 2853 
Q 2591 2978 2328 3040 
Q 2066 3103 1784 3103 
Q 1356 3103 1142 2972 
Q 928 2841 928 2578 
Q 928 2378 1081 2264 
Q 1234 2150 1697 2047 
L 1894 2003 
Q 2506 1872 2764 1633 
Q 3022 1394 3022 966 
Q 3022 478 2636 193 
Q 2250 -91 1575 -91 
Q 1294 -91 989 -36 
Q 684 19 347 128 
L 347 722 
Q 666 556 975 473 
Q 1284 391 1588 391 
Q 1994 391 2212 530 
Q 2431 669 2431 922 
Q 2431 1156 2273 1281 
Q 2116 1406 1581 1522 
L 1381 1569 
Q 847 1681 609 1914 
Q 372 2147 372 2553 
Q 372 3047 722 3315 
Q 1072 3584 1716 3584 
Q 2034 3584 2315 3537 
Q 2597 3491 2834 3397 
z
" transform="scale(0.015625)"/>
      </defs>
      <use xlink:href="#DejaVuSans-74"/>
      <use xlink:href="#DejaVuSans-65" x="39.208984"/>
      <use xlink:href="#DejaVuSans-73" x="100.732422"/>
      <use xlink:href="#DejaVuSans-74" x="152.832031"/>
      <use xlink:href="#DejaVuSans-69" x="192.041016"/>
      <use xlink:href="#DejaVuSans-6e" x="219.824219"/>
      <use xlink:href="#DejaVuSans-67" x="283.203125"/>
     </g>
    </g>
   </g>
  </g>
 </g>
 <defs>
  <clipPath id="p8179cd257c">
   <rect x="51.378125" y="7.2" width="357.12" height="266.112"/>
  </clipPath>
 </defs>
</svg>
