<?xml version="1.0" encoding="utf-8" standalone="no"?>
<!DOCTYPE svg PUBLIC "-//W3C//DTD SVG 1.1//EN"
  "http://www.w3.org/Graphics/SVG/1.1/DTD/svg11.dtd">
<svg xmlns:xlink="http://www.w3.org/1999/xlink" width="425.241875pt" height="310.86825pt" viewBox="0 0 425.241875 310.86825" xmlns="http://www.w3.org/2000/svg" version="1.1">
 <metadata>
  <rdf:RDF xmlns:dc="http://purl.org/dc/elements/1.1/" xmlns:cc="http://creativecommons.org/ns#" xmlns:rdf="http://www.w3.org/1999/02/22-rdf-syntax-ns#">
   <cc:Work>
    <dc:type rdf:resource="http://purl.org/dc/dcmitype/StillImage"/>
    <dc:date>2022-11-21T15:03:28.248242</dc:date>
    <dc:format>image/svg+xml</dc:format>
    <dc:creator>
     <cc:Agent>
      <dc:title>Matplotlib v3.6.1, https://matplotlib.org/</dc:title>
     </cc:Agent>
    </dc:creator>
   </cc:Work>
  </rdf:RDF>
 </metadata>
 <defs>
  <style type="text/css">*{stroke-linejoin: round; stroke-linecap: butt}</style>
 </defs>
 <g id="figure_1">
  <g id="patch_1">
   <path d="M 0 310.86825 
L 425.241875 310.86825 
L 425.241875 0 
L 0 0 
z
" style="fill: #ffffff"/>
  </g>
  <g id="axes_1">
   <g id="patch_2">
    <path d="M 51.378125 273.312 
L 408.498125 273.312 
L 408.498125 7.2 
L 51.378125 7.2 
z
" style="fill: #ffffff"/>
   </g>
   <g id="matplotlib.axis_1">
    <g id="xtick_1">
     <g id="line2d_1">
      <defs>
       <path id="mddbdb422d0" d="M 0 0 
L 0 3.5 
" style="stroke: #000000; stroke-width: 0.8"/>
      </defs>
      <g>
       <use xlink:href="#mddbdb422d0" x="51.378125" y="273.312" style="stroke: #000000; stroke-width: 0.8"/>
      </g>
     </g>
     <g id="text_1">
      <!-- 0 -->
      <g transform="translate(48.196875 287.910437) scale(0.1 -0.1)">
       <defs>
        <path id="DejaVuSans-30" d="M 2034 4250 
Q 1547 4250 1301 3770 
Q 1056 3291 1056 2328 
Q 1056 1369 1301 889 
Q 1547 409 2034 409 
Q 2525 409 2770 889 
Q 3016 1369 3016 2328 
Q 3016 3291 2770 3770 
Q 2525 4250 2034 4250 
z
M 2034 4750 
Q 2819 4750 3233 4129 
Q 3647 3509 3647 2328 
Q 3647 1150 3233 529 
Q 2819 -91 2034 -91 
Q 1250 -91 836 529 
Q 422 1150 422 2328 
Q 422 3509 836 4129 
Q 1250 4750 2034 4750 
z
" transform="scale(0.015625)"/>
       </defs>
       <use xlink:href="#DejaVuSans-30"/>
      </g>
     </g>
    </g>
    <g id="xtick_2">
     <g id="line2d_2">
      <g>
       <use xlink:href="#mddbdb422d0" x="122.802125" y="273.312" style="stroke: #000000; stroke-width: 0.8"/>
      </g>
     </g>
     <g id="text_2">
      <!-- 100 -->
      <g transform="translate(113.258375 287.910437) scale(0.1 -0.1)">
       <defs>
        <path id="DejaVuSans-31" d="M 794 531 
L 1825 531 
L 1825 4091 
L 703 3866 
L 703 4441 
L 1819 4666 
L 2450 4666 
L 2450 531 
L 3481 531 
L 3481 0 
L 794 0 
L 794 531 
z
" transform="scale(0.015625)"/>
       </defs>
       <use xlink:href="#DejaVuSans-31"/>
       <use xlink:href="#DejaVuSans-30" x="63.623047"/>
       <use xlink:href="#DejaVuSans-30" x="127.246094"/>
      </g>
     </g>
    </g>
    <g id="xtick_3">
     <g id="line2d_3">
      <g>
       <use xlink:href="#mddbdb422d0" x="194.226125" y="273.312" style="stroke: #000000; stroke-width: 0.8"/>
      </g>
     </g>
     <g id="text_3">
      <!-- 200 -->
      <g transform="translate(184.682375 287.910437) scale(0.1 -0.1)">
       <defs>
        <path id="DejaVuSans-32" d="M 1228 531 
L 3431 531 
L 3431 0 
L 469 0 
L 469 531 
Q 828 903 1448 1529 
Q 2069 2156 2228 2338 
Q 2531 2678 2651 2914 
Q 2772 3150 2772 3378 
Q 2772 3750 2511 3984 
Q 2250 4219 1831 4219 
Q 1534 4219 1204 4116 
Q 875 4013 500 3803 
L 500 4441 
Q 881 4594 1212 4672 
Q 1544 4750 1819 4750 
Q 2544 4750 2975 4387 
Q 3406 4025 3406 3419 
Q 3406 3131 3298 2873 
Q 3191 2616 2906 2266 
Q 2828 2175 2409 1742 
Q 1991 1309 1228 531 
z
" transform="scale(0.015625)"/>
       </defs>
       <use xlink:href="#DejaVuSans-32"/>
       <use xlink:href="#DejaVuSans-30" x="63.623047"/>
       <use xlink:href="#DejaVuSans-30" x="127.246094"/>
      </g>
     </g>
    </g>
    <g id="xtick_4">
     <g id="line2d_4">
      <g>
       <use xlink:href="#mddbdb422d0" x="265.650125" y="273.312" style="stroke: #000000; stroke-width: 0.8"/>
      </g>
     </g>
     <g id="text_4">
      <!-- 300 -->
      <g transform="translate(256.106375 287.910437) scale(0.1 -0.1)">
       <defs>
        <path id="DejaVuSans-33" d="M 2597 2516 
Q 3050 2419 3304 2112 
Q 3559 1806 3559 1356 
Q 3559 666 3084 287 
Q 2609 -91 1734 -91 
Q 1441 -91 1130 -33 
Q 819 25 488 141 
L 488 750 
Q 750 597 1062 519 
Q 1375 441 1716 441 
Q 2309 441 2620 675 
Q 2931 909 2931 1356 
Q 2931 1769 2642 2001 
Q 2353 2234 1838 2234 
L 1294 2234 
L 1294 2753 
L 1863 2753 
Q 2328 2753 2575 2939 
Q 2822 3125 2822 3475 
Q 2822 3834 2567 4026 
Q 2313 4219 1838 4219 
Q 1578 4219 1281 4162 
Q 984 4106 628 3988 
L 628 4550 
Q 988 4650 1302 4700 
Q 1616 4750 1894 4750 
Q 2613 4750 3031 4423 
Q 3450 4097 3450 3541 
Q 3450 3153 3228 2886 
Q 3006 2619 2597 2516 
z
" transform="scale(0.015625)"/>
       </defs>
       <use xlink:href="#DejaVuSans-33"/>
       <use xlink:href="#DejaVuSans-30" x="63.623047"/>
       <use xlink:href="#DejaVuSans-30" x="127.246094"/>
      </g>
     </g>
    </g>
    <g id="xtick_5">
     <g id="line2d_5">
      <g>
       <use xlink:href="#mddbdb422d0" x="337.074125" y="273.312" style="stroke: #000000; stroke-width: 0.8"/>
      </g>
     </g>
     <g id="text_5">
      <!-- 400 -->
      <g transform="translate(327.530375 287.910437) scale(0.1 -0.1)">
       <defs>
        <path id="DejaVuSans-34" d="M 2419 4116 
L 825 1625 
L 2419 1625 
L 2419 4116 
z
M 2253 4666 
L 3047 4666 
L 3047 1625 
L 3713 1625 
L 3713 1100 
L 3047 1100 
L 3047 0 
L 2419 0 
L 2419 1100 
L 313 1100 
L 313 1709 
L 2253 4666 
z
" transform="scale(0.015625)"/>
       </defs>
       <use xlink:href="#DejaVuSans-34"/>
       <use xlink:href="#DejaVuSans-30" x="63.623047"/>
       <use xlink:href="#DejaVuSans-30" x="127.246094"/>
      </g>
     </g>
    </g>
    <g id="xtick_6">
     <g id="line2d_6">
      <g>
       <use xlink:href="#mddbdb422d0" x="408.498125" y="273.312" style="stroke: #000000; stroke-width: 0.8"/>
      </g>
     </g>
     <g id="text_6">
      <!-- 500 -->
      <g transform="translate(398.954375 287.910437) scale(0.1 -0.1)">
       <defs>
        <path id="DejaVuSans-35" d="M 691 4666 
L 3169 4666 
L 3169 4134 
L 1269 4134 
L 1269 2991 
Q 1406 3038 1543 3061 
Q 1681 3084 1819 3084 
Q 2600 3084 3056 2656 
Q 3513 2228 3513 1497 
Q 3513 744 3044 326 
Q 2575 -91 1722 -91 
Q 1428 -91 1123 -41 
Q 819 9 494 109 
L 494 744 
Q 775 591 1075 516 
Q 1375 441 1709 441 
Q 2250 441 2565 725 
Q 2881 1009 2881 1497 
Q 2881 1984 2565 2268 
Q 2250 2553 1709 2553 
Q 1456 2553 1204 2497 
Q 953 2441 691 2322 
L 691 4666 
z
" transform="scale(0.015625)"/>
       </defs>
       <use xlink:href="#DejaVuSans-35"/>
       <use xlink:href="#DejaVuSans-30" x="63.623047"/>
       <use xlink:href="#DejaVuSans-30" x="127.246094"/>
      </g>
     </g>
    </g>
    <g id="text_7">
     <!-- epoch -->
     <g transform="translate(214.71 301.588562) scale(0.1 -0.1)">
      <defs>
       <path id="DejaVuSans-65" d="M 3597 1894 
L 3597 1613 
L 953 1613 
Q 991 1019 1311 708 
Q 1631 397 2203 397 
Q 2534 397 2845 478 
Q 3156 559 3463 722 
L 3463 178 
Q 3153 47 2828 -22 
Q 2503 -91 2169 -91 
Q 1331 -91 842 396 
Q 353 884 353 1716 
Q 353 2575 817 3079 
Q 1281 3584 2069 3584 
Q 2775 3584 3186 3129 
Q 3597 2675 3597 1894 
z
M 3022 2063 
Q 3016 2534 2758 2815 
Q 2500 3097 2075 3097 
Q 1594 3097 1305 2825 
Q 1016 2553 972 2059 
L 3022 2063 
z
" transform="scale(0.015625)"/>
       <path id="DejaVuSans-70" d="M 1159 525 
L 1159 -1331 
L 581 -1331 
L 581 3500 
L 1159 3500 
L 1159 2969 
Q 1341 3281 1617 3432 
Q 1894 3584 2278 3584 
Q 2916 3584 3314 3078 
Q 3713 2572 3713 1747 
Q 3713 922 3314 415 
Q 2916 -91 2278 -91 
Q 1894 -91 1617 61 
Q 1341 213 1159 525 
z
M 3116 1747 
Q 3116 2381 2855 2742 
Q 2594 3103 2138 3103 
Q 1681 3103 1420 2742 
Q 1159 2381 1159 1747 
Q 1159 1113 1420 752 
Q 1681 391 2138 391 
Q 2594 391 2855 752 
Q 3116 1113 3116 1747 
z
" transform="scale(0.015625)"/>
       <path id="DejaVuSans-6f" d="M 1959 3097 
Q 1497 3097 1228 2736 
Q 959 2375 959 1747 
Q 959 1119 1226 758 
Q 1494 397 1959 397 
Q 2419 397 2687 759 
Q 2956 1122 2956 1747 
Q 2956 2369 2687 2733 
Q 2419 3097 1959 3097 
z
M 1959 3584 
Q 2709 3584 3137 3096 
Q 3566 2609 3566 1747 
Q 3566 888 3137 398 
Q 2709 -91 1959 -91 
Q 1206 -91 779 398 
Q 353 888 353 1747 
Q 353 2609 779 3096 
Q 1206 3584 1959 3584 
z
" transform="scale(0.015625)"/>
       <path id="DejaVuSans-63" d="M 3122 3366 
L 3122 2828 
Q 2878 2963 2633 3030 
Q 2388 3097 2138 3097 
Q 1578 3097 1268 2742 
Q 959 2388 959 1747 
Q 959 1106 1268 751 
Q 1578 397 2138 397 
Q 2388 397 2633 464 
Q 2878 531 3122 666 
L 3122 134 
Q 2881 22 2623 -34 
Q 2366 -91 2075 -91 
Q 1284 -91 818 406 
Q 353 903 353 1747 
Q 353 2603 823 3093 
Q 1294 3584 2113 3584 
Q 2378 3584 2631 3529 
Q 2884 3475 3122 3366 
z
" transform="scale(0.015625)"/>
       <path id="DejaVuSans-68" d="M 3513 2113 
L 3513 0 
L 2938 0 
L 2938 2094 
Q 2938 2591 2744 2837 
Q 2550 3084 2163 3084 
Q 1697 3084 1428 2787 
Q 1159 2491 1159 1978 
L 1159 0 
L 581 0 
L 581 4863 
L 1159 4863 
L 1159 2956 
Q 1366 3272 1645 3428 
Q 1925 3584 2291 3584 
Q 2894 3584 3203 3211 
Q 3513 2838 3513 2113 
z
" transform="scale(0.015625)"/>
      </defs>
      <use xlink:href="#DejaVuSans-65"/>
      <use xlink:href="#DejaVuSans-70" x="61.523438"/>
      <use xlink:href="#DejaVuSans-6f" x="125"/>
      <use xlink:href="#DejaVuSans-63" x="186.181641"/>
      <use xlink:href="#DejaVuSans-68" x="241.162109"/>
     </g>
    </g>
   </g>
   <g id="matplotlib.axis_2">
    <g id="ytick_1">
     <g id="line2d_7">
      <defs>
       <path id="ma882b3df18" d="M 0 0 
L -3.5 0 
" style="stroke: #000000; stroke-width: 0.8"/>
      </defs>
      <g>
       <use xlink:href="#ma882b3df18" x="51.378125" y="221.543226" style="stroke: #000000; stroke-width: 0.8"/>
      </g>
     </g>
     <g id="text_8">
      <!-- $\mathdefault{10^{-3}}$ -->
      <g transform="translate(20.878125 225.342445) scale(0.1 -0.1)">
       <defs>
        <path id="DejaVuSans-2212" d="M 678 2272 
L 4684 2272 
L 4684 1741 
L 678 1741 
L 678 2272 
z
" transform="scale(0.015625)"/>
       </defs>
       <use xlink:href="#DejaVuSans-31" transform="translate(0 0.765625)"/>
       <use xlink:href="#DejaVuSans-30" transform="translate(63.623047 0.765625)"/>
       <use xlink:href="#DejaVuSans-2212" transform="translate(128.203125 39.046875) scale(0.7)"/>
       <use xlink:href="#DejaVuSans-33" transform="translate(186.855469 39.046875) scale(0.7)"/>
      </g>
     </g>
    </g>
    <g id="ytick_2">
     <g id="line2d_8">
      <g>
       <use xlink:href="#ma882b3df18" x="51.378125" y="140.201397" style="stroke: #000000; stroke-width: 0.8"/>
      </g>
     </g>
     <g id="text_9">
      <!-- $\mathdefault{10^{-2}}$ -->
      <g transform="translate(20.878125 144.000615) scale(0.1 -0.1)">
       <use xlink:href="#DejaVuSans-31" transform="translate(0 0.765625)"/>
       <use xlink:href="#DejaVuSans-30" transform="translate(63.623047 0.765625)"/>
       <use xlink:href="#DejaVuSans-2212" transform="translate(128.203125 39.046875) scale(0.7)"/>
       <use xlink:href="#DejaVuSans-32" transform="translate(186.855469 39.046875) scale(0.7)"/>
      </g>
     </g>
    </g>
    <g id="ytick_3">
     <g id="line2d_9">
      <g>
       <use xlink:href="#ma882b3df18" x="51.378125" y="58.859567" style="stroke: #000000; stroke-width: 0.8"/>
      </g>
     </g>
     <g id="text_10">
      <!-- $\mathdefault{10^{-1}}$ -->
      <g transform="translate(20.878125 62.658786) scale(0.1 -0.1)">
       <use xlink:href="#DejaVuSans-31" transform="translate(0 0.684375)"/>
       <use xlink:href="#DejaVuSans-30" transform="translate(63.623047 0.684375)"/>
       <use xlink:href="#DejaVuSans-2212" transform="translate(128.203125 38.965625) scale(0.7)"/>
       <use xlink:href="#DejaVuSans-31" transform="translate(186.855469 38.965625) scale(0.7)"/>
      </g>
     </g>
    </g>
    <g id="ytick_4">
     <g id="line2d_10">
      <defs>
       <path id="m119bc14c4b" d="M 0 0 
L -2 0 
" style="stroke: #000000; stroke-width: 0.6"/>
      </defs>
      <g>
       <use xlink:href="#m119bc14c4b" x="51.378125" y="264.07514" style="stroke: #000000; stroke-width: 0.6"/>
      </g>
     </g>
    </g>
    <g id="ytick_5">
     <g id="line2d_11">
      <g>
       <use xlink:href="#m119bc14c4b" x="51.378125" y="253.912395" style="stroke: #000000; stroke-width: 0.6"/>
      </g>
     </g>
    </g>
    <g id="ytick_6">
     <g id="line2d_12">
      <g>
       <use xlink:href="#m119bc14c4b" x="51.378125" y="246.029557" style="stroke: #000000; stroke-width: 0.6"/>
      </g>
     </g>
    </g>
    <g id="ytick_7">
     <g id="line2d_13">
      <g>
       <use xlink:href="#m119bc14c4b" x="51.378125" y="239.588809" style="stroke: #000000; stroke-width: 0.6"/>
      </g>
     </g>
    </g>
    <g id="ytick_8">
     <g id="line2d_14">
      <g>
       <use xlink:href="#m119bc14c4b" x="51.378125" y="234.143235" style="stroke: #000000; stroke-width: 0.6"/>
      </g>
     </g>
    </g>
    <g id="ytick_9">
     <g id="line2d_15">
      <g>
       <use xlink:href="#m119bc14c4b" x="51.378125" y="229.426064" style="stroke: #000000; stroke-width: 0.6"/>
      </g>
     </g>
    </g>
    <g id="ytick_10">
     <g id="line2d_16">
      <g>
       <use xlink:href="#m119bc14c4b" x="51.378125" y="225.265224" style="stroke: #000000; stroke-width: 0.6"/>
      </g>
     </g>
    </g>
    <g id="ytick_11">
     <g id="line2d_17">
      <g>
       <use xlink:href="#m119bc14c4b" x="51.378125" y="197.056896" style="stroke: #000000; stroke-width: 0.6"/>
      </g>
     </g>
    </g>
    <g id="ytick_12">
     <g id="line2d_18">
      <g>
       <use xlink:href="#m119bc14c4b" x="51.378125" y="182.73331" style="stroke: #000000; stroke-width: 0.6"/>
      </g>
     </g>
    </g>
    <g id="ytick_13">
     <g id="line2d_19">
      <g>
       <use xlink:href="#m119bc14c4b" x="51.378125" y="172.570565" style="stroke: #000000; stroke-width: 0.6"/>
      </g>
     </g>
    </g>
    <g id="ytick_14">
     <g id="line2d_20">
      <g>
       <use xlink:href="#m119bc14c4b" x="51.378125" y="164.687727" style="stroke: #000000; stroke-width: 0.6"/>
      </g>
     </g>
    </g>
    <g id="ytick_15">
     <g id="line2d_21">
      <g>
       <use xlink:href="#m119bc14c4b" x="51.378125" y="158.24698" style="stroke: #000000; stroke-width: 0.6"/>
      </g>
     </g>
    </g>
    <g id="ytick_16">
     <g id="line2d_22">
      <g>
       <use xlink:href="#m119bc14c4b" x="51.378125" y="152.801405" style="stroke: #000000; stroke-width: 0.6"/>
      </g>
     </g>
    </g>
    <g id="ytick_17">
     <g id="line2d_23">
      <g>
       <use xlink:href="#m119bc14c4b" x="51.378125" y="148.084234" style="stroke: #000000; stroke-width: 0.6"/>
      </g>
     </g>
    </g>
    <g id="ytick_18">
     <g id="line2d_24">
      <g>
       <use xlink:href="#m119bc14c4b" x="51.378125" y="143.923395" style="stroke: #000000; stroke-width: 0.6"/>
      </g>
     </g>
    </g>
    <g id="ytick_19">
     <g id="line2d_25">
      <g>
       <use xlink:href="#m119bc14c4b" x="51.378125" y="115.715066" style="stroke: #000000; stroke-width: 0.6"/>
      </g>
     </g>
    </g>
    <g id="ytick_20">
     <g id="line2d_26">
      <g>
       <use xlink:href="#m119bc14c4b" x="51.378125" y="101.391481" style="stroke: #000000; stroke-width: 0.6"/>
      </g>
     </g>
    </g>
    <g id="ytick_21">
     <g id="line2d_27">
      <g>
       <use xlink:href="#m119bc14c4b" x="51.378125" y="91.228735" style="stroke: #000000; stroke-width: 0.6"/>
      </g>
     </g>
    </g>
    <g id="ytick_22">
     <g id="line2d_28">
      <g>
       <use xlink:href="#m119bc14c4b" x="51.378125" y="83.345898" style="stroke: #000000; stroke-width: 0.6"/>
      </g>
     </g>
    </g>
    <g id="ytick_23">
     <g id="line2d_29">
      <g>
       <use xlink:href="#m119bc14c4b" x="51.378125" y="76.90515" style="stroke: #000000; stroke-width: 0.6"/>
      </g>
     </g>
    </g>
    <g id="ytick_24">
     <g id="line2d_30">
      <g>
       <use xlink:href="#m119bc14c4b" x="51.378125" y="71.459576" style="stroke: #000000; stroke-width: 0.6"/>
      </g>
     </g>
    </g>
    <g id="ytick_25">
     <g id="line2d_31">
      <g>
       <use xlink:href="#m119bc14c4b" x="51.378125" y="66.742405" style="stroke: #000000; stroke-width: 0.6"/>
      </g>
     </g>
    </g>
    <g id="ytick_26">
     <g id="line2d_32">
      <g>
       <use xlink:href="#m119bc14c4b" x="51.378125" y="62.581565" style="stroke: #000000; stroke-width: 0.6"/>
      </g>
     </g>
    </g>
    <g id="ytick_27">
     <g id="line2d_33">
      <g>
       <use xlink:href="#m119bc14c4b" x="51.378125" y="34.373236" style="stroke: #000000; stroke-width: 0.6"/>
      </g>
     </g>
    </g>
    <g id="ytick_28">
     <g id="line2d_34">
      <g>
       <use xlink:href="#m119bc14c4b" x="51.378125" y="20.049651" style="stroke: #000000; stroke-width: 0.6"/>
      </g>
     </g>
    </g>
    <g id="ytick_29">
     <g id="line2d_35">
      <g>
       <use xlink:href="#m119bc14c4b" x="51.378125" y="9.886906" style="stroke: #000000; stroke-width: 0.6"/>
      </g>
     </g>
    </g>
    <g id="text_11">
     <!-- MSE -->
     <g transform="translate(14.798438 150.903656) rotate(-90) scale(0.1 -0.1)">
      <defs>
       <path id="DejaVuSans-4d" d="M 628 4666 
L 1569 4666 
L 2759 1491 
L 3956 4666 
L 4897 4666 
L 4897 0 
L 4281 0 
L 4281 4097 
L 3078 897 
L 2444 897 
L 1241 4097 
L 1241 0 
L 628 0 
L 628 4666 
z
" transform="scale(0.015625)"/>
       <path id="DejaVuSans-53" d="M 3425 4513 
L 3425 3897 
Q 3066 4069 2747 4153 
Q 2428 4238 2131 4238 
Q 1616 4238 1336 4038 
Q 1056 3838 1056 3469 
Q 1056 3159 1242 3001 
Q 1428 2844 1947 2747 
L 2328 2669 
Q 3034 2534 3370 2195 
Q 3706 1856 3706 1288 
Q 3706 609 3251 259 
Q 2797 -91 1919 -91 
Q 1588 -91 1214 -16 
Q 841 59 441 206 
L 441 856 
Q 825 641 1194 531 
Q 1563 422 1919 422 
Q 2459 422 2753 634 
Q 3047 847 3047 1241 
Q 3047 1584 2836 1778 
Q 2625 1972 2144 2069 
L 1759 2144 
Q 1053 2284 737 2584 
Q 422 2884 422 3419 
Q 422 4038 858 4394 
Q 1294 4750 2059 4750 
Q 2388 4750 2728 4690 
Q 3069 4631 3425 4513 
z
" transform="scale(0.015625)"/>
       <path id="DejaVuSans-45" d="M 628 4666 
L 3578 4666 
L 3578 4134 
L 1259 4134 
L 1259 2753 
L 3481 2753 
L 3481 2222 
L 1259 2222 
L 1259 531 
L 3634 531 
L 3634 0 
L 628 0 
L 628 4666 
z
" transform="scale(0.015625)"/>
      </defs>
      <use xlink:href="#DejaVuSans-4d"/>
      <use xlink:href="#DejaVuSans-53" x="86.279297"/>
      <use xlink:href="#DejaVuSans-45" x="149.755859"/>
     </g>
    </g>
   </g>
   <g id="line2d_36">
    <path d="M 51.378125 22.925079 
L 52.092365 36.381816 
L 52.806605 46.917146 
L 54.235085 64.389314 
L 54.949325 60.240972 
L 55.663565 64.747578 
L 56.377805 72.987671 
L 57.092045 77.762801 
L 57.806285 81.017293 
L 58.520525 83.442383 
L 59.234765 82.627532 
L 59.949005 79.331912 
L 60.663245 70.765535 
L 61.377485 87.631772 
L 62.805965 92.285186 
L 63.520205 89.06802 
L 64.234445 76.411176 
L 64.948685 89.230289 
L 65.662925 85.744999 
L 66.377165 86.053346 
L 67.091405 92.09209 
L 67.805645 92.461368 
L 68.519885 93.889484 
L 69.234125 89.842463 
L 69.948365 88.458805 
L 70.662605 97.983797 
L 71.376845 103.59313 
L 72.091085 98.341073 
L 72.805325 104.419053 
L 73.519565 109.333564 
L 74.233805 107.283296 
L 74.948045 105.90552 
L 75.662285 110.321362 
L 76.376525 99.126554 
L 77.090765 108.927812 
L 77.805005 106.020728 
L 78.519245 106.900048 
L 79.233485 91.450591 
L 79.947725 102.127553 
L 80.661965 98.231525 
L 81.376205 112.007416 
L 82.090445 103.725451 
L 82.804685 111.251396 
L 83.518925 93.485937 
L 84.233165 95.86069 
L 84.947405 94.163019 
L 87.090125 116.811383 
L 87.804365 122.416972 
L 88.518605 115.584855 
L 89.232845 111.771793 
L 89.947085 91.727866 
L 90.661325 98.122409 
L 91.375565 79.519742 
L 92.089805 86.136481 
L 92.804045 59.423015 
L 94.946765 95.726878 
L 95.661005 97.869266 
L 96.375245 106.255877 
L 97.089485 110.175983 
L 97.803725 108.519233 
L 98.517965 115.859343 
L 99.232205 119.31628 
L 99.946445 120.431808 
L 100.660685 124.183524 
L 101.374925 127.07484 
L 102.089165 117.644456 
L 102.803405 90.84012 
L 103.517645 120.692314 
L 104.231885 121.420468 
L 104.946125 109.264995 
L 105.660365 108.299094 
L 106.374605 90.142732 
L 107.088845 64.639021 
L 107.803085 87.891167 
L 108.517325 91.531725 
L 109.231565 96.878464 
L 109.945805 101.063997 
L 110.660045 109.040491 
L 112.088525 116.791219 
L 112.802765 117.660438 
L 113.517005 121.573291 
L 114.231245 123.313814 
L 115.659725 129.929397 
L 116.373965 131.221141 
L 117.088205 112.079602 
L 117.802445 82.790226 
L 118.516685 66.90184 
L 119.230925 76.082532 
L 119.945165 75.42835 
L 120.659405 84.216816 
L 121.373645 99.504524 
L 122.087885 108.281964 
L 122.802125 113.431505 
L 123.516365 117.492841 
L 124.230605 120.851965 
L 124.944845 126.472069 
L 125.659085 125.528753 
L 126.373325 118.28963 
L 127.087565 115.435485 
L 127.801805 131.156909 
L 128.516045 130.611594 
L 129.230285 139.010402 
L 129.944525 129.912775 
L 130.658765 125.326953 
L 131.373005 113.157781 
L 132.087245 112.545861 
L 132.801485 126.690426 
L 133.515725 106.907487 
L 134.229965 111.716311 
L 134.944205 98.89207 
L 135.658445 113.689122 
L 136.372685 116.907805 
L 137.086925 135.69396 
L 137.801165 133.056226 
L 138.515405 124.98731 
L 139.229645 141.882724 
L 139.943885 115.300692 
L 140.658125 100.622767 
L 141.372365 93.30856 
L 142.086605 83.622049 
L 142.800845 96.421413 
L 143.515085 106.24194 
L 144.229325 98.998477 
L 144.943565 100.320287 
L 145.657805 97.663613 
L 146.372045 116.50027 
L 147.086285 118.361549 
L 148.514765 108.830421 
L 149.229005 123.98046 
L 149.943245 127.224771 
L 150.657485 133.906551 
L 151.371725 137.525102 
L 152.085965 133.727626 
L 152.800205 115.382581 
L 153.514445 140.404149 
L 154.228685 132.759134 
L 154.942925 129.892764 
L 155.657165 141.427728 
L 156.371405 148.178573 
L 157.085645 145.001494 
L 157.799885 125.981186 
L 158.514125 142.164159 
L 159.228365 147.844741 
L 159.942605 145.523936 
L 160.656845 105.116511 
L 161.371085 110.990574 
L 162.085325 86.521464 
L 162.799565 105.403069 
L 163.513805 66.62745 
L 164.228045 57.378702 
L 164.942285 72.212361 
L 165.656525 75.231295 
L 166.370765 78.862045 
L 167.799245 101.253158 
L 168.513485 104.274546 
L 169.941965 117.663694 
L 170.656205 121.298939 
L 171.370445 126.998819 
L 172.084685 127.628058 
L 172.798925 129.485251 
L 173.513165 136.271899 
L 174.227405 134.350606 
L 174.941645 134.985023 
L 175.655885 135.968574 
L 176.370125 143.127458 
L 177.084365 144.021703 
L 177.798605 114.069392 
L 178.512845 95.633515 
L 179.941325 119.092604 
L 180.655565 114.722599 
L 181.369805 123.381309 
L 182.084045 119.439763 
L 182.798285 135.290089 
L 184.226765 137.797106 
L 184.941005 138.278615 
L 185.655245 136.059187 
L 186.369485 136.679142 
L 187.083725 143.789039 
L 187.797965 140.158239 
L 188.512205 118.402774 
L 189.226445 84.298681 
L 189.940685 43.296919 
L 190.654925 48.251999 
L 191.369165 57.977653 
L 192.083405 64.395472 
L 192.797645 69.271732 
L 193.511885 82.793285 
L 194.226125 81.868679 
L 194.940365 90.116638 
L 195.654605 90.581161 
L 196.368845 93.243651 
L 199.225805 108.964206 
L 200.654285 114.760037 
L 201.368525 115.115567 
L 202.082765 110.243796 
L 202.797005 110.041387 
L 203.511245 114.692637 
L 204.225485 125.242516 
L 204.939725 133.069825 
L 205.653965 121.857798 
L 206.368205 136.388184 
L 207.082445 138.659896 
L 207.796685 126.889853 
L 208.510925 144.052991 
L 209.225165 129.736603 
L 209.939405 105.364916 
L 210.653645 116.138413 
L 211.367885 135.919135 
L 212.082125 142.482084 
L 212.796365 129.080622 
L 213.510605 109.472175 
L 214.224845 98.64381 
L 214.939085 73.266712 
L 215.653325 70.993309 
L 216.367565 86.130725 
L 217.081805 94.160347 
L 217.796045 105.354339 
L 219.224525 113.002046 
L 219.938765 119.470785 
L 220.653005 121.069585 
L 221.367245 123.431032 
L 222.081485 121.064139 
L 222.795725 121.979029 
L 223.509965 124.725288 
L 224.224205 121.750315 
L 224.938445 119.611193 
L 225.652685 110.953918 
L 226.366925 122.328768 
L 227.081165 127.321853 
L 227.795405 124.133826 
L 228.509645 136.002891 
L 229.223885 130.913909 
L 230.652365 146.234584 
L 231.366605 142.631954 
L 232.080845 138.279515 
L 232.795085 134.906456 
L 233.509325 142.811883 
L 234.223565 144.681868 
L 234.937805 147.992364 
L 235.652045 142.370212 
L 236.366285 146.113888 
L 237.080525 153.890319 
L 237.794765 157.018378 
L 238.509005 122.420543 
L 239.223245 116.589699 
L 239.937485 99.7734 
L 240.651725 103.68747 
L 241.365965 101.656966 
L 242.080205 72.969684 
L 242.794445 93.325322 
L 243.508685 98.042911 
L 244.222925 107.445495 
L 244.937165 102.305603 
L 245.651405 114.10652 
L 246.365645 119.948028 
L 247.079885 123.690395 
L 247.794125 126.263288 
L 248.508365 125.456413 
L 249.222605 136.34651 
L 249.936845 134.58111 
L 251.365325 142.401588 
L 252.079565 145.025205 
L 252.793805 141.400517 
L 253.508045 132.974856 
L 254.222285 140.238896 
L 254.936525 141.080032 
L 255.650765 149.628097 
L 256.365005 146.409268 
L 257.079245 149.057406 
L 257.793485 144.209199 
L 258.507725 131.0096 
L 259.221965 114.374445 
L 259.936205 124.699037 
L 260.650445 112.971631 
L 261.364685 134.465429 
L 262.078925 140.445217 
L 262.793165 137.424218 
L 263.507405 135.896606 
L 264.221645 150.040535 
L 264.935885 159.441863 
L 265.650125 153.940931 
L 266.364365 155.446088 
L 267.078605 144.424334 
L 267.792845 163.474867 
L 268.507085 147.647161 
L 269.221325 159.063352 
L 269.935565 150.723996 
L 270.649805 169.337874 
L 271.364045 140.056105 
L 272.078285 127.246096 
L 272.792525 124.075609 
L 273.506765 104.062247 
L 274.221005 57.246092 
L 274.935245 45.56702 
L 275.649485 58.589966 
L 276.363725 61.440276 
L 277.077965 66.784039 
L 277.792205 73.527786 
L 278.506445 76.248869 
L 279.220685 79.618575 
L 279.934925 83.762983 
L 280.649165 86.836992 
L 281.363405 88.786249 
L 282.077645 92.793776 
L 282.791885 95.986893 
L 283.506125 97.961722 
L 284.934605 102.636484 
L 286.363085 106.486121 
L 287.077325 109.802298 
L 287.791565 110.810092 
L 288.505805 112.826264 
L 289.220045 114.459992 
L 290.648525 120.502771 
L 291.362765 123.187004 
L 292.791245 130.070494 
L 293.505485 133.834468 
L 294.219725 127.113851 
L 294.933965 114.228052 
L 295.648205 111.784386 
L 296.362445 108.263605 
L 297.076685 126.376631 
L 297.790925 127.357434 
L 298.505165 138.525122 
L 299.219405 139.546151 
L 299.933645 135.743482 
L 300.647885 138.412396 
L 301.362125 146.42645 
L 302.076365 141.028255 
L 303.504845 121.684626 
L 304.219085 118.962063 
L 304.933325 106.55039 
L 305.647565 118.820702 
L 306.361805 138.706131 
L 307.076045 131.489629 
L 307.790285 125.96475 
L 308.504525 118.315889 
L 309.218765 140.758279 
L 309.933005 145.815413 
L 310.647245 147.316323 
L 311.361485 149.762297 
L 312.075725 150.992024 
L 312.789965 145.729793 
L 313.504205 126.732704 
L 314.218445 118.442611 
L 314.932685 111.798359 
L 315.646925 103.957646 
L 316.361165 113.753989 
L 317.075405 111.429848 
L 317.789645 125.401809 
L 318.503885 113.739704 
L 319.218125 133.304014 
L 319.932365 141.428969 
L 320.646605 145.757032 
L 321.360845 147.371097 
L 322.075085 145.552142 
L 322.789325 138.491461 
L 323.503565 117.370129 
L 324.217805 118.031053 
L 324.932045 96.182823 
L 325.646285 115.313893 
L 326.360525 106.385989 
L 327.074765 120.270359 
L 327.789005 128.474541 
L 328.503245 140.054339 
L 329.931725 152.463962 
L 330.645965 153.536923 
L 331.360205 147.377127 
L 332.074445 152.82251 
L 332.788685 156.739299 
L 333.502925 158.598901 
L 334.217165 150.227468 
L 334.931405 147.720603 
L 335.645645 143.65562 
L 336.359885 144.869975 
L 337.074125 160.701014 
L 337.788365 161.94794 
L 338.502605 162.035779 
L 339.216845 163.352721 
L 339.931085 116.191133 
L 341.359565 166.431758 
L 342.073805 133.868246 
L 342.788045 134.018184 
L 343.502285 155.485691 
L 344.216525 156.902281 
L 344.930765 173.436944 
L 345.645005 147.51426 
L 346.359245 135.754835 
L 347.073485 160.581382 
L 347.787725 160.388331 
L 348.501965 172.922985 
L 349.216205 167.458164 
L 349.930445 169.355462 
L 350.644685 142.470115 
L 351.358925 157.436326 
L 352.073165 169.462022 
L 352.787405 133.156481 
L 353.501645 134.317831 
L 354.215885 162.135077 
L 354.930125 108.595604 
L 355.644365 98.353629 
L 356.358605 93.543174 
L 357.787085 101.137785 
L 358.501325 111.328031 
L 359.215565 111.681955 
L 359.929805 122.880095 
L 360.644045 131.829791 
L 361.358285 148.392342 
L 362.072525 154.672067 
L 362.786765 149.268664 
L 363.501005 156.940746 
L 364.215245 153.831458 
L 364.929485 139.984 
L 365.643725 131.725854 
L 366.357965 141.195867 
L 367.072205 135.610209 
L 367.786445 114.326315 
L 368.500685 129.786878 
L 369.214925 150.669628 
L 369.929165 155.750608 
L 370.643405 151.057032 
L 371.357645 150.969322 
L 372.071885 153.094016 
L 372.786125 143.143495 
L 373.500365 140.170104 
L 374.214605 132.697478 
L 374.928845 157.980711 
L 375.643085 157.119582 
L 376.357325 142.396629 
L 377.071565 134.410985 
L 377.785805 127.96652 
L 378.500045 132.854944 
L 379.214285 135.412523 
L 379.928525 151.790541 
L 380.642765 153.730629 
L 381.357005 159.031782 
L 382.071245 173.702994 
L 382.785485 156.281738 
L 383.499725 146.248214 
L 384.213965 124.647936 
L 384.928205 138.051582 
L 385.642445 113.903773 
L 386.356685 116.412944 
L 387.070925 139.791023 
L 387.785165 132.145837 
L 388.499405 101.903588 
L 389.213645 133.751797 
L 389.927885 123.314992 
L 390.642125 124.796621 
L 391.356365 133.655319 
L 392.070605 133.255089 
L 392.784845 131.711523 
L 393.499085 140.432309 
L 394.213325 143.558423 
L 394.927565 153.220675 
L 395.641805 170.673586 
L 396.356045 166.904658 
L 397.070285 174.411511 
L 397.784525 139.398414 
L 398.498765 125.720292 
L 399.213005 102.301901 
L 399.927245 98.599002 
L 400.641485 95.587296 
L 401.355725 111.192393 
L 402.069965 119.140963 
L 402.784205 132.356866 
L 403.498445 130.604052 
L 404.212685 139.871498 
L 404.926925 146.535215 
L 405.641165 148.257774 
L 406.355405 149.574577 
L 407.069645 155.505021 
L 407.783885 152.752919 
L 407.783885 152.752919 
" clip-path="url(#p730b70b225)" style="fill: none; stroke: #1f77b4; stroke-linecap: square"/>
   </g>
   <g id="line2d_37">
    <path d="M 51.378125 21.835024 
L 52.092365 29.093218 
L 52.806605 39.703216 
L 53.520845 45.563746 
L 54.235085 53.082501 
L 56.377805 66.856185 
L 57.092045 69.921903 
L 57.806285 74.59009 
L 58.520525 77.725646 
L 59.234765 75.396297 
L 59.949005 74.903764 
L 61.377485 81.626183 
L 62.091725 83.795626 
L 62.805965 84.408788 
L 63.520205 85.513436 
L 64.234445 87.076536 
L 64.948685 90.466902 
L 65.662925 92.778676 
L 66.377165 93.99979 
L 67.091405 96.017815 
L 67.805645 91.297075 
L 68.519885 94.642053 
L 69.234125 93.179705 
L 69.948365 98.120153 
L 70.662605 100.692639 
L 71.376845 100.880324 
L 72.091085 95.22691 
L 73.519565 101.985487 
L 74.233805 103.848653 
L 74.948045 99.845659 
L 75.662285 105.093147 
L 76.376525 99.904749 
L 77.090765 99.222184 
L 77.805005 108.610174 
L 78.519245 109.602796 
L 79.233485 116.133891 
L 79.947725 114.76092 
L 80.661965 119.781597 
L 81.376205 116.899832 
L 82.804685 81.401449 
L 84.233165 93.478059 
L 84.947405 91.391627 
L 85.661645 105.306387 
L 86.375885 112.831065 
L 87.090125 111.92519 
L 87.804365 114.667222 
L 88.518605 118.090196 
L 89.232845 119.663442 
L 89.947085 123.384511 
L 90.661325 120.668538 
L 91.375565 125.192505 
L 92.089805 120.882567 
L 92.804045 114.478675 
L 93.518285 115.505635 
L 94.232525 124.441421 
L 94.946765 130.922407 
L 95.661005 131.52987 
L 96.375245 130.410421 
L 97.089485 135.306241 
L 97.803725 135.472472 
L 98.517965 136.879517 
L 99.232205 118.357614 
L 99.946445 139.428277 
L 100.660685 113.643707 
L 101.374925 114.41966 
L 102.089165 124.993371 
L 102.803405 121.417576 
L 103.517645 129.453962 
L 104.231885 118.906487 
L 104.946125 133.409045 
L 105.660365 80.020296 
L 106.374605 65.963054 
L 107.088845 89.509799 
L 107.803085 101.815912 
L 109.231565 114.623841 
L 109.945805 116.347368 
L 110.660045 122.377126 
L 111.374285 120.744516 
L 112.088525 120.730871 
L 112.802765 127.060131 
L 113.517005 135.576362 
L 114.231245 133.233905 
L 114.945485 127.839661 
L 115.659725 136.548979 
L 116.373965 135.506121 
L 117.088205 138.137462 
L 117.802445 135.975341 
L 118.516685 138.13474 
L 119.230925 131.767962 
L 119.945165 127.05969 
L 120.659405 136.883566 
L 121.373645 137.71167 
L 122.087885 140.895465 
L 122.802125 145.827476 
L 123.516365 135.638932 
L 124.944845 143.425389 
L 125.659085 143.091969 
L 126.373325 153.177754 
L 127.087565 139.298775 
L 127.801805 145.12978 
L 128.516045 128.709694 
L 129.230285 130.498394 
L 129.944525 130.059856 
L 130.658765 134.164645 
L 131.373005 135.571149 
L 132.087245 138.965505 
L 132.801485 119.307747 
L 133.515725 136.185263 
L 134.229965 132.572724 
L 134.944205 153.524772 
L 135.658445 123.838836 
L 136.372685 118.956345 
L 137.086925 109.479785 
L 137.801165 124.795353 
L 138.515405 132.722457 
L 139.229645 138.357726 
L 139.943885 141.340961 
L 140.658125 135.005143 
L 141.372365 136.829534 
L 142.086605 149.106899 
L 142.800845 153.792073 
L 143.515085 149.261177 
L 144.229325 141.396826 
L 145.657805 116.797663 
L 146.372045 133.783252 
L 147.086285 118.788323 
L 147.800525 130.420669 
L 149.229005 70.171647 
L 149.943245 77.706597 
L 150.657485 72.269967 
L 151.371725 84.473368 
L 152.085965 86.882442 
L 153.514445 112.218669 
L 154.228685 115.405503 
L 154.942925 124.451252 
L 155.657165 128.88099 
L 156.371405 131.714683 
L 157.085645 132.674578 
L 157.799885 132.053979 
L 158.514125 140.762011 
L 159.228365 141.976012 
L 159.942605 147.364109 
L 160.656845 149.018346 
L 161.371085 149.059472 
L 162.085325 152.89139 
L 162.799565 154.762622 
L 163.513805 150.71839 
L 164.228045 151.052439 
L 164.942285 149.027575 
L 165.656525 149.170969 
L 166.370765 152.253783 
L 167.085005 157.976439 
L 167.799245 150.556315 
L 168.513485 140.240285 
L 169.227725 148.240722 
L 169.941965 154.73455 
L 170.656205 163.487466 
L 171.370445 160.085235 
L 172.084685 161.129142 
L 172.798925 163.332681 
L 173.513165 159.556052 
L 174.227405 160.149537 
L 174.941645 169.048231 
L 175.655885 165.461375 
L 176.370125 140.864398 
L 177.084365 169.424365 
L 177.798605 160.228378 
L 178.512845 165.438337 
L 179.227085 106.96555 
L 179.941325 119.328328 
L 180.655565 111.699777 
L 181.369805 126.389087 
L 182.084045 114.805744 
L 182.798285 106.213729 
L 183.512525 74.645085 
L 184.226765 60.92503 
L 184.941005 57.738442 
L 185.655245 70.278081 
L 186.369485 71.739695 
L 187.083725 74.971559 
L 187.797965 86.116164 
L 188.512205 95.281868 
L 189.940685 108.277431 
L 192.797645 122.656007 
L 193.511885 123.31826 
L 194.226125 130.957222 
L 194.940365 135.778736 
L 195.654605 139.010967 
L 196.368845 138.143709 
L 197.083085 135.638511 
L 197.797325 138.692908 
L 198.511565 135.085251 
L 199.225805 143.436545 
L 199.940045 147.867853 
L 200.654285 147.773681 
L 201.368525 140.084647 
L 202.082765 142.749626 
L 202.797005 146.460257 
L 203.511245 144.066047 
L 204.225485 148.678205 
L 204.939725 145.12096 
L 205.653965 153.612366 
L 206.368205 147.235731 
L 207.082445 155.255546 
L 208.510925 119.717789 
L 209.225165 127.389415 
L 209.939405 115.963289 
L 211.367885 141.676485 
L 212.082125 151.017316 
L 212.796365 154.852639 
L 214.224845 163.807279 
L 214.939085 165.936538 
L 215.653325 166.033373 
L 216.367565 164.96748 
L 217.081805 168.758285 
L 217.796045 157.86441 
L 218.510285 124.87609 
L 219.224525 127.758096 
L 219.938765 155.680516 
L 220.653005 163.119474 
L 221.367245 141.581076 
L 222.081485 142.567074 
L 222.795725 141.091244 
L 223.509965 143.338189 
L 224.224205 131.347477 
L 224.938445 143.049513 
L 225.652685 168.268319 
L 226.366925 168.570229 
L 227.081165 160.207651 
L 227.795405 164.160409 
L 228.509645 161.745121 
L 229.223885 154.855456 
L 229.938125 177.971784 
L 230.652365 159.769862 
L 231.366605 144.459973 
L 232.080845 122.496469 
L 232.795085 136.941578 
L 233.509325 122.08914 
L 234.223565 82.773752 
L 234.937805 84.593511 
L 235.652045 117.958234 
L 236.366285 105.816935 
L 237.080525 142.164972 
L 237.794765 151.511058 
L 238.509005 151.932834 
L 239.223245 152.679749 
L 239.937485 153.757378 
L 240.651725 153.184213 
L 241.365965 152.321918 
L 242.080205 140.896826 
L 242.794445 137.720161 
L 243.508685 137.363982 
L 244.222925 139.890274 
L 244.937165 139.485068 
L 246.365645 149.669334 
L 247.079885 135.950386 
L 247.794125 119.266597 
L 248.508365 125.350571 
L 249.222605 120.341566 
L 249.936845 146.086457 
L 250.651085 159.150414 
L 251.365325 158.834119 
L 252.079565 160.850472 
L 252.793805 168.633062 
L 253.508045 169.047199 
L 254.222285 158.227372 
L 254.936525 155.126919 
L 255.650765 171.063466 
L 256.365005 162.664397 
L 257.079245 162.185786 
L 257.793485 179.631685 
L 258.507725 178.265903 
L 259.221965 175.310373 
L 259.936205 180.510902 
L 260.650445 178.802288 
L 261.364685 178.792075 
L 262.078925 183.213843 
L 262.793165 179.010379 
L 263.507405 183.568814 
L 264.221645 142.802773 
L 264.935885 160.351885 
L 265.650125 144.63734 
L 266.364365 142.172013 
L 267.078605 108.183404 
L 267.792845 107.935971 
L 268.507085 141.82355 
L 269.221325 156.157519 
L 270.649805 144.850857 
L 271.364045 143.334882 
L 272.078285 151.833867 
L 272.792525 164.75521 
L 273.506765 162.562913 
L 274.221005 160.852309 
L 274.935245 148.788194 
L 275.649485 141.450942 
L 276.363725 153.16249 
L 277.077965 161.773282 
L 277.792205 166.208324 
L 278.506445 158.284571 
L 279.220685 141.905909 
L 279.934925 160.672382 
L 280.649165 169.066929 
L 281.363405 166.449398 
L 282.077645 141.138217 
L 282.791885 129.731639 
L 283.506125 103.949582 
L 284.934605 171.011682 
L 285.648845 180.564866 
L 286.363085 175.076404 
L 287.077325 154.503481 
L 287.791565 158.073971 
L 289.220045 157.094151 
L 289.934285 162.854606 
L 290.648525 166.886999 
L 291.362765 143.719322 
L 292.077005 153.882534 
L 292.791245 152.119808 
L 293.505485 189.768836 
L 294.219725 193.630273 
L 294.933965 184.434581 
L 295.648205 194.051908 
L 296.362445 196.374052 
L 297.076685 195.769572 
L 297.790925 197.406792 
L 298.505165 191.435336 
L 299.219405 162.469775 
L 299.933645 194.040535 
L 300.647885 165.444749 
L 301.362125 149.808348 
L 302.076365 192.35103 
L 302.790605 189.900903 
L 303.504845 170.7599 
L 304.219085 176.469275 
L 304.933325 198.794414 
L 305.647565 193.782699 
L 306.361805 196.747251 
L 307.076045 154.657814 
L 307.790285 136.652737 
L 308.504525 142.92316 
L 309.218765 170.877934 
L 309.933005 169.848449 
L 310.647245 156.13531 
L 311.361485 175.44024 
L 312.075725 157.92736 
L 312.789965 151.931844 
L 313.504205 177.958274 
L 314.218445 176.230606 
L 314.932685 130.477838 
L 315.646925 131.718905 
L 316.361165 102.669724 
L 317.075405 93.168483 
L 317.789645 49.322397 
L 318.503885 65.725982 
L 319.218125 73.64168 
L 319.932365 76.278886 
L 321.360845 98.418859 
L 322.075085 116.55271 
L 322.789325 118.862408 
L 323.503565 122.723279 
L 324.217805 131.524873 
L 324.932045 135.645472 
L 325.646285 138.934819 
L 326.360525 146.808381 
L 327.074765 151.590868 
L 327.789005 153.070911 
L 328.503245 156.700462 
L 329.217485 159.090365 
L 329.931725 162.320207 
L 330.645965 162.79064 
L 331.360205 164.708347 
L 332.074445 163.651281 
L 332.788685 151.370372 
L 333.502925 161.825894 
L 334.217165 150.173747 
L 334.931405 157.91202 
L 335.645645 159.043064 
L 336.359885 144.616794 
L 337.074125 143.234676 
L 337.788365 166.462234 
L 338.502605 160.238608 
L 339.216845 165.158267 
L 339.931085 163.107294 
L 340.645325 164.142035 
L 341.359565 151.961154 
L 342.073805 153.750105 
L 342.788045 160.182567 
L 343.502285 164.077693 
L 344.216525 158.338318 
L 344.930765 143.925884 
L 345.645005 111.124526 
L 346.359245 122.387317 
L 347.073485 94.171314 
L 347.787725 60.695237 
L 348.501965 91.341965 
L 349.216205 82.1827 
L 349.930445 92.033268 
L 350.644685 98.554908 
L 351.358925 110.079877 
L 352.073165 127.666256 
L 352.787405 139.478206 
L 353.501645 145.378907 
L 354.215885 152.387437 
L 354.930125 149.069964 
L 355.644365 159.079342 
L 356.358605 159.161199 
L 357.072845 156.474951 
L 357.787085 149.67208 
L 358.501325 146.398721 
L 359.215565 152.066323 
L 359.929805 148.48634 
L 361.358285 170.514743 
L 362.072525 178.731056 
L 362.786765 166.91251 
L 363.501005 151.103561 
L 364.215245 147.780812 
L 364.929485 156.801004 
L 365.643725 159.008371 
L 366.357965 138.28044 
L 367.072205 153.050884 
L 367.786445 149.224482 
L 368.500685 155.00779 
L 369.214925 172.501506 
L 369.929165 153.61188 
L 370.643405 148.236891 
L 371.357645 152.653548 
L 372.071885 146.537497 
L 372.786125 154.58638 
L 373.500365 169.416843 
L 374.214605 126.944872 
L 374.928845 116.534822 
L 375.643085 149.593077 
L 376.357325 146.689298 
L 377.071565 134.084794 
L 377.785805 155.349756 
L 378.500045 131.428449 
L 379.214285 139.684013 
L 379.928525 158.800568 
L 380.642765 153.909688 
L 381.357005 172.544035 
L 382.071245 175.865708 
L 382.785485 165.394086 
L 383.499725 151.898889 
L 384.213965 115.215485 
L 384.928205 94.528572 
L 385.642445 81.881965 
L 386.356685 116.348131 
L 387.070925 121.039092 
L 387.785165 150.330847 
L 388.499405 155.036506 
L 389.213645 158.892353 
L 389.927885 164.302092 
L 390.642125 162.676059 
L 391.356365 156.191857 
L 392.070605 167.610777 
L 392.784845 165.490775 
L 393.499085 170.608111 
L 394.213325 178.988048 
L 394.927565 173.327315 
L 395.641805 181.260687 
L 396.356045 181.664004 
L 397.070285 183.976737 
L 397.784525 168.526165 
L 398.498765 174.289757 
L 399.213005 186.792287 
L 399.927245 184.469574 
L 400.641485 182.864603 
L 401.355725 194.532096 
L 402.069965 191.267395 
L 402.784205 190.353189 
L 403.498445 191.405456 
L 404.212685 196.991474 
L 404.926925 196.221251 
L 405.641165 196.149094 
L 406.355405 194.302404 
L 407.069645 202.167256 
L 407.783885 202.464412 
L 407.783885 202.464412 
" clip-path="url(#p730b70b225)" style="fill: none; stroke: #ff7f0e; stroke-linecap: square"/>
   </g>
   <g id="line2d_38">
    <path d="M 51.378125 19.905092 
L 52.092365 21.457892 
L 52.806605 22.620341 
L 54.235085 25.669993 
L 54.949325 27.663173 
L 55.663565 30.057337 
L 57.092045 36.540543 
L 58.520525 43.464108 
L 59.949005 48.749425 
L 62.091725 55.546205 
L 63.520205 59.450199 
L 66.377165 66.519407 
L 67.091405 67.874456 
L 67.805645 69.879681 
L 69.234125 72.429853 
L 69.948365 73.816603 
L 71.376845 77.003247 
L 72.091085 78.400789 
L 72.805325 79.283887 
L 73.519565 79.063695 
L 74.233805 81.383417 
L 74.948045 81.023685 
L 75.662285 81.652266 
L 76.376525 84.242373 
L 77.090765 85.099402 
L 77.805005 86.929059 
L 78.519245 87.882354 
L 79.947725 89.027113 
L 80.661965 91.076504 
L 81.376205 91.638353 
L 82.090445 92.495129 
L 84.233165 94.575284 
L 84.947405 96.263826 
L 85.661645 96.001143 
L 86.375885 95.260665 
L 87.090125 95.645395 
L 87.804365 98.732496 
L 88.518605 99.772628 
L 89.232845 101.339646 
L 89.947085 101.289265 
L 90.661325 102.177888 
L 91.375565 100.437334 
L 92.089805 103.457443 
L 92.804045 104.594611 
L 93.518285 105.253934 
L 94.232525 106.312475 
L 94.946765 106.76976 
L 95.661005 107.537579 
L 96.375245 104.980102 
L 97.089485 104.560689 
L 97.803725 107.286261 
L 98.517965 108.981367 
L 99.232205 109.534434 
L 100.660685 111.349926 
L 101.374925 111.06652 
L 102.089165 112.817614 
L 102.803405 113.821409 
L 103.517645 113.765806 
L 104.231885 115.063497 
L 104.946125 114.727991 
L 105.660365 116.089336 
L 106.374605 116.825523 
L 107.088845 117.287837 
L 108.517325 117.225089 
L 109.231565 117.591194 
L 109.945805 118.139774 
L 110.660045 116.393029 
L 111.374285 121.137913 
L 112.088525 121.584234 
L 114.231245 124.211834 
L 114.945485 123.482927 
L 115.659725 124.684235 
L 116.373965 124.35423 
L 117.088205 116.375243 
L 118.516685 120.404242 
L 119.230925 120.534356 
L 119.945165 125.729088 
L 120.659405 128.890645 
L 121.373645 129.034024 
L 122.087885 128.922849 
L 122.802125 128.362585 
L 123.516365 128.906508 
L 124.230605 128.025678 
L 124.944845 130.873168 
L 125.659085 131.538165 
L 126.373325 132.462487 
L 127.087565 133.616285 
L 127.801805 132.906815 
L 128.516045 130.883501 
L 129.230285 126.961845 
L 129.944525 123.79539 
L 130.658765 129.171723 
L 131.373005 130.612083 
L 132.087245 127.300689 
L 132.801485 130.761317 
L 133.515725 127.430764 
L 134.229965 129.758938 
L 134.944205 125.407031 
L 136.372685 138.904002 
L 137.086925 139.694883 
L 137.801165 139.635181 
L 138.515405 140.008697 
L 139.229645 140.821568 
L 139.943885 139.125362 
L 140.658125 141.037348 
L 141.372365 137.198101 
L 142.086605 142.380933 
L 142.800845 143.584778 
L 143.515085 143.769836 
L 144.229325 144.724594 
L 144.943565 144.046596 
L 145.657805 144.884078 
L 147.086285 145.999197 
L 147.800525 139.654486 
L 148.514765 134.616185 
L 149.229005 135.973962 
L 149.943245 139.726967 
L 150.657485 144.540114 
L 151.371725 142.457568 
L 152.085965 147.73718 
L 152.800205 147.459081 
L 153.514445 141.97223 
L 154.228685 142.564288 
L 154.942925 145.255437 
L 155.657165 145.403035 
L 157.085645 140.541805 
L 157.799885 138.927158 
L 158.514125 144.060463 
L 159.228365 147.31897 
L 159.942605 146.859125 
L 160.656845 148.183556 
L 161.371085 152.052914 
L 162.085325 154.266558 
L 162.799565 150.39599 
L 163.513805 151.956438 
L 164.228045 151.131038 
L 164.942285 150.660993 
L 165.656525 149.612996 
L 166.370765 153.656242 
L 167.799245 157.804107 
L 168.513485 153.483412 
L 169.941965 159.193376 
L 170.656205 154.483223 
L 171.370445 148.057776 
L 172.084685 151.171464 
L 172.798925 145.882472 
L 173.513165 150.022046 
L 174.227405 151.718126 
L 174.941645 155.877531 
L 175.655885 158.439948 
L 176.370125 156.896193 
L 177.084365 157.524414 
L 177.798605 163.117772 
L 178.512845 164.975806 
L 179.227085 163.535363 
L 179.941325 158.837579 
L 180.655565 159.557094 
L 181.369805 157.72655 
L 182.084045 153.063087 
L 182.798285 158.281796 
L 183.512525 156.513422 
L 184.226765 158.368035 
L 184.941005 164.165191 
L 185.655245 164.003051 
L 186.369485 169.197742 
L 187.083725 166.732304 
L 187.797965 169.467803 
L 188.512205 169.728387 
L 189.226445 164.408805 
L 189.940685 168.121386 
L 190.654925 169.627297 
L 191.369165 170.144533 
L 192.083405 169.84984 
L 192.797645 172.173359 
L 193.511885 170.794718 
L 194.226125 168.390426 
L 194.940365 167.785392 
L 195.654605 166.578017 
L 196.368845 172.907549 
L 197.083085 172.613077 
L 197.797325 168.944631 
L 198.511565 167.592694 
L 199.225805 172.562511 
L 199.940045 170.893102 
L 200.654285 164.245112 
L 201.368525 168.171473 
L 202.082765 169.820071 
L 202.797005 169.763832 
L 203.511245 167.208484 
L 204.225485 175.126337 
L 204.939725 173.600005 
L 205.653965 176.107032 
L 206.368205 176.181045 
L 207.082445 176.123173 
L 207.796685 174.165692 
L 208.510925 181.848155 
L 209.225165 178.16622 
L 209.939405 177.022449 
L 210.653645 175.417913 
L 211.367885 164.069169 
L 212.082125 161.930185 
L 212.796365 157.61666 
L 213.510605 159.944109 
L 214.939085 177.475525 
L 215.653325 176.943649 
L 216.367565 182.225831 
L 217.081805 179.565072 
L 217.796045 173.843851 
L 218.510285 176.262739 
L 219.224525 177.786352 
L 219.938765 184.525209 
L 220.653005 181.514511 
L 221.367245 183.561632 
L 222.081485 184.093822 
L 222.795725 188.090338 
L 223.509965 189.82298 
L 224.224205 188.384979 
L 224.938445 182.326583 
L 225.652685 189.60685 
L 226.366925 188.812296 
L 227.795405 186.06169 
L 228.509645 188.593415 
L 229.223885 186.078268 
L 229.938125 182.596991 
L 230.652365 183.817744 
L 231.366605 177.731327 
L 232.080845 187.962538 
L 232.795085 194.841777 
L 233.509325 197.637232 
L 234.223565 196.871046 
L 234.937805 197.502225 
L 236.366285 194.814153 
L 237.080525 195.984761 
L 237.794765 196.073339 
L 238.509005 200.58825 
L 239.223245 200.261746 
L 239.937485 190.463933 
L 240.651725 194.787303 
L 241.365965 201.237175 
L 242.080205 202.066819 
L 242.794445 202.489517 
L 244.222925 196.462178 
L 244.937165 200.430675 
L 245.651405 199.751694 
L 246.365645 201.410366 
L 247.079885 192.405932 
L 247.794125 187.671605 
L 248.508365 200.284353 
L 249.222605 196.535368 
L 250.651085 206.211556 
L 251.365325 205.64963 
L 252.079565 204.148992 
L 252.793805 205.48854 
L 253.508045 206.418753 
L 254.222285 200.510988 
L 254.936525 201.384125 
L 255.650765 206.302428 
L 256.365005 204.259544 
L 257.079245 204.198491 
L 257.793485 206.35931 
L 258.507725 200.411651 
L 259.221965 204.210952 
L 259.936205 201.376797 
L 260.650445 209.209454 
L 261.364685 206.931088 
L 262.078925 213.325849 
L 262.793165 206.769799 
L 264.221645 190.077217 
L 264.935885 201.46406 
L 265.650125 193.926365 
L 267.078605 211.219736 
L 267.792845 208.873171 
L 268.507085 204.129886 
L 269.221325 210.176652 
L 269.935565 213.284786 
L 270.649805 217.335448 
L 271.364045 217.313146 
L 272.078285 216.329932 
L 272.792525 210.279864 
L 273.506765 207.643055 
L 274.221005 204.468844 
L 274.935245 210.378249 
L 275.649485 214.711138 
L 276.363725 190.904322 
L 277.077965 186.165823 
L 277.792205 170.318978 
L 278.506445 167.674946 
L 279.220685 170.354228 
L 279.934925 171.751533 
L 280.649165 193.330943 
L 281.363405 197.574075 
L 282.077645 211.485232 
L 282.791885 196.940538 
L 284.220365 216.987502 
L 284.934605 213.270964 
L 285.648845 216.378274 
L 286.363085 217.460262 
L 287.077325 213.493822 
L 287.791565 217.28966 
L 288.505805 221.854096 
L 289.220045 215.926205 
L 289.934285 217.506727 
L 290.648525 197.966944 
L 291.362765 202.28967 
L 292.077005 197.768473 
L 292.791245 202.118888 
L 293.505485 202.818388 
L 294.219725 211.341399 
L 294.933965 212.142345 
L 295.648205 209.038256 
L 296.362445 215.335465 
L 297.076685 203.865993 
L 297.790925 195.915986 
L 298.505165 176.739999 
L 299.219405 184.02942 
L 299.933645 200.626263 
L 300.647885 199.835931 
L 301.362125 196.319882 
L 302.076365 195.828035 
L 302.790605 205.536145 
L 303.504845 208.695518 
L 304.219085 210.773201 
L 304.933325 216.453956 
L 305.647565 208.715347 
L 306.361805 213.069613 
L 307.076045 220.230038 
L 307.790285 209.852744 
L 308.504525 222.150082 
L 309.218765 221.137461 
L 309.933005 222.878991 
L 310.647245 229.135182 
L 311.361485 225.482668 
L 312.075725 233.18465 
L 312.789965 233.421736 
L 313.504205 231.079647 
L 314.218445 226.590742 
L 314.932685 235.947659 
L 315.646925 235.931082 
L 316.361165 236.579079 
L 317.789645 234.019145 
L 318.503885 228.693979 
L 319.218125 233.495971 
L 319.932365 231.943029 
L 320.646605 230.723723 
L 321.360845 225.172676 
L 322.075085 232.880644 
L 322.789325 235.808079 
L 324.217805 227.671886 
L 324.932045 237.516552 
L 325.646285 232.243292 
L 326.360525 236.98821 
L 327.789005 226.177246 
L 328.503245 222.756947 
L 329.217485 224.886675 
L 329.931725 228.388505 
L 330.645965 227.641101 
L 331.360205 232.718266 
L 332.074445 223.993806 
L 332.788685 224.649756 
L 333.502925 190.731695 
L 334.217165 177.869549 
L 334.931405 194.964099 
L 335.645645 219.442206 
L 336.359885 226.235971 
L 337.074125 236.103278 
L 337.788365 202.074892 
L 338.502605 177.294542 
L 339.216845 211.956383 
L 339.931085 215.296535 
L 340.645325 197.531567 
L 341.359565 209.821319 
L 342.073805 183.302185 
L 342.788045 164.598485 
L 343.502285 167.376806 
L 344.216525 157.742767 
L 344.930765 177.567652 
L 345.645005 186.300562 
L 346.359245 207.159766 
L 347.073485 208.42935 
L 347.787725 213.705179 
L 348.501965 190.668091 
L 349.216205 203.398599 
L 349.930445 206.382456 
L 350.644685 212.328893 
L 351.358925 215.629805 
L 352.073165 219.694543 
L 352.787405 212.202865 
L 353.501645 233.416684 
L 354.215885 229.812529 
L 354.930125 239.130237 
L 355.644365 238.203181 
L 356.358605 238.867101 
L 357.787085 216.512508 
L 358.501325 229.666502 
L 359.215565 231.657243 
L 359.929805 241.830568 
L 360.644045 245.146395 
L 361.358285 241.472305 
L 362.072525 240.911601 
L 362.786765 246.412085 
L 363.501005 249.07446 
L 364.215245 246.426295 
L 364.929485 246.548657 
L 365.643725 251.177211 
L 366.357965 247.011184 
L 367.072205 249.857696 
L 367.786445 248.384556 
L 368.500685 248.06129 
L 369.214925 242.399338 
L 369.929165 242.624324 
L 370.643405 254.024054 
L 371.357645 254.3548 
L 372.071885 247.893842 
L 372.786125 253.688947 
L 373.500365 242.495808 
L 374.214605 245.755262 
L 374.928845 252.007676 
L 375.643085 250.43725 
L 376.357325 246.610365 
L 377.071565 251.199231 
L 377.785805 251.874073 
L 378.500045 248.883067 
L 379.214285 248.861992 
L 379.928525 250.010952 
L 380.642765 254.137759 
L 381.357005 254.155114 
L 382.071245 232.411253 
L 382.785485 233.001227 
L 384.213965 192.612264 
L 384.928205 193.01337 
L 385.642445 161.764592 
L 386.356685 160.297115 
L 387.070925 181.210915 
L 387.785165 179.029355 
L 388.499405 192.929668 
L 389.213645 161.581599 
L 390.642125 181.888775 
L 391.356365 213.6706 
L 392.070605 214.894505 
L 392.784845 205.247235 
L 393.499085 211.07457 
L 394.213325 208.401 
L 394.927565 225.754049 
L 395.641805 231.149816 
L 396.356045 230.166231 
L 397.070285 230.680411 
L 397.784525 242.268564 
L 398.498765 242.652154 
L 399.213005 254.77042 
L 399.927245 253.646765 
L 400.641485 250.046926 
L 401.355725 253.979023 
L 402.069965 255.25188 
L 402.784205 258.533081 
L 403.498445 258.269233 
L 404.212685 256.461693 
L 404.926925 252.610168 
L 405.641165 261.216 
L 406.355405 257.313593 
L 407.069645 241.954116 
L 407.783885 235.151515 
L 407.783885 235.151515 
" clip-path="url(#p730b70b225)" style="fill: none; stroke: #2ca02c; stroke-linecap: square"/>
   </g>
   <g id="line2d_39">
    <path d="M 51.378125 19.548029 
L 52.806605 21.148004 
L 56.377805 24.847683 
L 57.806285 26.765614 
L 59.234765 29.561692 
L 60.663245 32.871392 
L 64.948685 44.287991 
L 66.377165 47.556207 
L 67.805645 50.082114 
L 69.948365 53.569383 
L 73.519565 58.418846 
L 74.233805 58.975397 
L 74.948045 60.116824 
L 77.805005 63.609227 
L 78.519245 64.594833 
L 79.233485 65.168089 
L 84.233165 71.043707 
L 84.947405 71.554624 
L 86.375885 73.187516 
L 87.804365 74.590517 
L 88.518605 75.217756 
L 89.232845 75.682653 
L 89.947085 76.386314 
L 90.661325 77.322135 
L 92.804045 79.14052 
L 93.518285 79.411345 
L 95.661005 81.673304 
L 97.803725 82.577162 
L 98.517965 83.568035 
L 99.946445 85.08571 
L 100.660685 85.685387 
L 102.089165 86.548522 
L 103.517645 87.809511 
L 104.231885 88.478062 
L 104.946125 88.506873 
L 105.660365 89.35836 
L 106.374605 89.259611 
L 107.088845 89.739322 
L 108.517325 91.490111 
L 109.231565 91.836485 
L 109.945805 92.575543 
L 110.660045 92.80145 
L 111.374285 92.873467 
L 112.088525 93.867213 
L 112.802765 93.890219 
L 114.231245 95.33958 
L 114.945485 95.186308 
L 115.659725 95.60718 
L 116.373965 95.781108 
L 117.088205 96.794028 
L 117.802445 96.997961 
L 118.516685 96.583196 
L 119.230925 96.741083 
L 119.945165 99.350217 
L 120.659405 99.018594 
L 121.373645 100.22516 
L 122.087885 100.134837 
L 123.516365 100.560022 
L 124.230605 101.016996 
L 125.659085 102.710258 
L 126.373325 102.935535 
L 128.516045 104.267114 
L 129.230285 103.99808 
L 129.944525 104.294352 
L 131.373005 106.100679 
L 132.087245 104.630827 
L 132.801485 106.410988 
L 133.515725 106.44771 
L 134.229965 106.955999 
L 135.658445 108.60872 
L 136.372685 108.684403 
L 137.801165 109.439969 
L 139.943885 111.230064 
L 140.658125 111.120492 
L 141.372365 111.999107 
L 142.086605 112.455075 
L 142.800845 113.083901 
L 143.515085 112.817259 
L 144.229325 110.477088 
L 144.943565 112.596809 
L 145.657805 113.788226 
L 146.372045 114.637583 
L 147.086285 114.652973 
L 147.800525 115.661146 
L 148.514765 115.815646 
L 149.229005 115.115955 
L 149.943245 116.491528 
L 150.657485 117.339268 
L 151.371725 117.769343 
L 152.085965 117.497881 
L 152.800205 116.88554 
L 153.514445 118.89304 
L 154.228685 118.55334 
L 155.657165 119.887139 
L 156.371405 119.317267 
L 157.085645 118.961829 
L 157.799885 119.915892 
L 158.514125 121.398677 
L 159.228365 121.912251 
L 159.942605 122.266299 
L 160.656845 121.093594 
L 161.371085 122.911206 
L 162.085325 123.391379 
L 162.799565 122.751326 
L 163.513805 124.319751 
L 164.228045 125.092269 
L 165.656525 125.388626 
L 166.370765 122.04341 
L 167.085005 125.546072 
L 167.799245 123.103453 
L 168.513485 123.458484 
L 169.227725 124.853749 
L 169.941965 126.904793 
L 170.656205 127.478958 
L 171.370445 128.207386 
L 172.084685 128.474598 
L 172.798925 128.228082 
L 173.513165 127.423671 
L 174.227405 129.457053 
L 174.941645 130.214201 
L 175.655885 129.778113 
L 176.370125 130.210361 
L 177.084365 131.366776 
L 177.798605 130.755825 
L 178.512845 131.285221 
L 179.941325 132.711635 
L 180.655565 132.365046 
L 181.369805 129.698973 
L 182.084045 133.742308 
L 182.798285 134.229178 
L 183.512525 134.039893 
L 184.226765 134.88464 
L 184.941005 135.06075 
L 185.655245 135.676995 
L 186.369485 135.49362 
L 187.083725 135.657153 
L 187.797965 135.667656 
L 188.512205 134.721985 
L 189.226445 136.463259 
L 189.940685 137.67838 
L 190.654925 137.24768 
L 191.369165 137.014411 
L 192.083405 138.775998 
L 192.797645 138.2423 
L 193.511885 138.129817 
L 194.226125 138.897934 
L 194.940365 137.699586 
L 195.654605 138.442755 
L 196.368845 133.623589 
L 197.083085 137.422109 
L 197.797325 137.422951 
L 198.511565 139.372246 
L 199.225805 139.759424 
L 199.940045 141.862268 
L 200.654285 140.33966 
L 201.368525 140.343736 
L 202.082765 137.428638 
L 202.797005 140.47118 
L 203.511245 141.501572 
L 204.225485 143.027196 
L 204.939725 145.047451 
L 205.653965 143.835058 
L 206.368205 144.377592 
L 207.082445 143.423005 
L 207.796685 144.401607 
L 209.225165 147.707626 
L 209.939405 147.160696 
L 210.653645 147.503739 
L 211.367885 147.617826 
L 212.082125 143.24444 
L 212.796365 146.454746 
L 213.510605 146.936783 
L 214.224845 147.197207 
L 214.939085 147.296607 
L 215.653325 149.833553 
L 216.367565 150.331492 
L 217.081805 149.703179 
L 217.796045 149.262103 
L 218.510285 150.533407 
L 219.224525 152.286933 
L 219.938765 152.31883 
L 220.653005 147.538275 
L 221.367245 147.882927 
L 222.081485 147.712964 
L 222.795725 151.444042 
L 223.509965 149.462626 
L 224.224205 151.838474 
L 224.938445 152.465481 
L 225.652685 151.665442 
L 226.366925 149.515253 
L 227.081165 152.720692 
L 227.795405 155.10932 
L 229.223885 156.412764 
L 229.938125 155.991354 
L 230.652365 157.070343 
L 231.366605 156.644254 
L 232.080845 157.44212 
L 232.795085 157.65876 
L 233.509325 156.089636 
L 234.223565 158.166287 
L 234.937805 158.121288 
L 235.652045 155.251154 
L 236.366285 158.540446 
L 237.080525 160.011272 
L 237.794765 160.485588 
L 238.509005 160.439216 
L 239.223245 161.106764 
L 239.937485 161.545418 
L 240.651725 161.772166 
L 242.080205 161.795935 
L 242.794445 162.785823 
L 243.508685 161.32135 
L 244.937165 162.656659 
L 245.651405 161.796106 
L 246.365645 157.873041 
L 247.079885 158.104884 
L 247.794125 159.553018 
L 248.508365 162.54583 
L 249.222605 162.241968 
L 249.936845 162.462291 
L 250.651085 163.503937 
L 251.365325 166.161265 
L 252.079565 165.739349 
L 252.793805 166.416896 
L 253.508045 167.344141 
L 255.650765 165.618644 
L 256.365005 167.393792 
L 257.079245 166.532658 
L 257.793485 161.955834 
L 258.507725 166.409135 
L 259.221965 167.854281 
L 259.936205 168.48787 
L 260.650445 169.727648 
L 261.364685 170.360043 
L 262.078925 168.184293 
L 262.793165 165.207552 
L 263.507405 169.604864 
L 264.221645 170.507769 
L 264.935885 172.364017 
L 265.650125 173.191589 
L 266.364365 170.863084 
L 267.078605 168.935987 
L 267.792845 169.515012 
L 268.507085 172.567878 
L 269.221325 171.428225 
L 269.935565 173.975614 
L 270.649805 174.387042 
L 271.364045 172.037049 
L 272.078285 168.137991 
L 272.792525 162.245975 
L 273.506765 160.02992 
L 274.221005 167.666064 
L 274.935245 173.35069 
L 275.649485 172.716198 
L 276.363725 173.943333 
L 277.077965 169.591506 
L 277.792205 174.643714 
L 278.506445 174.615819 
L 279.220685 177.415661 
L 279.934925 176.341624 
L 280.649165 174.466971 
L 282.077645 169.751661 
L 282.791885 171.13081 
L 283.506125 170.68798 
L 284.220365 175.702705 
L 284.934605 174.048624 
L 285.648845 179.801116 
L 286.363085 181.830997 
L 287.077325 179.999179 
L 287.791565 178.764666 
L 288.505805 179.960714 
L 289.220045 180.657094 
L 289.934285 183.716241 
L 290.648525 182.347193 
L 291.362765 180.69582 
L 292.077005 181.569771 
L 292.791245 183.51377 
L 293.505485 183.467111 
L 294.219725 183.255905 
L 294.933965 184.328363 
L 295.648205 178.768763 
L 296.362445 176.316661 
L 297.076685 178.887699 
L 297.790925 177.232308 
L 298.505165 183.708647 
L 299.219405 183.228201 
L 299.933645 182.603902 
L 300.647885 181.406736 
L 301.362125 181.233456 
L 302.076365 176.944107 
L 302.790605 170.105874 
L 303.504845 174.429543 
L 304.933325 186.664088 
L 305.647565 184.436053 
L 306.361805 179.577579 
L 307.076045 184.751441 
L 307.790285 185.047602 
L 309.218765 182.036557 
L 309.933005 181.064606 
L 311.361485 188.421142 
L 312.075725 187.203149 
L 312.789965 189.528345 
L 313.504205 186.640588 
L 314.218445 186.635799 
L 314.932685 187.647402 
L 315.646925 190.366182 
L 316.361165 184.780611 
L 317.075405 186.354874 
L 318.503885 192.679105 
L 319.218125 191.538434 
L 319.932365 190.84424 
L 320.646605 188.752187 
L 321.360845 191.005065 
L 322.075085 190.917985 
L 322.789325 192.43612 
L 323.503565 192.595912 
L 324.217805 193.241201 
L 324.932045 194.174473 
L 325.646285 191.111137 
L 326.360525 195.50459 
L 327.074765 195.26556 
L 327.789005 195.994359 
L 328.503245 196.902064 
L 329.217485 195.583368 
L 329.931725 193.23732 
L 330.645965 195.000127 
L 331.360205 191.421855 
L 332.074445 193.202968 
L 333.502925 199.386718 
L 334.217165 199.212971 
L 334.931405 198.614915 
L 335.645645 200.208779 
L 336.359885 198.791852 
L 337.074125 195.872867 
L 338.502605 200.739846 
L 339.216845 199.267319 
L 340.645325 201.61222 
L 341.359565 201.355569 
L 342.073805 202.563548 
L 342.788045 203.05229 
L 343.502285 203.735819 
L 344.216525 201.546375 
L 344.930765 198.44609 
L 345.645005 201.059232 
L 346.359245 200.195646 
L 347.073485 196.970491 
L 347.787725 195.921626 
L 349.216205 201.097559 
L 350.644685 197.490655 
L 351.358925 202.346251 
L 352.073165 197.132436 
L 352.787405 201.421598 
L 353.501645 196.08268 
L 354.215885 197.802565 
L 354.930125 201.827863 
L 355.644365 203.114639 
L 356.358605 196.702346 
L 357.072845 201.847024 
L 357.787085 203.244797 
L 358.501325 207.866931 
L 359.215565 201.306038 
L 359.929805 202.963914 
L 360.644045 210.951007 
L 361.358285 209.1537 
L 362.072525 207.880841 
L 362.786765 202.997727 
L 364.215245 208.757391 
L 364.929485 205.207024 
L 365.643725 202.598586 
L 366.357965 209.869764 
L 367.072205 212.907252 
L 367.786445 213.807982 
L 368.500685 211.461132 
L 369.214925 211.445091 
L 369.929165 209.636107 
L 370.643405 213.928955 
L 371.357645 211.255694 
L 372.071885 210.74484 
L 372.786125 211.980369 
L 373.500365 209.107385 
L 374.214605 211.520453 
L 374.928845 214.967 
L 375.643085 215.560371 
L 376.357325 215.962506 
L 377.071565 212.476936 
L 377.785805 207.540653 
L 378.500045 206.461675 
L 379.214285 207.491535 
L 379.928525 214.668453 
L 380.642765 209.987751 
L 381.357005 207.468343 
L 382.071245 210.466618 
L 382.785485 209.538352 
L 383.499725 209.668526 
L 384.213965 215.602151 
L 384.928205 216.690045 
L 385.642445 219.654003 
L 387.070925 207.370066 
L 387.785165 216.97851 
L 388.499405 217.262664 
L 389.213645 214.341738 
L 389.927885 212.581667 
L 390.642125 213.943779 
L 391.356365 205.956049 
L 392.070605 211.815958 
L 392.784845 214.848139 
L 393.499085 218.80138 
L 394.213325 220.286287 
L 394.927565 218.820158 
L 395.641805 221.844742 
L 396.356045 218.103137 
L 397.070285 221.446298 
L 397.784525 217.305209 
L 398.498765 213.929931 
L 399.213005 211.787417 
L 399.927245 224.896833 
L 400.641485 223.023805 
L 401.355725 224.264741 
L 402.069965 220.090818 
L 402.784205 223.515599 
L 403.498445 222.279502 
L 404.212685 225.797936 
L 404.926925 227.025481 
L 405.641165 226.894414 
L 406.355405 226.404481 
L 407.069645 224.848862 
L 407.783885 226.338936 
L 407.783885 226.338936 
" clip-path="url(#p730b70b225)" style="fill: none; stroke: #d62728; stroke-linecap: square"/>
   </g>
   <g id="line2d_40">
    <path d="M 51.378125 19.296 
L 54.235085 20.023957 
L 60.663245 21.478981 
L 62.805965 21.985173 
L 67.091405 23.015334 
L 67.805645 23.078034 
L 71.376845 24.223148 
L 72.091085 24.372377 
L 73.519565 24.935685 
L 74.233805 25.066016 
L 74.948045 25.415105 
L 76.376525 25.775552 
L 78.519245 26.64162 
L 79.947725 27.20547 
L 82.090445 28.124291 
L 83.518925 28.907751 
L 86.375885 30.319429 
L 89.232845 31.964932 
L 91.375565 33.326289 
L 92.089805 33.646395 
L 93.518285 34.661039 
L 94.232525 34.960106 
L 95.661005 36.045037 
L 96.375245 36.353929 
L 100.660685 39.171296 
L 102.089165 39.958017 
L 103.517645 40.895695 
L 104.231885 41.297078 
L 104.946125 41.864661 
L 105.660365 42.212506 
L 107.803085 43.685342 
L 108.517325 44.000732 
L 109.945805 45.020798 
L 110.660045 45.285311 
L 115.659725 48.050562 
L 117.088205 48.693322 
L 117.802445 48.861338 
L 118.516685 49.292162 
L 119.230925 49.554953 
L 119.945165 49.969093 
L 120.659405 50.174704 
L 122.087885 50.790992 
L 129.230285 53.351974 
L 129.944525 53.47866 
L 130.658765 53.859524 
L 132.801485 54.600379 
L 133.515725 54.929672 
L 134.944205 55.252298 
L 135.658445 55.589074 
L 137.801165 56.14194 
L 140.658125 57.062825 
L 141.372365 57.176099 
L 144.943565 58.436378 
L 146.372045 58.774867 
L 147.086285 59.069012 
L 147.800525 59.217872 
L 149.943245 59.905561 
L 154.228685 61.026851 
L 154.942925 61.329004 
L 156.371405 61.58753 
L 157.085645 62.013268 
L 157.799885 62.081877 
L 159.228365 62.561272 
L 160.656845 62.828509 
L 162.085325 63.28398 
L 162.799565 63.383929 
L 163.513805 63.647007 
L 164.942285 63.97555 
L 166.370765 64.437565 
L 167.085005 64.495987 
L 167.799245 64.803824 
L 168.513485 64.877999 
L 170.656205 65.535673 
L 171.370445 65.622759 
L 172.084685 65.880882 
L 172.798925 65.95565 
L 174.227405 66.443562 
L 174.941645 66.51291 
L 175.655885 66.76729 
L 176.370125 66.85721 
L 177.084365 67.169 
L 177.798605 67.268288 
L 178.512845 67.539619 
L 179.941325 67.780271 
L 181.369805 68.290382 
L 182.084045 68.34293 
L 182.798285 68.757632 
L 184.941005 69.045114 
L 185.655245 69.281814 
L 187.083725 69.533739 
L 189.940685 70.244167 
L 191.369165 70.4427 
L 192.083405 70.72081 
L 194.226125 71.140669 
L 194.940365 71.118781 
L 195.654605 71.413336 
L 196.368845 71.560927 
L 197.083085 71.873088 
L 197.797325 71.821455 
L 199.225805 72.263493 
L 200.654285 72.565775 
L 204.939725 73.544726 
L 205.653965 73.601056 
L 207.082445 74.220025 
L 209.939405 74.715973 
L 210.653645 75.002663 
L 213.510605 75.540818 
L 214.224845 75.80404 
L 214.939085 75.817306 
L 215.653325 76.086074 
L 216.367565 76.214837 
L 217.796045 76.622887 
L 218.510285 76.612134 
L 219.938765 77.010436 
L 222.081485 77.422563 
L 223.509965 77.740263 
L 225.652685 78.319857 
L 227.081165 78.443837 
L 227.795405 78.663616 
L 228.509645 78.758142 
L 229.223885 79.013278 
L 229.938125 79.002396 
L 230.652365 79.244858 
L 232.080845 79.503988 
L 232.795085 79.763255 
L 235.652045 80.17856 
L 237.080525 80.63312 
L 241.365965 81.416051 
L 242.794445 81.831094 
L 243.508685 81.820503 
L 246.365645 82.503691 
L 247.079885 82.523064 
L 247.794125 82.804511 
L 248.508365 82.847153 
L 249.222605 83.073113 
L 249.936845 83.148261 
L 252.079565 83.638836 
L 253.508045 83.865914 
L 254.936525 84.227778 
L 255.650765 84.270798 
L 257.079245 84.701919 
L 257.793485 84.510011 
L 258.507725 84.857122 
L 259.221965 84.888189 
L 259.936205 85.161042 
L 261.364685 85.313831 
L 262.078925 85.570504 
L 263.507405 85.599944 
L 264.221645 86.032081 
L 264.935885 85.849947 
L 265.650125 86.251217 
L 269.935565 86.86439 
L 270.649805 87.150727 
L 271.364045 87.198314 
L 272.078285 87.470583 
L 274.221005 87.695013 
L 274.935245 87.938691 
L 275.649485 87.897537 
L 276.363725 87.997551 
L 277.077965 88.231656 
L 277.792205 88.602159 
L 278.506445 88.433573 
L 279.220685 88.770074 
L 279.934925 88.811246 
L 280.649165 89.082937 
L 284.220365 89.671032 
L 284.934605 89.689861 
L 285.648845 90.067584 
L 286.363085 89.965583 
L 287.077325 90.213818 
L 287.791565 90.207697 
L 288.505805 90.567151 
L 289.220045 90.559794 
L 289.934285 90.677384 
L 290.648525 90.547866 
L 292.077005 91.060234 
L 292.791245 91.135251 
L 293.505485 91.385361 
L 297.076685 91.92231 
L 299.219405 92.368298 
L 300.647885 92.372179 
L 301.362125 92.867697 
L 302.790605 92.909667 
L 303.504845 92.923372 
L 304.219085 92.810412 
L 304.933325 93.338271 
L 305.647565 93.218252 
L 307.790285 93.947507 
L 309.933005 94.165783 
L 310.647245 94.211746 
L 311.361485 94.454222 
L 314.218445 94.905874 
L 314.932685 95.173212 
L 315.646925 94.868683 
L 316.361165 95.311655 
L 317.075405 95.17342 
L 317.789645 95.588191 
L 318.503885 95.790805 
L 319.218125 95.619501 
L 320.646605 95.862593 
L 321.360845 96.198267 
L 322.789325 96.426335 
L 324.217805 96.589618 
L 333.502925 98.114433 
L 334.217165 98.090167 
L 334.931405 98.478797 
L 335.645645 98.457459 
L 336.359885 98.570195 
L 337.074125 98.812888 
L 337.788365 98.812064 
L 338.502605 99.110445 
L 339.216845 99.066055 
L 340.645325 99.516908 
L 341.359565 99.246601 
L 342.073805 99.636141 
L 342.788045 99.704382 
L 344.216525 100.105734 
L 344.930765 100.09251 
L 346.359245 100.570695 
L 347.073485 100.500794 
L 349.216205 101.106096 
L 350.644685 100.920443 
L 352.787405 101.493724 
L 353.501645 101.454898 
L 354.215885 101.760309 
L 354.930125 101.884678 
L 355.644365 102.166354 
L 357.072845 102.257625 
L 362.072525 103.074993 
L 362.786765 103.247364 
L 363.501005 103.188834 
L 364.215245 103.272004 
L 364.929485 103.532703 
L 365.643725 103.392571 
L 366.357965 103.454114 
L 367.072205 103.273586 
L 367.786445 104.062652 
L 368.500685 103.87913 
L 369.214925 104.291715 
L 370.643405 104.469551 
L 371.357645 104.631242 
L 372.071885 104.619814 
L 375.643085 105.304936 
L 376.357325 105.200647 
L 378.500045 105.738778 
L 379.214285 105.441341 
L 379.928525 105.601485 
L 380.642765 106.038005 
L 382.071245 106.146947 
L 383.499725 106.388421 
L 384.213965 106.426676 
L 386.356685 106.963443 
L 387.070925 107.065292 
L 387.785165 106.957505 
L 388.499405 107.07881 
L 389.213645 107.457384 
L 389.927885 107.206395 
L 390.642125 107.551465 
L 391.356365 107.600524 
L 392.070605 107.82014 
L 395.641805 108.318491 
L 396.356045 108.561013 
L 397.070285 108.493497 
L 397.784525 108.671334 
L 399.213005 108.688895 
L 399.927245 108.830389 
L 400.641485 109.229647 
L 402.069965 109.317007 
L 404.926925 109.837183 
L 405.641165 109.71905 
L 406.355405 109.843616 
L 407.783885 109.728452 
L 407.783885 109.728452 
" clip-path="url(#p730b70b225)" style="fill: none; stroke: #9467bd; stroke-linecap: square"/>
   </g>
   <g id="patch_3">
    <path d="M 51.378125 273.312 
L 51.378125 7.2 
" style="fill: none; stroke: #000000; stroke-width: 0.8; stroke-linejoin: miter; stroke-linecap: square"/>
   </g>
   <g id="patch_4">
    <path d="M 408.498125 273.312 
L 408.498125 7.2 
" style="fill: none; stroke: #000000; stroke-width: 0.8; stroke-linejoin: miter; stroke-linecap: square"/>
   </g>
   <g id="patch_5">
    <path d="M 51.378125 273.312 
L 408.498125 273.312 
" style="fill: none; stroke: #000000; stroke-width: 0.8; stroke-linejoin: miter; stroke-linecap: square"/>
   </g>
   <g id="patch_6">
    <path d="M 51.378125 7.2 
L 408.498125 7.2 
" style="fill: none; stroke: #000000; stroke-width: 0.8; stroke-linejoin: miter; stroke-linecap: square"/>
   </g>
   <g id="legend_1">
    <g id="patch_7">
     <path d="M 58.378125 268.312 
L 119.226562 268.312 
Q 121.226562 268.312 121.226562 266.312 
L 121.226562 193.921375 
Q 121.226562 191.921375 119.226562 191.921375 
L 58.378125 191.921375 
Q 56.378125 191.921375 56.378125 193.921375 
L 56.378125 266.312 
Q 56.378125 268.312 58.378125 268.312 
z
" style="fill: #ffffff; opacity: 0.8; stroke: #cccccc; stroke-linejoin: miter"/>
    </g>
    <g id="line2d_41">
     <path d="M 60.378125 200.019812 
L 70.378125 200.019812 
L 80.378125 200.019812 
" style="fill: none; stroke: #1f77b4; stroke-linecap: square"/>
    </g>
    <g id="text_12">
     <!-- 1e-02 -->
     <g transform="translate(88.378125 203.519812) scale(0.1 -0.1)">
      <defs>
       <path id="DejaVuSans-2d" d="M 313 2009 
L 1997 2009 
L 1997 1497 
L 313 1497 
L 313 2009 
z
" transform="scale(0.015625)"/>
      </defs>
      <use xlink:href="#DejaVuSans-31"/>
      <use xlink:href="#DejaVuSans-65" x="63.623047"/>
      <use xlink:href="#DejaVuSans-2d" x="125.146484"/>
      <use xlink:href="#DejaVuSans-30" x="161.230469"/>
      <use xlink:href="#DejaVuSans-32" x="224.853516"/>
     </g>
    </g>
    <g id="line2d_42">
     <path d="M 60.378125 214.697937 
L 70.378125 214.697937 
L 80.378125 214.697937 
" style="fill: none; stroke: #ff7f0e; stroke-linecap: square"/>
    </g>
    <g id="text_13">
     <!-- 5e-03 -->
     <g transform="translate(88.378125 218.197937) scale(0.1 -0.1)">
      <use xlink:href="#DejaVuSans-35"/>
      <use xlink:href="#DejaVuSans-65" x="63.623047"/>
      <use xlink:href="#DejaVuSans-2d" x="125.146484"/>
      <use xlink:href="#DejaVuSans-30" x="161.230469"/>
      <use xlink:href="#DejaVuSans-33" x="224.853516"/>
     </g>
    </g>
    <g id="line2d_43">
     <path d="M 60.378125 229.376062 
L 70.378125 229.376062 
L 80.378125 229.376062 
" style="fill: none; stroke: #2ca02c; stroke-linecap: square"/>
    </g>
    <g id="text_14">
     <!-- 1e-03 -->
     <g transform="translate(88.378125 232.876062) scale(0.1 -0.1)">
      <use xlink:href="#DejaVuSans-31"/>
      <use xlink:href="#DejaVuSans-65" x="63.623047"/>
      <use xlink:href="#DejaVuSans-2d" x="125.146484"/>
      <use xlink:href="#DejaVuSans-30" x="161.230469"/>
      <use xlink:href="#DejaVuSans-33" x="224.853516"/>
     </g>
    </g>
    <g id="line2d_44">
     <path d="M 60.378125 244.054187 
L 70.378125 244.054187 
L 80.378125 244.054187 
" style="fill: none; stroke: #d62728; stroke-linecap: square"/>
    </g>
    <g id="text_15">
     <!-- 5e-04 -->
     <g transform="translate(88.378125 247.554187) scale(0.1 -0.1)">
      <use xlink:href="#DejaVuSans-35"/>
      <use xlink:href="#DejaVuSans-65" x="63.623047"/>
      <use xlink:href="#DejaVuSans-2d" x="125.146484"/>
      <use xlink:href="#DejaVuSans-30" x="161.230469"/>
      <use xlink:href="#DejaVuSans-34" x="224.853516"/>
     </g>
    </g>
    <g id="line2d_45">
     <path d="M 60.378125 258.732312 
L 70.378125 258.732312 
L 80.378125 258.732312 
" style="fill: none; stroke: #9467bd; stroke-linecap: square"/>
    </g>
    <g id="text_16">
     <!-- 1e-04 -->
     <g transform="translate(88.378125 262.232312) scale(0.1 -0.1)">
      <use xlink:href="#DejaVuSans-31"/>
      <use xlink:href="#DejaVuSans-65" x="63.623047"/>
      <use xlink:href="#DejaVuSans-2d" x="125.146484"/>
      <use xlink:href="#DejaVuSans-30" x="161.230469"/>
      <use xlink:href="#DejaVuSans-34" x="224.853516"/>
     </g>
    </g>
   </g>
  </g>
 </g>
 <defs>
  <clipPath id="p730b70b225">
   <rect x="51.378125" y="7.2" width="357.12" height="266.112"/>
  </clipPath>
 </defs>
</svg>
