<?xml version="1.0" encoding="utf-8" standalone="no"?>
<!DOCTYPE svg PUBLIC "-//W3C//DTD SVG 1.1//EN"
  "http://www.w3.org/Graphics/SVG/1.1/DTD/svg11.dtd">
<svg xmlns:xlink="http://www.w3.org/1999/xlink" width="425.241875pt" height="310.86825pt" viewBox="0 0 425.241875 310.86825" xmlns="http://www.w3.org/2000/svg" version="1.1">
 <metadata>
  <rdf:RDF xmlns:dc="http://purl.org/dc/elements/1.1/" xmlns:cc="http://creativecommons.org/ns#" xmlns:rdf="http://www.w3.org/1999/02/22-rdf-syntax-ns#">
   <cc:Work>
    <dc:type rdf:resource="http://purl.org/dc/dcmitype/StillImage"/>
    <dc:date>2022-11-22T22:34:55.286491</dc:date>
    <dc:format>image/svg+xml</dc:format>
    <dc:creator>
     <cc:Agent>
      <dc:title>Matplotlib v3.6.1, https://matplotlib.org/</dc:title>
     </cc:Agent>
    </dc:creator>
   </cc:Work>
  </rdf:RDF>
 </metadata>
 <defs>
  <style type="text/css">*{stroke-linejoin: round; stroke-linecap: butt}</style>
 </defs>
 <g id="figure_1">
  <g id="patch_1">
   <path d="M 0 310.86825 
L 425.241875 310.86825 
L 425.241875 0 
L 0 0 
z
" style="fill: #ffffff"/>
  </g>
  <g id="axes_1">
   <g id="patch_2">
    <path d="M 51.378125 273.312 
L 408.498125 273.312 
L 408.498125 7.2 
L 51.378125 7.2 
z
" style="fill: #ffffff"/>
   </g>
   <g id="matplotlib.axis_1">
    <g id="xtick_1">
     <g id="line2d_1">
      <defs>
       <path id="m5c669a56ae" d="M 0 0 
L 0 3.5 
" style="stroke: #000000; stroke-width: 0.8"/>
      </defs>
      <g>
       <use xlink:href="#m5c669a56ae" x="51.378125" y="273.312" style="stroke: #000000; stroke-width: 0.8"/>
      </g>
     </g>
     <g id="text_1">
      <!-- 0 -->
      <g transform="translate(48.196875 287.910438) scale(0.1 -0.1)">
       <defs>
        <path id="DejaVuSans-30" d="M 2034 4250 
Q 1547 4250 1301 3770 
Q 1056 3291 1056 2328 
Q 1056 1369 1301 889 
Q 1547 409 2034 409 
Q 2525 409 2770 889 
Q 3016 1369 3016 2328 
Q 3016 3291 2770 3770 
Q 2525 4250 2034 4250 
z
M 2034 4750 
Q 2819 4750 3233 4129 
Q 3647 3509 3647 2328 
Q 3647 1150 3233 529 
Q 2819 -91 2034 -91 
Q 1250 -91 836 529 
Q 422 1150 422 2328 
Q 422 3509 836 4129 
Q 1250 4750 2034 4750 
z
" transform="scale(0.015625)"/>
       </defs>
       <use xlink:href="#DejaVuSans-30"/>
      </g>
     </g>
    </g>
    <g id="xtick_2">
     <g id="line2d_2">
      <g>
       <use xlink:href="#m5c669a56ae" x="122.802125" y="273.312" style="stroke: #000000; stroke-width: 0.8"/>
      </g>
     </g>
     <g id="text_2">
      <!-- 100 -->
      <g transform="translate(113.258375 287.910438) scale(0.1 -0.1)">
       <defs>
        <path id="DejaVuSans-31" d="M 794 531 
L 1825 531 
L 1825 4091 
L 703 3866 
L 703 4441 
L 1819 4666 
L 2450 4666 
L 2450 531 
L 3481 531 
L 3481 0 
L 794 0 
L 794 531 
z
" transform="scale(0.015625)"/>
       </defs>
       <use xlink:href="#DejaVuSans-31"/>
       <use xlink:href="#DejaVuSans-30" x="63.623047"/>
       <use xlink:href="#DejaVuSans-30" x="127.246094"/>
      </g>
     </g>
    </g>
    <g id="xtick_3">
     <g id="line2d_3">
      <g>
       <use xlink:href="#m5c669a56ae" x="194.226125" y="273.312" style="stroke: #000000; stroke-width: 0.8"/>
      </g>
     </g>
     <g id="text_3">
      <!-- 200 -->
      <g transform="translate(184.682375 287.910438) scale(0.1 -0.1)">
       <defs>
        <path id="DejaVuSans-32" d="M 1228 531 
L 3431 531 
L 3431 0 
L 469 0 
L 469 531 
Q 828 903 1448 1529 
Q 2069 2156 2228 2338 
Q 2531 2678 2651 2914 
Q 2772 3150 2772 3378 
Q 2772 3750 2511 3984 
Q 2250 4219 1831 4219 
Q 1534 4219 1204 4116 
Q 875 4013 500 3803 
L 500 4441 
Q 881 4594 1212 4672 
Q 1544 4750 1819 4750 
Q 2544 4750 2975 4387 
Q 3406 4025 3406 3419 
Q 3406 3131 3298 2873 
Q 3191 2616 2906 2266 
Q 2828 2175 2409 1742 
Q 1991 1309 1228 531 
z
" transform="scale(0.015625)"/>
       </defs>
       <use xlink:href="#DejaVuSans-32"/>
       <use xlink:href="#DejaVuSans-30" x="63.623047"/>
       <use xlink:href="#DejaVuSans-30" x="127.246094"/>
      </g>
     </g>
    </g>
    <g id="xtick_4">
     <g id="line2d_4">
      <g>
       <use xlink:href="#m5c669a56ae" x="265.650125" y="273.312" style="stroke: #000000; stroke-width: 0.8"/>
      </g>
     </g>
     <g id="text_4">
      <!-- 300 -->
      <g transform="translate(256.106375 287.910438) scale(0.1 -0.1)">
       <defs>
        <path id="DejaVuSans-33" d="M 2597 2516 
Q 3050 2419 3304 2112 
Q 3559 1806 3559 1356 
Q 3559 666 3084 287 
Q 2609 -91 1734 -91 
Q 1441 -91 1130 -33 
Q 819 25 488 141 
L 488 750 
Q 750 597 1062 519 
Q 1375 441 1716 441 
Q 2309 441 2620 675 
Q 2931 909 2931 1356 
Q 2931 1769 2642 2001 
Q 2353 2234 1838 2234 
L 1294 2234 
L 1294 2753 
L 1863 2753 
Q 2328 2753 2575 2939 
Q 2822 3125 2822 3475 
Q 2822 3834 2567 4026 
Q 2313 4219 1838 4219 
Q 1578 4219 1281 4162 
Q 984 4106 628 3988 
L 628 4550 
Q 988 4650 1302 4700 
Q 1616 4750 1894 4750 
Q 2613 4750 3031 4423 
Q 3450 4097 3450 3541 
Q 3450 3153 3228 2886 
Q 3006 2619 2597 2516 
z
" transform="scale(0.015625)"/>
       </defs>
       <use xlink:href="#DejaVuSans-33"/>
       <use xlink:href="#DejaVuSans-30" x="63.623047"/>
       <use xlink:href="#DejaVuSans-30" x="127.246094"/>
      </g>
     </g>
    </g>
    <g id="xtick_5">
     <g id="line2d_5">
      <g>
       <use xlink:href="#m5c669a56ae" x="337.074125" y="273.312" style="stroke: #000000; stroke-width: 0.8"/>
      </g>
     </g>
     <g id="text_5">
      <!-- 400 -->
      <g transform="translate(327.530375 287.910438) scale(0.1 -0.1)">
       <defs>
        <path id="DejaVuSans-34" d="M 2419 4116 
L 825 1625 
L 2419 1625 
L 2419 4116 
z
M 2253 4666 
L 3047 4666 
L 3047 1625 
L 3713 1625 
L 3713 1100 
L 3047 1100 
L 3047 0 
L 2419 0 
L 2419 1100 
L 313 1100 
L 313 1709 
L 2253 4666 
z
" transform="scale(0.015625)"/>
       </defs>
       <use xlink:href="#DejaVuSans-34"/>
       <use xlink:href="#DejaVuSans-30" x="63.623047"/>
       <use xlink:href="#DejaVuSans-30" x="127.246094"/>
      </g>
     </g>
    </g>
    <g id="xtick_6">
     <g id="line2d_6">
      <g>
       <use xlink:href="#m5c669a56ae" x="408.498125" y="273.312" style="stroke: #000000; stroke-width: 0.8"/>
      </g>
     </g>
     <g id="text_6">
      <!-- 500 -->
      <g transform="translate(398.954375 287.910438) scale(0.1 -0.1)">
       <defs>
        <path id="DejaVuSans-35" d="M 691 4666 
L 3169 4666 
L 3169 4134 
L 1269 4134 
L 1269 2991 
Q 1406 3038 1543 3061 
Q 1681 3084 1819 3084 
Q 2600 3084 3056 2656 
Q 3513 2228 3513 1497 
Q 3513 744 3044 326 
Q 2575 -91 1722 -91 
Q 1428 -91 1123 -41 
Q 819 9 494 109 
L 494 744 
Q 775 591 1075 516 
Q 1375 441 1709 441 
Q 2250 441 2565 725 
Q 2881 1009 2881 1497 
Q 2881 1984 2565 2268 
Q 2250 2553 1709 2553 
Q 1456 2553 1204 2497 
Q 953 2441 691 2322 
L 691 4666 
z
" transform="scale(0.015625)"/>
       </defs>
       <use xlink:href="#DejaVuSans-35"/>
       <use xlink:href="#DejaVuSans-30" x="63.623047"/>
       <use xlink:href="#DejaVuSans-30" x="127.246094"/>
      </g>
     </g>
    </g>
    <g id="text_7">
     <!-- epoch -->
     <g transform="translate(214.71 301.588562) scale(0.1 -0.1)">
      <defs>
       <path id="DejaVuSans-65" d="M 3597 1894 
L 3597 1613 
L 953 1613 
Q 991 1019 1311 708 
Q 1631 397 2203 397 
Q 2534 397 2845 478 
Q 3156 559 3463 722 
L 3463 178 
Q 3153 47 2828 -22 
Q 2503 -91 2169 -91 
Q 1331 -91 842 396 
Q 353 884 353 1716 
Q 353 2575 817 3079 
Q 1281 3584 2069 3584 
Q 2775 3584 3186 3129 
Q 3597 2675 3597 1894 
z
M 3022 2063 
Q 3016 2534 2758 2815 
Q 2500 3097 2075 3097 
Q 1594 3097 1305 2825 
Q 1016 2553 972 2059 
L 3022 2063 
z
" transform="scale(0.015625)"/>
       <path id="DejaVuSans-70" d="M 1159 525 
L 1159 -1331 
L 581 -1331 
L 581 3500 
L 1159 3500 
L 1159 2969 
Q 1341 3281 1617 3432 
Q 1894 3584 2278 3584 
Q 2916 3584 3314 3078 
Q 3713 2572 3713 1747 
Q 3713 922 3314 415 
Q 2916 -91 2278 -91 
Q 1894 -91 1617 61 
Q 1341 213 1159 525 
z
M 3116 1747 
Q 3116 2381 2855 2742 
Q 2594 3103 2138 3103 
Q 1681 3103 1420 2742 
Q 1159 2381 1159 1747 
Q 1159 1113 1420 752 
Q 1681 391 2138 391 
Q 2594 391 2855 752 
Q 3116 1113 3116 1747 
z
" transform="scale(0.015625)"/>
       <path id="DejaVuSans-6f" d="M 1959 3097 
Q 1497 3097 1228 2736 
Q 959 2375 959 1747 
Q 959 1119 1226 758 
Q 1494 397 1959 397 
Q 2419 397 2687 759 
Q 2956 1122 2956 1747 
Q 2956 2369 2687 2733 
Q 2419 3097 1959 3097 
z
M 1959 3584 
Q 2709 3584 3137 3096 
Q 3566 2609 3566 1747 
Q 3566 888 3137 398 
Q 2709 -91 1959 -91 
Q 1206 -91 779 398 
Q 353 888 353 1747 
Q 353 2609 779 3096 
Q 1206 3584 1959 3584 
z
" transform="scale(0.015625)"/>
       <path id="DejaVuSans-63" d="M 3122 3366 
L 3122 2828 
Q 2878 2963 2633 3030 
Q 2388 3097 2138 3097 
Q 1578 3097 1268 2742 
Q 959 2388 959 1747 
Q 959 1106 1268 751 
Q 1578 397 2138 397 
Q 2388 397 2633 464 
Q 2878 531 3122 666 
L 3122 134 
Q 2881 22 2623 -34 
Q 2366 -91 2075 -91 
Q 1284 -91 818 406 
Q 353 903 353 1747 
Q 353 2603 823 3093 
Q 1294 3584 2113 3584 
Q 2378 3584 2631 3529 
Q 2884 3475 3122 3366 
z
" transform="scale(0.015625)"/>
       <path id="DejaVuSans-68" d="M 3513 2113 
L 3513 0 
L 2938 0 
L 2938 2094 
Q 2938 2591 2744 2837 
Q 2550 3084 2163 3084 
Q 1697 3084 1428 2787 
Q 1159 2491 1159 1978 
L 1159 0 
L 581 0 
L 581 4863 
L 1159 4863 
L 1159 2956 
Q 1366 3272 1645 3428 
Q 1925 3584 2291 3584 
Q 2894 3584 3203 3211 
Q 3513 2838 3513 2113 
z
" transform="scale(0.015625)"/>
      </defs>
      <use xlink:href="#DejaVuSans-65"/>
      <use xlink:href="#DejaVuSans-70" x="61.523438"/>
      <use xlink:href="#DejaVuSans-6f" x="125"/>
      <use xlink:href="#DejaVuSans-63" x="186.181641"/>
      <use xlink:href="#DejaVuSans-68" x="241.162109"/>
     </g>
    </g>
   </g>
   <g id="matplotlib.axis_2">
    <g id="ytick_1">
     <g id="line2d_7">
      <defs>
       <path id="m86899ef09e" d="M 0 0 
L -3.5 0 
" style="stroke: #000000; stroke-width: 0.8"/>
      </defs>
      <g>
       <use xlink:href="#m86899ef09e" x="51.378125" y="269.815079" style="stroke: #000000; stroke-width: 0.8"/>
      </g>
     </g>
     <g id="text_8">
      <!-- $\mathdefault{10^{-4}}$ -->
      <g transform="translate(20.878125 273.614298) scale(0.1 -0.1)">
       <defs>
        <path id="DejaVuSans-2212" d="M 678 2272 
L 4684 2272 
L 4684 1741 
L 678 1741 
L 678 2272 
z
" transform="scale(0.015625)"/>
       </defs>
       <use xlink:href="#DejaVuSans-31" transform="translate(0 0.684375)"/>
       <use xlink:href="#DejaVuSans-30" transform="translate(63.623047 0.684375)"/>
       <use xlink:href="#DejaVuSans-2212" transform="translate(128.203125 38.965625) scale(0.7)"/>
       <use xlink:href="#DejaVuSans-34" transform="translate(186.855469 38.965625) scale(0.7)"/>
      </g>
     </g>
    </g>
    <g id="ytick_2">
     <g id="line2d_8">
      <g>
       <use xlink:href="#m86899ef09e" x="51.378125" y="197.985903" style="stroke: #000000; stroke-width: 0.8"/>
      </g>
     </g>
     <g id="text_9">
      <!-- $\mathdefault{10^{-3}}$ -->
      <g transform="translate(20.878125 201.785122) scale(0.1 -0.1)">
       <use xlink:href="#DejaVuSans-31" transform="translate(0 0.765625)"/>
       <use xlink:href="#DejaVuSans-30" transform="translate(63.623047 0.765625)"/>
       <use xlink:href="#DejaVuSans-2212" transform="translate(128.203125 39.046875) scale(0.7)"/>
       <use xlink:href="#DejaVuSans-33" transform="translate(186.855469 39.046875) scale(0.7)"/>
      </g>
     </g>
    </g>
    <g id="ytick_3">
     <g id="line2d_9">
      <g>
       <use xlink:href="#m86899ef09e" x="51.378125" y="126.156728" style="stroke: #000000; stroke-width: 0.8"/>
      </g>
     </g>
     <g id="text_10">
      <!-- $\mathdefault{10^{-2}}$ -->
      <g transform="translate(20.878125 129.955946) scale(0.1 -0.1)">
       <use xlink:href="#DejaVuSans-31" transform="translate(0 0.765625)"/>
       <use xlink:href="#DejaVuSans-30" transform="translate(63.623047 0.765625)"/>
       <use xlink:href="#DejaVuSans-2212" transform="translate(128.203125 39.046875) scale(0.7)"/>
       <use xlink:href="#DejaVuSans-32" transform="translate(186.855469 39.046875) scale(0.7)"/>
      </g>
     </g>
    </g>
    <g id="ytick_4">
     <g id="line2d_10">
      <g>
       <use xlink:href="#m86899ef09e" x="51.378125" y="54.327552" style="stroke: #000000; stroke-width: 0.8"/>
      </g>
     </g>
     <g id="text_11">
      <!-- $\mathdefault{10^{-1}}$ -->
      <g transform="translate(20.878125 58.126771) scale(0.1 -0.1)">
       <use xlink:href="#DejaVuSans-31" transform="translate(0 0.684375)"/>
       <use xlink:href="#DejaVuSans-30" transform="translate(63.623047 0.684375)"/>
       <use xlink:href="#DejaVuSans-2212" transform="translate(128.203125 38.965625) scale(0.7)"/>
       <use xlink:href="#DejaVuSans-31" transform="translate(186.855469 38.965625) scale(0.7)"/>
      </g>
     </g>
    </g>
    <g id="ytick_5">
     <g id="line2d_11">
      <defs>
       <path id="ma65ec6cfaf" d="M 0 0 
L -2 0 
" style="stroke: #000000; stroke-width: 0.6"/>
      </defs>
      <g>
       <use xlink:href="#ma65ec6cfaf" x="51.378125" y="273.101802" style="stroke: #000000; stroke-width: 0.6"/>
      </g>
     </g>
    </g>
    <g id="ytick_6">
     <g id="line2d_12">
      <g>
       <use xlink:href="#ma65ec6cfaf" x="51.378125" y="248.192343" style="stroke: #000000; stroke-width: 0.6"/>
      </g>
     </g>
    </g>
    <g id="ytick_7">
     <g id="line2d_13">
      <g>
       <use xlink:href="#ma65ec6cfaf" x="51.378125" y="235.543853" style="stroke: #000000; stroke-width: 0.6"/>
      </g>
     </g>
    </g>
    <g id="ytick_8">
     <g id="line2d_14">
      <g>
       <use xlink:href="#ma65ec6cfaf" x="51.378125" y="226.569606" style="stroke: #000000; stroke-width: 0.6"/>
      </g>
     </g>
    </g>
    <g id="ytick_9">
     <g id="line2d_15">
      <g>
       <use xlink:href="#ma65ec6cfaf" x="51.378125" y="219.60864" style="stroke: #000000; stroke-width: 0.6"/>
      </g>
     </g>
    </g>
    <g id="ytick_10">
     <g id="line2d_16">
      <g>
       <use xlink:href="#ma65ec6cfaf" x="51.378125" y="213.921116" style="stroke: #000000; stroke-width: 0.6"/>
      </g>
     </g>
    </g>
    <g id="ytick_11">
     <g id="line2d_17">
      <g>
       <use xlink:href="#ma65ec6cfaf" x="51.378125" y="209.112383" style="stroke: #000000; stroke-width: 0.6"/>
      </g>
     </g>
    </g>
    <g id="ytick_12">
     <g id="line2d_18">
      <g>
       <use xlink:href="#ma65ec6cfaf" x="51.378125" y="204.94687" style="stroke: #000000; stroke-width: 0.6"/>
      </g>
     </g>
    </g>
    <g id="ytick_13">
     <g id="line2d_19">
      <g>
       <use xlink:href="#ma65ec6cfaf" x="51.378125" y="201.272626" style="stroke: #000000; stroke-width: 0.6"/>
      </g>
     </g>
    </g>
    <g id="ytick_14">
     <g id="line2d_20">
      <g>
       <use xlink:href="#ma65ec6cfaf" x="51.378125" y="176.363167" style="stroke: #000000; stroke-width: 0.6"/>
      </g>
     </g>
    </g>
    <g id="ytick_15">
     <g id="line2d_21">
      <g>
       <use xlink:href="#ma65ec6cfaf" x="51.378125" y="163.714677" style="stroke: #000000; stroke-width: 0.6"/>
      </g>
     </g>
    </g>
    <g id="ytick_16">
     <g id="line2d_22">
      <g>
       <use xlink:href="#ma65ec6cfaf" x="51.378125" y="154.74043" style="stroke: #000000; stroke-width: 0.6"/>
      </g>
     </g>
    </g>
    <g id="ytick_17">
     <g id="line2d_23">
      <g>
       <use xlink:href="#ma65ec6cfaf" x="51.378125" y="147.779464" style="stroke: #000000; stroke-width: 0.6"/>
      </g>
     </g>
    </g>
    <g id="ytick_18">
     <g id="line2d_24">
      <g>
       <use xlink:href="#ma65ec6cfaf" x="51.378125" y="142.09194" style="stroke: #000000; stroke-width: 0.6"/>
      </g>
     </g>
    </g>
    <g id="ytick_19">
     <g id="line2d_25">
      <g>
       <use xlink:href="#ma65ec6cfaf" x="51.378125" y="137.283208" style="stroke: #000000; stroke-width: 0.6"/>
      </g>
     </g>
    </g>
    <g id="ytick_20">
     <g id="line2d_26">
      <g>
       <use xlink:href="#ma65ec6cfaf" x="51.378125" y="133.117694" style="stroke: #000000; stroke-width: 0.6"/>
      </g>
     </g>
    </g>
    <g id="ytick_21">
     <g id="line2d_27">
      <g>
       <use xlink:href="#ma65ec6cfaf" x="51.378125" y="129.44345" style="stroke: #000000; stroke-width: 0.6"/>
      </g>
     </g>
    </g>
    <g id="ytick_22">
     <g id="line2d_28">
      <g>
       <use xlink:href="#ma65ec6cfaf" x="51.378125" y="104.533991" style="stroke: #000000; stroke-width: 0.6"/>
      </g>
     </g>
    </g>
    <g id="ytick_23">
     <g id="line2d_29">
      <g>
       <use xlink:href="#ma65ec6cfaf" x="51.378125" y="91.885501" style="stroke: #000000; stroke-width: 0.6"/>
      </g>
     </g>
    </g>
    <g id="ytick_24">
     <g id="line2d_30">
      <g>
       <use xlink:href="#ma65ec6cfaf" x="51.378125" y="82.911255" style="stroke: #000000; stroke-width: 0.6"/>
      </g>
     </g>
    </g>
    <g id="ytick_25">
     <g id="line2d_31">
      <g>
       <use xlink:href="#ma65ec6cfaf" x="51.378125" y="75.950288" style="stroke: #000000; stroke-width: 0.6"/>
      </g>
     </g>
    </g>
    <g id="ytick_26">
     <g id="line2d_32">
      <g>
       <use xlink:href="#ma65ec6cfaf" x="51.378125" y="70.262765" style="stroke: #000000; stroke-width: 0.6"/>
      </g>
     </g>
    </g>
    <g id="ytick_27">
     <g id="line2d_33">
      <g>
       <use xlink:href="#ma65ec6cfaf" x="51.378125" y="65.454032" style="stroke: #000000; stroke-width: 0.6"/>
      </g>
     </g>
    </g>
    <g id="ytick_28">
     <g id="line2d_34">
      <g>
       <use xlink:href="#ma65ec6cfaf" x="51.378125" y="61.288518" style="stroke: #000000; stroke-width: 0.6"/>
      </g>
     </g>
    </g>
    <g id="ytick_29">
     <g id="line2d_35">
      <g>
       <use xlink:href="#ma65ec6cfaf" x="51.378125" y="57.614275" style="stroke: #000000; stroke-width: 0.6"/>
      </g>
     </g>
    </g>
    <g id="ytick_30">
     <g id="line2d_36">
      <g>
       <use xlink:href="#ma65ec6cfaf" x="51.378125" y="32.704815" style="stroke: #000000; stroke-width: 0.6"/>
      </g>
     </g>
    </g>
    <g id="ytick_31">
     <g id="line2d_37">
      <g>
       <use xlink:href="#ma65ec6cfaf" x="51.378125" y="20.056325" style="stroke: #000000; stroke-width: 0.6"/>
      </g>
     </g>
    </g>
    <g id="ytick_32">
     <g id="line2d_38">
      <g>
       <use xlink:href="#ma65ec6cfaf" x="51.378125" y="11.082079" style="stroke: #000000; stroke-width: 0.6"/>
      </g>
     </g>
    </g>
    <g id="text_12">
     <!-- MSE -->
     <g transform="translate(14.798438 150.903656) rotate(-90) scale(0.1 -0.1)">
      <defs>
       <path id="DejaVuSans-4d" d="M 628 4666 
L 1569 4666 
L 2759 1491 
L 3956 4666 
L 4897 4666 
L 4897 0 
L 4281 0 
L 4281 4097 
L 3078 897 
L 2444 897 
L 1241 4097 
L 1241 0 
L 628 0 
L 628 4666 
z
" transform="scale(0.015625)"/>
       <path id="DejaVuSans-53" d="M 3425 4513 
L 3425 3897 
Q 3066 4069 2747 4153 
Q 2428 4238 2131 4238 
Q 1616 4238 1336 4038 
Q 1056 3838 1056 3469 
Q 1056 3159 1242 3001 
Q 1428 2844 1947 2747 
L 2328 2669 
Q 3034 2534 3370 2195 
Q 3706 1856 3706 1288 
Q 3706 609 3251 259 
Q 2797 -91 1919 -91 
Q 1588 -91 1214 -16 
Q 841 59 441 206 
L 441 856 
Q 825 641 1194 531 
Q 1563 422 1919 422 
Q 2459 422 2753 634 
Q 3047 847 3047 1241 
Q 3047 1584 2836 1778 
Q 2625 1972 2144 2069 
L 1759 2144 
Q 1053 2284 737 2584 
Q 422 2884 422 3419 
Q 422 4038 858 4394 
Q 1294 4750 2059 4750 
Q 2388 4750 2728 4690 
Q 3069 4631 3425 4513 
z
" transform="scale(0.015625)"/>
       <path id="DejaVuSans-45" d="M 628 4666 
L 3578 4666 
L 3578 4134 
L 1259 4134 
L 1259 2753 
L 3481 2753 
L 3481 2222 
L 1259 2222 
L 1259 531 
L 3634 531 
L 3634 0 
L 628 0 
L 628 4666 
z
" transform="scale(0.015625)"/>
      </defs>
      <use xlink:href="#DejaVuSans-4d"/>
      <use xlink:href="#DejaVuSans-53" x="86.279297"/>
      <use xlink:href="#DejaVuSans-45" x="149.755859"/>
     </g>
    </g>
   </g>
   <g id="line2d_39">
    <path d="M 51.378125 50.699924 
L 52.092365 80.52456 
L 52.806605 88.091266 
L 53.520845 90.663175 
L 54.235085 91.559303 
L 54.949325 99.795996 
L 55.663565 101.672258 
L 56.377805 105.829918 
L 57.092045 108.355498 
L 57.806285 109.951385 
L 58.520525 119.489865 
L 59.234765 114.372918 
L 59.949005 101.162405 
L 60.663245 118.39476 
L 61.377485 125.858019 
L 62.091725 123.136669 
L 62.805965 112.420259 
L 63.520205 110.213267 
L 64.234445 126.746613 
L 64.948685 133.421678 
L 65.662925 120.340248 
L 66.377165 132.549749 
L 67.091405 137.777142 
L 67.805645 128.494735 
L 68.519885 136.129009 
L 69.234125 123.116144 
L 69.948365 130.958978 
L 70.662605 150.166275 
L 71.376845 129.771275 
L 72.091085 118.487287 
L 72.805325 134.1989 
L 73.519565 121.30222 
L 74.233805 137.006456 
L 74.948045 128.958451 
L 75.662285 135.974527 
L 76.376525 139.741447 
L 77.090765 139.837729 
L 77.805005 146.125254 
L 78.519245 156.412672 
L 79.233485 127.075634 
L 79.947725 119.006334 
L 80.661965 143.961179 
L 81.376205 148.226467 
L 82.090445 128.616105 
L 82.804685 142.148987 
L 83.518925 147.246588 
L 84.233165 158.78482 
L 84.947405 144.678353 
L 85.661645 140.276989 
L 86.375885 163.13481 
L 87.090125 169.332862 
L 87.804365 159.502435 
L 88.518605 145.759571 
L 89.232845 117.213495 
L 89.947085 147.826151 
L 90.661325 130.933346 
L 91.375565 135.269792 
L 92.089805 145.911303 
L 92.804045 162.519983 
L 93.518285 135.039758 
L 94.232525 130.547495 
L 94.946765 139.843205 
L 95.661005 121.54823 
L 96.375245 112.619864 
L 97.089485 127.588541 
L 97.803725 139.775941 
L 98.517965 160.852555 
L 99.232205 153.440867 
L 99.946445 144.419799 
L 100.660685 152.415771 
L 101.374925 152.027326 
L 102.089165 156.791537 
L 102.803405 149.672249 
L 103.517645 129.996357 
L 104.231885 134.064 
L 104.946125 144.706552 
L 105.660365 164.222952 
L 106.374605 169.553534 
L 107.088845 165.433751 
L 107.803085 162.546305 
L 109.231565 139.774799 
L 109.945805 146.264059 
L 111.374285 166.68777 
L 112.088525 134.172176 
L 112.802765 129.153042 
L 114.231245 156.321248 
L 114.945485 171.149025 
L 115.659725 150.929378 
L 116.373965 164.272409 
L 117.088205 134.090056 
L 117.802445 112.367468 
L 118.516685 144.366468 
L 119.230925 148.238143 
L 119.945165 128.553213 
L 120.659405 133.606388 
L 121.373645 143.199098 
L 122.087885 134.734742 
L 122.802125 156.695154 
L 123.516365 165.116754 
L 124.230605 146.427743 
L 124.944845 134.999014 
L 125.659085 147.121868 
L 126.373325 152.97771 
L 127.087565 168.021672 
L 127.801805 171.512102 
L 128.516045 153.76375 
L 129.230285 152.742988 
L 129.944525 153.682772 
L 130.658765 146.018314 
L 131.373005 130.661247 
L 132.087245 126.461772 
L 132.801485 131.385952 
L 133.515725 133.957917 
L 134.229965 154.785144 
L 134.944205 165.977918 
L 135.658445 143.437059 
L 136.372685 159.621137 
L 137.086925 172.645803 
L 137.801165 173.403177 
L 138.515405 172.422157 
L 139.229645 173.792226 
L 139.943885 169.539152 
L 140.658125 115.866514 
L 141.372365 117.291979 
L 142.086605 138.288082 
L 142.800845 145.698284 
L 143.515085 138.193787 
L 144.229325 140.26333 
L 145.657805 163.07341 
L 146.372045 168.22198 
L 147.086285 170.68595 
L 147.800525 138.03193 
L 148.514765 158.896354 
L 149.229005 159.12394 
L 149.943245 161.688092 
L 150.657485 160.967441 
L 151.371725 169.13117 
L 152.085965 153.655494 
L 152.800205 156.499114 
L 153.514445 141.321789 
L 154.228685 143.888343 
L 154.942925 168.491172 
L 155.657165 167.009881 
L 156.371405 158.008228 
L 157.085645 144.145657 
L 157.799885 143.597155 
L 158.514125 141.941319 
L 159.228365 163.44903 
L 159.942605 156.592491 
L 160.656845 166.235964 
L 161.371085 178.144931 
L 162.085325 164.899733 
L 162.799565 132.048404 
L 163.513805 138.812465 
L 164.228045 152.633246 
L 164.942285 164.056077 
L 165.656525 129.682187 
L 166.370765 124.410448 
L 167.085005 159.543846 
L 167.799245 150.261459 
L 168.513485 151.896915 
L 169.227725 174.278862 
L 169.941965 146.004291 
L 170.656205 149.755232 
L 171.370445 173.543149 
L 172.084685 173.389028 
L 172.798925 151.083277 
L 173.513165 136.162017 
L 174.227405 150.064567 
L 174.941645 132.265009 
L 175.655885 161.264534 
L 176.370125 164.023574 
L 177.084365 160.700994 
L 177.798605 118.28613 
L 178.512845 131.237511 
L 179.227085 154.462094 
L 180.655565 111.317253 
L 181.369805 140.991749 
L 182.084045 162.09418 
L 182.798285 152.792747 
L 183.512525 155.201304 
L 184.226765 172.696069 
L 184.941005 123.435725 
L 185.655245 129.372752 
L 186.369485 138.68694 
L 187.083725 158.934772 
L 187.797965 157.84204 
L 188.512205 169.58133 
L 189.226445 166.995883 
L 189.940685 160.452801 
L 190.654925 152.581049 
L 191.369165 146.569016 
L 192.083405 158.050699 
L 192.797645 115.337579 
L 193.511885 96.305285 
L 194.226125 112.924281 
L 195.654605 135.462505 
L 196.368845 136.810382 
L 197.083085 142.87812 
L 197.797325 157.732894 
L 198.511565 163.856806 
L 199.225805 148.517044 
L 199.940045 121.404526 
L 200.654285 153.571292 
L 201.368525 174.208301 
L 202.082765 126.069073 
L 202.797005 133.088503 
L 203.511245 152.495669 
L 204.225485 165.607101 
L 204.939725 159.325999 
L 205.653965 172.669818 
L 206.368205 171.626939 
L 207.082445 125.683543 
L 207.796685 96.627576 
L 208.510925 111.147717 
L 209.225165 121.004577 
L 209.939405 127.214787 
L 210.653645 140.586038 
L 211.367885 143.361926 
L 212.082125 147.171555 
L 212.796365 127.994909 
L 213.510605 102.597926 
L 215.653325 136.528657 
L 216.367565 141.583339 
L 217.081805 155.042843 
L 217.796045 141.500394 
L 219.224525 172.69898 
L 219.938765 164.868022 
L 220.653005 171.504169 
L 221.367245 136.028647 
L 222.081485 136.197153 
L 222.795725 149.572478 
L 223.509965 159.006445 
L 224.938445 117.958148 
L 225.652685 126.05699 
L 226.366925 140.96948 
L 227.081165 138.045641 
L 227.795405 132.558591 
L 228.509645 143.837818 
L 229.223885 151.186134 
L 229.938125 150.869762 
L 230.652365 169.627834 
L 231.366605 171.513382 
L 232.080845 133.297145 
L 232.795085 157.418139 
L 233.509325 176.411778 
L 234.223565 169.580707 
L 234.937805 160.497234 
L 235.652045 175.559128 
L 236.366285 154.185283 
L 237.080525 157.978313 
L 238.509005 125.047308 
L 239.223245 134.201983 
L 239.937485 158.932134 
L 240.651725 173.49888 
L 241.365965 180.648597 
L 242.080205 182.768094 
L 242.794445 147.687835 
L 243.508685 134.972286 
L 244.222925 165.626163 
L 244.937165 173.409778 
L 245.651405 151.245473 
L 246.365645 167.626758 
L 247.079885 155.9281 
L 247.794125 111.198413 
L 248.508365 110.261961 
L 249.936845 146.777644 
L 250.651085 168.399476 
L 251.365325 178.675185 
L 252.079565 180.585904 
L 252.793805 153.615267 
L 253.508045 151.515536 
L 254.222285 174.584398 
L 254.936525 145.429108 
L 255.650765 179.111635 
L 256.365005 121.16009 
L 257.079245 135.336277 
L 257.793485 119.131085 
L 258.507725 121.496477 
L 259.221965 126.505721 
L 259.936205 140.258613 
L 260.650445 139.721072 
L 261.364685 162.752004 
L 262.078925 156.631563 
L 262.793165 165.482194 
L 263.507405 171.136233 
L 264.221645 141.690599 
L 265.650125 179.853011 
L 266.364365 184.40365 
L 267.078605 164.88776 
L 267.792845 158.441162 
L 268.507085 150.271231 
L 269.221325 179.993727 
L 269.935565 117.183843 
L 270.649805 124.185668 
L 271.364045 148.718409 
L 272.078285 145.055162 
L 272.792525 139.568451 
L 273.506765 150.703727 
L 274.221005 172.068476 
L 274.935245 156.373191 
L 275.649485 115.363065 
L 276.363725 137.183315 
L 277.077965 140.176545 
L 277.792205 161.461014 
L 278.506445 176.047145 
L 279.220685 150.757909 
L 279.934925 154.413579 
L 280.649165 133.937782 
L 281.363405 130.913513 
L 282.077645 133.352833 
L 282.791885 140.287672 
L 284.220365 171.770819 
L 284.934605 157.111854 
L 285.648845 164.100381 
L 286.363085 158.665296 
L 287.077325 141.357883 
L 288.505805 180.291673 
L 289.220045 189.023251 
L 289.934285 182.056023 
L 290.648525 157.945862 
L 291.362765 144.401346 
L 292.077005 162.21356 
L 292.791245 148.912271 
L 293.505485 116.431797 
L 294.219725 135.156686 
L 294.933965 140.604439 
L 295.648205 111.536598 
L 296.362445 132.966373 
L 297.790925 161.957758 
L 298.505165 177.913104 
L 299.219405 178.267461 
L 299.933645 194.760135 
L 300.647885 202.044774 
L 301.362125 161.230446 
L 302.076365 154.736176 
L 302.790605 164.099288 
L 303.504845 177.495018 
L 304.219085 131.896081 
L 304.933325 146.981463 
L 305.647565 170.274729 
L 306.361805 181.972832 
L 307.076045 178.135928 
L 307.790285 148.36516 
L 308.504525 130.539748 
L 309.218765 139.582287 
L 309.933005 153.042363 
L 310.647245 152.198552 
L 311.361485 171.880154 
L 312.075725 167.708357 
L 312.789965 167.515977 
L 313.504205 120.194058 
L 314.218445 134.754748 
L 314.932685 143.233244 
L 315.646925 133.96104 
L 316.361165 150.935983 
L 317.075405 156.247413 
L 317.789645 153.083442 
L 318.503885 148.217952 
L 319.218125 126.378471 
L 319.932365 128.341103 
L 320.646605 149.242986 
L 322.075085 173.900248 
L 322.789325 183.36047 
L 323.503565 149.431896 
L 324.217805 138.883935 
L 324.932045 141.77523 
L 325.646285 152.392573 
L 326.360525 136.109086 
L 327.074765 132.930609 
L 327.789005 146.336886 
L 328.503245 164.655032 
L 329.217485 148.016167 
L 329.931725 160.09093 
L 330.645965 143.635337 
L 331.360205 162.859216 
L 332.074445 165.121664 
L 332.788685 169.825717 
L 333.502925 179.960718 
L 334.217165 153.708691 
L 334.931405 166.777457 
L 336.359885 185.394236 
L 337.074125 154.423418 
L 337.788365 135.026261 
L 338.502605 138.92771 
L 339.216845 162.472647 
L 339.931085 154.6141 
L 341.359565 172.215057 
L 342.073805 165.45247 
L 342.788045 161.097505 
L 343.502285 146.387866 
L 344.216525 158.434225 
L 344.930765 159.666977 
L 345.645005 146.382862 
L 346.359245 144.351347 
L 347.073485 156.670965 
L 347.787725 124.601689 
L 348.501965 142.916367 
L 349.216205 148.526549 
L 349.930445 145.547994 
L 350.644685 137.239859 
L 351.358925 138.999082 
L 352.073165 153.74757 
L 352.787405 171.102223 
L 354.215885 168.689935 
L 354.930125 176.524298 
L 355.644365 105.170838 
L 356.358605 91.555462 
L 357.072845 106.809032 
L 358.501325 128.787029 
L 359.215565 128.582743 
L 359.929805 129.105678 
L 360.644045 139.368917 
L 361.358285 136.50426 
L 362.072525 147.05904 
L 362.786765 139.789858 
L 363.501005 131.368409 
L 364.215245 151.941058 
L 364.929485 140.109513 
L 365.643725 130.90316 
L 367.072205 153.961661 
L 367.786445 155.486035 
L 368.500685 141.67849 
L 369.214925 141.854177 
L 369.929165 140.80046 
L 370.643405 157.179809 
L 371.357645 152.878867 
L 372.071885 153.796482 
L 372.786125 143.909359 
L 373.500365 131.697858 
L 374.928845 139.222097 
L 375.643085 148.616392 
L 376.357325 163.636044 
L 377.071565 129.325114 
L 377.785805 140.860603 
L 378.500045 139.18982 
L 379.928525 165.456429 
L 380.642765 162.729987 
L 381.357005 128.602848 
L 382.071245 154.415461 
L 382.785485 165.908871 
L 383.499725 146.276322 
L 384.213965 120.675249 
L 384.928205 142.98317 
L 385.642445 159.102827 
L 386.356685 164.883717 
L 387.070925 173.125982 
L 387.785165 177.846269 
L 388.499405 185.457498 
L 389.213645 187.75329 
L 389.927885 137.408804 
L 390.642125 145.490248 
L 391.356365 137.386481 
L 392.070605 172.413342 
L 392.784845 163.76574 
L 393.499085 132.439013 
L 394.213325 156.912872 
L 394.927565 104.667362 
L 395.641805 129.777513 
L 396.356045 147.918507 
L 397.070285 145.880209 
L 397.784525 159.904636 
L 398.498765 148.751585 
L 399.213005 159.46723 
L 399.927245 135.464642 
L 400.641485 137.12214 
L 401.355725 163.643271 
L 402.069965 160.861691 
L 402.784205 173.072674 
L 403.498445 159.956404 
L 404.212685 131.414391 
L 404.926925 136.757236 
L 406.355405 163.451909 
L 407.069645 166.411979 
L 407.783885 173.999353 
L 407.783885 173.999353 
" clip-path="url(#p50e80ce628)" style="fill: none; stroke: #1f77b4; stroke-linecap: square"/>
   </g>
   <g id="line2d_40">
    <path d="M 51.378125 46.290119 
L 52.092365 75.770293 
L 52.806605 83.801516 
L 53.520845 89.004471 
L 54.235085 91.694248 
L 54.949325 96.87644 
L 55.663565 99.396301 
L 57.092045 106.914597 
L 57.806285 109.568812 
L 58.520525 98.479716 
L 59.234765 109.231497 
L 59.949005 114.294001 
L 60.663245 111.269714 
L 61.377485 118.491025 
L 62.091725 120.945758 
L 62.805965 126.221473 
L 63.520205 127.118575 
L 64.234445 125.738592 
L 64.948685 121.814969 
L 65.662925 128.023658 
L 66.377165 131.178621 
L 67.091405 129.221222 
L 67.805645 139.503844 
L 68.519885 143.211279 
L 69.234125 142.815686 
L 69.948365 147.733116 
L 70.662605 140.180327 
L 71.376845 122.228396 
L 72.091085 108.461354 
L 72.805325 131.559612 
L 73.519565 140.647197 
L 74.233805 129.137936 
L 74.948045 127.278412 
L 75.662285 138.434862 
L 76.376525 128.177589 
L 77.090765 132.470628 
L 77.805005 130.557332 
L 78.519245 138.553641 
L 79.233485 151.867461 
L 79.947725 157.212298 
L 80.661965 152.827876 
L 81.376205 151.97951 
L 82.090445 159.119423 
L 82.804685 161.206179 
L 83.518925 155.698309 
L 84.233165 161.455059 
L 84.947405 155.481412 
L 85.661645 155.763006 
L 86.375885 144.159363 
L 87.090125 119.159341 
L 87.804365 132.327691 
L 88.518605 143.012481 
L 89.232845 139.318774 
L 89.947085 154.102688 
L 90.661325 166.227027 
L 91.375565 158.302426 
L 92.089805 143.529112 
L 92.804045 172.493076 
L 93.518285 170.164393 
L 94.232525 140.432963 
L 94.946765 145.682483 
L 95.661005 168.956464 
L 96.375245 162.028174 
L 97.089485 173.659976 
L 97.803725 179.966964 
L 98.517965 178.390581 
L 99.232205 185.935013 
L 99.946445 160.775059 
L 100.660685 173.024874 
L 101.374925 171.683355 
L 102.089165 166.407514 
L 102.803405 181.150744 
L 103.517645 178.857723 
L 104.231885 137.800513 
L 104.946125 157.219167 
L 105.660365 157.264483 
L 106.374605 175.399809 
L 107.088845 174.188571 
L 107.803085 181.337881 
L 108.517325 179.882953 
L 109.231565 170.479822 
L 109.945805 195.162644 
L 110.660045 142.761554 
L 111.374285 137.000385 
L 112.088525 174.404451 
L 112.802765 170.893424 
L 113.517005 166.510231 
L 114.231245 165.835586 
L 114.945485 132.033723 
L 115.659725 124.738163 
L 116.373965 142.728512 
L 117.088205 156.781021 
L 117.802445 157.011407 
L 119.230925 141.853774 
L 119.945165 148.600888 
L 120.659405 168.468818 
L 121.373645 171.323197 
L 122.087885 170.761725 
L 122.802125 121.359791 
L 123.516365 119.288001 
L 124.230605 131.110246 
L 124.944845 138.021319 
L 125.659085 149.270423 
L 126.373325 141.979933 
L 127.087565 143.945134 
L 127.801805 130.31957 
L 128.516045 128.341373 
L 129.230285 148.796155 
L 129.944525 147.261704 
L 130.658765 156.599121 
L 131.373005 148.800688 
L 132.087245 161.737953 
L 132.801485 147.778963 
L 133.515725 161.24533 
L 134.229965 166.53684 
L 134.944205 156.520866 
L 135.658445 154.888055 
L 136.372685 151.314771 
L 137.086925 169.706229 
L 137.801165 174.5342 
L 138.515405 171.596569 
L 139.229645 164.873352 
L 139.943885 162.596549 
L 140.658125 151.18644 
L 141.372365 155.78961 
L 142.086605 157.854604 
L 142.800845 161.084266 
L 143.515085 152.836248 
L 144.229325 174.068574 
L 144.943565 167.890999 
L 145.657805 186.983686 
L 146.372045 174.511955 
L 147.086285 179.669121 
L 147.800525 181.439577 
L 148.514765 166.730149 
L 149.229005 158.942215 
L 149.943245 171.15787 
L 150.657485 172.433682 
L 151.371725 141.805159 
L 152.085965 140.930892 
L 152.800205 155.762088 
L 153.514445 132.002916 
L 154.228685 126.497154 
L 154.942925 137.29283 
L 155.657165 151.628788 
L 156.371405 160.097199 
L 157.085645 162.426487 
L 157.799885 172.85231 
L 158.514125 164.969471 
L 159.228365 154.287745 
L 159.942605 167.845806 
L 160.656845 168.032949 
L 161.371085 159.988085 
L 162.085325 153.942369 
L 162.799565 175.057794 
L 163.513805 176.725438 
L 164.228045 186.125744 
L 164.942285 183.898088 
L 165.656525 173.542917 
L 166.370765 136.640157 
L 167.085005 165.390363 
L 167.799245 172.511532 
L 168.513485 182.015571 
L 169.227725 160.120433 
L 169.941965 157.69254 
L 170.656205 166.345241 
L 171.370445 167.429781 
L 172.084685 181.707164 
L 173.513165 124.864029 
L 174.227405 146.860449 
L 176.370125 193.440416 
L 177.084365 178.042345 
L 177.798605 168.807701 
L 178.512845 161.67462 
L 179.227085 183.736219 
L 179.941325 171.025484 
L 180.655565 183.56681 
L 181.369805 171.41876 
L 182.084045 152.038966 
L 182.798285 173.807985 
L 183.512525 190.930867 
L 184.226765 182.088453 
L 184.941005 171.002396 
L 185.655245 151.263935 
L 186.369485 141.535095 
L 187.083725 134.142611 
L 187.797965 142.334739 
L 189.226445 168.728662 
L 190.654925 172.597515 
L 191.369165 182.612455 
L 192.083405 161.083295 
L 192.797645 161.062414 
L 193.511885 192.944628 
L 194.226125 174.570801 
L 194.940365 164.808683 
L 195.654605 138.348512 
L 196.368845 127.666371 
L 197.797325 144.958234 
L 198.511565 160.924968 
L 199.225805 166.495814 
L 199.940045 145.567255 
L 201.368525 183.288693 
L 202.082765 184.391301 
L 202.797005 163.876418 
L 203.511245 173.371261 
L 204.225485 144.844356 
L 204.939725 191.467135 
L 205.653965 194.203234 
L 206.368205 163.92278 
L 207.082445 168.168362 
L 207.796685 169.119144 
L 208.510925 157.287265 
L 209.225165 185.194297 
L 209.939405 189.181406 
L 210.653645 190.321817 
L 211.367885 202.639596 
L 212.082125 207.288847 
L 212.796365 174.204011 
L 213.510605 169.246302 
L 214.224845 193.780104 
L 214.939085 184.202992 
L 215.653325 179.908098 
L 216.367565 151.31582 
L 217.081805 154.404239 
L 217.796045 164.596514 
L 218.510285 157.185886 
L 219.224525 160.629102 
L 219.938765 187.154217 
L 220.653005 187.059992 
L 221.367245 151.918155 
L 222.081485 160.099355 
L 223.509965 182.548437 
L 224.224205 157.332732 
L 224.938445 171.029912 
L 225.652685 192.324475 
L 226.366925 188.429516 
L 227.081165 195.383549 
L 227.795405 189.105991 
L 228.509645 166.375393 
L 229.223885 183.117847 
L 229.938125 189.100982 
L 230.652365 185.886447 
L 231.366605 204.016241 
L 232.080845 209.70782 
L 232.795085 208.3725 
L 233.509325 191.319227 
L 234.223565 210.280094 
L 234.937805 217.644373 
L 235.652045 138.726639 
L 236.366285 174.804109 
L 237.080525 167.214989 
L 237.794765 152.735004 
L 238.509005 169.728488 
L 239.223245 133.625898 
L 239.937485 137.867728 
L 240.651725 135.740345 
L 241.365965 155.515754 
L 242.080205 161.174087 
L 242.794445 142.588591 
L 243.508685 159.497291 
L 244.222925 180.675638 
L 245.651405 202.012326 
L 246.365645 186.826011 
L 247.079885 183.819849 
L 247.794125 203.402254 
L 248.508365 207.387891 
L 249.222605 199.553797 
L 249.936845 180.46911 
L 250.651085 198.119099 
L 251.365325 191.1475 
L 252.079565 168.030386 
L 252.793805 176.740194 
L 253.508045 181.143063 
L 254.222285 211.703762 
L 254.936525 177.225698 
L 255.650765 177.640812 
L 256.365005 126.161318 
L 257.079245 158.911303 
L 257.793485 168.174717 
L 258.507725 151.161567 
L 259.221965 172.818641 
L 259.936205 148.174025 
L 260.650445 140.64992 
L 261.364685 128.493585 
L 262.078925 142.336869 
L 262.793165 165.150319 
L 263.507405 173.410714 
L 264.221645 190.843665 
L 264.935885 193.985976 
L 265.650125 186.931654 
L 266.364365 192.88728 
L 267.078605 211.971359 
L 267.792845 185.510825 
L 268.507085 205.347681 
L 269.221325 203.948858 
L 269.935565 193.510885 
L 270.649805 207.96562 
L 271.364045 201.828384 
L 272.078285 208.390009 
L 273.506765 154.409647 
L 274.221005 111.176072 
L 274.935245 130.314527 
L 275.649485 154.493282 
L 276.363725 147.798477 
L 277.077965 120.632775 
L 277.792205 135.951099 
L 278.506445 156.989634 
L 279.220685 158.54089 
L 279.934925 178.475647 
L 280.649165 159.634226 
L 281.363405 167.816268 
L 282.077645 159.107948 
L 282.791885 170.223119 
L 283.506125 175.568099 
L 284.220365 194.966613 
L 284.934605 191.465668 
L 285.648845 198.029583 
L 286.363085 192.722526 
L 287.077325 183.948824 
L 287.791565 193.382275 
L 288.505805 205.748968 
L 289.220045 181.273109 
L 289.934285 193.999343 
L 290.648525 201.526136 
L 291.362765 190.703 
L 292.077005 163.568182 
L 292.791245 130.826194 
L 293.505485 127.100132 
L 294.219725 144.529201 
L 294.933965 166.409892 
L 295.648205 173.159608 
L 296.362445 196.542472 
L 297.076685 178.857569 
L 297.790925 130.29335 
L 298.505165 165.499212 
L 299.219405 180.259515 
L 299.933645 188.39614 
L 300.647885 160.516643 
L 301.362125 149.608871 
L 302.076365 179.384198 
L 302.790605 183.730348 
L 303.504845 168.402377 
L 304.219085 150.534028 
L 304.933325 172.13974 
L 305.647565 176.960189 
L 306.361805 161.42184 
L 307.076045 191.452444 
L 307.790285 172.705831 
L 308.504525 202.581975 
L 309.933005 188.583552 
L 310.647245 191.78011 
L 311.361485 152.484497 
L 312.075725 144.788524 
L 312.789965 148.259875 
L 313.504205 174.217544 
L 314.218445 195.394045 
L 314.932685 185.642131 
L 315.646925 190.699374 
L 316.361165 191.577236 
L 317.075405 190.300851 
L 317.789645 213.181061 
L 318.503885 158.681595 
L 319.218125 163.924397 
L 319.932365 156.935256 
L 320.646605 148.255129 
L 321.360845 170.196936 
L 322.075085 161.519413 
L 322.789325 187.157424 
L 323.503565 181.627108 
L 324.217805 196.559526 
L 324.932045 209.126778 
L 325.646285 205.437552 
L 326.360525 207.69397 
L 327.074765 174.398329 
L 327.789005 121.88951 
L 328.503245 150.534802 
L 329.217485 142.068046 
L 329.931725 146.711178 
L 330.645965 168.484358 
L 331.360205 174.232419 
L 332.074445 197.268436 
L 332.788685 145.641326 
L 334.217165 196.020466 
L 334.931405 202.563281 
L 335.645645 211.619519 
L 336.359885 214.253202 
L 337.074125 196.488402 
L 337.788365 157.031885 
L 338.502605 189.929845 
L 339.216845 174.440258 
L 339.931085 175.376801 
L 340.645325 198.689157 
L 341.359565 160.239216 
L 342.788045 174.896236 
L 343.502285 184.361504 
L 344.216525 186.310671 
L 344.930765 162.270723 
L 345.645005 142.300319 
L 346.359245 136.294777 
L 347.073485 156.239858 
L 347.787725 183.275855 
L 348.501965 201.219271 
L 349.216205 156.663147 
L 349.930445 157.316175 
L 350.644685 168.514902 
L 351.358925 166.888634 
L 352.787405 204.271905 
L 353.501645 171.572866 
L 354.215885 160.277766 
L 354.930125 141.197351 
L 355.644365 170.11498 
L 357.072845 209.359189 
L 357.787085 203.734496 
L 358.501325 135.128573 
L 359.215565 131.934187 
L 359.929805 140.546632 
L 361.358285 174.402158 
L 362.072525 187.876431 
L 362.786765 173.02283 
L 363.501005 167.768115 
L 364.215245 171.634337 
L 364.929485 183.038298 
L 365.643725 201.106566 
L 366.357965 207.000196 
L 367.072205 183.261733 
L 367.786445 173.147789 
L 368.500685 160.389897 
L 369.214925 166.087184 
L 369.929165 190.198188 
L 370.643405 209.852791 
L 372.071885 130.102695 
L 372.786125 112.316804 
L 373.500365 119.689299 
L 374.214605 147.691429 
L 374.928845 142.882139 
L 375.643085 146.099789 
L 376.357325 163.837177 
L 377.071565 176.990461 
L 377.785805 192.690964 
L 378.500045 193.415186 
L 379.214285 186.670015 
L 379.928525 182.241599 
L 380.642765 170.432693 
L 381.357005 177.31713 
L 382.071245 201.277349 
L 382.785485 189.199219 
L 384.213965 210.547855 
L 384.928205 207.987674 
L 385.642445 211.081819 
L 386.356685 203.452084 
L 387.070925 212.020907 
L 387.785165 186.740575 
L 388.499405 189.926382 
L 389.213645 189.275593 
L 389.927885 213.05931 
L 390.642125 206.065563 
L 391.356365 212.542775 
L 392.784845 167.314559 
L 393.499085 217.306255 
L 394.927565 137.368753 
L 395.641805 160.608397 
L 397.070285 186.545419 
L 397.784525 134.209209 
L 398.498765 146.546365 
L 399.213005 156.456016 
L 399.927245 125.940503 
L 400.641485 148.852422 
L 401.355725 165.099399 
L 402.069965 159.002458 
L 402.784205 189.072145 
L 403.498445 201.201782 
L 404.212685 205.69448 
L 404.926925 205.629952 
L 405.641165 194.364794 
L 406.355405 186.063328 
L 407.069645 148.925623 
L 407.783885 197.192348 
L 407.783885 197.192348 
" clip-path="url(#p50e80ce628)" style="fill: none; stroke: #ff7f0e; stroke-linecap: square"/>
   </g>
   <g id="line2d_41">
    <path d="M 51.378125 27.167595 
L 52.092365 50.39685 
L 52.806605 64.152504 
L 53.520845 75.198309 
L 54.235085 82.320412 
L 54.949325 85.71158 
L 56.377805 89.60441 
L 57.092045 91.011411 
L 57.806285 92.934443 
L 58.520525 94.47504 
L 59.234765 95.118725 
L 59.949005 96.348315 
L 60.663245 96.381745 
L 61.377485 98.559134 
L 62.091725 99.975174 
L 63.520205 104.087492 
L 64.234445 103.851083 
L 64.948685 105.947786 
L 65.662925 107.262092 
L 67.091405 108.61925 
L 67.805645 110.698612 
L 68.519885 111.464192 
L 69.234125 111.12616 
L 70.662605 114.957568 
L 71.376845 116.33264 
L 72.091085 117.321784 
L 72.805325 116.303767 
L 73.519565 117.99339 
L 74.233805 118.410798 
L 75.662285 121.960943 
L 76.376525 120.522817 
L 77.090765 123.272406 
L 77.805005 123.516145 
L 78.519245 126.58064 
L 79.233485 126.566749 
L 80.661965 125.728838 
L 81.376205 128.111244 
L 82.090445 127.079733 
L 83.518925 131.656437 
L 84.233165 131.733337 
L 84.947405 129.633551 
L 85.661645 128.835777 
L 86.375885 131.343807 
L 87.090125 128.611583 
L 87.804365 119.698277 
L 88.518605 123.813544 
L 89.232845 131.118873 
L 89.947085 136.534183 
L 90.661325 137.697228 
L 91.375565 137.489931 
L 92.089805 136.295831 
L 92.804045 133.128503 
L 93.518285 138.751614 
L 94.232525 140.182055 
L 94.946765 142.209821 
L 95.661005 143.382292 
L 96.375245 141.552438 
L 97.089485 141.143286 
L 97.803725 138.206612 
L 98.517965 140.362917 
L 99.232205 145.557249 
L 99.946445 139.588549 
L 100.660685 145.880524 
L 101.374925 146.621176 
L 102.089165 149.581633 
L 102.803405 147.318409 
L 103.517645 143.990188 
L 104.231885 142.145163 
L 104.946125 148.791975 
L 105.660365 137.712204 
L 106.374605 138.767314 
L 107.088845 148.191272 
L 108.517325 149.819413 
L 109.231565 139.750933 
L 109.945805 144.851747 
L 110.660045 146.5279 
L 111.374285 155.24763 
L 112.088525 153.333703 
L 112.802765 156.951361 
L 113.517005 152.677149 
L 114.231245 158.124607 
L 114.945485 156.020913 
L 115.659725 157.494259 
L 116.373965 153.203591 
L 117.088205 147.249469 
L 117.802445 150.109783 
L 118.516685 156.690574 
L 119.230925 158.267426 
L 119.945165 154.495399 
L 120.659405 151.949562 
L 121.373645 146.431128 
L 122.087885 160.975484 
L 122.802125 162.172114 
L 123.516365 153.042973 
L 124.230605 159.371458 
L 124.944845 158.158127 
L 125.659085 161.053329 
L 126.373325 162.612321 
L 127.087565 156.41574 
L 127.801805 164.376194 
L 128.516045 170.995681 
L 129.230285 163.933726 
L 129.944525 152.269816 
L 130.658765 166.038338 
L 131.373005 172.018965 
L 132.087245 172.92858 
L 132.801485 172.446442 
L 133.515725 172.625294 
L 134.229965 168.187539 
L 134.944205 165.339547 
L 135.658445 157.645653 
L 136.372685 171.210453 
L 137.086925 170.736858 
L 137.801165 164.781032 
L 138.515405 164.277972 
L 139.229645 167.992661 
L 139.943885 163.915415 
L 140.658125 164.215238 
L 141.372365 152.26686 
L 142.086605 151.04835 
L 142.800845 170.272767 
L 143.515085 171.645172 
L 144.229325 173.26904 
L 144.943565 173.391184 
L 145.657805 174.888109 
L 146.372045 164.072802 
L 147.086285 164.756331 
L 147.800525 177.522276 
L 148.514765 178.956711 
L 149.229005 175.934457 
L 149.943245 183.090588 
L 150.657485 184.932357 
L 151.371725 168.930177 
L 152.800205 156.847785 
L 153.514445 179.209307 
L 154.228685 167.140966 
L 154.942925 159.600402 
L 155.657165 176.589332 
L 156.371405 182.772813 
L 157.085645 173.460257 
L 157.799885 187.131128 
L 158.514125 182.195769 
L 159.228365 173.309073 
L 159.942605 184.032235 
L 160.656845 175.953834 
L 161.371085 185.731452 
L 162.085325 184.463713 
L 162.799565 186.311865 
L 164.228045 194.368553 
L 164.942285 178.799683 
L 165.656525 180.492887 
L 166.370765 184.318772 
L 167.085005 192.519776 
L 167.799245 191.189603 
L 168.513485 167.493227 
L 169.227725 158.2041 
L 169.941965 152.374052 
L 170.656205 182.717793 
L 171.370445 181.740234 
L 172.084685 176.492362 
L 172.798925 174.859351 
L 173.513165 177.893568 
L 174.227405 182.608019 
L 174.941645 181.673733 
L 175.655885 192.099227 
L 176.370125 188.750161 
L 177.798605 199.894592 
L 178.512845 177.466139 
L 179.227085 194.752941 
L 179.941325 186.971289 
L 180.655565 192.273823 
L 181.369805 195.032197 
L 182.084045 190.94109 
L 182.798285 176.19135 
L 183.512525 168.725798 
L 184.226765 175.432919 
L 184.941005 186.827913 
L 185.655245 202.94479 
L 186.369485 202.115561 
L 187.083725 186.262368 
L 187.797965 197.157946 
L 188.512205 189.013808 
L 189.226445 177.532089 
L 190.654925 191.039785 
L 191.369165 203.047348 
L 192.083405 194.770822 
L 192.797645 194.503285 
L 193.511885 180.226932 
L 194.226125 187.597048 
L 194.940365 179.385784 
L 195.654605 206.119047 
L 196.368845 208.633743 
L 197.083085 181.311458 
L 197.797325 189.741423 
L 198.511565 191.374601 
L 199.225805 183.238365 
L 199.940045 189.924508 
L 200.654285 190.776161 
L 201.368525 210.506553 
L 202.082765 210.774175 
L 202.797005 197.26024 
L 203.511245 195.00835 
L 204.225485 197.144646 
L 204.939725 177.951929 
L 205.653965 184.813476 
L 206.368205 214.445828 
L 207.082445 206.719251 
L 207.796685 210.291594 
L 208.510925 216.19267 
L 209.225165 211.248527 
L 209.939405 213.486626 
L 210.653645 214.510895 
L 211.367885 207.797901 
L 212.082125 216.735276 
L 212.796365 218.483068 
L 213.510605 200.373494 
L 214.224845 212.522299 
L 214.939085 202.353836 
L 215.653325 208.51146 
L 216.367565 201.492267 
L 217.081805 186.719569 
L 217.796045 146.880772 
L 218.510285 155.231418 
L 219.938765 205.112388 
L 220.653005 208.126566 
L 221.367245 201.816732 
L 222.081485 216.74402 
L 222.795725 207.317132 
L 223.509965 201.432312 
L 224.224205 207.507466 
L 224.938445 216.745491 
L 225.652685 211.514302 
L 226.366925 209.925307 
L 227.081165 218.232816 
L 227.795405 223.737549 
L 228.509645 215.750771 
L 229.223885 192.765604 
L 229.938125 214.079843 
L 230.652365 189.36122 
L 231.366605 175.694892 
L 232.080845 177.291598 
L 232.795085 164.501067 
L 233.509325 162.935292 
L 234.223565 194.473011 
L 234.937805 205.179511 
L 235.652045 205.479101 
L 236.366285 224.007849 
L 237.080525 218.194621 
L 237.794765 220.71101 
L 239.223245 204.908307 
L 239.937485 202.221486 
L 240.651725 196.172158 
L 241.365965 213.861015 
L 242.080205 218.102767 
L 242.794445 218.83411 
L 243.508685 201.568647 
L 244.222925 187.129476 
L 244.937165 211.672514 
L 245.651405 202.493441 
L 246.365645 224.981643 
L 247.079885 213.397007 
L 247.794125 212.541278 
L 248.508365 222.803179 
L 249.222605 227.070707 
L 249.936845 199.940462 
L 250.651085 199.997066 
L 251.365325 203.083101 
L 252.079565 182.239149 
L 252.793805 167.890318 
L 253.508045 173.979448 
L 254.222285 184.464152 
L 254.936525 216.562412 
L 255.650765 207.755402 
L 256.365005 183.442223 
L 257.793485 217.305972 
L 258.507725 216.377991 
L 259.221965 224.108519 
L 259.936205 225.669011 
L 260.650445 217.07215 
L 261.364685 229.355342 
L 262.078925 226.662707 
L 262.793165 205.206581 
L 263.507405 202.337842 
L 264.221645 217.671321 
L 264.935885 202.434045 
L 265.650125 216.373878 
L 266.364365 224.007309 
L 267.078605 201.720328 
L 267.792845 227.736418 
L 268.507085 199.939087 
L 269.221325 205.01477 
L 269.935565 213.409882 
L 270.649805 226.080095 
L 271.364045 232.952044 
L 272.078285 229.414074 
L 272.792525 230.399444 
L 273.506765 223.388979 
L 274.221005 180.377764 
L 274.935245 223.570942 
L 275.649485 237.544594 
L 276.363725 226.760472 
L 277.077965 227.392799 
L 277.792205 183.427184 
L 278.506445 224.501275 
L 279.220685 218.775992 
L 279.934925 209.307032 
L 280.649165 230.481887 
L 281.363405 192.175873 
L 282.077645 203.163654 
L 282.791885 219.254382 
L 283.506125 239.698399 
L 284.220365 210.573777 
L 284.934605 229.925014 
L 285.648845 228.761105 
L 286.363085 199.019518 
L 287.077325 214.724004 
L 287.791565 224.45233 
L 288.505805 220.421546 
L 289.934285 243.375755 
L 290.648525 246.531343 
L 291.362765 191.678007 
L 292.077005 189.719235 
L 292.791245 233.03424 
L 293.505485 215.024142 
L 294.219725 201.9115 
L 294.933965 218.929276 
L 295.648205 214.521262 
L 296.362445 225.848528 
L 297.076685 240.340627 
L 297.790925 202.114203 
L 299.219405 239.308122 
L 299.933645 212.198136 
L 300.647885 239.233907 
L 301.362125 246.480162 
L 302.076365 229.566118 
L 302.790605 249.706989 
L 303.504845 199.173877 
L 304.219085 211.925913 
L 304.933325 242.442263 
L 305.647565 247.857376 
L 306.361805 209.318161 
L 307.076045 245.88158 
L 307.790285 247.140416 
L 308.504525 253.217276 
L 309.218765 252.26317 
L 310.647245 192.286057 
L 311.361485 198.357524 
L 312.075725 192.874495 
L 312.789965 204.226078 
L 313.504205 230.201662 
L 314.218445 236.66244 
L 314.932685 227.406347 
L 315.646925 201.366488 
L 316.361165 232.581349 
L 317.075405 246.585272 
L 317.789645 231.056671 
L 318.503885 241.104591 
L 319.218125 243.661074 
L 319.932365 228.990945 
L 320.646605 220.881674 
L 321.360845 232.61819 
L 322.075085 235.235105 
L 322.789325 220.498185 
L 323.503565 241.822274 
L 324.217805 223.129377 
L 324.932045 227.027677 
L 325.646285 229.613028 
L 326.360525 257.5269 
L 327.074765 216.652772 
L 327.789005 199.787726 
L 329.217485 235.342839 
L 329.931725 237.936737 
L 330.645965 239.019271 
L 331.360205 227.038237 
L 332.074445 250.492537 
L 332.788685 222.632602 
L 333.502925 165.355033 
L 334.217165 161.229659 
L 334.931405 212.662849 
L 335.645645 254.097414 
L 336.359885 239.789088 
L 337.074125 205.147092 
L 337.788365 202.240193 
L 338.502605 234.430264 
L 339.216845 236.162999 
L 339.931085 243.677822 
L 341.359565 168.210638 
L 342.073805 160.079358 
L 342.788045 180.582412 
L 343.502285 211.097804 
L 344.216525 222.108311 
L 344.930765 243.932021 
L 345.645005 250.383898 
L 346.359245 230.600529 
L 347.073485 216.5708 
L 347.787725 240.766149 
L 348.501965 255.470782 
L 349.216205 251.912598 
L 349.930445 254.935399 
L 350.644685 208.351738 
L 351.358925 209.777318 
L 352.073165 222.249031 
L 352.787405 250.591545 
L 353.501645 235.773892 
L 354.215885 244.914919 
L 354.930125 216.919856 
L 355.644365 211.55718 
L 356.358605 215.021525 
L 357.072845 235.20683 
L 358.501325 260.656274 
L 359.215565 246.012294 
L 360.644045 146.528283 
L 362.072525 208.986322 
L 362.786765 197.070012 
L 363.501005 180.558646 
L 364.215245 197.090111 
L 364.929485 191.636514 
L 366.357965 210.347827 
L 367.072205 208.238136 
L 367.786445 214.127272 
L 368.500685 190.322182 
L 369.214925 209.567459 
L 369.929165 203.229328 
L 371.357645 152.320718 
L 372.071885 170.88391 
L 372.786125 205.457683 
L 373.500365 189.75378 
L 374.214605 200.734156 
L 374.928845 200.442736 
L 375.643085 184.819573 
L 376.357325 194.144061 
L 377.071565 217.892108 
L 377.785805 197.55381 
L 378.500045 221.737203 
L 379.214285 236.736641 
L 379.928525 232.40449 
L 380.642765 222.002805 
L 381.357005 220.64729 
L 382.071245 233.335399 
L 382.785485 239.156128 
L 383.499725 208.983995 
L 384.213965 199.856135 
L 384.928205 196.250296 
L 385.642445 223.066333 
L 386.356685 221.84497 
L 387.070925 206.923457 
L 387.785165 216.640715 
L 388.499405 215.378514 
L 389.213645 192.192479 
L 389.927885 207.089207 
L 390.642125 230.779767 
L 391.356365 239.78157 
L 392.070605 213.510535 
L 392.784845 233.840725 
L 393.499085 202.663246 
L 394.213325 165.508797 
L 394.927565 186.250257 
L 395.641805 226.63007 
L 396.356045 233.872046 
L 397.070285 236.806259 
L 397.784525 203.320943 
L 398.498765 213.819222 
L 399.213005 228.590179 
L 399.927245 240.23792 
L 401.355725 229.49699 
L 402.069965 213.816091 
L 402.784205 202.756981 
L 403.498445 220.840467 
L 404.212685 207.198068 
L 404.926925 172.911863 
L 405.641165 169.553085 
L 406.355405 172.353672 
L 407.069645 161.66376 
L 407.783885 171.525724 
L 407.783885 171.525724 
" clip-path="url(#p50e80ce628)" style="fill: none; stroke: #2ca02c; stroke-linecap: square"/>
   </g>
   <g id="line2d_42">
    <path d="M 51.378125 23.387359 
L 52.092365 34.570854 
L 53.520845 61.363223 
L 54.949325 75.15473 
L 55.663565 80.599042 
L 56.377805 83.812665 
L 57.092045 85.57748 
L 58.520525 88.005852 
L 59.234765 89.840143 
L 61.377485 93.139361 
L 62.091725 93.391246 
L 62.805965 95.188656 
L 64.234445 97.049384 
L 65.662925 97.760071 
L 66.377165 98.077672 
L 67.091405 100.131967 
L 67.805645 101.245062 
L 68.519885 101.326142 
L 69.234125 102.117193 
L 69.948365 103.610826 
L 70.662605 103.9708 
L 71.376845 104.900135 
L 72.091085 105.278914 
L 72.805325 106.92185 
L 73.519565 106.959016 
L 74.948045 109.134221 
L 75.662285 108.567996 
L 76.376525 109.873057 
L 77.090765 109.948558 
L 77.805005 111.282361 
L 78.519245 112.24121 
L 79.233485 113.601463 
L 79.947725 113.259706 
L 80.661965 113.513684 
L 81.376205 113.914259 
L 82.090445 115.491706 
L 82.804685 115.859151 
L 83.518925 114.808249 
L 84.233165 117.542956 
L 84.947405 118.186886 
L 85.661645 116.937152 
L 86.375885 119.275874 
L 87.090125 119.656119 
L 87.804365 120.650535 
L 88.518605 119.227042 
L 89.232845 120.786163 
L 89.947085 121.400586 
L 90.661325 121.625686 
L 91.375565 119.858294 
L 92.089805 124.088314 
L 92.804045 122.9452 
L 93.518285 122.279071 
L 94.232525 125.652465 
L 94.946765 126.497373 
L 95.661005 126.5561 
L 96.375245 127.399103 
L 97.089485 127.208834 
L 97.803725 126.370919 
L 98.517965 126.690257 
L 99.232205 128.188121 
L 99.946445 127.958134 
L 100.660685 129.524114 
L 101.374925 131.459016 
L 102.089165 130.742529 
L 102.803405 131.683027 
L 103.517645 132.162026 
L 104.231885 130.347118 
L 104.946125 131.84488 
L 105.660365 128.96271 
L 107.088845 134.119751 
L 108.517325 133.294119 
L 109.231565 133.698555 
L 109.945805 135.673489 
L 110.660045 136.607665 
L 111.374285 138.136277 
L 112.088525 138.147904 
L 112.802765 137.791754 
L 113.517005 135.976365 
L 114.231245 137.281305 
L 114.945485 136.636097 
L 115.659725 139.12952 
L 116.373965 139.193794 
L 117.088205 140.708192 
L 117.802445 136.715124 
L 118.516685 140.611106 
L 119.230925 141.057909 
L 119.945165 141.966271 
L 120.659405 143.824863 
L 121.373645 144.511551 
L 122.087885 144.303206 
L 122.802125 144.266295 
L 123.516365 145.033184 
L 124.230605 144.643671 
L 124.944845 145.522266 
L 125.659085 144.851411 
L 126.373325 143.992003 
L 127.087565 147.891674 
L 127.801805 145.19211 
L 128.516045 146.991918 
L 129.230285 145.794308 
L 129.944525 148.644977 
L 130.658765 143.011497 
L 131.373005 144.209831 
L 132.087245 150.166692 
L 132.801485 151.162722 
L 133.515725 151.564442 
L 134.229965 150.672672 
L 134.944205 151.989897 
L 135.658445 151.785498 
L 137.086925 146.703074 
L 137.801165 151.107111 
L 138.515405 152.369035 
L 139.229645 149.381968 
L 139.943885 153.650704 
L 140.658125 154.121744 
L 141.372365 156.189232 
L 142.086605 154.391687 
L 142.800845 154.514023 
L 143.515085 153.006205 
L 144.229325 155.240244 
L 144.943565 154.028684 
L 145.657805 157.396311 
L 147.086285 154.361732 
L 147.800525 157.651722 
L 148.514765 157.771181 
L 149.229005 151.155887 
L 149.943245 153.908216 
L 150.657485 159.990186 
L 151.371725 161.964175 
L 152.085965 157.010175 
L 152.800205 162.878158 
L 153.514445 160.572208 
L 154.228685 162.492062 
L 154.942925 163.328287 
L 155.657165 164.37067 
L 156.371405 161.514178 
L 157.085645 156.729242 
L 157.799885 165.709825 
L 158.514125 165.660837 
L 159.228365 165.305689 
L 159.942605 161.826281 
L 160.656845 163.961792 
L 161.371085 163.656194 
L 162.085325 160.83212 
L 162.799565 164.795252 
L 163.513805 156.177789 
L 164.228045 161.940372 
L 164.942285 166.312856 
L 165.656525 169.028737 
L 166.370765 168.685358 
L 167.085005 165.542413 
L 167.799245 165.795034 
L 168.513485 169.112118 
L 169.227725 166.534104 
L 169.941965 167.723602 
L 170.656205 170.690522 
L 171.370445 166.284413 
L 172.084685 169.813914 
L 172.798925 171.257802 
L 173.513165 165.524543 
L 174.227405 173.568135 
L 174.941645 173.828709 
L 175.655885 175.800952 
L 176.370125 173.972361 
L 177.084365 168.229659 
L 177.798605 175.505869 
L 178.512845 172.852389 
L 179.227085 174.275535 
L 179.941325 177.028563 
L 180.655565 164.268265 
L 181.369805 167.373883 
L 182.084045 177.188005 
L 182.798285 160.595434 
L 183.512525 170.066087 
L 184.226765 176.23928 
L 184.941005 173.826544 
L 185.655245 177.55875 
L 186.369485 182.931081 
L 187.083725 180.961644 
L 187.797965 179.340744 
L 188.512205 178.973769 
L 189.226445 180.913269 
L 189.940685 167.481831 
L 190.654925 181.735025 
L 191.369165 181.849706 
L 192.083405 178.362805 
L 192.797645 171.178661 
L 193.511885 177.519799 
L 194.226125 180.095079 
L 194.940365 183.395737 
L 195.654605 184.29492 
L 196.368845 183.535901 
L 197.083085 184.118338 
L 197.797325 183.531583 
L 198.511565 184.537667 
L 199.225805 182.964645 
L 199.940045 186.767656 
L 200.654285 188.01775 
L 201.368525 181.470425 
L 202.082765 172.563162 
L 202.797005 171.288195 
L 203.511245 170.528559 
L 204.225485 170.865775 
L 204.939725 183.043207 
L 205.653965 192.195037 
L 206.368205 184.904938 
L 207.082445 179.617983 
L 207.796685 171.800277 
L 208.510925 186.329359 
L 209.225165 186.283412 
L 209.939405 190.238247 
L 210.653645 187.376028 
L 211.367885 175.258135 
L 212.796365 187.246832 
L 213.510605 191.265883 
L 214.224845 188.094577 
L 214.939085 188.840469 
L 215.653325 184.697218 
L 216.367565 188.461267 
L 217.081805 183.067628 
L 217.796045 193.783749 
L 218.510285 193.842203 
L 219.224525 188.549972 
L 219.938765 190.704244 
L 220.653005 187.931166 
L 221.367245 192.53561 
L 222.081485 193.682042 
L 222.795725 192.390636 
L 223.509965 191.367583 
L 224.224205 194.946356 
L 224.938445 189.673717 
L 225.652685 195.882234 
L 226.366925 193.460186 
L 227.081165 198.543007 
L 227.795405 196.462764 
L 228.509645 198.578834 
L 229.223885 193.464755 
L 229.938125 190.285943 
L 230.652365 203.288004 
L 231.366605 181.100817 
L 232.080845 183.360262 
L 232.795085 198.452717 
L 233.509325 196.877839 
L 234.223565 191.740143 
L 234.937805 184.906156 
L 235.652045 197.345781 
L 236.366285 200.207424 
L 237.080525 188.731993 
L 237.794765 199.7138 
L 238.509005 198.538342 
L 239.223245 191.417396 
L 239.937485 201.381284 
L 240.651725 204.005759 
L 241.365965 200.911334 
L 242.080205 183.844084 
L 242.794445 199.36976 
L 243.508685 204.161532 
L 244.222925 201.451633 
L 244.937165 193.362575 
L 245.651405 187.050505 
L 246.365645 185.746292 
L 247.079885 198.455729 
L 247.794125 205.78396 
L 248.508365 208.001232 
L 249.222605 201.377045 
L 249.936845 196.248963 
L 250.651085 198.343074 
L 251.365325 204.636353 
L 252.079565 208.11186 
L 252.793805 206.922018 
L 253.508045 199.545016 
L 254.222285 203.913278 
L 254.936525 195.067982 
L 255.650765 198.588303 
L 256.365005 209.515186 
L 257.079245 199.324852 
L 257.793485 201.076928 
L 258.507725 198.589795 
L 259.221965 212.858512 
L 259.936205 207.651664 
L 260.650445 194.67692 
L 261.364685 208.624278 
L 262.078925 211.563312 
L 262.793165 212.801618 
L 263.507405 206.450216 
L 264.935885 211.565662 
L 265.650125 208.817813 
L 266.364365 215.510594 
L 267.078605 201.803212 
L 267.792845 210.773122 
L 268.507085 204.726338 
L 269.221325 202.248191 
L 269.935565 206.546631 
L 270.649805 217.671822 
L 271.364045 211.573832 
L 272.078285 210.42806 
L 272.792525 205.477302 
L 273.506765 204.021105 
L 274.221005 200.171427 
L 274.935245 218.144384 
L 275.649485 201.485839 
L 276.363725 193.509805 
L 277.077965 202.900369 
L 277.792205 205.819344 
L 278.506445 212.509788 
L 279.220685 213.145275 
L 279.934925 207.700514 
L 280.649165 211.781984 
L 281.363405 201.291056 
L 282.077645 192.850046 
L 282.791885 202.869445 
L 283.506125 197.398632 
L 284.220365 200.15342 
L 284.934605 206.464984 
L 285.648845 208.77992 
L 287.077325 218.3512 
L 287.791565 219.597623 
L 288.505805 213.826893 
L 289.220045 221.236851 
L 289.934285 216.975731 
L 290.648525 208.108105 
L 291.362765 195.216017 
L 292.077005 210.715467 
L 292.791245 220.656026 
L 293.505485 225.029523 
L 294.219725 222.712925 
L 294.933965 218.957217 
L 295.648205 212.706118 
L 296.362445 204.51849 
L 297.076685 205.262107 
L 297.790925 188.81567 
L 298.505165 195.526305 
L 299.219405 192.217262 
L 299.933645 192.79175 
L 300.647885 205.61545 
L 301.362125 206.141367 
L 302.076365 200.625856 
L 302.790605 224.947496 
L 303.504845 224.925376 
L 304.219085 226.3041 
L 304.933325 209.457104 
L 305.647565 220.644794 
L 306.361805 223.889068 
L 307.076045 212.345286 
L 307.790285 220.167288 
L 308.504525 232.866804 
L 309.218765 225.012168 
L 309.933005 233.234327 
L 310.647245 219.011904 
L 311.361485 230.857738 
L 312.075725 220.50099 
L 312.789965 223.254851 
L 313.504205 219.325415 
L 314.218445 225.326673 
L 314.932685 221.278958 
L 315.646925 226.492612 
L 316.361165 226.936364 
L 317.075405 226.912036 
L 317.789645 228.675101 
L 318.503885 236.448414 
L 319.218125 234.585648 
L 319.932365 224.730544 
L 320.646605 209.669315 
L 321.360845 210.79382 
L 322.075085 215.109562 
L 322.789325 228.266209 
L 323.503565 233.376022 
L 324.217805 216.244799 
L 324.932045 203.95985 
L 325.646285 220.584031 
L 326.360525 226.911826 
L 327.074765 224.240134 
L 327.789005 235.204766 
L 328.503245 227.702125 
L 329.217485 197.088182 
L 329.931725 221.125855 
L 330.645965 223.963465 
L 331.360205 228.062529 
L 332.074445 204.791575 
L 332.788685 202.373317 
L 333.502925 232.57091 
L 334.217165 233.853574 
L 334.931405 227.847669 
L 335.645645 224.373678 
L 336.359885 241.092253 
L 337.074125 232.962226 
L 337.788365 211.414172 
L 338.502605 229.669624 
L 339.216845 218.182484 
L 339.931085 215.412843 
L 340.645325 207.565824 
L 341.359565 223.306751 
L 342.073805 228.6014 
L 342.788045 208.250494 
L 343.502285 237.311581 
L 344.216525 236.89244 
L 344.930765 242.887219 
L 345.645005 244.120117 
L 346.359245 234.362775 
L 347.073485 230.638615 
L 347.787725 230.767348 
L 348.501965 233.900634 
L 349.930445 181.347633 
L 350.644685 215.693021 
L 351.358925 180.673706 
L 352.073165 209.348149 
L 352.787405 210.291306 
L 353.501645 232.562303 
L 354.215885 234.945798 
L 354.930125 213.826652 
L 355.644365 220.253865 
L 356.358605 207.045492 
L 357.072845 196.452026 
L 357.787085 211.705383 
L 358.501325 234.890232 
L 359.215565 244.732566 
L 360.644045 219.336635 
L 361.358285 229.727547 
L 362.072525 233.889213 
L 362.786765 229.200886 
L 363.501005 245.934866 
L 364.215245 249.50074 
L 364.929485 227.71426 
L 365.643725 230.158764 
L 366.357965 237.601305 
L 367.072205 248.830075 
L 367.786445 248.230139 
L 368.500685 229.311508 
L 369.214925 234.568782 
L 369.929165 244.597572 
L 370.643405 239.391076 
L 371.357645 240.332416 
L 372.071885 237.960622 
L 372.786125 244.331369 
L 373.500365 239.168822 
L 374.214605 222.512873 
L 374.928845 209.162658 
L 375.643085 212.844634 
L 376.357325 220.345592 
L 377.071565 237.674454 
L 377.785805 242.77223 
L 378.500045 221.226997 
L 379.214285 210.526236 
L 379.928525 204.275051 
L 380.642765 196.790232 
L 381.357005 199.579186 
L 382.785485 244.150001 
L 383.499725 250.195685 
L 384.213965 243.373347 
L 384.928205 252.181494 
L 385.642445 234.195242 
L 386.356685 244.389358 
L 387.070925 249.687892 
L 387.785165 258.407658 
L 388.499405 246.002495 
L 389.213645 222.597651 
L 389.927885 214.754253 
L 390.642125 218.97443 
L 391.356365 232.437937 
L 392.070605 234.651876 
L 392.784845 253.592654 
L 393.499085 257.291135 
L 394.213325 246.52843 
L 394.927565 240.727846 
L 395.641805 219.560371 
L 396.356045 224.512156 
L 397.070285 213.26608 
L 397.784525 187.69055 
L 398.498765 192.994872 
L 399.927245 236.447035 
L 400.641485 225.777934 
L 401.355725 243.198804 
L 402.069965 245.590555 
L 402.784205 252.162014 
L 403.498445 251.100668 
L 404.212685 257.135096 
L 404.926925 256.754286 
L 405.641165 249.888937 
L 406.355405 250.003668 
L 407.069645 256.789839 
L 407.783885 261.216 
L 407.783885 261.216 
" clip-path="url(#p50e80ce628)" style="fill: none; stroke: #d62728; stroke-linecap: square"/>
   </g>
   <g id="line2d_43">
    <path d="M 51.378125 19.296 
L 54.949325 30.874539 
L 55.663565 33.626573 
L 57.806285 44.355287 
L 59.234765 52.429135 
L 60.663245 59.402691 
L 61.377485 62.033204 
L 62.091725 64.136251 
L 62.805965 66.685184 
L 63.520205 68.095998 
L 64.948685 71.628275 
L 65.662925 72.888853 
L 66.377165 74.445507 
L 68.519885 78.395096 
L 69.948365 80.059733 
L 70.662605 81.241727 
L 71.376845 82.181659 
L 72.805325 83.013077 
L 73.519565 83.487778 
L 74.948045 84.845797 
L 76.376525 85.161392 
L 77.090765 86.100915 
L 77.805005 86.128047 
L 78.519245 87.05283 
L 79.233485 87.262368 
L 79.947725 87.592826 
L 80.661965 87.555101 
L 81.376205 88.352405 
L 82.090445 88.140139 
L 83.518925 89.021391 
L 84.233165 89.620704 
L 84.947405 89.38938 
L 85.661645 90.016626 
L 86.375885 89.965826 
L 87.090125 90.250502 
L 87.804365 90.716322 
L 89.232845 91.312945 
L 89.947085 91.668481 
L 90.661325 91.669573 
L 91.375565 91.863004 
L 92.089805 92.594162 
L 92.804045 92.319611 
L 93.518285 92.826698 
L 94.232525 93.188999 
L 94.946765 93.182913 
L 95.661005 93.709542 
L 97.803725 94.617712 
L 98.517965 94.453957 
L 99.232205 95.007212 
L 99.946445 95.044541 
L 100.660685 95.548449 
L 101.374925 95.828877 
L 102.089165 95.735939 
L 102.803405 95.836705 
L 103.517645 96.441294 
L 104.231885 96.791085 
L 104.946125 97.326272 
L 105.660365 97.028669 
L 107.803085 97.560982 
L 108.517325 97.958296 
L 109.231565 97.720595 
L 109.945805 98.315747 
L 110.660045 97.999966 
L 111.374285 98.342592 
L 112.088525 99.256393 
L 112.802765 99.440427 
L 113.517005 99.24717 
L 114.231245 99.889174 
L 114.945485 99.527339 
L 115.659725 100.172613 
L 116.373965 100.443805 
L 117.088205 100.263064 
L 118.516685 100.391733 
L 119.230925 101.153929 
L 119.945165 101.626015 
L 120.659405 101.643451 
L 121.373645 101.352398 
L 122.087885 101.275491 
L 122.802125 102.255231 
L 123.516365 102.260374 
L 124.230605 102.515056 
L 124.944845 102.214127 
L 125.659085 102.917232 
L 127.087565 103.067293 
L 128.516045 103.187196 
L 129.230285 103.872416 
L 129.944525 103.929155 
L 130.658765 104.453262 
L 131.373005 104.638599 
L 132.801485 104.695075 
L 133.515725 104.724143 
L 134.944205 105.620628 
L 135.658445 105.520047 
L 136.372685 104.852202 
L 137.086925 105.300055 
L 137.801165 106.363246 
L 138.515405 106.157094 
L 139.943885 107.09934 
L 140.658125 107.204469 
L 141.372365 107.014027 
L 142.086605 107.166269 
L 142.800845 108.022317 
L 143.515085 108.393164 
L 144.229325 108.621667 
L 144.943565 108.421709 
L 145.657805 107.55177 
L 146.372045 108.630495 
L 147.800525 109.534273 
L 148.514765 108.849917 
L 149.229005 109.773268 
L 149.943245 109.206579 
L 150.657485 109.855999 
L 152.085965 110.300769 
L 152.800205 110.141929 
L 153.514445 111.157973 
L 154.228685 111.042554 
L 154.942925 111.23012 
L 155.657165 110.981934 
L 156.371405 111.50951 
L 157.085645 111.571829 
L 157.799885 111.989253 
L 158.514125 111.955444 
L 159.228365 112.198335 
L 159.942605 112.854985 
L 160.656845 112.842659 
L 161.371085 113.048887 
L 162.085325 112.703993 
L 163.513805 113.504916 
L 164.228045 113.807901 
L 164.942285 113.20404 
L 165.656525 113.835031 
L 166.370765 114.176796 
L 167.085005 114.270141 
L 167.799245 114.612848 
L 169.227725 114.796784 
L 169.941965 115.397139 
L 171.370445 114.713015 
L 172.084685 115.980155 
L 172.798925 115.868298 
L 173.513165 115.98388 
L 174.227405 115.303792 
L 174.941645 115.765798 
L 175.655885 116.484799 
L 176.370125 116.681753 
L 177.084365 116.753877 
L 178.512845 117.183369 
L 179.227085 117.05934 
L 179.941325 117.667218 
L 180.655565 117.695849 
L 181.369805 117.838215 
L 182.084045 118.416182 
L 182.798285 118.057607 
L 183.512525 118.614088 
L 184.226765 118.844879 
L 184.941005 118.096117 
L 185.655245 118.290073 
L 186.369485 118.236069 
L 187.083725 119.475821 
L 187.797965 118.641179 
L 188.512205 119.884285 
L 189.226445 119.388436 
L 189.940685 119.288704 
L 190.654925 119.545759 
L 191.369165 118.36165 
L 192.083405 120.009163 
L 192.797645 120.227711 
L 193.511885 120.838848 
L 194.940365 121.278091 
L 196.368845 121.105217 
L 197.083085 121.492441 
L 197.797325 121.376356 
L 198.511565 121.671433 
L 199.225805 122.402782 
L 199.940045 122.386245 
L 200.654285 122.490107 
L 202.082765 123.117994 
L 202.797005 123.146541 
L 203.511245 123.312633 
L 204.225485 123.102813 
L 204.939725 123.832423 
L 205.653965 124.033088 
L 206.368205 124.108077 
L 207.082445 123.340504 
L 207.796685 124.184954 
L 208.510925 123.686685 
L 209.225165 123.937327 
L 209.939405 124.402204 
L 210.653645 125.281469 
L 211.367885 125.590016 
L 212.082125 125.425849 
L 212.796365 125.658775 
L 213.510605 125.150815 
L 214.939085 125.664996 
L 215.653325 126.25604 
L 216.367565 125.713239 
L 217.081805 125.729099 
L 217.796045 125.938227 
L 218.510285 126.745208 
L 219.224525 126.598883 
L 219.938765 127.373414 
L 220.653005 127.494054 
L 221.367245 126.889808 
L 222.081485 127.133957 
L 222.795725 128.097434 
L 223.509965 127.919514 
L 224.224205 128.191475 
L 224.938445 127.116283 
L 225.652685 127.025281 
L 226.366925 127.739997 
L 228.509645 127.701594 
L 229.223885 128.386111 
L 229.938125 128.536503 
L 230.652365 129.208356 
L 231.366605 129.472929 
L 232.795085 129.432433 
L 233.509325 129.016855 
L 234.223565 129.904032 
L 234.937805 130.988961 
L 235.652045 130.53476 
L 236.366285 130.334509 
L 237.080525 131.074981 
L 237.794765 131.249515 
L 238.509005 130.753708 
L 239.223245 131.051086 
L 240.651725 131.231546 
L 241.365965 131.75561 
L 242.080205 131.392468 
L 243.508685 132.502391 
L 244.222925 132.331088 
L 244.937165 132.683147 
L 245.651405 132.864777 
L 246.365645 132.915681 
L 247.079885 132.561583 
L 247.794125 132.459077 
L 248.508365 133.317794 
L 249.222605 133.138232 
L 250.651085 133.246819 
L 251.365325 134.256059 
L 252.079565 133.848091 
L 252.793805 134.367839 
L 253.508045 133.85914 
L 254.222285 134.540571 
L 254.936525 134.462213 
L 255.650765 134.121656 
L 256.365005 134.47829 
L 257.079245 134.541285 
L 257.793485 135.200277 
L 258.507725 135.512965 
L 259.221965 134.466818 
L 259.936205 135.030645 
L 260.650445 136.001401 
L 261.364685 135.870664 
L 262.078925 134.76705 
L 262.793165 136.726919 
L 263.507405 135.788906 
L 264.221645 136.158405 
L 265.650125 135.645407 
L 266.364365 137.451918 
L 267.792845 136.883245 
L 268.507085 137.132234 
L 269.221325 136.735543 
L 269.935565 136.669871 
L 271.364045 138.467381 
L 272.078285 138.322556 
L 273.506765 138.798041 
L 274.221005 138.431713 
L 274.935245 139.069975 
L 275.649485 138.567949 
L 276.363725 138.253687 
L 277.077965 139.26766 
L 277.792205 139.816597 
L 279.934925 139.398577 
L 280.649165 140.20566 
L 282.077645 140.430304 
L 282.791885 140.94626 
L 283.506125 140.28173 
L 284.220365 140.930923 
L 284.934605 141.344386 
L 285.648845 141.17909 
L 286.363085 141.474531 
L 287.077325 141.379005 
L 287.791565 140.916055 
L 288.505805 142.122992 
L 289.220045 142.228371 
L 289.934285 141.865975 
L 291.362765 142.490506 
L 292.077005 143.010634 
L 292.791245 142.751399 
L 293.505485 142.708028 
L 294.219725 142.397355 
L 294.933965 142.797172 
L 295.648205 142.041368 
L 296.362445 141.469823 
L 297.076685 142.213451 
L 297.790925 140.91292 
L 298.505165 143.42441 
L 299.933645 143.506122 
L 300.647885 144.249649 
L 301.362125 144.658811 
L 302.790605 144.035676 
L 303.504845 144.366744 
L 304.219085 145.071204 
L 304.933325 145.094874 
L 305.647565 144.445305 
L 306.361805 144.662229 
L 307.076045 145.454782 
L 307.790285 146.079106 
L 308.504525 145.210056 
L 309.218765 146.194574 
L 309.933005 146.662198 
L 310.647245 145.697002 
L 311.361485 145.76741 
L 312.789965 147.413677 
L 314.218445 147.012159 
L 314.932685 147.821888 
L 315.646925 147.083558 
L 316.361165 148.027673 
L 317.075405 147.583382 
L 317.789645 148.120583 
L 318.503885 148.170786 
L 319.218125 147.860128 
L 319.932365 148.55158 
L 321.360845 147.629589 
L 322.075085 147.182547 
L 322.789325 148.890473 
L 323.503565 149.227943 
L 324.217805 149.032856 
L 324.932045 149.683721 
L 325.646285 149.208651 
L 326.360525 149.37847 
L 327.074765 149.243236 
L 327.789005 149.520898 
L 328.503245 150.159425 
L 329.217485 150.113154 
L 329.931725 149.230195 
L 330.645965 150.822259 
L 331.360205 150.376312 
L 332.074445 151.320443 
L 332.788685 151.184347 
L 333.502925 150.338527 
L 334.217165 150.303816 
L 334.931405 150.493587 
L 335.645645 151.45448 
L 336.359885 151.432666 
L 337.074125 151.649171 
L 337.788365 152.315742 
L 338.502605 151.547483 
L 339.216845 152.025033 
L 339.931085 152.797558 
L 340.645325 152.889863 
L 341.359565 153.176536 
L 342.073805 152.568487 
L 342.788045 153.105512 
L 343.502285 152.992138 
L 344.216525 152.582045 
L 344.930765 153.279774 
L 345.645005 153.31705 
L 346.359245 154.194368 
L 347.073485 154.140837 
L 347.787725 154.31896 
L 348.501965 154.864342 
L 349.216205 154.249006 
L 349.930445 155.054125 
L 350.644685 153.891287 
L 351.358925 154.1349 
L 352.073165 155.73989 
L 352.787405 154.100673 
L 354.215885 156.22054 
L 354.930125 155.408417 
L 355.644365 156.328013 
L 356.358605 153.469674 
L 357.072845 156.476072 
L 357.787085 156.591862 
L 358.501325 155.87606 
L 359.215565 156.765562 
L 359.929805 157.205397 
L 360.644045 157.157453 
L 361.358285 158.234379 
L 362.072525 157.330831 
L 362.786765 157.124628 
L 363.501005 156.481427 
L 364.215245 156.379636 
L 364.929485 157.954658 
L 365.643725 159.018466 
L 366.357965 158.064578 
L 367.072205 158.300894 
L 367.786445 158.005232 
L 368.500685 158.985149 
L 369.929165 159.436548 
L 370.643405 159.243855 
L 371.357645 158.233728 
L 372.071885 159.490958 
L 372.786125 158.866224 
L 374.214605 159.196566 
L 374.928845 160.360527 
L 375.643085 160.928403 
L 376.357325 159.920989 
L 377.071565 160.846684 
L 377.785805 159.140363 
L 378.500045 159.361833 
L 379.928525 161.333357 
L 380.642765 161.878838 
L 381.357005 160.76934 
L 382.071245 161.52697 
L 382.785485 161.885672 
L 383.499725 161.563584 
L 384.213965 161.538989 
L 384.928205 162.819541 
L 385.642445 162.18358 
L 386.356685 162.610292 
L 387.070925 163.423028 
L 387.785165 163.233913 
L 388.499405 159.851543 
L 389.213645 160.532723 
L 389.927885 161.847999 
L 390.642125 163.716823 
L 391.356365 163.390223 
L 392.784845 164.279598 
L 393.499085 163.506675 
L 394.213325 160.51761 
L 394.927565 162.246085 
L 395.641805 164.392065 
L 396.356045 164.001209 
L 397.070285 165.059086 
L 397.784525 164.466262 
L 398.498765 164.881827 
L 399.213005 165.735056 
L 399.927245 166.069206 
L 400.641485 166.558854 
L 402.069965 165.838468 
L 402.784205 164.810465 
L 403.498445 166.633616 
L 404.212685 165.854753 
L 404.926925 167.19628 
L 405.641165 167.063754 
L 406.355405 167.81375 
L 407.069645 166.716084 
L 407.783885 168.2609 
L 407.783885 168.2609 
" clip-path="url(#p50e80ce628)" style="fill: none; stroke: #9467bd; stroke-linecap: square"/>
   </g>
   <g id="patch_3">
    <path d="M 51.378125 273.312 
L 51.378125 7.2 
" style="fill: none; stroke: #000000; stroke-width: 0.8; stroke-linejoin: miter; stroke-linecap: square"/>
   </g>
   <g id="patch_4">
    <path d="M 408.498125 273.312 
L 408.498125 7.2 
" style="fill: none; stroke: #000000; stroke-width: 0.8; stroke-linejoin: miter; stroke-linecap: square"/>
   </g>
   <g id="patch_5">
    <path d="M 51.378125 273.312 
L 408.498125 273.312 
" style="fill: none; stroke: #000000; stroke-width: 0.8; stroke-linejoin: miter; stroke-linecap: square"/>
   </g>
   <g id="patch_6">
    <path d="M 51.378125 7.2 
L 408.498125 7.2 
" style="fill: none; stroke: #000000; stroke-width: 0.8; stroke-linejoin: miter; stroke-linecap: square"/>
   </g>
   <g id="legend_1">
    <g id="patch_7">
     <path d="M 340.649688 88.590625 
L 401.498125 88.590625 
Q 403.498125 88.590625 403.498125 86.590625 
L 403.498125 14.2 
Q 403.498125 12.2 401.498125 12.2 
L 340.649688 12.2 
Q 338.649688 12.2 338.649688 14.2 
L 338.649688 86.590625 
Q 338.649688 88.590625 340.649688 88.590625 
z
" style="fill: #ffffff; opacity: 0.8; stroke: #cccccc; stroke-linejoin: miter"/>
    </g>
    <g id="line2d_44">
     <path d="M 342.649688 20.298438 
L 352.649688 20.298438 
L 362.649688 20.298438 
" style="fill: none; stroke: #1f77b4; stroke-linecap: square"/>
    </g>
    <g id="text_13">
     <!-- 1e-02 -->
     <g transform="translate(370.649688 23.798438) scale(0.1 -0.1)">
      <defs>
       <path id="DejaVuSans-2d" d="M 313 2009 
L 1997 2009 
L 1997 1497 
L 313 1497 
L 313 2009 
z
" transform="scale(0.015625)"/>
      </defs>
      <use xlink:href="#DejaVuSans-31"/>
      <use xlink:href="#DejaVuSans-65" x="63.623047"/>
      <use xlink:href="#DejaVuSans-2d" x="125.146484"/>
      <use xlink:href="#DejaVuSans-30" x="161.230469"/>
      <use xlink:href="#DejaVuSans-32" x="224.853516"/>
     </g>
    </g>
    <g id="line2d_45">
     <path d="M 342.649688 34.976563 
L 352.649688 34.976563 
L 362.649688 34.976563 
" style="fill: none; stroke: #ff7f0e; stroke-linecap: square"/>
    </g>
    <g id="text_14">
     <!-- 5e-03 -->
     <g transform="translate(370.649688 38.476563) scale(0.1 -0.1)">
      <use xlink:href="#DejaVuSans-35"/>
      <use xlink:href="#DejaVuSans-65" x="63.623047"/>
      <use xlink:href="#DejaVuSans-2d" x="125.146484"/>
      <use xlink:href="#DejaVuSans-30" x="161.230469"/>
      <use xlink:href="#DejaVuSans-33" x="224.853516"/>
     </g>
    </g>
    <g id="line2d_46">
     <path d="M 342.649688 49.654688 
L 352.649688 49.654688 
L 362.649688 49.654688 
" style="fill: none; stroke: #2ca02c; stroke-linecap: square"/>
    </g>
    <g id="text_15">
     <!-- 1e-03 -->
     <g transform="translate(370.649688 53.154688) scale(0.1 -0.1)">
      <use xlink:href="#DejaVuSans-31"/>
      <use xlink:href="#DejaVuSans-65" x="63.623047"/>
      <use xlink:href="#DejaVuSans-2d" x="125.146484"/>
      <use xlink:href="#DejaVuSans-30" x="161.230469"/>
      <use xlink:href="#DejaVuSans-33" x="224.853516"/>
     </g>
    </g>
    <g id="line2d_47">
     <path d="M 342.649688 64.332813 
L 352.649688 64.332813 
L 362.649688 64.332813 
" style="fill: none; stroke: #d62728; stroke-linecap: square"/>
    </g>
    <g id="text_16">
     <!-- 5e-04 -->
     <g transform="translate(370.649688 67.832813) scale(0.1 -0.1)">
      <use xlink:href="#DejaVuSans-35"/>
      <use xlink:href="#DejaVuSans-65" x="63.623047"/>
      <use xlink:href="#DejaVuSans-2d" x="125.146484"/>
      <use xlink:href="#DejaVuSans-30" x="161.230469"/>
      <use xlink:href="#DejaVuSans-34" x="224.853516"/>
     </g>
    </g>
    <g id="line2d_48">
     <path d="M 342.649688 79.010938 
L 352.649688 79.010938 
L 362.649688 79.010938 
" style="fill: none; stroke: #9467bd; stroke-linecap: square"/>
    </g>
    <g id="text_17">
     <!-- 1e-04 -->
     <g transform="translate(370.649688 82.510938) scale(0.1 -0.1)">
      <use xlink:href="#DejaVuSans-31"/>
      <use xlink:href="#DejaVuSans-65" x="63.623047"/>
      <use xlink:href="#DejaVuSans-2d" x="125.146484"/>
      <use xlink:href="#DejaVuSans-30" x="161.230469"/>
      <use xlink:href="#DejaVuSans-34" x="224.853516"/>
     </g>
    </g>
   </g>
  </g>
 </g>
 <defs>
  <clipPath id="p50e80ce628">
   <rect x="51.378125" y="7.2" width="357.12" height="266.112"/>
  </clipPath>
 </defs>
</svg>
