<?xml version="1.0" encoding="utf-8" standalone="no"?>
<!DOCTYPE svg PUBLIC "-//W3C//DTD SVG 1.1//EN"
  "http://www.w3.org/Graphics/SVG/1.1/DTD/svg11.dtd">
<!-- Created with matplotlib (https://matplotlib.org/) -->
<svg height="226.026591pt" version="1.1" viewBox="0 0 395.082812 226.026591" width="395.082812pt" xmlns="http://www.w3.org/2000/svg" xmlns:xlink="http://www.w3.org/1999/xlink">
 <metadata>
  <rdf:RDF xmlns:cc="http://creativecommons.org/ns#" xmlns:dc="http://purl.org/dc/elements/1.1/" xmlns:rdf="http://www.w3.org/1999/02/22-rdf-syntax-ns#">
   <cc:Work>
    <dc:type rdf:resource="http://purl.org/dc/dcmitype/StillImage"/>
    <dc:date>2021-12-15T12:07:45.096391</dc:date>
    <dc:format>image/svg+xml</dc:format>
    <dc:creator>
     <cc:Agent>
      <dc:title>Matplotlib v3.3.3, https://matplotlib.org/</dc:title>
     </cc:Agent>
    </dc:creator>
   </cc:Work>
  </rdf:RDF>
 </metadata>
 <defs>
  <style type="text/css">*{stroke-linecap:butt;stroke-linejoin:round;}</style>
 </defs>
 <g id="figure_1">
  <g id="patch_1">
   <path d="M -0 226.026591 
L 395.082812 226.026591 
L 395.082812 -0 
L -0 -0 
z
" style="fill:none;"/>
  </g>
  <g id="axes_1">
   <g id="patch_2">
    <path d="M 53.082813 99.517614 
L 387.882812 99.517614 
L 387.882812 25.390341 
L 53.082813 25.390341 
z
" style="fill:#ffffff;"/>
   </g>
   <g id="matplotlib.axis_1">
    <g id="xtick_1">
     <g id="line2d_1">
      <defs>
       <path d="M 0 0 
L 0 3.5 
" id="m8f784d7595" style="stroke:#000000;stroke-width:0.8;"/>
      </defs>
      <g>
       <use style="stroke:#000000;stroke-width:0.8;" x="68.300994" xlink:href="#m8f784d7595" y="99.517614"/>
      </g>
     </g>
    </g>
    <g id="xtick_2">
     <g id="line2d_2">
      <g>
       <use style="stroke:#000000;stroke-width:0.8;" x="119.028267" xlink:href="#m8f784d7595" y="99.517614"/>
      </g>
     </g>
    </g>
    <g id="xtick_3">
     <g id="line2d_3">
      <g>
       <use style="stroke:#000000;stroke-width:0.8;" x="169.75554" xlink:href="#m8f784d7595" y="99.517614"/>
      </g>
     </g>
    </g>
    <g id="xtick_4">
     <g id="line2d_4">
      <g>
       <use style="stroke:#000000;stroke-width:0.8;" x="220.482812" xlink:href="#m8f784d7595" y="99.517614"/>
      </g>
     </g>
    </g>
    <g id="xtick_5">
     <g id="line2d_5">
      <g>
       <use style="stroke:#000000;stroke-width:0.8;" x="271.210085" xlink:href="#m8f784d7595" y="99.517614"/>
      </g>
     </g>
    </g>
    <g id="xtick_6">
     <g id="line2d_6">
      <g>
       <use style="stroke:#000000;stroke-width:0.8;" x="321.937358" xlink:href="#m8f784d7595" y="99.517614"/>
      </g>
     </g>
    </g>
    <g id="xtick_7">
     <g id="line2d_7">
      <g>
       <use style="stroke:#000000;stroke-width:0.8;" x="372.664631" xlink:href="#m8f784d7595" y="99.517614"/>
      </g>
     </g>
    </g>
   </g>
   <g id="matplotlib.axis_2">
    <g id="ytick_1">
     <g id="line2d_8">
      <defs>
       <path d="M 0 0 
L -3.5 0 
" id="m7391a8ac95" style="stroke:#000000;stroke-width:0.8;"/>
      </defs>
      <g>
       <use style="stroke:#000000;stroke-width:0.8;" x="53.082813" xlink:href="#m7391a8ac95" y="80.468355"/>
      </g>
     </g>
     <g id="text_1">
      <!-- −0.5 -->
      <g transform="translate(21.8 84.267574)scale(0.1 -0.1)">
       <defs>
        <path d="M 10.59375 35.5 
L 73.1875 35.5 
L 73.1875 27.203125 
L 10.59375 27.203125 
z
" id="DejaVuSans-8722"/>
        <path d="M 31.78125 66.40625 
Q 24.171875 66.40625 20.328125 58.90625 
Q 16.5 51.421875 16.5 36.375 
Q 16.5 21.390625 20.328125 13.890625 
Q 24.171875 6.390625 31.78125 6.390625 
Q 39.453125 6.390625 43.28125 13.890625 
Q 47.125 21.390625 47.125 36.375 
Q 47.125 51.421875 43.28125 58.90625 
Q 39.453125 66.40625 31.78125 66.40625 
z
M 31.78125 74.21875 
Q 44.046875 74.21875 50.515625 64.515625 
Q 56.984375 54.828125 56.984375 36.375 
Q 56.984375 17.96875 50.515625 8.265625 
Q 44.046875 -1.421875 31.78125 -1.421875 
Q 19.53125 -1.421875 13.0625 8.265625 
Q 6.59375 17.96875 6.59375 36.375 
Q 6.59375 54.828125 13.0625 64.515625 
Q 19.53125 74.21875 31.78125 74.21875 
z
" id="DejaVuSans-48"/>
        <path d="M 10.6875 12.40625 
L 21 12.40625 
L 21 0 
L 10.6875 0 
z
" id="DejaVuSans-46"/>
        <path d="M 10.796875 72.90625 
L 49.515625 72.90625 
L 49.515625 64.59375 
L 19.828125 64.59375 
L 19.828125 46.734375 
Q 21.96875 47.46875 24.109375 47.828125 
Q 26.265625 48.1875 28.421875 48.1875 
Q 40.625 48.1875 47.75 41.5 
Q 54.890625 34.8125 54.890625 23.390625 
Q 54.890625 11.625 47.5625 5.09375 
Q 40.234375 -1.421875 26.90625 -1.421875 
Q 22.3125 -1.421875 17.546875 -0.640625 
Q 12.796875 0.140625 7.71875 1.703125 
L 7.71875 11.625 
Q 12.109375 9.234375 16.796875 8.0625 
Q 21.484375 6.890625 26.703125 6.890625 
Q 35.15625 6.890625 40.078125 11.328125 
Q 45.015625 15.765625 45.015625 23.390625 
Q 45.015625 31 40.078125 35.4375 
Q 35.15625 39.890625 26.703125 39.890625 
Q 22.75 39.890625 18.8125 39.015625 
Q 14.890625 38.140625 10.796875 36.28125 
z
" id="DejaVuSans-53"/>
       </defs>
       <use xlink:href="#DejaVuSans-8722"/>
       <use x="83.789062" xlink:href="#DejaVuSans-48"/>
       <use x="147.412109" xlink:href="#DejaVuSans-46"/>
       <use x="179.199219" xlink:href="#DejaVuSans-53"/>
      </g>
     </g>
    </g>
    <g id="ytick_2">
     <g id="line2d_9">
      <g>
       <use style="stroke:#000000;stroke-width:0.8;" x="53.082813" xlink:href="#m7391a8ac95" y="60.98801"/>
      </g>
     </g>
     <g id="text_2">
      <!-- 0.0 -->
      <g transform="translate(30.179688 64.787229)scale(0.1 -0.1)">
       <use xlink:href="#DejaVuSans-48"/>
       <use x="63.623047" xlink:href="#DejaVuSans-46"/>
       <use x="95.410156" xlink:href="#DejaVuSans-48"/>
      </g>
     </g>
    </g>
    <g id="ytick_3">
     <g id="line2d_10">
      <g>
       <use style="stroke:#000000;stroke-width:0.8;" x="53.082813" xlink:href="#m7391a8ac95" y="41.507665"/>
      </g>
     </g>
     <g id="text_3">
      <!-- 0.5 -->
      <g transform="translate(30.179688 45.306884)scale(0.1 -0.1)">
       <use xlink:href="#DejaVuSans-48"/>
       <use x="63.623047" xlink:href="#DejaVuSans-46"/>
       <use x="95.410156" xlink:href="#DejaVuSans-53"/>
      </g>
     </g>
    </g>
    <g id="text_4">
     <!-- $u_1^\prime$ in $m/s$ -->
     <g transform="translate(15 84.903977)rotate(-90)scale(0.1 -0.1)">
      <defs>
       <path d="M 6.6875 21.6875 
L 13.09375 54.6875 
L 22.125 54.6875 
L 15.71875 22.015625 
Q 15.234375 19.625 15.015625 17.921875 
Q 14.796875 16.21875 14.796875 15.09375 
Q 14.796875 10.9375 17.328125 8.65625 
Q 19.875 6.390625 24.515625 6.390625 
Q 31.734375 6.390625 37 11.265625 
Q 42.28125 16.15625 43.890625 24.421875 
L 49.90625 54.6875 
L 58.890625 54.6875 
L 48.296875 0 
L 39.3125 0 
L 41.109375 8.59375 
Q 37.3125 3.8125 32.0625 1.1875 
Q 26.8125 -1.421875 20.90625 -1.421875 
Q 13.71875 -1.421875 9.71875 2.515625 
Q 5.71875 6.453125 5.71875 13.484375 
Q 5.71875 14.9375 5.953125 17.140625 
Q 6.203125 19.34375 6.6875 21.6875 
z
" id="DejaVuSans-Oblique-117"/>
       <path d="M 3.515625 5.421875 
Q 2.875 5.609375 2.875 6.390625 
L 15.09375 51.8125 
Q 15.671875 53.65625 17.078125 54.78125 
Q 18.5 55.90625 20.3125 55.90625 
Q 22.65625 55.90625 24.4375 54.359375 
Q 26.21875 52.828125 26.21875 50.484375 
Q 26.21875 49.46875 25.6875 48.1875 
L 7.625 4.984375 
Q 7.28125 4.296875 6.6875 4.296875 
Q 6.15625 4.296875 5 4.78125 
Q 3.859375 5.28125 3.515625 5.421875 
z
" id="Cmsy10-48"/>
       <path d="M 12.40625 8.296875 
L 28.515625 8.296875 
L 28.515625 63.921875 
L 10.984375 60.40625 
L 10.984375 69.390625 
L 28.421875 72.90625 
L 38.28125 72.90625 
L 38.28125 8.296875 
L 54.390625 8.296875 
L 54.390625 0 
L 12.40625 0 
z
" id="DejaVuSans-49"/>
       <path id="DejaVuSans-32"/>
       <path d="M 9.421875 54.6875 
L 18.40625 54.6875 
L 18.40625 0 
L 9.421875 0 
z
M 9.421875 75.984375 
L 18.40625 75.984375 
L 18.40625 64.59375 
L 9.421875 64.59375 
z
" id="DejaVuSans-105"/>
       <path d="M 54.890625 33.015625 
L 54.890625 0 
L 45.90625 0 
L 45.90625 32.71875 
Q 45.90625 40.484375 42.875 44.328125 
Q 39.84375 48.1875 33.796875 48.1875 
Q 26.515625 48.1875 22.3125 43.546875 
Q 18.109375 38.921875 18.109375 30.90625 
L 18.109375 0 
L 9.078125 0 
L 9.078125 54.6875 
L 18.109375 54.6875 
L 18.109375 46.1875 
Q 21.34375 51.125 25.703125 53.5625 
Q 30.078125 56 35.796875 56 
Q 45.21875 56 50.046875 50.171875 
Q 54.890625 44.34375 54.890625 33.015625 
z
" id="DejaVuSans-110"/>
       <path d="M 89.796875 33.015625 
L 83.40625 0 
L 74.421875 0 
L 80.71875 32.71875 
Q 81.109375 34.8125 81.296875 36.328125 
Q 81.5 37.84375 81.5 38.921875 
Q 81.5 43.3125 79.046875 45.75 
Q 76.609375 48.1875 72.21875 48.1875 
Q 65.671875 48.1875 60.546875 43.28125 
Q 55.421875 38.375 53.90625 30.515625 
L 47.90625 0 
L 38.921875 0 
L 45.3125 32.71875 
Q 45.703125 34.515625 45.890625 36.046875 
Q 46.09375 37.59375 46.09375 38.8125 
Q 46.09375 43.265625 43.65625 45.71875 
Q 41.21875 48.1875 36.921875 48.1875 
Q 30.28125 48.1875 25.140625 43.28125 
Q 20.015625 38.375 18.5 30.515625 
L 12.5 0 
L 3.515625 0 
L 14.203125 54.6875 
L 23.1875 54.6875 
L 21.484375 46.1875 
Q 25.140625 50.984375 30.046875 53.484375 
Q 34.96875 56 40.578125 56 
Q 46.53125 56 50.359375 52.875 
Q 54.203125 49.75 54.984375 44.1875 
Q 59.078125 49.953125 64.46875 52.96875 
Q 69.875 56 75.875 56 
Q 82.90625 56 86.734375 51.953125 
Q 90.578125 47.90625 90.578125 40.484375 
Q 90.578125 38.875 90.375 36.9375 
Q 90.1875 35.015625 89.796875 33.015625 
z
" id="DejaVuSans-Oblique-109"/>
       <path d="M 25.390625 72.90625 
L 33.6875 72.90625 
L 8.296875 -9.28125 
L 0 -9.28125 
z
" id="DejaVuSans-47"/>
       <path d="M 50 53.078125 
L 48.296875 44.578125 
Q 44.734375 46.53125 40.765625 47.5 
Q 36.8125 48.484375 32.625 48.484375 
Q 25.53125 48.484375 21.453125 46.0625 
Q 17.390625 43.65625 17.390625 39.5 
Q 17.390625 34.671875 26.859375 32.078125 
Q 27.59375 31.890625 27.9375 31.78125 
L 30.8125 30.90625 
Q 39.796875 28.421875 42.796875 25.6875 
Q 45.796875 22.953125 45.796875 18.21875 
Q 45.796875 9.515625 38.890625 4.046875 
Q 31.984375 -1.421875 20.796875 -1.421875 
Q 16.453125 -1.421875 11.671875 -0.578125 
Q 6.890625 0.25 1.125 2 
L 2.875 11.28125 
Q 7.8125 8.734375 12.59375 7.421875 
Q 17.390625 6.109375 21.78125 6.109375 
Q 28.375 6.109375 32.5 8.9375 
Q 36.625 11.765625 36.625 16.109375 
Q 36.625 20.796875 25.78125 23.6875 
L 24.859375 23.921875 
L 21.78125 24.703125 
Q 14.9375 26.515625 11.765625 29.46875 
Q 8.59375 32.421875 8.59375 37.015625 
Q 8.59375 45.75 15.15625 50.875 
Q 21.734375 56 33.015625 56 
Q 37.453125 56 41.671875 55.265625 
Q 45.90625 54.546875 50 53.078125 
z
" id="DejaVuSans-Oblique-115"/>
      </defs>
      <use transform="translate(0 0.584375)" xlink:href="#DejaVuSans-Oblique-117"/>
      <use transform="translate(67.845052 38.865625)scale(0.7)" xlink:href="#Cmsy10-48"/>
      <use transform="translate(63.378906 -26.759375)scale(0.7)" xlink:href="#DejaVuSans-49"/>
      <use transform="translate(110.649414 0.584375)" xlink:href="#DejaVuSans-32"/>
      <use transform="translate(142.436523 0.584375)" xlink:href="#DejaVuSans-105"/>
      <use transform="translate(170.219727 0.584375)" xlink:href="#DejaVuSans-110"/>
      <use transform="translate(233.598633 0.584375)" xlink:href="#DejaVuSans-32"/>
      <use transform="translate(265.385742 0.584375)" xlink:href="#DejaVuSans-Oblique-109"/>
      <use transform="translate(362.797852 0.584375)" xlink:href="#DejaVuSans-47"/>
      <use transform="translate(396.489258 0.584375)" xlink:href="#DejaVuSans-Oblique-115"/>
     </g>
    </g>
   </g>
   <g id="line2d_11">
    <path clip-path="url(#p8823ece78e)" d="M 68.300994 55.087839 
L 70.837358 86.307251 
L 72.10554 94.930647 
L 73.373722 95.498618 
L 74.641903 86.844361 
L 75.910085 68.693621 
L 77.178267 53.819584 
L 78.446449 43.325311 
L 79.714631 35.664029 
L 80.982812 32.414656 
L 82.250994 35.010686 
L 83.519176 41.501016 
L 84.787358 50.935076 
L 86.05554 65.124473 
L 87.323722 81.794432 
L 88.591903 93.131303 
L 89.860085 96.148192 
L 91.128267 90.872276 
L 93.664631 57.847287 
L 94.932813 46.319558 
L 96.200994 37.680633 
L 97.469176 32.691068 
L 98.737358 33.438229 
L 100.00554 38.979498 
L 101.273722 47.340126 
L 102.541903 59.934102 
L 103.810085 76.60835 
L 105.078267 90.432788 
L 106.346449 95.993666 
L 107.614631 93.67525 
L 108.882812 80.883397 
L 110.150994 62.489866 
L 111.419176 49.631116 
L 112.687358 40.127301 
L 113.95554 33.686272 
L 115.223722 32.451812 
L 116.491903 36.7551 
L 117.760085 44.222754 
L 119.028267 55.229519 
L 121.564631 86.793377 
L 122.832813 95.080722 
L 124.100994 95.364537 
L 125.369176 86.308403 
L 126.637358 67.932744 
L 127.90554 53.287336 
L 129.173722 42.901642 
L 130.441903 35.289118 
L 131.710085 32.124525 
L 132.978267 34.85733 
L 134.246449 41.480079 
L 135.514631 51.09506 
L 136.782812 65.538976 
L 138.050994 82.27615 
L 139.319176 93.354489 
L 140.587358 96.107952 
L 141.85554 90.527995 
L 144.391903 57.359007 
L 145.660085 45.953987 
L 146.928267 37.37981 
L 148.196449 32.484323 
L 149.464631 33.3731 
L 150.732812 39.029198 
L 152.000994 47.513848 
L 153.269176 60.303937 
L 154.537358 77.087638 
L 155.80554 90.727324 
L 157.073722 96.031607 
L 158.341903 93.465866 
L 159.610085 80.323782 
L 160.878267 61.994493 
L 162.146449 49.283059 
L 163.414631 39.851768 
L 164.682812 33.501222 
L 165.950994 32.413658 
L 167.219176 36.839922 
L 168.487358 44.399615 
L 169.75554 55.561283 
L 172.291903 87.15419 
L 173.560085 95.190552 
L 174.828267 95.253248 
L 176.096449 85.873703 
L 177.364631 67.401119 
L 178.632812 52.932949 
L 179.900994 42.629137 
L 181.169176 35.097389 
L 182.437358 32.074894 
L 183.70554 34.949272 
L 184.973722 41.655376 
L 186.241903 51.389761 
L 187.510085 65.985849 
L 188.778267 82.693437 
L 190.046449 93.536887 
L 191.314631 96.078098 
L 192.582812 90.219458 
L 195.119176 56.980384 
L 196.387358 45.672936 
L 197.65554 37.17112 
L 198.923722 32.402655 
L 200.191903 33.448777 
L 201.460085 39.197932 
L 202.728267 47.773567 
L 203.996449 60.714987 
L 205.264631 77.542428 
L 206.532812 90.987838 
L 207.800994 96.065948 
L 209.069176 93.264374 
L 210.337358 79.81088 
L 211.60554 61.56902 
L 212.873722 48.985144 
L 214.141903 39.624198 
L 215.410085 33.380354 
L 216.678267 32.454854 
L 217.946449 36.996618 
L 219.214631 44.631575 
L 220.482812 55.927774 
L 223.019176 87.490496 
L 224.287358 95.290826 
L 225.55554 95.141177 
L 226.823722 85.449432 
L 228.091903 66.912576 
L 229.360085 52.609925 
L 230.628267 42.382807 
L 231.896449 34.93859 
L 233.164631 32.069256 
L 234.432812 35.08425 
L 235.700994 41.864312 
L 236.969176 51.710207 
L 238.237358 66.439378 
L 239.50554 83.096083 
L 240.773722 93.707931 
L 242.041903 96.042319 
L 243.310085 89.907003 
L 245.846449 56.622437 
L 247.114631 45.407193 
L 248.382812 36.979837 
L 249.650994 32.345598 
L 250.919176 33.550779 
L 252.187358 39.388639 
L 253.45554 48.051711 
L 254.723722 61.135523 
L 255.991903 77.990529 
L 257.260085 91.235902 
L 258.528267 96.096996 
L 259.796449 93.05831 
L 261.064631 79.301045 
L 262.332812 61.159461 
L 263.600994 48.697205 
L 264.869176 39.406274 
L 266.137358 33.273545 
L 267.40554 32.512789 
L 268.673722 37.16727 
L 269.941903 44.875177 
L 271.210085 56.303519 
L 273.746449 87.817472 
L 275.014631 95.384406 
L 276.282812 95.025906 
L 277.550994 85.020801 
L 278.819176 66.435516 
L 280.087358 52.294291 
L 281.35554 42.142251 
L 282.623722 34.78823 
L 283.891903 32.075131 
L 285.160085 35.229083 
L 286.428267 42.081544 
L 287.696449 52.03774 
L 288.964631 66.895626 
L 290.232812 83.492197 
L 291.500994 93.872178 
L 292.769176 95.998382 
L 294.037358 89.585975 
L 296.573722 56.27121 
L 297.841903 45.145676 
L 299.110085 36.793849 
L 300.378267 32.296566 
L 301.646449 33.660258 
L 302.914631 39.583554 
L 304.182812 48.336232 
L 305.450994 61.559926 
L 306.719176 78.435168 
L 307.987358 91.476887 
L 309.25554 96.121835 
L 310.523722 92.844344 
L 311.791903 78.788526 
L 313.060085 60.756843 
L 314.328267 48.412643 
L 315.596449 39.191783 
L 316.864631 33.172579 
L 318.132812 32.576758 
L 319.400994 37.341243 
L 320.669176 45.122886 
L 321.937358 56.683728 
L 324.473722 88.137223 
L 325.741903 95.472864 
L 327.010085 94.902959 
L 328.278267 84.584238 
L 329.546449 65.965202 
L 330.814631 51.981974 
L 332.082812 41.904194 
L 333.350994 34.642077 
L 334.619176 32.086464 
L 335.887358 35.3772 
L 337.15554 42.301343 
L 338.423722 52.37001 
L 339.691903 67.35371 
L 340.960085 83.883057 
L 342.228267 94.030748 
L 343.496449 95.951661 
L 344.764631 89.257796 
L 347.300994 55.923792 
L 348.569176 44.886278 
L 349.837358 36.610866 
L 351.10554 32.252689 
L 352.373722 33.773625 
L 353.641903 39.781093 
L 354.910085 48.623093 
L 356.178267 61.988107 
L 357.446449 78.876709 
L 358.714631 91.711812 
L 359.982812 96.141081 
L 361.250994 92.621544 
L 362.519176 78.273039 
L 363.787358 60.359654 
L 365.05554 48.130426 
L 366.323722 38.979698 
L 367.591903 33.075993 
L 368.860085 32.645547 
L 370.128267 37.517626 
L 371.396449 45.373595 
L 372.664631 57.068 
L 372.664631 57.068 
" style="fill:none;stroke:#1f77b4;stroke-linecap:square;stroke-width:1.5;"/>
   </g>
   <g id="line2d_12">
    <path clip-path="url(#p8823ece78e)" d="M 68.300994 59.618306 
L 69.569176 73.65751 
L 70.837358 85.763836 
L 72.10554 92.099907 
L 73.373722 91.662353 
L 74.641903 84.698706 
L 77.178267 57.146349 
L 78.446449 43.380851 
L 79.714631 33.613219 
L 80.982812 30.134555 
L 82.250994 32.152982 
L 83.519176 40.431496 
L 86.05554 69.250492 
L 87.323722 82.437919 
L 88.591903 90.955187 
L 89.860085 92.613516 
L 91.128267 87.811074 
L 92.396449 76.121144 
L 94.932813 47.580909 
L 96.200994 36.035399 
L 97.469176 30.58114 
L 98.737358 30.862811 
L 100.00554 36.880297 
L 101.273722 50.021885 
L 103.810085 78.525245 
L 105.078267 89.00617 
L 106.346449 92.864009 
L 107.614631 90.147234 
L 108.882812 80.597678 
L 111.419176 52.079391 
L 112.687358 39.166015 
L 113.95554 31.637025 
L 115.223722 30.174333 
L 116.491903 34.1642 
L 117.760085 45.144934 
L 120.296449 74.226505 
L 121.564631 86.289242 
L 122.832813 92.41231 
L 124.100994 91.755252 
L 125.369176 84.50936 
L 129.173722 42.924024 
L 130.441903 33.343284 
L 131.710085 30.046122 
L 132.978267 32.204027 
L 134.246449 40.737513 
L 136.782812 69.721032 
L 138.050994 82.887446 
L 139.319176 91.226343 
L 140.587358 92.681497 
L 141.85554 87.661253 
L 143.123722 75.740503 
L 145.660085 47.155371 
L 146.928267 35.743297 
L 148.196449 30.479082 
L 149.464631 30.900062 
L 150.732812 37.112453 
L 152.000994 50.458707 
L 154.537358 78.942082 
L 155.80554 89.2808 
L 157.073722 92.939974 
L 158.341903 90.035033 
L 159.610085 80.258534 
L 162.146449 51.671024 
L 163.414631 38.842351 
L 164.682812 31.500517 
L 165.950994 30.185619 
L 167.219176 34.336945 
L 168.487358 45.542738 
L 171.023722 74.629166 
L 172.291903 86.588467 
L 173.560085 92.518606 
L 174.828267 91.681 
L 176.096449 84.228683 
L 179.900994 42.570257 
L 181.169176 33.160013 
L 182.437358 30.024058 
L 183.70554 32.326839 
L 184.973722 41.07241 
L 187.510085 70.115988 
L 188.778267 83.217541 
L 190.046449 91.377296 
L 191.314631 92.651169 
L 192.582812 87.443524 
L 193.850994 75.351376 
L 196.387358 46.780006 
L 197.65554 35.506744 
L 198.923722 30.414796 
L 200.191903 30.977158 
L 201.460085 37.375551 
L 203.996449 65.527848 
L 205.264631 79.298863 
L 206.532812 89.485482 
L 207.800994 92.95547 
L 209.069176 89.875163 
L 210.337358 79.902512 
L 212.873722 51.284769 
L 214.141903 38.553258 
L 215.410085 31.388325 
L 216.678267 30.215782 
L 217.946449 34.532939 
L 219.214631 45.940698 
L 221.750994 75.003183 
L 223.019176 86.847099 
L 224.287358 92.587319 
L 225.55554 91.575531 
L 226.823722 83.928438 
L 230.628267 42.236278 
L 231.896449 32.993825 
L 233.164631 30.013954 
L 234.432812 32.464868 
L 235.700994 41.416406 
L 238.237358 70.497979 
L 239.50554 83.524778 
L 240.773722 91.504297 
L 242.041903 92.599225 
L 243.310085 87.208809 
L 244.578267 74.96058 
L 247.114631 46.414517 
L 248.382812 35.283178 
L 249.650994 30.359585 
L 250.919176 31.065564 
L 252.187358 37.649942 
L 255.991903 79.643334 
L 257.260085 89.673514 
L 258.528267 92.95779 
L 259.796449 89.703487 
L 261.064631 79.540058 
L 263.600994 50.902831 
L 264.869176 38.273403 
L 266.137358 31.283615 
L 267.40554 30.257769 
L 268.673722 34.737503 
L 269.941903 46.341552 
L 272.478267 75.371249 
L 273.746449 87.094912 
L 275.014631 92.645296 
L 276.282812 91.462018 
L 277.550994 83.621281 
L 281.35554 41.908447 
L 282.623722 32.834533 
L 283.891903 30.00918 
L 285.160085 32.609794 
L 286.428267 41.766757 
L 288.964631 70.877335 
L 290.232812 83.82492 
L 291.500994 91.623049 
L 292.769176 92.538735 
L 294.037358 86.966492 
L 295.30554 74.568708 
L 297.841903 46.052759 
L 299.110085 35.065909 
L 300.378267 30.308985 
L 301.646449 31.158444 
L 302.914631 37.929712 
L 306.719176 79.98353 
L 307.987358 89.854688 
L 309.25554 92.953517 
L 310.523722 89.52562 
L 311.791903 79.17425 
L 314.328267 50.522388 
L 315.596449 37.998849 
L 316.864631 31.183587 
L 318.132812 30.304443 
L 319.400994 34.947798 
L 320.669176 46.744854 
L 323.20554 75.736878 
L 324.473722 87.336794 
L 325.741903 92.697774 
L 327.010085 91.34265 
L 328.278267 83.308255 
L 332.082812 41.584531 
L 333.350994 32.680302 
L 334.619176 30.009363 
L 335.887358 32.759462 
L 337.15554 42.122207 
L 339.691903 71.255758 
L 340.960085 84.120655 
L 342.228267 91.736362 
L 343.496449 92.47466 
L 344.764631 86.719353 
L 346.032812 74.175203 
L 348.569176 45.693363 
L 349.837358 34.85364 
L 351.10554 30.262743 
L 352.373722 31.254687 
L 353.641903 38.216248 
L 357.446449 80.320671 
L 358.714631 90.030655 
L 359.982812 92.944142 
L 361.250994 89.342028 
L 362.519176 78.804782 
L 365.05554 50.143131 
L 366.323722 37.729031 
L 367.591903 31.087866 
L 368.860085 30.352662 
L 370.128267 35.163866 
L 371.396449 47.15041 
L 372.664631 62.070236 
L 372.664631 62.070236 
" style="fill:none;stroke:#ff7f0e;stroke-dasharray:5.55,2.4;stroke-dashoffset:0;stroke-width:1.5;"/>
   </g>
   <g id="line2d_13">
    <path clip-path="url(#p8823ece78e)" d="M 68.300994 56.457543 
L 69.569176 57.920396 
L 70.837358 61.531422 
L 72.10554 63.818748 
L 73.373722 64.824271 
L 74.641903 63.133663 
L 75.910085 58.260438 
L 77.178267 57.661245 
L 78.446449 60.932472 
L 79.714631 63.038821 
L 80.982812 63.268113 
L 82.250994 63.845717 
L 83.519176 62.057532 
L 84.787358 56.992561 
L 86.05554 56.86199 
L 87.323722 60.344522 
L 88.591903 63.164121 
L 89.860085 64.522686 
L 91.128267 64.049208 
L 92.396449 59.612732 
L 93.664631 57.104842 
L 94.932813 59.726661 
L 96.200994 62.633248 
L 98.737358 63.563434 
L 100.00554 63.087214 
L 101.273722 58.306253 
L 102.541903 56.206065 
L 103.810085 59.071112 
L 105.078267 62.414626 
L 106.346449 64.117665 
L 107.614631 64.516023 
L 108.882812 61.273727 
L 110.150994 57.144084 
L 111.419176 58.539736 
L 112.687358 61.949298 
L 113.95554 63.037258 
L 116.491903 63.578911 
L 117.760085 60.06583 
L 119.028267 56.096762 
L 120.296449 57.834186 
L 121.564631 61.492143 
L 122.832813 63.65642 
L 124.100994 64.59729 
L 125.369176 62.787048 
L 126.637358 57.906659 
L 127.90554 57.576915 
L 129.173722 60.965629 
L 130.441903 62.933848 
L 131.710085 63.066416 
L 132.978267 63.641316 
L 134.246449 61.730576 
L 135.514631 56.69443 
L 136.782812 56.805954 
L 138.050994 60.376712 
L 139.319176 63.116152 
L 140.587358 64.414463 
L 141.85554 63.854751 
L 143.123722 59.327499 
L 144.391903 57.023417 
L 146.928267 62.624526 
L 149.464631 63.46105 
L 150.732812 62.904759 
L 152.000994 58.043152 
L 153.269176 56.153224 
L 154.537358 59.133563 
L 155.80554 62.434531 
L 157.073722 64.079642 
L 158.341903 64.418839 
L 159.610085 61.053258 
L 160.878267 57.042916 
L 162.146449 58.600046 
L 163.414631 61.997431 
L 164.682812 62.988716 
L 167.219176 63.49099 
L 169.75554 56.02294 
L 171.023722 57.901213 
L 172.291903 61.55373 
L 173.560085 63.659954 
L 174.828267 64.560256 
L 176.096449 62.633029 
L 177.364631 57.770455 
L 178.632812 57.619058 
L 179.900994 61.046892 
L 181.169176 62.925389 
L 182.437358 63.038847 
L 183.70554 63.610446 
L 184.973722 61.570975 
L 186.241903 56.578099 
L 187.510085 56.857871 
L 188.778267 60.463906 
L 190.046449 63.1476 
L 191.314631 64.414936 
L 192.582812 63.763941 
L 193.850994 59.165655 
L 195.119176 57.032398 
L 197.65554 62.652389 
L 198.923722 62.975872 
L 200.191903 63.459632 
L 201.460085 62.810394 
L 202.728267 57.885199 
L 203.996449 56.175149 
L 206.532812 62.49036 
L 207.800994 64.098484 
L 209.069176 64.377215 
L 210.337358 60.896376 
L 211.60554 57.003746 
L 212.873722 58.688386 
L 214.141903 62.058952 
L 215.410085 62.980041 
L 217.946449 63.45169 
L 220.482812 56.000371 
L 221.750994 57.99399 
L 223.019176 61.631403 
L 224.287358 63.691515 
L 225.55554 64.553652 
L 226.823722 62.509003 
L 228.091903 57.674601 
L 229.360085 57.683921 
L 230.628267 61.134542 
L 231.896449 62.932775 
L 233.164631 63.043314 
L 234.432812 63.607396 
L 235.700994 61.435918 
L 236.969176 56.496498 
L 238.237358 56.929408 
L 239.50554 60.559315 
L 240.773722 63.191641 
L 242.041903 64.431101 
L 243.310085 63.686202 
L 244.578267 59.026597 
L 245.846449 57.059203 
L 248.382812 62.684673 
L 249.650994 62.974028 
L 250.919176 63.473226 
L 252.187358 62.726707 
L 253.45554 57.748097 
L 254.723722 56.212256 
L 257.260085 62.550397 
L 258.528267 64.127214 
L 259.796449 64.342828 
L 262.332812 56.979044 
L 263.600994 58.782386 
L 264.869176 62.120883 
L 266.137358 62.977942 
L 268.673722 63.417778 
L 269.941903 59.521636 
L 271.210085 55.990165 
L 272.478267 58.091996 
L 273.746449 61.710568 
L 275.014631 63.727115 
L 276.282812 64.551895 
L 277.550994 62.387529 
L 278.819176 57.589785 
L 280.087358 57.754634 
L 281.35554 61.221817 
L 282.623722 62.941708 
L 283.891903 63.053964 
L 285.160085 63.607301 
L 286.428267 61.302798 
L 287.696449 56.425114 
L 288.964631 57.006299 
L 290.232812 60.655284 
L 291.500994 63.237136 
L 292.769176 64.447652 
L 294.037358 63.60749 
L 295.30554 58.893529 
L 296.573722 57.092199 
L 297.841903 60.080928 
L 299.110085 62.715952 
L 300.378267 62.975593 
L 301.646449 63.489827 
L 302.914631 62.641854 
L 304.182812 57.618211 
L 305.450994 56.254525 
L 307.987358 62.610206 
L 309.25554 64.156323 
L 310.523722 64.306732 
L 313.060085 56.960767 
L 314.328267 58.878265 
L 315.596449 62.180944 
L 316.864631 62.977006 
L 318.132812 63.260325 
L 319.400994 63.381457 
L 320.669176 59.366043 
L 321.937358 55.985649 
L 323.20554 58.191708 
L 324.473722 61.788437 
L 325.741903 63.763101 
L 327.010085 64.548315 
L 328.278267 62.263992 
L 329.546449 57.510583 
L 330.814631 57.828441 
L 332.082812 61.307673 
L 333.350994 62.949788 
L 334.619176 63.065114 
L 335.887358 63.605751 
L 337.15554 61.167148 
L 338.423722 56.359939 
L 339.691903 57.085963 
L 340.960085 60.75041 
L 342.228267 63.282392 
L 343.496449 64.465008 
L 344.764631 63.526449 
L 346.032812 58.764187 
L 347.300994 57.129138 
L 348.569176 60.180927 
L 349.837358 62.745239 
L 351.10554 62.977959 
L 352.373722 63.506951 
L 353.641903 62.552856 
L 354.910085 57.492192 
L 356.178267 56.300589 
L 358.714631 62.669163 
L 359.982812 64.184947 
L 361.250994 64.267524 
L 363.787358 56.947415 
L 365.05554 58.975305 
L 366.323722 62.238679 
L 367.591903 62.976139 
L 368.860085 63.280898 
L 370.128267 63.341773 
L 371.396449 59.211196 
L 372.664631 55.985774 
L 372.664631 55.985774 
" style="fill:none;stroke:#2ca02c;stroke-dasharray:5.55,2.4;stroke-dashoffset:0;stroke-width:1.5;"/>
   </g>
   <g id="line2d_14">
    <path clip-path="url(#p8823ece78e)" d="M 68.300994 55.087839 
L 70.837358 86.307249 
L 72.10554 94.930645 
L 73.373722 95.498613 
L 74.641903 86.844359 
L 75.910085 68.693621 
L 77.178267 53.819584 
L 78.446449 43.325313 
L 79.714631 35.664029 
L 80.982812 32.414659 
L 82.250994 35.010689 
L 83.519176 41.501019 
L 84.787358 50.935076 
L 86.05554 65.124472 
L 87.323722 81.794432 
L 88.591903 93.131298 
L 89.860085 96.148192 
L 91.128267 90.872272 
L 93.664631 57.847287 
L 94.932813 46.319561 
L 96.200994 37.680638 
L 97.469176 32.69107 
L 98.737358 33.438236 
L 100.00554 38.9795 
L 101.273722 47.340129 
L 102.541903 59.934102 
L 103.810085 76.608347 
L 105.078267 90.432786 
L 106.346449 95.993663 
L 107.614631 93.675248 
L 108.882812 80.883394 
L 110.150994 62.489867 
L 111.419176 49.631117 
L 112.687358 40.127304 
L 113.95554 33.686272 
L 115.223722 32.451812 
L 116.491903 36.755103 
L 117.760085 44.222754 
L 119.028267 55.22952 
L 121.564631 86.793374 
L 122.832813 95.08072 
L 124.100994 95.364532 
L 125.369176 86.308398 
L 126.637358 67.932743 
L 127.90554 53.287336 
L 129.173722 42.901643 
L 130.441903 35.289123 
L 131.710085 32.124527 
L 132.978267 34.857333 
L 134.246449 41.480079 
L 135.514631 51.095061 
L 136.782812 65.538976 
L 138.050994 82.276147 
L 139.319176 93.354486 
L 140.587358 96.10795 
L 141.85554 90.527993 
L 144.391903 57.359007 
L 145.660085 45.953987 
L 146.928267 37.379813 
L 148.196449 32.484326 
L 149.464631 33.373102 
L 150.732812 39.029203 
L 152.000994 47.513849 
L 153.269176 60.303937 
L 154.537358 77.087636 
L 155.80554 90.72732 
L 157.073722 96.031607 
L 158.341903 93.465863 
L 159.610085 80.323782 
L 160.878267 61.994493 
L 162.146449 49.28306 
L 163.414631 39.851772 
L 164.682812 33.501222 
L 165.950994 32.413665 
L 167.219176 36.839925 
L 168.487358 44.399617 
L 169.75554 55.561284 
L 172.291903 87.154187 
L 173.560085 95.19055 
L 174.828267 95.253246 
L 176.096449 85.873703 
L 177.364631 67.401118 
L 178.632812 52.93295 
L 179.900994 42.62914 
L 181.169176 35.097392 
L 182.437358 32.074897 
L 183.70554 34.949275 
L 184.973722 41.655376 
L 186.241903 51.389762 
L 187.510085 65.985849 
L 188.778267 82.693437 
L 190.046449 93.536887 
L 191.314631 96.078095 
L 192.582812 90.219456 
L 195.119176 56.980385 
L 196.387358 45.672938 
L 197.65554 37.171122 
L 198.923722 32.402657 
L 200.191903 33.448781 
L 201.460085 39.197935 
L 202.728267 47.77357 
L 203.996449 60.714987 
L 205.264631 77.542427 
L 206.532812 90.987833 
L 207.800994 96.065945 
L 209.069176 93.264367 
L 210.337358 79.810878 
L 211.60554 61.56902 
L 212.873722 48.985145 
L 214.141903 39.6242 
L 215.410085 33.380357 
L 216.678267 32.454854 
L 217.946449 36.99662 
L 219.214631 44.631577 
L 220.482812 55.927774 
L 223.019176 87.490492 
L 224.287358 95.290824 
L 225.55554 95.141172 
L 226.823722 85.44943 
L 228.091903 66.912576 
L 229.360085 52.609926 
L 230.628267 42.38281 
L 231.896449 34.93859 
L 233.164631 32.069258 
L 234.432812 35.084255 
L 235.700994 41.864313 
L 236.969176 51.710208 
L 238.237358 66.439378 
L 239.50554 83.096083 
L 240.773722 93.707929 
L 242.041903 96.042317 
L 243.310085 89.907001 
L 245.846449 56.622437 
L 247.114631 45.407196 
L 248.382812 36.979842 
L 249.650994 32.345602 
L 250.919176 33.550781 
L 252.187358 39.388639 
L 253.45554 48.051711 
L 254.723722 61.135523 
L 255.991903 77.990528 
L 257.260085 91.235902 
L 258.528267 96.096994 
L 259.796449 93.058303 
L 261.064631 79.301043 
L 262.332812 61.15946 
L 263.600994 48.697206 
L 264.869176 39.406276 
L 266.137358 33.273548 
L 267.40554 32.512796 
L 268.673722 37.167272 
L 269.941903 44.875178 
L 271.210085 56.30352 
L 273.746449 87.81747 
L 275.014631 95.384401 
L 276.282812 95.025903 
L 277.550994 85.020801 
L 278.819176 66.435515 
L 280.087358 52.294291 
L 281.35554 42.142254 
L 282.623722 34.788232 
L 283.891903 32.075133 
L 285.160085 35.229086 
L 286.428267 42.081545 
L 287.696449 52.037741 
L 288.964631 66.895624 
L 290.232812 83.492194 
L 291.500994 93.872176 
L 292.769176 95.998378 
L 294.037358 89.585972 
L 296.573722 56.27121 
L 297.841903 45.145677 
L 299.110085 36.793852 
L 300.378267 32.296568 
L 301.646449 33.660261 
L 302.914631 39.583556 
L 304.182812 48.336233 
L 305.450994 61.559926 
L 306.719176 78.435167 
L 307.987358 91.476885 
L 309.25554 96.12183 
L 310.523722 92.844342 
L 311.791903 78.788523 
L 313.060085 60.756843 
L 314.328267 48.412643 
L 315.596449 39.191783 
L 316.864631 33.172584 
L 318.132812 32.576758 
L 319.400994 37.341245 
L 320.669176 45.122888 
L 321.937358 56.683728 
L 324.473722 88.137221 
L 325.741903 95.472864 
L 327.010085 94.902955 
L 328.278267 84.584236 
L 329.546449 65.965202 
L 330.814631 51.981975 
L 332.082812 41.904194 
L 333.350994 34.64208 
L 334.619176 32.086468 
L 335.887358 35.377203 
L 337.15554 42.301346 
L 338.423722 52.370011 
L 339.691903 67.353711 
L 340.960085 83.883055 
L 342.228267 94.030745 
L 343.496449 95.951659 
L 344.764631 89.257791 
L 347.300994 55.923792 
L 348.569176 44.88628 
L 349.837358 36.610868 
L 351.10554 32.252692 
L 352.373722 33.773628 
L 353.641903 39.781093 
L 354.910085 48.623093 
L 356.178267 61.988107 
L 357.446449 78.876707 
L 358.714631 91.711809 
L 359.982812 96.141079 
L 361.250994 92.621542 
L 362.519176 78.273039 
L 363.787358 60.359654 
L 365.05554 48.130427 
L 366.323722 38.9797 
L 367.591903 33.075995 
L 368.860085 32.645549 
L 370.128267 37.517628 
L 371.396449 45.373596 
L 372.664631 57.068 
L 372.664631 57.068 
" style="fill:none;stroke:#d62728;stroke-dasharray:5.55,2.4;stroke-dashoffset:0;stroke-width:1.5;"/>
   </g>
   <g id="patch_3">
    <path d="M 53.082813 99.517614 
L 53.082813 25.390341 
" style="fill:none;stroke:#000000;stroke-linecap:square;stroke-linejoin:miter;stroke-width:0.8;"/>
   </g>
   <g id="patch_4">
    <path d="M 387.882812 99.517614 
L 387.882812 25.390341 
" style="fill:none;stroke:#000000;stroke-linecap:square;stroke-linejoin:miter;stroke-width:0.8;"/>
   </g>
   <g id="patch_5">
    <path d="M 53.082812 99.517614 
L 387.882812 99.517614 
" style="fill:none;stroke:#000000;stroke-linecap:square;stroke-linejoin:miter;stroke-width:0.8;"/>
   </g>
   <g id="patch_6">
    <path d="M 53.082812 25.390341 
L 387.882812 25.390341 
" style="fill:none;stroke:#000000;stroke-linecap:square;stroke-linejoin:miter;stroke-width:0.8;"/>
   </g>
   <g id="legend_1">
    <g id="patch_7">
     <path d="M 74.316563 21.3425 
L 366.649063 21.3425 
Q 368.249063 21.3425 368.249063 19.7425 
L 368.249063 8.8 
Q 368.249063 7.2 366.649063 7.2 
L 74.316563 7.2 
Q 72.716563 7.2 72.716563 8.8 
L 72.716563 19.7425 
Q 72.716563 21.3425 74.316563 21.3425 
z
" style="fill:#ffffff;opacity:0.8;stroke:#cccccc;stroke-linejoin:miter;"/>
    </g>
    <g id="line2d_15">
     <path d="M 75.916563 13.67875 
L 91.916563 13.67875 
" style="fill:none;stroke:#1f77b4;stroke-linecap:square;stroke-width:1.5;"/>
    </g>
    <g id="line2d_16"/>
    <g id="text_5">
     <!-- org. -->
     <g transform="translate(98.316563 16.47875)scale(0.08 -0.08)">
      <defs>
       <path d="M 30.609375 48.390625 
Q 23.390625 48.390625 19.1875 42.75 
Q 14.984375 37.109375 14.984375 27.296875 
Q 14.984375 17.484375 19.15625 11.84375 
Q 23.34375 6.203125 30.609375 6.203125 
Q 37.796875 6.203125 41.984375 11.859375 
Q 46.1875 17.53125 46.1875 27.296875 
Q 46.1875 37.015625 41.984375 42.703125 
Q 37.796875 48.390625 30.609375 48.390625 
z
M 30.609375 56 
Q 42.328125 56 49.015625 48.375 
Q 55.71875 40.765625 55.71875 27.296875 
Q 55.71875 13.875 49.015625 6.21875 
Q 42.328125 -1.421875 30.609375 -1.421875 
Q 18.84375 -1.421875 12.171875 6.21875 
Q 5.515625 13.875 5.515625 27.296875 
Q 5.515625 40.765625 12.171875 48.375 
Q 18.84375 56 30.609375 56 
z
" id="DejaVuSans-111"/>
       <path d="M 41.109375 46.296875 
Q 39.59375 47.171875 37.8125 47.578125 
Q 36.03125 48 33.890625 48 
Q 26.265625 48 22.1875 43.046875 
Q 18.109375 38.09375 18.109375 28.8125 
L 18.109375 0 
L 9.078125 0 
L 9.078125 54.6875 
L 18.109375 54.6875 
L 18.109375 46.1875 
Q 20.953125 51.171875 25.484375 53.578125 
Q 30.03125 56 36.53125 56 
Q 37.453125 56 38.578125 55.875 
Q 39.703125 55.765625 41.0625 55.515625 
z
" id="DejaVuSans-114"/>
       <path d="M 45.40625 27.984375 
Q 45.40625 37.75 41.375 43.109375 
Q 37.359375 48.484375 30.078125 48.484375 
Q 22.859375 48.484375 18.828125 43.109375 
Q 14.796875 37.75 14.796875 27.984375 
Q 14.796875 18.265625 18.828125 12.890625 
Q 22.859375 7.515625 30.078125 7.515625 
Q 37.359375 7.515625 41.375 12.890625 
Q 45.40625 18.265625 45.40625 27.984375 
z
M 54.390625 6.78125 
Q 54.390625 -7.171875 48.1875 -13.984375 
Q 42 -20.796875 29.203125 -20.796875 
Q 24.46875 -20.796875 20.265625 -20.09375 
Q 16.0625 -19.390625 12.109375 -17.921875 
L 12.109375 -9.1875 
Q 16.0625 -11.328125 19.921875 -12.34375 
Q 23.78125 -13.375 27.78125 -13.375 
Q 36.625 -13.375 41.015625 -8.765625 
Q 45.40625 -4.15625 45.40625 5.171875 
L 45.40625 9.625 
Q 42.625 4.78125 38.28125 2.390625 
Q 33.9375 0 27.875 0 
Q 17.828125 0 11.671875 7.65625 
Q 5.515625 15.328125 5.515625 27.984375 
Q 5.515625 40.671875 11.671875 48.328125 
Q 17.828125 56 27.875 56 
Q 33.9375 56 38.28125 53.609375 
Q 42.625 51.21875 45.40625 46.390625 
L 45.40625 54.6875 
L 54.390625 54.6875 
z
" id="DejaVuSans-103"/>
      </defs>
      <use xlink:href="#DejaVuSans-111"/>
      <use x="61.181641" xlink:href="#DejaVuSans-114"/>
      <use x="100.544922" xlink:href="#DejaVuSans-103"/>
      <use x="164.021484" xlink:href="#DejaVuSans-46"/>
     </g>
    </g>
    <g id="line2d_17">
     <path d="M 129.981563 13.67875 
L 145.981563 13.67875 
" style="fill:none;stroke:#ff7f0e;stroke-dasharray:5.55,2.4;stroke-dashoffset:0;stroke-width:1.5;"/>
    </g>
    <g id="line2d_18"/>
    <g id="text_6">
     <!-- contr. mode 1 -->
     <g transform="translate(152.381563 16.47875)scale(0.08 -0.08)">
      <defs>
       <path d="M 48.78125 52.59375 
L 48.78125 44.1875 
Q 44.96875 46.296875 41.140625 47.34375 
Q 37.3125 48.390625 33.40625 48.390625 
Q 24.65625 48.390625 19.8125 42.84375 
Q 14.984375 37.3125 14.984375 27.296875 
Q 14.984375 17.28125 19.8125 11.734375 
Q 24.65625 6.203125 33.40625 6.203125 
Q 37.3125 6.203125 41.140625 7.25 
Q 44.96875 8.296875 48.78125 10.40625 
L 48.78125 2.09375 
Q 45.015625 0.34375 40.984375 -0.53125 
Q 36.96875 -1.421875 32.421875 -1.421875 
Q 20.0625 -1.421875 12.78125 6.34375 
Q 5.515625 14.109375 5.515625 27.296875 
Q 5.515625 40.671875 12.859375 48.328125 
Q 20.21875 56 33.015625 56 
Q 37.15625 56 41.109375 55.140625 
Q 45.0625 54.296875 48.78125 52.59375 
z
" id="DejaVuSans-99"/>
       <path d="M 18.3125 70.21875 
L 18.3125 54.6875 
L 36.8125 54.6875 
L 36.8125 47.703125 
L 18.3125 47.703125 
L 18.3125 18.015625 
Q 18.3125 11.328125 20.140625 9.421875 
Q 21.96875 7.515625 27.59375 7.515625 
L 36.8125 7.515625 
L 36.8125 0 
L 27.59375 0 
Q 17.1875 0 13.234375 3.875 
Q 9.28125 7.765625 9.28125 18.015625 
L 9.28125 47.703125 
L 2.6875 47.703125 
L 2.6875 54.6875 
L 9.28125 54.6875 
L 9.28125 70.21875 
z
" id="DejaVuSans-116"/>
       <path d="M 52 44.1875 
Q 55.375 50.25 60.0625 53.125 
Q 64.75 56 71.09375 56 
Q 79.640625 56 84.28125 50.015625 
Q 88.921875 44.046875 88.921875 33.015625 
L 88.921875 0 
L 79.890625 0 
L 79.890625 32.71875 
Q 79.890625 40.578125 77.09375 44.375 
Q 74.3125 48.1875 68.609375 48.1875 
Q 61.625 48.1875 57.5625 43.546875 
Q 53.515625 38.921875 53.515625 30.90625 
L 53.515625 0 
L 44.484375 0 
L 44.484375 32.71875 
Q 44.484375 40.625 41.703125 44.40625 
Q 38.921875 48.1875 33.109375 48.1875 
Q 26.21875 48.1875 22.15625 43.53125 
Q 18.109375 38.875 18.109375 30.90625 
L 18.109375 0 
L 9.078125 0 
L 9.078125 54.6875 
L 18.109375 54.6875 
L 18.109375 46.1875 
Q 21.1875 51.21875 25.484375 53.609375 
Q 29.78125 56 35.6875 56 
Q 41.65625 56 45.828125 52.96875 
Q 50 49.953125 52 44.1875 
z
" id="DejaVuSans-109"/>
       <path d="M 45.40625 46.390625 
L 45.40625 75.984375 
L 54.390625 75.984375 
L 54.390625 0 
L 45.40625 0 
L 45.40625 8.203125 
Q 42.578125 3.328125 38.25 0.953125 
Q 33.9375 -1.421875 27.875 -1.421875 
Q 17.96875 -1.421875 11.734375 6.484375 
Q 5.515625 14.40625 5.515625 27.296875 
Q 5.515625 40.1875 11.734375 48.09375 
Q 17.96875 56 27.875 56 
Q 33.9375 56 38.25 53.625 
Q 42.578125 51.265625 45.40625 46.390625 
z
M 14.796875 27.296875 
Q 14.796875 17.390625 18.875 11.75 
Q 22.953125 6.109375 30.078125 6.109375 
Q 37.203125 6.109375 41.296875 11.75 
Q 45.40625 17.390625 45.40625 27.296875 
Q 45.40625 37.203125 41.296875 42.84375 
Q 37.203125 48.484375 30.078125 48.484375 
Q 22.953125 48.484375 18.875 42.84375 
Q 14.796875 37.203125 14.796875 27.296875 
z
" id="DejaVuSans-100"/>
       <path d="M 56.203125 29.59375 
L 56.203125 25.203125 
L 14.890625 25.203125 
Q 15.484375 15.921875 20.484375 11.0625 
Q 25.484375 6.203125 34.421875 6.203125 
Q 39.59375 6.203125 44.453125 7.46875 
Q 49.3125 8.734375 54.109375 11.28125 
L 54.109375 2.78125 
Q 49.265625 0.734375 44.1875 -0.34375 
Q 39.109375 -1.421875 33.890625 -1.421875 
Q 20.796875 -1.421875 13.15625 6.1875 
Q 5.515625 13.8125 5.515625 26.8125 
Q 5.515625 40.234375 12.765625 48.109375 
Q 20.015625 56 32.328125 56 
Q 43.359375 56 49.78125 48.890625 
Q 56.203125 41.796875 56.203125 29.59375 
z
M 47.21875 32.234375 
Q 47.125 39.59375 43.09375 43.984375 
Q 39.0625 48.390625 32.421875 48.390625 
Q 24.90625 48.390625 20.390625 44.140625 
Q 15.875 39.890625 15.1875 32.171875 
z
" id="DejaVuSans-101"/>
      </defs>
      <use xlink:href="#DejaVuSans-99"/>
      <use x="54.980469" xlink:href="#DejaVuSans-111"/>
      <use x="116.162109" xlink:href="#DejaVuSans-110"/>
      <use x="179.541016" xlink:href="#DejaVuSans-116"/>
      <use x="218.75" xlink:href="#DejaVuSans-114"/>
      <use x="250.738281" xlink:href="#DejaVuSans-46"/>
      <use x="282.525391" xlink:href="#DejaVuSans-32"/>
      <use x="314.3125" xlink:href="#DejaVuSans-109"/>
      <use x="411.724609" xlink:href="#DejaVuSans-111"/>
      <use x="472.90625" xlink:href="#DejaVuSans-100"/>
      <use x="536.382812" xlink:href="#DejaVuSans-101"/>
      <use x="597.90625" xlink:href="#DejaVuSans-32"/>
      <use x="629.693359" xlink:href="#DejaVuSans-49"/>
     </g>
    </g>
    <g id="line2d_19">
     <path d="M 223.846563 13.67875 
L 239.846563 13.67875 
" style="fill:none;stroke:#2ca02c;stroke-dasharray:5.55,2.4;stroke-dashoffset:0;stroke-width:1.5;"/>
    </g>
    <g id="line2d_20"/>
    <g id="text_7">
     <!-- contr. mode 2 -->
     <g transform="translate(246.246563 16.47875)scale(0.08 -0.08)">
      <defs>
       <path d="M 19.1875 8.296875 
L 53.609375 8.296875 
L 53.609375 0 
L 7.328125 0 
L 7.328125 8.296875 
Q 12.9375 14.109375 22.625 23.890625 
Q 32.328125 33.6875 34.8125 36.53125 
Q 39.546875 41.84375 41.421875 45.53125 
Q 43.3125 49.21875 43.3125 52.78125 
Q 43.3125 58.59375 39.234375 62.25 
Q 35.15625 65.921875 28.609375 65.921875 
Q 23.96875 65.921875 18.8125 64.3125 
Q 13.671875 62.703125 7.8125 59.421875 
L 7.8125 69.390625 
Q 13.765625 71.78125 18.9375 73 
Q 24.125 74.21875 28.421875 74.21875 
Q 39.75 74.21875 46.484375 68.546875 
Q 53.21875 62.890625 53.21875 53.421875 
Q 53.21875 48.921875 51.53125 44.890625 
Q 49.859375 40.875 45.40625 35.40625 
Q 44.1875 33.984375 37.640625 27.21875 
Q 31.109375 20.453125 19.1875 8.296875 
z
" id="DejaVuSans-50"/>
      </defs>
      <use xlink:href="#DejaVuSans-99"/>
      <use x="54.980469" xlink:href="#DejaVuSans-111"/>
      <use x="116.162109" xlink:href="#DejaVuSans-110"/>
      <use x="179.541016" xlink:href="#DejaVuSans-116"/>
      <use x="218.75" xlink:href="#DejaVuSans-114"/>
      <use x="250.738281" xlink:href="#DejaVuSans-46"/>
      <use x="282.525391" xlink:href="#DejaVuSans-32"/>
      <use x="314.3125" xlink:href="#DejaVuSans-109"/>
      <use x="411.724609" xlink:href="#DejaVuSans-111"/>
      <use x="472.90625" xlink:href="#DejaVuSans-100"/>
      <use x="536.382812" xlink:href="#DejaVuSans-101"/>
      <use x="597.90625" xlink:href="#DejaVuSans-32"/>
      <use x="629.693359" xlink:href="#DejaVuSans-50"/>
     </g>
    </g>
    <g id="line2d_21">
     <path d="M 317.711563 13.67875 
L 333.711563 13.67875 
" style="fill:none;stroke:#d62728;stroke-dasharray:5.55,2.4;stroke-dashoffset:0;stroke-width:1.5;"/>
    </g>
    <g id="line2d_22"/>
    <g id="text_8">
     <!-- recon. -->
     <g transform="translate(340.111563 16.47875)scale(0.08 -0.08)">
      <use xlink:href="#DejaVuSans-114"/>
      <use x="38.863281" xlink:href="#DejaVuSans-101"/>
      <use x="100.386719" xlink:href="#DejaVuSans-99"/>
      <use x="155.367188" xlink:href="#DejaVuSans-111"/>
      <use x="216.548828" xlink:href="#DejaVuSans-110"/>
      <use x="279.927734" xlink:href="#DejaVuSans-46"/>
     </g>
    </g>
   </g>
  </g>
  <g id="axes_2">
   <g id="patch_8">
    <path d="M 53.082813 188.470341 
L 387.882812 188.470341 
L 387.882812 114.343068 
L 53.082813 114.343068 
z
" style="fill:#ffffff;"/>
   </g>
   <g id="matplotlib.axis_3">
    <g id="xtick_8">
     <g id="line2d_23">
      <g>
       <use style="stroke:#000000;stroke-width:0.8;" x="68.300994" xlink:href="#m8f784d7595" y="188.470341"/>
      </g>
     </g>
     <g id="text_9">
      <!-- 4 -->
      <g transform="translate(65.119744 203.068778)scale(0.1 -0.1)">
       <defs>
        <path d="M 37.796875 64.3125 
L 12.890625 25.390625 
L 37.796875 25.390625 
z
M 35.203125 72.90625 
L 47.609375 72.90625 
L 47.609375 25.390625 
L 58.015625 25.390625 
L 58.015625 17.1875 
L 47.609375 17.1875 
L 47.609375 0 
L 37.796875 0 
L 37.796875 17.1875 
L 4.890625 17.1875 
L 4.890625 26.703125 
z
" id="DejaVuSans-52"/>
       </defs>
       <use xlink:href="#DejaVuSans-52"/>
      </g>
     </g>
    </g>
    <g id="xtick_9">
     <g id="line2d_24">
      <g>
       <use style="stroke:#000000;stroke-width:0.8;" x="119.028267" xlink:href="#m8f784d7595" y="188.470341"/>
      </g>
     </g>
     <g id="text_10">
      <!-- 5 -->
      <g transform="translate(115.847017 203.068778)scale(0.1 -0.1)">
       <use xlink:href="#DejaVuSans-53"/>
      </g>
     </g>
    </g>
    <g id="xtick_10">
     <g id="line2d_25">
      <g>
       <use style="stroke:#000000;stroke-width:0.8;" x="169.75554" xlink:href="#m8f784d7595" y="188.470341"/>
      </g>
     </g>
     <g id="text_11">
      <!-- 6 -->
      <g transform="translate(166.57429 203.068778)scale(0.1 -0.1)">
       <defs>
        <path d="M 33.015625 40.375 
Q 26.375 40.375 22.484375 35.828125 
Q 18.609375 31.296875 18.609375 23.390625 
Q 18.609375 15.53125 22.484375 10.953125 
Q 26.375 6.390625 33.015625 6.390625 
Q 39.65625 6.390625 43.53125 10.953125 
Q 47.40625 15.53125 47.40625 23.390625 
Q 47.40625 31.296875 43.53125 35.828125 
Q 39.65625 40.375 33.015625 40.375 
z
M 52.59375 71.296875 
L 52.59375 62.3125 
Q 48.875 64.0625 45.09375 64.984375 
Q 41.3125 65.921875 37.59375 65.921875 
Q 27.828125 65.921875 22.671875 59.328125 
Q 17.53125 52.734375 16.796875 39.40625 
Q 19.671875 43.65625 24.015625 45.921875 
Q 28.375 48.1875 33.59375 48.1875 
Q 44.578125 48.1875 50.953125 41.515625 
Q 57.328125 34.859375 57.328125 23.390625 
Q 57.328125 12.15625 50.6875 5.359375 
Q 44.046875 -1.421875 33.015625 -1.421875 
Q 20.359375 -1.421875 13.671875 8.265625 
Q 6.984375 17.96875 6.984375 36.375 
Q 6.984375 53.65625 15.1875 63.9375 
Q 23.390625 74.21875 37.203125 74.21875 
Q 40.921875 74.21875 44.703125 73.484375 
Q 48.484375 72.75 52.59375 71.296875 
z
" id="DejaVuSans-54"/>
       </defs>
       <use xlink:href="#DejaVuSans-54"/>
      </g>
     </g>
    </g>
    <g id="xtick_11">
     <g id="line2d_26">
      <g>
       <use style="stroke:#000000;stroke-width:0.8;" x="220.482812" xlink:href="#m8f784d7595" y="188.470341"/>
      </g>
     </g>
     <g id="text_12">
      <!-- 7 -->
      <g transform="translate(217.301562 203.068778)scale(0.1 -0.1)">
       <defs>
        <path d="M 8.203125 72.90625 
L 55.078125 72.90625 
L 55.078125 68.703125 
L 28.609375 0 
L 18.3125 0 
L 43.21875 64.59375 
L 8.203125 64.59375 
z
" id="DejaVuSans-55"/>
       </defs>
       <use xlink:href="#DejaVuSans-55"/>
      </g>
     </g>
    </g>
    <g id="xtick_12">
     <g id="line2d_27">
      <g>
       <use style="stroke:#000000;stroke-width:0.8;" x="271.210085" xlink:href="#m8f784d7595" y="188.470341"/>
      </g>
     </g>
     <g id="text_13">
      <!-- 8 -->
      <g transform="translate(268.028835 203.068778)scale(0.1 -0.1)">
       <defs>
        <path d="M 31.78125 34.625 
Q 24.75 34.625 20.71875 30.859375 
Q 16.703125 27.09375 16.703125 20.515625 
Q 16.703125 13.921875 20.71875 10.15625 
Q 24.75 6.390625 31.78125 6.390625 
Q 38.8125 6.390625 42.859375 10.171875 
Q 46.921875 13.96875 46.921875 20.515625 
Q 46.921875 27.09375 42.890625 30.859375 
Q 38.875 34.625 31.78125 34.625 
z
M 21.921875 38.8125 
Q 15.578125 40.375 12.03125 44.71875 
Q 8.5 49.078125 8.5 55.328125 
Q 8.5 64.0625 14.71875 69.140625 
Q 20.953125 74.21875 31.78125 74.21875 
Q 42.671875 74.21875 48.875 69.140625 
Q 55.078125 64.0625 55.078125 55.328125 
Q 55.078125 49.078125 51.53125 44.71875 
Q 48 40.375 41.703125 38.8125 
Q 48.828125 37.15625 52.796875 32.3125 
Q 56.78125 27.484375 56.78125 20.515625 
Q 56.78125 9.90625 50.3125 4.234375 
Q 43.84375 -1.421875 31.78125 -1.421875 
Q 19.734375 -1.421875 13.25 4.234375 
Q 6.78125 9.90625 6.78125 20.515625 
Q 6.78125 27.484375 10.78125 32.3125 
Q 14.796875 37.15625 21.921875 38.8125 
z
M 18.3125 54.390625 
Q 18.3125 48.734375 21.84375 45.5625 
Q 25.390625 42.390625 31.78125 42.390625 
Q 38.140625 42.390625 41.71875 45.5625 
Q 45.3125 48.734375 45.3125 54.390625 
Q 45.3125 60.0625 41.71875 63.234375 
Q 38.140625 66.40625 31.78125 66.40625 
Q 25.390625 66.40625 21.84375 63.234375 
Q 18.3125 60.0625 18.3125 54.390625 
z
" id="DejaVuSans-56"/>
       </defs>
       <use xlink:href="#DejaVuSans-56"/>
      </g>
     </g>
    </g>
    <g id="xtick_13">
     <g id="line2d_28">
      <g>
       <use style="stroke:#000000;stroke-width:0.8;" x="321.937358" xlink:href="#m8f784d7595" y="188.470341"/>
      </g>
     </g>
     <g id="text_14">
      <!-- 9 -->
      <g transform="translate(318.756108 203.068778)scale(0.1 -0.1)">
       <defs>
        <path d="M 10.984375 1.515625 
L 10.984375 10.5 
Q 14.703125 8.734375 18.5 7.8125 
Q 22.3125 6.890625 25.984375 6.890625 
Q 35.75 6.890625 40.890625 13.453125 
Q 46.046875 20.015625 46.78125 33.40625 
Q 43.953125 29.203125 39.59375 26.953125 
Q 35.25 24.703125 29.984375 24.703125 
Q 19.046875 24.703125 12.671875 31.3125 
Q 6.296875 37.9375 6.296875 49.421875 
Q 6.296875 60.640625 12.9375 67.421875 
Q 19.578125 74.21875 30.609375 74.21875 
Q 43.265625 74.21875 49.921875 64.515625 
Q 56.59375 54.828125 56.59375 36.375 
Q 56.59375 19.140625 48.40625 8.859375 
Q 40.234375 -1.421875 26.421875 -1.421875 
Q 22.703125 -1.421875 18.890625 -0.6875 
Q 15.09375 0.046875 10.984375 1.515625 
z
M 30.609375 32.421875 
Q 37.25 32.421875 41.125 36.953125 
Q 45.015625 41.5 45.015625 49.421875 
Q 45.015625 57.28125 41.125 61.84375 
Q 37.25 66.40625 30.609375 66.40625 
Q 23.96875 66.40625 20.09375 61.84375 
Q 16.21875 57.28125 16.21875 49.421875 
Q 16.21875 41.5 20.09375 36.953125 
Q 23.96875 32.421875 30.609375 32.421875 
z
" id="DejaVuSans-57"/>
       </defs>
       <use xlink:href="#DejaVuSans-57"/>
      </g>
     </g>
    </g>
    <g id="xtick_14">
     <g id="line2d_29">
      <g>
       <use style="stroke:#000000;stroke-width:0.8;" x="372.664631" xlink:href="#m8f784d7595" y="188.470341"/>
      </g>
     </g>
     <g id="text_15">
      <!-- 10 -->
      <g transform="translate(366.302131 203.068778)scale(0.1 -0.1)">
       <use xlink:href="#DejaVuSans-49"/>
       <use x="63.623047" xlink:href="#DejaVuSans-48"/>
      </g>
     </g>
    </g>
    <g id="text_16">
     <!-- $t$ in $s$ -->
     <g transform="translate(208.132813 216.746903)scale(0.1 -0.1)">
      <defs>
       <path d="M 42.28125 54.6875 
L 40.921875 47.703125 
L 23 47.703125 
L 17.1875 18.015625 
Q 16.890625 16.359375 16.75 15.234375 
Q 16.609375 14.109375 16.609375 13.484375 
Q 16.609375 10.359375 18.484375 8.9375 
Q 20.359375 7.515625 24.515625 7.515625 
L 33.59375 7.515625 
L 32.078125 0 
L 23.484375 0 
Q 15.484375 0 11.546875 3.125 
Q 7.625 6.25 7.625 12.59375 
Q 7.625 13.71875 7.765625 15.0625 
Q 7.90625 16.40625 8.203125 18.015625 
L 14.015625 47.703125 
L 6.390625 47.703125 
L 7.8125 54.6875 
L 15.28125 54.6875 
L 18.3125 70.21875 
L 27.296875 70.21875 
L 24.3125 54.6875 
z
" id="DejaVuSans-Oblique-116"/>
      </defs>
      <use transform="translate(0 0.015625)" xlink:href="#DejaVuSans-Oblique-116"/>
      <use transform="translate(39.208984 0.015625)" xlink:href="#DejaVuSans-32"/>
      <use transform="translate(70.996094 0.015625)" xlink:href="#DejaVuSans-105"/>
      <use transform="translate(98.779297 0.015625)" xlink:href="#DejaVuSans-110"/>
      <use transform="translate(162.158203 0.015625)" xlink:href="#DejaVuSans-32"/>
      <use transform="translate(193.945312 0.015625)" xlink:href="#DejaVuSans-Oblique-115"/>
     </g>
    </g>
   </g>
   <g id="matplotlib.axis_4">
    <g id="ytick_4">
     <g id="line2d_30">
      <g>
       <use style="stroke:#000000;stroke-width:0.8;" x="53.082813" xlink:href="#m7391a8ac95" y="169.421082"/>
      </g>
     </g>
     <g id="text_17">
      <!-- −0.5 -->
      <g transform="translate(21.8 173.220301)scale(0.1 -0.1)">
       <use xlink:href="#DejaVuSans-8722"/>
       <use x="83.789062" xlink:href="#DejaVuSans-48"/>
       <use x="147.412109" xlink:href="#DejaVuSans-46"/>
       <use x="179.199219" xlink:href="#DejaVuSans-53"/>
      </g>
     </g>
    </g>
    <g id="ytick_5">
     <g id="line2d_31">
      <g>
       <use style="stroke:#000000;stroke-width:0.8;" x="53.082813" xlink:href="#m7391a8ac95" y="149.940737"/>
      </g>
     </g>
     <g id="text_18">
      <!-- 0.0 -->
      <g transform="translate(30.179688 153.739956)scale(0.1 -0.1)">
       <use xlink:href="#DejaVuSans-48"/>
       <use x="63.623047" xlink:href="#DejaVuSans-46"/>
       <use x="95.410156" xlink:href="#DejaVuSans-48"/>
      </g>
     </g>
    </g>
    <g id="ytick_6">
     <g id="line2d_32">
      <g>
       <use style="stroke:#000000;stroke-width:0.8;" x="53.082813" xlink:href="#m7391a8ac95" y="130.460392"/>
      </g>
     </g>
     <g id="text_19">
      <!-- 0.5 -->
      <g transform="translate(30.179688 134.259611)scale(0.1 -0.1)">
       <use xlink:href="#DejaVuSans-48"/>
       <use x="63.623047" xlink:href="#DejaVuSans-46"/>
       <use x="95.410156" xlink:href="#DejaVuSans-53"/>
      </g>
     </g>
    </g>
    <g id="text_20">
     <!-- $u_2^\prime$ in $m/s$ -->
     <g transform="translate(15 173.856705)rotate(-90)scale(0.1 -0.1)">
      <use transform="translate(0 0.584375)" xlink:href="#DejaVuSans-Oblique-117"/>
      <use transform="translate(67.845052 38.865625)scale(0.7)" xlink:href="#Cmsy10-48"/>
      <use transform="translate(63.378906 -26.759375)scale(0.7)" xlink:href="#DejaVuSans-50"/>
      <use transform="translate(110.649414 0.584375)" xlink:href="#DejaVuSans-32"/>
      <use transform="translate(142.436523 0.584375)" xlink:href="#DejaVuSans-105"/>
      <use transform="translate(170.219727 0.584375)" xlink:href="#DejaVuSans-110"/>
      <use transform="translate(233.598633 0.584375)" xlink:href="#DejaVuSans-32"/>
      <use transform="translate(265.385742 0.584375)" xlink:href="#DejaVuSans-Oblique-109"/>
      <use transform="translate(362.797852 0.584375)" xlink:href="#DejaVuSans-47"/>
      <use transform="translate(396.489258 0.584375)" xlink:href="#DejaVuSans-Oblique-115"/>
     </g>
    </g>
   </g>
   <g id="line2d_33">
    <path clip-path="url(#p12d7279287)" d="M 68.300994 146.827382 
L 69.569176 134.125792 
L 70.837358 125.503656 
L 72.10554 121.385339 
L 73.373722 122.823891 
L 74.641903 128.16679 
L 75.910085 136.717507 
L 77.178267 150.513373 
L 78.446449 167.635156 
L 79.714631 179.571213 
L 80.982812 183.305453 
L 82.250994 181.843681 
L 83.519176 171.724392 
L 84.787358 152.083789 
L 86.05554 137.518524 
L 87.323722 127.679083 
L 88.591903 121.889938 
L 89.860085 121.565875 
L 91.128267 125.93746 
L 92.396449 133.321006 
L 93.664631 145.340263 
L 94.932813 162.205001 
L 96.200994 176.727131 
L 97.469176 182.686451 
L 98.737358 182.864265 
L 100.00554 176.325727 
L 102.541903 141.438966 
L 103.810085 130.36019 
L 105.078267 123.111231 
L 106.346449 120.911579 
L 107.614631 124.045486 
L 108.882812 130.455955 
L 110.150994 140.738637 
L 112.687358 172.89274 
L 113.95554 181.561833 
L 115.223722 183.26275 
L 116.491903 179.551537 
L 117.760085 164.997118 
L 119.028267 145.962969 
L 120.296449 133.46668 
L 121.564631 124.935038 
L 122.832813 120.909387 
L 124.100994 122.50508 
L 125.369176 128.013829 
L 126.637358 136.776954 
L 127.90554 150.881258 
L 129.173722 168.128566 
L 130.441903 179.739199 
L 131.710085 183.194527 
L 132.978267 181.589463 
L 134.246449 171.091565 
L 135.514631 151.326231 
L 136.782812 136.988594 
L 138.050994 127.257852 
L 139.319176 121.569005 
L 140.587358 121.389988 
L 141.85554 125.895595 
L 143.123722 133.421778 
L 144.391903 145.669637 
L 145.660085 162.693461 
L 146.928267 177.012943 
L 148.196449 182.685485 
L 149.464631 182.725147 
L 150.732812 175.910702 
L 153.269176 140.960454 
L 154.537358 130.001934 
L 155.80554 122.854122 
L 157.073722 120.797283 
L 158.341903 124.062188 
L 159.610085 130.57914 
L 160.878267 141.035672 
L 163.414631 173.266769 
L 164.682812 181.651293 
L 165.950994 183.202339 
L 167.219176 179.290178 
L 168.487358 164.376929 
L 169.75554 145.480874 
L 171.023722 133.127253 
L 172.291903 124.694487 
L 173.560085 120.805736 
L 174.828267 122.543198 
L 176.096449 128.143995 
L 177.364631 137.040461 
L 178.632812 151.322799 
L 179.900994 168.565806 
L 181.169176 179.915562 
L 182.437358 183.189418 
L 183.70554 181.435037 
L 184.973722 170.59564 
L 186.241903 150.796477 
L 187.510085 136.641944 
L 188.778267 127.011583 
L 190.046449 121.44803 
L 191.314631 121.421027 
L 192.582812 126.025004 
L 193.850994 133.653505 
L 195.119176 146.069283 
L 196.387358 163.165422 
L 197.65554 177.279048 
L 198.923722 182.733052 
L 200.191903 182.646024 
L 201.460085 175.55187 
L 202.728267 157.056191 
L 203.996449 140.589932 
L 205.264631 129.739493 
L 206.532812 122.703167 
L 207.800994 120.800353 
L 209.069176 124.182057 
L 210.337358 130.782415 
L 211.60554 141.386244 
L 214.141903 173.619224 
L 215.410085 181.755787 
L 216.678267 183.182869 
L 217.946449 179.053616 
L 219.214631 163.811082 
L 220.482812 145.066283 
L 221.750994 132.842245 
L 223.019176 124.510811 
L 224.287358 120.767777 
L 225.55554 122.642966 
L 226.823722 128.323634 
L 228.091903 137.341239 
L 229.360085 151.778164 
L 230.628267 168.989431 
L 231.896449 180.090417 
L 233.164631 183.204036 
L 234.432812 181.292867 
L 235.700994 170.11489 
L 236.969176 150.310233 
L 238.237358 136.327829 
L 239.50554 126.796507 
L 240.773722 121.363691 
L 242.041903 121.489426 
L 243.310085 126.184499 
L 244.578267 133.909517 
L 245.846449 146.483735 
L 247.114631 163.632814 
L 248.382812 177.536447 
L 249.650994 182.786881 
L 250.919176 182.570386 
L 252.187358 175.192241 
L 253.45554 156.501586 
L 254.723722 140.240212 
L 255.991903 129.495036 
L 257.260085 122.573173 
L 258.528267 120.826516 
L 259.796449 124.32101 
L 261.064631 131.001602 
L 262.332812 141.749709 
L 264.869176 173.962776 
L 266.137358 181.859263 
L 267.40554 183.156375 
L 268.673722 178.813757 
L 269.941903 163.250995 
L 271.210085 144.667085 
L 272.478267 132.568425 
L 273.746449 124.339528 
L 275.014631 120.744643 
L 276.282812 122.755655 
L 277.550994 128.512775 
L 278.819176 137.652519 
L 280.087358 152.237781 
L 281.35554 169.406487 
L 282.623722 180.259861 
L 283.891903 183.219412 
L 285.160085 181.146673 
L 286.428267 169.629654 
L 287.696449 149.837279 
L 288.964631 136.021681 
L 290.232812 126.589136 
L 291.500994 121.289106 
L 292.769176 121.566827 
L 294.037358 126.350693 
L 295.30554 134.172557 
L 296.573722 146.903796 
L 297.841903 164.096932 
L 299.110085 177.786497 
L 300.378267 182.83944 
L 301.646449 182.493225 
L 302.914631 174.826038 
L 304.182812 155.954985 
L 305.450994 139.896921 
L 306.719176 129.255697 
L 307.987358 122.449862 
L 309.25554 120.859696 
L 310.523722 124.464511 
L 311.791903 131.224829 
L 313.060085 142.119026 
L 315.596449 174.299129 
L 316.864631 181.959173 
L 318.132812 183.126467 
L 319.400994 178.565733 
L 320.669176 162.690088 
L 321.937358 144.274771 
L 323.20554 132.298748 
L 324.473722 124.172935 
L 325.741903 120.72744 
L 327.010085 122.872435 
L 328.278267 128.705786 
L 329.546449 137.968225 
L 330.814631 152.700241 
L 332.082812 169.818189 
L 333.350994 180.423354 
L 334.619176 183.230289 
L 335.887358 180.994257 
L 337.15554 169.136769 
L 338.423722 149.371968 
L 339.691903 135.719224 
L 340.960085 126.385373 
L 342.228267 121.219768 
L 343.496449 121.648634 
L 344.764631 126.519441 
L 346.032812 134.440938 
L 347.300994 147.327904 
L 348.569176 164.558429 
L 349.837358 178.029537 
L 351.10554 182.888402 
L 352.373722 182.413189 
L 353.641903 174.448899 
L 354.910085 155.413758 
L 356.178267 139.557407 
L 357.446449 129.01939 
L 358.714631 122.330954 
L 359.982812 120.897544 
L 361.250994 124.610696 
L 362.519176 131.452441 
L 363.787358 142.492721 
L 366.323722 174.628401 
L 367.591903 182.054805 
L 368.860085 183.098265 
L 370.128267 178.308552 
L 371.396449 162.127648 
L 372.664631 143.887643 
L 372.664631 143.887643 
" style="fill:none;stroke:#1f77b4;stroke-linecap:square;stroke-width:1.5;"/>
   </g>
   <g id="line2d_34">
    <path clip-path="url(#p12d7279287)" d="M 68.300994 151.321515 
L 69.569176 137.168806 
L 70.837358 124.964605 
L 72.10554 118.577307 
L 73.373722 119.0184 
L 74.641903 126.038345 
L 77.178267 153.813458 
L 78.446449 167.690246 
L 79.714631 177.536847 
L 80.982812 181.043635 
L 82.250994 179.00889 
L 83.519176 170.663445 
L 86.05554 141.611454 
L 87.323722 128.31741 
L 88.591903 119.731283 
L 89.860085 118.059548 
L 91.128267 122.900815 
L 92.396449 134.685256 
L 94.932813 163.456232 
L 96.200994 175.095085 
L 97.469176 180.593439 
L 98.737358 180.309492 
L 100.00554 174.243356 
L 101.273722 160.995522 
L 103.810085 132.261718 
L 105.078267 121.696057 
L 106.346449 117.807028 
L 107.614631 120.545769 
L 108.882812 130.17253 
L 111.419176 158.92138 
L 112.687358 171.939159 
L 113.95554 179.529018 
L 115.223722 181.003535 
L 116.491903 176.981411 
L 117.760085 165.9119 
L 120.296449 136.595211 
L 121.564631 124.434949 
L 122.832813 118.262379 
L 124.100994 118.924749 
L 125.369176 126.229221 
L 129.173722 168.150767 
L 130.441903 177.808964 
L 131.710085 181.132784 
L 132.978267 178.957432 
L 134.246449 170.354954 
L 136.782812 141.137111 
L 138.050994 127.864249 
L 139.319176 119.457935 
L 140.587358 117.991014 
L 141.85554 123.051847 
L 143.123722 135.068974 
L 145.660085 163.885209 
L 146.928267 175.389547 
L 148.196449 180.696321 
L 149.464631 180.271939 
L 150.732812 174.009323 
L 152.000994 160.555167 
L 154.537358 131.84151 
L 155.80554 121.419207 
L 157.073722 117.73045 
L 158.341903 120.658876 
L 159.610085 130.514416 
L 162.146449 159.333049 
L 163.414631 172.265441 
L 164.682812 179.666629 
L 165.950994 180.99216 
L 167.219176 176.807269 
L 168.487358 165.51088 
L 171.023722 136.189296 
L 172.291903 124.133306 
L 173.560085 118.155222 
L 174.828267 118.999602 
L 176.096449 126.51217 
L 179.900994 168.507393 
L 181.169176 177.993717 
L 182.437358 181.155024 
L 183.70554 178.833628 
L 184.973722 170.017349 
L 187.510085 140.738961 
L 188.778267 127.531486 
L 190.046449 119.305761 
L 191.314631 118.021589 
L 192.582812 123.271335 
L 193.850994 135.461246 
L 196.387358 164.26361 
L 197.65554 175.628013 
L 198.923722 180.761128 
L 200.191903 180.194221 
L 201.460085 173.744098 
L 203.996449 145.364196 
L 205.264631 131.481845 
L 206.532812 121.212869 
L 207.800994 117.714828 
L 209.069176 120.820037 
L 210.337358 130.873314 
L 212.873722 159.722427 
L 214.141903 172.55687 
L 215.410085 179.779729 
L 216.678267 180.961751 
L 217.946449 176.609691 
L 219.214631 165.109703 
L 221.750994 135.812255 
L 223.019176 123.872581 
L 224.287358 118.085954 
L 225.55554 119.105923 
L 226.823722 126.814841 
L 230.628267 168.844073 
L 231.896449 178.161248 
L 233.164631 181.165209 
L 234.432812 178.694482 
L 235.700994 169.670574 
L 238.237358 140.353882 
L 239.50554 127.221767 
L 240.773722 119.177734 
L 242.041903 118.073953 
L 243.310085 123.507951 
L 244.578267 135.855202 
L 247.114631 164.632054 
L 248.382812 175.853389 
L 249.650994 180.816787 
L 250.919176 180.1051 
L 252.187358 173.467487 
L 255.991903 131.134589 
L 257.260085 121.023318 
L 258.528267 117.71249 
L 259.796449 120.993101 
L 261.064631 131.238701 
L 263.600994 160.107453 
L 264.869176 172.838987 
L 266.137358 179.885287 
L 267.40554 180.919426 
L 268.673722 176.403474 
L 269.941903 164.705608 
L 272.478267 135.441213 
L 273.746449 123.622767 
L 275.014631 118.027511 
L 276.282812 119.220354 
L 277.550994 127.124483 
L 281.35554 169.174553 
L 282.623722 178.321828 
L 283.891903 181.170025 
L 285.160085 178.548386 
L 286.428267 169.317388 
L 288.964631 139.97146 
L 290.232812 126.919195 
L 291.500994 119.05802 
L 292.769176 118.13493 
L 294.037358 123.752224 
L 295.30554 136.250243 
L 297.841903 164.996737 
L 299.110085 176.072411 
L 300.378267 180.867793 
L 301.646449 180.01147 
L 302.914631 173.185456 
L 306.719176 130.791643 
L 307.987358 120.840679 
L 309.25554 117.716795 
L 310.523722 121.172406 
L 311.791903 131.607465 
L 314.328267 160.490971 
L 315.596449 173.11576 
L 316.864631 179.986123 
L 318.132812 180.872375 
L 319.400994 176.191479 
L 320.669176 164.299046 
L 323.20554 135.072627 
L 324.473722 123.378929 
L 325.741903 117.974608 
L 327.010085 119.340687 
L 328.278267 127.440038 
L 332.082812 169.501088 
L 333.350994 178.477307 
L 334.619176 181.169839 
L 335.887358 178.397505 
L 337.15554 168.959066 
L 339.691903 139.589978 
L 340.960085 126.621071 
L 342.228267 118.943791 
L 343.496449 118.199526 
L 344.764631 124.001361 
L 346.032812 136.646927 
L 348.569176 165.359037 
L 349.837358 176.286398 
L 351.10554 180.914412 
L 352.373722 179.914449 
L 353.641903 172.896602 
L 357.446449 130.451777 
L 358.714631 120.663288 
L 359.982812 117.726247 
L 361.250994 121.357484 
L 362.519176 131.979921 
L 365.05554 160.873294 
L 366.323722 173.38776 
L 367.591903 180.082616 
L 368.860085 180.823763 
L 370.128267 175.973662 
L 371.396449 163.890211 
L 372.664631 148.849761 
L 372.664631 148.849761 
" style="fill:none;stroke:#ff7f0e;stroke-dasharray:5.55,2.4;stroke-dashoffset:0;stroke-width:1.5;"/>
   </g>
   <g id="line2d_35">
    <path clip-path="url(#p12d7279287)" d="M 68.300994 145.446605 
L 69.569176 146.897725 
L 70.837358 150.479792 
L 72.10554 152.748773 
L 73.373722 153.746232 
L 74.641903 152.069182 
L 75.910085 147.23504 
L 77.178267 146.640653 
L 78.446449 149.885645 
L 79.714631 151.975101 
L 80.982812 152.202554 
L 82.250994 152.775526 
L 83.519176 151.001682 
L 84.787358 145.977332 
L 86.05554 145.847808 
L 87.323722 149.30241 
L 88.591903 152.099396 
L 89.860085 153.447066 
L 91.128267 152.977385 
L 92.396449 148.576489 
L 93.664631 146.088712 
L 94.932813 148.689505 
L 96.200994 151.57278 
L 98.737358 152.495506 
L 100.00554 152.023105 
L 101.273722 147.280488 
L 102.541903 145.197143 
L 103.810085 148.039213 
L 105.078267 151.355912 
L 106.346449 153.045293 
L 107.614631 153.440456 
L 108.882812 150.224163 
L 110.150994 146.127639 
L 111.419176 147.512098 
L 112.687358 150.894316 
L 113.95554 151.973551 
L 116.491903 152.51086 
L 117.760085 149.025953 
L 119.028267 145.088716 
L 120.296449 146.812207 
L 121.564631 150.440827 
L 122.832813 152.587747 
L 124.100994 153.521072 
L 125.369176 151.725347 
L 126.637358 146.884098 
L 127.90554 146.556999 
L 129.173722 149.918536 
L 130.441903 151.87097 
L 131.710085 152.002475 
L 132.978267 152.572764 
L 134.246449 150.677348 
L 135.514631 145.681591 
L 136.782812 145.792221 
L 138.050994 149.334342 
L 139.319176 152.051812 
L 140.587358 153.33971 
L 141.85554 152.784487 
L 143.123722 148.293543 
L 144.391903 146.007941 
L 146.928267 151.564128 
L 149.464631 152.393943 
L 150.732812 151.842114 
L 152.000994 147.019497 
L 153.269176 145.144726 
L 154.537358 148.101163 
L 155.80554 151.375657 
L 157.073722 153.007574 
L 158.341903 153.344052 
L 159.610085 150.005462 
L 160.878267 146.027283 
L 162.146449 147.571925 
L 163.414631 150.942063 
L 164.682812 151.925398 
L 167.219176 152.423643 
L 169.75554 145.015487 
L 171.023722 146.878696 
L 172.291903 150.50192 
L 173.560085 152.591252 
L 174.828267 153.484335 
L 176.096449 151.572564 
L 177.364631 146.748987 
L 178.632812 146.598804 
L 179.900994 149.999147 
L 181.169176 151.862578 
L 182.437358 151.975127 
L 183.70554 152.542142 
L 184.973722 150.519027 
L 186.241903 145.566194 
L 187.510085 145.843721 
L 188.778267 149.420836 
L 190.046449 152.083008 
L 191.314631 153.34018 
L 192.582812 152.694405 
L 193.850994 148.132998 
L 195.119176 146.016849 
L 197.65554 151.591768 
L 198.923722 151.912656 
L 200.191903 152.392537 
L 201.460085 151.748506 
L 202.728267 146.86281 
L 203.996449 145.166475 
L 206.532812 151.431039 
L 207.800994 153.026266 
L 209.069176 153.302761 
L 210.337358 149.849838 
L 211.60554 145.988427 
L 212.873722 147.659556 
L 214.141903 151.00309 
L 215.410085 151.916792 
L 217.946449 152.384659 
L 220.482812 144.993099 
L 221.750994 146.97073 
L 223.019176 150.57897 
L 224.287358 152.622561 
L 225.55554 153.477783 
L 226.823722 151.449532 
L 228.091903 146.653902 
L 229.360085 146.663147 
L 230.628267 150.086094 
L 231.896449 151.869906 
L 233.164631 151.979558 
L 234.432812 152.539116 
L 235.700994 150.385053 
L 236.969176 145.485247 
L 238.237358 145.914685 
L 239.50554 149.51548 
L 240.773722 152.126695 
L 242.041903 153.356215 
L 243.310085 152.61729 
L 244.578267 147.995055 
L 245.846449 146.043439 
L 248.382812 151.623793 
L 249.650994 151.910828 
L 250.919176 152.406022 
L 252.187358 151.66549 
L 253.45554 146.726808 
L 254.723722 145.203284 
L 257.260085 151.490594 
L 258.528267 153.054765 
L 259.796449 153.268649 
L 262.332812 145.963923 
L 263.600994 147.752802 
L 264.869176 151.064525 
L 266.137358 151.914711 
L 268.673722 152.351019 
L 269.941903 148.486123 
L 271.210085 144.982974 
L 272.478267 147.06795 
L 273.746449 150.657501 
L 275.014631 152.657875 
L 276.282812 153.47604 
L 277.550994 151.329032 
L 278.819176 146.569766 
L 280.087358 146.733293 
L 281.35554 150.172669 
L 282.623722 151.878767 
L 283.891903 151.990122 
L 285.160085 152.539021 
L 286.428267 150.253 
L 287.696449 145.414435 
L 288.964631 145.99096 
L 290.232812 149.61068 
L 291.500994 152.171825 
L 292.769176 153.372634 
L 294.037358 152.539209 
L 295.30554 147.863054 
L 296.573722 146.07617 
L 297.841903 149.04093 
L 299.110085 151.654821 
L 300.378267 151.91238 
L 301.646449 152.42249 
L 302.914631 151.581318 
L 304.182812 146.597964 
L 305.450994 145.245215 
L 307.987358 151.549923 
L 309.25554 153.083641 
L 310.523722 153.232843 
L 313.060085 145.945793 
L 314.328267 147.847912 
L 315.596449 151.124104 
L 316.864631 151.913781 
L 318.132812 152.194828 
L 319.400994 152.314989 
L 320.669176 148.331779 
L 321.937358 144.978495 
L 323.20554 147.166861 
L 324.473722 150.734744 
L 325.741903 152.693572 
L 327.010085 153.472489 
L 328.278267 151.206486 
L 329.546449 146.491199 
L 330.814631 146.806507 
L 332.082812 150.257837 
L 333.350994 151.886782 
L 334.619176 152.001183 
L 335.887358 152.537484 
L 337.15554 150.118439 
L 338.423722 145.349783 
L 339.691903 146.069985 
L 340.960085 149.705042 
L 342.228267 152.216718 
L 343.496449 153.38985 
L 344.764631 152.458818 
L 346.032812 147.734749 
L 347.300994 146.112813 
L 348.569176 149.140127 
L 349.837358 151.683873 
L 351.10554 151.914727 
L 352.373722 152.439477 
L 353.641903 151.493033 
L 354.910085 146.472955 
L 356.178267 145.290909 
L 358.714631 151.608408 
L 359.982812 153.112035 
L 361.250994 153.19395 
L 363.787358 145.932547 
L 365.05554 147.944174 
L 366.323722 151.181376 
L 367.591903 151.912921 
L 368.860085 152.215237 
L 370.128267 152.275623 
L 371.396449 148.178173 
L 372.664631 144.978619 
L 372.664631 144.978619 
" style="fill:none;stroke:#2ca02c;stroke-dasharray:5.55,2.4;stroke-dashoffset:0;stroke-width:1.5;"/>
   </g>
   <g id="line2d_36">
    <path clip-path="url(#p12d7279287)" d="M 68.300994 146.827382 
L 69.569176 134.125794 
L 70.837358 125.503659 
L 72.10554 121.385344 
L 73.373722 122.823896 
L 74.641903 128.16679 
L 75.910085 136.717507 
L 77.178267 150.513374 
L 78.446449 167.635153 
L 79.714631 179.571211 
L 80.982812 183.305451 
L 82.250994 181.843679 
L 83.519176 171.724389 
L 84.787358 152.08379 
L 86.05554 137.518525 
L 87.323722 127.679083 
L 88.591903 121.889943 
L 89.860085 121.565877 
L 91.128267 125.937462 
L 92.396449 133.321009 
L 93.664631 145.340263 
L 94.932813 162.205 
L 96.200994 176.727129 
L 97.469176 182.686449 
L 98.737358 182.86426 
L 100.00554 176.325723 
L 102.541903 141.438966 
L 103.810085 130.360192 
L 105.078267 123.111231 
L 106.346449 120.911584 
L 107.614631 124.045488 
L 108.882812 130.455957 
L 110.150994 140.738638 
L 112.687358 172.892737 
L 113.95554 181.561831 
L 115.223722 183.262747 
L 116.491903 179.551534 
L 117.760085 164.997116 
L 119.028267 145.962969 
L 120.296449 133.46668 
L 121.564631 124.935038 
L 122.832813 120.909389 
L 124.100994 122.505083 
L 125.369176 128.013831 
L 126.637358 136.776955 
L 127.90554 150.881258 
L 129.173722 168.128566 
L 130.441903 179.739197 
L 131.710085 183.194522 
L 132.978267 181.589459 
L 134.246449 171.091565 
L 135.514631 151.326231 
L 136.782812 136.988595 
L 138.050994 127.257854 
L 139.319176 121.56901 
L 140.587358 121.389988 
L 141.85554 125.895597 
L 143.123722 133.42178 
L 144.391903 145.669638 
L 145.660085 162.69346 
L 146.928267 177.012938 
L 148.196449 182.685483 
L 149.464631 182.725144 
L 150.732812 175.910699 
L 153.269176 140.960456 
L 154.537358 130.001936 
L 155.80554 122.854127 
L 157.073722 120.797286 
L 158.341903 124.06219 
L 159.610085 130.57914 
L 160.878267 141.035673 
L 163.414631 173.266766 
L 164.682812 181.651291 
L 165.950994 183.202337 
L 167.219176 179.290176 
L 168.487358 164.376927 
L 169.75554 145.480875 
L 171.023722 133.127255 
L 172.291903 124.694489 
L 173.560085 120.805736 
L 174.828267 122.5432 
L 176.096449 128.143997 
L 177.364631 137.040463 
L 178.632812 151.322798 
L 179.900994 168.565803 
L 181.169176 179.915557 
L 182.437358 183.189413 
L 183.70554 181.435032 
L 184.973722 170.595638 
L 186.241903 150.796478 
L 187.510085 136.641945 
L 188.778267 127.011585 
L 190.046449 121.448033 
L 191.314631 121.421032 
L 192.582812 126.025004 
L 193.850994 133.653507 
L 195.119176 146.069283 
L 196.387358 163.16542 
L 197.65554 177.279043 
L 198.923722 182.733047 
L 200.191903 182.646021 
L 201.460085 175.551867 
L 202.728267 157.05619 
L 203.996449 140.589933 
L 205.264631 129.739495 
L 206.532812 122.70317 
L 207.800994 120.800356 
L 209.069176 124.182059 
L 210.337358 130.782415 
L 211.60554 141.386244 
L 214.141903 173.619222 
L 215.410085 181.755784 
L 216.678267 183.182867 
L 217.946449 179.053612 
L 219.214631 163.811081 
L 220.482812 145.066283 
L 221.750994 132.842247 
L 223.019176 124.510814 
L 224.287358 120.767777 
L 225.55554 122.642968 
L 226.823722 128.323636 
L 228.091903 137.341241 
L 229.360085 151.778164 
L 230.628267 168.98943 
L 231.896449 180.090417 
L 233.164631 183.204029 
L 234.432812 181.292862 
L 235.700994 170.11489 
L 236.969176 150.310233 
L 238.237358 136.32783 
L 239.50554 126.796509 
L 240.773722 121.363691 
L 242.041903 121.489431 
L 243.310085 126.184504 
L 244.578267 133.90952 
L 245.846449 146.483735 
L 247.114631 163.632812 
L 248.382812 177.536445 
L 249.650994 182.786879 
L 250.919176 182.570386 
L 252.187358 175.192238 
L 253.45554 156.501586 
L 254.723722 140.240213 
L 255.991903 129.495038 
L 257.260085 122.573175 
L 258.528267 120.826518 
L 259.796449 124.321013 
L 261.064631 131.001604 
L 262.332812 141.749709 
L 264.869176 173.962774 
L 266.137358 181.859261 
L 267.40554 183.156368 
L 268.673722 178.813755 
L 269.941903 163.250994 
L 271.210085 144.667086 
L 272.478267 132.568426 
L 273.746449 124.33953 
L 275.014631 120.744648 
L 276.282812 122.755657 
L 277.550994 128.512778 
L 278.819176 137.65252 
L 280.087358 152.237781 
L 281.35554 169.406484 
L 282.623722 180.259857 
L 283.891903 183.21941 
L 285.160085 181.14667 
L 286.428267 169.629652 
L 287.696449 149.837279 
L 288.964631 136.021682 
L 290.232812 126.589138 
L 291.500994 121.289108 
L 292.769176 121.566827 
L 294.037358 126.350695 
L 295.30554 134.17256 
L 296.573722 146.903796 
L 297.841903 164.09693 
L 299.110085 177.786494 
L 300.378267 182.839436 
L 301.646449 182.493223 
L 302.914631 174.826035 
L 304.182812 155.954985 
L 305.450994 139.896921 
L 306.719176 129.255699 
L 307.987358 122.449865 
L 309.25554 120.859698 
L 310.523722 124.464513 
L 311.791903 131.224831 
L 313.060085 142.119027 
L 315.596449 174.299127 
L 316.864631 181.959166 
L 318.132812 183.126467 
L 319.400994 178.56573 
L 320.669176 162.690087 
L 321.937358 144.274772 
L 323.20554 132.29875 
L 324.473722 124.172937 
L 325.741903 120.727442 
L 327.010085 122.87244 
L 328.278267 128.705788 
L 329.546449 137.968226 
L 330.814631 152.700241 
L 332.082812 169.818187 
L 333.350994 180.423351 
L 334.619176 183.230285 
L 335.887358 180.994253 
L 337.15554 169.136768 
L 338.423722 149.371968 
L 339.691903 135.719225 
L 340.960085 126.385375 
L 342.228267 121.219773 
L 343.496449 121.648639 
L 344.764631 126.519443 
L 346.032812 134.440939 
L 347.300994 147.327904 
L 348.569176 164.558427 
L 349.837358 178.029535 
L 351.10554 182.888402 
L 352.373722 182.413189 
L 353.641903 174.448897 
L 354.910085 155.413758 
L 356.178267 139.557408 
L 357.446449 129.019393 
L 358.714631 122.330959 
L 359.982812 120.897544 
L 361.250994 124.610696 
L 362.519176 131.452442 
L 363.787358 142.492721 
L 366.323722 174.628399 
L 367.591903 182.0548 
L 368.860085 183.098263 
L 370.128267 178.308547 
L 371.396449 162.127648 
L 372.664631 143.887643 
L 372.664631 143.887643 
" style="fill:none;stroke:#d62728;stroke-dasharray:5.55,2.4;stroke-dashoffset:0;stroke-width:1.5;"/>
   </g>
   <g id="patch_9">
    <path d="M 53.082813 188.470341 
L 53.082813 114.343068 
" style="fill:none;stroke:#000000;stroke-linecap:square;stroke-linejoin:miter;stroke-width:0.8;"/>
   </g>
   <g id="patch_10">
    <path d="M 387.882812 188.470341 
L 387.882812 114.343068 
" style="fill:none;stroke:#000000;stroke-linecap:square;stroke-linejoin:miter;stroke-width:0.8;"/>
   </g>
   <g id="patch_11">
    <path d="M 53.082812 188.470341 
L 387.882812 188.470341 
" style="fill:none;stroke:#000000;stroke-linecap:square;stroke-linejoin:miter;stroke-width:0.8;"/>
   </g>
   <g id="patch_12">
    <path d="M 53.082812 114.343068 
L 387.882812 114.343068 
" style="fill:none;stroke:#000000;stroke-linecap:square;stroke-linejoin:miter;stroke-width:0.8;"/>
   </g>
  </g>
 </g>
 <defs>
  <clipPath id="p8823ece78e">
   <rect height="74.127273" width="334.8" x="53.082813" y="25.390341"/>
  </clipPath>
  <clipPath id="p12d7279287">
   <rect height="74.127273" width="334.8" x="53.082813" y="114.343068"/>
  </clipPath>
 </defs>
</svg>
