<?xml version="1.0" encoding="utf-8" standalone="no"?>
<!DOCTYPE svg PUBLIC "-//W3C//DTD SVG 1.1//EN"
  "http://www.w3.org/Graphics/SVG/1.1/DTD/svg11.dtd">
<!-- Created with matplotlib (https://matplotlib.org/) -->
<svg height="262.19625pt" version="1.1" viewBox="0 0 286.023321 262.19625" width="286.023321pt" xmlns="http://www.w3.org/2000/svg" xmlns:xlink="http://www.w3.org/1999/xlink">
 <metadata>
  <rdf:RDF xmlns:cc="http://creativecommons.org/ns#" xmlns:dc="http://purl.org/dc/elements/1.1/" xmlns:rdf="http://www.w3.org/1999/02/22-rdf-syntax-ns#">
   <cc:Work>
    <dc:type rdf:resource="http://purl.org/dc/dcmitype/StillImage"/>
    <dc:date>2022-01-19T10:11:41.896718</dc:date>
    <dc:format>image/svg+xml</dc:format>
    <dc:creator>
     <cc:Agent>
      <dc:title>Matplotlib v3.3.3, https://matplotlib.org/</dc:title>
     </cc:Agent>
    </dc:creator>
   </cc:Work>
  </rdf:RDF>
 </metadata>
 <defs>
  <style type="text/css">*{stroke-linecap:butt;stroke-linejoin:round;}</style>
 </defs>
 <g id="figure_1">
  <g id="patch_1">
   <path d="M -0 262.19625 
L 286.023321 262.19625 
L 286.023321 0 
L -0 0 
z
" style="fill:none;"/>
  </g>
  <g id="axes_1">
   <g id="patch_2">
    <path d="M 52.160938 224.64 
L 278.823321 224.64 
L 278.823321 7.2 
L 52.160938 7.2 
z
" style="fill:#ffffff;"/>
   </g>
   <g id="PathCollection_1">
    <path clip-path="url(#p4a26a0992b)" d="M 163.120192 24.16857 
L 169.120192 18.16857 
M 163.120192 18.16857 
L 169.120192 24.16857 
" style="fill:#bb0000;stroke:#bb0000;stroke-width:1.5;"/>
    <path clip-path="url(#p4a26a0992b)" d="M 160.726109 31.81134 
L 166.726109 25.81134 
M 160.726109 25.81134 
L 166.726109 31.81134 
" style="fill:#bb0000;stroke:#bb0000;stroke-width:1.5;"/>
    <path clip-path="url(#p4a26a0992b)" d="M 175.194433 22.682165 
L 181.194433 16.682165 
M 175.194433 16.682165 
L 181.194433 22.682165 
" style="fill:#bb0000;stroke:#bb0000;stroke-width:1.5;"/>
    <path clip-path="url(#p4a26a0992b)" d="M 180.261846 23.116564 
L 186.261846 17.116564 
M 180.261846 17.116564 
L 186.261846 23.116564 
" style="fill:#ffd300;stroke:#ffd300;stroke-width:1.5;"/>
    <path clip-path="url(#p4a26a0992b)" d="M 187.666544 30.102047 
L 193.666544 24.102047 
M 187.666544 24.102047 
L 193.666544 30.102047 
" style="fill:#ffd300;stroke:#ffd300;stroke-width:1.5;"/>
    <path clip-path="url(#p4a26a0992b)" d="M 199.153477 30.272571 
L 205.153477 24.272571 
M 199.153477 24.272571 
L 205.153477 30.272571 
" style="fill:#ffd300;stroke:#ffd300;stroke-width:1.5;"/>
    <path clip-path="url(#p4a26a0992b)" d="M 192.182277 31.736088 
L 198.182277 25.736088 
M 192.182277 25.736088 
L 198.182277 31.736088 
" style="fill:#ffd300;stroke:#ffd300;stroke-width:1.5;"/>
    <path clip-path="url(#p4a26a0992b)" d="M 203.112695 24.084026 
L 209.112695 18.084026 
M 203.112695 18.084026 
L 209.112695 24.084026 
" style="fill:#ffd300;stroke:#ffd300;stroke-width:1.5;"/>
    <path clip-path="url(#p4a26a0992b)" d="M 207.1575 37.87603 
L 213.1575 31.87603 
M 207.1575 31.87603 
L 213.1575 37.87603 
" style="fill:#0000f6;stroke:#0000f6;stroke-width:1.5;"/>
    <path clip-path="url(#p4a26a0992b)" d="M 208.351324 35.628555 
L 214.351324 29.628555 
M 208.351324 29.628555 
L 214.351324 35.628555 
" style="fill:#0000f6;stroke:#0000f6;stroke-width:1.5;"/>
    <path clip-path="url(#p4a26a0992b)" d="M 216.207515 46.045129 
L 222.207515 40.045129 
M 216.207515 40.045129 
L 222.207515 46.045129 
" style="fill:#0000f6;stroke:#0000f6;stroke-width:1.5;"/>
    <path clip-path="url(#p4a26a0992b)" d="M 222.363722 47.178903 
L 228.363722 41.178903 
M 222.363722 41.178903 
L 228.363722 47.178903 
" style="fill:#0000f6;stroke:#0000f6;stroke-width:1.5;"/>
    <path clip-path="url(#p4a26a0992b)" d="M 223.110151 54.183954 
L 229.110151 48.183954 
M 223.110151 48.183954 
L 229.110151 54.183954 
" style="fill:#0000f6;stroke:#0000f6;stroke-width:1.5;"/>
    <path clip-path="url(#p4a26a0992b)" d="M 225.571009 51.966758 
L 231.571009 45.966758 
M 225.571009 45.966758 
L 231.571009 51.966758 
" style="fill:#0000f6;stroke:#0000f6;stroke-width:1.5;"/>
    <path clip-path="url(#p4a26a0992b)" d="M 236.979245 59.241926 
L 242.979245 53.241926 
M 236.979245 53.241926 
L 242.979245 59.241926 
" style="fill:#66ff90;stroke:#66ff90;stroke-width:1.5;"/>
    <path clip-path="url(#p4a26a0992b)" d="M 240.248544 68.14055 
L 246.248544 62.14055 
M 240.248544 62.14055 
L 246.248544 68.14055 
" style="fill:#66ff90;stroke:#66ff90;stroke-width:1.5;"/>
    <path clip-path="url(#p4a26a0992b)" d="M 249.313586 58.792332 
L 255.313586 52.792332 
M 249.313586 52.792332 
L 255.313586 58.792332 
" style="fill:#66ff90;stroke:#66ff90;stroke-width:1.5;"/>
    <path clip-path="url(#p4a26a0992b)" d="M 246.809956 67.367048 
L 252.809956 61.367048 
M 246.809956 61.367048 
L 252.809956 67.367048 
" style="fill:#66ff90;stroke:#66ff90;stroke-width:1.5;"/>
    <path clip-path="url(#p4a26a0992b)" d="M 244.428168 71.444748 
L 250.428168 65.444748 
M 244.428168 65.444748 
L 250.428168 71.444748 
" style="fill:#66ff90;stroke:#66ff90;stroke-width:1.5;"/>
    <path clip-path="url(#p4a26a0992b)" d="M 250.171247 88.266753 
L 256.171247 82.266753 
M 250.171247 82.266753 
L 256.171247 88.266753 
" style="fill:#beff39;stroke:#beff39;stroke-width:1.5;"/>
    <path clip-path="url(#p4a26a0992b)" d="M 252.213044 81.919835 
L 258.213044 75.919835 
M 252.213044 75.919835 
L 258.213044 81.919835 
" style="fill:#beff39;stroke:#beff39;stroke-width:1.5;"/>
    <path clip-path="url(#p4a26a0992b)" d="M 249.156431 99.594821 
L 255.156431 93.594821 
M 249.156431 93.594821 
L 255.156431 99.594821 
" style="fill:#beff39;stroke:#beff39;stroke-width:1.5;"/>
    <path clip-path="url(#p4a26a0992b)" d="M 252.912221 99.569656 
L 258.912221 93.569656 
M 252.912221 93.569656 
L 258.912221 99.569656 
" style="fill:#beff39;stroke:#beff39;stroke-width:1.5;"/>
    <path clip-path="url(#p4a26a0992b)" d="M 249.692232 107.194888 
L 255.692232 101.194888 
M 249.692232 101.194888 
L 255.692232 107.194888 
" style="fill:#beff39;stroke:#beff39;stroke-width:1.5;"/>
    <path clip-path="url(#p4a26a0992b)" d="M 252.785085 115.255764 
L 258.785085 109.255764 
M 252.785085 109.255764 
L 258.785085 115.255764 
" style="fill:#00c0ff;stroke:#00c0ff;stroke-width:1.5;"/>
    <path clip-path="url(#p4a26a0992b)" d="M 265.520485 117.734298 
L 271.520485 111.734298 
M 265.520485 111.734298 
L 271.520485 117.734298 
" style="fill:#00c0ff;stroke:#00c0ff;stroke-width:1.5;"/>
    <path clip-path="url(#p4a26a0992b)" d="M 252.873424 119.619441 
L 258.873424 113.619441 
M 252.873424 113.619441 
L 258.873424 119.619441 
" style="fill:#00c0ff;stroke:#00c0ff;stroke-width:1.5;"/>
    <path clip-path="url(#p4a26a0992b)" d="M 251.642585 129.315354 
L 257.642585 123.315354 
M 251.642585 123.315354 
L 257.642585 129.315354 
" style="fill:#00c0ff;stroke:#00c0ff;stroke-width:1.5;"/>
    <path clip-path="url(#p4a26a0992b)" d="M 257.59869 138.493369 
L 263.59869 132.493369 
M 257.59869 132.493369 
L 263.59869 138.493369 
" style="fill:#00c0ff;stroke:#00c0ff;stroke-width:1.5;"/>
    <path clip-path="url(#p4a26a0992b)" d="M 250.89062 146.804829 
L 256.89062 140.804829 
M 250.89062 140.804829 
L 256.89062 146.804829 
" style="fill:#000080;stroke:#000080;stroke-width:1.5;"/>
    <path clip-path="url(#p4a26a0992b)" d="M 250.8235 156.372724 
L 256.8235 150.372724 
M 250.8235 150.372724 
L 256.8235 156.372724 
" style="fill:#000080;stroke:#000080;stroke-width:1.5;"/>
    <path clip-path="url(#p4a26a0992b)" d="M 254.711702 161.725421 
L 260.711702 155.725421 
M 254.711702 155.725421 
L 260.711702 161.725421 
" style="fill:#000080;stroke:#000080;stroke-width:1.5;"/>
    <path clip-path="url(#p4a26a0992b)" d="M 247.933114 161.129934 
L 253.933114 155.129934 
M 247.933114 155.129934 
L 253.933114 161.129934 
" style="fill:#000080;stroke:#000080;stroke-width:1.5;"/>
    <path clip-path="url(#p4a26a0992b)" d="M 240.114186 163.183712 
L 246.114186 157.183712 
M 240.114186 157.183712 
L 246.114186 163.183712 
" style="fill:#000080;stroke:#000080;stroke-width:1.5;"/>
    <path clip-path="url(#p4a26a0992b)" d="M 239.596805 172.715581 
L 245.596805 166.715581 
M 239.596805 166.715581 
L 245.596805 172.715581 
" style="fill:#000080;stroke:#000080;stroke-width:1.5;"/>
    <path clip-path="url(#p4a26a0992b)" d="M 238.600109 174.746072 
L 244.600109 168.746072 
M 238.600109 168.746072 
L 244.600109 174.746072 
" style="fill:#000080;stroke:#000080;stroke-width:1.5;"/>
    <path clip-path="url(#p4a26a0992b)" d="M 232.975728 182.348214 
L 238.975728 176.348214 
M 232.975728 176.348214 
L 238.975728 182.348214 
" style="fill:#ff3f00;stroke:#ff3f00;stroke-width:1.5;"/>
    <path clip-path="url(#p4a26a0992b)" d="M 226.685814 184.10378 
L 232.685814 178.10378 
M 226.685814 178.10378 
L 232.685814 184.10378 
" style="fill:#ff3f00;stroke:#ff3f00;stroke-width:1.5;"/>
    <path clip-path="url(#p4a26a0992b)" d="M 223.098178 195.87735 
L 229.098178 189.87735 
M 223.098178 189.87735 
L 229.098178 195.87735 
" style="fill:#ff3f00;stroke:#ff3f00;stroke-width:1.5;"/>
    <path clip-path="url(#p4a26a0992b)" d="M 221.874505 203.893886 
L 227.874505 197.893886 
M 221.874505 197.893886 
L 227.874505 203.893886 
" style="fill:#ff3f00;stroke:#ff3f00;stroke-width:1.5;"/>
    <path clip-path="url(#p4a26a0992b)" d="M 217.5422 192.960558 
L 223.5422 186.960558 
M 217.5422 186.960558 
L 223.5422 192.960558 
" style="fill:#ff3f00;stroke:#ff3f00;stroke-width:1.5;"/>
    <path clip-path="url(#p4a26a0992b)" d="M 216.050626 202.884409 
L 222.050626 196.884409 
M 216.050626 196.884409 
L 222.050626 202.884409 
" style="fill:#ff3f00;stroke:#ff3f00;stroke-width:1.5;"/>
    <path clip-path="url(#p4a26a0992b)" d="M 194.901833 201.372063 
L 200.901833 195.372063 
M 194.901833 195.372063 
L 200.901833 201.372063 
" style="fill:#008cff;stroke:#008cff;stroke-width:1.5;"/>
    <path clip-path="url(#p4a26a0992b)" d="M 199.194024 205.690043 
L 205.194024 199.690043 
M 199.194024 199.690043 
L 205.194024 205.690043 
" style="fill:#008cff;stroke:#008cff;stroke-width:1.5;"/>
    <path clip-path="url(#p4a26a0992b)" d="M 187.665223 210.565857 
L 193.665223 204.565857 
M 187.665223 204.565857 
L 193.665223 210.565857 
" style="fill:#008cff;stroke:#008cff;stroke-width:1.5;"/>
    <path clip-path="url(#p4a26a0992b)" d="M 181.69557 198.985869 
L 187.69557 192.985869 
M 181.69557 192.985869 
L 187.69557 198.985869 
" style="fill:#008cff;stroke:#008cff;stroke-width:1.5;"/>
    <path clip-path="url(#p4a26a0992b)" d="M 179.839408 205.302319 
L 185.839408 199.302319 
M 179.839408 199.302319 
L 185.839408 205.302319 
" style="fill:#008cff;stroke:#008cff;stroke-width:1.5;"/>
    <path clip-path="url(#p4a26a0992b)" d="M 171.844413 211.536193 
L 177.844413 205.536193 
M 171.844413 205.536193 
L 177.844413 211.536193 
" style="fill:#800000;stroke:#800000;stroke-width:1.5;"/>
    <path clip-path="url(#p4a26a0992b)" d="M 172.967037 208.217522 
L 178.967037 202.217522 
M 172.967037 202.217522 
L 178.967037 208.217522 
" style="fill:#800000;stroke:#800000;stroke-width:1.5;"/>
    <path clip-path="url(#p4a26a0992b)" d="M 162.601739 212.629077 
L 168.601739 206.629077 
M 162.601739 206.629077 
L 168.601739 212.629077 
" style="fill:#800000;stroke:#800000;stroke-width:1.5;"/>
    <path clip-path="url(#p4a26a0992b)" d="M 161.237688 211.358803 
L 167.237688 205.358803 
M 161.237688 205.358803 
L 167.237688 211.358803 
" style="fill:#800000;stroke:#800000;stroke-width:1.5;"/>
    <path clip-path="url(#p4a26a0992b)" d="M 151.269583 217.756364 
L 157.269583 211.756364 
M 151.269583 211.756364 
L 157.269583 217.756364 
" style="fill:#800000;stroke:#800000;stroke-width:1.5;"/>
    <path clip-path="url(#p4a26a0992b)" d="M 143.154756 214.663714 
L 149.154756 208.663714 
M 143.154756 208.663714 
L 149.154756 214.663714 
" style="fill:#0020ff;stroke:#0020ff;stroke-width:1.5;"/>
    <path clip-path="url(#p4a26a0992b)" d="M 143.746049 205.096318 
L 149.746049 199.096318 
M 143.746049 199.096318 
L 149.746049 205.096318 
" style="fill:#0020ff;stroke:#0020ff;stroke-width:1.5;"/>
    <path clip-path="url(#p4a26a0992b)" d="M 132.000242 208.241642 
L 138.000242 202.241642 
M 132.000242 202.241642 
L 138.000242 208.241642 
" style="fill:#0020ff;stroke:#0020ff;stroke-width:1.5;"/>
    <path clip-path="url(#p4a26a0992b)" d="M 142.385993 208.776805 
L 148.385993 202.776805 
M 142.385993 202.776805 
L 148.385993 208.776805 
" style="fill:#0020ff;stroke:#0020ff;stroke-width:1.5;"/>
    <path clip-path="url(#p4a26a0992b)" d="M 131.33644 204.827478 
L 137.33644 198.827478 
M 131.33644 198.827478 
L 137.33644 204.827478 
" style="fill:#0020ff;stroke:#0020ff;stroke-width:1.5;"/>
    <path clip-path="url(#p4a26a0992b)" d="M 113.646145 202.484628 
L 119.646145 196.484628 
M 113.646145 196.484628 
L 119.646145 202.484628 
" style="fill:#e7ff0f;stroke:#e7ff0f;stroke-width:1.5;"/>
    <path clip-path="url(#p4a26a0992b)" d="M 117.284289 193.959081 
L 123.284289 187.959081 
M 117.284289 187.959081 
L 123.284289 193.959081 
" style="fill:#e7ff0f;stroke:#e7ff0f;stroke-width:1.5;"/>
    <path clip-path="url(#p4a26a0992b)" d="M 106.664569 197.912756 
L 112.664569 191.912756 
M 106.664569 191.912756 
L 112.664569 197.912756 
" style="fill:#e7ff0f;stroke:#e7ff0f;stroke-width:1.5;"/>
    <path clip-path="url(#p4a26a0992b)" d="M 106.235521 190.073418 
L 112.235521 184.073418 
M 106.235521 184.073418 
L 112.235521 190.073418 
" style="fill:#e7ff0f;stroke:#e7ff0f;stroke-width:1.5;"/>
    <path clip-path="url(#p4a26a0992b)" d="M 94.767783 195.787485 
L 100.767783 189.787485 
M 94.767783 189.787485 
L 100.767783 195.787485 
" style="fill:#ffa300;stroke:#ffa300;stroke-width:1.5;"/>
    <path clip-path="url(#p4a26a0992b)" d="M 91.310332 188.143572 
L 97.310332 182.143572 
M 91.310332 182.143572 
L 97.310332 188.143572 
" style="fill:#ffa300;stroke:#ffa300;stroke-width:1.5;"/>
    <path clip-path="url(#p4a26a0992b)" d="M 93.235948 178.649493 
L 99.235948 172.649493 
M 93.235948 172.649493 
L 99.235948 178.649493 
" style="fill:#ffa300;stroke:#ffa300;stroke-width:1.5;"/>
    <path clip-path="url(#p4a26a0992b)" d="M 88.911142 179.344039 
L 94.911142 173.344039 
M 88.911142 173.344039 
L 94.911142 179.344039 
" style="fill:#ffa300;stroke:#ffa300;stroke-width:1.5;"/>
    <path clip-path="url(#p4a26a0992b)" d="M 71.767987 171.128197 
L 77.767987 165.128197 
M 71.767987 165.128197 
L 77.767987 171.128197 
" style="fill:#0ff8e7;stroke:#0ff8e7;stroke-width:1.5;"/>
    <path clip-path="url(#p4a26a0992b)" d="M 85.669668 164.447048 
L 91.669668 158.447048 
M 85.669668 158.447048 
L 91.669668 164.447048 
" style="fill:#0ff8e7;stroke:#0ff8e7;stroke-width:1.5;"/>
    <path clip-path="url(#p4a26a0992b)" d="M 78.961151 158.59242 
L 84.961151 152.59242 
M 78.961151 152.59242 
L 84.961151 158.59242 
" style="fill:#0ff8e7;stroke:#0ff8e7;stroke-width:1.5;"/>
    <path clip-path="url(#p4a26a0992b)" d="M 70.06263 153.045614 
L 76.06263 147.045614 
M 70.06263 147.045614 
L 76.06263 153.045614 
" style="fill:#f60b00;stroke:#f60b00;stroke-width:1.5;"/>
    <path clip-path="url(#p4a26a0992b)" d="M 74.231485 146.367957 
L 80.231485 140.367957 
M 74.231485 140.367957 
L 80.231485 146.367957 
" style="fill:#f60b00;stroke:#f60b00;stroke-width:1.5;"/>
    <path clip-path="url(#p4a26a0992b)" d="M 67.337174 135.885015 
L 73.337174 129.885015 
M 67.337174 129.885015 
L 73.337174 135.885015 
" style="fill:#f60b00;stroke:#f60b00;stroke-width:1.5;"/>
    <path clip-path="url(#p4a26a0992b)" d="M 64.842768 136.558239 
L 70.842768 130.558239 
M 64.842768 130.558239 
L 70.842768 136.558239 
" style="fill:#f60b00;stroke:#f60b00;stroke-width:1.5;"/>
    <path clip-path="url(#p4a26a0992b)" d="M 59.463773 140.917702 
L 65.463773 134.917702 
M 59.463773 134.917702 
L 65.463773 140.917702 
" style="fill:#f60b00;stroke:#f60b00;stroke-width:1.5;"/>
    <path clip-path="url(#p4a26a0992b)" d="M 65.981728 125.90492 
L 71.981728 119.90492 
M 65.981728 119.90492 
L 71.981728 125.90492 
" style="fill:#f60b00;stroke:#f60b00;stroke-width:1.5;"/>
    <path clip-path="url(#p4a26a0992b)" d="M 64.61906 114.883495 
L 70.61906 108.883495 
M 64.61906 108.883495 
L 70.61906 114.883495 
" style="fill:#0000bb;stroke:#0000bb;stroke-width:1.5;"/>
    <path clip-path="url(#p4a26a0992b)" d="M 67.817659 113.708589 
L 73.817659 107.708589 
M 67.817659 107.708589 
L 73.817659 113.708589 
" style="fill:#0000bb;stroke:#0000bb;stroke-width:1.5;"/>
    <path clip-path="url(#p4a26a0992b)" d="M 73.410755 113.500794 
L 79.410755 107.500794 
M 73.410755 107.500794 
L 79.410755 113.500794 
" style="fill:#0000bb;stroke:#0000bb;stroke-width:1.5;"/>
    <path clip-path="url(#p4a26a0992b)" d="M 70.139878 104.555025 
L 76.139878 98.555025 
M 70.139878 98.555025 
L 76.139878 104.555025 
" style="fill:#0000bb;stroke:#0000bb;stroke-width:1.5;"/>
    <path clip-path="url(#p4a26a0992b)" d="M 69.518492 91.653064 
L 75.518492 85.653064 
M 69.518492 85.653064 
L 75.518492 91.653064 
" style="fill:#ff6f00;stroke:#ff6f00;stroke-width:1.5;"/>
    <path clip-path="url(#p4a26a0992b)" d="M 65.079541 86.372223 
L 71.079541 80.372223 
M 65.079541 80.372223 
L 71.079541 86.372223 
" style="fill:#ff6f00;stroke:#ff6f00;stroke-width:1.5;"/>
    <path clip-path="url(#p4a26a0992b)" d="M 69.853145 76.225189 
L 75.853145 70.225189 
M 69.853145 70.225189 
L 75.853145 76.225189 
" style="fill:#ff6f00;stroke:#ff6f00;stroke-width:1.5;"/>
    <path clip-path="url(#p4a26a0992b)" d="M 69.411965 77.748821 
L 75.411965 71.748821 
M 69.411965 71.748821 
L 75.411965 77.748821 
" style="fill:#ff6f00;stroke:#ff6f00;stroke-width:1.5;"/>
    <path clip-path="url(#p4a26a0992b)" d="M 79.708468 78.513625 
L 85.708468 72.513625 
M 79.708468 72.513625 
L 85.708468 78.513625 
" style="fill:#ff6f00;stroke:#ff6f00;stroke-width:1.5;"/>
    <path clip-path="url(#p4a26a0992b)" d="M 74.566302 57.629206 
L 80.566302 51.629206 
M 74.566302 51.629206 
L 80.566302 57.629206 
" style="fill:#0054ff;stroke:#0054ff;stroke-width:1.5;"/>
    <path clip-path="url(#p4a26a0992b)" d="M 80.544655 58.138382 
L 86.544655 52.138382 
M 80.544655 52.138382 
L 86.544655 58.138382 
" style="fill:#0054ff;stroke:#0054ff;stroke-width:1.5;"/>
    <path clip-path="url(#p4a26a0992b)" d="M 92.981484 62.33461 
L 98.981484 56.33461 
M 92.981484 56.33461 
L 98.981484 62.33461 
" style="fill:#0054ff;stroke:#0054ff;stroke-width:1.5;"/>
    <path clip-path="url(#p4a26a0992b)" d="M 95.144772 61.481479 
L 101.144772 55.481479 
M 95.144772 55.481479 
L 101.144772 61.481479 
" style="fill:#0054ff;stroke:#0054ff;stroke-width:1.5;"/>
    <path clip-path="url(#p4a26a0992b)" d="M 102.427039 48.435293 
L 108.427039 42.435293 
M 102.427039 42.435293 
L 108.427039 48.435293 
" style="fill:#90ff66;stroke:#90ff66;stroke-width:1.5;"/>
    <path clip-path="url(#p4a26a0992b)" d="M 96.437827 49.460436 
L 102.437827 43.460436 
M 96.437827 43.460436 
L 102.437827 49.460436 
" style="fill:#0054ff;stroke:#0054ff;stroke-width:1.5;"/>
    <path clip-path="url(#p4a26a0992b)" d="M 100.809755 31.926701 
L 106.809755 25.926701 
M 100.809755 25.926701 
L 106.809755 31.926701 
" style="fill:#90ff66;stroke:#90ff66;stroke-width:1.5;"/>
    <path clip-path="url(#p4a26a0992b)" d="M 111.794876 34.21592 
L 117.794876 28.21592 
M 111.794876 28.21592 
L 117.794876 34.21592 
" style="fill:#90ff66;stroke:#90ff66;stroke-width:1.5;"/>
    <path clip-path="url(#p4a26a0992b)" d="M 110.952049 28.646572 
L 116.952049 22.646572 
M 110.952049 22.646572 
L 116.952049 28.646572 
" style="fill:#90ff66;stroke:#90ff66;stroke-width:1.5;"/>
    <path clip-path="url(#p4a26a0992b)" d="M 122.216362 29.297265 
L 128.216362 23.297265 
M 122.216362 23.297265 
L 128.216362 29.297265 
" style="fill:#90ff66;stroke:#90ff66;stroke-width:1.5;"/>
    <path clip-path="url(#p4a26a0992b)" d="M 135.442723 37.665493 
L 141.442723 31.665493 
M 135.442723 31.665493 
L 141.442723 37.665493 
" style="fill:#39ffbe;stroke:#39ffbe;stroke-width:1.5;"/>
    <path clip-path="url(#p4a26a0992b)" d="M 130.888488 30.29646 
L 136.888488 24.29646 
M 130.888488 24.29646 
L 136.888488 30.29646 
" style="fill:#39ffbe;stroke:#39ffbe;stroke-width:1.5;"/>
    <path clip-path="url(#p4a26a0992b)" d="M 137.841274 20.798298 
L 143.841274 14.798298 
M 137.841274 14.798298 
L 143.841274 20.798298 
" style="fill:#39ffbe;stroke:#39ffbe;stroke-width:1.5;"/>
    <path clip-path="url(#p4a26a0992b)" d="M 141.034925 21.912826 
L 147.034925 15.912826 
M 141.034925 15.912826 
L 147.034925 21.912826 
" style="fill:#39ffbe;stroke:#39ffbe;stroke-width:1.5;"/>
    <path clip-path="url(#p4a26a0992b)" d="M 150.234805 25.265832 
L 156.234805 19.265832 
M 150.234805 19.265832 
L 156.234805 25.265832 
" style="fill:#39ffbe;stroke:#39ffbe;stroke-width:1.5;"/>
    <path clip-path="url(#p4a26a0992b)" d="M 151.439701 20.083636 
L 157.439701 14.083636 
M 151.439701 14.083636 
L 157.439701 20.083636 
" style="fill:#39ffbe;stroke:#39ffbe;stroke-width:1.5;"/>
    <path clip-path="url(#p4a26a0992b)" d="M 160.914311 22.960088 
L 166.914311 16.960088 
M 160.914311 16.960088 
L 166.914311 22.960088 
" style="fill:#bb0000;stroke:#bb0000;stroke-width:1.5;"/>
   </g>
   <g id="PathCollection_2">
    <defs>
     <path d="M 0 5 
C 1.326016 5 2.597899 4.473168 3.535534 3.535534 
C 4.473168 2.597899 5 1.326016 5 -0 
C 5 -1.326016 4.473168 -2.597899 3.535534 -3.535534 
C 2.597899 -4.473168 1.326016 -5 0 -5 
C -1.326016 -5 -2.597899 -4.473168 -3.535534 -3.535534 
C -4.473168 -2.597899 -5 -1.326016 -5 0 
C -5 1.326016 -4.473168 2.597899 -3.535534 3.535534 
C -2.597899 4.473168 -1.326016 5 0 5 
z
" id="C0_0_f0d2042f41"/>
    </defs>
    <g clip-path="url(#p4a26a0992b)">
     <use style="fill:#000080;stroke:#000080;" x="249.095718" xlink:href="#C0_0_f0d2042f41" y="159.382612"/>
    </g>
    <g clip-path="url(#p4a26a0992b)">
     <use style="fill:#0000bb;stroke:#0000bb;" x="71.996835" xlink:href="#C0_0_f0d2042f41" y="108.661976"/>
    </g>
    <g clip-path="url(#p4a26a0992b)">
     <use style="fill:#0000f6;stroke:#0000f6;" x="220.126872" xlink:href="#C0_0_f0d2042f41" y="42.479885"/>
    </g>
    <g clip-path="url(#p4a26a0992b)">
     <use style="fill:#0020ff;stroke:#0020ff;" x="141.524697" xlink:href="#C0_0_f0d2042f41" y="205.321198"/>
    </g>
    <g clip-path="url(#p4a26a0992b)">
     <use style="fill:#0054ff;stroke:#0054ff;" x="90.935009" xlink:href="#C0_0_f0d2042f41" y="54.808825"/>
    </g>
    <g clip-path="url(#p4a26a0992b)">
     <use style="fill:#008cff;stroke:#008cff;" x="191.659213" xlink:href="#C0_0_f0d2042f41" y="201.383228"/>
    </g>
    <g clip-path="url(#p4a26a0992b)">
     <use style="fill:#00c0ff;stroke:#00c0ff;" x="259.084058" xlink:href="#C0_0_f0d2042f41" y="121.083646"/>
    </g>
    <g clip-path="url(#p4a26a0992b)">
     <use style="fill:#0ff8e7;stroke:#0ff8e7;" x="81.799602" xlink:href="#C0_0_f0d2042f41" y="161.722555"/>
    </g>
    <g clip-path="url(#p4a26a0992b)">
     <use style="fill:#39ffbe;stroke:#39ffbe;" x="144.146986" xlink:href="#C0_0_f0d2042f41" y="23.003755"/>
    </g>
    <g clip-path="url(#p4a26a0992b)">
     <use style="fill:#66ff90;stroke:#66ff90;" x="246.555899" xlink:href="#C0_0_f0d2042f41" y="61.997317"/>
    </g>
    <g clip-path="url(#p4a26a0992b)">
     <use style="fill:#90ff66;stroke:#90ff66;" x="112.640014" xlink:href="#C0_0_f0d2042f41" y="31.50435"/>
    </g>
    <g clip-path="url(#p4a26a0992b)">
     <use style="fill:#beff39;stroke:#beff39;" x="253.829031" xlink:href="#C0_0_f0d2042f41" y="92.30919"/>
    </g>
    <g clip-path="url(#p4a26a0992b)">
     <use style="fill:#e7ff0f;stroke:#e7ff0f;" x="113.957631" xlink:href="#C0_0_f0d2042f41" y="193.107472"/>
    </g>
    <g clip-path="url(#p4a26a0992b)">
     <use style="fill:#ffd300;stroke:#ffd300;" x="195.47537" xlink:href="#C0_0_f0d2042f41" y="24.862257"/>
    </g>
    <g clip-path="url(#p4a26a0992b)">
     <use style="fill:#ffa300;stroke:#ffa300;" x="95.056302" xlink:href="#C0_0_f0d2042f41" y="182.481141"/>
    </g>
    <g clip-path="url(#p4a26a0992b)">
     <use style="fill:#ff6f00;stroke:#ff6f00;" x="73.714323" xlink:href="#C0_0_f0d2042f41" y="79.10258"/>
    </g>
    <g clip-path="url(#p4a26a0992b)">
     <use style="fill:#ff3f00;stroke:#ff3f00;" x="226.037846" xlink:href="#C0_0_f0d2042f41" y="190.678031"/>
    </g>
    <g clip-path="url(#p4a26a0992b)">
     <use style="fill:#f60b00;stroke:#f60b00;" x="69.98659" xlink:href="#C0_0_f0d2042f41" y="136.779909"/>
    </g>
    <g clip-path="url(#p4a26a0992b)">
     <use style="fill:#bb0000;stroke:#bb0000;" x="167.988761" xlink:href="#C0_0_f0d2042f41" y="22.40554"/>
    </g>
    <g clip-path="url(#p4a26a0992b)">
     <use style="fill:#800000;stroke:#800000;" x="166.984092" xlink:href="#C0_0_f0d2042f41" y="209.2996"/>
    </g>
   </g>
   <g id="matplotlib.axis_1">
    <g id="xtick_1">
     <g id="line2d_1">
      <defs>
       <path d="M 0 0 
L 0 3.5 
" id="m2ba33cb3f4" style="stroke:#000000;stroke-width:0.8;"/>
      </defs>
      <g>
       <use style="stroke:#000000;stroke-width:0.8;" x="68.887824" xlink:href="#m2ba33cb3f4" y="224.64"/>
      </g>
     </g>
     <g id="text_1">
      <!-- −1.0 -->
      <g transform="translate(56.746418 239.238437)scale(0.1 -0.1)">
       <defs>
        <path d="M 10.59375 35.5 
L 73.1875 35.5 
L 73.1875 27.203125 
L 10.59375 27.203125 
z
" id="DejaVuSans-8722"/>
        <path d="M 12.40625 8.296875 
L 28.515625 8.296875 
L 28.515625 63.921875 
L 10.984375 60.40625 
L 10.984375 69.390625 
L 28.421875 72.90625 
L 38.28125 72.90625 
L 38.28125 8.296875 
L 54.390625 8.296875 
L 54.390625 0 
L 12.40625 0 
z
" id="DejaVuSans-49"/>
        <path d="M 10.6875 12.40625 
L 21 12.40625 
L 21 0 
L 10.6875 0 
z
" id="DejaVuSans-46"/>
        <path d="M 31.78125 66.40625 
Q 24.171875 66.40625 20.328125 58.90625 
Q 16.5 51.421875 16.5 36.375 
Q 16.5 21.390625 20.328125 13.890625 
Q 24.171875 6.390625 31.78125 6.390625 
Q 39.453125 6.390625 43.28125 13.890625 
Q 47.125 21.390625 47.125 36.375 
Q 47.125 51.421875 43.28125 58.90625 
Q 39.453125 66.40625 31.78125 66.40625 
z
M 31.78125 74.21875 
Q 44.046875 74.21875 50.515625 64.515625 
Q 56.984375 54.828125 56.984375 36.375 
Q 56.984375 17.96875 50.515625 8.265625 
Q 44.046875 -1.421875 31.78125 -1.421875 
Q 19.53125 -1.421875 13.0625 8.265625 
Q 6.59375 17.96875 6.59375 36.375 
Q 6.59375 54.828125 13.0625 64.515625 
Q 19.53125 74.21875 31.78125 74.21875 
z
" id="DejaVuSans-48"/>
       </defs>
       <use xlink:href="#DejaVuSans-8722"/>
       <use x="83.789062" xlink:href="#DejaVuSans-49"/>
       <use x="147.412109" xlink:href="#DejaVuSans-46"/>
       <use x="179.199219" xlink:href="#DejaVuSans-48"/>
      </g>
     </g>
    </g>
    <g id="xtick_2">
     <g id="line2d_2">
      <g>
       <use style="stroke:#000000;stroke-width:0.8;" x="116.329533" xlink:href="#m2ba33cb3f4" y="224.64"/>
      </g>
     </g>
     <g id="text_2">
      <!-- −0.5 -->
      <g transform="translate(104.188127 239.238437)scale(0.1 -0.1)">
       <defs>
        <path d="M 10.796875 72.90625 
L 49.515625 72.90625 
L 49.515625 64.59375 
L 19.828125 64.59375 
L 19.828125 46.734375 
Q 21.96875 47.46875 24.109375 47.828125 
Q 26.265625 48.1875 28.421875 48.1875 
Q 40.625 48.1875 47.75 41.5 
Q 54.890625 34.8125 54.890625 23.390625 
Q 54.890625 11.625 47.5625 5.09375 
Q 40.234375 -1.421875 26.90625 -1.421875 
Q 22.3125 -1.421875 17.546875 -0.640625 
Q 12.796875 0.140625 7.71875 1.703125 
L 7.71875 11.625 
Q 12.109375 9.234375 16.796875 8.0625 
Q 21.484375 6.890625 26.703125 6.890625 
Q 35.15625 6.890625 40.078125 11.328125 
Q 45.015625 15.765625 45.015625 23.390625 
Q 45.015625 31 40.078125 35.4375 
Q 35.15625 39.890625 26.703125 39.890625 
Q 22.75 39.890625 18.8125 39.015625 
Q 14.890625 38.140625 10.796875 36.28125 
z
" id="DejaVuSans-53"/>
       </defs>
       <use xlink:href="#DejaVuSans-8722"/>
       <use x="83.789062" xlink:href="#DejaVuSans-48"/>
       <use x="147.412109" xlink:href="#DejaVuSans-46"/>
       <use x="179.199219" xlink:href="#DejaVuSans-53"/>
      </g>
     </g>
    </g>
    <g id="xtick_3">
     <g id="line2d_3">
      <g>
       <use style="stroke:#000000;stroke-width:0.8;" x="163.771242" xlink:href="#m2ba33cb3f4" y="224.64"/>
      </g>
     </g>
     <g id="text_3">
      <!-- 0.0 -->
      <g transform="translate(155.819679 239.238437)scale(0.1 -0.1)">
       <use xlink:href="#DejaVuSans-48"/>
       <use x="63.623047" xlink:href="#DejaVuSans-46"/>
       <use x="95.410156" xlink:href="#DejaVuSans-48"/>
      </g>
     </g>
    </g>
    <g id="xtick_4">
     <g id="line2d_4">
      <g>
       <use style="stroke:#000000;stroke-width:0.8;" x="211.212951" xlink:href="#m2ba33cb3f4" y="224.64"/>
      </g>
     </g>
     <g id="text_4">
      <!-- 0.5 -->
      <g transform="translate(203.261388 239.238437)scale(0.1 -0.1)">
       <use xlink:href="#DejaVuSans-48"/>
       <use x="63.623047" xlink:href="#DejaVuSans-46"/>
       <use x="95.410156" xlink:href="#DejaVuSans-53"/>
      </g>
     </g>
    </g>
    <g id="xtick_5">
     <g id="line2d_5">
      <g>
       <use style="stroke:#000000;stroke-width:0.8;" x="258.65466" xlink:href="#m2ba33cb3f4" y="224.64"/>
      </g>
     </g>
     <g id="text_5">
      <!-- 1.0 -->
      <g transform="translate(250.703097 239.238437)scale(0.1 -0.1)">
       <use xlink:href="#DejaVuSans-49"/>
       <use x="63.623047" xlink:href="#DejaVuSans-46"/>
       <use x="95.410156" xlink:href="#DejaVuSans-48"/>
      </g>
     </g>
    </g>
    <g id="text_6">
     <!-- $x_1$ -->
     <g transform="translate(160.142129 252.916562)scale(0.1 -0.1)">
      <defs>
       <path d="M 60.015625 54.6875 
L 34.90625 27.875 
L 50.296875 0 
L 39.984375 0 
L 28.421875 21.6875 
L 8.296875 0 
L -2.59375 0 
L 24.3125 28.8125 
L 10.015625 54.6875 
L 20.3125 54.6875 
L 30.8125 34.90625 
L 49.125 54.6875 
z
" id="DejaVuSans-Oblique-120"/>
      </defs>
      <use transform="translate(0 0.3125)" xlink:href="#DejaVuSans-Oblique-120"/>
      <use transform="translate(59.179688 -16.09375)scale(0.7)" xlink:href="#DejaVuSans-49"/>
     </g>
    </g>
   </g>
   <g id="matplotlib.axis_2">
    <g id="ytick_1">
     <g id="line2d_6">
      <defs>
       <path d="M 0 0 
L -3.5 0 
" id="m0bf10a0bf0" style="stroke:#000000;stroke-width:0.8;"/>
      </defs>
      <g>
       <use style="stroke:#000000;stroke-width:0.8;" x="52.160938" xlink:href="#m0bf10a0bf0" y="210.931498"/>
      </g>
     </g>
     <g id="text_7">
      <!-- −1.0 -->
      <g transform="translate(20.878125 214.730716)scale(0.1 -0.1)">
       <use xlink:href="#DejaVuSans-8722"/>
       <use x="83.789062" xlink:href="#DejaVuSans-49"/>
       <use x="147.412109" xlink:href="#DejaVuSans-46"/>
       <use x="179.199219" xlink:href="#DejaVuSans-48"/>
      </g>
     </g>
    </g>
    <g id="ytick_2">
     <g id="line2d_7">
      <g>
       <use style="stroke:#000000;stroke-width:0.8;" x="52.160938" xlink:href="#m0bf10a0bf0" y="163.489789"/>
      </g>
     </g>
     <g id="text_8">
      <!-- −0.5 -->
      <g transform="translate(20.878125 167.289008)scale(0.1 -0.1)">
       <use xlink:href="#DejaVuSans-8722"/>
       <use x="83.789062" xlink:href="#DejaVuSans-48"/>
       <use x="147.412109" xlink:href="#DejaVuSans-46"/>
       <use x="179.199219" xlink:href="#DejaVuSans-53"/>
      </g>
     </g>
    </g>
    <g id="ytick_3">
     <g id="line2d_8">
      <g>
       <use style="stroke:#000000;stroke-width:0.8;" x="52.160938" xlink:href="#m0bf10a0bf0" y="116.04808"/>
      </g>
     </g>
     <g id="text_9">
      <!-- 0.0 -->
      <g transform="translate(29.257813 119.847299)scale(0.1 -0.1)">
       <use xlink:href="#DejaVuSans-48"/>
       <use x="63.623047" xlink:href="#DejaVuSans-46"/>
       <use x="95.410156" xlink:href="#DejaVuSans-48"/>
      </g>
     </g>
    </g>
    <g id="ytick_4">
     <g id="line2d_9">
      <g>
       <use style="stroke:#000000;stroke-width:0.8;" x="52.160938" xlink:href="#m0bf10a0bf0" y="68.606371"/>
      </g>
     </g>
     <g id="text_10">
      <!-- 0.5 -->
      <g transform="translate(29.257813 72.40559)scale(0.1 -0.1)">
       <use xlink:href="#DejaVuSans-48"/>
       <use x="63.623047" xlink:href="#DejaVuSans-46"/>
       <use x="95.410156" xlink:href="#DejaVuSans-53"/>
      </g>
     </g>
    </g>
    <g id="ytick_5">
     <g id="line2d_10">
      <g>
       <use style="stroke:#000000;stroke-width:0.8;" x="52.160938" xlink:href="#m0bf10a0bf0" y="21.164662"/>
      </g>
     </g>
     <g id="text_11">
      <!-- 1.0 -->
      <g transform="translate(29.257813 24.963881)scale(0.1 -0.1)">
       <use xlink:href="#DejaVuSans-49"/>
       <use x="63.623047" xlink:href="#DejaVuSans-46"/>
       <use x="95.410156" xlink:href="#DejaVuSans-48"/>
      </g>
     </g>
    </g>
    <g id="text_12">
     <!-- $x_2$ -->
     <g transform="translate(14.798438 121.27)rotate(-90)scale(0.1 -0.1)">
      <defs>
       <path d="M 19.1875 8.296875 
L 53.609375 8.296875 
L 53.609375 0 
L 7.328125 0 
L 7.328125 8.296875 
Q 12.9375 14.109375 22.625 23.890625 
Q 32.328125 33.6875 34.8125 36.53125 
Q 39.546875 41.84375 41.421875 45.53125 
Q 43.3125 49.21875 43.3125 52.78125 
Q 43.3125 58.59375 39.234375 62.25 
Q 35.15625 65.921875 28.609375 65.921875 
Q 23.96875 65.921875 18.8125 64.3125 
Q 13.671875 62.703125 7.8125 59.421875 
L 7.8125 69.390625 
Q 13.765625 71.78125 18.9375 73 
Q 24.125 74.21875 28.421875 74.21875 
Q 39.75 74.21875 46.484375 68.546875 
Q 53.21875 62.890625 53.21875 53.421875 
Q 53.21875 48.921875 51.53125 44.890625 
Q 49.859375 40.875 45.40625 35.40625 
Q 44.1875 33.984375 37.640625 27.21875 
Q 31.109375 20.453125 19.1875 8.296875 
z
" id="DejaVuSans-50"/>
      </defs>
      <use transform="translate(0 0.3125)" xlink:href="#DejaVuSans-Oblique-120"/>
      <use transform="translate(59.179688 -16.09375)scale(0.7)" xlink:href="#DejaVuSans-50"/>
     </g>
    </g>
   </g>
   <g id="patch_3">
    <path d="M 52.160938 224.64 
L 52.160938 7.2 
" style="fill:none;stroke:#000000;stroke-linecap:square;stroke-linejoin:miter;stroke-width:0.8;"/>
   </g>
   <g id="patch_4">
    <path d="M 278.823321 224.64 
L 278.823321 7.2 
" style="fill:none;stroke:#000000;stroke-linecap:square;stroke-linejoin:miter;stroke-width:0.8;"/>
   </g>
   <g id="patch_5">
    <path d="M 52.160938 224.64 
L 278.823321 224.64 
" style="fill:none;stroke:#000000;stroke-linecap:square;stroke-linejoin:miter;stroke-width:0.8;"/>
   </g>
   <g id="patch_6">
    <path d="M 52.160938 7.2 
L 278.823321 7.2 
" style="fill:none;stroke:#000000;stroke-linecap:square;stroke-linejoin:miter;stroke-width:0.8;"/>
   </g>
   <g id="text_13">
    <!-- 0 -->
    <g transform="translate(249.095718 154.638441)scale(0.1 -0.1)">
     <use xlink:href="#DejaVuSans-48"/>
    </g>
   </g>
   <g id="text_14">
    <!-- 1 -->
    <g transform="translate(71.996835 103.917805)scale(0.1 -0.1)">
     <use xlink:href="#DejaVuSans-49"/>
    </g>
   </g>
   <g id="text_15">
    <!-- 2 -->
    <g transform="translate(220.126872 37.735714)scale(0.1 -0.1)">
     <use xlink:href="#DejaVuSans-50"/>
    </g>
   </g>
   <g id="text_16">
    <!-- 3 -->
    <g transform="translate(141.524697 200.577027)scale(0.1 -0.1)">
     <defs>
      <path d="M 40.578125 39.3125 
Q 47.65625 37.796875 51.625 33 
Q 55.609375 28.21875 55.609375 21.1875 
Q 55.609375 10.40625 48.1875 4.484375 
Q 40.765625 -1.421875 27.09375 -1.421875 
Q 22.515625 -1.421875 17.65625 -0.515625 
Q 12.796875 0.390625 7.625 2.203125 
L 7.625 11.71875 
Q 11.71875 9.328125 16.59375 8.109375 
Q 21.484375 6.890625 26.8125 6.890625 
Q 36.078125 6.890625 40.9375 10.546875 
Q 45.796875 14.203125 45.796875 21.1875 
Q 45.796875 27.640625 41.28125 31.265625 
Q 36.765625 34.90625 28.71875 34.90625 
L 20.21875 34.90625 
L 20.21875 43.015625 
L 29.109375 43.015625 
Q 36.375 43.015625 40.234375 45.921875 
Q 44.09375 48.828125 44.09375 54.296875 
Q 44.09375 59.90625 40.109375 62.90625 
Q 36.140625 65.921875 28.71875 65.921875 
Q 24.65625 65.921875 20.015625 65.03125 
Q 15.375 64.15625 9.8125 62.3125 
L 9.8125 71.09375 
Q 15.4375 72.65625 20.34375 73.4375 
Q 25.25 74.21875 29.59375 74.21875 
Q 40.828125 74.21875 47.359375 69.109375 
Q 53.90625 64.015625 53.90625 55.328125 
Q 53.90625 49.265625 50.4375 45.09375 
Q 46.96875 40.921875 40.578125 39.3125 
z
" id="DejaVuSans-51"/>
     </defs>
     <use xlink:href="#DejaVuSans-51"/>
    </g>
   </g>
   <g id="text_17">
    <!-- 4 -->
    <g transform="translate(90.935009 50.064654)scale(0.1 -0.1)">
     <defs>
      <path d="M 37.796875 64.3125 
L 12.890625 25.390625 
L 37.796875 25.390625 
z
M 35.203125 72.90625 
L 47.609375 72.90625 
L 47.609375 25.390625 
L 58.015625 25.390625 
L 58.015625 17.1875 
L 47.609375 17.1875 
L 47.609375 0 
L 37.796875 0 
L 37.796875 17.1875 
L 4.890625 17.1875 
L 4.890625 26.703125 
z
" id="DejaVuSans-52"/>
     </defs>
     <use xlink:href="#DejaVuSans-52"/>
    </g>
   </g>
   <g id="text_18">
    <!-- 5 -->
    <g transform="translate(191.659213 196.639057)scale(0.1 -0.1)">
     <use xlink:href="#DejaVuSans-53"/>
    </g>
   </g>
   <g id="text_19">
    <!-- 6 -->
    <g transform="translate(259.084058 116.339475)scale(0.1 -0.1)">
     <defs>
      <path d="M 33.015625 40.375 
Q 26.375 40.375 22.484375 35.828125 
Q 18.609375 31.296875 18.609375 23.390625 
Q 18.609375 15.53125 22.484375 10.953125 
Q 26.375 6.390625 33.015625 6.390625 
Q 39.65625 6.390625 43.53125 10.953125 
Q 47.40625 15.53125 47.40625 23.390625 
Q 47.40625 31.296875 43.53125 35.828125 
Q 39.65625 40.375 33.015625 40.375 
z
M 52.59375 71.296875 
L 52.59375 62.3125 
Q 48.875 64.0625 45.09375 64.984375 
Q 41.3125 65.921875 37.59375 65.921875 
Q 27.828125 65.921875 22.671875 59.328125 
Q 17.53125 52.734375 16.796875 39.40625 
Q 19.671875 43.65625 24.015625 45.921875 
Q 28.375 48.1875 33.59375 48.1875 
Q 44.578125 48.1875 50.953125 41.515625 
Q 57.328125 34.859375 57.328125 23.390625 
Q 57.328125 12.15625 50.6875 5.359375 
Q 44.046875 -1.421875 33.015625 -1.421875 
Q 20.359375 -1.421875 13.671875 8.265625 
Q 6.984375 17.96875 6.984375 36.375 
Q 6.984375 53.65625 15.1875 63.9375 
Q 23.390625 74.21875 37.203125 74.21875 
Q 40.921875 74.21875 44.703125 73.484375 
Q 48.484375 72.75 52.59375 71.296875 
z
" id="DejaVuSans-54"/>
     </defs>
     <use xlink:href="#DejaVuSans-54"/>
    </g>
   </g>
   <g id="text_20">
    <!-- 7 -->
    <g transform="translate(81.799602 156.978384)scale(0.1 -0.1)">
     <defs>
      <path d="M 8.203125 72.90625 
L 55.078125 72.90625 
L 55.078125 68.703125 
L 28.609375 0 
L 18.3125 0 
L 43.21875 64.59375 
L 8.203125 64.59375 
z
" id="DejaVuSans-55"/>
     </defs>
     <use xlink:href="#DejaVuSans-55"/>
    </g>
   </g>
   <g id="text_21">
    <!-- 8 -->
    <g transform="translate(144.146986 18.259584)scale(0.1 -0.1)">
     <defs>
      <path d="M 31.78125 34.625 
Q 24.75 34.625 20.71875 30.859375 
Q 16.703125 27.09375 16.703125 20.515625 
Q 16.703125 13.921875 20.71875 10.15625 
Q 24.75 6.390625 31.78125 6.390625 
Q 38.8125 6.390625 42.859375 10.171875 
Q 46.921875 13.96875 46.921875 20.515625 
Q 46.921875 27.09375 42.890625 30.859375 
Q 38.875 34.625 31.78125 34.625 
z
M 21.921875 38.8125 
Q 15.578125 40.375 12.03125 44.71875 
Q 8.5 49.078125 8.5 55.328125 
Q 8.5 64.0625 14.71875 69.140625 
Q 20.953125 74.21875 31.78125 74.21875 
Q 42.671875 74.21875 48.875 69.140625 
Q 55.078125 64.0625 55.078125 55.328125 
Q 55.078125 49.078125 51.53125 44.71875 
Q 48 40.375 41.703125 38.8125 
Q 48.828125 37.15625 52.796875 32.3125 
Q 56.78125 27.484375 56.78125 20.515625 
Q 56.78125 9.90625 50.3125 4.234375 
Q 43.84375 -1.421875 31.78125 -1.421875 
Q 19.734375 -1.421875 13.25 4.234375 
Q 6.78125 9.90625 6.78125 20.515625 
Q 6.78125 27.484375 10.78125 32.3125 
Q 14.796875 37.15625 21.921875 38.8125 
z
M 18.3125 54.390625 
Q 18.3125 48.734375 21.84375 45.5625 
Q 25.390625 42.390625 31.78125 42.390625 
Q 38.140625 42.390625 41.71875 45.5625 
Q 45.3125 48.734375 45.3125 54.390625 
Q 45.3125 60.0625 41.71875 63.234375 
Q 38.140625 66.40625 31.78125 66.40625 
Q 25.390625 66.40625 21.84375 63.234375 
Q 18.3125 60.0625 18.3125 54.390625 
z
" id="DejaVuSans-56"/>
     </defs>
     <use xlink:href="#DejaVuSans-56"/>
    </g>
   </g>
   <g id="text_22">
    <!-- 9 -->
    <g transform="translate(246.555899 57.253147)scale(0.1 -0.1)">
     <defs>
      <path d="M 10.984375 1.515625 
L 10.984375 10.5 
Q 14.703125 8.734375 18.5 7.8125 
Q 22.3125 6.890625 25.984375 6.890625 
Q 35.75 6.890625 40.890625 13.453125 
Q 46.046875 20.015625 46.78125 33.40625 
Q 43.953125 29.203125 39.59375 26.953125 
Q 35.25 24.703125 29.984375 24.703125 
Q 19.046875 24.703125 12.671875 31.3125 
Q 6.296875 37.9375 6.296875 49.421875 
Q 6.296875 60.640625 12.9375 67.421875 
Q 19.578125 74.21875 30.609375 74.21875 
Q 43.265625 74.21875 49.921875 64.515625 
Q 56.59375 54.828125 56.59375 36.375 
Q 56.59375 19.140625 48.40625 8.859375 
Q 40.234375 -1.421875 26.421875 -1.421875 
Q 22.703125 -1.421875 18.890625 -0.6875 
Q 15.09375 0.046875 10.984375 1.515625 
z
M 30.609375 32.421875 
Q 37.25 32.421875 41.125 36.953125 
Q 45.015625 41.5 45.015625 49.421875 
Q 45.015625 57.28125 41.125 61.84375 
Q 37.25 66.40625 30.609375 66.40625 
Q 23.96875 66.40625 20.09375 61.84375 
Q 16.21875 57.28125 16.21875 49.421875 
Q 16.21875 41.5 20.09375 36.953125 
Q 23.96875 32.421875 30.609375 32.421875 
z
" id="DejaVuSans-57"/>
     </defs>
     <use xlink:href="#DejaVuSans-57"/>
    </g>
   </g>
   <g id="text_23">
    <!-- 10 -->
    <g transform="translate(112.640014 26.760179)scale(0.1 -0.1)">
     <use xlink:href="#DejaVuSans-49"/>
     <use x="63.623047" xlink:href="#DejaVuSans-48"/>
    </g>
   </g>
   <g id="text_24">
    <!-- 11 -->
    <g transform="translate(253.829031 87.565019)scale(0.1 -0.1)">
     <use xlink:href="#DejaVuSans-49"/>
     <use x="63.623047" xlink:href="#DejaVuSans-49"/>
    </g>
   </g>
   <g id="text_25">
    <!-- 12 -->
    <g transform="translate(113.957631 188.363302)scale(0.1 -0.1)">
     <use xlink:href="#DejaVuSans-49"/>
     <use x="63.623047" xlink:href="#DejaVuSans-50"/>
    </g>
   </g>
   <g id="text_26">
    <!-- 13 -->
    <g transform="translate(195.47537 20.118086)scale(0.1 -0.1)">
     <use xlink:href="#DejaVuSans-49"/>
     <use x="63.623047" xlink:href="#DejaVuSans-51"/>
    </g>
   </g>
   <g id="text_27">
    <!-- 14 -->
    <g transform="translate(95.056302 177.736971)scale(0.1 -0.1)">
     <use xlink:href="#DejaVuSans-49"/>
     <use x="63.623047" xlink:href="#DejaVuSans-52"/>
    </g>
   </g>
   <g id="text_28">
    <!-- 15 -->
    <g transform="translate(73.714323 74.35841)scale(0.1 -0.1)">
     <use xlink:href="#DejaVuSans-49"/>
     <use x="63.623047" xlink:href="#DejaVuSans-53"/>
    </g>
   </g>
   <g id="text_29">
    <!-- 16 -->
    <g transform="translate(226.037846 185.93386)scale(0.1 -0.1)">
     <use xlink:href="#DejaVuSans-49"/>
     <use x="63.623047" xlink:href="#DejaVuSans-54"/>
    </g>
   </g>
   <g id="text_30">
    <!-- 17 -->
    <g transform="translate(69.98659 132.035738)scale(0.1 -0.1)">
     <use xlink:href="#DejaVuSans-49"/>
     <use x="63.623047" xlink:href="#DejaVuSans-55"/>
    </g>
   </g>
   <g id="text_31">
    <!-- 18 -->
    <g transform="translate(167.988761 17.661369)scale(0.1 -0.1)">
     <use xlink:href="#DejaVuSans-49"/>
     <use x="63.623047" xlink:href="#DejaVuSans-56"/>
    </g>
   </g>
   <g id="text_32">
    <!-- 19 -->
    <g transform="translate(166.984092 204.555429)scale(0.1 -0.1)">
     <use xlink:href="#DejaVuSans-49"/>
     <use x="63.623047" xlink:href="#DejaVuSans-57"/>
    </g>
   </g>
   <g id="legend_1">
    <g id="patch_7">
     <path d="M 126.367129 132.098125 
L 204.617129 132.098125 
Q 206.617129 132.098125 206.617129 130.098125 
L 206.617129 101.741875 
Q 206.617129 99.741875 204.617129 99.741875 
L 126.367129 99.741875 
Q 124.367129 99.741875 124.367129 101.741875 
L 124.367129 130.098125 
Q 124.367129 132.098125 126.367129 132.098125 
z
" style="fill:#ffffff;opacity:0.8;stroke:#cccccc;stroke-linejoin:miter;"/>
    </g>
    <g id="PathCollection_3">
     <defs>
      <path d="M -3 3 
L 3 -3 
M -3 -3 
L 3 3 
" id="mfecee61402" style="stroke:#1f77b4;stroke-width:1.5;"/>
     </defs>
     <g>
      <use style="fill:#1f77b4;stroke:#1f77b4;stroke-width:1.5;" x="138.367129" xlink:href="#mfecee61402" y="108.715312"/>
     </g>
    </g>
    <g id="text_33">
     <!-- raw data -->
     <g transform="translate(156.367129 111.340312)scale(0.1 -0.1)">
      <defs>
       <path d="M 41.109375 46.296875 
Q 39.59375 47.171875 37.8125 47.578125 
Q 36.03125 48 33.890625 48 
Q 26.265625 48 22.1875 43.046875 
Q 18.109375 38.09375 18.109375 28.8125 
L 18.109375 0 
L 9.078125 0 
L 9.078125 54.6875 
L 18.109375 54.6875 
L 18.109375 46.1875 
Q 20.953125 51.171875 25.484375 53.578125 
Q 30.03125 56 36.53125 56 
Q 37.453125 56 38.578125 55.875 
Q 39.703125 55.765625 41.0625 55.515625 
z
" id="DejaVuSans-114"/>
       <path d="M 34.28125 27.484375 
Q 23.390625 27.484375 19.1875 25 
Q 14.984375 22.515625 14.984375 16.5 
Q 14.984375 11.71875 18.140625 8.90625 
Q 21.296875 6.109375 26.703125 6.109375 
Q 34.1875 6.109375 38.703125 11.40625 
Q 43.21875 16.703125 43.21875 25.484375 
L 43.21875 27.484375 
z
M 52.203125 31.203125 
L 52.203125 0 
L 43.21875 0 
L 43.21875 8.296875 
Q 40.140625 3.328125 35.546875 0.953125 
Q 30.953125 -1.421875 24.3125 -1.421875 
Q 15.921875 -1.421875 10.953125 3.296875 
Q 6 8.015625 6 15.921875 
Q 6 25.140625 12.171875 29.828125 
Q 18.359375 34.515625 30.609375 34.515625 
L 43.21875 34.515625 
L 43.21875 35.40625 
Q 43.21875 41.609375 39.140625 45 
Q 35.0625 48.390625 27.6875 48.390625 
Q 23 48.390625 18.546875 47.265625 
Q 14.109375 46.140625 10.015625 43.890625 
L 10.015625 52.203125 
Q 14.9375 54.109375 19.578125 55.046875 
Q 24.21875 56 28.609375 56 
Q 40.484375 56 46.34375 49.84375 
Q 52.203125 43.703125 52.203125 31.203125 
z
" id="DejaVuSans-97"/>
       <path d="M 4.203125 54.6875 
L 13.1875 54.6875 
L 24.421875 12.015625 
L 35.59375 54.6875 
L 46.1875 54.6875 
L 57.421875 12.015625 
L 68.609375 54.6875 
L 77.59375 54.6875 
L 63.28125 0 
L 52.6875 0 
L 40.921875 44.828125 
L 29.109375 0 
L 18.5 0 
z
" id="DejaVuSans-119"/>
       <path id="DejaVuSans-32"/>
       <path d="M 45.40625 46.390625 
L 45.40625 75.984375 
L 54.390625 75.984375 
L 54.390625 0 
L 45.40625 0 
L 45.40625 8.203125 
Q 42.578125 3.328125 38.25 0.953125 
Q 33.9375 -1.421875 27.875 -1.421875 
Q 17.96875 -1.421875 11.734375 6.484375 
Q 5.515625 14.40625 5.515625 27.296875 
Q 5.515625 40.1875 11.734375 48.09375 
Q 17.96875 56 27.875 56 
Q 33.9375 56 38.25 53.625 
Q 42.578125 51.265625 45.40625 46.390625 
z
M 14.796875 27.296875 
Q 14.796875 17.390625 18.875 11.75 
Q 22.953125 6.109375 30.078125 6.109375 
Q 37.203125 6.109375 41.296875 11.75 
Q 45.40625 17.390625 45.40625 27.296875 
Q 45.40625 37.203125 41.296875 42.84375 
Q 37.203125 48.484375 30.078125 48.484375 
Q 22.953125 48.484375 18.875 42.84375 
Q 14.796875 37.203125 14.796875 27.296875 
z
" id="DejaVuSans-100"/>
       <path d="M 18.3125 70.21875 
L 18.3125 54.6875 
L 36.8125 54.6875 
L 36.8125 47.703125 
L 18.3125 47.703125 
L 18.3125 18.015625 
Q 18.3125 11.328125 20.140625 9.421875 
Q 21.96875 7.515625 27.59375 7.515625 
L 36.8125 7.515625 
L 36.8125 0 
L 27.59375 0 
Q 17.1875 0 13.234375 3.875 
Q 9.28125 7.765625 9.28125 18.015625 
L 9.28125 47.703125 
L 2.6875 47.703125 
L 2.6875 54.6875 
L 9.28125 54.6875 
L 9.28125 70.21875 
z
" id="DejaVuSans-116"/>
      </defs>
      <use xlink:href="#DejaVuSans-114"/>
      <use x="41.113281" xlink:href="#DejaVuSans-97"/>
      <use x="102.392578" xlink:href="#DejaVuSans-119"/>
      <use x="184.179688" xlink:href="#DejaVuSans-32"/>
      <use x="215.966797" xlink:href="#DejaVuSans-100"/>
      <use x="279.443359" xlink:href="#DejaVuSans-97"/>
      <use x="340.722656" xlink:href="#DejaVuSans-116"/>
      <use x="379.931641" xlink:href="#DejaVuSans-97"/>
     </g>
    </g>
    <g id="PathCollection_4">
     <defs>
      <path d="M 0 5 
C 1.326016 5 2.597899 4.473168 3.535534 3.535534 
C 4.473168 2.597899 5 1.326016 5 0 
C 5 -1.326016 4.473168 -2.597899 3.535534 -3.535534 
C 2.597899 -4.473168 1.326016 -5 0 -5 
C -1.326016 -5 -2.597899 -4.473168 -3.535534 -3.535534 
C -4.473168 -2.597899 -5 -1.326016 -5 0 
C -5 1.326016 -4.473168 2.597899 -3.535534 3.535534 
C -2.597899 4.473168 -1.326016 5 0 5 
z
" id="m4060855828" style="stroke:#1f77b4;"/>
     </defs>
     <g>
      <use style="fill:#1f77b4;stroke:#1f77b4;" x="138.367129" xlink:href="#m4060855828" y="123.393437"/>
     </g>
    </g>
    <g id="text_34">
     <!-- centroids -->
     <g transform="translate(156.367129 126.018437)scale(0.1 -0.1)">
      <defs>
       <path d="M 48.78125 52.59375 
L 48.78125 44.1875 
Q 44.96875 46.296875 41.140625 47.34375 
Q 37.3125 48.390625 33.40625 48.390625 
Q 24.65625 48.390625 19.8125 42.84375 
Q 14.984375 37.3125 14.984375 27.296875 
Q 14.984375 17.28125 19.8125 11.734375 
Q 24.65625 6.203125 33.40625 6.203125 
Q 37.3125 6.203125 41.140625 7.25 
Q 44.96875 8.296875 48.78125 10.40625 
L 48.78125 2.09375 
Q 45.015625 0.34375 40.984375 -0.53125 
Q 36.96875 -1.421875 32.421875 -1.421875 
Q 20.0625 -1.421875 12.78125 6.34375 
Q 5.515625 14.109375 5.515625 27.296875 
Q 5.515625 40.671875 12.859375 48.328125 
Q 20.21875 56 33.015625 56 
Q 37.15625 56 41.109375 55.140625 
Q 45.0625 54.296875 48.78125 52.59375 
z
" id="DejaVuSans-99"/>
       <path d="M 56.203125 29.59375 
L 56.203125 25.203125 
L 14.890625 25.203125 
Q 15.484375 15.921875 20.484375 11.0625 
Q 25.484375 6.203125 34.421875 6.203125 
Q 39.59375 6.203125 44.453125 7.46875 
Q 49.3125 8.734375 54.109375 11.28125 
L 54.109375 2.78125 
Q 49.265625 0.734375 44.1875 -0.34375 
Q 39.109375 -1.421875 33.890625 -1.421875 
Q 20.796875 -1.421875 13.15625 6.1875 
Q 5.515625 13.8125 5.515625 26.8125 
Q 5.515625 40.234375 12.765625 48.109375 
Q 20.015625 56 32.328125 56 
Q 43.359375 56 49.78125 48.890625 
Q 56.203125 41.796875 56.203125 29.59375 
z
M 47.21875 32.234375 
Q 47.125 39.59375 43.09375 43.984375 
Q 39.0625 48.390625 32.421875 48.390625 
Q 24.90625 48.390625 20.390625 44.140625 
Q 15.875 39.890625 15.1875 32.171875 
z
" id="DejaVuSans-101"/>
       <path d="M 54.890625 33.015625 
L 54.890625 0 
L 45.90625 0 
L 45.90625 32.71875 
Q 45.90625 40.484375 42.875 44.328125 
Q 39.84375 48.1875 33.796875 48.1875 
Q 26.515625 48.1875 22.3125 43.546875 
Q 18.109375 38.921875 18.109375 30.90625 
L 18.109375 0 
L 9.078125 0 
L 9.078125 54.6875 
L 18.109375 54.6875 
L 18.109375 46.1875 
Q 21.34375 51.125 25.703125 53.5625 
Q 30.078125 56 35.796875 56 
Q 45.21875 56 50.046875 50.171875 
Q 54.890625 44.34375 54.890625 33.015625 
z
" id="DejaVuSans-110"/>
       <path d="M 30.609375 48.390625 
Q 23.390625 48.390625 19.1875 42.75 
Q 14.984375 37.109375 14.984375 27.296875 
Q 14.984375 17.484375 19.15625 11.84375 
Q 23.34375 6.203125 30.609375 6.203125 
Q 37.796875 6.203125 41.984375 11.859375 
Q 46.1875 17.53125 46.1875 27.296875 
Q 46.1875 37.015625 41.984375 42.703125 
Q 37.796875 48.390625 30.609375 48.390625 
z
M 30.609375 56 
Q 42.328125 56 49.015625 48.375 
Q 55.71875 40.765625 55.71875 27.296875 
Q 55.71875 13.875 49.015625 6.21875 
Q 42.328125 -1.421875 30.609375 -1.421875 
Q 18.84375 -1.421875 12.171875 6.21875 
Q 5.515625 13.875 5.515625 27.296875 
Q 5.515625 40.765625 12.171875 48.375 
Q 18.84375 56 30.609375 56 
z
" id="DejaVuSans-111"/>
       <path d="M 9.421875 54.6875 
L 18.40625 54.6875 
L 18.40625 0 
L 9.421875 0 
z
M 9.421875 75.984375 
L 18.40625 75.984375 
L 18.40625 64.59375 
L 9.421875 64.59375 
z
" id="DejaVuSans-105"/>
       <path d="M 44.28125 53.078125 
L 44.28125 44.578125 
Q 40.484375 46.53125 36.375 47.5 
Q 32.28125 48.484375 27.875 48.484375 
Q 21.1875 48.484375 17.84375 46.4375 
Q 14.5 44.390625 14.5 40.28125 
Q 14.5 37.15625 16.890625 35.375 
Q 19.28125 33.59375 26.515625 31.984375 
L 29.59375 31.296875 
Q 39.15625 29.25 43.1875 25.515625 
Q 47.21875 21.78125 47.21875 15.09375 
Q 47.21875 7.46875 41.1875 3.015625 
Q 35.15625 -1.421875 24.609375 -1.421875 
Q 20.21875 -1.421875 15.453125 -0.5625 
Q 10.6875 0.296875 5.421875 2 
L 5.421875 11.28125 
Q 10.40625 8.6875 15.234375 7.390625 
Q 20.0625 6.109375 24.8125 6.109375 
Q 31.15625 6.109375 34.5625 8.28125 
Q 37.984375 10.453125 37.984375 14.40625 
Q 37.984375 18.0625 35.515625 20.015625 
Q 33.0625 21.96875 24.703125 23.78125 
L 21.578125 24.515625 
Q 13.234375 26.265625 9.515625 29.90625 
Q 5.8125 33.546875 5.8125 39.890625 
Q 5.8125 47.609375 11.28125 51.796875 
Q 16.75 56 26.8125 56 
Q 31.78125 56 36.171875 55.265625 
Q 40.578125 54.546875 44.28125 53.078125 
z
" id="DejaVuSans-115"/>
      </defs>
      <use xlink:href="#DejaVuSans-99"/>
      <use x="54.980469" xlink:href="#DejaVuSans-101"/>
      <use x="116.503906" xlink:href="#DejaVuSans-110"/>
      <use x="179.882812" xlink:href="#DejaVuSans-116"/>
      <use x="219.091797" xlink:href="#DejaVuSans-114"/>
      <use x="257.955078" xlink:href="#DejaVuSans-111"/>
      <use x="319.136719" xlink:href="#DejaVuSans-105"/>
      <use x="346.919922" xlink:href="#DejaVuSans-100"/>
      <use x="410.396484" xlink:href="#DejaVuSans-115"/>
     </g>
    </g>
   </g>
  </g>
 </g>
 <defs>
  <clipPath id="p4a26a0992b">
   <rect height="217.44" width="226.662383" x="52.160938" y="7.2"/>
  </clipPath>
 </defs>
</svg>
