<?xml version="1.0" encoding="utf-8" standalone="no"?>
<!DOCTYPE svg PUBLIC "-//W3C//DTD SVG 1.1//EN"
  "http://www.w3.org/Graphics/SVG/1.1/DTD/svg11.dtd">
<!-- Created with matplotlib (https://matplotlib.org/) -->
<svg height="283.28905pt" version="1.1" viewBox="0 0 385.78125 283.28905" width="385.78125pt" xmlns="http://www.w3.org/2000/svg" xmlns:xlink="http://www.w3.org/1999/xlink">
 <metadata>
  <rdf:RDF xmlns:cc="http://creativecommons.org/ns#" xmlns:dc="http://purl.org/dc/elements/1.1/" xmlns:rdf="http://www.w3.org/1999/02/22-rdf-syntax-ns#">
   <cc:Work>
    <dc:type rdf:resource="http://purl.org/dc/dcmitype/StillImage"/>
    <dc:date>2021-11-09T19:49:30.050081</dc:date>
    <dc:format>image/svg+xml</dc:format>
    <dc:creator>
     <cc:Agent>
      <dc:title>Matplotlib v3.3.3, https://matplotlib.org/</dc:title>
     </cc:Agent>
    </dc:creator>
   </cc:Work>
  </rdf:RDF>
 </metadata>
 <defs>
  <style type="text/css">*{stroke-linecap:butt;stroke-linejoin:round;}</style>
 </defs>
 <g id="figure_1">
  <g id="patch_1">
   <path d="M 0 283.28905 
L 385.78125 283.28905 
L 385.78125 0 
L 0 0 
z
" style="fill:none;"/>
  </g>
  <g id="axes_1">
   <g id="patch_2">
    <path d="M 43.78125 245.7328 
L 378.58125 245.7328 
L 378.58125 28.2928 
L 43.78125 28.2928 
z
" style="fill:#ffffff;"/>
   </g>
   <g id="matplotlib.axis_1">
    <g id="xtick_1">
     <g id="line2d_1">
      <defs>
       <path d="M 0 0 
L 0 3.5 
" id="m8c3924cb0c" style="stroke:#000000;stroke-width:0.8;"/>
      </defs>
      <g>
       <use style="stroke:#000000;stroke-width:0.8;" x="43.78125" xlink:href="#m8c3924cb0c" y="245.7328"/>
      </g>
     </g>
     <g id="text_1">
      <!-- 0.0 -->
      <g transform="translate(35.829688 260.331237)scale(0.1 -0.1)">
       <defs>
        <path d="M 31.78125 66.40625 
Q 24.171875 66.40625 20.328125 58.90625 
Q 16.5 51.421875 16.5 36.375 
Q 16.5 21.390625 20.328125 13.890625 
Q 24.171875 6.390625 31.78125 6.390625 
Q 39.453125 6.390625 43.28125 13.890625 
Q 47.125 21.390625 47.125 36.375 
Q 47.125 51.421875 43.28125 58.90625 
Q 39.453125 66.40625 31.78125 66.40625 
z
M 31.78125 74.21875 
Q 44.046875 74.21875 50.515625 64.515625 
Q 56.984375 54.828125 56.984375 36.375 
Q 56.984375 17.96875 50.515625 8.265625 
Q 44.046875 -1.421875 31.78125 -1.421875 
Q 19.53125 -1.421875 13.0625 8.265625 
Q 6.59375 17.96875 6.59375 36.375 
Q 6.59375 54.828125 13.0625 64.515625 
Q 19.53125 74.21875 31.78125 74.21875 
z
" id="DejaVuSans-48"/>
        <path d="M 10.6875 12.40625 
L 21 12.40625 
L 21 0 
L 10.6875 0 
z
" id="DejaVuSans-46"/>
       </defs>
       <use xlink:href="#DejaVuSans-48"/>
       <use x="63.623047" xlink:href="#DejaVuSans-46"/>
       <use x="95.410156" xlink:href="#DejaVuSans-48"/>
      </g>
     </g>
    </g>
    <g id="xtick_2">
     <g id="line2d_2">
      <g>
       <use style="stroke:#000000;stroke-width:0.8;" x="104.653977" xlink:href="#m8c3924cb0c" y="245.7328"/>
      </g>
     </g>
     <g id="text_2">
      <!-- 0.2 -->
      <g transform="translate(96.702415 260.331237)scale(0.1 -0.1)">
       <defs>
        <path d="M 19.1875 8.296875 
L 53.609375 8.296875 
L 53.609375 0 
L 7.328125 0 
L 7.328125 8.296875 
Q 12.9375 14.109375 22.625 23.890625 
Q 32.328125 33.6875 34.8125 36.53125 
Q 39.546875 41.84375 41.421875 45.53125 
Q 43.3125 49.21875 43.3125 52.78125 
Q 43.3125 58.59375 39.234375 62.25 
Q 35.15625 65.921875 28.609375 65.921875 
Q 23.96875 65.921875 18.8125 64.3125 
Q 13.671875 62.703125 7.8125 59.421875 
L 7.8125 69.390625 
Q 13.765625 71.78125 18.9375 73 
Q 24.125 74.21875 28.421875 74.21875 
Q 39.75 74.21875 46.484375 68.546875 
Q 53.21875 62.890625 53.21875 53.421875 
Q 53.21875 48.921875 51.53125 44.890625 
Q 49.859375 40.875 45.40625 35.40625 
Q 44.1875 33.984375 37.640625 27.21875 
Q 31.109375 20.453125 19.1875 8.296875 
z
" id="DejaVuSans-50"/>
       </defs>
       <use xlink:href="#DejaVuSans-48"/>
       <use x="63.623047" xlink:href="#DejaVuSans-46"/>
       <use x="95.410156" xlink:href="#DejaVuSans-50"/>
      </g>
     </g>
    </g>
    <g id="xtick_3">
     <g id="line2d_3">
      <g>
       <use style="stroke:#000000;stroke-width:0.8;" x="165.526705" xlink:href="#m8c3924cb0c" y="245.7328"/>
      </g>
     </g>
     <g id="text_3">
      <!-- 0.4 -->
      <g transform="translate(157.575142 260.331237)scale(0.1 -0.1)">
       <defs>
        <path d="M 37.796875 64.3125 
L 12.890625 25.390625 
L 37.796875 25.390625 
z
M 35.203125 72.90625 
L 47.609375 72.90625 
L 47.609375 25.390625 
L 58.015625 25.390625 
L 58.015625 17.1875 
L 47.609375 17.1875 
L 47.609375 0 
L 37.796875 0 
L 37.796875 17.1875 
L 4.890625 17.1875 
L 4.890625 26.703125 
z
" id="DejaVuSans-52"/>
       </defs>
       <use xlink:href="#DejaVuSans-48"/>
       <use x="63.623047" xlink:href="#DejaVuSans-46"/>
       <use x="95.410156" xlink:href="#DejaVuSans-52"/>
      </g>
     </g>
    </g>
    <g id="xtick_4">
     <g id="line2d_4">
      <g>
       <use style="stroke:#000000;stroke-width:0.8;" x="226.399432" xlink:href="#m8c3924cb0c" y="245.7328"/>
      </g>
     </g>
     <g id="text_4">
      <!-- 0.6 -->
      <g transform="translate(218.447869 260.331237)scale(0.1 -0.1)">
       <defs>
        <path d="M 33.015625 40.375 
Q 26.375 40.375 22.484375 35.828125 
Q 18.609375 31.296875 18.609375 23.390625 
Q 18.609375 15.53125 22.484375 10.953125 
Q 26.375 6.390625 33.015625 6.390625 
Q 39.65625 6.390625 43.53125 10.953125 
Q 47.40625 15.53125 47.40625 23.390625 
Q 47.40625 31.296875 43.53125 35.828125 
Q 39.65625 40.375 33.015625 40.375 
z
M 52.59375 71.296875 
L 52.59375 62.3125 
Q 48.875 64.0625 45.09375 64.984375 
Q 41.3125 65.921875 37.59375 65.921875 
Q 27.828125 65.921875 22.671875 59.328125 
Q 17.53125 52.734375 16.796875 39.40625 
Q 19.671875 43.65625 24.015625 45.921875 
Q 28.375 48.1875 33.59375 48.1875 
Q 44.578125 48.1875 50.953125 41.515625 
Q 57.328125 34.859375 57.328125 23.390625 
Q 57.328125 12.15625 50.6875 5.359375 
Q 44.046875 -1.421875 33.015625 -1.421875 
Q 20.359375 -1.421875 13.671875 8.265625 
Q 6.984375 17.96875 6.984375 36.375 
Q 6.984375 53.65625 15.1875 63.9375 
Q 23.390625 74.21875 37.203125 74.21875 
Q 40.921875 74.21875 44.703125 73.484375 
Q 48.484375 72.75 52.59375 71.296875 
z
" id="DejaVuSans-54"/>
       </defs>
       <use xlink:href="#DejaVuSans-48"/>
       <use x="63.623047" xlink:href="#DejaVuSans-46"/>
       <use x="95.410156" xlink:href="#DejaVuSans-54"/>
      </g>
     </g>
    </g>
    <g id="xtick_5">
     <g id="line2d_5">
      <g>
       <use style="stroke:#000000;stroke-width:0.8;" x="287.272159" xlink:href="#m8c3924cb0c" y="245.7328"/>
      </g>
     </g>
     <g id="text_5">
      <!-- 0.8 -->
      <g transform="translate(279.320597 260.331237)scale(0.1 -0.1)">
       <defs>
        <path d="M 31.78125 34.625 
Q 24.75 34.625 20.71875 30.859375 
Q 16.703125 27.09375 16.703125 20.515625 
Q 16.703125 13.921875 20.71875 10.15625 
Q 24.75 6.390625 31.78125 6.390625 
Q 38.8125 6.390625 42.859375 10.171875 
Q 46.921875 13.96875 46.921875 20.515625 
Q 46.921875 27.09375 42.890625 30.859375 
Q 38.875 34.625 31.78125 34.625 
z
M 21.921875 38.8125 
Q 15.578125 40.375 12.03125 44.71875 
Q 8.5 49.078125 8.5 55.328125 
Q 8.5 64.0625 14.71875 69.140625 
Q 20.953125 74.21875 31.78125 74.21875 
Q 42.671875 74.21875 48.875 69.140625 
Q 55.078125 64.0625 55.078125 55.328125 
Q 55.078125 49.078125 51.53125 44.71875 
Q 48 40.375 41.703125 38.8125 
Q 48.828125 37.15625 52.796875 32.3125 
Q 56.78125 27.484375 56.78125 20.515625 
Q 56.78125 9.90625 50.3125 4.234375 
Q 43.84375 -1.421875 31.78125 -1.421875 
Q 19.734375 -1.421875 13.25 4.234375 
Q 6.78125 9.90625 6.78125 20.515625 
Q 6.78125 27.484375 10.78125 32.3125 
Q 14.796875 37.15625 21.921875 38.8125 
z
M 18.3125 54.390625 
Q 18.3125 48.734375 21.84375 45.5625 
Q 25.390625 42.390625 31.78125 42.390625 
Q 38.140625 42.390625 41.71875 45.5625 
Q 45.3125 48.734375 45.3125 54.390625 
Q 45.3125 60.0625 41.71875 63.234375 
Q 38.140625 66.40625 31.78125 66.40625 
Q 25.390625 66.40625 21.84375 63.234375 
Q 18.3125 60.0625 18.3125 54.390625 
z
" id="DejaVuSans-56"/>
       </defs>
       <use xlink:href="#DejaVuSans-48"/>
       <use x="63.623047" xlink:href="#DejaVuSans-46"/>
       <use x="95.410156" xlink:href="#DejaVuSans-56"/>
      </g>
     </g>
    </g>
    <g id="xtick_6">
     <g id="line2d_6">
      <g>
       <use style="stroke:#000000;stroke-width:0.8;" x="348.144886" xlink:href="#m8c3924cb0c" y="245.7328"/>
      </g>
     </g>
     <g id="text_6">
      <!-- 1.0 -->
      <g transform="translate(340.193324 260.331237)scale(0.1 -0.1)">
       <defs>
        <path d="M 12.40625 8.296875 
L 28.515625 8.296875 
L 28.515625 63.921875 
L 10.984375 60.40625 
L 10.984375 69.390625 
L 28.421875 72.90625 
L 38.28125 72.90625 
L 38.28125 8.296875 
L 54.390625 8.296875 
L 54.390625 0 
L 12.40625 0 
z
" id="DejaVuSans-49"/>
       </defs>
       <use xlink:href="#DejaVuSans-49"/>
       <use x="63.623047" xlink:href="#DejaVuSans-46"/>
       <use x="95.410156" xlink:href="#DejaVuSans-48"/>
      </g>
     </g>
    </g>
    <g id="text_7">
     <!-- $U_x$ -->
     <g transform="translate(205.28125 274.009362)scale(0.1 -0.1)">
      <defs>
       <path d="M 15.484375 72.90625 
L 25.390625 72.90625 
L 16.796875 28.609375 
Q 16.265625 25.640625 16.046875 23.703125 
Q 15.828125 21.78125 15.828125 20.3125 
Q 15.828125 13.578125 19.578125 10.078125 
Q 23.34375 6.59375 30.609375 6.59375 
Q 40.046875 6.59375 45.28125 11.765625 
Q 50.53125 16.9375 52.78125 28.609375 
L 61.375 72.90625 
L 71.296875 72.90625 
L 62.5 27.390625 
Q 59.625 12.640625 51.5625 5.609375 
Q 43.5 -1.421875 29.5 -1.421875 
Q 18.5625 -1.421875 12.1875 4.078125 
Q 5.8125 9.578125 5.8125 19 
Q 5.8125 20.703125 6.046875 22.828125 
Q 6.296875 24.953125 6.78125 27.390625 
z
" id="DejaVuSans-Oblique-85"/>
       <path d="M 60.015625 54.6875 
L 34.90625 27.875 
L 50.296875 0 
L 39.984375 0 
L 28.421875 21.6875 
L 8.296875 0 
L -2.59375 0 
L 24.3125 28.8125 
L 10.015625 54.6875 
L 20.3125 54.6875 
L 30.8125 34.90625 
L 49.125 54.6875 
z
" id="DejaVuSans-Oblique-120"/>
      </defs>
      <use transform="translate(0 0.09375)" xlink:href="#DejaVuSans-Oblique-85"/>
      <use transform="translate(73.193359 -16.3125)scale(0.7)" xlink:href="#DejaVuSans-Oblique-120"/>
     </g>
    </g>
   </g>
   <g id="matplotlib.axis_2">
    <g id="ytick_1">
     <g id="line2d_7">
      <defs>
       <path d="M 0 0 
L -3.5 0 
" id="m7868175ffa" style="stroke:#000000;stroke-width:0.8;"/>
      </defs>
      <g>
       <use style="stroke:#000000;stroke-width:0.8;" x="43.78125" xlink:href="#m7868175ffa" y="241.469271"/>
      </g>
     </g>
     <g id="text_8">
      <!-- 0.0 -->
      <g transform="translate(20.878125 245.268489)scale(0.1 -0.1)">
       <use xlink:href="#DejaVuSans-48"/>
       <use x="63.623047" xlink:href="#DejaVuSans-46"/>
       <use x="95.410156" xlink:href="#DejaVuSans-48"/>
      </g>
     </g>
    </g>
    <g id="ytick_2">
     <g id="line2d_8">
      <g>
       <use style="stroke:#000000;stroke-width:0.8;" x="43.78125" xlink:href="#m7868175ffa" y="198.833976"/>
      </g>
     </g>
     <g id="text_9">
      <!-- 0.1 -->
      <g transform="translate(20.878125 202.633195)scale(0.1 -0.1)">
       <use xlink:href="#DejaVuSans-48"/>
       <use x="63.623047" xlink:href="#DejaVuSans-46"/>
       <use x="95.410156" xlink:href="#DejaVuSans-49"/>
      </g>
     </g>
    </g>
    <g id="ytick_3">
     <g id="line2d_9">
      <g>
       <use style="stroke:#000000;stroke-width:0.8;" x="43.78125" xlink:href="#m7868175ffa" y="156.198682"/>
      </g>
     </g>
     <g id="text_10">
      <!-- 0.2 -->
      <g transform="translate(20.878125 159.997901)scale(0.1 -0.1)">
       <use xlink:href="#DejaVuSans-48"/>
       <use x="63.623047" xlink:href="#DejaVuSans-46"/>
       <use x="95.410156" xlink:href="#DejaVuSans-50"/>
      </g>
     </g>
    </g>
    <g id="ytick_4">
     <g id="line2d_10">
      <g>
       <use style="stroke:#000000;stroke-width:0.8;" x="43.78125" xlink:href="#m7868175ffa" y="113.563388"/>
      </g>
     </g>
     <g id="text_11">
      <!-- 0.3 -->
      <g transform="translate(20.878125 117.362607)scale(0.1 -0.1)">
       <defs>
        <path d="M 40.578125 39.3125 
Q 47.65625 37.796875 51.625 33 
Q 55.609375 28.21875 55.609375 21.1875 
Q 55.609375 10.40625 48.1875 4.484375 
Q 40.765625 -1.421875 27.09375 -1.421875 
Q 22.515625 -1.421875 17.65625 -0.515625 
Q 12.796875 0.390625 7.625 2.203125 
L 7.625 11.71875 
Q 11.71875 9.328125 16.59375 8.109375 
Q 21.484375 6.890625 26.8125 6.890625 
Q 36.078125 6.890625 40.9375 10.546875 
Q 45.796875 14.203125 45.796875 21.1875 
Q 45.796875 27.640625 41.28125 31.265625 
Q 36.765625 34.90625 28.71875 34.90625 
L 20.21875 34.90625 
L 20.21875 43.015625 
L 29.109375 43.015625 
Q 36.375 43.015625 40.234375 45.921875 
Q 44.09375 48.828125 44.09375 54.296875 
Q 44.09375 59.90625 40.109375 62.90625 
Q 36.140625 65.921875 28.71875 65.921875 
Q 24.65625 65.921875 20.015625 65.03125 
Q 15.375 64.15625 9.8125 62.3125 
L 9.8125 71.09375 
Q 15.4375 72.65625 20.34375 73.4375 
Q 25.25 74.21875 29.59375 74.21875 
Q 40.828125 74.21875 47.359375 69.109375 
Q 53.90625 64.015625 53.90625 55.328125 
Q 53.90625 49.265625 50.4375 45.09375 
Q 46.96875 40.921875 40.578125 39.3125 
z
" id="DejaVuSans-51"/>
       </defs>
       <use xlink:href="#DejaVuSans-48"/>
       <use x="63.623047" xlink:href="#DejaVuSans-46"/>
       <use x="95.410156" xlink:href="#DejaVuSans-51"/>
      </g>
     </g>
    </g>
    <g id="ytick_5">
     <g id="line2d_11">
      <g>
       <use style="stroke:#000000;stroke-width:0.8;" x="43.78125" xlink:href="#m7868175ffa" y="70.928094"/>
      </g>
     </g>
     <g id="text_12">
      <!-- 0.4 -->
      <g transform="translate(20.878125 74.727313)scale(0.1 -0.1)">
       <use xlink:href="#DejaVuSans-48"/>
       <use x="63.623047" xlink:href="#DejaVuSans-46"/>
       <use x="95.410156" xlink:href="#DejaVuSans-52"/>
      </g>
     </g>
    </g>
    <g id="ytick_6">
     <g id="line2d_12">
      <g>
       <use style="stroke:#000000;stroke-width:0.8;" x="43.78125" xlink:href="#m7868175ffa" y="28.2928"/>
      </g>
     </g>
     <g id="text_13">
      <!-- 0.5 -->
      <g transform="translate(20.878125 32.092019)scale(0.1 -0.1)">
       <defs>
        <path d="M 10.796875 72.90625 
L 49.515625 72.90625 
L 49.515625 64.59375 
L 19.828125 64.59375 
L 19.828125 46.734375 
Q 21.96875 47.46875 24.109375 47.828125 
Q 26.265625 48.1875 28.421875 48.1875 
Q 40.625 48.1875 47.75 41.5 
Q 54.890625 34.8125 54.890625 23.390625 
Q 54.890625 11.625 47.5625 5.09375 
Q 40.234375 -1.421875 26.90625 -1.421875 
Q 22.3125 -1.421875 17.546875 -0.640625 
Q 12.796875 0.140625 7.71875 1.703125 
L 7.71875 11.625 
Q 12.109375 9.234375 16.796875 8.0625 
Q 21.484375 6.890625 26.703125 6.890625 
Q 35.15625 6.890625 40.078125 11.328125 
Q 45.015625 15.765625 45.015625 23.390625 
Q 45.015625 31 40.078125 35.4375 
Q 35.15625 39.890625 26.703125 39.890625 
Q 22.75 39.890625 18.8125 39.015625 
Q 14.890625 38.140625 10.796875 36.28125 
z
" id="DejaVuSans-53"/>
       </defs>
       <use xlink:href="#DejaVuSans-48"/>
       <use x="63.623047" xlink:href="#DejaVuSans-46"/>
       <use x="95.410156" xlink:href="#DejaVuSans-53"/>
      </g>
     </g>
    </g>
    <g id="text_14">
     <!-- $y$ -->
     <g transform="translate(14.778125 140.0128)rotate(-90)scale(0.1 -0.1)">
      <defs>
       <path d="M 24.8125 -5.078125 
Q 18.5625 -15.578125 14.625 -18.1875 
Q 10.6875 -20.796875 4.59375 -20.796875 
L -2.484375 -20.796875 
L -0.984375 -13.28125 
L 4.203125 -13.28125 
Q 7.953125 -13.28125 10.59375 -11.234375 
Q 13.234375 -9.1875 16.5 -3.21875 
L 19.28125 2 
L 7.171875 54.6875 
L 16.703125 54.6875 
L 25.78125 12.796875 
L 50.875 54.6875 
L 60.296875 54.6875 
z
" id="DejaVuSans-Oblique-121"/>
      </defs>
      <use transform="translate(0 0.3125)" xlink:href="#DejaVuSans-Oblique-121"/>
     </g>
    </g>
   </g>
   <g id="line2d_13"/>
   <g id="line2d_14"/>
   <g id="line2d_15">
    <path clip-path="url(#pffe986e199)" d="M 43.853456 241.4552 
L 60.13399 238.177886 
L 64.891155 237.004281 
L 67.92995 236.050219 
L 70.196817 235.130086 
L 72.165712 234.078935 
L 73.851957 232.878109 
L 75.30589 231.506296 
L 76.585069 229.93915 
L 77.739861 228.148856 
L 78.809437 226.103637 
L 80.020395 223.261419 
L 81.184462 219.926876 
L 82.32492 216.014745 
L 83.646418 210.586164 
L 84.974094 204.045424 
L 86.319162 196.164666 
L 87.688532 186.669367 
L 89.084909 175.228759 
L 90.505338 161.444283 
L 91.733131 147.402072 
L 92.952792 130.927531 
L 94.131177 111.599318 
L 95.03773 92.958479 
L 95.669652 76.15215 
L 96.162855 57.457131 
L 96.395252 42.069678 
L 96.460476 31.10693 
L 96.460476 31.10693 
" style="fill:none;stroke:#000000;stroke-linecap:square;stroke-width:1.5;"/>
   </g>
   <g id="line2d_16">
    <path clip-path="url(#pffe986e199)" d="M 39.48476 241.4552 
L 45.101236 240.977725 
L 55.913207 239.101426 
L 63.958456 237.289903 
L 69.393421 235.512898 
L 73.479836 233.377701 
L 74.473661 231.79546 
L 75.682385 230.269486 
L 76.403908 229.599899 
L 77.306046 228.89369 
L 77.573256 228.148856 
L 78.179146 225.660896 
L 78.740498 224.259696 
L 79.357183 223.261419 
L 80.798647 221.098073 
L 82.395145 218.04889 
L 82.759494 217.388813 
L 82.839966 216.710922 
L 82.749607 214.565525 
L 82.851358 213.037045 
L 85.193919 205.056077 
L 86.216214 200.846881 
L 87.126536 196.164666 
L 87.866237 190.956294 
L 88.277273 186.669367 
L 88.544842 182.025999 
L 88.674376 175.228759 
L 89.39707 171.548848 
L 90.970544 163.574223 
L 92.162794 157.010468 
L 92.467938 154.703435 
L 92.857241 144.835773 
L 93.356993 124.824653 
L 93.852732 108.06699 
L 94.378822 96.887765 
L 94.839135 88.923184 
L 94.894539 80.52298 
L 95.121611 76.15215 
L 95.62125 71.663355 
L 95.879925 57.457131 
L 96.036378 42.069678 
L 97.292694 31.10693 
L 97.292694 31.10693 
" style="fill:none;stroke:#d62728;stroke-dasharray:5.55,2.4;stroke-dashoffset:0;stroke-width:1.5;"/>
   </g>
   <g id="line2d_17">
    <path clip-path="url(#pffe986e199)" d="M 43.875559 241.4552 
L 62.941188 238.510623 
L 68.544921 237.427111 
L 72.034803 236.54629 
L 74.587059 235.696795 
L 76.774384 234.726337 
L 78.634814 233.617695 
L 80.237372 232.351192 
L 81.651551 230.904351 
L 82.93446 229.251493 
L 84.128859 227.363284 
L 85.487838 224.739252 
L 86.799508 221.660696 
L 88.088048 218.04889 
L 89.369853 213.81146 
L 90.656434 208.840044 
L 91.956099 203.007502 
L 93.274849 196.164666 
L 94.616697 188.136558 
L 95.983468 178.717842 
L 97.373999 167.667668 
L 98.782454 154.703435 
L 100.195177 139.49359 
L 101.356527 124.824653 
L 102.473725 108.06699 
L 103.498089 88.923184 
L 104.196436 71.663355 
L 104.714943 52.463946 
L 104.926232 36.661238 
L 104.952206 31.10693 
L 104.952206 31.10693 
" style="fill:none;stroke:#000000;stroke-linecap:square;stroke-width:1.5;"/>
   </g>
   <g id="line2d_18">
    <path clip-path="url(#pffe986e199)" d="M 41.361545 241.4552 
L 49.894622 240.85013 
L 52.320499 240.400085 
L 52.987486 240.284566 
L 59.161959 239.363264 
L 63.604132 238.510623 
L 68.936319 237.427111 
L 73.829107 236.050219 
L 75.333046 235.512898 
L 78.99688 233.851386 
L 80.424055 231.79546 
L 81.743626 230.269486 
L 83.538331 228.526228 
L 83.593227 227.363284 
L 83.819656 226.534747 
L 84.844101 224.739252 
L 87.138922 221.098073 
L 88.913155 218.04889 
L 89.355381 217.388813 
L 89.838692 212.241739 
L 90.300289 206.99842 
L 91.82558 201.94157 
L 92.963441 197.382375 
L 93.963382 192.31084 
L 94.591268 188.136558 
L 95.094063 183.615177 
L 95.458512 178.717842 
L 95.690152 175.228759 
L 95.851756 173.413289 
L 97.157385 167.667668 
L 98.539213 161.444283 
L 98.886224 159.256886 
L 99.55964 149.900939 
L 100.259194 136.713907 
L 101.690494 108.06699 
L 102.486266 96.887765 
L 102.822972 92.958479 
L 103.035064 84.778971 
L 103.694434 76.15215 
L 104.09981 62.319174 
L 104.297389 47.33596 
L 105.645234 36.661238 
L 106.235077 31.10693 
L 106.235077 31.10693 
" style="fill:none;stroke:#d62728;stroke-dasharray:5.55,2.4;stroke-dashoffset:0;stroke-width:1.5;"/>
   </g>
   <g id="line2d_19">
    <path clip-path="url(#pffe986e199)" d="M 43.969682 241.4552 
L 72.995297 239.191039 
L 80.614983 238.40265 
L 85.637378 237.690808 
L 89.142644 237.004281 
L 92.061882 236.219997 
L 94.514361 235.32404 
L 96.628665 234.300507 
L 98.510359 233.131229 
L 100.236585 231.79546 
L 101.860888 230.269486 
L 103.419813 228.526228 
L 104.938341 226.534747 
L 106.433885 224.259696 
L 108.215533 221.098073 
L 109.997675 217.388813 
L 111.792168 213.037045 
L 113.608412 207.931489 
L 115.454145 201.94157 
L 117.335603 194.914105 
L 118.93409 188.136558 
L 120.561898 180.393937 
L 122.218579 171.548848 
L 123.900939 161.444283 
L 125.601458 149.900939 
L 127.305533 136.713907 
L 128.986868 121.649169 
L 130.285635 108.06699 
L 131.502857 92.958479 
L 132.327641 80.52298 
L 133.037463 67.053443 
L 133.582279 52.463946 
L 133.895002 36.661238 
L 133.933471 31.10693 
L 133.933471 31.10693 
" style="fill:none;stroke:#000000;stroke-linecap:square;stroke-width:1.5;"/>
   </g>
   <g id="line2d_20">
    <path clip-path="url(#pffe986e199)" d="M 43.371336 241.4552 
L 57.898534 240.759225 
L 67.739611 240.099335 
L 79.33791 238.718132 
L 84.537415 237.94083 
L 91.05605 236.703036 
L 93.633601 236.050219 
L 97.162166 234.930899 
L 98.961765 233.377701 
L 102.1293 230.591145 
L 104.383711 228.89369 
L 106.042686 227.761296 
L 107.290263 224.739252 
L 107.858395 223.261419 
L 108.972632 221.098073 
L 110.67931 218.04889 
L 110.782839 216.014745 
L 113.124792 208.840044 
L 114.135109 205.056077 
L 114.68656 203.007502 
L 115.913573 199.722652 
L 117.027052 196.164666 
L 117.423453 193.629796 
L 117.766055 189.565185 
L 117.858132 186.669367 
L 118.165735 185.162595 
L 120.308643 178.717842 
L 120.805393 176.996525 
L 121.125554 175.228759 
L 121.57803 169.634083 
L 121.755781 165.648203 
L 122.430172 161.444283 
L 123.902209 152.334147 
L 125.694832 139.49359 
L 129.427108 111.599318 
L 130.510807 104.439327 
L 130.898164 96.887765 
L 131.932946 84.778971 
L 132.753295 71.663355 
L 133.232484 62.319174 
L 133.827479 57.457131 
L 134.66968 47.33596 
L 135.222142 36.661238 
L 135.385933 31.10693 
L 135.385933 31.10693 
" style="fill:none;stroke:#d62728;stroke-dasharray:5.55,2.4;stroke-dashoffset:0;stroke-width:1.5;"/>
   </g>
   <g id="line2d_21">
    <path clip-path="url(#pffe986e199)" d="M 44.040736 241.4552 
L 79.306215 239.445999 
L 88.52968 238.718132 
L 94.364907 238.060935 
L 98.335625 237.427111 
L 101.607419 236.703036 
L 104.355596 235.875859 
L 106.739759 234.930899 
L 108.880178 233.851386 
L 110.860417 232.618158 
L 112.736682 231.20933 
L 114.546585 229.599899 
L 116.315607 227.761296 
L 118.061448 225.660896 
L 119.796886 223.261419 
L 121.531606 220.520271 
L 123.273361 217.388813 
L 125.028659 213.81146 
L 126.803187 209.724727 
L 128.601997 205.056077 
L 130.429579 199.722652 
L 132.289743 193.629796 
L 134.185347 186.669367 
L 136.117878 178.717842 
L 138.086629 169.634083 
L 140.087444 159.256886 
L 142.110528 147.402072 
L 143.732677 136.713907 
L 145.340683 124.824653 
L 146.908471 111.599318 
L 148.395138 96.887765 
L 149.419597 84.778971 
L 150.323687 71.663355 
L 151.052757 57.457131 
L 151.405836 47.33596 
L 151.621184 36.661238 
L 151.667527 31.10693 
L 151.667527 31.10693 
" style="fill:none;stroke:#000000;stroke-linecap:square;stroke-width:1.5;"/>
   </g>
   <g id="line2d_22">
    <path clip-path="url(#pffe986e199)" d="M 39.935687 241.4552 
L 58.463164 240.759225 
L 72.385106 240.03423 
L 80.16774 239.445999 
L 96.460367 237.560715 
L 101.947064 236.54629 
L 106.120817 235.512898 
L 107.865416 234.516257 
L 109.81573 233.131229 
L 114.631079 229.599899 
L 118.129624 227.363284 
L 118.502187 226.534747 
L 119.037116 225.206207 
L 120.120552 223.261419 
L 121.625216 221.098073 
L 123.42223 218.691624 
L 124.10874 215.29978 
L 124.893432 212.241739 
L 125.587018 209.724727 
L 127.990148 205.056077 
L 129.378026 201.94157 
L 130.656611 198.568093 
L 131.776176 194.914105 
L 132.162281 193.629796 
L 134.461923 188.136558 
L 135.036582 186.669367 
L 135.750341 183.615177 
L 136.31768 180.393937 
L 136.355486 176.996525 
L 136.177573 173.413289 
L 137.530257 165.648203 
L 138.45872 159.256886 
L 140.440178 149.900939 
L 142.982381 136.713907 
L 146.933379 115.03884 
L 148.004561 104.439327 
L 149.347648 92.958479 
L 149.596957 88.923184 
L 149.784078 80.52298 
L 149.852979 71.663355 
L 150.940044 62.319174 
L 151.760783 52.463946 
L 152.301 42.069678 
L 152.546328 31.10693 
L 152.546328 31.10693 
" style="fill:none;stroke:#d62728;stroke-dasharray:5.55,2.4;stroke-dashoffset:0;stroke-width:1.5;"/>
   </g>
   <g id="line2d_23">
    <path clip-path="url(#pffe986e199)" d="M 44.173903 241.4552 
L 90.595056 239.681385 
L 102.156467 239.009395 
L 108.991943 238.40265 
L 114.300278 237.690808 
L 117.869239 237.004281 
L 120.919367 236.219997 
L 123.627819 235.32404 
L 126.1143 234.300507 
L 128.457128 233.131229 
L 130.707352 231.79546 
L 132.898726 230.269486 
L 135.054161 228.526228 
L 137.189895 226.534747 
L 139.318 224.259696 
L 141.448056 221.660696 
L 143.588116 218.691624 
L 145.745302 215.29978 
L 147.926163 211.424971 
L 150.13683 206.99842 
L 152.383 201.94157 
L 154.669816 196.164666 
L 157.001614 189.565185 
L 159.381414 182.025999 
L 161.810124 173.413289 
L 163.786765 165.648203 
L 165.789459 157.010468 
L 167.811019 147.402072 
L 169.839164 136.713907 
L 171.853695 124.824653 
L 173.822291 111.599318 
L 175.238733 100.713812 
L 176.569139 88.923184 
L 177.7686 76.15215 
L 178.774364 62.319174 
L 179.295804 52.463946 
L 179.661065 42.069678 
L 179.832339 31.10693 
L 179.832339 31.10693 
" style="fill:none;stroke:#000000;stroke-linecap:square;stroke-width:1.5;"/>
   </g>
   <g id="line2d_24">
    <path clip-path="url(#pffe986e199)" d="M 41.153863 241.4552 
L 66.670944 240.711925 
L 85.231771 239.967368 
L 97.696147 239.278299 
L 108.138432 238.291764 
L 114.564051 237.560715 
L 118.684159 236.855663 
L 120.463653 236.385316 
L 123.127331 235.512898 
L 125.356312 234.516257 
L 127.341426 233.377701 
L 131.535085 230.591145 
L 134.183733 228.526228 
L 136.494713 226.954531 
L 137.195084 226.534747 
L 138.138141 225.206207 
L 139.684694 223.261419 
L 141.720296 221.098073 
L 142.916137 219.926876 
L 143.305789 219.317472 
L 144.502837 216.710922 
L 147.284362 211.424971 
L 150.030367 206.040174 
L 151.88263 201.94157 
L 152.506208 199.722652 
L 153.006196 198.568093 
L 155.575765 193.629796 
L 156.748467 190.956294 
L 157.815205 188.136558 
L 158.757437 185.162595 
L 159.558012 182.025999 
L 160.198026 178.717842 
L 161.941069 173.413289 
L 162.973238 169.634083 
L 163.868067 165.648203 
L 164.609328 161.444283 
L 165.180177 157.010468 
L 165.245795 152.334147 
L 169.919522 139.49359 
L 170.918646 133.859207 
L 171.362333 130.927531 
L 172.053034 124.824653 
L 173.000064 118.387994 
L 173.787097 111.599318 
L 174.461062 104.439327 
L 175.015865 96.887765 
L 175.499662 88.923184 
L 175.990407 84.778971 
L 177.485266 76.15215 
L 178.149008 71.663355 
L 179.031936 62.319174 
L 179.620609 52.463946 
L 179.929387 42.069678 
L 179.94624 31.10693 
L 179.94624 31.10693 
" style="fill:none;stroke:#d62728;stroke-dasharray:5.55,2.4;stroke-dashoffset:0;stroke-width:1.5;"/>
   </g>
   <g id="line2d_25">
    <path clip-path="url(#pffe986e199)" d="M 44.287844 241.4552 
L 96.875154 239.898701 
L 110.532269 239.278299 
L 118.429262 238.718132 
L 124.472015 238.060935 
L 129.238545 237.289903 
L 133.221155 236.385316 
L 136.739641 235.32404 
L 139.984346 234.078935 
L 143.066793 232.618158 
L 145.560495 231.20933 
L 148.01297 229.599899 
L 150.441716 227.761296 
L 152.859794 225.660896 
L 155.277637 223.261419 
L 157.704106 220.520271 
L 160.147166 217.388813 
L 162.614272 213.81146 
L 165.112527 209.724727 
L 167.648743 205.056077 
L 170.229342 199.722652 
L 172.329709 194.914105 
L 174.464726 189.565185 
L 176.636299 183.615177 
L 178.845369 176.996525 
L 181.091503 169.634083 
L 183.37216 161.444283 
L 185.681671 152.334147 
L 188.009577 142.200256 
L 190.338146 130.927531 
L 192.638351 118.387994 
L 194.317744 108.06699 
L 195.926205 96.887765 
L 197.422224 84.778971 
L 198.747224 71.663355 
L 199.496268 62.319174 
L 200.102121 52.463946 
L 200.526831 42.069678 
L 200.726061 31.10693 
L 200.726061 31.10693 
" style="fill:none;stroke:#000000;stroke-linecap:square;stroke-width:1.5;"/>
   </g>
   <g id="line2d_26">
    <path clip-path="url(#pffe986e199)" d="M 41.570086 241.4552 
L 69.061393 240.805283 
L 92.921439 240.03423 
L 109.945283 239.278299 
L 117.119833 238.718132 
L 130.245688 237.148993 
L 132.76652 236.54629 
L 138.614437 234.726337 
L 141.001875 233.617695 
L 142.743956 232.618158 
L 147.937674 228.89369 
L 151.106565 226.954531 
L 153.193335 225.660896 
L 154.735071 223.767202 
L 156.803191 221.660696 
L 158.048169 220.520271 
L 158.759705 219.317472 
L 160.229184 216.710922 
L 167.232333 205.056077 
L 170.62236 198.568093 
L 172.219182 194.914105 
L 173.856606 190.956294 
L 176.325871 186.669367 
L 177.884714 183.615177 
L 179.333294 180.393937 
L 180.654847 176.996525 
L 181.262632 175.228759 
L 182.146929 171.548848 
L 182.813874 167.667668 
L 185.826957 157.010468 
L 186.163273 154.703435 
L 186.483443 149.900939 
L 186.540834 147.402072 
L 187.761375 136.713907 
L 189.369146 130.927531 
L 190.815811 124.824653 
L 192.15566 118.387994 
L 192.78273 115.03884 
L 193.559149 108.06699 
L 194.604225 96.887765 
L 196.184213 88.923184 
L 197.559374 80.52298 
L 198.712991 71.663355 
L 199.629571 62.319174 
L 200.292987 52.463946 
L 200.688309 42.069678 
L 200.802691 31.10693 
L 200.802691 31.10693 
" style="fill:none;stroke:#d62728;stroke-dasharray:5.55,2.4;stroke-dashoffset:0;stroke-width:1.5;"/>
   </g>
   <g id="line2d_27">
    <path clip-path="url(#pffe986e199)" d="M 44.412262 241.4552 
L 103.977323 240.03423 
L 119.558774 239.445999 
L 128.317184 238.91488 
L 134.937457 238.291764 
L 140.155992 237.560715 
L 144.538449 236.703036 
L 148.43319 235.696795 
L 152.041423 234.516257 
L 155.479135 233.131229 
L 158.815164 231.506296 
L 161.54904 229.93915 
L 164.259514 228.148856 
L 166.959657 226.103637 
L 169.660171 223.767202 
L 172.370428 221.098073 
L 175.099016 218.04889 
L 177.854164 214.565525 
L 180.082773 211.424971 
L 182.337488 207.931489 
L 184.62219 204.045424 
L 186.940599 199.722652 
L 189.296144 194.914105 
L 191.691828 189.565185 
L 194.12998 183.615177 
L 196.611917 176.996525 
L 199.137447 169.634083 
L 201.704087 161.444283 
L 204.305812 152.334147 
L 206.93132 142.200256 
L 209.561146 130.927531 
L 211.517597 121.649169 
L 213.438218 111.599318 
L 215.293584 100.713812 
L 217.04177 88.923184 
L 218.623145 76.15215 
L 219.544406 67.053443 
L 220.32215 57.457131 
L 220.916447 47.33596 
L 221.279676 36.661238 
L 221.35792 31.10693 
L 221.35792 31.10693 
" style="fill:none;stroke:#000000;stroke-linecap:square;stroke-width:1.5;"/>
   </g>
   <g id="line2d_28">
    <path clip-path="url(#pffe986e199)" d="M 41.717761 241.4552 
L 68.979208 240.93632 
L 98.662757 240.16273 
L 118.776214 239.445999 
L 127.040377 239.009395 
L 132.723144 238.510623 
L 141.864103 237.289903 
L 145.792787 236.54629 
L 151.335792 235.130086 
L 152.878625 234.516257 
L 154.607455 233.617695 
L 157.450516 231.79546 
L 162.127409 228.89369 
L 165.661017 226.954531 
L 169.065049 225.206207 
L 171.108252 223.261419 
L 173.658582 221.098073 
L 174.347269 219.926876 
L 175.845484 217.388813 
L 178.722542 213.037045 
L 182.078554 207.931489 
L 184.414597 204.045424 
L 186.712969 199.722652 
L 187.908303 197.382375 
L 189.896873 193.629796 
L 191.766244 189.565185 
L 194.12324 183.615177 
L 195.998499 180.393937 
L 197.763357 176.996525 
L 199.449318 173.413289 
L 200.103373 171.548848 
L 201.68297 165.648203 
L 202.458101 161.444283 
L 203.322235 154.703435 
L 205.691948 144.835773 
L 206.097937 142.200256 
L 206.683344 139.49359 
L 208.044536 133.859207 
L 209.072451 127.916708 
L 209.445766 124.824653 
L 210.036961 121.649169 
L 210.887743 118.387994 
L 212.227437 111.599318 
L 212.885955 108.06699 
L 215.082471 100.713812 
L 216.085333 96.887765 
L 217.528851 88.923184 
L 218.731559 80.52298 
L 219.673102 71.663355 
L 220.333869 62.319174 
L 220.497977 57.457131 
L 220.442247 42.069678 
L 220.973574 31.10693 
L 220.973574 31.10693 
" style="fill:none;stroke:#d62728;stroke-dasharray:5.55,2.4;stroke-dashoffset:0;stroke-width:1.5;"/>
   </g>
   <g id="line2d_29">
    <path clip-path="url(#pffe986e199)" d="M 44.470937 241.4552 
L 108.916824 240.03423 
L 123.173873 239.526559 
L 132.398429 239.009395 
L 139.333638 238.40265 
L 144.788838 237.690808 
L 149.36979 236.855663 
L 153.443433 235.875859 
L 157.219439 234.726337 
L 160.817848 233.377701 
L 164.309639 231.79546 
L 167.170443 230.269486 
L 170.005758 228.526228 
L 172.829027 226.534747 
L 175.651289 224.259696 
L 178.482168 221.660696 
L 181.330562 218.691624 
L 184.204981 215.29978 
L 186.528824 212.241739 
L 188.878791 208.840044 
L 191.258944 205.056077 
L 193.673213 200.846881 
L 196.125235 196.164666 
L 198.618256 190.956294 
L 201.154908 185.162595 
L 203.736858 178.717842 
L 206.364308 171.548848 
L 209.035333 163.574223 
L 211.744674 154.703435 
L 214.482115 144.835773 
L 217.229734 133.859207 
L 219.279813 124.824653 
L 221.300176 115.03884 
L 223.263592 104.439327 
L 225.131131 92.958479 
L 226.847479 80.52298 
L 227.870188 71.663355 
L 228.760989 62.319174 
L 229.482186 52.463946 
L 229.988152 42.069678 
L 230.225606 31.10693 
L 230.225606 31.10693 
" style="fill:none;stroke:#000000;stroke-linecap:square;stroke-width:1.5;"/>
   </g>
   <g id="line2d_30">
    <path clip-path="url(#pffe986e199)" d="M 42.298241 241.4552 
L 73.935602 240.893799 
L 105.492641 240.099335 
L 126.557333 239.363264 
L 135.255831 238.817815 
L 138.900229 238.40265 
L 143.163569 237.817483 
L 148.204299 237.148993 
L 152.17977 236.385316 
L 156.474858 235.32404 
L 158.761238 234.516257 
L 160.744175 233.617695 
L 163.015807 232.351192 
L 165.748042 230.591145 
L 169.058944 228.526228 
L 172.933231 226.534747 
L 175.731565 225.206207 
L 176.367315 224.739252 
L 178.282829 222.741984 
L 179.991494 221.098073 
L 181.321845 218.691624 
L 183.506779 215.29978 
L 186.791277 210.586164 
L 189.948331 206.040174 
L 192.51849 201.94157 
L 194.416969 198.568093 
L 196.254801 194.914105 
L 198.821223 189.565185 
L 201.608336 183.615177 
L 203.09543 180.393937 
L 204.977954 176.996525 
L 206.653302 173.413289 
L 208.171762 169.634083 
L 209.508917 165.648203 
L 210.599964 161.444283 
L 211.40853 157.010468 
L 211.69464 154.703435 
L 212.124012 152.334147 
L 214.207272 144.835773 
L 215.896698 136.713907 
L 217.365178 130.927531 
L 218.49708 124.824653 
L 218.921264 121.649169 
L 219.241462 118.387994 
L 219.800092 115.03884 
L 222.146948 108.06699 
L 224.34058 100.713812 
L 226.298482 92.958479 
L 227.188358 88.923184 
L 228.366012 80.52298 
L 229.248088 71.663355 
L 229.356773 62.319174 
L 229.141561 52.463946 
L 229.684282 31.10693 
L 229.684282 31.10693 
" style="fill:none;stroke:#d62728;stroke-dasharray:5.55,2.4;stroke-dashoffset:0;stroke-width:1.5;"/>
   </g>
   <g id="line2d_31">
    <path clip-path="url(#pffe986e199)" d="M 44.561185 241.4552 
L 113.845984 240.099335 
L 129.139629 239.605002 
L 138.877389 239.101426 
L 146.154465 238.510623 
L 151.884916 237.817483 
L 156.715949 237.004281 
L 161.028579 236.050219 
L 165.037158 234.930899 
L 168.863497 233.617695 
L 172.579472 232.077025 
L 175.624711 230.591145 
L 178.642675 228.89369 
L 181.647195 226.954531 
L 184.649702 224.739252 
L 187.660236 222.208536 
L 190.688168 219.317472 
L 193.129078 216.710922 
L 195.591413 213.81146 
L 198.079635 210.586164 
L 200.598164 206.99842 
L 203.151306 203.007502 
L 205.743144 198.568093 
L 208.377451 193.629796 
L 211.057474 188.136558 
L 213.785609 182.025999 
L 216.563089 175.228759 
L 219.389224 167.667668 
L 222.260532 159.256886 
L 225.16921 149.900939 
L 228.100875 139.49359 
L 230.300494 130.927531 
L 232.483676 121.649169 
L 234.627619 111.599318 
L 236.69954 100.713812 
L 238.652634 88.923184 
L 239.856776 80.52298 
L 240.952812 71.663355 
L 241.907906 62.319174 
L 242.681478 52.463946 
L 243.22438 42.069678 
L 243.479231 31.10693 
L 243.479231 31.10693 
" style="fill:none;stroke:#000000;stroke-linecap:square;stroke-width:1.5;"/>
   </g>
   <g id="line2d_32">
    <path clip-path="url(#pffe986e199)" d="M 44.917529 241.4552 
L 81.996332 240.85013 
L 113.64538 240.099335 
L 133.625619 239.445999 
L 142.744483 238.91488 
L 147.743024 238.40265 
L 159.508858 236.703036 
L 164.704326 235.512898 
L 167.229176 234.726337 
L 169.372974 233.851386 
L 171.758715 232.618158 
L 176.830848 229.599899 
L 179.86893 227.761296 
L 184.568464 225.206207 
L 185.443609 224.739252 
L 188.838562 221.098073 
L 190.311378 218.691624 
L 192.179072 216.014745 
L 199.186538 206.99842 
L 201.984409 203.007502 
L 207.3985 194.914105 
L 209.804623 190.956294 
L 211.052866 188.136558 
L 212.723879 183.615177 
L 215.849403 175.228759 
L 217.841411 171.548848 
L 219.650897 167.667668 
L 221.273798 163.574223 
L 222.066291 161.444283 
L 223.023399 159.256886 
L 223.881002 157.010468 
L 225.171696 152.334147 
L 225.67875 149.900939 
L 226.084394 147.402072 
L 226.38088 144.835773 
L 226.92371 142.200256 
L 228.178466 136.713907 
L 228.843533 133.859207 
L 230.561404 127.916708 
L 235.226742 108.06699 
L 236.41617 104.439327 
L 237.854699 100.713812 
L 239.833355 92.958479 
L 240.672816 88.923184 
L 241.755282 80.52298 
L 242.18734 76.15215 
L 242.35816 71.663355 
L 242.364945 62.319174 
L 243.196297 47.33596 
L 243.375299 36.661238 
L 243.310225 31.10693 
L 243.310225 31.10693 
" style="fill:none;stroke:#d62728;stroke-dasharray:5.55,2.4;stroke-dashoffset:0;stroke-width:1.5;"/>
   </g>
   <g id="line2d_33">
    <path clip-path="url(#pffe986e199)" d="M 44.8068 241.4552 
L 126.608601 240.224459 
L 144.342503 239.75576 
L 155.223158 239.278299 
L 163.273888 238.718132 
L 169.652643 238.060935 
L 175.089129 237.289903 
L 179.98821 236.385316 
L 184.570986 235.32404 
L 188.961552 234.078935 
L 193.233192 232.618158 
L 196.735968 231.20933 
L 200.207414 229.599899 
L 203.662351 227.761296 
L 207.113297 225.660896 
L 210.5715 223.261419 
L 214.047572 220.520271 
L 216.848291 218.04889 
L 219.672394 215.29978 
L 222.52518 212.241739 
L 225.411962 208.840044 
L 228.337948 205.056077 
L 231.308271 200.846881 
L 234.327795 196.164666 
L 237.400944 190.956294 
L 240.531476 185.162595 
L 243.722037 178.717842 
L 246.973681 171.548848 
L 250.284829 163.574223 
L 253.650074 154.703435 
L 256.20289 147.402072 
L 258.771797 139.49359 
L 261.344568 130.927531 
L 263.903261 121.649169 
L 266.421608 111.599318 
L 268.861602 100.713812 
L 270.41845 92.958479 
L 271.894622 84.778971 
L 273.2622 76.15215 
L 274.485898 67.053443 
L 275.52145 57.457131 
L 276.314451 47.33596 
L 276.799899 36.661238 
L 276.904557 31.10693 
L 276.904557 31.10693 
" style="fill:none;stroke:#000000;stroke-linecap:square;stroke-width:1.5;"/>
   </g>
   <g id="line2d_34">
    <path clip-path="url(#pffe986e199)" d="M 42.949378 241.4552 
L 102.609714 240.663349 
L 135.28776 239.967368 
L 149.273096 239.526559 
L 159.683887 239.009395 
L 167.385247 238.40265 
L 170.961769 237.94083 
L 175.047912 237.289903 
L 179.918221 236.54629 
L 186.534611 235.130086 
L 189.098366 234.300507 
L 191.278038 233.377701 
L 193.769862 232.077025 
L 200.923277 228.148856 
L 205.19059 226.103637 
L 209.440723 224.259696 
L 210.623856 223.767202 
L 212.02213 222.741984 
L 214.053777 220.520271 
L 222.135537 212.241739 
L 223.515487 210.586164 
L 224.918114 208.840044 
L 228.235992 205.056077 
L 231.592276 200.846881 
L 234.083211 197.382375 
L 236.514588 193.629796 
L 238.854694 189.565185 
L 241.073326 185.162595 
L 244.702149 176.996525 
L 246.09732 173.413289 
L 247.365228 169.634083 
L 248.488259 165.648203 
L 248.989272 163.574223 
L 254.485599 152.334147 
L 256.376232 147.402072 
L 257.22616 144.835773 
L 257.980465 142.200256 
L 259.277672 136.713907 
L 260.130667 133.859207 
L 260.848326 130.927531 
L 261.419873 127.916708 
L 262.180963 124.824653 
L 263.545656 121.649169 
L 264.822382 118.387994 
L 265.998784 115.03884 
L 267.067989 111.599318 
L 268.021143 108.06699 
L 268.850082 104.439327 
L 269.545663 100.713812 
L 270.09789 96.887765 
L 270.496404 92.958479 
L 270.922529 84.778971 
L 271.765981 80.52298 
L 273.178659 76.15215 
L 274.342363 71.663355 
L 275.608584 62.319174 
L 276.512338 52.463946 
L 277.026178 42.069678 
L 277.289393 31.10693 
L 277.289393 31.10693 
" style="fill:none;stroke:#d62728;stroke-dasharray:5.55,2.4;stroke-dashoffset:0;stroke-width:1.5;"/>
   </g>
   <g id="line2d_35">
    <path clip-path="url(#pffe986e199)" d="M 44.95746 241.4552 
L 133.708498 240.284566 
L 152.812427 239.828182 
L 164.327536 239.363264 
L 172.815638 238.817815 
L 179.564561 238.177886 
L 185.346072 237.427111 
L 190.577478 236.54629 
L 195.48377 235.512898 
L 200.190669 234.300507 
L 204.77252 232.878109 
L 208.529803 231.506296 
L 212.252726 229.93915 
L 215.956692 228.148856 
L 219.654743 226.103637 
L 223.358726 223.767202 
L 227.07989 221.098073 
L 230.07661 218.691624 
L 233.097022 216.014745 
L 236.146805 213.037045 
L 239.231656 209.724727 
L 242.357217 206.040174 
L 245.52902 201.94157 
L 248.752417 197.382375 
L 252.032343 192.31084 
L 255.373062 186.669367 
L 258.77782 180.393937 
L 262.248304 173.413289 
L 265.783753 165.648203 
L 268.475424 159.256886 
L 271.197282 152.334147 
L 273.942923 144.835773 
L 276.702425 136.713907 
L 279.460947 127.916708 
L 282.196646 118.387994 
L 284.877686 108.06699 
L 287.457932 96.887765 
L 289.090248 88.923184 
L 290.622097 80.52298 
L 292.019735 71.663355 
L 293.240548 62.319174 
L 294.231527 52.463946 
L 294.928251 42.069678 
L 295.255723 31.10693 
L 295.255723 31.10693 
" style="fill:none;stroke:#000000;stroke-linecap:square;stroke-width:1.5;"/>
   </g>
   <g id="line2d_36">
    <path clip-path="url(#pffe986e199)" d="M 42.272139 241.4552 
L 107.93619 240.663349 
L 139.144595 240.099335 
L 158.658829 239.526559 
L 170.126063 239.009395 
L 178.946771 238.40265 
L 183.088527 237.94083 
L 195.725415 235.875859 
L 198.880618 235.130086 
L 201.4693 234.300507 
L 203.678134 233.377701 
L 206.177668 232.077025 
L 210.122952 229.93915 
L 214.598203 227.761296 
L 219.414404 225.660896 
L 225.386364 223.261419 
L 226.789372 221.660696 
L 228.948282 219.317472 
L 233.72635 214.565525 
L 239.423539 208.840044 
L 242.930832 205.056077 
L 244.600049 203.007502 
L 246.187338 200.846881 
L 248.907654 197.382375 
L 251.591941 193.629796 
L 257.156134 185.162595 
L 259.83184 180.393937 
L 261.515733 176.996525 
L 263.105707 173.413289 
L 264.588356 169.634083 
L 265.948297 165.648203 
L 267.168058 161.444283 
L 268.227502 157.010468 
L 271.35163 149.900939 
L 272.28617 147.402072 
L 275.148461 142.200256 
L 276.292336 139.49359 
L 277.323916 136.713907 
L 278.246574 133.859207 
L 279.066768 130.927531 
L 279.748217 127.916708 
L 280.279998 124.824653 
L 280.650538 121.649169 
L 281.246668 118.387994 
L 281.986641 115.03884 
L 283.188442 111.599318 
L 284.28406 108.06699 
L 285.26566 104.439327 
L 286.124514 100.713812 
L 288.158701 92.958479 
L 288.982869 88.923184 
L 289.640679 84.778971 
L 290.120177 80.52298 
L 290.432301 76.15215 
L 290.640347 71.663355 
L 291.261875 67.053443 
L 292.576625 62.319174 
L 293.791124 57.457131 
L 294.29856 52.463946 
L 294.926401 42.069678 
L 295.144661 36.661238 
L 295.774225 31.10693 
L 295.774225 31.10693 
" style="fill:none;stroke:#d62728;stroke-dasharray:5.55,2.4;stroke-dashoffset:0;stroke-width:1.5;"/>
   </g>
   <g id="line2d_37">
    <path clip-path="url(#pffe986e199)" d="M 45.037058 241.4552 
L 135.523491 240.343095 
L 155.841457 239.898701 
L 168.029424 239.445999 
L 176.949838 238.91488 
L 184.003774 238.291764 
L 190.026076 237.560715 
L 195.46425 236.703036 
L 200.557708 235.696795 
L 205.439509 234.516257 
L 210.187917 233.131229 
L 214.852619 231.506296 
L 218.701045 229.93915 
L 222.530858 228.148856 
L 226.355392 226.103637 
L 230.186783 223.767202 
L 233.264667 221.660696 
L 236.360294 219.317472 
L 239.479523 216.710922 
L 242.628305 213.81146 
L 245.812589 210.586164 
L 249.038381 206.99842 
L 252.311523 203.007502 
L 255.637764 198.568093 
L 259.022476 193.629796 
L 262.470483 188.136558 
L 265.98565 182.025999 
L 269.570444 175.228759 
L 273.225119 167.667668 
L 276.010218 161.444283 
L 278.829732 154.703435 
L 281.678181 147.402072 
L 284.54684 139.49359 
L 287.422429 130.927531 
L 290.285246 121.649169 
L 293.106301 111.599318 
L 295.843289 100.713812 
L 297.591875 92.958479 
L 299.251676 84.778971 
L 300.791198 76.15215 
L 302.170387 67.053443 
L 303.338934 57.457131 
L 304.234707 47.33596 
L 304.783523 36.661238 
L 304.901896 31.10693 
L 304.901896 31.10693 
" style="fill:none;stroke:#000000;stroke-linecap:square;stroke-width:1.5;"/>
   </g>
   <g id="line2d_38">
    <path clip-path="url(#pffe986e199)" d="M 44.037095 241.4552 
L 112.817157 240.663349 
L 145.636535 240.099335 
L 165.16951 239.526559 
L 178.028032 238.91488 
L 185.079818 238.40265 
L 189.166678 237.94083 
L 200.573382 236.050219 
L 203.98048 235.32404 
L 206.788764 234.516257 
L 209.172919 233.617695 
L 211.978808 232.351192 
L 222.230906 227.363284 
L 228.471415 224.739252 
L 232.038974 223.261419 
L 232.802023 222.741984 
L 234.14736 221.098073 
L 236.493326 218.691624 
L 249.47053 206.040174 
L 253.097993 201.94157 
L 254.899533 199.722652 
L 256.418102 197.382375 
L 261.477346 190.956294 
L 264.440032 186.669367 
L 267.281242 182.025999 
L 269.091545 178.717842 
L 270.822098 175.228759 
L 272.461598 171.548848 
L 273.996096 167.667668 
L 275.410932 163.574223 
L 276.688746 159.256886 
L 278.549409 152.334147 
L 281.094769 147.402072 
L 283.360078 142.200256 
L 286.680025 133.859207 
L 287.622221 130.927531 
L 288.430134 127.916708 
L 289.114503 124.824653 
L 289.664481 121.649169 
L 290.04859 118.387994 
L 292.395754 108.06699 
L 295.166739 100.713812 
L 296.405022 96.887765 
L 297.506265 92.958479 
L 299.385378 84.778971 
L 300.147139 80.52298 
L 300.72442 76.15215 
L 301.103486 71.663355 
L 301.268918 67.053443 
L 301.204389 62.319174 
L 303.249061 52.463946 
L 304.063088 47.33596 
L 304.623896 36.661238 
L 305.226629 31.10693 
L 305.226629 31.10693 
" style="fill:none;stroke:#d62728;stroke-dasharray:5.55,2.4;stroke-dashoffset:0;stroke-width:1.5;"/>
   </g>
   <g id="line2d_39">
    <path clip-path="url(#pffe986e199)" d="M 45.318033 241.4552 
L 148.843052 240.400085 
L 171.035904 239.967368 
L 183.976689 239.526559 
L 193.455924 239.009395 
L 201.041414 238.40265 
L 208.623086 237.560715 
L 215.469284 236.54629 
L 221.005014 235.512898 
L 226.352217 234.300507 
L 231.5774 232.878109 
L 235.870764 231.506296 
L 240.129243 229.93915 
L 244.368527 228.148856 
L 248.602514 226.103637 
L 252.844102 223.767202 
L 256.251291 221.660696 
L 259.677783 219.317472 
L 263.130053 216.710922 
L 266.614561 213.81146 
L 270.13791 210.586164 
L 273.70663 206.99842 
L 277.327236 203.007502 
L 281.006003 198.568093 
L 284.748863 193.629796 
L 288.561079 188.136558 
L 292.446913 182.025999 
L 295.411286 176.996525 
L 298.418854 171.548848 
L 301.468837 165.648203 
L 304.558931 159.256886 
L 307.684818 152.334147 
L 310.839314 144.835773 
L 314.011226 136.713907 
L 317.1837 127.916708 
L 320.331865 118.387994 
L 323.419347 108.06699 
L 325.418683 100.713812 
L 327.346779 92.958479 
L 329.176475 84.778971 
L 330.873085 76.15215 
L 332.392561 67.053443 
L 333.679591 57.457131 
L 334.665943 47.33596 
L 335.021371 42.069678 
L 335.270146 36.661238 
L 335.400438 31.10693 
L 335.400438 31.10693 
" style="fill:none;stroke:#000000;stroke-linecap:square;stroke-width:1.5;"/>
   </g>
   <g id="line2d_40">
    <path clip-path="url(#pffe986e199)" d="M 47.736746 241.4552 
L 116.577343 240.759225 
L 158.722923 240.16273 
L 179.18916 239.605002 
L 193.751013 239.009395 
L 203.242122 238.40265 
L 208.728942 237.817483 
L 221.276701 235.875859 
L 224.858483 235.130086 
L 227.848835 234.300507 
L 230.445934 233.377701 
L 234.085406 231.79546 
L 242.140117 228.148856 
L 248.313937 225.660896 
L 251.902233 224.259696 
L 256.173827 222.208536 
L 257.409661 221.098073 
L 260.631825 218.04889 
L 265.467983 213.81146 
L 269.363413 210.586164 
L 273.296959 206.99842 
L 279.598477 200.846881 
L 281.634787 198.568093 
L 284.563095 194.914105 
L 287.534362 190.956294 
L 290.366955 186.669367 
L 291.112389 185.162595 
L 294.867531 178.717842 
L 296.673063 175.228759 
L 298.404015 171.548848 
L 300.127782 167.667668 
L 302.304525 163.574223 
L 304.361751 159.256886 
L 306.279905 154.703435 
L 308.035384 149.900939 
L 309.601448 144.835773 
L 310.303542 142.200256 
L 312.899588 136.713907 
L 314.11271 133.859207 
L 315.226615 130.927531 
L 317.759729 124.824653 
L 319.871235 118.387994 
L 321.027936 115.03884 
L 323.082586 108.06699 
L 324.339265 104.439327 
L 325.441197 100.713812 
L 327.272054 92.958479 
L 328.704488 88.923184 
L 329.998683 84.778971 
L 331.144536 80.52298 
L 332.159044 76.15215 
L 333.002405 71.663355 
L 333.660923 67.053443 
L 334.12052 62.319174 
L 334.366173 57.457131 
L 334.381303 52.463946 
L 334.147605 47.33596 
L 333.668325 42.069678 
L 334.339016 36.661238 
L 335.51823 31.10693 
L 335.51823 31.10693 
" style="fill:none;stroke:#d62728;stroke-dasharray:5.55,2.4;stroke-dashoffset:0;stroke-width:1.5;"/>
   </g>
   <g id="line2d_41">
    <path clip-path="url(#pffe986e199)" d="M 45.417527 241.4552 
L 150.556615 240.455578 
L 174.255455 240.03423 
L 187.990402 239.605002 
L 197.965017 239.101426 
L 205.89575 238.510623 
L 213.789401 237.690808 
L 220.898523 236.703036 
L 226.637854 235.696795 
L 232.175815 234.516257 
L 237.582577 233.131229 
L 242.9046 231.506296 
L 247.299466 229.93915 
L 251.674938 228.148856 
L 256.045095 226.103637 
L 260.423198 223.767202 
L 263.940089 221.660696 
L 267.476935 219.317472 
L 271.040394 216.710922 
L 274.637216 213.81146 
L 278.274167 210.586164 
L 281.958068 206.99842 
L 285.695631 203.007502 
L 289.493388 198.568093 
L 293.357489 193.629796 
L 297.293429 188.136558 
L 300.295246 183.615177 
L 303.341311 178.717842 
L 306.432203 173.413289 
L 309.567542 167.667668 
L 312.745549 161.444283 
L 315.962579 154.703435 
L 319.212336 147.402072 
L 322.484879 139.49359 
L 325.765023 130.927531 
L 329.030236 121.649169 
L 332.247429 111.599318 
L 334.342499 104.439327 
L 336.375887 96.887765 
L 338.322723 88.923184 
L 340.151258 80.52298 
L 341.821 71.663355 
L 343.280755 62.319174 
L 344.466664 52.463946 
L 345.301027 42.069678 
L 345.558491 36.661238 
L 345.693355 31.10693 
L 345.693355 31.10693 
" style="fill:none;stroke:#000000;stroke-linecap:square;stroke-width:1.5;"/>
   </g>
   <g id="line2d_42">
    <path clip-path="url(#pffe986e199)" d="M 50.659393 241.4552 
L 120.702667 240.759225 
L 166.839669 240.099335 
L 187.324419 239.526559 
L 202.037836 238.91488 
L 210.127868 238.40265 
L 214.847739 237.94083 
L 217.246152 237.560715 
L 218.685479 237.289903 
L 226.051104 236.219997 
L 230.119387 235.512898 
L 233.462119 234.726337 
L 236.303602 233.851386 
L 239.488141 232.618158 
L 254.860293 226.103637 
L 259.497329 224.259696 
L 264.942623 221.660696 
L 266.838572 219.926876 
L 276.265106 212.241739 
L 281.06821 207.931489 
L 285.01928 204.045424 
L 287.967435 200.846881 
L 293.035459 194.914105 
L 295.988294 190.956294 
L 298.81735 186.669367 
L 300.718124 183.615177 
L 301.634687 182.025999 
L 302.372483 180.393937 
L 305.218392 175.228759 
L 306.160226 173.413289 
L 308.518637 169.634083 
L 310.789987 165.648203 
L 312.959582 161.444283 
L 315.009879 157.010468 
L 316.921393 152.334147 
L 318.670232 147.402072 
L 320.229075 142.200256 
L 320.927232 139.49359 
L 322.129197 136.713907 
L 323.770021 133.859207 
L 325.318053 130.927531 
L 326.765544 127.916708 
L 328.10415 124.824653 
L 329.32382 121.649169 
L 330.415302 118.387994 
L 331.367331 115.03884 
L 332.176079 111.599318 
L 333.175566 108.06699 
L 336.766129 96.887765 
L 337.70867 92.958479 
L 338.465224 88.923184 
L 340.983789 80.52298 
L 342.114511 76.15215 
L 343.078677 71.663355 
L 343.865237 67.053443 
L 344.459752 62.319174 
L 344.86233 57.457131 
L 345.061378 52.463946 
L 344.930523 31.10693 
L 344.930523 31.10693 
" style="fill:none;stroke:#d62728;stroke-dasharray:5.55,2.4;stroke-dashoffset:0;stroke-width:1.5;"/>
   </g>
   <g id="line2d_43">
    <path clip-path="url(#pffe986e199)" d="M 45.667406 241.4552 
L 159.734874 240.509613 
L 185.421214 240.099335 
L 200.03556 239.681385 
L 210.621172 239.191039 
L 220.35085 238.510623 
L 228.653628 237.690808 
L 236.211371 236.703036 
L 242.346332 235.696795 
L 248.282353 234.516257 
L 254.086758 233.131229 
L 259.805299 231.506296 
L 264.530032 229.93915 
L 269.235498 228.148856 
L 273.936646 226.103637 
L 278.647664 223.767202 
L 282.43303 221.660696 
L 286.24091 219.317472 
L 290.078578 216.710922 
L 293.953491 213.81146 
L 297.873104 210.586164 
L 301.844983 206.99842 
L 305.87662 203.007502 
L 309.975271 198.568093 
L 314.14794 193.629796 
L 317.329794 189.565185 
L 320.559124 185.162595 
L 323.837726 180.393937 
L 327.166761 175.228759 
L 330.546502 169.634083 
L 333.975878 163.574223 
L 337.452095 157.010468 
L 340.969838 149.900939 
L 344.52029 142.200256 
L 348.089718 133.859207 
L 351.65726 124.824653 
L 355.19191 115.03884 
L 357.508215 108.06699 
L 359.771511 100.713812 
L 361.95785 92.958479 
L 364.036429 84.778971 
L 365.967591 76.15215 
L 367.700683 67.053443 
L 369.171559 57.457131 
L 369.784523 52.463946 
L 370.300902 47.33596 
L 370.708324 42.069678 
L 370.993653 36.661238 
L 371.143175 31.10693 
L 371.143175 31.10693 
" style="fill:none;stroke:#000000;stroke-linecap:square;stroke-width:1.5;"/>
   </g>
   <g id="line2d_44">
    <path clip-path="url(#pffe986e199)" d="M 58.602822 241.4552 
L 81.344043 241.238645 
L 150.349258 240.509613 
L 183.906309 239.967368 
L 205.058103 239.363264 
L 220.023251 238.718132 
L 228.069635 238.177886 
L 232.623565 237.690808 
L 244.994045 235.696795 
L 249.21869 234.726337 
L 252.450523 233.851386 
L 256.055381 232.618158 
L 261.910546 230.269486 
L 269.335512 227.363284 
L 276.052506 224.739252 
L 284.298719 221.098073 
L 292.412716 214.565525 
L 298.381664 209.724727 
L 302.61322 206.040174 
L 305.839321 203.007502 
L 309.057095 199.722652 
L 312.218249 196.164666 
L 315.273946 192.31084 
L 317.227421 189.565185 
L 319.116313 186.669367 
L 322.799144 182.025999 
L 325.156285 178.717842 
L 327.398119 175.228759 
L 329.503457 171.548848 
L 330.450569 169.634083 
L 332.752234 165.648203 
L 336.078421 159.256886 
L 338.529245 154.703435 
L 341.039193 149.900939 
L 343.41043 144.835773 
L 345.616471 139.49359 
L 347.625169 133.859207 
L 348.544289 130.927531 
L 349.625232 127.916708 
L 351.241747 124.824653 
L 352.753658 121.649169 
L 354.152222 118.387994 
L 355.427278 115.03884 
L 356.568632 111.599318 
L 357.565071 108.06699 
L 358.404006 104.439327 
L 359.072193 100.713812 
L 361.142681 92.958479 
L 362.379059 88.923184 
L 363.435728 84.778971 
L 364.299118 80.52298 
L 364.953191 76.15215 
L 365.909973 71.663355 
L 367.093088 67.053443 
L 368.102989 62.319174 
L 368.925887 57.457131 
L 369.548684 52.463946 
L 369.839419 47.33596 
L 370.363962 42.069678 
L 370.493311 36.661238 
L 370.057988 31.10693 
L 370.057988 31.10693 
" style="fill:none;stroke:#d62728;stroke-dasharray:5.55,2.4;stroke-dashoffset:0;stroke-width:1.5;"/>
   </g>
   <g id="patch_3">
    <path d="M 43.78125 245.7328 
L 43.78125 28.2928 
" style="fill:none;stroke:#000000;stroke-linecap:square;stroke-linejoin:miter;stroke-width:0.8;"/>
   </g>
   <g id="patch_4">
    <path d="M 378.58125 245.7328 
L 378.58125 28.2928 
" style="fill:none;stroke:#000000;stroke-linecap:square;stroke-linejoin:miter;stroke-width:0.8;"/>
   </g>
   <g id="patch_5">
    <path d="M 43.78125 245.7328 
L 378.58125 245.7328 
" style="fill:none;stroke:#000000;stroke-linecap:square;stroke-linejoin:miter;stroke-width:0.8;"/>
   </g>
   <g id="patch_6">
    <path d="M 43.78125 28.2928 
L 378.58125 28.2928 
" style="fill:none;stroke:#000000;stroke-linecap:square;stroke-linejoin:miter;stroke-width:0.8;"/>
   </g>
   <g id="legend_1">
    <g id="patch_7">
     <path d="M 122.227344 24.878125 
L 300.135156 24.878125 
Q 302.135156 24.878125 302.135156 22.878125 
L 302.135156 9.2 
Q 302.135156 7.2 300.135156 7.2 
L 122.227344 7.2 
Q 120.227344 7.2 120.227344 9.2 
L 120.227344 22.878125 
Q 120.227344 24.878125 122.227344 24.878125 
z
" style="fill:#ffffff;opacity:0.8;stroke:#cccccc;stroke-linejoin:miter;"/>
    </g>
    <g id="line2d_45">
     <path d="M 124.227344 15.298437 
L 144.227344 15.298437 
" style="fill:none;stroke:#000000;stroke-linecap:square;stroke-width:1.5;"/>
    </g>
    <g id="line2d_46"/>
    <g id="text_15">
     <!-- reference -->
     <g transform="translate(152.227344 18.798437)scale(0.1 -0.1)">
      <defs>
       <path d="M 41.109375 46.296875 
Q 39.59375 47.171875 37.8125 47.578125 
Q 36.03125 48 33.890625 48 
Q 26.265625 48 22.1875 43.046875 
Q 18.109375 38.09375 18.109375 28.8125 
L 18.109375 0 
L 9.078125 0 
L 9.078125 54.6875 
L 18.109375 54.6875 
L 18.109375 46.1875 
Q 20.953125 51.171875 25.484375 53.578125 
Q 30.03125 56 36.53125 56 
Q 37.453125 56 38.578125 55.875 
Q 39.703125 55.765625 41.0625 55.515625 
z
" id="DejaVuSans-114"/>
       <path d="M 56.203125 29.59375 
L 56.203125 25.203125 
L 14.890625 25.203125 
Q 15.484375 15.921875 20.484375 11.0625 
Q 25.484375 6.203125 34.421875 6.203125 
Q 39.59375 6.203125 44.453125 7.46875 
Q 49.3125 8.734375 54.109375 11.28125 
L 54.109375 2.78125 
Q 49.265625 0.734375 44.1875 -0.34375 
Q 39.109375 -1.421875 33.890625 -1.421875 
Q 20.796875 -1.421875 13.15625 6.1875 
Q 5.515625 13.8125 5.515625 26.8125 
Q 5.515625 40.234375 12.765625 48.109375 
Q 20.015625 56 32.328125 56 
Q 43.359375 56 49.78125 48.890625 
Q 56.203125 41.796875 56.203125 29.59375 
z
M 47.21875 32.234375 
Q 47.125 39.59375 43.09375 43.984375 
Q 39.0625 48.390625 32.421875 48.390625 
Q 24.90625 48.390625 20.390625 44.140625 
Q 15.875 39.890625 15.1875 32.171875 
z
" id="DejaVuSans-101"/>
       <path d="M 37.109375 75.984375 
L 37.109375 68.5 
L 28.515625 68.5 
Q 23.6875 68.5 21.796875 66.546875 
Q 19.921875 64.59375 19.921875 59.515625 
L 19.921875 54.6875 
L 34.71875 54.6875 
L 34.71875 47.703125 
L 19.921875 47.703125 
L 19.921875 0 
L 10.890625 0 
L 10.890625 47.703125 
L 2.296875 47.703125 
L 2.296875 54.6875 
L 10.890625 54.6875 
L 10.890625 58.5 
Q 10.890625 67.625 15.140625 71.796875 
Q 19.390625 75.984375 28.609375 75.984375 
z
" id="DejaVuSans-102"/>
       <path d="M 54.890625 33.015625 
L 54.890625 0 
L 45.90625 0 
L 45.90625 32.71875 
Q 45.90625 40.484375 42.875 44.328125 
Q 39.84375 48.1875 33.796875 48.1875 
Q 26.515625 48.1875 22.3125 43.546875 
Q 18.109375 38.921875 18.109375 30.90625 
L 18.109375 0 
L 9.078125 0 
L 9.078125 54.6875 
L 18.109375 54.6875 
L 18.109375 46.1875 
Q 21.34375 51.125 25.703125 53.5625 
Q 30.078125 56 35.796875 56 
Q 45.21875 56 50.046875 50.171875 
Q 54.890625 44.34375 54.890625 33.015625 
z
" id="DejaVuSans-110"/>
       <path d="M 48.78125 52.59375 
L 48.78125 44.1875 
Q 44.96875 46.296875 41.140625 47.34375 
Q 37.3125 48.390625 33.40625 48.390625 
Q 24.65625 48.390625 19.8125 42.84375 
Q 14.984375 37.3125 14.984375 27.296875 
Q 14.984375 17.28125 19.8125 11.734375 
Q 24.65625 6.203125 33.40625 6.203125 
Q 37.3125 6.203125 41.140625 7.25 
Q 44.96875 8.296875 48.78125 10.40625 
L 48.78125 2.09375 
Q 45.015625 0.34375 40.984375 -0.53125 
Q 36.96875 -1.421875 32.421875 -1.421875 
Q 20.0625 -1.421875 12.78125 6.34375 
Q 5.515625 14.109375 5.515625 27.296875 
Q 5.515625 40.671875 12.859375 48.328125 
Q 20.21875 56 33.015625 56 
Q 37.15625 56 41.109375 55.140625 
Q 45.0625 54.296875 48.78125 52.59375 
z
" id="DejaVuSans-99"/>
      </defs>
      <use xlink:href="#DejaVuSans-114"/>
      <use x="38.863281" xlink:href="#DejaVuSans-101"/>
      <use x="100.386719" xlink:href="#DejaVuSans-102"/>
      <use x="135.591797" xlink:href="#DejaVuSans-101"/>
      <use x="197.115234" xlink:href="#DejaVuSans-114"/>
      <use x="235.978516" xlink:href="#DejaVuSans-101"/>
      <use x="297.501953" xlink:href="#DejaVuSans-110"/>
      <use x="360.880859" xlink:href="#DejaVuSans-99"/>
      <use x="415.861328" xlink:href="#DejaVuSans-101"/>
     </g>
    </g>
    <g id="line2d_47">
     <path d="M 219.967969 15.298437 
L 239.967969 15.298437 
" style="fill:none;stroke:#d62728;stroke-dasharray:5.55,2.4;stroke-dashoffset:0;stroke-width:1.5;"/>
    </g>
    <g id="line2d_48"/>
    <g id="text_16">
     <!-- prediction -->
     <g transform="translate(247.967969 18.798437)scale(0.1 -0.1)">
      <defs>
       <path d="M 18.109375 8.203125 
L 18.109375 -20.796875 
L 9.078125 -20.796875 
L 9.078125 54.6875 
L 18.109375 54.6875 
L 18.109375 46.390625 
Q 20.953125 51.265625 25.265625 53.625 
Q 29.59375 56 35.59375 56 
Q 45.5625 56 51.78125 48.09375 
Q 58.015625 40.1875 58.015625 27.296875 
Q 58.015625 14.40625 51.78125 6.484375 
Q 45.5625 -1.421875 35.59375 -1.421875 
Q 29.59375 -1.421875 25.265625 0.953125 
Q 20.953125 3.328125 18.109375 8.203125 
z
M 48.6875 27.296875 
Q 48.6875 37.203125 44.609375 42.84375 
Q 40.53125 48.484375 33.40625 48.484375 
Q 26.265625 48.484375 22.1875 42.84375 
Q 18.109375 37.203125 18.109375 27.296875 
Q 18.109375 17.390625 22.1875 11.75 
Q 26.265625 6.109375 33.40625 6.109375 
Q 40.53125 6.109375 44.609375 11.75 
Q 48.6875 17.390625 48.6875 27.296875 
z
" id="DejaVuSans-112"/>
       <path d="M 45.40625 46.390625 
L 45.40625 75.984375 
L 54.390625 75.984375 
L 54.390625 0 
L 45.40625 0 
L 45.40625 8.203125 
Q 42.578125 3.328125 38.25 0.953125 
Q 33.9375 -1.421875 27.875 -1.421875 
Q 17.96875 -1.421875 11.734375 6.484375 
Q 5.515625 14.40625 5.515625 27.296875 
Q 5.515625 40.1875 11.734375 48.09375 
Q 17.96875 56 27.875 56 
Q 33.9375 56 38.25 53.625 
Q 42.578125 51.265625 45.40625 46.390625 
z
M 14.796875 27.296875 
Q 14.796875 17.390625 18.875 11.75 
Q 22.953125 6.109375 30.078125 6.109375 
Q 37.203125 6.109375 41.296875 11.75 
Q 45.40625 17.390625 45.40625 27.296875 
Q 45.40625 37.203125 41.296875 42.84375 
Q 37.203125 48.484375 30.078125 48.484375 
Q 22.953125 48.484375 18.875 42.84375 
Q 14.796875 37.203125 14.796875 27.296875 
z
" id="DejaVuSans-100"/>
       <path d="M 9.421875 54.6875 
L 18.40625 54.6875 
L 18.40625 0 
L 9.421875 0 
z
M 9.421875 75.984375 
L 18.40625 75.984375 
L 18.40625 64.59375 
L 9.421875 64.59375 
z
" id="DejaVuSans-105"/>
       <path d="M 18.3125 70.21875 
L 18.3125 54.6875 
L 36.8125 54.6875 
L 36.8125 47.703125 
L 18.3125 47.703125 
L 18.3125 18.015625 
Q 18.3125 11.328125 20.140625 9.421875 
Q 21.96875 7.515625 27.59375 7.515625 
L 36.8125 7.515625 
L 36.8125 0 
L 27.59375 0 
Q 17.1875 0 13.234375 3.875 
Q 9.28125 7.765625 9.28125 18.015625 
L 9.28125 47.703125 
L 2.6875 47.703125 
L 2.6875 54.6875 
L 9.28125 54.6875 
L 9.28125 70.21875 
z
" id="DejaVuSans-116"/>
       <path d="M 30.609375 48.390625 
Q 23.390625 48.390625 19.1875 42.75 
Q 14.984375 37.109375 14.984375 27.296875 
Q 14.984375 17.484375 19.15625 11.84375 
Q 23.34375 6.203125 30.609375 6.203125 
Q 37.796875 6.203125 41.984375 11.859375 
Q 46.1875 17.53125 46.1875 27.296875 
Q 46.1875 37.015625 41.984375 42.703125 
Q 37.796875 48.390625 30.609375 48.390625 
z
M 30.609375 56 
Q 42.328125 56 49.015625 48.375 
Q 55.71875 40.765625 55.71875 27.296875 
Q 55.71875 13.875 49.015625 6.21875 
Q 42.328125 -1.421875 30.609375 -1.421875 
Q 18.84375 -1.421875 12.171875 6.21875 
Q 5.515625 13.875 5.515625 27.296875 
Q 5.515625 40.765625 12.171875 48.375 
Q 18.84375 56 30.609375 56 
z
" id="DejaVuSans-111"/>
      </defs>
      <use xlink:href="#DejaVuSans-112"/>
      <use x="63.476562" xlink:href="#DejaVuSans-114"/>
      <use x="102.339844" xlink:href="#DejaVuSans-101"/>
      <use x="163.863281" xlink:href="#DejaVuSans-100"/>
      <use x="227.339844" xlink:href="#DejaVuSans-105"/>
      <use x="255.123047" xlink:href="#DejaVuSans-99"/>
      <use x="310.103516" xlink:href="#DejaVuSans-116"/>
      <use x="349.3125" xlink:href="#DejaVuSans-105"/>
      <use x="377.095703" xlink:href="#DejaVuSans-111"/>
      <use x="438.277344" xlink:href="#DejaVuSans-110"/>
     </g>
    </g>
   </g>
  </g>
 </g>
 <defs>
  <clipPath id="pffe986e199">
   <rect height="217.44" width="334.8" x="43.78125" y="28.2928"/>
  </clipPath>
 </defs>
</svg>
