<?xml version="1.0" encoding="utf-8" standalone="no"?>
<!DOCTYPE svg PUBLIC "-//W3C//DTD SVG 1.1//EN"
  "http://www.w3.org/Graphics/SVG/1.1/DTD/svg11.dtd">
<svg xmlns:xlink="http://www.w3.org/1999/xlink" width="427.544417pt" height="315.463849pt" viewBox="0 0 427.544417 315.463849" xmlns="http://www.w3.org/2000/svg" version="1.1">
 <metadata>
  <rdf:RDF xmlns:dc="http://purl.org/dc/elements/1.1/" xmlns:cc="http://creativecommons.org/ns#" xmlns:rdf="http://www.w3.org/1999/02/22-rdf-syntax-ns#">
   <cc:Work>
    <dc:type rdf:resource="http://purl.org/dc/dcmitype/StillImage"/>
    <dc:date>2022-11-22T23:16:06.249292</dc:date>
    <dc:format>image/svg+xml</dc:format>
    <dc:creator>
     <cc:Agent>
      <dc:title>Matplotlib v3.6.1, https://matplotlib.org/</dc:title>
     </cc:Agent>
    </dc:creator>
   </cc:Work>
  </rdf:RDF>
 </metadata>
 <defs>
  <style type="text/css">*{stroke-linejoin: round; stroke-linecap: butt}</style>
 </defs>
 <g id="figure_1">
  <g id="patch_1">
   <path d="M 0 315.463849 
L 427.544417 315.463849 
L 427.544417 0 
L 0 0 
z
" style="fill: #ffffff"/>
  </g>
  <g id="axes_1">
   <g id="patch_2">
    <path d="M 46.965625 274.085724 
L 404.085625 274.085724 
L 404.085625 7.973724 
L 46.965625 7.973724 
z
" style="fill: #ffffff"/>
   </g>
   <g id="patch_3">
    <path d="M 63.198352 274.085724 
L 68.413685 274.085724 
L 68.413685 250.407938 
L 63.198352 250.407938 
z
" clip-path="url(#p3039e056da)" style="fill: #1f77b4"/>
   </g>
   <g id="patch_4">
    <path d="M 69.717522 274.085724 
L 74.932854 274.085724 
L 74.932854 246.900118 
L 69.717522 246.900118 
z
" clip-path="url(#p3039e056da)" style="fill: #1f77b4"/>
   </g>
   <g id="patch_5">
    <path d="M 76.236687 274.085724 
L 81.45202 274.085724 
L 81.45202 241.638388 
L 76.236687 241.638388 
z
" clip-path="url(#p3039e056da)" style="fill: #1f77b4"/>
   </g>
   <g id="patch_6">
    <path d="M 82.755857 274.085724 
L 87.971189 274.085724 
L 87.971189 199.544547 
L 82.755857 199.544547 
z
" clip-path="url(#p3039e056da)" style="fill: #1f77b4"/>
   </g>
   <g id="patch_7">
    <path d="M 89.275024 274.085724 
L 94.490357 274.085724 
L 94.490357 215.329738 
L 89.275024 215.329738 
z
" clip-path="url(#p3039e056da)" style="fill: #1f77b4"/>
   </g>
   <g id="patch_8">
    <path d="M 95.794192 274.085724 
L 101.009524 274.085724 
L 101.009524 167.097212 
L 95.794192 167.097212 
z
" clip-path="url(#p3039e056da)" style="fill: #1f77b4"/>
   </g>
   <g id="patch_9">
    <path d="M 102.313359 274.085724 
L 107.528692 274.085724 
L 107.528692 82.032575 
L 102.313359 82.032575 
z
" clip-path="url(#p3039e056da)" style="fill: #1f77b4"/>
   </g>
   <g id="patch_10">
    <path d="M 108.832528 274.085724 
L 114.04786 274.085724 
L 114.04786 26.784409 
L 108.832528 26.784409 
z
" clip-path="url(#p3039e056da)" style="fill: #1f77b4"/>
   </g>
   <g id="patch_11">
    <path d="M 115.351697 274.085724 
L 120.567029 274.085724 
L 120.567029 20.645724 
L 115.351697 20.645724 
z
" clip-path="url(#p3039e056da)" style="fill: #1f77b4"/>
   </g>
   <g id="patch_12">
    <path d="M 121.870865 274.085724 
L 127.086197 274.085724 
L 127.086197 55.723925 
L 121.870865 55.723925 
z
" clip-path="url(#p3039e056da)" style="fill: #1f77b4"/>
   </g>
   <g id="patch_13">
    <path d="M 128.390032 274.085724 
L 133.605364 274.085724 
L 133.605364 96.063855 
L 128.390032 96.063855 
z
" clip-path="url(#p3039e056da)" style="fill: #1f77b4"/>
   </g>
   <g id="patch_14">
    <path d="M 134.9092 274.085724 
L 140.124533 274.085724 
L 140.124533 134.649876 
L 134.9092 134.649876 
z
" clip-path="url(#p3039e056da)" style="fill: #1f77b4"/>
   </g>
   <g id="patch_15">
    <path d="M 141.428368 274.085724 
L 146.6437 274.085724 
L 146.6437 210.944963 
L 141.428368 210.944963 
z
" clip-path="url(#p3039e056da)" style="fill: #1f77b4"/>
   </g>
   <g id="patch_16">
    <path d="M 147.947535 274.085724 
L 153.162868 274.085724 
L 153.162868 237.253613 
L 147.947535 237.253613 
z
" clip-path="url(#p3039e056da)" style="fill: #1f77b4"/>
   </g>
   <g id="patch_17">
    <path d="M 154.466705 274.085724 
L 159.682037 274.085724 
L 159.682037 242.515343 
L 154.466705 242.515343 
z
" clip-path="url(#p3039e056da)" style="fill: #1f77b4"/>
   </g>
   <g id="patch_18">
    <path d="M 160.98587 274.085724 
L 166.201203 274.085724 
L 166.201203 239.007523 
L 160.98587 239.007523 
z
" clip-path="url(#p3039e056da)" style="fill: #1f77b4"/>
   </g>
   <g id="patch_19">
    <path d="M 167.50504 274.085724 
L 172.720372 274.085724 
L 172.720372 260.931399 
L 167.50504 260.931399 
z
" clip-path="url(#p3039e056da)" style="fill: #1f77b4"/>
   </g>
   <g id="patch_20">
    <path d="M 174.024209 274.085724 
L 179.239542 274.085724 
L 179.239542 271.454859 
L 174.024209 271.454859 
z
" clip-path="url(#p3039e056da)" style="fill: #1f77b4"/>
   </g>
   <g id="patch_21">
    <path d="M 180.543379 274.085724 
L 185.758711 274.085724 
L 185.758711 273.208769 
L 180.543379 273.208769 
z
" clip-path="url(#p3039e056da)" style="fill: #1f77b4"/>
   </g>
   <g id="patch_22">
    <path d="M 187.062544 274.085724 
L 192.277877 274.085724 
L 192.277877 272.331814 
L 187.062544 272.331814 
z
" clip-path="url(#p3039e056da)" style="fill: #1f77b4"/>
   </g>
   <g id="patch_23">
    <path d="M 193.58171 274.085724 
L 198.797042 274.085724 
L 198.797042 272.331814 
L 193.58171 272.331814 
z
" clip-path="url(#p3039e056da)" style="fill: #1f77b4"/>
   </g>
   <g id="patch_24">
    <path d="M 200.100883 274.085724 
L 205.316216 274.085724 
L 205.316216 271.454859 
L 200.100883 271.454859 
z
" clip-path="url(#p3039e056da)" style="fill: #1f77b4"/>
   </g>
   <g id="patch_25">
    <path d="M 206.620049 274.085724 
L 211.835381 274.085724 
L 211.835381 272.331814 
L 206.620049 272.331814 
z
" clip-path="url(#p3039e056da)" style="fill: #1f77b4"/>
   </g>
   <g id="patch_26">
    <path d="M 213.139214 274.085724 
L 218.354547 274.085724 
L 218.354547 271.454859 
L 213.139214 271.454859 
z
" clip-path="url(#p3039e056da)" style="fill: #1f77b4"/>
   </g>
   <g id="patch_27">
    <path d="M 219.65838 274.085724 
L 224.873712 274.085724 
L 224.873712 271.454859 
L 219.65838 271.454859 
z
" clip-path="url(#p3039e056da)" style="fill: #1f77b4"/>
   </g>
   <g id="patch_28">
    <path d="M 226.177545 274.085724 
L 231.392878 274.085724 
L 231.392878 273.208769 
L 226.177545 273.208769 
z
" clip-path="url(#p3039e056da)" style="fill: #1f77b4"/>
   </g>
   <g id="patch_29">
    <path d="M 232.696719 274.085724 
L 237.912051 274.085724 
L 237.912051 274.085724 
L 232.696719 274.085724 
z
" clip-path="url(#p3039e056da)" style="fill: #1f77b4"/>
   </g>
   <g id="patch_30">
    <path d="M 239.215884 274.085724 
L 244.431224 274.085724 
L 244.431224 273.208769 
L 239.215884 273.208769 
z
" clip-path="url(#p3039e056da)" style="fill: #1f77b4"/>
   </g>
   <g id="patch_31">
    <path d="M 245.735057 274.085724 
L 250.95039 274.085724 
L 250.95039 274.085724 
L 245.735057 274.085724 
z
" clip-path="url(#p3039e056da)" style="fill: #1f77b4"/>
   </g>
   <g id="patch_32">
    <path d="M 252.254223 274.085724 
L 257.469555 274.085724 
L 257.469555 274.085724 
L 252.254223 274.085724 
z
" clip-path="url(#p3039e056da)" style="fill: #1f77b4"/>
   </g>
   <g id="patch_33">
    <path d="M 258.773389 274.085724 
L 263.988721 274.085724 
L 263.988721 274.085724 
L 258.773389 274.085724 
z
" clip-path="url(#p3039e056da)" style="fill: #1f77b4"/>
   </g>
   <g id="patch_34">
    <path d="M 265.292554 274.085724 
L 270.507887 274.085724 
L 270.507887 273.208769 
L 265.292554 273.208769 
z
" clip-path="url(#p3039e056da)" style="fill: #1f77b4"/>
   </g>
   <g id="patch_35">
    <path d="M 271.81172 274.085724 
L 277.027052 274.085724 
L 277.027052 274.085724 
L 271.81172 274.085724 
z
" clip-path="url(#p3039e056da)" style="fill: #1f77b4"/>
   </g>
   <g id="patch_36">
    <path d="M 278.330885 274.085724 
L 283.546218 274.085724 
L 283.546218 274.085724 
L 278.330885 274.085724 
z
" clip-path="url(#p3039e056da)" style="fill: #1f77b4"/>
   </g>
   <g id="patch_37">
    <path d="M 284.850051 274.085724 
L 290.065383 274.085724 
L 290.065383 273.208769 
L 284.850051 273.208769 
z
" clip-path="url(#p3039e056da)" style="fill: #1f77b4"/>
   </g>
   <g id="patch_38">
    <path d="M 291.369217 274.085724 
L 296.584549 274.085724 
L 296.584549 274.085724 
L 291.369217 274.085724 
z
" clip-path="url(#p3039e056da)" style="fill: #1f77b4"/>
   </g>
   <g id="patch_39">
    <path d="M 297.888397 274.085724 
L 303.10373 274.085724 
L 303.10373 274.085724 
L 297.888397 274.085724 
z
" clip-path="url(#p3039e056da)" style="fill: #1f77b4"/>
   </g>
   <g id="patch_40">
    <path d="M 304.407563 274.085724 
L 309.622895 274.085724 
L 309.622895 274.085724 
L 304.407563 274.085724 
z
" clip-path="url(#p3039e056da)" style="fill: #1f77b4"/>
   </g>
   <g id="patch_41">
    <path d="M 310.926729 274.085724 
L 316.142061 274.085724 
L 316.142061 274.085724 
L 310.926729 274.085724 
z
" clip-path="url(#p3039e056da)" style="fill: #1f77b4"/>
   </g>
   <g id="patch_42">
    <path d="M 317.445894 274.085724 
L 322.661227 274.085724 
L 322.661227 274.085724 
L 317.445894 274.085724 
z
" clip-path="url(#p3039e056da)" style="fill: #1f77b4"/>
   </g>
   <g id="patch_43">
    <path d="M 323.965075 274.085724 
L 329.180407 274.085724 
L 329.180407 274.085724 
L 323.965075 274.085724 
z
" clip-path="url(#p3039e056da)" style="fill: #1f77b4"/>
   </g>
   <g id="patch_44">
    <path d="M 330.484241 274.085724 
L 335.699573 274.085724 
L 335.699573 273.208769 
L 330.484241 273.208769 
z
" clip-path="url(#p3039e056da)" style="fill: #1f77b4"/>
   </g>
   <g id="patch_45">
    <path d="M 337.003406 274.085724 
L 342.218739 274.085724 
L 342.218739 274.085724 
L 337.003406 274.085724 
z
" clip-path="url(#p3039e056da)" style="fill: #1f77b4"/>
   </g>
   <g id="patch_46">
    <path d="M 343.522572 274.085724 
L 348.737904 274.085724 
L 348.737904 274.085724 
L 343.522572 274.085724 
z
" clip-path="url(#p3039e056da)" style="fill: #1f77b4"/>
   </g>
   <g id="patch_47">
    <path d="M 350.041753 274.085724 
L 355.257085 274.085724 
L 355.257085 274.085724 
L 350.041753 274.085724 
z
" clip-path="url(#p3039e056da)" style="fill: #1f77b4"/>
   </g>
   <g id="patch_48">
    <path d="M 356.560918 274.085724 
L 361.776251 274.085724 
L 361.776251 274.085724 
L 356.560918 274.085724 
z
" clip-path="url(#p3039e056da)" style="fill: #1f77b4"/>
   </g>
   <g id="patch_49">
    <path d="M 363.080084 274.085724 
L 368.295416 274.085724 
L 368.295416 274.085724 
L 363.080084 274.085724 
z
" clip-path="url(#p3039e056da)" style="fill: #1f77b4"/>
   </g>
   <g id="patch_50">
    <path d="M 369.599265 274.085724 
L 374.814597 274.085724 
L 374.814597 274.085724 
L 369.599265 274.085724 
z
" clip-path="url(#p3039e056da)" style="fill: #1f77b4"/>
   </g>
   <g id="patch_51">
    <path d="M 376.1184 274.085724 
L 381.333732 274.085724 
L 381.333732 274.085724 
L 376.1184 274.085724 
z
" clip-path="url(#p3039e056da)" style="fill: #1f77b4"/>
   </g>
   <g id="patch_52">
    <path d="M 382.637565 274.085724 
L 387.852898 274.085724 
L 387.852898 273.208769 
L 382.637565 273.208769 
z
" clip-path="url(#p3039e056da)" style="fill: #1f77b4"/>
   </g>
   <g id="matplotlib.axis_1">
    <g id="xtick_1">
     <g id="line2d_1">
      <defs>
       <path id="mac4a4c854a" d="M 0 0 
L 0 3.5 
" style="stroke: #000000; stroke-width: 0.8"/>
      </defs>
      <g>
       <use xlink:href="#mac4a4c854a" x="74.238408" y="274.085724" style="stroke: #000000; stroke-width: 0.8"/>
      </g>
     </g>
     <g id="text_1">
      <!-- −0.0025 -->
      <g transform="translate(52.553252 288.684161) scale(0.1 -0.1)">
       <defs>
        <path id="DejaVuSans-2212" d="M 678 2272 
L 4684 2272 
L 4684 1741 
L 678 1741 
L 678 2272 
z
" transform="scale(0.015625)"/>
        <path id="DejaVuSans-30" d="M 2034 4250 
Q 1547 4250 1301 3770 
Q 1056 3291 1056 2328 
Q 1056 1369 1301 889 
Q 1547 409 2034 409 
Q 2525 409 2770 889 
Q 3016 1369 3016 2328 
Q 3016 3291 2770 3770 
Q 2525 4250 2034 4250 
z
M 2034 4750 
Q 2819 4750 3233 4129 
Q 3647 3509 3647 2328 
Q 3647 1150 3233 529 
Q 2819 -91 2034 -91 
Q 1250 -91 836 529 
Q 422 1150 422 2328 
Q 422 3509 836 4129 
Q 1250 4750 2034 4750 
z
" transform="scale(0.015625)"/>
        <path id="DejaVuSans-2e" d="M 684 794 
L 1344 794 
L 1344 0 
L 684 0 
L 684 794 
z
" transform="scale(0.015625)"/>
        <path id="DejaVuSans-32" d="M 1228 531 
L 3431 531 
L 3431 0 
L 469 0 
L 469 531 
Q 828 903 1448 1529 
Q 2069 2156 2228 2338 
Q 2531 2678 2651 2914 
Q 2772 3150 2772 3378 
Q 2772 3750 2511 3984 
Q 2250 4219 1831 4219 
Q 1534 4219 1204 4116 
Q 875 4013 500 3803 
L 500 4441 
Q 881 4594 1212 4672 
Q 1544 4750 1819 4750 
Q 2544 4750 2975 4387 
Q 3406 4025 3406 3419 
Q 3406 3131 3298 2873 
Q 3191 2616 2906 2266 
Q 2828 2175 2409 1742 
Q 1991 1309 1228 531 
z
" transform="scale(0.015625)"/>
        <path id="DejaVuSans-35" d="M 691 4666 
L 3169 4666 
L 3169 4134 
L 1269 4134 
L 1269 2991 
Q 1406 3038 1543 3061 
Q 1681 3084 1819 3084 
Q 2600 3084 3056 2656 
Q 3513 2228 3513 1497 
Q 3513 744 3044 326 
Q 2575 -91 1722 -91 
Q 1428 -91 1123 -41 
Q 819 9 494 109 
L 494 744 
Q 775 591 1075 516 
Q 1375 441 1709 441 
Q 2250 441 2565 725 
Q 2881 1009 2881 1497 
Q 2881 1984 2565 2268 
Q 2250 2553 1709 2553 
Q 1456 2553 1204 2497 
Q 953 2441 691 2322 
L 691 4666 
z
" transform="scale(0.015625)"/>
       </defs>
       <use xlink:href="#DejaVuSans-2212"/>
       <use xlink:href="#DejaVuSans-30" x="83.789062"/>
       <use xlink:href="#DejaVuSans-2e" x="147.412109"/>
       <use xlink:href="#DejaVuSans-30" x="179.199219"/>
       <use xlink:href="#DejaVuSans-30" x="242.822266"/>
       <use xlink:href="#DejaVuSans-32" x="306.445312"/>
       <use xlink:href="#DejaVuSans-35" x="370.068359"/>
      </g>
     </g>
    </g>
    <g id="xtick_2">
     <g id="line2d_2">
      <g>
       <use xlink:href="#mac4a4c854a" x="115.314745" y="274.085724" style="stroke: #000000; stroke-width: 0.8"/>
      </g>
     </g>
     <g id="text_2">
      <!-- 0.0000 -->
      <g transform="translate(97.819433 288.684161) scale(0.1 -0.1)">
       <use xlink:href="#DejaVuSans-30"/>
       <use xlink:href="#DejaVuSans-2e" x="63.623047"/>
       <use xlink:href="#DejaVuSans-30" x="95.410156"/>
       <use xlink:href="#DejaVuSans-30" x="159.033203"/>
       <use xlink:href="#DejaVuSans-30" x="222.65625"/>
       <use xlink:href="#DejaVuSans-30" x="286.279297"/>
      </g>
     </g>
    </g>
    <g id="xtick_3">
     <g id="line2d_3">
      <g>
       <use xlink:href="#mac4a4c854a" x="156.391082" y="274.085724" style="stroke: #000000; stroke-width: 0.8"/>
      </g>
     </g>
     <g id="text_3">
      <!-- 0.0025 -->
      <g transform="translate(138.89577 288.684161) scale(0.1 -0.1)">
       <use xlink:href="#DejaVuSans-30"/>
       <use xlink:href="#DejaVuSans-2e" x="63.623047"/>
       <use xlink:href="#DejaVuSans-30" x="95.410156"/>
       <use xlink:href="#DejaVuSans-30" x="159.033203"/>
       <use xlink:href="#DejaVuSans-32" x="222.65625"/>
       <use xlink:href="#DejaVuSans-35" x="286.279297"/>
      </g>
     </g>
    </g>
    <g id="xtick_4">
     <g id="line2d_4">
      <g>
       <use xlink:href="#mac4a4c854a" x="197.467419" y="274.085724" style="stroke: #000000; stroke-width: 0.8"/>
      </g>
     </g>
     <g id="text_4">
      <!-- 0.0050 -->
      <g transform="translate(179.972107 288.684161) scale(0.1 -0.1)">
       <use xlink:href="#DejaVuSans-30"/>
       <use xlink:href="#DejaVuSans-2e" x="63.623047"/>
       <use xlink:href="#DejaVuSans-30" x="95.410156"/>
       <use xlink:href="#DejaVuSans-30" x="159.033203"/>
       <use xlink:href="#DejaVuSans-35" x="222.65625"/>
       <use xlink:href="#DejaVuSans-30" x="286.279297"/>
      </g>
     </g>
    </g>
    <g id="xtick_5">
     <g id="line2d_5">
      <g>
       <use xlink:href="#mac4a4c854a" x="238.543756" y="274.085724" style="stroke: #000000; stroke-width: 0.8"/>
      </g>
     </g>
     <g id="text_5">
      <!-- 0.0075 -->
      <g transform="translate(221.048444 288.684161) scale(0.1 -0.1)">
       <defs>
        <path id="DejaVuSans-37" d="M 525 4666 
L 3525 4666 
L 3525 4397 
L 1831 0 
L 1172 0 
L 2766 4134 
L 525 4134 
L 525 4666 
z
" transform="scale(0.015625)"/>
       </defs>
       <use xlink:href="#DejaVuSans-30"/>
       <use xlink:href="#DejaVuSans-2e" x="63.623047"/>
       <use xlink:href="#DejaVuSans-30" x="95.410156"/>
       <use xlink:href="#DejaVuSans-30" x="159.033203"/>
       <use xlink:href="#DejaVuSans-37" x="222.65625"/>
       <use xlink:href="#DejaVuSans-35" x="286.279297"/>
      </g>
     </g>
    </g>
    <g id="xtick_6">
     <g id="line2d_6">
      <g>
       <use xlink:href="#mac4a4c854a" x="279.620093" y="274.085724" style="stroke: #000000; stroke-width: 0.8"/>
      </g>
     </g>
     <g id="text_6">
      <!-- 0.0100 -->
      <g transform="translate(262.124781 288.684161) scale(0.1 -0.1)">
       <defs>
        <path id="DejaVuSans-31" d="M 794 531 
L 1825 531 
L 1825 4091 
L 703 3866 
L 703 4441 
L 1819 4666 
L 2450 4666 
L 2450 531 
L 3481 531 
L 3481 0 
L 794 0 
L 794 531 
z
" transform="scale(0.015625)"/>
       </defs>
       <use xlink:href="#DejaVuSans-30"/>
       <use xlink:href="#DejaVuSans-2e" x="63.623047"/>
       <use xlink:href="#DejaVuSans-30" x="95.410156"/>
       <use xlink:href="#DejaVuSans-31" x="159.033203"/>
       <use xlink:href="#DejaVuSans-30" x="222.65625"/>
       <use xlink:href="#DejaVuSans-30" x="286.279297"/>
      </g>
     </g>
    </g>
    <g id="xtick_7">
     <g id="line2d_7">
      <g>
       <use xlink:href="#mac4a4c854a" x="320.69643" y="274.085724" style="stroke: #000000; stroke-width: 0.8"/>
      </g>
     </g>
     <g id="text_7">
      <!-- 0.0125 -->
      <g transform="translate(303.201118 288.684161) scale(0.1 -0.1)">
       <use xlink:href="#DejaVuSans-30"/>
       <use xlink:href="#DejaVuSans-2e" x="63.623047"/>
       <use xlink:href="#DejaVuSans-30" x="95.410156"/>
       <use xlink:href="#DejaVuSans-31" x="159.033203"/>
       <use xlink:href="#DejaVuSans-32" x="222.65625"/>
       <use xlink:href="#DejaVuSans-35" x="286.279297"/>
      </g>
     </g>
    </g>
    <g id="xtick_8">
     <g id="line2d_8">
      <g>
       <use xlink:href="#mac4a4c854a" x="361.772767" y="274.085724" style="stroke: #000000; stroke-width: 0.8"/>
      </g>
     </g>
     <g id="text_8">
      <!-- 0.0150 -->
      <g transform="translate(344.277455 288.684161) scale(0.1 -0.1)">
       <use xlink:href="#DejaVuSans-30"/>
       <use xlink:href="#DejaVuSans-2e" x="63.623047"/>
       <use xlink:href="#DejaVuSans-30" x="95.410156"/>
       <use xlink:href="#DejaVuSans-31" x="159.033203"/>
       <use xlink:href="#DejaVuSans-35" x="222.65625"/>
       <use xlink:href="#DejaVuSans-30" x="286.279297"/>
      </g>
     </g>
    </g>
    <g id="xtick_9">
     <g id="line2d_9">
      <g>
       <use xlink:href="#mac4a4c854a" x="402.849104" y="274.085724" style="stroke: #000000; stroke-width: 0.8"/>
      </g>
     </g>
     <g id="text_9">
      <!-- 0.0175 -->
      <g transform="translate(385.353792 288.684161) scale(0.1 -0.1)">
       <use xlink:href="#DejaVuSans-30"/>
       <use xlink:href="#DejaVuSans-2e" x="63.623047"/>
       <use xlink:href="#DejaVuSans-30" x="95.410156"/>
       <use xlink:href="#DejaVuSans-31" x="159.033203"/>
       <use xlink:href="#DejaVuSans-37" x="222.65625"/>
       <use xlink:href="#DejaVuSans-35" x="286.279297"/>
      </g>
     </g>
    </g>
    <g id="text_10">
     <!-- $\hat{\tilde{u}}_x - \tilde{u}_{x}$ -->
     <g transform="translate(208.525625 306.184161) scale(0.1 -0.1)">
      <defs>
       <path id="DejaVuSans-302" d="M -1831 5119 
L -1369 5119 
L -603 3944 
L -1038 3944 
L -1600 4709 
L -2163 3944 
L -2597 3944 
L -1831 5119 
z
M -1600 3584 
L -1600 3584 
z
" transform="scale(0.015625)"/>
       <path id="DejaVuSans-303" d="M -1621 4281 
L -1799 4453 
Q -1867 4516 -1919 4545 
Q -1971 4575 -2011 4575 
Q -2130 4575 -2186 4461 
Q -2242 4347 -2249 4091 
L -2639 4091 
Q -2633 4513 -2473 4742 
Q -2314 4972 -2030 4972 
Q -1911 4972 -1811 4928 
Q -1711 4884 -1596 4781 
L -1417 4609 
Q -1349 4547 -1297 4517 
Q -1246 4488 -1205 4488 
Q -1086 4488 -1030 4602 
Q -974 4716 -967 4972 
L -577 4972 
Q -583 4550 -742 4320 
Q -902 4091 -1186 4091 
Q -1305 4091 -1405 4134 
Q -1505 4178 -1621 4281 
z
" transform="scale(0.015625)"/>
       <path id="DejaVuSans-Oblique-75" d="M 428 1388 
L 838 3500 
L 1416 3500 
L 1006 1409 
Q 975 1256 961 1147 
Q 947 1038 947 966 
Q 947 700 1109 554 
Q 1272 409 1569 409 
Q 2031 409 2368 721 
Q 2706 1034 2809 1563 
L 3194 3500 
L 3769 3500 
L 3091 0 
L 2516 0 
L 2631 550 
Q 2388 244 2052 76 
Q 1716 -91 1338 -91 
Q 878 -91 622 161 
Q 366 413 366 863 
Q 366 956 381 1097 
Q 397 1238 428 1388 
z
" transform="scale(0.015625)"/>
       <path id="DejaVuSans-Oblique-78" d="M 3841 3500 
L 2234 1784 
L 3219 0 
L 2559 0 
L 1819 1388 
L 531 0 
L -166 0 
L 1556 1844 
L 641 3500 
L 1300 3500 
L 1972 2234 
L 3144 3500 
L 3841 3500 
z
" transform="scale(0.015625)"/>
      </defs>
      <use xlink:href="#DejaVuSans-302" transform="translate(64.422852 38.015625)"/>
      <use xlink:href="#DejaVuSans-303" transform="translate(65.079102 3.828125)"/>
      <use xlink:href="#DejaVuSans-Oblique-75" transform="translate(0 0.5625)"/>
      <use xlink:href="#DejaVuSans-Oblique-78" transform="translate(64.335938 -15.84375) scale(0.7)"/>
      <use xlink:href="#DejaVuSans-2212" transform="translate(127.978516 0.5625)"/>
      <use xlink:href="#DejaVuSans-303" transform="translate(296.329102 3.828125)"/>
      <use xlink:href="#DejaVuSans-Oblique-75" transform="translate(231.25 0.5625)"/>
      <use xlink:href="#DejaVuSans-Oblique-78" transform="translate(295.585938 -15.84375) scale(0.7)"/>
     </g>
    </g>
   </g>
   <g id="matplotlib.axis_2">
    <g id="ytick_1">
     <g id="line2d_10">
      <defs>
       <path id="ma81d52877c" d="M 0 0 
L -3.5 0 
" style="stroke: #000000; stroke-width: 0.8"/>
      </defs>
      <g>
       <use xlink:href="#ma81d52877c" x="46.965625" y="274.085724" style="stroke: #000000; stroke-width: 0.8"/>
      </g>
     </g>
     <g id="text_11">
      <!-- 0 -->
      <g transform="translate(33.603125 277.884943) scale(0.1 -0.1)">
       <use xlink:href="#DejaVuSans-30"/>
      </g>
     </g>
    </g>
    <g id="ytick_2">
     <g id="line2d_11">
      <g>
       <use xlink:href="#ma81d52877c" x="46.965625" y="230.237973" style="stroke: #000000; stroke-width: 0.8"/>
      </g>
     </g>
     <g id="text_12">
      <!-- 50 -->
      <g transform="translate(27.240625 234.037192) scale(0.1 -0.1)">
       <use xlink:href="#DejaVuSans-35"/>
       <use xlink:href="#DejaVuSans-30" x="63.623047"/>
      </g>
     </g>
    </g>
    <g id="ytick_3">
     <g id="line2d_12">
      <g>
       <use xlink:href="#ma81d52877c" x="46.965625" y="186.390222" style="stroke: #000000; stroke-width: 0.8"/>
      </g>
     </g>
     <g id="text_13">
      <!-- 100 -->
      <g transform="translate(20.878125 190.189441) scale(0.1 -0.1)">
       <use xlink:href="#DejaVuSans-31"/>
       <use xlink:href="#DejaVuSans-30" x="63.623047"/>
       <use xlink:href="#DejaVuSans-30" x="127.246094"/>
      </g>
     </g>
    </g>
    <g id="ytick_4">
     <g id="line2d_13">
      <g>
       <use xlink:href="#ma81d52877c" x="46.965625" y="142.542471" style="stroke: #000000; stroke-width: 0.8"/>
      </g>
     </g>
     <g id="text_14">
      <!-- 150 -->
      <g transform="translate(20.878125 146.34169) scale(0.1 -0.1)">
       <use xlink:href="#DejaVuSans-31"/>
       <use xlink:href="#DejaVuSans-35" x="63.623047"/>
       <use xlink:href="#DejaVuSans-30" x="127.246094"/>
      </g>
     </g>
    </g>
    <g id="ytick_5">
     <g id="line2d_14">
      <g>
       <use xlink:href="#ma81d52877c" x="46.965625" y="98.69472" style="stroke: #000000; stroke-width: 0.8"/>
      </g>
     </g>
     <g id="text_15">
      <!-- 200 -->
      <g transform="translate(20.878125 102.493939) scale(0.1 -0.1)">
       <use xlink:href="#DejaVuSans-32"/>
       <use xlink:href="#DejaVuSans-30" x="63.623047"/>
       <use xlink:href="#DejaVuSans-30" x="127.246094"/>
      </g>
     </g>
    </g>
    <g id="ytick_6">
     <g id="line2d_15">
      <g>
       <use xlink:href="#ma81d52877c" x="46.965625" y="54.84697" style="stroke: #000000; stroke-width: 0.8"/>
      </g>
     </g>
     <g id="text_16">
      <!-- 250 -->
      <g transform="translate(20.878125 58.646188) scale(0.1 -0.1)">
       <use xlink:href="#DejaVuSans-32"/>
       <use xlink:href="#DejaVuSans-35" x="63.623047"/>
       <use xlink:href="#DejaVuSans-30" x="127.246094"/>
      </g>
     </g>
    </g>
    <g id="ytick_7">
     <g id="line2d_16">
      <g>
       <use xlink:href="#ma81d52877c" x="46.965625" y="10.999219" style="stroke: #000000; stroke-width: 0.8"/>
      </g>
     </g>
     <g id="text_17">
      <!-- 300 -->
      <g transform="translate(20.878125 14.798437) scale(0.1 -0.1)">
       <defs>
        <path id="DejaVuSans-33" d="M 2597 2516 
Q 3050 2419 3304 2112 
Q 3559 1806 3559 1356 
Q 3559 666 3084 287 
Q 2609 -91 1734 -91 
Q 1441 -91 1130 -33 
Q 819 25 488 141 
L 488 750 
Q 750 597 1062 519 
Q 1375 441 1716 441 
Q 2309 441 2620 675 
Q 2931 909 2931 1356 
Q 2931 1769 2642 2001 
Q 2353 2234 1838 2234 
L 1294 2234 
L 1294 2753 
L 1863 2753 
Q 2328 2753 2575 2939 
Q 2822 3125 2822 3475 
Q 2822 3834 2567 4026 
Q 2313 4219 1838 4219 
Q 1578 4219 1281 4162 
Q 984 4106 628 3988 
L 628 4550 
Q 988 4650 1302 4700 
Q 1616 4750 1894 4750 
Q 2613 4750 3031 4423 
Q 3450 4097 3450 3541 
Q 3450 3153 3228 2886 
Q 3006 2619 2597 2516 
z
" transform="scale(0.015625)"/>
       </defs>
       <use xlink:href="#DejaVuSans-33"/>
       <use xlink:href="#DejaVuSans-30" x="63.623047"/>
       <use xlink:href="#DejaVuSans-30" x="127.246094"/>
      </g>
     </g>
    </g>
    <g id="text_18">
     <!-- bin count -->
     <g transform="translate(14.798438 164.457068) rotate(-90) scale(0.1 -0.1)">
      <defs>
       <path id="DejaVuSans-62" d="M 3116 1747 
Q 3116 2381 2855 2742 
Q 2594 3103 2138 3103 
Q 1681 3103 1420 2742 
Q 1159 2381 1159 1747 
Q 1159 1113 1420 752 
Q 1681 391 2138 391 
Q 2594 391 2855 752 
Q 3116 1113 3116 1747 
z
M 1159 2969 
Q 1341 3281 1617 3432 
Q 1894 3584 2278 3584 
Q 2916 3584 3314 3078 
Q 3713 2572 3713 1747 
Q 3713 922 3314 415 
Q 2916 -91 2278 -91 
Q 1894 -91 1617 61 
Q 1341 213 1159 525 
L 1159 0 
L 581 0 
L 581 4863 
L 1159 4863 
L 1159 2969 
z
" transform="scale(0.015625)"/>
       <path id="DejaVuSans-69" d="M 603 3500 
L 1178 3500 
L 1178 0 
L 603 0 
L 603 3500 
z
M 603 4863 
L 1178 4863 
L 1178 4134 
L 603 4134 
L 603 4863 
z
" transform="scale(0.015625)"/>
       <path id="DejaVuSans-6e" d="M 3513 2113 
L 3513 0 
L 2938 0 
L 2938 2094 
Q 2938 2591 2744 2837 
Q 2550 3084 2163 3084 
Q 1697 3084 1428 2787 
Q 1159 2491 1159 1978 
L 1159 0 
L 581 0 
L 581 3500 
L 1159 3500 
L 1159 2956 
Q 1366 3272 1645 3428 
Q 1925 3584 2291 3584 
Q 2894 3584 3203 3211 
Q 3513 2838 3513 2113 
z
" transform="scale(0.015625)"/>
       <path id="DejaVuSans-20" transform="scale(0.015625)"/>
       <path id="DejaVuSans-63" d="M 3122 3366 
L 3122 2828 
Q 2878 2963 2633 3030 
Q 2388 3097 2138 3097 
Q 1578 3097 1268 2742 
Q 959 2388 959 1747 
Q 959 1106 1268 751 
Q 1578 397 2138 397 
Q 2388 397 2633 464 
Q 2878 531 3122 666 
L 3122 134 
Q 2881 22 2623 -34 
Q 2366 -91 2075 -91 
Q 1284 -91 818 406 
Q 353 903 353 1747 
Q 353 2603 823 3093 
Q 1294 3584 2113 3584 
Q 2378 3584 2631 3529 
Q 2884 3475 3122 3366 
z
" transform="scale(0.015625)"/>
       <path id="DejaVuSans-6f" d="M 1959 3097 
Q 1497 3097 1228 2736 
Q 959 2375 959 1747 
Q 959 1119 1226 758 
Q 1494 397 1959 397 
Q 2419 397 2687 759 
Q 2956 1122 2956 1747 
Q 2956 2369 2687 2733 
Q 2419 3097 1959 3097 
z
M 1959 3584 
Q 2709 3584 3137 3096 
Q 3566 2609 3566 1747 
Q 3566 888 3137 398 
Q 2709 -91 1959 -91 
Q 1206 -91 779 398 
Q 353 888 353 1747 
Q 353 2609 779 3096 
Q 1206 3584 1959 3584 
z
" transform="scale(0.015625)"/>
       <path id="DejaVuSans-75" d="M 544 1381 
L 544 3500 
L 1119 3500 
L 1119 1403 
Q 1119 906 1312 657 
Q 1506 409 1894 409 
Q 2359 409 2629 706 
Q 2900 1003 2900 1516 
L 2900 3500 
L 3475 3500 
L 3475 0 
L 2900 0 
L 2900 538 
Q 2691 219 2414 64 
Q 2138 -91 1772 -91 
Q 1169 -91 856 284 
Q 544 659 544 1381 
z
M 1991 3584 
L 1991 3584 
z
" transform="scale(0.015625)"/>
       <path id="DejaVuSans-74" d="M 1172 4494 
L 1172 3500 
L 2356 3500 
L 2356 3053 
L 1172 3053 
L 1172 1153 
Q 1172 725 1289 603 
Q 1406 481 1766 481 
L 2356 481 
L 2356 0 
L 1766 0 
Q 1100 0 847 248 
Q 594 497 594 1153 
L 594 3053 
L 172 3053 
L 172 3500 
L 594 3500 
L 594 4494 
L 1172 4494 
z
" transform="scale(0.015625)"/>
      </defs>
      <use xlink:href="#DejaVuSans-62"/>
      <use xlink:href="#DejaVuSans-69" x="63.476562"/>
      <use xlink:href="#DejaVuSans-6e" x="91.259766"/>
      <use xlink:href="#DejaVuSans-20" x="154.638672"/>
      <use xlink:href="#DejaVuSans-63" x="186.425781"/>
      <use xlink:href="#DejaVuSans-6f" x="241.40625"/>
      <use xlink:href="#DejaVuSans-75" x="302.587891"/>
      <use xlink:href="#DejaVuSans-6e" x="365.966797"/>
      <use xlink:href="#DejaVuSans-74" x="429.345703"/>
     </g>
    </g>
   </g>
   <g id="patch_53">
    <path d="M 46.965625 274.085724 
L 46.965625 7.973724 
" style="fill: none; stroke: #000000; stroke-width: 0.8; stroke-linejoin: miter; stroke-linecap: square"/>
   </g>
   <g id="patch_54">
    <path d="M 404.085625 274.085724 
L 404.085625 7.973724 
" style="fill: none; stroke: #000000; stroke-width: 0.8; stroke-linejoin: miter; stroke-linecap: square"/>
   </g>
   <g id="patch_55">
    <path d="M 46.965625 274.085724 
L 404.085625 274.085724 
" style="fill: none; stroke: #000000; stroke-width: 0.8; stroke-linejoin: miter; stroke-linecap: square"/>
   </g>
   <g id="patch_56">
    <path d="M 46.965625 7.973724 
L 404.085625 7.973724 
" style="fill: none; stroke: #000000; stroke-width: 0.8; stroke-linejoin: miter; stroke-linecap: square"/>
   </g>
  </g>
 </g>
 <defs>
  <clipPath id="p3039e056da">
   <rect x="46.965625" y="7.973724" width="357.12" height="266.112"/>
  </clipPath>
 </defs>
</svg>
