<?xml version="1.0" encoding="utf-8" standalone="no"?>
<!DOCTYPE svg PUBLIC "-//W3C//DTD SVG 1.1//EN"
  "http://www.w3.org/Graphics/SVG/1.1/DTD/svg11.dtd">
<!-- Created with matplotlib (https://matplotlib.org/) -->
<svg height="262.19625pt" version="1.1" viewBox="0 0 393.378125 262.19625" width="393.378125pt" xmlns="http://www.w3.org/2000/svg" xmlns:xlink="http://www.w3.org/1999/xlink">
 <metadata>
  <rdf:RDF xmlns:cc="http://creativecommons.org/ns#" xmlns:dc="http://purl.org/dc/elements/1.1/" xmlns:rdf="http://www.w3.org/1999/02/22-rdf-syntax-ns#">
   <cc:Work>
    <dc:type rdf:resource="http://purl.org/dc/dcmitype/StillImage"/>
    <dc:date>2021-12-08T10:35:09.362908</dc:date>
    <dc:format>image/svg+xml</dc:format>
    <dc:creator>
     <cc:Agent>
      <dc:title>Matplotlib v3.3.3, https://matplotlib.org/</dc:title>
     </cc:Agent>
    </dc:creator>
   </cc:Work>
  </rdf:RDF>
 </metadata>
 <defs>
  <style type="text/css">*{stroke-linecap:butt;stroke-linejoin:round;}</style>
 </defs>
 <g id="figure_1">
  <g id="patch_1">
   <path d="M 0 262.19625 
L 393.378125 262.19625 
L 393.378125 0 
L 0 0 
z
" style="fill:none;"/>
  </g>
  <g id="axes_1">
   <g id="patch_2">
    <path d="M 51.378125 224.64 
L 386.178125 224.64 
L 386.178125 7.2 
L 51.378125 7.2 
z
" style="fill:#ffffff;"/>
   </g>
   <g id="matplotlib.axis_1">
    <g id="xtick_1">
     <g id="line2d_1">
      <defs>
       <path d="M 0 0 
L 0 3.5 
" id="m0c003a391b" style="stroke:#000000;stroke-width:0.8;"/>
      </defs>
      <g>
       <use style="stroke:#000000;stroke-width:0.8;" x="66.596307" xlink:href="#m0c003a391b" y="224.64"/>
      </g>
     </g>
     <g id="text_1">
      <!-- 0 -->
      <g transform="translate(63.415057 239.238438)scale(0.1 -0.1)">
       <defs>
        <path d="M 31.78125 66.40625 
Q 24.171875 66.40625 20.328125 58.90625 
Q 16.5 51.421875 16.5 36.375 
Q 16.5 21.390625 20.328125 13.890625 
Q 24.171875 6.390625 31.78125 6.390625 
Q 39.453125 6.390625 43.28125 13.890625 
Q 47.125 21.390625 47.125 36.375 
Q 47.125 51.421875 43.28125 58.90625 
Q 39.453125 66.40625 31.78125 66.40625 
z
M 31.78125 74.21875 
Q 44.046875 74.21875 50.515625 64.515625 
Q 56.984375 54.828125 56.984375 36.375 
Q 56.984375 17.96875 50.515625 8.265625 
Q 44.046875 -1.421875 31.78125 -1.421875 
Q 19.53125 -1.421875 13.0625 8.265625 
Q 6.59375 17.96875 6.59375 36.375 
Q 6.59375 54.828125 13.0625 64.515625 
Q 19.53125 74.21875 31.78125 74.21875 
z
" id="DejaVuSans-48"/>
       </defs>
       <use xlink:href="#DejaVuSans-48"/>
      </g>
     </g>
    </g>
    <g id="xtick_2">
     <g id="line2d_2">
      <g>
       <use style="stroke:#000000;stroke-width:0.8;" x="104.660794" xlink:href="#m0c003a391b" y="224.64"/>
      </g>
     </g>
     <g id="text_2">
      <!-- 250 -->
      <g transform="translate(95.117044 239.238438)scale(0.1 -0.1)">
       <defs>
        <path d="M 19.1875 8.296875 
L 53.609375 8.296875 
L 53.609375 0 
L 7.328125 0 
L 7.328125 8.296875 
Q 12.9375 14.109375 22.625 23.890625 
Q 32.328125 33.6875 34.8125 36.53125 
Q 39.546875 41.84375 41.421875 45.53125 
Q 43.3125 49.21875 43.3125 52.78125 
Q 43.3125 58.59375 39.234375 62.25 
Q 35.15625 65.921875 28.609375 65.921875 
Q 23.96875 65.921875 18.8125 64.3125 
Q 13.671875 62.703125 7.8125 59.421875 
L 7.8125 69.390625 
Q 13.765625 71.78125 18.9375 73 
Q 24.125 74.21875 28.421875 74.21875 
Q 39.75 74.21875 46.484375 68.546875 
Q 53.21875 62.890625 53.21875 53.421875 
Q 53.21875 48.921875 51.53125 44.890625 
Q 49.859375 40.875 45.40625 35.40625 
Q 44.1875 33.984375 37.640625 27.21875 
Q 31.109375 20.453125 19.1875 8.296875 
z
" id="DejaVuSans-50"/>
        <path d="M 10.796875 72.90625 
L 49.515625 72.90625 
L 49.515625 64.59375 
L 19.828125 64.59375 
L 19.828125 46.734375 
Q 21.96875 47.46875 24.109375 47.828125 
Q 26.265625 48.1875 28.421875 48.1875 
Q 40.625 48.1875 47.75 41.5 
Q 54.890625 34.8125 54.890625 23.390625 
Q 54.890625 11.625 47.5625 5.09375 
Q 40.234375 -1.421875 26.90625 -1.421875 
Q 22.3125 -1.421875 17.546875 -0.640625 
Q 12.796875 0.140625 7.71875 1.703125 
L 7.71875 11.625 
Q 12.109375 9.234375 16.796875 8.0625 
Q 21.484375 6.890625 26.703125 6.890625 
Q 35.15625 6.890625 40.078125 11.328125 
Q 45.015625 15.765625 45.015625 23.390625 
Q 45.015625 31 40.078125 35.4375 
Q 35.15625 39.890625 26.703125 39.890625 
Q 22.75 39.890625 18.8125 39.015625 
Q 14.890625 38.140625 10.796875 36.28125 
z
" id="DejaVuSans-53"/>
       </defs>
       <use xlink:href="#DejaVuSans-50"/>
       <use x="63.623047" xlink:href="#DejaVuSans-53"/>
       <use x="127.246094" xlink:href="#DejaVuSans-48"/>
      </g>
     </g>
    </g>
    <g id="xtick_3">
     <g id="line2d_3">
      <g>
       <use style="stroke:#000000;stroke-width:0.8;" x="142.72528" xlink:href="#m0c003a391b" y="224.64"/>
      </g>
     </g>
     <g id="text_3">
      <!-- 500 -->
      <g transform="translate(133.18153 239.238438)scale(0.1 -0.1)">
       <use xlink:href="#DejaVuSans-53"/>
       <use x="63.623047" xlink:href="#DejaVuSans-48"/>
       <use x="127.246094" xlink:href="#DejaVuSans-48"/>
      </g>
     </g>
    </g>
    <g id="xtick_4">
     <g id="line2d_4">
      <g>
       <use style="stroke:#000000;stroke-width:0.8;" x="180.789767" xlink:href="#m0c003a391b" y="224.64"/>
      </g>
     </g>
     <g id="text_4">
      <!-- 750 -->
      <g transform="translate(171.246017 239.238438)scale(0.1 -0.1)">
       <defs>
        <path d="M 8.203125 72.90625 
L 55.078125 72.90625 
L 55.078125 68.703125 
L 28.609375 0 
L 18.3125 0 
L 43.21875 64.59375 
L 8.203125 64.59375 
z
" id="DejaVuSans-55"/>
       </defs>
       <use xlink:href="#DejaVuSans-55"/>
       <use x="63.623047" xlink:href="#DejaVuSans-53"/>
       <use x="127.246094" xlink:href="#DejaVuSans-48"/>
      </g>
     </g>
    </g>
    <g id="xtick_5">
     <g id="line2d_5">
      <g>
       <use style="stroke:#000000;stroke-width:0.8;" x="218.854254" xlink:href="#m0c003a391b" y="224.64"/>
      </g>
     </g>
     <g id="text_5">
      <!-- 1000 -->
      <g transform="translate(206.129254 239.238438)scale(0.1 -0.1)">
       <defs>
        <path d="M 12.40625 8.296875 
L 28.515625 8.296875 
L 28.515625 63.921875 
L 10.984375 60.40625 
L 10.984375 69.390625 
L 28.421875 72.90625 
L 38.28125 72.90625 
L 38.28125 8.296875 
L 54.390625 8.296875 
L 54.390625 0 
L 12.40625 0 
z
" id="DejaVuSans-49"/>
       </defs>
       <use xlink:href="#DejaVuSans-49"/>
       <use x="63.623047" xlink:href="#DejaVuSans-48"/>
       <use x="127.246094" xlink:href="#DejaVuSans-48"/>
       <use x="190.869141" xlink:href="#DejaVuSans-48"/>
      </g>
     </g>
    </g>
    <g id="xtick_6">
     <g id="line2d_6">
      <g>
       <use style="stroke:#000000;stroke-width:0.8;" x="256.918741" xlink:href="#m0c003a391b" y="224.64"/>
      </g>
     </g>
     <g id="text_6">
      <!-- 1250 -->
      <g transform="translate(244.193741 239.238438)scale(0.1 -0.1)">
       <use xlink:href="#DejaVuSans-49"/>
       <use x="63.623047" xlink:href="#DejaVuSans-50"/>
       <use x="127.246094" xlink:href="#DejaVuSans-53"/>
       <use x="190.869141" xlink:href="#DejaVuSans-48"/>
      </g>
     </g>
    </g>
    <g id="xtick_7">
     <g id="line2d_7">
      <g>
       <use style="stroke:#000000;stroke-width:0.8;" x="294.983228" xlink:href="#m0c003a391b" y="224.64"/>
      </g>
     </g>
     <g id="text_7">
      <!-- 1500 -->
      <g transform="translate(282.258228 239.238438)scale(0.1 -0.1)">
       <use xlink:href="#DejaVuSans-49"/>
       <use x="63.623047" xlink:href="#DejaVuSans-53"/>
       <use x="127.246094" xlink:href="#DejaVuSans-48"/>
       <use x="190.869141" xlink:href="#DejaVuSans-48"/>
      </g>
     </g>
    </g>
    <g id="xtick_8">
     <g id="line2d_8">
      <g>
       <use style="stroke:#000000;stroke-width:0.8;" x="333.047714" xlink:href="#m0c003a391b" y="224.64"/>
      </g>
     </g>
     <g id="text_8">
      <!-- 1750 -->
      <g transform="translate(320.322714 239.238438)scale(0.1 -0.1)">
       <use xlink:href="#DejaVuSans-49"/>
       <use x="63.623047" xlink:href="#DejaVuSans-55"/>
       <use x="127.246094" xlink:href="#DejaVuSans-53"/>
       <use x="190.869141" xlink:href="#DejaVuSans-48"/>
      </g>
     </g>
    </g>
    <g id="xtick_9">
     <g id="line2d_9">
      <g>
       <use style="stroke:#000000;stroke-width:0.8;" x="371.112201" xlink:href="#m0c003a391b" y="224.64"/>
      </g>
     </g>
     <g id="text_9">
      <!-- 2000 -->
      <g transform="translate(358.387201 239.238438)scale(0.1 -0.1)">
       <use xlink:href="#DejaVuSans-50"/>
       <use x="63.623047" xlink:href="#DejaVuSans-48"/>
       <use x="127.246094" xlink:href="#DejaVuSans-48"/>
       <use x="190.869141" xlink:href="#DejaVuSans-48"/>
      </g>
     </g>
    </g>
    <g id="text_10">
     <!-- epoch -->
     <g transform="translate(203.55 252.916563)scale(0.1 -0.1)">
      <defs>
       <path d="M 56.203125 29.59375 
L 56.203125 25.203125 
L 14.890625 25.203125 
Q 15.484375 15.921875 20.484375 11.0625 
Q 25.484375 6.203125 34.421875 6.203125 
Q 39.59375 6.203125 44.453125 7.46875 
Q 49.3125 8.734375 54.109375 11.28125 
L 54.109375 2.78125 
Q 49.265625 0.734375 44.1875 -0.34375 
Q 39.109375 -1.421875 33.890625 -1.421875 
Q 20.796875 -1.421875 13.15625 6.1875 
Q 5.515625 13.8125 5.515625 26.8125 
Q 5.515625 40.234375 12.765625 48.109375 
Q 20.015625 56 32.328125 56 
Q 43.359375 56 49.78125 48.890625 
Q 56.203125 41.796875 56.203125 29.59375 
z
M 47.21875 32.234375 
Q 47.125 39.59375 43.09375 43.984375 
Q 39.0625 48.390625 32.421875 48.390625 
Q 24.90625 48.390625 20.390625 44.140625 
Q 15.875 39.890625 15.1875 32.171875 
z
" id="DejaVuSans-101"/>
       <path d="M 18.109375 8.203125 
L 18.109375 -20.796875 
L 9.078125 -20.796875 
L 9.078125 54.6875 
L 18.109375 54.6875 
L 18.109375 46.390625 
Q 20.953125 51.265625 25.265625 53.625 
Q 29.59375 56 35.59375 56 
Q 45.5625 56 51.78125 48.09375 
Q 58.015625 40.1875 58.015625 27.296875 
Q 58.015625 14.40625 51.78125 6.484375 
Q 45.5625 -1.421875 35.59375 -1.421875 
Q 29.59375 -1.421875 25.265625 0.953125 
Q 20.953125 3.328125 18.109375 8.203125 
z
M 48.6875 27.296875 
Q 48.6875 37.203125 44.609375 42.84375 
Q 40.53125 48.484375 33.40625 48.484375 
Q 26.265625 48.484375 22.1875 42.84375 
Q 18.109375 37.203125 18.109375 27.296875 
Q 18.109375 17.390625 22.1875 11.75 
Q 26.265625 6.109375 33.40625 6.109375 
Q 40.53125 6.109375 44.609375 11.75 
Q 48.6875 17.390625 48.6875 27.296875 
z
" id="DejaVuSans-112"/>
       <path d="M 30.609375 48.390625 
Q 23.390625 48.390625 19.1875 42.75 
Q 14.984375 37.109375 14.984375 27.296875 
Q 14.984375 17.484375 19.15625 11.84375 
Q 23.34375 6.203125 30.609375 6.203125 
Q 37.796875 6.203125 41.984375 11.859375 
Q 46.1875 17.53125 46.1875 27.296875 
Q 46.1875 37.015625 41.984375 42.703125 
Q 37.796875 48.390625 30.609375 48.390625 
z
M 30.609375 56 
Q 42.328125 56 49.015625 48.375 
Q 55.71875 40.765625 55.71875 27.296875 
Q 55.71875 13.875 49.015625 6.21875 
Q 42.328125 -1.421875 30.609375 -1.421875 
Q 18.84375 -1.421875 12.171875 6.21875 
Q 5.515625 13.875 5.515625 27.296875 
Q 5.515625 40.765625 12.171875 48.375 
Q 18.84375 56 30.609375 56 
z
" id="DejaVuSans-111"/>
       <path d="M 48.78125 52.59375 
L 48.78125 44.1875 
Q 44.96875 46.296875 41.140625 47.34375 
Q 37.3125 48.390625 33.40625 48.390625 
Q 24.65625 48.390625 19.8125 42.84375 
Q 14.984375 37.3125 14.984375 27.296875 
Q 14.984375 17.28125 19.8125 11.734375 
Q 24.65625 6.203125 33.40625 6.203125 
Q 37.3125 6.203125 41.140625 7.25 
Q 44.96875 8.296875 48.78125 10.40625 
L 48.78125 2.09375 
Q 45.015625 0.34375 40.984375 -0.53125 
Q 36.96875 -1.421875 32.421875 -1.421875 
Q 20.0625 -1.421875 12.78125 6.34375 
Q 5.515625 14.109375 5.515625 27.296875 
Q 5.515625 40.671875 12.859375 48.328125 
Q 20.21875 56 33.015625 56 
Q 37.15625 56 41.109375 55.140625 
Q 45.0625 54.296875 48.78125 52.59375 
z
" id="DejaVuSans-99"/>
       <path d="M 54.890625 33.015625 
L 54.890625 0 
L 45.90625 0 
L 45.90625 32.71875 
Q 45.90625 40.484375 42.875 44.328125 
Q 39.84375 48.1875 33.796875 48.1875 
Q 26.515625 48.1875 22.3125 43.546875 
Q 18.109375 38.921875 18.109375 30.90625 
L 18.109375 0 
L 9.078125 0 
L 9.078125 75.984375 
L 18.109375 75.984375 
L 18.109375 46.1875 
Q 21.34375 51.125 25.703125 53.5625 
Q 30.078125 56 35.796875 56 
Q 45.21875 56 50.046875 50.171875 
Q 54.890625 44.34375 54.890625 33.015625 
z
" id="DejaVuSans-104"/>
      </defs>
      <use xlink:href="#DejaVuSans-101"/>
      <use x="61.523438" xlink:href="#DejaVuSans-112"/>
      <use x="125" xlink:href="#DejaVuSans-111"/>
      <use x="186.181641" xlink:href="#DejaVuSans-99"/>
      <use x="241.162109" xlink:href="#DejaVuSans-104"/>
     </g>
    </g>
   </g>
   <g id="matplotlib.axis_2">
    <g id="ytick_1">
     <g id="line2d_10">
      <defs>
       <path d="M 0 0 
L -3.5 0 
" id="m3427309164" style="stroke:#000000;stroke-width:0.8;"/>
      </defs>
      <g>
       <use style="stroke:#000000;stroke-width:0.8;" x="51.378125" xlink:href="#m3427309164" y="197.566008"/>
      </g>
     </g>
     <g id="text_11">
      <!-- $\mathdefault{10^{-5}}$ -->
      <g transform="translate(20.878125 201.365227)scale(0.1 -0.1)">
       <defs>
        <path d="M 10.59375 35.5 
L 73.1875 35.5 
L 73.1875 27.203125 
L 10.59375 27.203125 
z
" id="DejaVuSans-8722"/>
       </defs>
       <use transform="translate(0 0.684375)" xlink:href="#DejaVuSans-49"/>
       <use transform="translate(63.623047 0.684375)" xlink:href="#DejaVuSans-48"/>
       <use transform="translate(128.203125 38.965625)scale(0.7)" xlink:href="#DejaVuSans-8722"/>
       <use transform="translate(186.855469 38.965625)scale(0.7)" xlink:href="#DejaVuSans-53"/>
      </g>
     </g>
    </g>
    <g id="ytick_2">
     <g id="line2d_11">
      <g>
       <use style="stroke:#000000;stroke-width:0.8;" x="51.378125" xlink:href="#m3427309164" y="157.994456"/>
      </g>
     </g>
     <g id="text_12">
      <!-- $\mathdefault{10^{-4}}$ -->
      <g transform="translate(20.878125 161.793674)scale(0.1 -0.1)">
       <defs>
        <path d="M 37.796875 64.3125 
L 12.890625 25.390625 
L 37.796875 25.390625 
z
M 35.203125 72.90625 
L 47.609375 72.90625 
L 47.609375 25.390625 
L 58.015625 25.390625 
L 58.015625 17.1875 
L 47.609375 17.1875 
L 47.609375 0 
L 37.796875 0 
L 37.796875 17.1875 
L 4.890625 17.1875 
L 4.890625 26.703125 
z
" id="DejaVuSans-52"/>
       </defs>
       <use transform="translate(0 0.684375)" xlink:href="#DejaVuSans-49"/>
       <use transform="translate(63.623047 0.684375)" xlink:href="#DejaVuSans-48"/>
       <use transform="translate(128.203125 38.965625)scale(0.7)" xlink:href="#DejaVuSans-8722"/>
       <use transform="translate(186.855469 38.965625)scale(0.7)" xlink:href="#DejaVuSans-52"/>
      </g>
     </g>
    </g>
    <g id="ytick_3">
     <g id="line2d_12">
      <g>
       <use style="stroke:#000000;stroke-width:0.8;" x="51.378125" xlink:href="#m3427309164" y="118.422903"/>
      </g>
     </g>
     <g id="text_13">
      <!-- $\mathdefault{10^{-3}}$ -->
      <g transform="translate(20.878125 122.222122)scale(0.1 -0.1)">
       <defs>
        <path d="M 40.578125 39.3125 
Q 47.65625 37.796875 51.625 33 
Q 55.609375 28.21875 55.609375 21.1875 
Q 55.609375 10.40625 48.1875 4.484375 
Q 40.765625 -1.421875 27.09375 -1.421875 
Q 22.515625 -1.421875 17.65625 -0.515625 
Q 12.796875 0.390625 7.625 2.203125 
L 7.625 11.71875 
Q 11.71875 9.328125 16.59375 8.109375 
Q 21.484375 6.890625 26.8125 6.890625 
Q 36.078125 6.890625 40.9375 10.546875 
Q 45.796875 14.203125 45.796875 21.1875 
Q 45.796875 27.640625 41.28125 31.265625 
Q 36.765625 34.90625 28.71875 34.90625 
L 20.21875 34.90625 
L 20.21875 43.015625 
L 29.109375 43.015625 
Q 36.375 43.015625 40.234375 45.921875 
Q 44.09375 48.828125 44.09375 54.296875 
Q 44.09375 59.90625 40.109375 62.90625 
Q 36.140625 65.921875 28.71875 65.921875 
Q 24.65625 65.921875 20.015625 65.03125 
Q 15.375 64.15625 9.8125 62.3125 
L 9.8125 71.09375 
Q 15.4375 72.65625 20.34375 73.4375 
Q 25.25 74.21875 29.59375 74.21875 
Q 40.828125 74.21875 47.359375 69.109375 
Q 53.90625 64.015625 53.90625 55.328125 
Q 53.90625 49.265625 50.4375 45.09375 
Q 46.96875 40.921875 40.578125 39.3125 
z
" id="DejaVuSans-51"/>
       </defs>
       <use transform="translate(0 0.765625)" xlink:href="#DejaVuSans-49"/>
       <use transform="translate(63.623047 0.765625)" xlink:href="#DejaVuSans-48"/>
       <use transform="translate(128.203125 39.046875)scale(0.7)" xlink:href="#DejaVuSans-8722"/>
       <use transform="translate(186.855469 39.046875)scale(0.7)" xlink:href="#DejaVuSans-51"/>
      </g>
     </g>
    </g>
    <g id="ytick_4">
     <g id="line2d_13">
      <g>
       <use style="stroke:#000000;stroke-width:0.8;" x="51.378125" xlink:href="#m3427309164" y="78.85135"/>
      </g>
     </g>
     <g id="text_14">
      <!-- $\mathdefault{10^{-2}}$ -->
      <g transform="translate(20.878125 82.650569)scale(0.1 -0.1)">
       <use transform="translate(0 0.765625)" xlink:href="#DejaVuSans-49"/>
       <use transform="translate(63.623047 0.765625)" xlink:href="#DejaVuSans-48"/>
       <use transform="translate(128.203125 39.046875)scale(0.7)" xlink:href="#DejaVuSans-8722"/>
       <use transform="translate(186.855469 39.046875)scale(0.7)" xlink:href="#DejaVuSans-50"/>
      </g>
     </g>
    </g>
    <g id="ytick_5">
     <g id="line2d_14">
      <g>
       <use style="stroke:#000000;stroke-width:0.8;" x="51.378125" xlink:href="#m3427309164" y="39.279797"/>
      </g>
     </g>
     <g id="text_15">
      <!-- $\mathdefault{10^{-1}}$ -->
      <g transform="translate(20.878125 43.079016)scale(0.1 -0.1)">
       <use transform="translate(0 0.684375)" xlink:href="#DejaVuSans-49"/>
       <use transform="translate(63.623047 0.684375)" xlink:href="#DejaVuSans-48"/>
       <use transform="translate(128.203125 38.965625)scale(0.7)" xlink:href="#DejaVuSans-8722"/>
       <use transform="translate(186.855469 38.965625)scale(0.7)" xlink:href="#DejaVuSans-49"/>
      </g>
     </g>
    </g>
    <g id="ytick_6">
     <g id="line2d_15">
      <defs>
       <path d="M 0 0 
L -2 0 
" id="mc6cdc3d7ab" style="stroke:#000000;stroke-width:0.6;"/>
      </defs>
      <g>
       <use style="stroke:#000000;stroke-width:0.6;" x="51.378125" xlink:href="#mc6cdc3d7ab" y="218.257132"/>
      </g>
     </g>
    </g>
    <g id="ytick_7">
     <g id="line2d_16">
      <g>
       <use style="stroke:#000000;stroke-width:0.6;" x="51.378125" xlink:href="#mc6cdc3d7ab" y="213.313113"/>
      </g>
     </g>
    </g>
    <g id="ytick_8">
     <g id="line2d_17">
      <g>
       <use style="stroke:#000000;stroke-width:0.6;" x="51.378125" xlink:href="#mc6cdc3d7ab" y="209.478233"/>
      </g>
     </g>
    </g>
    <g id="ytick_9">
     <g id="line2d_18">
      <g>
       <use style="stroke:#000000;stroke-width:0.6;" x="51.378125" xlink:href="#mc6cdc3d7ab" y="206.344908"/>
      </g>
     </g>
    </g>
    <g id="ytick_10">
     <g id="line2d_19">
      <g>
       <use style="stroke:#000000;stroke-width:0.6;" x="51.378125" xlink:href="#mc6cdc3d7ab" y="203.69572"/>
      </g>
     </g>
    </g>
    <g id="ytick_11">
     <g id="line2d_20">
      <g>
       <use style="stroke:#000000;stroke-width:0.6;" x="51.378125" xlink:href="#mc6cdc3d7ab" y="201.400888"/>
      </g>
     </g>
    </g>
    <g id="ytick_12">
     <g id="line2d_21">
      <g>
       <use style="stroke:#000000;stroke-width:0.6;" x="51.378125" xlink:href="#mc6cdc3d7ab" y="199.376703"/>
      </g>
     </g>
    </g>
    <g id="ytick_13">
     <g id="line2d_22">
      <g>
       <use style="stroke:#000000;stroke-width:0.6;" x="51.378125" xlink:href="#mc6cdc3d7ab" y="185.653784"/>
      </g>
     </g>
    </g>
    <g id="ytick_14">
     <g id="line2d_23">
      <g>
       <use style="stroke:#000000;stroke-width:0.6;" x="51.378125" xlink:href="#mc6cdc3d7ab" y="178.68558"/>
      </g>
     </g>
    </g>
    <g id="ytick_15">
     <g id="line2d_24">
      <g>
       <use style="stroke:#000000;stroke-width:0.6;" x="51.378125" xlink:href="#mc6cdc3d7ab" y="173.74156"/>
      </g>
     </g>
    </g>
    <g id="ytick_16">
     <g id="line2d_25">
      <g>
       <use style="stroke:#000000;stroke-width:0.6;" x="51.378125" xlink:href="#mc6cdc3d7ab" y="169.90668"/>
      </g>
     </g>
    </g>
    <g id="ytick_17">
     <g id="line2d_26">
      <g>
       <use style="stroke:#000000;stroke-width:0.6;" x="51.378125" xlink:href="#mc6cdc3d7ab" y="166.773355"/>
      </g>
     </g>
    </g>
    <g id="ytick_18">
     <g id="line2d_27">
      <g>
       <use style="stroke:#000000;stroke-width:0.6;" x="51.378125" xlink:href="#mc6cdc3d7ab" y="164.124167"/>
      </g>
     </g>
    </g>
    <g id="ytick_19">
     <g id="line2d_28">
      <g>
       <use style="stroke:#000000;stroke-width:0.6;" x="51.378125" xlink:href="#mc6cdc3d7ab" y="161.829335"/>
      </g>
     </g>
    </g>
    <g id="ytick_20">
     <g id="line2d_29">
      <g>
       <use style="stroke:#000000;stroke-width:0.6;" x="51.378125" xlink:href="#mc6cdc3d7ab" y="159.805151"/>
      </g>
     </g>
    </g>
    <g id="ytick_21">
     <g id="line2d_30">
      <g>
       <use style="stroke:#000000;stroke-width:0.6;" x="51.378125" xlink:href="#mc6cdc3d7ab" y="146.082231"/>
      </g>
     </g>
    </g>
    <g id="ytick_22">
     <g id="line2d_31">
      <g>
       <use style="stroke:#000000;stroke-width:0.6;" x="51.378125" xlink:href="#mc6cdc3d7ab" y="139.114027"/>
      </g>
     </g>
    </g>
    <g id="ytick_23">
     <g id="line2d_32">
      <g>
       <use style="stroke:#000000;stroke-width:0.6;" x="51.378125" xlink:href="#mc6cdc3d7ab" y="134.170007"/>
      </g>
     </g>
    </g>
    <g id="ytick_24">
     <g id="line2d_33">
      <g>
       <use style="stroke:#000000;stroke-width:0.6;" x="51.378125" xlink:href="#mc6cdc3d7ab" y="130.335127"/>
      </g>
     </g>
    </g>
    <g id="ytick_25">
     <g id="line2d_34">
      <g>
       <use style="stroke:#000000;stroke-width:0.6;" x="51.378125" xlink:href="#mc6cdc3d7ab" y="127.201802"/>
      </g>
     </g>
    </g>
    <g id="ytick_26">
     <g id="line2d_35">
      <g>
       <use style="stroke:#000000;stroke-width:0.6;" x="51.378125" xlink:href="#mc6cdc3d7ab" y="124.552614"/>
      </g>
     </g>
    </g>
    <g id="ytick_27">
     <g id="line2d_36">
      <g>
       <use style="stroke:#000000;stroke-width:0.6;" x="51.378125" xlink:href="#mc6cdc3d7ab" y="122.257783"/>
      </g>
     </g>
    </g>
    <g id="ytick_28">
     <g id="line2d_37">
      <g>
       <use style="stroke:#000000;stroke-width:0.6;" x="51.378125" xlink:href="#mc6cdc3d7ab" y="120.233598"/>
      </g>
     </g>
    </g>
    <g id="ytick_29">
     <g id="line2d_38">
      <g>
       <use style="stroke:#000000;stroke-width:0.6;" x="51.378125" xlink:href="#mc6cdc3d7ab" y="106.510679"/>
      </g>
     </g>
    </g>
    <g id="ytick_30">
     <g id="line2d_39">
      <g>
       <use style="stroke:#000000;stroke-width:0.6;" x="51.378125" xlink:href="#mc6cdc3d7ab" y="99.542474"/>
      </g>
     </g>
    </g>
    <g id="ytick_31">
     <g id="line2d_40">
      <g>
       <use style="stroke:#000000;stroke-width:0.6;" x="51.378125" xlink:href="#mc6cdc3d7ab" y="94.598454"/>
      </g>
     </g>
    </g>
    <g id="ytick_32">
     <g id="line2d_41">
      <g>
       <use style="stroke:#000000;stroke-width:0.6;" x="51.378125" xlink:href="#mc6cdc3d7ab" y="90.763574"/>
      </g>
     </g>
    </g>
    <g id="ytick_33">
     <g id="line2d_42">
      <g>
       <use style="stroke:#000000;stroke-width:0.6;" x="51.378125" xlink:href="#mc6cdc3d7ab" y="87.63025"/>
      </g>
     </g>
    </g>
    <g id="ytick_34">
     <g id="line2d_43">
      <g>
       <use style="stroke:#000000;stroke-width:0.6;" x="51.378125" xlink:href="#mc6cdc3d7ab" y="84.981061"/>
      </g>
     </g>
    </g>
    <g id="ytick_35">
     <g id="line2d_44">
      <g>
       <use style="stroke:#000000;stroke-width:0.6;" x="51.378125" xlink:href="#mc6cdc3d7ab" y="82.68623"/>
      </g>
     </g>
    </g>
    <g id="ytick_36">
     <g id="line2d_45">
      <g>
       <use style="stroke:#000000;stroke-width:0.6;" x="51.378125" xlink:href="#mc6cdc3d7ab" y="80.662045"/>
      </g>
     </g>
    </g>
    <g id="ytick_37">
     <g id="line2d_46">
      <g>
       <use style="stroke:#000000;stroke-width:0.6;" x="51.378125" xlink:href="#mc6cdc3d7ab" y="66.939126"/>
      </g>
     </g>
    </g>
    <g id="ytick_38">
     <g id="line2d_47">
      <g>
       <use style="stroke:#000000;stroke-width:0.6;" x="51.378125" xlink:href="#mc6cdc3d7ab" y="59.970921"/>
      </g>
     </g>
    </g>
    <g id="ytick_39">
     <g id="line2d_48">
      <g>
       <use style="stroke:#000000;stroke-width:0.6;" x="51.378125" xlink:href="#mc6cdc3d7ab" y="55.026901"/>
      </g>
     </g>
    </g>
    <g id="ytick_40">
     <g id="line2d_49">
      <g>
       <use style="stroke:#000000;stroke-width:0.6;" x="51.378125" xlink:href="#mc6cdc3d7ab" y="51.192022"/>
      </g>
     </g>
    </g>
    <g id="ytick_41">
     <g id="line2d_50">
      <g>
       <use style="stroke:#000000;stroke-width:0.6;" x="51.378125" xlink:href="#mc6cdc3d7ab" y="48.058697"/>
      </g>
     </g>
    </g>
    <g id="ytick_42">
     <g id="line2d_51">
      <g>
       <use style="stroke:#000000;stroke-width:0.6;" x="51.378125" xlink:href="#mc6cdc3d7ab" y="45.409508"/>
      </g>
     </g>
    </g>
    <g id="ytick_43">
     <g id="line2d_52">
      <g>
       <use style="stroke:#000000;stroke-width:0.6;" x="51.378125" xlink:href="#mc6cdc3d7ab" y="43.114677"/>
      </g>
     </g>
    </g>
    <g id="ytick_44">
     <g id="line2d_53">
      <g>
       <use style="stroke:#000000;stroke-width:0.6;" x="51.378125" xlink:href="#mc6cdc3d7ab" y="41.090492"/>
      </g>
     </g>
    </g>
    <g id="ytick_45">
     <g id="line2d_54">
      <g>
       <use style="stroke:#000000;stroke-width:0.6;" x="51.378125" xlink:href="#mc6cdc3d7ab" y="27.367573"/>
      </g>
     </g>
    </g>
    <g id="ytick_46">
     <g id="line2d_55">
      <g>
       <use style="stroke:#000000;stroke-width:0.6;" x="51.378125" xlink:href="#mc6cdc3d7ab" y="20.399368"/>
      </g>
     </g>
    </g>
    <g id="ytick_47">
     <g id="line2d_56">
      <g>
       <use style="stroke:#000000;stroke-width:0.6;" x="51.378125" xlink:href="#mc6cdc3d7ab" y="15.455349"/>
      </g>
     </g>
    </g>
    <g id="ytick_48">
     <g id="line2d_57">
      <g>
       <use style="stroke:#000000;stroke-width:0.6;" x="51.378125" xlink:href="#mc6cdc3d7ab" y="11.620469"/>
      </g>
     </g>
    </g>
    <g id="ytick_49">
     <g id="line2d_58">
      <g>
       <use style="stroke:#000000;stroke-width:0.6;" x="51.378125" xlink:href="#mc6cdc3d7ab" y="8.487144"/>
      </g>
     </g>
    </g>
    <g id="text_16">
     <!-- MSE loss -->
     <g transform="translate(14.798438 137.814531)rotate(-90)scale(0.1 -0.1)">
      <defs>
       <path d="M 9.8125 72.90625 
L 24.515625 72.90625 
L 43.109375 23.296875 
L 61.8125 72.90625 
L 76.515625 72.90625 
L 76.515625 0 
L 66.890625 0 
L 66.890625 64.015625 
L 48.09375 14.015625 
L 38.1875 14.015625 
L 19.390625 64.015625 
L 19.390625 0 
L 9.8125 0 
z
" id="DejaVuSans-77"/>
       <path d="M 53.515625 70.515625 
L 53.515625 60.890625 
Q 47.90625 63.578125 42.921875 64.890625 
Q 37.9375 66.21875 33.296875 66.21875 
Q 25.25 66.21875 20.875 63.09375 
Q 16.5 59.96875 16.5 54.203125 
Q 16.5 49.359375 19.40625 46.890625 
Q 22.3125 44.4375 30.421875 42.921875 
L 36.375 41.703125 
Q 47.40625 39.59375 52.65625 34.296875 
Q 57.90625 29 57.90625 20.125 
Q 57.90625 9.515625 50.796875 4.046875 
Q 43.703125 -1.421875 29.984375 -1.421875 
Q 24.8125 -1.421875 18.96875 -0.25 
Q 13.140625 0.921875 6.890625 3.21875 
L 6.890625 13.375 
Q 12.890625 10.015625 18.65625 8.296875 
Q 24.421875 6.59375 29.984375 6.59375 
Q 38.421875 6.59375 43.015625 9.90625 
Q 47.609375 13.234375 47.609375 19.390625 
Q 47.609375 24.75 44.3125 27.78125 
Q 41.015625 30.8125 33.5 32.328125 
L 27.484375 33.5 
Q 16.453125 35.6875 11.515625 40.375 
Q 6.59375 45.0625 6.59375 53.421875 
Q 6.59375 63.09375 13.40625 68.65625 
Q 20.21875 74.21875 32.171875 74.21875 
Q 37.3125 74.21875 42.625 73.28125 
Q 47.953125 72.359375 53.515625 70.515625 
z
" id="DejaVuSans-83"/>
       <path d="M 9.8125 72.90625 
L 55.90625 72.90625 
L 55.90625 64.59375 
L 19.671875 64.59375 
L 19.671875 43.015625 
L 54.390625 43.015625 
L 54.390625 34.71875 
L 19.671875 34.71875 
L 19.671875 8.296875 
L 56.78125 8.296875 
L 56.78125 0 
L 9.8125 0 
z
" id="DejaVuSans-69"/>
       <path id="DejaVuSans-32"/>
       <path d="M 9.421875 75.984375 
L 18.40625 75.984375 
L 18.40625 0 
L 9.421875 0 
z
" id="DejaVuSans-108"/>
       <path d="M 44.28125 53.078125 
L 44.28125 44.578125 
Q 40.484375 46.53125 36.375 47.5 
Q 32.28125 48.484375 27.875 48.484375 
Q 21.1875 48.484375 17.84375 46.4375 
Q 14.5 44.390625 14.5 40.28125 
Q 14.5 37.15625 16.890625 35.375 
Q 19.28125 33.59375 26.515625 31.984375 
L 29.59375 31.296875 
Q 39.15625 29.25 43.1875 25.515625 
Q 47.21875 21.78125 47.21875 15.09375 
Q 47.21875 7.46875 41.1875 3.015625 
Q 35.15625 -1.421875 24.609375 -1.421875 
Q 20.21875 -1.421875 15.453125 -0.5625 
Q 10.6875 0.296875 5.421875 2 
L 5.421875 11.28125 
Q 10.40625 8.6875 15.234375 7.390625 
Q 20.0625 6.109375 24.8125 6.109375 
Q 31.15625 6.109375 34.5625 8.28125 
Q 37.984375 10.453125 37.984375 14.40625 
Q 37.984375 18.0625 35.515625 20.015625 
Q 33.0625 21.96875 24.703125 23.78125 
L 21.578125 24.515625 
Q 13.234375 26.265625 9.515625 29.90625 
Q 5.8125 33.546875 5.8125 39.890625 
Q 5.8125 47.609375 11.28125 51.796875 
Q 16.75 56 26.8125 56 
Q 31.78125 56 36.171875 55.265625 
Q 40.578125 54.546875 44.28125 53.078125 
z
" id="DejaVuSans-115"/>
      </defs>
      <use xlink:href="#DejaVuSans-77"/>
      <use x="86.279297" xlink:href="#DejaVuSans-83"/>
      <use x="149.755859" xlink:href="#DejaVuSans-69"/>
      <use x="212.939453" xlink:href="#DejaVuSans-32"/>
      <use x="244.726562" xlink:href="#DejaVuSans-108"/>
      <use x="272.509766" xlink:href="#DejaVuSans-111"/>
      <use x="333.691406" xlink:href="#DejaVuSans-115"/>
      <use x="385.791016" xlink:href="#DejaVuSans-115"/>
     </g>
    </g>
   </g>
   <g id="line2d_59">
    <path clip-path="url(#pd5c82d91c6)" d="M 66.596307 17.083636 
L 67.357597 31.039614 
L 67.966628 44.189628 
L 68.271144 38.685947 
L 68.423402 38.801541 
L 69.184692 48.587432 
L 69.489208 48.721054 
L 69.641466 49.229852 
L 69.945982 52.275828 
L 70.250498 56.4559 
L 70.402755 56.059513 
L 70.555013 56.352233 
L 71.164045 64.869305 
L 71.316303 65.939661 
L 71.620819 72.046653 
L 71.773077 74.984887 
L 71.925335 74.433822 
L 72.077593 74.682893 
L 72.229851 77.655197 
L 72.382109 77.86625 
L 72.686625 74.875613 
L 72.838883 75.183606 
L 72.991141 75.885188 
L 73.295656 75.098688 
L 73.600172 77.903389 
L 73.904688 78.403462 
L 74.209204 80.380751 
L 74.361462 80.282844 
L 74.51372 79.969132 
L 74.818236 80.679919 
L 75.122752 80.122078 
L 75.427268 80.699124 
L 75.579526 80.571787 
L 75.731784 80.605657 
L 76.0363 81.274649 
L 76.188557 81.266076 
L 76.645331 81.870824 
L 76.797589 81.840343 
L 77.102105 82.149306 
L 77.406621 82.123205 
L 77.711137 82.2811 
L 77.863395 82.302805 
L 78.167911 82.56916 
L 78.472427 82.710541 
L 79.081458 83.093224 
L 79.842748 83.371277 
L 80.45178 83.65565 
L 83.040165 84.666102 
L 83.801455 85.149539 
L 84.562745 85.888368 
L 86.237582 88.043251 
L 87.303388 89.558228 
L 88.216935 91.256432 
L 89.282741 93.659311 
L 90.196289 96.260819 
L 91.109836 99.588844 
L 91.871126 103.198226 
L 92.632416 107.688139 
L 93.241448 112.451723 
L 93.850479 117.341052 
L 94.002737 118.084477 
L 94.154995 118.116154 
L 94.611769 113.721868 
L 95.068543 128.596909 
L 95.373059 120.245663 
L 95.525317 122.379326 
L 95.829833 134.657289 
L 95.982091 132.449017 
L 96.134349 127.385078 
L 96.286607 126.874654 
L 96.438864 130.228422 
L 96.74338 140.091354 
L 97.047896 132.914095 
L 97.200154 132.457862 
L 97.656928 144.783687 
L 98.113702 138.510221 
L 98.26596 140.569943 
L 98.570476 148.944534 
L 98.722734 149.166886 
L 99.02725 144.826674 
L 99.179508 144.959824 
L 99.331765 146.76732 
L 99.636281 153.360022 
L 99.788539 154.584142 
L 99.940797 153.732709 
L 100.245313 151.21998 
L 100.397571 151.161261 
L 100.702087 154.274291 
L 101.158861 159.922559 
L 101.311119 160.424619 
L 101.463377 160.249615 
L 101.767893 158.712804 
L 102.072409 156.005556 
L 102.376924 151.45486 
L 102.833698 141.319291 
L 103.138214 136.187909 
L 103.290472 135.566661 
L 103.594988 147.224299 
L 103.899504 167.570455 
L 104.356278 147.76242 
L 104.508536 148.793319 
L 104.660794 153.387758 
L 104.96531 169.525834 
L 105.117567 167.464585 
L 105.422083 156.39643 
L 105.574341 155.728513 
L 105.726599 157.683165 
L 106.183373 172.297053 
L 106.335631 171.122274 
L 106.792405 162.203436 
L 106.944663 162.215682 
L 107.096921 163.307784 
L 107.85821 175.337144 
L 108.010468 175.06589 
L 108.314984 172.477955 
L 109.533048 158.668509 
L 110.14208 149.158235 
L 110.294338 147.076477 
L 110.598854 147.520843 
L 110.903369 155.375733 
L 111.360143 179.394356 
L 111.512401 178.249579 
L 111.969175 162.611584 
L 112.121433 161.420248 
L 112.273691 161.518282 
L 112.578207 167.241009 
L 113.034981 180.643639 
L 113.187239 182.210032 
L 113.339497 181.370675 
L 115.31885 152.955998 
L 115.471108 151.329655 
L 115.775624 151.721537 
L 116.08014 157.369108 
L 116.841429 184.628866 
L 117.602719 165.639577 
L 117.754977 164.084999 
L 118.059493 163.461821 
L 118.516267 166.069162 
L 118.820783 168.911385 
L 119.886588 178.326485 
L 120.038846 178.902475 
L 120.191104 178.962117 
L 120.343362 178.793075 
L 120.647878 176.834353 
L 120.952394 172.307722 
L 121.409168 159.208247 
L 122.322715 131.269131 
L 122.474973 134.617173 
L 122.627231 140.641439 
L 122.931747 183.189977 
L 123.084005 173.439839 
L 123.388521 147.286499 
L 123.540779 149.352141 
L 123.693037 158.180013 
L 123.997553 185.222391 
L 124.302069 158.486219 
L 124.454327 156.83191 
L 124.606585 163.318384 
L 124.911101 189.265014 
L 125.367874 165.432745 
L 125.520132 166.057707 
L 125.824648 182.493706 
L 125.976906 190.027287 
L 126.129164 185.662401 
L 126.43368 174.015999 
L 126.585938 173.60069 
L 126.890454 183.141032 
L 127.042712 189.299137 
L 127.19497 190.767703 
L 127.651744 180.608953 
L 127.804002 180.575248 
L 127.95626 182.326483 
L 128.413033 191.444315 
L 128.565291 191.698443 
L 129.326581 185.298237 
L 129.478839 185.64637 
L 129.783355 187.393143 
L 130.544645 192.135441 
L 130.849161 192.994654 
L 131.305934 193.567396 
L 131.914966 193.839867 
L 132.219482 193.831104 
L 132.523998 193.548155 
L 132.676256 193.165904 
L 132.828514 192.452775 
L 133.13303 189.04145 
L 133.437546 180.420784 
L 133.894319 155.338177 
L 134.503351 119.051338 
L 134.655609 113.882056 
L 134.807867 119.964037 
L 134.960125 133.858973 
L 135.112383 178.749011 
L 135.416899 129.469675 
L 135.569157 133.253321 
L 135.873673 172.618766 
L 136.025931 142.609969 
L 136.178189 137.625866 
L 136.482705 182.563336 
L 136.634963 150.291014 
L 136.78722 145.803293 
L 136.939478 159.1191 
L 137.091736 190.356108 
L 137.396252 150.501971 
L 137.54851 161.162091 
L 137.700768 189.453499 
L 138.005284 158.409954 
L 138.157542 162.695407 
L 138.3098 184.772053 
L 138.462058 181.324745 
L 138.614316 165.355747 
L 138.766574 166.79675 
L 139.07109 189.854642 
L 139.223348 173.948784 
L 139.375606 170.635656 
L 139.680121 193.180947 
L 139.984637 175.78109 
L 140.136895 181.382408 
L 140.289153 192.847206 
L 140.593669 180.618496 
L 140.745927 182.42404 
L 141.050443 193.498937 
L 141.354959 184.392519 
L 141.659475 194.789983 
L 141.811733 192.722466 
L 141.963991 188.416296 
L 142.116249 188.482541 
L 142.420765 195.587122 
L 142.72528 190.783442 
L 142.877538 191.395835 
L 143.182054 196.05699 
L 143.48657 192.960154 
L 143.638828 193.333643 
L 143.943344 196.504482 
L 144.400118 194.646391 
L 144.704634 196.783119 
L 144.856892 196.74486 
L 145.161408 195.71236 
L 145.618181 197.305567 
L 146.074955 196.688311 
L 146.531729 197.686315 
L 146.988503 197.378935 
L 147.597535 198.050788 
L 147.902051 197.940927 
L 148.206566 198.157462 
L 148.511082 198.421295 
L 149.42463 198.690586 
L 149.881404 198.874585 
L 150.490436 199.035887 
L 151.403983 199.369584 
L 153.078821 199.899765 
L 155.667206 200.536633 
L 156.12398 200.475277 
L 156.428496 200.204352 
L 156.733012 199.403305 
L 157.037527 197.262805 
L 157.342043 192.141259 
L 157.646559 182.117705 
L 158.255591 149.458672 
L 158.712365 124.356898 
L 159.016881 119.28452 
L 159.169139 126.807872 
L 159.321397 142.357422 
L 159.473655 183.629615 
L 159.77817 137.041639 
L 159.930428 136.457014 
L 160.082686 147.422987 
L 160.234944 182.032044 
L 160.53946 145.704488 
L 160.691718 145.888774 
L 160.843976 159.313383 
L 160.996234 194.476801 
L 161.30075 152.877118 
L 161.453008 154.059369 
L 161.605266 167.673566 
L 161.757524 196.074449 
L 162.06204 160.956813 
L 162.214298 161.708485 
L 162.366556 174.040735 
L 162.518814 197.353802 
L 162.823329 169.290448 
L 162.975587 169.751406 
L 163.280103 198.889267 
L 163.584619 176.181928 
L 163.736877 176.937249 
L 164.041393 199.186723 
L 164.345909 182.227818 
L 164.498167 182.754863 
L 164.802683 199.935015 
L 165.259457 187.347508 
L 165.71623 199.92929 
L 166.020746 191.669221 
L 166.173004 193.071573 
L 166.47752 201.316832 
L 166.629778 199.905761 
L 166.934294 195.431163 
L 167.086552 197.091283 
L 167.391068 201.931425 
L 167.543326 200.932264 
L 167.847842 198.304419 
L 168.0001 199.243136 
L 168.304616 202.276227 
L 168.456873 202.028934 
L 168.761389 200.310973 
L 168.913647 200.542726 
L 169.370421 202.779562 
L 169.827195 201.677738 
L 169.979453 201.833708 
L 170.436227 203.124791 
L 170.588485 203.10859 
L 171.045259 202.665314 
L 171.349774 203.06187 
L 171.65429 203.490666 
L 171.958806 203.493983 
L 172.263322 203.379386 
L 172.567838 203.484573 
L 173.17687 203.916039 
L 173.785902 203.960175 
L 174.394933 204.092849 
L 175.765255 204.53443 
L 177.287834 204.748315 
L 177.744608 204.647523 
L 178.049124 204.362475 
L 178.35364 203.602163 
L 178.658156 201.699677 
L 178.962672 197.332531 
L 179.267188 188.830708 
L 179.723962 167.965687 
L 180.485251 126.947636 
L 180.789767 120.708608 
L 180.942025 126.028317 
L 181.094283 136.869866 
L 181.246541 166.561143 
L 181.398799 172.865126 
L 181.551057 144.360275 
L 181.703315 137.699324 
L 181.855573 141.476744 
L 182.160089 189.362693 
L 182.464605 147.058628 
L 182.616863 149.225572 
L 182.76912 167.389414 
L 182.921378 199.215003 
L 183.225894 156.030933 
L 183.378152 155.459271 
L 183.53041 168.133118 
L 183.682668 195.342656 
L 184.139442 163.102134 
L 184.2917 171.20257 
L 184.443958 191.358042 
L 184.596216 196.732332 
L 184.900732 171.600042 
L 185.05299 176.532915 
L 185.357506 200.878392 
L 185.662021 179.199248 
L 185.814279 181.555438 
L 186.118795 202.511237 
L 186.423311 186.813995 
L 186.575569 186.089848 
L 187.032343 202.325585 
L 187.336859 191.344056 
L 187.489117 192.411532 
L 187.793633 203.440319 
L 187.945891 202.816596 
L 188.250407 195.988474 
L 188.402665 197.105195 
L 188.70718 204.18386 
L 188.859438 204.150459 
L 189.163954 199.806969 
L 189.316212 200.010768 
L 189.772986 205.066068 
L 190.22976 202.214455 
L 190.382018 202.82482 
L 190.686534 205.222225 
L 190.838792 205.47594 
L 191.295566 203.951966 
L 191.447823 204.182033 
L 191.904597 205.815845 
L 192.056855 205.784017 
L 192.513629 205.135337 
L 192.665887 205.273855 
L 193.122661 206.11925 
L 193.274919 206.196965 
L 194.036209 206.015504 
L 194.797498 206.577349 
L 196.16782 206.783392 
L 197.233625 207.122909 
L 198.756205 207.296542 
L 199.212979 207.224206 
L 199.517495 207.035339 
L 199.822011 206.565569 
L 200.126526 205.454002 
L 200.431042 202.921585 
L 200.735558 197.638039 
L 201.040074 188.329401 
L 201.649106 159.181879 
L 202.258138 129.329336 
L 202.410396 123.646355 
L 202.562654 123.743045 
L 202.714912 125.510628 
L 202.86717 137.374399 
L 203.171685 182.313784 
L 203.476201 138.61435 
L 203.628459 141.850697 
L 203.780717 156.19513 
L 203.932975 192.448527 
L 204.237491 150.368879 
L 204.389749 149.039334 
L 204.542007 157.654766 
L 204.694265 183.895679 
L 204.846523 190.362864 
L 205.151039 157.186976 
L 205.303297 159.239802 
L 205.455555 173.467873 
L 205.607813 199.984775 
L 206.064586 166.158651 
L 206.216844 173.337963 
L 206.52136 201.663785 
L 206.825876 175.2169 
L 206.978134 177.528585 
L 207.28265 203.378954 
L 207.739424 182.824128 
L 207.891682 188.598761 
L 208.196198 204.277375 
L 208.500714 189.577552 
L 208.652972 189.895437 
L 209.109745 204.872998 
L 209.414261 195.061438 
L 209.566519 195.412856 
L 210.023293 206.321169 
L 210.480067 199.530579 
L 210.784583 204.702213 
L 210.936841 206.823014 
L 211.089099 206.240796 
L 211.393615 202.942977 
L 211.545873 203.115507 
L 212.002646 207.334668 
L 212.154904 206.990257 
L 212.45942 205.231723 
L 212.611678 205.179775 
L 213.22071 207.694714 
L 213.829742 206.692932 
L 214.438774 208.039073 
L 214.591031 208.017525 
L 215.047805 207.628889 
L 215.352321 207.816789 
L 215.809095 208.345239 
L 216.113611 208.421409 
L 216.874901 208.368446 
L 218.39748 208.886292 
L 220.376833 208.946993 
L 220.833607 208.756487 
L 221.138123 208.418984 
L 221.442639 207.691538 
L 221.747155 206.150278 
L 222.051671 202.99741 
L 222.356187 197.088212 
L 222.812961 181.67452 
L 224.031024 128.406304 
L 224.183282 125.163112 
L 224.33554 128.421975 
L 224.487798 134.71389 
L 224.640056 152.823103 
L 224.792314 190.078332 
L 225.09683 146.8909 
L 225.249088 141.530271 
L 225.401346 148.236249 
L 225.553604 166.50939 
L 225.705862 199.727867 
L 226.010377 153.923141 
L 226.162635 152.325534 
L 226.314893 158.737391 
L 226.619409 203.299922 
L 226.923925 164.251292 
L 227.076183 160.973867 
L 227.228441 167.273104 
L 227.532957 204.750438 
L 227.837473 174.707774 
L 227.989731 171.956985 
L 228.141989 177.088364 
L 228.446505 205.390628 
L 228.751021 182.541551 
L 228.903278 180.538921 
L 229.055536 186.533238 
L 229.360052 206.139819 
L 229.664568 189.425181 
L 229.816826 188.122538 
L 229.969084 192.257996 
L 230.2736 207.16513 
L 230.730374 194.346585 
L 230.882632 195.814259 
L 231.339406 207.71442 
L 231.796179 199.904736 
L 231.948437 201.306811 
L 232.252953 207.485503 
L 232.405211 208.306465 
L 232.861985 203.853423 
L 233.014243 204.339189 
L 233.471017 208.714557 
L 233.623275 208.603918 
L 234.080049 206.438895 
L 234.232307 206.670487 
L 234.841338 209.186141 
L 234.993596 209.02847 
L 235.45037 208.16913 
L 235.602628 208.245073 
L 236.363918 209.565577 
L 236.668434 209.4431 
L 237.125208 209.227574 
L 237.429724 209.352735 
L 238.343271 209.948295 
L 239.104561 209.967447 
L 240.779398 209.830992 
L 241.236172 209.524361 
L 241.540688 209.042275 
L 241.845204 208.076891 
L 242.14972 206.170924 
L 242.454236 202.558436 
L 242.758752 196.293493 
L 243.215526 180.795864 
L 244.585847 128.957566 
L 244.738105 129.119842 
L 244.890363 136.785387 
L 245.042621 150.667819 
L 245.194879 182.516248 
L 245.347137 176.023779 
L 245.651653 145.621866 
L 245.803911 146.4919 
L 245.956169 158.623749 
L 246.108427 185.830867 
L 246.260684 191.373505 
L 246.5652 155.26925 
L 246.717458 155.534929 
L 246.869716 162.352596 
L 247.174232 205.168425 
L 247.478748 170.43197 
L 247.631006 165.030153 
L 247.783264 168.009488 
L 247.935522 177.858755 
L 248.240038 203.60673 
L 248.544554 177.608618 
L 248.696812 176.586344 
L 248.84907 183.30885 
L 249.153585 206.925739 
L 249.458101 187.47064 
L 249.610359 185.023723 
L 249.762617 188.255069 
L 250.067133 206.858864 
L 250.219391 205.920382 
L 250.523907 193.063448 
L 250.676165 192.700852 
L 250.828423 196.152309 
L 251.132939 208.071017 
L 251.285197 207.641454 
L 251.589713 199.771661 
L 251.741971 199.008938 
L 251.894229 200.782456 
L 252.351002 209.289678 
L 252.807776 203.940195 
L 252.960034 203.971311 
L 253.569066 209.757221 
L 253.721324 209.192009 
L 254.02584 207.238088 
L 254.178098 206.958485 
L 254.330356 207.295801 
L 254.939387 210.162116 
L 255.091645 210.092954 
L 255.548419 209.096695 
L 255.700677 209.02642 
L 256.005193 209.461953 
L 256.461967 210.425325 
L 256.766483 210.588289 
L 257.832288 210.240041 
L 259.9639 211.049202 
L 262.095511 211.209938 
L 262.704543 211.097947 
L 263.009059 210.840412 
L 263.313575 210.15177 
L 263.61809 208.379011 
L 263.922606 204.162503 
L 264.227122 195.696004 
L 264.683896 174.540537 
L 265.597444 125.195438 
L 265.749702 119.34954 
L 265.90196 120.716356 
L 266.054218 124.440095 
L 266.206476 141.666569 
L 266.358733 181.390585 
L 266.663249 137.435262 
L 266.815507 135.049994 
L 266.967765 149.838227 
L 267.120023 187.366112 
L 267.424539 145.253706 
L 267.576797 144.193333 
L 267.729055 159.604538 
L 267.881313 198.23768 
L 268.185829 153.704696 
L 268.338087 151.041007 
L 268.490345 162.11065 
L 268.642603 189.842791 
L 268.794861 187.513622 
L 269.099377 159.703392 
L 269.251634 166.895189 
L 269.55615 198.968337 
L 269.860666 168.924319 
L 270.012924 174.680779 
L 270.31744 201.201561 
L 270.621956 176.724659 
L 270.774214 182.391404 
L 271.07873 202.995049 
L 271.383246 183.685406 
L 271.535504 188.389646 
L 271.84002 205.961367 
L 272.144535 190.078009 
L 272.296793 192.353909 
L 272.601309 207.64757 
L 273.058083 196.175778 
L 273.514857 207.661527 
L 273.819373 200.45722 
L 273.971631 201.856705 
L 274.276147 209.059256 
L 274.428405 207.659063 
L 274.732921 203.972174 
L 275.189694 209.640523 
L 275.646468 206.561619 
L 276.103242 210.040321 
L 276.560016 208.259275 
L 276.712274 208.771638 
L 277.01679 210.327839 
L 277.169048 210.285737 
L 277.473564 209.477412 
L 277.625822 209.550663 
L 278.082595 210.671641 
L 278.387111 210.341755 
L 278.539369 210.224633 
L 278.691627 210.319155 
L 279.148401 210.942862 
L 279.909691 210.920742 
L 280.366465 211.216653 
L 280.975496 211.225569 
L 281.736786 211.500048 
L 282.498076 211.623548 
L 283.411624 211.787168 
L 289.806457 212.393673 
L 291.024521 212.334747 
L 291.481295 212.058691 
L 291.785811 211.538653 
L 292.090327 210.332851 
L 292.394842 207.62964 
L 292.699358 202.134992 
L 293.003874 192.688765 
L 293.460648 172.106613 
L 294.374196 127.932997 
L 294.526454 122.939324 
L 294.678712 124.574379 
L 294.83097 128.229633 
L 294.983228 143.734189 
L 295.135485 178.539268 
L 295.592259 138.206757 
L 295.744517 146.859676 
L 296.049033 187.629478 
L 296.353549 147.361574 
L 296.505807 151.287051 
L 296.658065 166.053445 
L 296.810323 201.110818 
L 297.114839 159.989587 
L 297.267097 156.881786 
L 297.419355 162.436729 
L 297.723871 204.114891 
L 298.028386 168.166657 
L 298.180644 167.767274 
L 298.332902 179.127321 
L 298.48516 201.831818 
L 298.637418 195.628265 
L 298.789676 179.653342 
L 298.941934 175.549542 
L 299.094192 182.473006 
L 299.398708 203.985993 
L 299.703224 183.195278 
L 299.855482 186.485439 
L 300.159998 207.986397 
L 300.464514 191.416553 
L 300.616772 190.474217 
L 300.76903 195.962031 
L 300.921287 205.59152 
L 301.073545 208.172355 
L 301.378061 196.616967 
L 301.530319 196.973949 
L 301.987093 209.184589 
L 302.291609 201.62013 
L 302.443867 202.045698 
L 302.900641 210.27486 
L 303.205157 205.65863 
L 303.357415 205.428554 
L 303.814188 211.017928 
L 303.966446 210.255262 
L 304.270962 208.005577 
L 304.42322 208.461598 
L 304.727736 211.050363 
L 304.879994 211.446373 
L 305.336768 209.862224 
L 305.489026 210.134146 
L 305.9458 211.826985 
L 306.098058 211.685875 
L 306.402574 211.098704 
L 306.554832 211.130453 
L 307.163863 212.186215 
L 307.772895 211.920105 
L 308.534185 212.503393 
L 309.143217 212.443866 
L 310.056764 212.762665 
L 310.970312 212.832064 
L 312.036118 212.985136 
L 314.624503 213.212302 
L 317.365146 213.315099 
L 317.82192 213.191685 
L 318.126436 212.952509 
L 318.430951 212.398794 
L 318.735467 211.131928 
L 319.039983 208.351522 
L 319.344499 202.818319 
L 319.801273 187.286497 
L 320.562563 149.612864 
L 321.019337 128.127952 
L 321.323852 123.372489 
L 321.47611 129.164661 
L 321.628368 140.147853 
L 321.780626 169.424861 
L 321.932884 173.79816 
L 322.085142 146.886677 
L 322.2374 140.340566 
L 322.389658 143.473051 
L 322.541916 162.361616 
L 322.694174 199.069817 
L 322.99869 151.08252 
L 323.150948 148.875295 
L 323.303206 159.224606 
L 323.607722 195.189846 
L 323.912238 158.089552 
L 324.064495 160.308306 
L 324.216753 171.879901 
L 324.369011 198.641303 
L 324.521269 192.313783 
L 324.673527 173.088062 
L 324.825785 168.51125 
L 324.978043 173.63467 
L 325.282559 205.692708 
L 325.587075 177.750709 
L 325.739333 178.959636 
L 326.043849 206.782596 
L 326.500623 184.799172 
L 326.652881 191.603096 
L 326.805139 204.37533 
L 326.957396 207.146206 
L 327.261912 191.469517 
L 327.41417 193.064521 
L 327.718686 208.760631 
L 327.870944 207.146821 
L 328.17546 197.483258 
L 328.327718 199.39032 
L 328.632234 210.184471 
L 328.784492 208.869321 
L 329.089008 202.514456 
L 329.241266 203.903272 
L 329.545782 210.786758 
L 329.69804 210.472898 
L 330.002555 206.350422 
L 330.154813 206.739984 
L 330.611587 211.621569 
L 331.068361 208.896754 
L 331.220619 209.600754 
L 331.525135 211.922082 
L 331.677393 212.045431 
L 332.134167 210.681446 
L 332.438683 211.760414 
L 332.743198 212.496502 
L 333.199972 211.831732 
L 333.35223 211.933726 
L 333.809004 212.820195 
L 333.961262 212.868273 
L 334.418036 212.612842 
L 334.722552 212.819246 
L 335.179326 213.208252 
L 336.245131 213.359415 
L 336.701905 213.505291 
L 337.919969 213.654913 
L 338.985774 213.773873 
L 344.314802 214.062883 
L 344.771576 213.875312 
L 345.076092 213.54086 
L 345.380608 212.796381 
L 345.685124 211.161345 
L 345.98964 207.742883 
L 346.294156 201.338805 
L 346.75093 185.026124 
L 348.121251 124.543692 
L 348.273509 126.548762 
L 348.425767 130.819379 
L 348.578025 146.616066 
L 348.730283 181.656544 
L 349.187057 139.963142 
L 349.339315 146.92337 
L 349.643831 200.183711 
L 349.948346 150.997448 
L 350.100604 150.983597 
L 350.252862 159.579506 
L 350.557378 198.408956 
L 350.861894 160.641909 
L 351.014152 160.644338 
L 351.16641 171.923153 
L 351.318668 196.766876 
L 351.470926 197.117883 
L 351.775442 169.661612 
L 351.9277 174.215638 
L 352.232216 207.772366 
L 352.536732 179.791192 
L 352.68899 179.766716 
L 352.841247 188.797254 
L 352.993505 205.530888 
L 353.145763 203.207249 
L 353.450279 186.240168 
L 353.602537 189.987221 
L 353.907053 209.867355 
L 354.211569 194.58719 
L 354.363827 193.145575 
L 354.516085 198.060593 
L 354.820601 210.536513 
L 355.125117 199.950928 
L 355.277375 199.421502 
L 355.734148 211.355844 
L 356.190922 204.071556 
L 356.647696 211.949561 
L 356.799954 210.821879 
L 357.10447 207.5283 
L 357.256728 208.297183 
L 357.561244 212.098802 
L 357.713502 212.375162 
L 358.170276 210.024907 
L 358.474792 211.885334 
L 358.627049 212.750901 
L 358.779307 212.847894 
L 359.236081 211.65045 
L 359.388339 211.968674 
L 359.692855 213.078268 
L 359.845113 213.277202 
L 360.149629 212.891784 
L 360.301887 212.727699 
L 360.454145 212.772711 
L 361.063177 213.630216 
L 361.672208 213.445355 
L 362.585756 213.941691 
L 363.04253 213.919906 
L 364.412851 214.223378 
L 367.001237 214.498916 
L 370.959943 214.756364 
L 370.959943 214.756364 
" style="fill:none;stroke:#1f77b4;stroke-linecap:square;stroke-width:1.5;"/>
   </g>
   <g id="line2d_60">
    <path clip-path="url(#pd5c82d91c6)" d="M 66.596307 19.51226 
L 67.205339 31.21451 
L 67.81437 47.332112 
L 68.118886 42.143275 
L 68.271144 42.246292 
L 68.880176 50.930028 
L 69.032434 50.985904 
L 69.33695 50.293923 
L 69.489208 50.602511 
L 69.641466 51.707912 
L 70.250498 59.164742 
L 70.402755 59.503799 
L 70.859529 65.942237 
L 71.011787 65.781879 
L 71.164045 66.249083 
L 71.316303 68.408864 
L 71.620819 75.678419 
L 71.925335 75.426919 
L 72.077593 77.405723 
L 72.229851 76.414107 
L 72.534367 72.391816 
L 72.686625 73.049672 
L 72.838883 74.518358 
L 72.991141 74.874618 
L 73.143399 74.750941 
L 73.447914 76.752022 
L 73.600172 76.427493 
L 73.75243 76.569513 
L 74.209204 79.810089 
L 74.361462 79.753498 
L 74.51372 80.035768 
L 74.665978 79.95379 
L 74.970494 79.042962 
L 75.427268 80.215331 
L 75.579526 80.288612 
L 75.731784 80.513133 
L 75.884042 80.462896 
L 76.0363 80.286217 
L 76.188557 80.504589 
L 76.493073 81.266275 
L 76.949847 81.402276 
L 77.102105 81.248768 
L 77.254363 81.325815 
L 77.558879 81.738421 
L 78.015653 81.888963 
L 78.167911 81.844286 
L 78.929201 82.379523 
L 79.233716 82.409158 
L 79.69049 82.695198 
L 80.45178 82.986158 
L 81.669844 83.458072 
L 82.126617 83.61183 
L 83.496939 84.280576 
L 84.258229 84.949957 
L 85.171776 86.056796 
L 87.607904 89.500496 
L 88.673709 91.606651 
L 89.739515 94.27867 
L 90.653062 97.316546 
L 91.56661 101.213479 
L 92.3279 105.388953 
L 92.936932 109.864183 
L 93.850479 117.173848 
L 94.002737 117.100805 
L 94.154995 116.388347 
L 94.307253 114.12498 
L 94.459511 113.943522 
L 94.611769 118.116035 
L 94.916285 128.605543 
L 95.220801 120.979764 
L 95.373059 122.49686 
L 95.677575 135.682458 
L 95.829833 133.30299 
L 95.982091 128.785181 
L 96.134349 127.655839 
L 96.591122 142.533565 
L 96.895638 134.577036 
L 97.047896 134.488984 
L 97.50467 148.759597 
L 97.961444 141.265816 
L 98.113702 143.452989 
L 98.418218 153.459912 
L 98.570476 153.539885 
L 98.874992 147.801318 
L 99.02725 148.127029 
L 99.179508 149.73864 
L 99.484023 157.382938 
L 99.636281 158.710861 
L 99.788539 157.58445 
L 100.093055 154.22871 
L 100.245313 153.570453 
L 100.702087 159.236927 
L 101.006603 162.4992 
L 101.158861 162.84904 
L 101.311119 162.458661 
L 101.615635 160.477197 
L 102.072409 155.092947 
L 102.376924 149.16706 
L 102.985956 136.484142 
L 103.138214 136.232911 
L 103.290472 140.238226 
L 103.747246 168.638083 
L 104.20402 148.468278 
L 104.356278 149.086274 
L 104.660794 162.643161 
L 104.813052 170.286393 
L 104.96531 168.252484 
L 105.269825 157.021128 
L 105.422083 156.036677 
L 105.574341 158.255592 
L 106.031115 172.784315 
L 106.183373 171.553266 
L 106.640147 162.799287 
L 106.792405 162.450768 
L 107.096921 166.117588 
L 107.553695 175.005867 
L 107.705953 175.960925 
L 107.85821 175.610128 
L 108.010468 174.673786 
L 108.771758 166.717991 
L 109.076274 163.257787 
L 109.533048 156.51386 
L 110.14208 147.58735 
L 110.294338 147.566056 
L 110.446596 147.99213 
L 110.751111 155.875537 
L 111.207885 180.292069 
L 111.360143 179.105094 
L 111.816917 163.076372 
L 111.969175 161.903787 
L 112.121433 161.939451 
L 112.425949 167.705965 
L 112.882723 181.263839 
L 113.034981 182.803562 
L 113.187239 181.908846 
L 115.014334 154.378725 
L 115.31885 151.62148 
L 115.471108 151.949447 
L 115.623366 151.992884 
L 115.927882 157.630639 
L 116.689171 185.132577 
L 117.450461 166.031345 
L 117.602719 164.22909 
L 117.754977 164.159846 
L 117.907235 163.579994 
L 118.516267 167.196412 
L 118.973041 172.389124 
L 119.886588 179.03851 
L 120.038846 178.852334 
L 120.191104 178.930465 
L 120.49562 176.991763 
L 120.800136 172.510066 
L 121.25691 159.328356 
L 122.170458 131.386065 
L 122.474973 140.671971 
L 122.779489 183.084623 
L 122.931747 173.20499 
L 123.236263 147.153822 
L 123.388521 150.225248 
L 123.540779 157.868774 
L 123.845295 185.951351 
L 124.149811 159.40786 
L 124.302069 156.43886 
L 124.606585 175.263728 
L 124.758843 188.405531 
L 125.215616 165.949439 
L 125.367874 165.424204 
L 125.824648 188.687775 
L 125.976906 185.042802 
L 126.281422 174.153911 
L 126.43368 172.917911 
L 127.042712 189.894712 
L 127.499486 180.019867 
L 127.651744 180.56718 
L 127.804002 181.73728 
L 128.260775 190.615467 
L 128.413033 190.788748 
L 129.022065 185.132071 
L 129.174323 184.446637 
L 129.783355 187.354225 
L 130.087871 189.330069 
L 130.392387 190.733287 
L 130.696903 191.540902 
L 131.001418 191.9771 
L 131.305934 192.222039 
L 131.914966 192.42572 
L 132.37174 192.018586 
L 132.523998 191.838666 
L 132.828514 190.098941 
L 133.13303 185.013885 
L 133.437546 173.576318 
L 134.503351 113.965414 
L 134.655609 120.618387 
L 134.807867 133.757988 
L 134.960125 180.392234 
L 135.264641 129.246014 
L 135.416899 134.401107 
L 135.721415 171.881846 
L 135.873673 144.054499 
L 136.025931 137.111405 
L 136.330447 184.637101 
L 136.482705 149.413776 
L 136.634963 147.216547 
L 136.78722 157.893379 
L 136.939478 188.826937 
L 137.243994 149.607445 
L 137.396252 162.312148 
L 137.54851 186.723034 
L 137.853026 159.327807 
L 138.005284 161.527975 
L 138.157542 184.237906 
L 138.3098 181.142535 
L 138.462058 164.232521 
L 138.614316 167.332985 
L 138.918832 187.758952 
L 139.223348 169.847674 
L 139.527864 192.098583 
L 139.832379 176.143448 
L 139.984637 180.646032 
L 140.136895 192.282064 
L 140.289153 188.219577 
L 140.441411 180.042796 
L 140.593669 182.588408 
L 140.898185 192.34826 
L 141.202701 183.478692 
L 141.507217 193.216506 
L 141.963991 187.041785 
L 142.268507 193.555587 
L 142.573022 189.568437 
L 142.72528 189.50966 
L 143.029796 193.897663 
L 143.334312 191.44572 
L 143.48657 191.210143 
L 143.791086 194.238731 
L 144.24786 192.424263 
L 144.552376 194.424014 
L 144.704634 194.347578 
L 145.00915 193.331098 
L 145.313665 194.441844 
L 145.465923 194.823184 
L 145.618181 194.695012 
L 145.770439 194.182943 
L 146.074955 194.444748 
L 146.379471 195.069707 
L 146.836245 194.736541 
L 147.140761 195.163938 
L 147.445277 195.399608 
L 147.597535 195.29408 
L 148.206566 195.618704 
L 148.511082 195.772284 
L 148.815598 195.80074 
L 148.967856 195.781965 
L 149.42463 196.073832 
L 154.753658 197.586475 
L 155.514948 197.678684 
L 155.667206 197.736352 
L 156.276238 197.499264 
L 156.580754 196.863915 
L 156.885269 195.100708 
L 157.189785 190.691416 
L 157.494301 181.571049 
L 158.103333 149.877425 
L 158.560107 124.55501 
L 158.864623 119.396774 
L 159.016881 127.57336 
L 159.169139 142.056916 
L 159.321397 184.702161 
L 159.625913 136.636836 
L 159.77817 137.628947 
L 159.930428 146.68463 
L 160.082686 183.580387 
L 160.387202 144.970014 
L 160.53946 147.194712 
L 160.691718 158.1009 
L 160.843976 194.108315 
L 161.148492 151.984313 
L 161.30075 155.143453 
L 161.453008 166.152751 
L 161.605266 193.700949 
L 161.909782 159.970353 
L 162.06204 162.432428 
L 162.214298 172.440135 
L 162.366556 194.764838 
L 162.671071 168.144046 
L 162.823329 170.241125 
L 162.975587 179.553332 
L 163.127845 196.646114 
L 163.432361 175.090481 
L 163.584619 177.22723 
L 163.889135 197.082064 
L 164.193651 180.98709 
L 164.345909 182.661044 
L 164.650425 197.60616 
L 164.802683 194.033257 
L 164.954941 186.590617 
L 165.107199 186.54467 
L 165.259457 189.931341 
L 165.411715 196.699578 
L 165.563972 197.038114 
L 165.868488 190.155631 
L 166.020746 190.589187 
L 166.325262 197.738971 
L 166.629778 194.341835 
L 166.782036 192.603646 
L 167.23881 198.35638 
L 167.391068 197.719914 
L 167.543326 195.715321 
L 167.695584 195.711001 
L 167.847842 195.936584 
L 168.152358 198.606075 
L 168.304616 198.345907 
L 168.609131 196.845809 
L 169.218163 198.949239 
L 169.674937 197.971614 
L 169.979453 198.490596 
L 170.283969 199.184624 
L 170.588485 199.061349 
L 170.740743 198.846267 
L 171.045259 198.938209 
L 171.502032 199.547386 
L 171.806548 199.542743 
L 172.41558 199.54184 
L 172.872354 199.855045 
L 173.481386 199.935223 
L 174.547191 200.184102 
L 176.069771 200.565142 
L 177.287834 200.685383 
L 177.744608 200.526712 
L 178.049124 200.164823 
L 178.201382 199.837157 
L 178.505898 198.347498 
L 178.810414 194.780551 
L 179.11493 187.401052 
L 179.571704 167.789091 
L 180.332993 127.164539 
L 180.637509 120.824275 
L 180.942025 136.65783 
L 181.094283 167.897598 
L 181.246541 174.342192 
L 181.398799 143.76753 
L 181.551057 138.760297 
L 181.703315 140.912186 
L 182.007831 190.052637 
L 182.160089 155.82746 
L 182.312347 148.150196 
L 182.464605 148.580928 
L 182.76912 197.435092 
L 183.073636 156.73152 
L 183.225894 154.915004 
L 183.378152 168.501182 
L 183.53041 192.421853 
L 183.987184 162.622405 
L 184.139442 171.187447 
L 184.443958 194.292088 
L 184.748474 171.127168 
L 184.900732 176.342753 
L 185.205248 198.608921 
L 185.509764 178.627496 
L 185.662021 181.046792 
L 185.966537 199.981805 
L 186.423311 185.063162 
L 186.880085 199.076287 
L 187.184601 189.479974 
L 187.336859 190.698794 
L 187.641375 199.85056 
L 187.793633 199.365841 
L 188.098149 193.778773 
L 188.250407 194.468663 
L 188.554922 200.413789 
L 188.70718 200.399094 
L 189.011696 196.800434 
L 189.163954 197.300932 
L 189.620728 201.257806 
L 190.077502 198.689788 
L 190.534276 201.303036 
L 190.686534 201.434863 
L 191.143308 199.950397 
L 191.295566 200.575945 
L 191.447823 200.665306 
L 191.600081 201.460404 
L 191.752339 201.614271 
L 192.056855 201.541382 
L 192.209113 201.054531 
L 192.361371 201.323549 
L 192.513629 201.102582 
L 192.665887 201.636711 
L 192.818145 201.668331 
L 192.970403 201.978105 
L 193.122661 202.011729 
L 193.274919 201.901531 
L 193.427177 201.964988 
L 193.579435 201.688428 
L 193.731693 201.908208 
L 193.883951 201.710363 
L 194.036209 202.029418 
L 194.188467 201.948137 
L 194.340724 202.190494 
L 194.64524 202.240607 
L 194.797498 202.287562 
L 194.949756 202.198124 
L 195.102014 202.321108 
L 195.254272 202.165626 
L 195.40653 202.358203 
L 195.558788 202.201858 
L 195.711046 202.428552 
L 195.863304 202.305166 
L 196.015562 202.520812 
L 196.16782 202.438513 
L 196.320078 202.605376 
L 196.472336 202.561091 
L 196.776852 202.657667 
L 197.385883 202.79437 
L 197.538141 202.758847 
L 197.690399 202.84602 
L 197.842657 202.779955 
L 197.994915 202.892043 
L 198.147173 202.797412 
L 198.299431 202.933737 
L 198.451689 202.803784 
L 198.603947 202.965187 
L 198.756205 202.783741 
L 198.908463 202.973797 
L 199.060721 202.710913 
L 199.212979 202.931288 
L 199.365237 202.529504 
L 199.517495 202.765118 
L 199.669753 202.110178 
L 199.822011 202.296966 
L 199.974269 201.161056 
L 200.126526 201.095484 
L 200.735558 192.143446 
L 201.34459 167.21895 
L 202.10588 129.640196 
L 202.258138 123.891088 
L 202.410396 124.183063 
L 202.562654 125.5935 
L 202.714912 138.051444 
L 203.019427 180.750613 
L 203.323943 138.231223 
L 203.476201 142.772227 
L 203.628459 155.395411 
L 203.780717 192.742989 
L 204.085233 149.839398 
L 204.237491 149.867519 
L 204.389749 157.04032 
L 204.542007 184.29056 
L 204.694265 189.968805 
L 204.846523 164.080731 
L 204.998781 157.494003 
L 205.151039 158.916724 
L 205.455555 196.858024 
L 205.912328 165.916092 
L 206.064586 172.999925 
L 206.369102 199.141896 
L 206.673618 174.88015 
L 206.825876 177.019301 
L 207.130392 200.594683 
L 207.587166 181.981959 
L 207.739424 187.521185 
L 208.04394 200.76006 
L 208.348456 187.781403 
L 208.500714 188.4861 
L 208.957487 200.811693 
L 209.262003 192.985782 
L 209.414261 192.745015 
L 209.871035 201.893883 
L 210.327809 196.909292 
L 210.480067 197.980748 
L 210.784583 202.479849 
L 210.936841 201.967138 
L 211.241357 199.195886 
L 211.545873 200.480388 
L 211.850388 202.756033 
L 212.154904 201.955953 
L 212.307162 200.832826 
L 212.45942 201.390085 
L 212.611678 201.316807 
L 212.763936 202.494768 
L 213.068452 202.983384 
L 213.22071 202.92867 
L 213.372968 202.279553 
L 213.525226 202.484677 
L 213.677484 202.072467 
L 213.829742 202.742989 
L 213.982 202.752042 
L 214.134258 203.277718 
L 214.438774 203.278174 
L 214.591031 203.313224 
L 214.743289 202.948394 
L 214.895547 203.164613 
L 215.047805 202.879309 
L 215.200063 203.268375 
L 215.352321 203.154906 
L 215.504579 203.483485 
L 215.809095 203.555108 
L 215.961353 203.598862 
L 216.113611 203.472747 
L 216.265869 203.608813 
L 216.418127 203.394941 
L 216.570385 203.62691 
L 216.722643 203.426623 
L 216.874901 203.702586 
L 217.027159 203.556343 
L 217.179417 203.804429 
L 217.331675 203.717454 
L 217.483932 203.885781 
L 217.788448 203.925035 
L 218.549738 204.0239 
L 218.701996 203.915577 
L 218.854254 204.053733 
L 219.006512 203.922388 
L 219.15877 204.083819 
L 219.311028 203.932538 
L 219.463286 204.111727 
L 219.615544 203.937595 
L 219.767802 204.134067 
L 219.92006 203.927922 
L 220.072318 204.143519 
L 220.224575 203.887085 
L 220.376833 204.126957 
L 220.529091 203.789763 
L 220.681349 204.055656 
L 220.833607 203.582127 
L 220.985865 203.863463 
L 221.138123 203.153615 
L 221.290381 203.399479 
L 221.442639 202.269231 
L 221.594897 202.33542 
L 221.747155 200.463137 
L 221.899413 199.988488 
L 222.508445 186.813965 
L 224.031024 125.343252 
L 224.33554 134.655509 
L 224.487798 153.643755 
L 224.640056 188.32716 
L 224.944572 147.763755 
L 225.09683 141.122698 
L 225.249088 149.110577 
L 225.401346 165.429655 
L 225.553604 198.072579 
L 225.85812 153.411508 
L 226.010377 152.971108 
L 226.162635 158.221739 
L 226.467151 200.105017 
L 226.771667 164.24713 
L 226.923925 160.720043 
L 227.076183 167.071657 
L 227.380699 201.160727 
L 227.685215 174.288642 
L 227.837473 171.599279 
L 227.989731 176.592702 
L 228.294247 201.942863 
L 228.598763 181.68471 
L 228.751021 179.809032 
L 228.903278 185.40187 
L 229.207794 202.292588 
L 229.51231 187.926581 
L 229.664568 186.529168 
L 229.816826 190.343961 
L 230.121342 202.211297 
L 230.2736 199.47588 
L 230.578116 192.142999 
L 230.730374 193.044159 
L 231.187148 202.780045 
L 231.643922 197.003536 
L 231.796179 197.730349 
L 232.100695 202.725125 
L 232.252953 203.42474 
L 232.405211 202.469404 
L 232.557469 200.59615 
L 232.861985 200.127495 
L 233.166501 202.67701 
L 233.318759 203.619665 
L 233.471017 203.559024 
L 233.775533 202.400896 
L 233.927791 201.641218 
L 234.080049 202.313658 
L 234.232307 202.416545 
L 234.536823 203.695011 
L 234.68908 203.951719 
L 234.841338 203.921635 
L 234.993596 203.459863 
L 235.145854 203.501903 
L 235.298112 203.062674 
L 235.45037 203.460759 
L 235.602628 203.347074 
L 235.754886 203.874309 
L 235.907144 203.914999 
L 236.059402 204.193807 
L 236.516176 204.160697 
L 236.668434 203.909452 
L 236.820692 204.053485 
L 236.97295 203.814134 
L 237.125208 204.081689 
L 237.277466 203.923736 
L 237.429724 204.22902 
L 237.581981 204.143517 
L 237.734239 204.390487 
L 237.886497 204.353158 
L 238.191013 204.49268 
L 238.800045 204.594993 
L 238.952303 204.48905 
L 239.104561 204.602489 
L 239.256819 204.462983 
L 239.409077 204.599503 
L 239.561335 204.440042 
L 239.713593 204.596165 
L 239.865851 204.423536 
L 240.018109 204.595194 
L 240.170367 204.403339 
L 240.322625 204.584345 
L 240.474882 204.35678 
L 240.62714 204.543329 
L 240.779398 204.255108 
L 240.931656 204.444816 
L 241.083914 204.056591 
L 241.236172 204.232894 
L 241.38843 203.671021 
L 241.540688 203.785068 
L 241.692946 202.915729 
L 241.845204 202.843942 
L 242.454236 197.093771 
L 243.063268 180.276923 
L 244.281331 129.701457 
L 244.585847 129.154663 
L 244.890363 150.199672 
L 245.042621 183.190725 
L 245.194879 176.930756 
L 245.347137 151.854451 
L 245.499395 146.401946 
L 245.651653 145.992631 
L 245.803911 159.512978 
L 245.956169 183.734667 
L 246.108427 188.93257 
L 246.412942 154.787262 
L 246.5652 156.003244 
L 246.717458 161.809247 
L 247.021974 200.965517 
L 247.32649 170.132417 
L 247.478748 164.732874 
L 247.631006 167.730356 
L 247.783264 177.171571 
L 248.08778 200.262875 
L 248.392296 177.011837 
L 248.544554 175.893215 
L 248.696812 182.369652 
L 249.001328 202.476268 
L 249.458101 183.969515 
L 249.610359 186.526405 
L 249.914875 201.899677 
L 250.067133 201.058656 
L 250.371649 190.606411 
L 250.523907 190.401093 
L 250.676165 193.279183 
L 250.980681 202.739499 
L 251.132939 202.482938 
L 251.437455 196.463298 
L 251.589713 195.852217 
L 251.741971 197.32253 
L 252.198744 203.841786 
L 252.655518 199.840142 
L 252.807776 199.940845 
L 253.112292 202.481825 
L 253.416808 204.053526 
L 253.569066 203.680956 
L 253.873582 202.32893 
L 254.02584 201.962907 
L 254.330356 202.848794 
L 254.634872 204.13613 
L 254.78713 204.431797 
L 254.939387 204.403588 
L 255.396161 203.610676 
L 255.700677 203.662385 
L 256.157451 204.431126 
L 256.614225 204.645925 
L 257.375515 204.349433 
L 257.527773 204.465921 
L 257.68003 204.392878 
L 257.832288 204.557936 
L 257.984546 204.519625 
L 258.136804 204.693922 
L 258.289062 204.672677 
L 258.44132 204.825565 
L 258.593578 204.810372 
L 258.898094 204.915687 
L 259.20261 204.983586 
L 259.659384 205.049581 
L 260.725189 205.118992 
L 262.552285 205.160594 
L 263.161317 204.556992 
L 263.465832 203.342443 
L 263.770348 200.243459 
L 264.074864 193.400764 
L 264.531638 173.837506 
L 265.597444 119.432152 
L 265.90196 124.289792 
L 266.054218 142.655407 
L 266.206476 179.999885 
L 266.510991 138.505116 
L 266.663249 134.381663 
L 266.815507 151.240057 
L 266.967765 185.769477 
L 267.272281 146.435144 
L 267.424539 143.470585 
L 267.576797 160.882863 
L 267.729055 195.349435 
L 268.033571 154.321012 
L 268.185829 150.564843 
L 268.338087 162.346264 
L 268.490345 187.505747 
L 268.642603 185.637107 
L 268.947119 159.509149 
L 269.099377 166.67322 
L 269.403892 196.551476 
L 269.708408 168.435774 
L 269.860666 174.393919 
L 270.165182 197.81941 
L 270.469698 175.585268 
L 270.621956 181.968079 
L 270.926472 198.809386 
L 271.230988 181.821862 
L 271.383246 186.913132 
L 271.687762 200.471861 
L 271.992278 187.594132 
L 272.144535 190.300305 
L 272.449051 202.242054 
L 272.905825 193.495006 
L 273.362599 202.408163 
L 273.667115 196.99766 
L 273.819373 197.926088 
L 274.123889 203.370125 
L 274.276147 202.295756 
L 274.580663 199.493434 
L 275.037436 203.694983 
L 275.49421 201.592204 
L 275.950984 204.176706 
L 276.103242 203.837462 
L 276.407758 202.969512 
L 276.560016 203.286885 
L 276.864532 204.419087 
L 277.01679 204.383601 
L 277.321306 203.771236 
L 277.473564 203.834324 
L 277.930337 204.547072 
L 278.387111 204.260922 
L 278.691627 204.546318 
L 278.996143 204.855081 
L 279.757433 204.9009 
L 280.214207 205.149068 
L 281.127754 205.245963 
L 281.736786 205.346372 
L 282.498076 205.464961 
L 283.716139 205.61407 
L 290.415489 206.053078 
L 291.329037 205.849014 
L 291.633553 205.505007 
L 291.938069 204.681265 
L 292.242585 202.752107 
L 292.5471 198.555379 
L 292.851616 190.668408 
L 293.30839 171.611088 
L 294.221938 128.277519 
L 294.374196 122.979499 
L 294.678712 128.054239 
L 294.83097 144.609262 
L 294.983228 176.746773 
L 295.440001 137.606001 
L 295.592259 147.897699 
L 295.896775 185.311269 
L 296.201291 146.735268 
L 296.353549 152.100947 
L 296.505807 164.960295 
L 296.658065 198.982872 
L 296.962581 159.44059 
L 297.114839 157.007794 
L 297.267097 162.028684 
L 297.571613 200.76292 
L 297.876129 167.916459 
L 298.028386 167.443268 
L 298.180644 178.555539 
L 298.332902 198.605803 
L 298.48516 193.066466 
L 298.789676 174.498291 
L 298.941934 181.915446 
L 299.24645 199.727865 
L 299.550966 181.440092 
L 299.703224 185.460467 
L 300.00774 202.381595 
L 300.464514 188.759298 
L 300.616772 192.907999 
L 300.76903 201.228732 
L 300.921287 203.143869 
L 301.225803 194.095676 
L 301.378061 194.138155 
L 301.682577 203.253059 
L 301.834835 203.81828 
L 302.139351 198.029668 
L 302.291609 198.385461 
L 302.748383 204.459706 
L 303.052899 200.963119 
L 303.205157 200.881188 
L 303.661931 205.005716 
L 303.814188 204.49217 
L 304.118704 202.897337 
L 304.42322 204.229898 
L 304.575478 205.229694 
L 304.727736 205.472394 
L 305.18451 204.231365 
L 305.793542 205.600297 
L 306.098058 205.246957 
L 306.250316 204.939626 
L 306.554832 205.169813 
L 306.859347 205.706297 
L 307.163863 205.800454 
L 307.316121 205.64699 
L 307.468379 205.698873 
L 307.620637 205.618647 
L 307.925153 205.862763 
L 308.229669 206.072662 
L 308.838701 206.043186 
L 308.990959 205.970295 
L 309.447733 206.139282 
L 317.517404 206.421405 
L 318.126436 206.102868 
L 318.583209 204.855401 
L 318.735467 204.286864 
L 319.039983 201.418584 
L 319.344499 195.622611 
L 319.801273 179.47721 
L 321.019337 126.097926 
L 321.171594 123.305416 
L 321.47611 139.614316 
L 321.628368 170.887996 
L 321.780626 175.22241 
L 321.932884 145.92231 
L 322.085142 141.316117 
L 322.2374 142.621164 
L 322.541916 197.724089 
L 322.846432 152.176828 
L 322.99869 148.096933 
L 323.150948 160.186626 
L 323.455464 191.953613 
L 323.75998 157.527315 
L 323.912238 160.482503 
L 324.064495 171.077145 
L 324.216753 196.75715 
L 324.369011 191.211012 
L 324.521269 172.362901 
L 324.673527 168.493438 
L 324.825785 172.708072 
L 325.130301 201.699653 
L 325.434817 177.593415 
L 325.587075 177.29873 
L 325.891591 201.828254 
L 326.348365 182.522769 
L 326.805139 201.371733 
L 327.109654 188.663168 
L 327.261912 191.429186 
L 327.566428 203.738728 
L 327.718686 202.685587 
L 327.870944 196.604743 
L 328.023202 195.112559 
L 328.17546 195.770768 
L 328.479976 204.405268 
L 328.632234 203.345472 
L 328.93675 198.337603 
L 329.393524 204.888642 
L 329.545782 204.677324 
L 329.850297 201.883437 
L 330.002555 201.688043 
L 330.307071 205.063585 
L 330.459329 205.626999 
L 330.611587 205.089345 
L 330.763845 203.870877 
L 331.068361 204.111076 
L 331.372877 205.846641 
L 331.525135 205.931986 
L 331.677393 205.628558 
L 331.829651 204.985485 
L 332.134167 205.106731 
L 332.438683 205.979783 
L 332.59094 206.096781 
L 332.743198 206.007965 
L 332.895456 205.697373 
L 333.199972 205.705723 
L 333.504488 206.250223 
L 333.809004 206.527727 
L 334.265778 206.328207 
L 334.87481 206.739183 
L 335.179326 206.803096 
L 335.636099 206.692911 
L 336.245131 206.892517 
L 336.701905 206.958044 
L 338.529 207.148764 
L 339.594806 207.193963 
L 340.965128 207.312896 
L 343.553513 207.451108 
L 344.771576 207.232349 
L 345.22835 206.517344 
L 345.380608 206.165928 
L 345.685124 204.500059 
L 345.98964 200.968862 
L 346.294156 194.316972 
L 346.903188 170.348823 
L 347.664477 132.919399 
L 347.968993 124.473988 
L 348.273509 130.487312 
L 348.425767 147.575896 
L 348.578025 179.129664 
L 349.034799 139.200469 
L 349.187057 147.956655 
L 349.339315 165.052689 
L 349.491573 197.447832 
L 349.796089 150.177558 
L 349.948346 151.741207 
L 350.100604 158.670823 
L 350.40512 196.451342 
L 350.709636 160.674481 
L 350.861894 160.227467 
L 351.014152 171.677476 
L 351.16641 194.419369 
L 351.318668 194.701136 
L 351.623184 168.902804 
L 351.775442 174.008323 
L 352.079958 202.748253 
L 352.384474 177.984996 
L 352.536732 179.617798 
L 352.68899 186.0539 
L 352.841247 201.632365 
L 352.993505 199.873359 
L 353.145763 187.268156 
L 353.298021 185.413445 
L 353.450279 186.952374 
L 353.754795 203.730895 
L 354.059311 192.859201 
L 354.211569 190.136881 
L 354.668343 204.670834 
L 354.972859 196.06026 
L 355.125117 196.798787 
L 355.277375 198.62965 
L 355.581891 205.398524 
L 356.038664 199.362322 
L 356.495438 205.617533 
L 356.647696 205.107683 
L 356.799954 202.986825 
L 356.952212 203.05908 
L 357.10447 202.915067 
L 357.408986 205.976167 
L 357.561244 206.226209 
L 357.713502 205.78008 
L 357.86576 204.52177 
L 358.018018 204.884522 
L 358.170276 204.844658 
L 358.474792 206.428494 
L 358.627049 206.489633 
L 358.779307 206.313932 
L 358.931565 205.564707 
L 359.083823 205.828492 
L 359.236081 205.627029 
L 359.388339 206.350571 
L 359.845113 206.758739 
L 359.997371 206.417744 
L 360.149629 206.607577 
L 360.301887 206.369233 
L 360.454145 206.819754 
L 360.606403 206.828307 
L 360.758661 207.123179 
L 361.215435 207.156869 
L 361.367693 206.946 
L 361.51995 207.155243 
L 361.672208 207.031788 
L 361.824466 207.280575 
L 361.976724 207.246432 
L 362.28124 207.370032 
L 362.433498 207.316244 
L 362.585756 207.390085 
L 362.738014 207.272896 
L 362.890272 207.418448 
L 363.04253 207.329033 
L 363.194788 207.489977 
L 363.347046 207.448933 
L 363.651562 207.548988 
L 366.239947 207.757757 
L 366.696721 207.734364 
L 367.153495 207.806824 
L 367.610268 207.812355 
L 368.371558 207.86884 
L 370.959943 207.973323 
L 370.959943 207.973323 
" style="fill:none;stroke:#ff7f0e;stroke-linecap:square;stroke-width:1.5;"/>
   </g>
   <g id="patch_3">
    <path d="M 51.378125 224.64 
L 51.378125 7.2 
" style="fill:none;stroke:#000000;stroke-linecap:square;stroke-linejoin:miter;stroke-width:0.8;"/>
   </g>
   <g id="patch_4">
    <path d="M 386.178125 224.64 
L 386.178125 7.2 
" style="fill:none;stroke:#000000;stroke-linecap:square;stroke-linejoin:miter;stroke-width:0.8;"/>
   </g>
   <g id="patch_5">
    <path d="M 51.378125 224.64 
L 386.178125 224.64 
" style="fill:none;stroke:#000000;stroke-linecap:square;stroke-linejoin:miter;stroke-width:0.8;"/>
   </g>
   <g id="patch_6">
    <path d="M 51.378125 7.2 
L 386.178125 7.2 
" style="fill:none;stroke:#000000;stroke-linecap:square;stroke-linejoin:miter;stroke-width:0.8;"/>
   </g>
   <g id="legend_1">
    <g id="patch_7">
     <path d="M 297.94375 44.55625 
L 379.178125 44.55625 
Q 381.178125 44.55625 381.178125 42.55625 
L 381.178125 14.2 
Q 381.178125 12.2 379.178125 12.2 
L 297.94375 12.2 
Q 295.94375 12.2 295.94375 14.2 
L 295.94375 42.55625 
Q 295.94375 44.55625 297.94375 44.55625 
z
" style="fill:#ffffff;opacity:0.8;stroke:#cccccc;stroke-linejoin:miter;"/>
    </g>
    <g id="line2d_61">
     <path d="M 299.94375 20.298438 
L 319.94375 20.298438 
" style="fill:none;stroke:#1f77b4;stroke-linecap:square;stroke-width:1.5;"/>
    </g>
    <g id="line2d_62"/>
    <g id="text_17">
     <!-- train -->
     <g transform="translate(327.94375 23.798438)scale(0.1 -0.1)">
      <defs>
       <path d="M 18.3125 70.21875 
L 18.3125 54.6875 
L 36.8125 54.6875 
L 36.8125 47.703125 
L 18.3125 47.703125 
L 18.3125 18.015625 
Q 18.3125 11.328125 20.140625 9.421875 
Q 21.96875 7.515625 27.59375 7.515625 
L 36.8125 7.515625 
L 36.8125 0 
L 27.59375 0 
Q 17.1875 0 13.234375 3.875 
Q 9.28125 7.765625 9.28125 18.015625 
L 9.28125 47.703125 
L 2.6875 47.703125 
L 2.6875 54.6875 
L 9.28125 54.6875 
L 9.28125 70.21875 
z
" id="DejaVuSans-116"/>
       <path d="M 41.109375 46.296875 
Q 39.59375 47.171875 37.8125 47.578125 
Q 36.03125 48 33.890625 48 
Q 26.265625 48 22.1875 43.046875 
Q 18.109375 38.09375 18.109375 28.8125 
L 18.109375 0 
L 9.078125 0 
L 9.078125 54.6875 
L 18.109375 54.6875 
L 18.109375 46.1875 
Q 20.953125 51.171875 25.484375 53.578125 
Q 30.03125 56 36.53125 56 
Q 37.453125 56 38.578125 55.875 
Q 39.703125 55.765625 41.0625 55.515625 
z
" id="DejaVuSans-114"/>
       <path d="M 34.28125 27.484375 
Q 23.390625 27.484375 19.1875 25 
Q 14.984375 22.515625 14.984375 16.5 
Q 14.984375 11.71875 18.140625 8.90625 
Q 21.296875 6.109375 26.703125 6.109375 
Q 34.1875 6.109375 38.703125 11.40625 
Q 43.21875 16.703125 43.21875 25.484375 
L 43.21875 27.484375 
z
M 52.203125 31.203125 
L 52.203125 0 
L 43.21875 0 
L 43.21875 8.296875 
Q 40.140625 3.328125 35.546875 0.953125 
Q 30.953125 -1.421875 24.3125 -1.421875 
Q 15.921875 -1.421875 10.953125 3.296875 
Q 6 8.015625 6 15.921875 
Q 6 25.140625 12.171875 29.828125 
Q 18.359375 34.515625 30.609375 34.515625 
L 43.21875 34.515625 
L 43.21875 35.40625 
Q 43.21875 41.609375 39.140625 45 
Q 35.0625 48.390625 27.6875 48.390625 
Q 23 48.390625 18.546875 47.265625 
Q 14.109375 46.140625 10.015625 43.890625 
L 10.015625 52.203125 
Q 14.9375 54.109375 19.578125 55.046875 
Q 24.21875 56 28.609375 56 
Q 40.484375 56 46.34375 49.84375 
Q 52.203125 43.703125 52.203125 31.203125 
z
" id="DejaVuSans-97"/>
       <path d="M 9.421875 54.6875 
L 18.40625 54.6875 
L 18.40625 0 
L 9.421875 0 
z
M 9.421875 75.984375 
L 18.40625 75.984375 
L 18.40625 64.59375 
L 9.421875 64.59375 
z
" id="DejaVuSans-105"/>
       <path d="M 54.890625 33.015625 
L 54.890625 0 
L 45.90625 0 
L 45.90625 32.71875 
Q 45.90625 40.484375 42.875 44.328125 
Q 39.84375 48.1875 33.796875 48.1875 
Q 26.515625 48.1875 22.3125 43.546875 
Q 18.109375 38.921875 18.109375 30.90625 
L 18.109375 0 
L 9.078125 0 
L 9.078125 54.6875 
L 18.109375 54.6875 
L 18.109375 46.1875 
Q 21.34375 51.125 25.703125 53.5625 
Q 30.078125 56 35.796875 56 
Q 45.21875 56 50.046875 50.171875 
Q 54.890625 44.34375 54.890625 33.015625 
z
" id="DejaVuSans-110"/>
      </defs>
      <use xlink:href="#DejaVuSans-116"/>
      <use x="39.208984" xlink:href="#DejaVuSans-114"/>
      <use x="80.322266" xlink:href="#DejaVuSans-97"/>
      <use x="141.601562" xlink:href="#DejaVuSans-105"/>
      <use x="169.384766" xlink:href="#DejaVuSans-110"/>
     </g>
    </g>
    <g id="line2d_63">
     <path d="M 299.94375 34.976562 
L 319.94375 34.976562 
" style="fill:none;stroke:#ff7f0e;stroke-linecap:square;stroke-width:1.5;"/>
    </g>
    <g id="line2d_64"/>
    <g id="text_18">
     <!-- validation -->
     <g transform="translate(327.94375 38.476562)scale(0.1 -0.1)">
      <defs>
       <path d="M 2.984375 54.6875 
L 12.5 54.6875 
L 29.59375 8.796875 
L 46.6875 54.6875 
L 56.203125 54.6875 
L 35.6875 0 
L 23.484375 0 
z
" id="DejaVuSans-118"/>
       <path d="M 45.40625 46.390625 
L 45.40625 75.984375 
L 54.390625 75.984375 
L 54.390625 0 
L 45.40625 0 
L 45.40625 8.203125 
Q 42.578125 3.328125 38.25 0.953125 
Q 33.9375 -1.421875 27.875 -1.421875 
Q 17.96875 -1.421875 11.734375 6.484375 
Q 5.515625 14.40625 5.515625 27.296875 
Q 5.515625 40.1875 11.734375 48.09375 
Q 17.96875 56 27.875 56 
Q 33.9375 56 38.25 53.625 
Q 42.578125 51.265625 45.40625 46.390625 
z
M 14.796875 27.296875 
Q 14.796875 17.390625 18.875 11.75 
Q 22.953125 6.109375 30.078125 6.109375 
Q 37.203125 6.109375 41.296875 11.75 
Q 45.40625 17.390625 45.40625 27.296875 
Q 45.40625 37.203125 41.296875 42.84375 
Q 37.203125 48.484375 30.078125 48.484375 
Q 22.953125 48.484375 18.875 42.84375 
Q 14.796875 37.203125 14.796875 27.296875 
z
" id="DejaVuSans-100"/>
      </defs>
      <use xlink:href="#DejaVuSans-118"/>
      <use x="59.179688" xlink:href="#DejaVuSans-97"/>
      <use x="120.458984" xlink:href="#DejaVuSans-108"/>
      <use x="148.242188" xlink:href="#DejaVuSans-105"/>
      <use x="176.025391" xlink:href="#DejaVuSans-100"/>
      <use x="239.501953" xlink:href="#DejaVuSans-97"/>
      <use x="300.78125" xlink:href="#DejaVuSans-116"/>
      <use x="339.990234" xlink:href="#DejaVuSans-105"/>
      <use x="367.773438" xlink:href="#DejaVuSans-111"/>
      <use x="428.955078" xlink:href="#DejaVuSans-110"/>
     </g>
    </g>
   </g>
  </g>
 </g>
 <defs>
  <clipPath id="pd5c82d91c6">
   <rect height="217.44" width="334.8" x="51.378125" y="7.2"/>
  </clipPath>
 </defs>
</svg>
