<?xml version="1.0" encoding="utf-8" standalone="no"?>
<!DOCTYPE svg PUBLIC "-//W3C//DTD SVG 1.1//EN"
  "http://www.w3.org/Graphics/SVG/1.1/DTD/svg11.dtd">
<!-- Created with matplotlib (https://matplotlib.org/) -->
<svg height="262.218125pt" version="1.1" viewBox="0 0 387.903125 262.218125" width="387.903125pt" xmlns="http://www.w3.org/2000/svg" xmlns:xlink="http://www.w3.org/1999/xlink">
 <metadata>
  <rdf:RDF xmlns:cc="http://creativecommons.org/ns#" xmlns:dc="http://purl.org/dc/elements/1.1/" xmlns:rdf="http://www.w3.org/1999/02/22-rdf-syntax-ns#">
   <cc:Work>
    <dc:type rdf:resource="http://purl.org/dc/dcmitype/StillImage"/>
    <dc:date>2021-12-08T10:29:49.069486</dc:date>
    <dc:format>image/svg+xml</dc:format>
    <dc:creator>
     <cc:Agent>
      <dc:title>Matplotlib v3.3.3, https://matplotlib.org/</dc:title>
     </cc:Agent>
    </dc:creator>
   </cc:Work>
  </rdf:RDF>
 </metadata>
 <defs>
  <style type="text/css">*{stroke-linecap:butt;stroke-linejoin:round;}</style>
 </defs>
 <g id="figure_1">
  <g id="patch_1">
   <path d="M 0 262.218125 
L 387.903125 262.218125 
L 387.903125 0 
L 0 0 
z
" style="fill:none;"/>
  </g>
  <g id="axes_1">
   <g id="patch_2">
    <path d="M 45.903125 224.64 
L 380.703125 224.64 
L 380.703125 7.2 
L 45.903125 7.2 
z
" style="fill:#ffffff;"/>
   </g>
   <g id="matplotlib.axis_1">
    <g id="xtick_1">
     <g id="line2d_1">
      <defs>
       <path d="M 0 0 
L 0 3.5 
" id="mf4c6443b93" style="stroke:#000000;stroke-width:0.8;"/>
      </defs>
      <g>
       <use style="stroke:#000000;stroke-width:0.8;" x="61.121307" xlink:href="#mf4c6443b93" y="224.64"/>
      </g>
     </g>
     <g id="text_1">
      <!-- 0 -->
      <g transform="translate(57.940057 239.238437)scale(0.1 -0.1)">
       <defs>
        <path d="M 31.78125 66.40625 
Q 24.171875 66.40625 20.328125 58.90625 
Q 16.5 51.421875 16.5 36.375 
Q 16.5 21.390625 20.328125 13.890625 
Q 24.171875 6.390625 31.78125 6.390625 
Q 39.453125 6.390625 43.28125 13.890625 
Q 47.125 21.390625 47.125 36.375 
Q 47.125 51.421875 43.28125 58.90625 
Q 39.453125 66.40625 31.78125 66.40625 
z
M 31.78125 74.21875 
Q 44.046875 74.21875 50.515625 64.515625 
Q 56.984375 54.828125 56.984375 36.375 
Q 56.984375 17.96875 50.515625 8.265625 
Q 44.046875 -1.421875 31.78125 -1.421875 
Q 19.53125 -1.421875 13.0625 8.265625 
Q 6.59375 17.96875 6.59375 36.375 
Q 6.59375 54.828125 13.0625 64.515625 
Q 19.53125 74.21875 31.78125 74.21875 
z
" id="DejaVuSans-48"/>
       </defs>
       <use xlink:href="#DejaVuSans-48"/>
      </g>
     </g>
    </g>
    <g id="xtick_2">
     <g id="line2d_2">
      <g>
       <use style="stroke:#000000;stroke-width:0.8;" x="101.703125" xlink:href="#mf4c6443b93" y="224.64"/>
      </g>
     </g>
     <g id="text_2">
      <!-- 2 -->
      <g transform="translate(98.521875 239.238437)scale(0.1 -0.1)">
       <defs>
        <path d="M 19.1875 8.296875 
L 53.609375 8.296875 
L 53.609375 0 
L 7.328125 0 
L 7.328125 8.296875 
Q 12.9375 14.109375 22.625 23.890625 
Q 32.328125 33.6875 34.8125 36.53125 
Q 39.546875 41.84375 41.421875 45.53125 
Q 43.3125 49.21875 43.3125 52.78125 
Q 43.3125 58.59375 39.234375 62.25 
Q 35.15625 65.921875 28.609375 65.921875 
Q 23.96875 65.921875 18.8125 64.3125 
Q 13.671875 62.703125 7.8125 59.421875 
L 7.8125 69.390625 
Q 13.765625 71.78125 18.9375 73 
Q 24.125 74.21875 28.421875 74.21875 
Q 39.75 74.21875 46.484375 68.546875 
Q 53.21875 62.890625 53.21875 53.421875 
Q 53.21875 48.921875 51.53125 44.890625 
Q 49.859375 40.875 45.40625 35.40625 
Q 44.1875 33.984375 37.640625 27.21875 
Q 31.109375 20.453125 19.1875 8.296875 
z
" id="DejaVuSans-50"/>
       </defs>
       <use xlink:href="#DejaVuSans-50"/>
      </g>
     </g>
    </g>
    <g id="xtick_3">
     <g id="line2d_3">
      <g>
       <use style="stroke:#000000;stroke-width:0.8;" x="142.284943" xlink:href="#mf4c6443b93" y="224.64"/>
      </g>
     </g>
     <g id="text_3">
      <!-- 4 -->
      <g transform="translate(139.103693 239.238437)scale(0.1 -0.1)">
       <defs>
        <path d="M 37.796875 64.3125 
L 12.890625 25.390625 
L 37.796875 25.390625 
z
M 35.203125 72.90625 
L 47.609375 72.90625 
L 47.609375 25.390625 
L 58.015625 25.390625 
L 58.015625 17.1875 
L 47.609375 17.1875 
L 47.609375 0 
L 37.796875 0 
L 37.796875 17.1875 
L 4.890625 17.1875 
L 4.890625 26.703125 
z
" id="DejaVuSans-52"/>
       </defs>
       <use xlink:href="#DejaVuSans-52"/>
      </g>
     </g>
    </g>
    <g id="xtick_4">
     <g id="line2d_4">
      <g>
       <use style="stroke:#000000;stroke-width:0.8;" x="182.866761" xlink:href="#mf4c6443b93" y="224.64"/>
      </g>
     </g>
     <g id="text_4">
      <!-- 6 -->
      <g transform="translate(179.685511 239.238437)scale(0.1 -0.1)">
       <defs>
        <path d="M 33.015625 40.375 
Q 26.375 40.375 22.484375 35.828125 
Q 18.609375 31.296875 18.609375 23.390625 
Q 18.609375 15.53125 22.484375 10.953125 
Q 26.375 6.390625 33.015625 6.390625 
Q 39.65625 6.390625 43.53125 10.953125 
Q 47.40625 15.53125 47.40625 23.390625 
Q 47.40625 31.296875 43.53125 35.828125 
Q 39.65625 40.375 33.015625 40.375 
z
M 52.59375 71.296875 
L 52.59375 62.3125 
Q 48.875 64.0625 45.09375 64.984375 
Q 41.3125 65.921875 37.59375 65.921875 
Q 27.828125 65.921875 22.671875 59.328125 
Q 17.53125 52.734375 16.796875 39.40625 
Q 19.671875 43.65625 24.015625 45.921875 
Q 28.375 48.1875 33.59375 48.1875 
Q 44.578125 48.1875 50.953125 41.515625 
Q 57.328125 34.859375 57.328125 23.390625 
Q 57.328125 12.15625 50.6875 5.359375 
Q 44.046875 -1.421875 33.015625 -1.421875 
Q 20.359375 -1.421875 13.671875 8.265625 
Q 6.984375 17.96875 6.984375 36.375 
Q 6.984375 53.65625 15.1875 63.9375 
Q 23.390625 74.21875 37.203125 74.21875 
Q 40.921875 74.21875 44.703125 73.484375 
Q 48.484375 72.75 52.59375 71.296875 
z
" id="DejaVuSans-54"/>
       </defs>
       <use xlink:href="#DejaVuSans-54"/>
      </g>
     </g>
    </g>
    <g id="xtick_5">
     <g id="line2d_5">
      <g>
       <use style="stroke:#000000;stroke-width:0.8;" x="223.44858" xlink:href="#mf4c6443b93" y="224.64"/>
      </g>
     </g>
     <g id="text_5">
      <!-- 8 -->
      <g transform="translate(220.26733 239.238437)scale(0.1 -0.1)">
       <defs>
        <path d="M 31.78125 34.625 
Q 24.75 34.625 20.71875 30.859375 
Q 16.703125 27.09375 16.703125 20.515625 
Q 16.703125 13.921875 20.71875 10.15625 
Q 24.75 6.390625 31.78125 6.390625 
Q 38.8125 6.390625 42.859375 10.171875 
Q 46.921875 13.96875 46.921875 20.515625 
Q 46.921875 27.09375 42.890625 30.859375 
Q 38.875 34.625 31.78125 34.625 
z
M 21.921875 38.8125 
Q 15.578125 40.375 12.03125 44.71875 
Q 8.5 49.078125 8.5 55.328125 
Q 8.5 64.0625 14.71875 69.140625 
Q 20.953125 74.21875 31.78125 74.21875 
Q 42.671875 74.21875 48.875 69.140625 
Q 55.078125 64.0625 55.078125 55.328125 
Q 55.078125 49.078125 51.53125 44.71875 
Q 48 40.375 41.703125 38.8125 
Q 48.828125 37.15625 52.796875 32.3125 
Q 56.78125 27.484375 56.78125 20.515625 
Q 56.78125 9.90625 50.3125 4.234375 
Q 43.84375 -1.421875 31.78125 -1.421875 
Q 19.734375 -1.421875 13.25 4.234375 
Q 6.78125 9.90625 6.78125 20.515625 
Q 6.78125 27.484375 10.78125 32.3125 
Q 14.796875 37.15625 21.921875 38.8125 
z
M 18.3125 54.390625 
Q 18.3125 48.734375 21.84375 45.5625 
Q 25.390625 42.390625 31.78125 42.390625 
Q 38.140625 42.390625 41.71875 45.5625 
Q 45.3125 48.734375 45.3125 54.390625 
Q 45.3125 60.0625 41.71875 63.234375 
Q 38.140625 66.40625 31.78125 66.40625 
Q 25.390625 66.40625 21.84375 63.234375 
Q 18.3125 60.0625 18.3125 54.390625 
z
" id="DejaVuSans-56"/>
       </defs>
       <use xlink:href="#DejaVuSans-56"/>
      </g>
     </g>
    </g>
    <g id="xtick_6">
     <g id="line2d_6">
      <g>
       <use style="stroke:#000000;stroke-width:0.8;" x="264.030398" xlink:href="#mf4c6443b93" y="224.64"/>
      </g>
     </g>
     <g id="text_6">
      <!-- 10 -->
      <g transform="translate(257.667898 239.238437)scale(0.1 -0.1)">
       <defs>
        <path d="M 12.40625 8.296875 
L 28.515625 8.296875 
L 28.515625 63.921875 
L 10.984375 60.40625 
L 10.984375 69.390625 
L 28.421875 72.90625 
L 38.28125 72.90625 
L 38.28125 8.296875 
L 54.390625 8.296875 
L 54.390625 0 
L 12.40625 0 
z
" id="DejaVuSans-49"/>
       </defs>
       <use xlink:href="#DejaVuSans-49"/>
       <use x="63.623047" xlink:href="#DejaVuSans-48"/>
      </g>
     </g>
    </g>
    <g id="xtick_7">
     <g id="line2d_7">
      <g>
       <use style="stroke:#000000;stroke-width:0.8;" x="304.612216" xlink:href="#mf4c6443b93" y="224.64"/>
      </g>
     </g>
     <g id="text_7">
      <!-- 12 -->
      <g transform="translate(298.249716 239.238437)scale(0.1 -0.1)">
       <use xlink:href="#DejaVuSans-49"/>
       <use x="63.623047" xlink:href="#DejaVuSans-50"/>
      </g>
     </g>
    </g>
    <g id="xtick_8">
     <g id="line2d_8">
      <g>
       <use style="stroke:#000000;stroke-width:0.8;" x="345.194034" xlink:href="#mf4c6443b93" y="224.64"/>
      </g>
     </g>
     <g id="text_8">
      <!-- 14 -->
      <g transform="translate(338.831534 239.238437)scale(0.1 -0.1)">
       <use xlink:href="#DejaVuSans-49"/>
       <use x="63.623047" xlink:href="#DejaVuSans-52"/>
      </g>
     </g>
    </g>
    <g id="text_9">
     <!-- $\tilde{t}$ -->
     <g transform="translate(211.303125 252.938437)scale(0.1 -0.1)">
      <defs>
       <path d="M -25.328125 66.890625 
L -28.109375 69.578125 
Q -29.171875 70.5625 -29.984375 71.015625 
Q -30.796875 71.484375 -31.421875 71.484375 
Q -33.28125 71.484375 -34.15625 69.703125 
Q -35.03125 67.921875 -35.140625 63.921875 
L -41.234375 63.921875 
Q -41.140625 70.515625 -38.640625 74.09375 
Q -36.15625 77.6875 -31.71875 77.6875 
Q -29.859375 77.6875 -28.296875 77 
Q -26.734375 76.3125 -24.9375 74.703125 
L -22.140625 72.015625 
Q -21.078125 71.046875 -20.265625 70.578125 
Q -19.46875 70.125 -18.828125 70.125 
Q -16.96875 70.125 -16.09375 71.90625 
Q -15.21875 73.6875 -15.109375 77.6875 
L -9.015625 77.6875 
Q -9.109375 71.09375 -11.59375 67.5 
Q -14.09375 63.921875 -18.53125 63.921875 
Q -20.390625 63.921875 -21.953125 64.59375 
Q -23.515625 65.28125 -25.328125 66.890625 
z
" id="DejaVuSans-771"/>
       <path d="M 42.28125 54.6875 
L 40.921875 47.703125 
L 23 47.703125 
L 17.1875 18.015625 
Q 16.890625 16.359375 16.75 15.234375 
Q 16.609375 14.109375 16.609375 13.484375 
Q 16.609375 10.359375 18.484375 8.9375 
Q 20.359375 7.515625 24.515625 7.515625 
L 33.59375 7.515625 
L 32.078125 0 
L 23.484375 0 
Q 15.484375 0 11.546875 3.125 
Q 7.625 6.25 7.625 12.59375 
Q 7.625 13.71875 7.765625 15.0625 
Q 7.90625 16.40625 8.203125 18.015625 
L 14.015625 47.703125 
L 6.390625 47.703125 
L 7.8125 54.6875 
L 15.28125 54.6875 
L 18.3125 70.21875 
L 27.296875 70.21875 
L 24.3125 54.6875 
z
" id="DejaVuSans-Oblique-116"/>
      </defs>
      <use transform="translate(50.036621 19.3125)" xlink:href="#DejaVuSans-771"/>
      <use transform="translate(0 0.515625)" xlink:href="#DejaVuSans-Oblique-116"/>
     </g>
    </g>
   </g>
   <g id="matplotlib.axis_2">
    <g id="ytick_1">
     <g id="line2d_9">
      <defs>
       <path d="M 0 0 
L -3.5 0 
" id="m307db5b350" style="stroke:#000000;stroke-width:0.8;"/>
      </defs>
      <g>
       <use style="stroke:#000000;stroke-width:0.8;" x="45.903125" xlink:href="#m307db5b350" y="214.756364"/>
      </g>
     </g>
     <g id="text_10">
      <!-- 0.0 -->
      <g transform="translate(23 218.555582)scale(0.1 -0.1)">
       <defs>
        <path d="M 10.6875 12.40625 
L 21 12.40625 
L 21 0 
L 10.6875 0 
z
" id="DejaVuSans-46"/>
       </defs>
       <use xlink:href="#DejaVuSans-48"/>
       <use x="63.623047" xlink:href="#DejaVuSans-46"/>
       <use x="95.410156" xlink:href="#DejaVuSans-48"/>
      </g>
     </g>
    </g>
    <g id="ytick_2">
     <g id="line2d_10">
      <g>
       <use style="stroke:#000000;stroke-width:0.8;" x="45.903125" xlink:href="#m307db5b350" y="179.282786"/>
      </g>
     </g>
     <g id="text_11">
      <!-- 0.5 -->
      <g transform="translate(23 183.082005)scale(0.1 -0.1)">
       <defs>
        <path d="M 10.796875 72.90625 
L 49.515625 72.90625 
L 49.515625 64.59375 
L 19.828125 64.59375 
L 19.828125 46.734375 
Q 21.96875 47.46875 24.109375 47.828125 
Q 26.265625 48.1875 28.421875 48.1875 
Q 40.625 48.1875 47.75 41.5 
Q 54.890625 34.8125 54.890625 23.390625 
Q 54.890625 11.625 47.5625 5.09375 
Q 40.234375 -1.421875 26.90625 -1.421875 
Q 22.3125 -1.421875 17.546875 -0.640625 
Q 12.796875 0.140625 7.71875 1.703125 
L 7.71875 11.625 
Q 12.109375 9.234375 16.796875 8.0625 
Q 21.484375 6.890625 26.703125 6.890625 
Q 35.15625 6.890625 40.078125 11.328125 
Q 45.015625 15.765625 45.015625 23.390625 
Q 45.015625 31 40.078125 35.4375 
Q 35.15625 39.890625 26.703125 39.890625 
Q 22.75 39.890625 18.8125 39.015625 
Q 14.890625 38.140625 10.796875 36.28125 
z
" id="DejaVuSans-53"/>
       </defs>
       <use xlink:href="#DejaVuSans-48"/>
       <use x="63.623047" xlink:href="#DejaVuSans-46"/>
       <use x="95.410156" xlink:href="#DejaVuSans-53"/>
      </g>
     </g>
    </g>
    <g id="ytick_3">
     <g id="line2d_11">
      <g>
       <use style="stroke:#000000;stroke-width:0.8;" x="45.903125" xlink:href="#m307db5b350" y="143.809209"/>
      </g>
     </g>
     <g id="text_12">
      <!-- 1.0 -->
      <g transform="translate(23 147.608428)scale(0.1 -0.1)">
       <use xlink:href="#DejaVuSans-49"/>
       <use x="63.623047" xlink:href="#DejaVuSans-46"/>
       <use x="95.410156" xlink:href="#DejaVuSans-48"/>
      </g>
     </g>
    </g>
    <g id="ytick_4">
     <g id="line2d_12">
      <g>
       <use style="stroke:#000000;stroke-width:0.8;" x="45.903125" xlink:href="#m307db5b350" y="108.335632"/>
      </g>
     </g>
     <g id="text_13">
      <!-- 1.5 -->
      <g transform="translate(23 112.134851)scale(0.1 -0.1)">
       <use xlink:href="#DejaVuSans-49"/>
       <use x="63.623047" xlink:href="#DejaVuSans-46"/>
       <use x="95.410156" xlink:href="#DejaVuSans-53"/>
      </g>
     </g>
    </g>
    <g id="ytick_5">
     <g id="line2d_13">
      <g>
       <use style="stroke:#000000;stroke-width:0.8;" x="45.903125" xlink:href="#m307db5b350" y="72.862055"/>
      </g>
     </g>
     <g id="text_14">
      <!-- 2.0 -->
      <g transform="translate(23 76.661273)scale(0.1 -0.1)">
       <use xlink:href="#DejaVuSans-50"/>
       <use x="63.623047" xlink:href="#DejaVuSans-46"/>
       <use x="95.410156" xlink:href="#DejaVuSans-48"/>
      </g>
     </g>
    </g>
    <g id="ytick_6">
     <g id="line2d_14">
      <g>
       <use style="stroke:#000000;stroke-width:0.8;" x="45.903125" xlink:href="#m307db5b350" y="37.388477"/>
      </g>
     </g>
     <g id="text_15">
      <!-- 2.5 -->
      <g transform="translate(23 41.187696)scale(0.1 -0.1)">
       <use xlink:href="#DejaVuSans-50"/>
       <use x="63.623047" xlink:href="#DejaVuSans-46"/>
       <use x="95.410156" xlink:href="#DejaVuSans-53"/>
      </g>
     </g>
    </g>
    <g id="text_16">
     <!-- $\tilde{U}_b$ -->
     <g transform="translate(16.920313 122.02)rotate(-90)scale(0.1 -0.1)">
      <defs>
       <path d="M 15.484375 72.90625 
L 25.390625 72.90625 
L 16.796875 28.609375 
Q 16.265625 25.640625 16.046875 23.703125 
Q 15.828125 21.78125 15.828125 20.3125 
Q 15.828125 13.578125 19.578125 10.078125 
Q 23.34375 6.59375 30.609375 6.59375 
Q 40.046875 6.59375 45.28125 11.765625 
Q 50.53125 16.9375 52.78125 28.609375 
L 61.375 72.90625 
L 71.296875 72.90625 
L 62.5 27.390625 
Q 59.625 12.640625 51.5625 5.609375 
Q 43.5 -1.421875 29.5 -1.421875 
Q 18.5625 -1.421875 12.1875 4.078125 
Q 5.8125 9.578125 5.8125 19 
Q 5.8125 20.703125 6.046875 22.828125 
Q 6.296875 24.953125 6.78125 27.390625 
z
" id="DejaVuSans-Oblique-85"/>
       <path d="M 49.515625 33.40625 
Q 49.515625 40.484375 46.265625 44.484375 
Q 43.015625 48.484375 37.3125 48.484375 
Q 33.15625 48.484375 29.515625 46.453125 
Q 25.875 44.4375 23.1875 40.578125 
Q 20.359375 36.53125 18.71875 31.171875 
Q 17.09375 25.828125 17.09375 20.515625 
Q 17.09375 13.765625 20.28125 9.9375 
Q 23.484375 6.109375 29.109375 6.109375 
Q 33.34375 6.109375 36.953125 8.078125 
Q 40.578125 10.0625 43.3125 13.921875 
Q 46.09375 17.921875 47.796875 23.234375 
Q 49.515625 28.5625 49.515625 33.40625 
z
M 21.578125 46.390625 
Q 24.90625 50.875 29.90625 53.4375 
Q 34.90625 56 40.375 56 
Q 48.78125 56 53.734375 50.328125 
Q 58.6875 44.671875 58.6875 35.015625 
Q 58.6875 27.09375 55.78125 19.671875 
Q 52.875 12.25 47.515625 6.5 
Q 44 2.6875 39.40625 0.625 
Q 34.8125 -1.421875 29.78125 -1.421875 
Q 24.46875 -1.421875 20.5625 1.015625 
Q 16.65625 3.46875 14.203125 8.296875 
L 12.59375 0 
L 3.609375 0 
L 18.40625 75.984375 
L 27.390625 75.984375 
z
" id="DejaVuSans-Oblique-98"/>
      </defs>
      <use transform="translate(70.532715 22.3125)" xlink:href="#DejaVuSans-771"/>
      <use transform="translate(0 0.828125)" xlink:href="#DejaVuSans-Oblique-85"/>
      <use transform="translate(74.150391 -15.578125)scale(0.7)" xlink:href="#DejaVuSans-Oblique-98"/>
     </g>
    </g>
   </g>
   <g id="line2d_15">
    <path clip-path="url(#p28862ab0b5)" d="M 61.121307 214.113435 
L 64.195687 194.488995 
L 67.270067 174.888786 
L 70.344447 156.542783 
L 73.418827 141.159056 
L 76.493208 127.717337 
L 79.567588 114.088698 
L 82.641968 103.972991 
L 85.716348 95.549912 
L 88.790728 87.126833 
L 91.865108 79.718523 
L 94.939489 73.585325 
L 98.013869 68.620768 
L 101.088249 63.65621 
L 104.162629 59.424764 
L 107.237009 55.56927 
L 110.311389 52.317946 
L 113.38577 49.368576 
L 116.46015 47.073448 
L 119.53453 44.77832 
L 122.60891 42.483192 
L 125.68329 40.188065 
L 128.75767 38.676547 
L 131.832051 37.347354 
L 134.906431 36.106539 
L 137.980811 34.865724 
L 141.055191 33.624909 
L 144.129571 32.384094 
L 147.203951 31.159821 
L 150.278332 30.362782 
L 153.352712 29.671723 
L 156.427092 28.980665 
L 159.501472 28.312593 
L 162.575852 27.661063 
L 165.650232 27.042118 
L 168.724613 26.478457 
L 171.798993 25.854916 
L 174.873373 25.235939 
L 177.947753 24.856248 
L 181.022133 24.502756 
L 184.096513 24.149263 
L 187.170894 23.79577 
L 190.245274 23.442278 
L 193.319654 23.088785 
L 196.394034 22.735293 
L 199.468414 22.480239 
L 202.542794 22.243553 
L 205.617175 22.006867 
L 208.691555 21.795116 
L 211.765935 21.611604 
L 214.840315 21.428091 
L 217.914695 21.244579 
L 220.989075 21.061067 
L 224.063456 20.877554 
L 227.137836 20.694042 
L 230.212216 20.51053 
L 233.286596 20.327017 
L 236.360976 20.087834 
L 239.435356 19.809589 
L 242.509737 19.726641 
L 245.584117 19.682603 
L 248.658497 19.638565 
L 251.732877 19.594528 
L 254.807257 19.55049 
L 257.881637 19.506452 
L 260.956018 19.462414 
L 264.030398 19.418376 
L 267.104778 19.374339 
L 270.179158 19.330301 
L 273.253538 19.286263 
L 276.327918 19.242225 
L 279.402299 19.198188 
L 282.476679 19.15415 
L 285.551059 19.110112 
L 288.625439 19.066074 
L 291.699819 19.022037 
L 294.774199 18.977999 
L 297.84858 18.933961 
L 300.92296 18.889923 
L 303.99734 18.845886 
L 307.07172 18.801848 
L 310.1461 18.75781 
L 313.22048 18.713772 
L 316.294861 18.669734 
L 319.369241 18.625697 
L 322.443621 18.581659 
L 325.518001 18.537621 
L 328.592381 18.493583 
L 331.666761 18.449546 
L 334.741142 18.405508 
L 337.815522 18.36147 
L 340.889902 18.317432 
L 343.964282 18.273395 
L 347.038662 18.229357 
L 350.113042 18.185319 
L 353.187423 18.141281 
L 356.261803 18.097243 
L 359.336183 18.053206 
L 362.410563 17.821484 
L 365.484943 17.083636 
" style="fill:none;stroke:#ff7f0e;stroke-linecap:square;stroke-width:1.5;"/>
   </g>
   <g id="patch_3">
    <path d="M 45.903125 224.64 
L 45.903125 7.2 
" style="fill:none;stroke:#000000;stroke-linecap:square;stroke-linejoin:miter;stroke-width:0.8;"/>
   </g>
   <g id="patch_4">
    <path d="M 380.703125 224.64 
L 380.703125 7.2 
" style="fill:none;stroke:#000000;stroke-linecap:square;stroke-linejoin:miter;stroke-width:0.8;"/>
   </g>
   <g id="patch_5">
    <path d="M 45.903125 224.64 
L 380.703125 224.64 
" style="fill:none;stroke:#000000;stroke-linecap:square;stroke-linejoin:miter;stroke-width:0.8;"/>
   </g>
   <g id="patch_6">
    <path d="M 45.903125 7.2 
L 380.703125 7.2 
" style="fill:none;stroke:#000000;stroke-linecap:square;stroke-linejoin:miter;stroke-width:0.8;"/>
   </g>
   <g id="PathCollection_1">
    <defs>
     <path d="M 0 1.118034 
C 0.296506 1.118034 0.580908 1.000231 0.790569 0.790569 
C 1.000231 0.580908 1.118034 0.296506 1.118034 0 
C 1.118034 -0.296506 1.000231 -0.580908 0.790569 -0.790569 
C 0.580908 -1.000231 0.296506 -1.118034 0 -1.118034 
C -0.296506 -1.118034 -0.580908 -1.000231 -0.790569 -0.790569 
C -1.000231 -0.580908 -1.118034 -0.296506 -1.118034 0 
C -1.118034 0.296506 -1.000231 0.580908 -0.790569 0.790569 
C -0.580908 1.000231 -0.296506 1.118034 0 1.118034 
z
" id="mbdeae88170" style="stroke:#1f77b4;"/>
    </defs>
    <g clip-path="url(#p28862ab0b5)">
     <use style="fill:#1f77b4;stroke:#1f77b4;" x="61.121307" xlink:href="#mbdeae88170" y="214.756364"/>
     <use style="fill:#1f77b4;stroke:#1f77b4;" x="64.164943" xlink:href="#mbdeae88170" y="194.166818"/>
     <use style="fill:#1f77b4;stroke:#1f77b4;" x="67.20858" xlink:href="#mbdeae88170" y="174.855913"/>
     <use style="fill:#1f77b4;stroke:#1f77b4;" x="70.252216" xlink:href="#mbdeae88170" y="157.285794"/>
     <use style="fill:#1f77b4;stroke:#1f77b4;" x="73.295852" xlink:href="#mbdeae88170" y="141.418397"/>
     <use style="fill:#1f77b4;stroke:#1f77b4;" x="76.339489" xlink:href="#mbdeae88170" y="127.8949"/>
     <use style="fill:#1f77b4;stroke:#1f77b4;" x="79.383125" xlink:href="#mbdeae88170" y="115.728518"/>
     <use style="fill:#1f77b4;stroke:#1f77b4;" x="82.426761" xlink:href="#mbdeae88170" y="104.985148"/>
     <use style="fill:#1f77b4;stroke:#1f77b4;" x="85.470398" xlink:href="#mbdeae88170" y="95.9844"/>
     <use style="fill:#1f77b4;stroke:#1f77b4;" x="88.514034" xlink:href="#mbdeae88170" y="87.62286"/>
     <use style="fill:#1f77b4;stroke:#1f77b4;" x="91.55767" xlink:href="#mbdeae88170" y="80.549325"/>
     <use style="fill:#1f77b4;stroke:#1f77b4;" x="94.601307" xlink:href="#mbdeae88170" y="74.603013"/>
     <use style="fill:#1f77b4;stroke:#1f77b4;" x="97.644943" xlink:href="#mbdeae88170" y="68.841854"/>
     <use style="fill:#1f77b4;stroke:#1f77b4;" x="100.68858" xlink:href="#mbdeae88170" y="64.154602"/>
     <use style="fill:#1f77b4;stroke:#1f77b4;" x="103.732216" xlink:href="#mbdeae88170" y="59.851289"/>
     <use style="fill:#1f77b4;stroke:#1f77b4;" x="106.775852" xlink:href="#mbdeae88170" y="56.095857"/>
     <use style="fill:#1f77b4;stroke:#1f77b4;" x="109.819489" xlink:href="#mbdeae88170" y="52.814808"/>
     <use style="fill:#1f77b4;stroke:#1f77b4;" x="112.863125" xlink:href="#mbdeae88170" y="50.000395"/>
     <use style="fill:#1f77b4;stroke:#1f77b4;" x="115.906761" xlink:href="#mbdeae88170" y="47.259829"/>
     <use style="fill:#1f77b4;stroke:#1f77b4;" x="118.950398" xlink:href="#mbdeae88170" y="45.094484"/>
     <use style="fill:#1f77b4;stroke:#1f77b4;" x="121.994034" xlink:href="#mbdeae88170" y="42.861227"/>
     <use style="fill:#1f77b4;stroke:#1f77b4;" x="125.03767" xlink:href="#mbdeae88170" y="40.901674"/>
     <use style="fill:#1f77b4;stroke:#1f77b4;" x="128.081307" xlink:href="#mbdeae88170" y="39.29469"/>
     <use style="fill:#1f77b4;stroke:#1f77b4;" x="131.124943" xlink:href="#mbdeae88170" y="37.725379"/>
     <use style="fill:#1f77b4;stroke:#1f77b4;" x="134.16858" xlink:href="#mbdeae88170" y="36.209038"/>
     <use style="fill:#1f77b4;stroke:#1f77b4;" x="137.212216" xlink:href="#mbdeae88170" y="34.954032"/>
     <use style="fill:#1f77b4;stroke:#1f77b4;" x="140.255852" xlink:href="#mbdeae88170" y="33.828113"/>
     <use style="fill:#1f77b4;stroke:#1f77b4;" x="143.299489" xlink:href="#mbdeae88170" y="32.746054"/>
     <use style="fill:#1f77b4;stroke:#1f77b4;" x="146.343125" xlink:href="#mbdeae88170" y="31.581603"/>
     <use style="fill:#1f77b4;stroke:#1f77b4;" x="149.386761" xlink:href="#mbdeae88170" y="30.7903"/>
     <use style="fill:#1f77b4;stroke:#1f77b4;" x="152.430398" xlink:href="#mbdeae88170" y="29.85551"/>
     <use style="fill:#1f77b4;stroke:#1f77b4;" x="155.474034" xlink:href="#mbdeae88170" y="29.01119"/>
     <use style="fill:#1f77b4;stroke:#1f77b4;" x="158.51767" xlink:href="#mbdeae88170" y="28.390221"/>
     <use style="fill:#1f77b4;stroke:#1f77b4;" x="161.561307" xlink:href="#mbdeae88170" y="27.902681"/>
     <use style="fill:#1f77b4;stroke:#1f77b4;" x="164.604943" xlink:href="#mbdeae88170" y="27.148113"/>
     <use style="fill:#1f77b4;stroke:#1f77b4;" x="167.64858" xlink:href="#mbdeae88170" y="26.468774"/>
     <use style="fill:#1f77b4;stroke:#1f77b4;" x="170.692216" xlink:href="#mbdeae88170" y="26.260781"/>
     <use style="fill:#1f77b4;stroke:#1f77b4;" x="173.735852" xlink:href="#mbdeae88170" y="25.547216"/>
     <use style="fill:#1f77b4;stroke:#1f77b4;" x="176.779489" xlink:href="#mbdeae88170" y="24.678142"/>
     <use style="fill:#1f77b4;stroke:#1f77b4;" x="179.823125" xlink:href="#mbdeae88170" y="24.654632"/>
     <use style="fill:#1f77b4;stroke:#1f77b4;" x="182.866761" xlink:href="#mbdeae88170" y="24.528887"/>
     <use style="fill:#1f77b4;stroke:#1f77b4;" x="185.910398" xlink:href="#mbdeae88170" y="23.789072"/>
     <use style="fill:#1f77b4;stroke:#1f77b4;" x="188.954034" xlink:href="#mbdeae88170" y="23.652437"/>
     <use style="fill:#1f77b4;stroke:#1f77b4;" x="191.99767" xlink:href="#mbdeae88170" y="23.658962"/>
     <use style="fill:#1f77b4;stroke:#1f77b4;" x="195.041307" xlink:href="#mbdeae88170" y="22.816532"/>
     <use style="fill:#1f77b4;stroke:#1f77b4;" x="198.084943" xlink:href="#mbdeae88170" y="22.400418"/>
     <use style="fill:#1f77b4;stroke:#1f77b4;" x="201.12858" xlink:href="#mbdeae88170" y="22.545667"/>
     <use style="fill:#1f77b4;stroke:#1f77b4;" x="204.172216" xlink:href="#mbdeae88170" y="22.141379"/>
     <use style="fill:#1f77b4;stroke:#1f77b4;" x="207.215852" xlink:href="#mbdeae88170" y="21.377551"/>
     <use style="fill:#1f77b4;stroke:#1f77b4;" x="210.259489" xlink:href="#mbdeae88170" y="21.594175"/>
     <use style="fill:#1f77b4;stroke:#1f77b4;" x="213.303125" xlink:href="#mbdeae88170" y="21.853054"/>
     <use style="fill:#1f77b4;stroke:#1f77b4;" x="216.346761" xlink:href="#mbdeae88170" y="20.99784"/>
     <use style="fill:#1f77b4;stroke:#1f77b4;" x="219.390398" xlink:href="#mbdeae88170" y="20.957685"/>
     <use style="fill:#1f77b4;stroke:#1f77b4;" x="222.434034" xlink:href="#mbdeae88170" y="21.245505"/>
     <use style="fill:#1f77b4;stroke:#1f77b4;" x="225.47767" xlink:href="#mbdeae88170" y="20.630652"/>
     <use style="fill:#1f77b4;stroke:#1f77b4;" x="228.521307" xlink:href="#mbdeae88170" y="20.412044"/>
     <use style="fill:#1f77b4;stroke:#1f77b4;" x="231.564943" xlink:href="#mbdeae88170" y="20.808159"/>
     <use style="fill:#1f77b4;stroke:#1f77b4;" x="234.60858" xlink:href="#mbdeae88170" y="20.47148"/>
     <use style="fill:#1f77b4;stroke:#1f77b4;" x="237.652216" xlink:href="#mbdeae88170" y="19.706001"/>
     <use style="fill:#1f77b4;stroke:#1f77b4;" x="240.695852" xlink:href="#mbdeae88170" y="20.188961"/>
     <use style="fill:#1f77b4;stroke:#1f77b4;" x="243.739489" xlink:href="#mbdeae88170" y="20.374"/>
     <use style="fill:#1f77b4;stroke:#1f77b4;" x="246.783125" xlink:href="#mbdeae88170" y="19.484215"/>
     <use style="fill:#1f77b4;stroke:#1f77b4;" x="249.826761" xlink:href="#mbdeae88170" y="19.708562"/>
     <use style="fill:#1f77b4;stroke:#1f77b4;" x="252.870398" xlink:href="#mbdeae88170" y="20.196801"/>
     <use style="fill:#1f77b4;stroke:#1f77b4;" x="255.914034" xlink:href="#mbdeae88170" y="19.55823"/>
     <use style="fill:#1f77b4;stroke:#1f77b4;" x="258.95767" xlink:href="#mbdeae88170" y="19.109185"/>
     <use style="fill:#1f77b4;stroke:#1f77b4;" x="262.001307" xlink:href="#mbdeae88170" y="19.79388"/>
     <use style="fill:#1f77b4;stroke:#1f77b4;" x="265.044943" xlink:href="#mbdeae88170" y="19.566858"/>
     <use style="fill:#1f77b4;stroke:#1f77b4;" x="268.08858" xlink:href="#mbdeae88170" y="18.857631"/>
     <use style="fill:#1f77b4;stroke:#1f77b4;" x="271.132216" xlink:href="#mbdeae88170" y="19.258422"/>
     <use style="fill:#1f77b4;stroke:#1f77b4;" x="274.175852" xlink:href="#mbdeae88170" y="19.488642"/>
     <use style="fill:#1f77b4;stroke:#1f77b4;" x="277.219489" xlink:href="#mbdeae88170" y="18.883194"/>
     <use style="fill:#1f77b4;stroke:#1f77b4;" x="280.263125" xlink:href="#mbdeae88170" y="18.681421"/>
     <use style="fill:#1f77b4;stroke:#1f77b4;" x="283.306761" xlink:href="#mbdeae88170" y="19.430885"/>
     <use style="fill:#1f77b4;stroke:#1f77b4;" x="286.350398" xlink:href="#mbdeae88170" y="18.922141"/>
     <use style="fill:#1f77b4;stroke:#1f77b4;" x="289.394034" xlink:href="#mbdeae88170" y="18.398778"/>
     <use style="fill:#1f77b4;stroke:#1f77b4;" x="292.43767" xlink:href="#mbdeae88170" y="19.085526"/>
     <use style="fill:#1f77b4;stroke:#1f77b4;" x="295.481307" xlink:href="#mbdeae88170" y="19.123191"/>
     <use style="fill:#1f77b4;stroke:#1f77b4;" x="298.524943" xlink:href="#mbdeae88170" y="18.304893"/>
     <use style="fill:#1f77b4;stroke:#1f77b4;" x="301.56858" xlink:href="#mbdeae88170" y="18.417079"/>
     <use style="fill:#1f77b4;stroke:#1f77b4;" x="304.612216" xlink:href="#mbdeae88170" y="19.210344"/>
     <use style="fill:#1f77b4;stroke:#1f77b4;" x="307.655852" xlink:href="#mbdeae88170" y="18.478636"/>
     <use style="fill:#1f77b4;stroke:#1f77b4;" x="310.699489" xlink:href="#mbdeae88170" y="18.052915"/>
     <use style="fill:#1f77b4;stroke:#1f77b4;" x="313.743125" xlink:href="#mbdeae88170" y="18.87724"/>
     <use style="fill:#1f77b4;stroke:#1f77b4;" x="316.786761" xlink:href="#mbdeae88170" y="18.675936"/>
     <use style="fill:#1f77b4;stroke:#1f77b4;" x="319.830398" xlink:href="#mbdeae88170" y="17.869999"/>
     <use style="fill:#1f77b4;stroke:#1f77b4;" x="322.874034" xlink:href="#mbdeae88170" y="18.473401"/>
     <use style="fill:#1f77b4;stroke:#1f77b4;" x="325.91767" xlink:href="#mbdeae88170" y="19.220877"/>
     <use style="fill:#1f77b4;stroke:#1f77b4;" x="328.961307" xlink:href="#mbdeae88170" y="17.987519"/>
     <use style="fill:#1f77b4;stroke:#1f77b4;" x="332.004943" xlink:href="#mbdeae88170" y="18.065091"/>
     <use style="fill:#1f77b4;stroke:#1f77b4;" x="335.04858" xlink:href="#mbdeae88170" y="19.113216"/>
     <use style="fill:#1f77b4;stroke:#1f77b4;" x="338.092216" xlink:href="#mbdeae88170" y="18.227408"/>
     <use style="fill:#1f77b4;stroke:#1f77b4;" x="341.135852" xlink:href="#mbdeae88170" y="17.605284"/>
     <use style="fill:#1f77b4;stroke:#1f77b4;" x="344.179489" xlink:href="#mbdeae88170" y="18.795473"/>
     <use style="fill:#1f77b4;stroke:#1f77b4;" x="347.223125" xlink:href="#mbdeae88170" y="18.838724"/>
     <use style="fill:#1f77b4;stroke:#1f77b4;" x="350.266761" xlink:href="#mbdeae88170" y="17.60026"/>
     <use style="fill:#1f77b4;stroke:#1f77b4;" x="353.310398" xlink:href="#mbdeae88170" y="18.482883"/>
     <use style="fill:#1f77b4;stroke:#1f77b4;" x="356.354034" xlink:href="#mbdeae88170" y="19.117502"/>
     <use style="fill:#1f77b4;stroke:#1f77b4;" x="359.39767" xlink:href="#mbdeae88170" y="18.031045"/>
     <use style="fill:#1f77b4;stroke:#1f77b4;" x="362.441307" xlink:href="#mbdeae88170" y="17.802571"/>
    </g>
   </g>
   <g id="legend_1">
    <g id="patch_7">
     <path d="M 291.535937 219.64 
L 373.703125 219.64 
Q 375.703125 219.64 375.703125 217.64 
L 375.703125 189.28375 
Q 375.703125 187.28375 373.703125 187.28375 
L 291.535937 187.28375 
Q 289.535937 187.28375 289.535937 189.28375 
L 289.535937 217.64 
Q 289.535937 219.64 291.535937 219.64 
z
" style="fill:#ffffff;opacity:0.8;stroke:#cccccc;stroke-linejoin:miter;"/>
    </g>
    <g id="line2d_16">
     <path d="M 293.535937 195.382187 
L 313.535937 195.382187 
" style="fill:none;stroke:#ff7f0e;stroke-linecap:square;stroke-width:1.5;"/>
    </g>
    <g id="line2d_17"/>
    <g id="text_17">
     <!-- prediction -->
     <g transform="translate(321.535937 198.882187)scale(0.1 -0.1)">
      <defs>
       <path d="M 18.109375 8.203125 
L 18.109375 -20.796875 
L 9.078125 -20.796875 
L 9.078125 54.6875 
L 18.109375 54.6875 
L 18.109375 46.390625 
Q 20.953125 51.265625 25.265625 53.625 
Q 29.59375 56 35.59375 56 
Q 45.5625 56 51.78125 48.09375 
Q 58.015625 40.1875 58.015625 27.296875 
Q 58.015625 14.40625 51.78125 6.484375 
Q 45.5625 -1.421875 35.59375 -1.421875 
Q 29.59375 -1.421875 25.265625 0.953125 
Q 20.953125 3.328125 18.109375 8.203125 
z
M 48.6875 27.296875 
Q 48.6875 37.203125 44.609375 42.84375 
Q 40.53125 48.484375 33.40625 48.484375 
Q 26.265625 48.484375 22.1875 42.84375 
Q 18.109375 37.203125 18.109375 27.296875 
Q 18.109375 17.390625 22.1875 11.75 
Q 26.265625 6.109375 33.40625 6.109375 
Q 40.53125 6.109375 44.609375 11.75 
Q 48.6875 17.390625 48.6875 27.296875 
z
" id="DejaVuSans-112"/>
       <path d="M 41.109375 46.296875 
Q 39.59375 47.171875 37.8125 47.578125 
Q 36.03125 48 33.890625 48 
Q 26.265625 48 22.1875 43.046875 
Q 18.109375 38.09375 18.109375 28.8125 
L 18.109375 0 
L 9.078125 0 
L 9.078125 54.6875 
L 18.109375 54.6875 
L 18.109375 46.1875 
Q 20.953125 51.171875 25.484375 53.578125 
Q 30.03125 56 36.53125 56 
Q 37.453125 56 38.578125 55.875 
Q 39.703125 55.765625 41.0625 55.515625 
z
" id="DejaVuSans-114"/>
       <path d="M 56.203125 29.59375 
L 56.203125 25.203125 
L 14.890625 25.203125 
Q 15.484375 15.921875 20.484375 11.0625 
Q 25.484375 6.203125 34.421875 6.203125 
Q 39.59375 6.203125 44.453125 7.46875 
Q 49.3125 8.734375 54.109375 11.28125 
L 54.109375 2.78125 
Q 49.265625 0.734375 44.1875 -0.34375 
Q 39.109375 -1.421875 33.890625 -1.421875 
Q 20.796875 -1.421875 13.15625 6.1875 
Q 5.515625 13.8125 5.515625 26.8125 
Q 5.515625 40.234375 12.765625 48.109375 
Q 20.015625 56 32.328125 56 
Q 43.359375 56 49.78125 48.890625 
Q 56.203125 41.796875 56.203125 29.59375 
z
M 47.21875 32.234375 
Q 47.125 39.59375 43.09375 43.984375 
Q 39.0625 48.390625 32.421875 48.390625 
Q 24.90625 48.390625 20.390625 44.140625 
Q 15.875 39.890625 15.1875 32.171875 
z
" id="DejaVuSans-101"/>
       <path d="M 45.40625 46.390625 
L 45.40625 75.984375 
L 54.390625 75.984375 
L 54.390625 0 
L 45.40625 0 
L 45.40625 8.203125 
Q 42.578125 3.328125 38.25 0.953125 
Q 33.9375 -1.421875 27.875 -1.421875 
Q 17.96875 -1.421875 11.734375 6.484375 
Q 5.515625 14.40625 5.515625 27.296875 
Q 5.515625 40.1875 11.734375 48.09375 
Q 17.96875 56 27.875 56 
Q 33.9375 56 38.25 53.625 
Q 42.578125 51.265625 45.40625 46.390625 
z
M 14.796875 27.296875 
Q 14.796875 17.390625 18.875 11.75 
Q 22.953125 6.109375 30.078125 6.109375 
Q 37.203125 6.109375 41.296875 11.75 
Q 45.40625 17.390625 45.40625 27.296875 
Q 45.40625 37.203125 41.296875 42.84375 
Q 37.203125 48.484375 30.078125 48.484375 
Q 22.953125 48.484375 18.875 42.84375 
Q 14.796875 37.203125 14.796875 27.296875 
z
" id="DejaVuSans-100"/>
       <path d="M 9.421875 54.6875 
L 18.40625 54.6875 
L 18.40625 0 
L 9.421875 0 
z
M 9.421875 75.984375 
L 18.40625 75.984375 
L 18.40625 64.59375 
L 9.421875 64.59375 
z
" id="DejaVuSans-105"/>
       <path d="M 48.78125 52.59375 
L 48.78125 44.1875 
Q 44.96875 46.296875 41.140625 47.34375 
Q 37.3125 48.390625 33.40625 48.390625 
Q 24.65625 48.390625 19.8125 42.84375 
Q 14.984375 37.3125 14.984375 27.296875 
Q 14.984375 17.28125 19.8125 11.734375 
Q 24.65625 6.203125 33.40625 6.203125 
Q 37.3125 6.203125 41.140625 7.25 
Q 44.96875 8.296875 48.78125 10.40625 
L 48.78125 2.09375 
Q 45.015625 0.34375 40.984375 -0.53125 
Q 36.96875 -1.421875 32.421875 -1.421875 
Q 20.0625 -1.421875 12.78125 6.34375 
Q 5.515625 14.109375 5.515625 27.296875 
Q 5.515625 40.671875 12.859375 48.328125 
Q 20.21875 56 33.015625 56 
Q 37.15625 56 41.109375 55.140625 
Q 45.0625 54.296875 48.78125 52.59375 
z
" id="DejaVuSans-99"/>
       <path d="M 18.3125 70.21875 
L 18.3125 54.6875 
L 36.8125 54.6875 
L 36.8125 47.703125 
L 18.3125 47.703125 
L 18.3125 18.015625 
Q 18.3125 11.328125 20.140625 9.421875 
Q 21.96875 7.515625 27.59375 7.515625 
L 36.8125 7.515625 
L 36.8125 0 
L 27.59375 0 
Q 17.1875 0 13.234375 3.875 
Q 9.28125 7.765625 9.28125 18.015625 
L 9.28125 47.703125 
L 2.6875 47.703125 
L 2.6875 54.6875 
L 9.28125 54.6875 
L 9.28125 70.21875 
z
" id="DejaVuSans-116"/>
       <path d="M 30.609375 48.390625 
Q 23.390625 48.390625 19.1875 42.75 
Q 14.984375 37.109375 14.984375 27.296875 
Q 14.984375 17.484375 19.15625 11.84375 
Q 23.34375 6.203125 30.609375 6.203125 
Q 37.796875 6.203125 41.984375 11.859375 
Q 46.1875 17.53125 46.1875 27.296875 
Q 46.1875 37.015625 41.984375 42.703125 
Q 37.796875 48.390625 30.609375 48.390625 
z
M 30.609375 56 
Q 42.328125 56 49.015625 48.375 
Q 55.71875 40.765625 55.71875 27.296875 
Q 55.71875 13.875 49.015625 6.21875 
Q 42.328125 -1.421875 30.609375 -1.421875 
Q 18.84375 -1.421875 12.171875 6.21875 
Q 5.515625 13.875 5.515625 27.296875 
Q 5.515625 40.765625 12.171875 48.375 
Q 18.84375 56 30.609375 56 
z
" id="DejaVuSans-111"/>
       <path d="M 54.890625 33.015625 
L 54.890625 0 
L 45.90625 0 
L 45.90625 32.71875 
Q 45.90625 40.484375 42.875 44.328125 
Q 39.84375 48.1875 33.796875 48.1875 
Q 26.515625 48.1875 22.3125 43.546875 
Q 18.109375 38.921875 18.109375 30.90625 
L 18.109375 0 
L 9.078125 0 
L 9.078125 54.6875 
L 18.109375 54.6875 
L 18.109375 46.1875 
Q 21.34375 51.125 25.703125 53.5625 
Q 30.078125 56 35.796875 56 
Q 45.21875 56 50.046875 50.171875 
Q 54.890625 44.34375 54.890625 33.015625 
z
" id="DejaVuSans-110"/>
      </defs>
      <use xlink:href="#DejaVuSans-112"/>
      <use x="63.476562" xlink:href="#DejaVuSans-114"/>
      <use x="102.339844" xlink:href="#DejaVuSans-101"/>
      <use x="163.863281" xlink:href="#DejaVuSans-100"/>
      <use x="227.339844" xlink:href="#DejaVuSans-105"/>
      <use x="255.123047" xlink:href="#DejaVuSans-99"/>
      <use x="310.103516" xlink:href="#DejaVuSans-116"/>
      <use x="349.3125" xlink:href="#DejaVuSans-105"/>
      <use x="377.095703" xlink:href="#DejaVuSans-111"/>
      <use x="438.277344" xlink:href="#DejaVuSans-110"/>
     </g>
    </g>
    <g id="PathCollection_2">
     <g>
      <use style="fill:#1f77b4;stroke:#1f77b4;" x="303.535937" xlink:href="#mbdeae88170" y="210.935312"/>
     </g>
    </g>
    <g id="text_18">
     <!-- reference -->
     <g transform="translate(321.535937 213.560312)scale(0.1 -0.1)">
      <defs>
       <path d="M 37.109375 75.984375 
L 37.109375 68.5 
L 28.515625 68.5 
Q 23.6875 68.5 21.796875 66.546875 
Q 19.921875 64.59375 19.921875 59.515625 
L 19.921875 54.6875 
L 34.71875 54.6875 
L 34.71875 47.703125 
L 19.921875 47.703125 
L 19.921875 0 
L 10.890625 0 
L 10.890625 47.703125 
L 2.296875 47.703125 
L 2.296875 54.6875 
L 10.890625 54.6875 
L 10.890625 58.5 
Q 10.890625 67.625 15.140625 71.796875 
Q 19.390625 75.984375 28.609375 75.984375 
z
" id="DejaVuSans-102"/>
      </defs>
      <use xlink:href="#DejaVuSans-114"/>
      <use x="38.863281" xlink:href="#DejaVuSans-101"/>
      <use x="100.386719" xlink:href="#DejaVuSans-102"/>
      <use x="135.591797" xlink:href="#DejaVuSans-101"/>
      <use x="197.115234" xlink:href="#DejaVuSans-114"/>
      <use x="235.978516" xlink:href="#DejaVuSans-101"/>
      <use x="297.501953" xlink:href="#DejaVuSans-110"/>
      <use x="360.880859" xlink:href="#DejaVuSans-99"/>
      <use x="415.861328" xlink:href="#DejaVuSans-101"/>
     </g>
    </g>
   </g>
  </g>
 </g>
 <defs>
  <clipPath id="p28862ab0b5">
   <rect height="217.44" width="334.8" x="45.903125" y="7.2"/>
  </clipPath>
 </defs>
</svg>
