<?xml version="1.0" encoding="utf-8" standalone="no"?>
<!DOCTYPE svg PUBLIC "-//W3C//DTD SVG 1.1//EN"
  "http://www.w3.org/Graphics/SVG/1.1/DTD/svg11.dtd">
<svg xmlns:xlink="http://www.w3.org/1999/xlink" width="425.241875pt" height="314.498086pt" viewBox="0 0 425.241875 314.498086" xmlns="http://www.w3.org/2000/svg" version="1.1">
 <metadata>
  <rdf:RDF xmlns:dc="http://purl.org/dc/elements/1.1/" xmlns:cc="http://creativecommons.org/ns#" xmlns:rdf="http://www.w3.org/1999/02/22-rdf-syntax-ns#">
   <cc:Work>
    <dc:type rdf:resource="http://purl.org/dc/dcmitype/StillImage"/>
    <dc:date>2022-12-14T13:04:54.655081</dc:date>
    <dc:format>image/svg+xml</dc:format>
    <dc:creator>
     <cc:Agent>
      <dc:title>Matplotlib v3.6.2, https://matplotlib.org/</dc:title>
     </cc:Agent>
    </dc:creator>
   </cc:Work>
  </rdf:RDF>
 </metadata>
 <defs>
  <style type="text/css">*{stroke-linejoin: round; stroke-linecap: butt}</style>
 </defs>
 <g id="figure_1">
  <g id="patch_1">
   <path d="M 0 314.498086 
L 425.241875 314.498086 
L 425.241875 0 
L 0 0 
z
" style="fill: #ffffff"/>
  </g>
  <g id="axes_1">
   <g id="patch_2">
    <path d="M 51.378125 276.941836 
L 408.498125 276.941836 
L 408.498125 10.829836 
L 51.378125 10.829836 
z
" style="fill: #ffffff"/>
   </g>
   <g id="matplotlib.axis_1">
    <g id="xtick_1">
     <g id="line2d_1">
      <defs>
       <path id="m5233bdbe52" d="M 0 0 
L 0 3.5 
" style="stroke: #000000; stroke-width: 0.8"/>
      </defs>
      <g>
       <use xlink:href="#m5233bdbe52" x="51.378125" y="276.941836" style="stroke: #000000; stroke-width: 0.8"/>
      </g>
     </g>
     <g id="text_1">
      <!-- 0 -->
      <g transform="translate(48.196875 291.540273) scale(0.1 -0.1)">
       <defs>
        <path id="DejaVuSans-30" d="M 2034 4250 
Q 1547 4250 1301 3770 
Q 1056 3291 1056 2328 
Q 1056 1369 1301 889 
Q 1547 409 2034 409 
Q 2525 409 2770 889 
Q 3016 1369 3016 2328 
Q 3016 3291 2770 3770 
Q 2525 4250 2034 4250 
z
M 2034 4750 
Q 2819 4750 3233 4129 
Q 3647 3509 3647 2328 
Q 3647 1150 3233 529 
Q 2819 -91 2034 -91 
Q 1250 -91 836 529 
Q 422 1150 422 2328 
Q 422 3509 836 4129 
Q 1250 4750 2034 4750 
z
" transform="scale(0.015625)"/>
       </defs>
       <use xlink:href="#DejaVuSans-30"/>
      </g>
     </g>
    </g>
    <g id="xtick_2">
     <g id="line2d_2">
      <g>
       <use xlink:href="#m5233bdbe52" x="122.802125" y="276.941836" style="stroke: #000000; stroke-width: 0.8"/>
      </g>
     </g>
     <g id="text_2">
      <!-- 100 -->
      <g transform="translate(113.258375 291.540273) scale(0.1 -0.1)">
       <defs>
        <path id="DejaVuSans-31" d="M 794 531 
L 1825 531 
L 1825 4091 
L 703 3866 
L 703 4441 
L 1819 4666 
L 2450 4666 
L 2450 531 
L 3481 531 
L 3481 0 
L 794 0 
L 794 531 
z
" transform="scale(0.015625)"/>
       </defs>
       <use xlink:href="#DejaVuSans-31"/>
       <use xlink:href="#DejaVuSans-30" x="63.623047"/>
       <use xlink:href="#DejaVuSans-30" x="127.246094"/>
      </g>
     </g>
    </g>
    <g id="xtick_3">
     <g id="line2d_3">
      <g>
       <use xlink:href="#m5233bdbe52" x="194.226125" y="276.941836" style="stroke: #000000; stroke-width: 0.8"/>
      </g>
     </g>
     <g id="text_3">
      <!-- 200 -->
      <g transform="translate(184.682375 291.540273) scale(0.1 -0.1)">
       <defs>
        <path id="DejaVuSans-32" d="M 1228 531 
L 3431 531 
L 3431 0 
L 469 0 
L 469 531 
Q 828 903 1448 1529 
Q 2069 2156 2228 2338 
Q 2531 2678 2651 2914 
Q 2772 3150 2772 3378 
Q 2772 3750 2511 3984 
Q 2250 4219 1831 4219 
Q 1534 4219 1204 4116 
Q 875 4013 500 3803 
L 500 4441 
Q 881 4594 1212 4672 
Q 1544 4750 1819 4750 
Q 2544 4750 2975 4387 
Q 3406 4025 3406 3419 
Q 3406 3131 3298 2873 
Q 3191 2616 2906 2266 
Q 2828 2175 2409 1742 
Q 1991 1309 1228 531 
z
" transform="scale(0.015625)"/>
       </defs>
       <use xlink:href="#DejaVuSans-32"/>
       <use xlink:href="#DejaVuSans-30" x="63.623047"/>
       <use xlink:href="#DejaVuSans-30" x="127.246094"/>
      </g>
     </g>
    </g>
    <g id="xtick_4">
     <g id="line2d_4">
      <g>
       <use xlink:href="#m5233bdbe52" x="265.650125" y="276.941836" style="stroke: #000000; stroke-width: 0.8"/>
      </g>
     </g>
     <g id="text_4">
      <!-- 300 -->
      <g transform="translate(256.106375 291.540273) scale(0.1 -0.1)">
       <defs>
        <path id="DejaVuSans-33" d="M 2597 2516 
Q 3050 2419 3304 2112 
Q 3559 1806 3559 1356 
Q 3559 666 3084 287 
Q 2609 -91 1734 -91 
Q 1441 -91 1130 -33 
Q 819 25 488 141 
L 488 750 
Q 750 597 1062 519 
Q 1375 441 1716 441 
Q 2309 441 2620 675 
Q 2931 909 2931 1356 
Q 2931 1769 2642 2001 
Q 2353 2234 1838 2234 
L 1294 2234 
L 1294 2753 
L 1863 2753 
Q 2328 2753 2575 2939 
Q 2822 3125 2822 3475 
Q 2822 3834 2567 4026 
Q 2313 4219 1838 4219 
Q 1578 4219 1281 4162 
Q 984 4106 628 3988 
L 628 4550 
Q 988 4650 1302 4700 
Q 1616 4750 1894 4750 
Q 2613 4750 3031 4423 
Q 3450 4097 3450 3541 
Q 3450 3153 3228 2886 
Q 3006 2619 2597 2516 
z
" transform="scale(0.015625)"/>
       </defs>
       <use xlink:href="#DejaVuSans-33"/>
       <use xlink:href="#DejaVuSans-30" x="63.623047"/>
       <use xlink:href="#DejaVuSans-30" x="127.246094"/>
      </g>
     </g>
    </g>
    <g id="xtick_5">
     <g id="line2d_5">
      <g>
       <use xlink:href="#m5233bdbe52" x="337.074125" y="276.941836" style="stroke: #000000; stroke-width: 0.8"/>
      </g>
     </g>
     <g id="text_5">
      <!-- 400 -->
      <g transform="translate(327.530375 291.540273) scale(0.1 -0.1)">
       <defs>
        <path id="DejaVuSans-34" d="M 2419 4116 
L 825 1625 
L 2419 1625 
L 2419 4116 
z
M 2253 4666 
L 3047 4666 
L 3047 1625 
L 3713 1625 
L 3713 1100 
L 3047 1100 
L 3047 0 
L 2419 0 
L 2419 1100 
L 313 1100 
L 313 1709 
L 2253 4666 
z
" transform="scale(0.015625)"/>
       </defs>
       <use xlink:href="#DejaVuSans-34"/>
       <use xlink:href="#DejaVuSans-30" x="63.623047"/>
       <use xlink:href="#DejaVuSans-30" x="127.246094"/>
      </g>
     </g>
    </g>
    <g id="xtick_6">
     <g id="line2d_6">
      <g>
       <use xlink:href="#m5233bdbe52" x="408.498125" y="276.941836" style="stroke: #000000; stroke-width: 0.8"/>
      </g>
     </g>
     <g id="text_6">
      <!-- 500 -->
      <g transform="translate(398.954375 291.540273) scale(0.1 -0.1)">
       <defs>
        <path id="DejaVuSans-35" d="M 691 4666 
L 3169 4666 
L 3169 4134 
L 1269 4134 
L 1269 2991 
Q 1406 3038 1543 3061 
Q 1681 3084 1819 3084 
Q 2600 3084 3056 2656 
Q 3513 2228 3513 1497 
Q 3513 744 3044 326 
Q 2575 -91 1722 -91 
Q 1428 -91 1123 -41 
Q 819 9 494 109 
L 494 744 
Q 775 591 1075 516 
Q 1375 441 1709 441 
Q 2250 441 2565 725 
Q 2881 1009 2881 1497 
Q 2881 1984 2565 2268 
Q 2250 2553 1709 2553 
Q 1456 2553 1204 2497 
Q 953 2441 691 2322 
L 691 4666 
z
" transform="scale(0.015625)"/>
       </defs>
       <use xlink:href="#DejaVuSans-35"/>
       <use xlink:href="#DejaVuSans-30" x="63.623047"/>
       <use xlink:href="#DejaVuSans-30" x="127.246094"/>
      </g>
     </g>
    </g>
    <g id="text_7">
     <!-- epoch -->
     <g transform="translate(214.71 305.218398) scale(0.1 -0.1)">
      <defs>
       <path id="DejaVuSans-65" d="M 3597 1894 
L 3597 1613 
L 953 1613 
Q 991 1019 1311 708 
Q 1631 397 2203 397 
Q 2534 397 2845 478 
Q 3156 559 3463 722 
L 3463 178 
Q 3153 47 2828 -22 
Q 2503 -91 2169 -91 
Q 1331 -91 842 396 
Q 353 884 353 1716 
Q 353 2575 817 3079 
Q 1281 3584 2069 3584 
Q 2775 3584 3186 3129 
Q 3597 2675 3597 1894 
z
M 3022 2063 
Q 3016 2534 2758 2815 
Q 2500 3097 2075 3097 
Q 1594 3097 1305 2825 
Q 1016 2553 972 2059 
L 3022 2063 
z
" transform="scale(0.015625)"/>
       <path id="DejaVuSans-70" d="M 1159 525 
L 1159 -1331 
L 581 -1331 
L 581 3500 
L 1159 3500 
L 1159 2969 
Q 1341 3281 1617 3432 
Q 1894 3584 2278 3584 
Q 2916 3584 3314 3078 
Q 3713 2572 3713 1747 
Q 3713 922 3314 415 
Q 2916 -91 2278 -91 
Q 1894 -91 1617 61 
Q 1341 213 1159 525 
z
M 3116 1747 
Q 3116 2381 2855 2742 
Q 2594 3103 2138 3103 
Q 1681 3103 1420 2742 
Q 1159 2381 1159 1747 
Q 1159 1113 1420 752 
Q 1681 391 2138 391 
Q 2594 391 2855 752 
Q 3116 1113 3116 1747 
z
" transform="scale(0.015625)"/>
       <path id="DejaVuSans-6f" d="M 1959 3097 
Q 1497 3097 1228 2736 
Q 959 2375 959 1747 
Q 959 1119 1226 758 
Q 1494 397 1959 397 
Q 2419 397 2687 759 
Q 2956 1122 2956 1747 
Q 2956 2369 2687 2733 
Q 2419 3097 1959 3097 
z
M 1959 3584 
Q 2709 3584 3137 3096 
Q 3566 2609 3566 1747 
Q 3566 888 3137 398 
Q 2709 -91 1959 -91 
Q 1206 -91 779 398 
Q 353 888 353 1747 
Q 353 2609 779 3096 
Q 1206 3584 1959 3584 
z
" transform="scale(0.015625)"/>
       <path id="DejaVuSans-63" d="M 3122 3366 
L 3122 2828 
Q 2878 2963 2633 3030 
Q 2388 3097 2138 3097 
Q 1578 3097 1268 2742 
Q 959 2388 959 1747 
Q 959 1106 1268 751 
Q 1578 397 2138 397 
Q 2388 397 2633 464 
Q 2878 531 3122 666 
L 3122 134 
Q 2881 22 2623 -34 
Q 2366 -91 2075 -91 
Q 1284 -91 818 406 
Q 353 903 353 1747 
Q 353 2603 823 3093 
Q 1294 3584 2113 3584 
Q 2378 3584 2631 3529 
Q 2884 3475 3122 3366 
z
" transform="scale(0.015625)"/>
       <path id="DejaVuSans-68" d="M 3513 2113 
L 3513 0 
L 2938 0 
L 2938 2094 
Q 2938 2591 2744 2837 
Q 2550 3084 2163 3084 
Q 1697 3084 1428 2787 
Q 1159 2491 1159 1978 
L 1159 0 
L 581 0 
L 581 4863 
L 1159 4863 
L 1159 2956 
Q 1366 3272 1645 3428 
Q 1925 3584 2291 3584 
Q 2894 3584 3203 3211 
Q 3513 2838 3513 2113 
z
" transform="scale(0.015625)"/>
      </defs>
      <use xlink:href="#DejaVuSans-65"/>
      <use xlink:href="#DejaVuSans-70" x="61.523438"/>
      <use xlink:href="#DejaVuSans-6f" x="125"/>
      <use xlink:href="#DejaVuSans-63" x="186.181641"/>
      <use xlink:href="#DejaVuSans-68" x="241.162109"/>
     </g>
    </g>
   </g>
   <g id="matplotlib.axis_2">
    <g id="ytick_1">
     <g id="line2d_7">
      <defs>
       <path id="mb4e8b26d4c" d="M 0 0 
L -3.5 0 
" style="stroke: #000000; stroke-width: 0.8"/>
      </defs>
      <g>
       <use xlink:href="#mb4e8b26d4c" x="51.378125" y="270.323805" style="stroke: #000000; stroke-width: 0.8"/>
      </g>
     </g>
     <g id="text_8">
      <!-- $\mathdefault{10^{-6}}$ -->
      <g transform="translate(20.878125 274.123024) scale(0.1 -0.1)">
       <defs>
        <path id="DejaVuSans-2212" d="M 678 2272 
L 4684 2272 
L 4684 1741 
L 678 1741 
L 678 2272 
z
" transform="scale(0.015625)"/>
        <path id="DejaVuSans-36" d="M 2113 2584 
Q 1688 2584 1439 2293 
Q 1191 2003 1191 1497 
Q 1191 994 1439 701 
Q 1688 409 2113 409 
Q 2538 409 2786 701 
Q 3034 994 3034 1497 
Q 3034 2003 2786 2293 
Q 2538 2584 2113 2584 
z
M 3366 4563 
L 3366 3988 
Q 3128 4100 2886 4159 
Q 2644 4219 2406 4219 
Q 1781 4219 1451 3797 
Q 1122 3375 1075 2522 
Q 1259 2794 1537 2939 
Q 1816 3084 2150 3084 
Q 2853 3084 3261 2657 
Q 3669 2231 3669 1497 
Q 3669 778 3244 343 
Q 2819 -91 2113 -91 
Q 1303 -91 875 529 
Q 447 1150 447 2328 
Q 447 3434 972 4092 
Q 1497 4750 2381 4750 
Q 2619 4750 2861 4703 
Q 3103 4656 3366 4563 
z
" transform="scale(0.015625)"/>
       </defs>
       <use xlink:href="#DejaVuSans-31" transform="translate(0 0.765625)"/>
       <use xlink:href="#DejaVuSans-30" transform="translate(63.623047 0.765625)"/>
       <use xlink:href="#DejaVuSans-2212" transform="translate(128.203125 39.046875) scale(0.7)"/>
       <use xlink:href="#DejaVuSans-36" transform="translate(186.855469 39.046875) scale(0.7)"/>
      </g>
     </g>
    </g>
    <g id="ytick_2">
     <g id="line2d_8">
      <g>
       <use xlink:href="#mb4e8b26d4c" x="51.378125" y="227.10304" style="stroke: #000000; stroke-width: 0.8"/>
      </g>
     </g>
     <g id="text_9">
      <!-- $\mathdefault{10^{-5}}$ -->
      <g transform="translate(20.878125 230.902259) scale(0.1 -0.1)">
       <use xlink:href="#DejaVuSans-31" transform="translate(0 0.684375)"/>
       <use xlink:href="#DejaVuSans-30" transform="translate(63.623047 0.684375)"/>
       <use xlink:href="#DejaVuSans-2212" transform="translate(128.203125 38.965625) scale(0.7)"/>
       <use xlink:href="#DejaVuSans-35" transform="translate(186.855469 38.965625) scale(0.7)"/>
      </g>
     </g>
    </g>
    <g id="ytick_3">
     <g id="line2d_9">
      <g>
       <use xlink:href="#mb4e8b26d4c" x="51.378125" y="183.882276" style="stroke: #000000; stroke-width: 0.8"/>
      </g>
     </g>
     <g id="text_10">
      <!-- $\mathdefault{10^{-4}}$ -->
      <g transform="translate(20.878125 187.681495) scale(0.1 -0.1)">
       <use xlink:href="#DejaVuSans-31" transform="translate(0 0.684375)"/>
       <use xlink:href="#DejaVuSans-30" transform="translate(63.623047 0.684375)"/>
       <use xlink:href="#DejaVuSans-2212" transform="translate(128.203125 38.965625) scale(0.7)"/>
       <use xlink:href="#DejaVuSans-34" transform="translate(186.855469 38.965625) scale(0.7)"/>
      </g>
     </g>
    </g>
    <g id="ytick_4">
     <g id="line2d_10">
      <g>
       <use xlink:href="#mb4e8b26d4c" x="51.378125" y="140.661512" style="stroke: #000000; stroke-width: 0.8"/>
      </g>
     </g>
     <g id="text_11">
      <!-- $\mathdefault{10^{-3}}$ -->
      <g transform="translate(20.878125 144.460731) scale(0.1 -0.1)">
       <use xlink:href="#DejaVuSans-31" transform="translate(0 0.765625)"/>
       <use xlink:href="#DejaVuSans-30" transform="translate(63.623047 0.765625)"/>
       <use xlink:href="#DejaVuSans-2212" transform="translate(128.203125 39.046875) scale(0.7)"/>
       <use xlink:href="#DejaVuSans-33" transform="translate(186.855469 39.046875) scale(0.7)"/>
      </g>
     </g>
    </g>
    <g id="ytick_5">
     <g id="line2d_11">
      <g>
       <use xlink:href="#mb4e8b26d4c" x="51.378125" y="97.440747" style="stroke: #000000; stroke-width: 0.8"/>
      </g>
     </g>
     <g id="text_12">
      <!-- $\mathdefault{10^{-2}}$ -->
      <g transform="translate(20.878125 101.239966) scale(0.1 -0.1)">
       <use xlink:href="#DejaVuSans-31" transform="translate(0 0.765625)"/>
       <use xlink:href="#DejaVuSans-30" transform="translate(63.623047 0.765625)"/>
       <use xlink:href="#DejaVuSans-2212" transform="translate(128.203125 39.046875) scale(0.7)"/>
       <use xlink:href="#DejaVuSans-32" transform="translate(186.855469 39.046875) scale(0.7)"/>
      </g>
     </g>
    </g>
    <g id="ytick_6">
     <g id="line2d_12">
      <g>
       <use xlink:href="#mb4e8b26d4c" x="51.378125" y="54.219983" style="stroke: #000000; stroke-width: 0.8"/>
      </g>
     </g>
     <g id="text_13">
      <!-- $\mathdefault{10^{-1}}$ -->
      <g transform="translate(20.878125 58.019202) scale(0.1 -0.1)">
       <use xlink:href="#DejaVuSans-31" transform="translate(0 0.684375)"/>
       <use xlink:href="#DejaVuSans-30" transform="translate(63.623047 0.684375)"/>
       <use xlink:href="#DejaVuSans-2212" transform="translate(128.203125 38.965625) scale(0.7)"/>
       <use xlink:href="#DejaVuSans-31" transform="translate(186.855469 38.965625) scale(0.7)"/>
      </g>
     </g>
    </g>
    <g id="ytick_7">
     <g id="line2d_13">
      <g>
       <use xlink:href="#mb4e8b26d4c" x="51.378125" y="10.999219" style="stroke: #000000; stroke-width: 0.8"/>
      </g>
     </g>
     <g id="text_14">
      <!-- $\mathdefault{10^{0}}$ -->
      <g transform="translate(26.778125 14.798437) scale(0.1 -0.1)">
       <use xlink:href="#DejaVuSans-31" transform="translate(0 0.765625)"/>
       <use xlink:href="#DejaVuSans-30" transform="translate(63.623047 0.765625)"/>
       <use xlink:href="#DejaVuSans-30" transform="translate(128.203125 39.046875) scale(0.7)"/>
      </g>
     </g>
    </g>
    <g id="ytick_8">
     <g id="line2d_14">
      <defs>
       <path id="mf006416111" d="M 0 0 
L -2 0 
" style="stroke: #000000; stroke-width: 0.6"/>
      </defs>
      <g>
       <use xlink:href="#mf006416111" x="51.378125" y="274.51233" style="stroke: #000000; stroke-width: 0.6"/>
      </g>
     </g>
    </g>
    <g id="ytick_9">
     <g id="line2d_15">
      <g>
       <use xlink:href="#mf006416111" x="51.378125" y="272.301478" style="stroke: #000000; stroke-width: 0.6"/>
      </g>
     </g>
    </g>
    <g id="ytick_10">
     <g id="line2d_16">
      <g>
       <use xlink:href="#mf006416111" x="51.378125" y="257.313058" style="stroke: #000000; stroke-width: 0.6"/>
      </g>
     </g>
    </g>
    <g id="ytick_11">
     <g id="line2d_17">
      <g>
       <use xlink:href="#mf006416111" x="51.378125" y="249.702259" style="stroke: #000000; stroke-width: 0.6"/>
      </g>
     </g>
    </g>
    <g id="ytick_12">
     <g id="line2d_18">
      <g>
       <use xlink:href="#mf006416111" x="51.378125" y="244.302312" style="stroke: #000000; stroke-width: 0.6"/>
      </g>
     </g>
    </g>
    <g id="ytick_13">
     <g id="line2d_19">
      <g>
       <use xlink:href="#mf006416111" x="51.378125" y="240.113787" style="stroke: #000000; stroke-width: 0.6"/>
      </g>
     </g>
    </g>
    <g id="ytick_14">
     <g id="line2d_20">
      <g>
       <use xlink:href="#mf006416111" x="51.378125" y="236.691513" style="stroke: #000000; stroke-width: 0.6"/>
      </g>
     </g>
    </g>
    <g id="ytick_15">
     <g id="line2d_21">
      <g>
       <use xlink:href="#mf006416111" x="51.378125" y="233.798022" style="stroke: #000000; stroke-width: 0.6"/>
      </g>
     </g>
    </g>
    <g id="ytick_16">
     <g id="line2d_22">
      <g>
       <use xlink:href="#mf006416111" x="51.378125" y="231.291565" style="stroke: #000000; stroke-width: 0.6"/>
      </g>
     </g>
    </g>
    <g id="ytick_17">
     <g id="line2d_23">
      <g>
       <use xlink:href="#mf006416111" x="51.378125" y="229.080714" style="stroke: #000000; stroke-width: 0.6"/>
      </g>
     </g>
    </g>
    <g id="ytick_18">
     <g id="line2d_24">
      <g>
       <use xlink:href="#mf006416111" x="51.378125" y="214.092294" style="stroke: #000000; stroke-width: 0.6"/>
      </g>
     </g>
    </g>
    <g id="ytick_19">
     <g id="line2d_25">
      <g>
       <use xlink:href="#mf006416111" x="51.378125" y="206.481495" style="stroke: #000000; stroke-width: 0.6"/>
      </g>
     </g>
    </g>
    <g id="ytick_20">
     <g id="line2d_26">
      <g>
       <use xlink:href="#mf006416111" x="51.378125" y="201.081547" style="stroke: #000000; stroke-width: 0.6"/>
      </g>
     </g>
    </g>
    <g id="ytick_21">
     <g id="line2d_27">
      <g>
       <use xlink:href="#mf006416111" x="51.378125" y="196.893023" style="stroke: #000000; stroke-width: 0.6"/>
      </g>
     </g>
    </g>
    <g id="ytick_22">
     <g id="line2d_28">
      <g>
       <use xlink:href="#mf006416111" x="51.378125" y="193.470749" style="stroke: #000000; stroke-width: 0.6"/>
      </g>
     </g>
    </g>
    <g id="ytick_23">
     <g id="line2d_29">
      <g>
       <use xlink:href="#mf006416111" x="51.378125" y="190.577257" style="stroke: #000000; stroke-width: 0.6"/>
      </g>
     </g>
    </g>
    <g id="ytick_24">
     <g id="line2d_30">
      <g>
       <use xlink:href="#mf006416111" x="51.378125" y="188.070801" style="stroke: #000000; stroke-width: 0.6"/>
      </g>
     </g>
    </g>
    <g id="ytick_25">
     <g id="line2d_31">
      <g>
       <use xlink:href="#mf006416111" x="51.378125" y="185.85995" style="stroke: #000000; stroke-width: 0.6"/>
      </g>
     </g>
    </g>
    <g id="ytick_26">
     <g id="line2d_32">
      <g>
       <use xlink:href="#mf006416111" x="51.378125" y="170.87153" style="stroke: #000000; stroke-width: 0.6"/>
      </g>
     </g>
    </g>
    <g id="ytick_27">
     <g id="line2d_33">
      <g>
       <use xlink:href="#mf006416111" x="51.378125" y="163.260731" style="stroke: #000000; stroke-width: 0.6"/>
      </g>
     </g>
    </g>
    <g id="ytick_28">
     <g id="line2d_34">
      <g>
       <use xlink:href="#mf006416111" x="51.378125" y="157.860783" style="stroke: #000000; stroke-width: 0.6"/>
      </g>
     </g>
    </g>
    <g id="ytick_29">
     <g id="line2d_35">
      <g>
       <use xlink:href="#mf006416111" x="51.378125" y="153.672258" style="stroke: #000000; stroke-width: 0.6"/>
      </g>
     </g>
    </g>
    <g id="ytick_30">
     <g id="line2d_36">
      <g>
       <use xlink:href="#mf006416111" x="51.378125" y="150.249984" style="stroke: #000000; stroke-width: 0.6"/>
      </g>
     </g>
    </g>
    <g id="ytick_31">
     <g id="line2d_37">
      <g>
       <use xlink:href="#mf006416111" x="51.378125" y="147.356493" style="stroke: #000000; stroke-width: 0.6"/>
      </g>
     </g>
    </g>
    <g id="ytick_32">
     <g id="line2d_38">
      <g>
       <use xlink:href="#mf006416111" x="51.378125" y="144.850037" style="stroke: #000000; stroke-width: 0.6"/>
      </g>
     </g>
    </g>
    <g id="ytick_33">
     <g id="line2d_39">
      <g>
       <use xlink:href="#mf006416111" x="51.378125" y="142.639185" style="stroke: #000000; stroke-width: 0.6"/>
      </g>
     </g>
    </g>
    <g id="ytick_34">
     <g id="line2d_40">
      <g>
       <use xlink:href="#mf006416111" x="51.378125" y="127.650765" style="stroke: #000000; stroke-width: 0.6"/>
      </g>
     </g>
    </g>
    <g id="ytick_35">
     <g id="line2d_41">
      <g>
       <use xlink:href="#mf006416111" x="51.378125" y="120.039966" style="stroke: #000000; stroke-width: 0.6"/>
      </g>
     </g>
    </g>
    <g id="ytick_36">
     <g id="line2d_42">
      <g>
       <use xlink:href="#mf006416111" x="51.378125" y="114.640019" style="stroke: #000000; stroke-width: 0.6"/>
      </g>
     </g>
    </g>
    <g id="ytick_37">
     <g id="line2d_43">
      <g>
       <use xlink:href="#mf006416111" x="51.378125" y="110.451494" style="stroke: #000000; stroke-width: 0.6"/>
      </g>
     </g>
    </g>
    <g id="ytick_38">
     <g id="line2d_44">
      <g>
       <use xlink:href="#mf006416111" x="51.378125" y="107.02922" style="stroke: #000000; stroke-width: 0.6"/>
      </g>
     </g>
    </g>
    <g id="ytick_39">
     <g id="line2d_45">
      <g>
       <use xlink:href="#mf006416111" x="51.378125" y="104.135729" style="stroke: #000000; stroke-width: 0.6"/>
      </g>
     </g>
    </g>
    <g id="ytick_40">
     <g id="line2d_46">
      <g>
       <use xlink:href="#mf006416111" x="51.378125" y="101.629272" style="stroke: #000000; stroke-width: 0.6"/>
      </g>
     </g>
    </g>
    <g id="ytick_41">
     <g id="line2d_47">
      <g>
       <use xlink:href="#mf006416111" x="51.378125" y="99.418421" style="stroke: #000000; stroke-width: 0.6"/>
      </g>
     </g>
    </g>
    <g id="ytick_42">
     <g id="line2d_48">
      <g>
       <use xlink:href="#mf006416111" x="51.378125" y="84.430001" style="stroke: #000000; stroke-width: 0.6"/>
      </g>
     </g>
    </g>
    <g id="ytick_43">
     <g id="line2d_49">
      <g>
       <use xlink:href="#mf006416111" x="51.378125" y="76.819202" style="stroke: #000000; stroke-width: 0.6"/>
      </g>
     </g>
    </g>
    <g id="ytick_44">
     <g id="line2d_50">
      <g>
       <use xlink:href="#mf006416111" x="51.378125" y="71.419254" style="stroke: #000000; stroke-width: 0.6"/>
      </g>
     </g>
    </g>
    <g id="ytick_45">
     <g id="line2d_51">
      <g>
       <use xlink:href="#mf006416111" x="51.378125" y="67.23073" style="stroke: #000000; stroke-width: 0.6"/>
      </g>
     </g>
    </g>
    <g id="ytick_46">
     <g id="line2d_52">
      <g>
       <use xlink:href="#mf006416111" x="51.378125" y="63.808456" style="stroke: #000000; stroke-width: 0.6"/>
      </g>
     </g>
    </g>
    <g id="ytick_47">
     <g id="line2d_53">
      <g>
       <use xlink:href="#mf006416111" x="51.378125" y="60.914964" style="stroke: #000000; stroke-width: 0.6"/>
      </g>
     </g>
    </g>
    <g id="ytick_48">
     <g id="line2d_54">
      <g>
       <use xlink:href="#mf006416111" x="51.378125" y="58.408508" style="stroke: #000000; stroke-width: 0.6"/>
      </g>
     </g>
    </g>
    <g id="ytick_49">
     <g id="line2d_55">
      <g>
       <use xlink:href="#mf006416111" x="51.378125" y="56.197657" style="stroke: #000000; stroke-width: 0.6"/>
      </g>
     </g>
    </g>
    <g id="ytick_50">
     <g id="line2d_56">
      <g>
       <use xlink:href="#mf006416111" x="51.378125" y="41.209237" style="stroke: #000000; stroke-width: 0.6"/>
      </g>
     </g>
    </g>
    <g id="ytick_51">
     <g id="line2d_57">
      <g>
       <use xlink:href="#mf006416111" x="51.378125" y="33.598438" style="stroke: #000000; stroke-width: 0.6"/>
      </g>
     </g>
    </g>
    <g id="ytick_52">
     <g id="line2d_58">
      <g>
       <use xlink:href="#mf006416111" x="51.378125" y="28.19849" style="stroke: #000000; stroke-width: 0.6"/>
      </g>
     </g>
    </g>
    <g id="ytick_53">
     <g id="line2d_59">
      <g>
       <use xlink:href="#mf006416111" x="51.378125" y="24.009965" style="stroke: #000000; stroke-width: 0.6"/>
      </g>
     </g>
    </g>
    <g id="ytick_54">
     <g id="line2d_60">
      <g>
       <use xlink:href="#mf006416111" x="51.378125" y="20.587691" style="stroke: #000000; stroke-width: 0.6"/>
      </g>
     </g>
    </g>
    <g id="ytick_55">
     <g id="line2d_61">
      <g>
       <use xlink:href="#mf006416111" x="51.378125" y="17.6942" style="stroke: #000000; stroke-width: 0.6"/>
      </g>
     </g>
    </g>
    <g id="ytick_56">
     <g id="line2d_62">
      <g>
       <use xlink:href="#mf006416111" x="51.378125" y="15.187744" style="stroke: #000000; stroke-width: 0.6"/>
      </g>
     </g>
    </g>
    <g id="ytick_57">
     <g id="line2d_63">
      <g>
       <use xlink:href="#mf006416111" x="51.378125" y="12.976892" style="stroke: #000000; stroke-width: 0.6"/>
      </g>
     </g>
    </g>
    <g id="text_15">
     <!-- MSE -->
     <g transform="translate(14.798438 154.533492) rotate(-90) scale(0.1 -0.1)">
      <defs>
       <path id="DejaVuSans-4d" d="M 628 4666 
L 1569 4666 
L 2759 1491 
L 3956 4666 
L 4897 4666 
L 4897 0 
L 4281 0 
L 4281 4097 
L 3078 897 
L 2444 897 
L 1241 4097 
L 1241 0 
L 628 0 
L 628 4666 
z
" transform="scale(0.015625)"/>
       <path id="DejaVuSans-53" d="M 3425 4513 
L 3425 3897 
Q 3066 4069 2747 4153 
Q 2428 4238 2131 4238 
Q 1616 4238 1336 4038 
Q 1056 3838 1056 3469 
Q 1056 3159 1242 3001 
Q 1428 2844 1947 2747 
L 2328 2669 
Q 3034 2534 3370 2195 
Q 3706 1856 3706 1288 
Q 3706 609 3251 259 
Q 2797 -91 1919 -91 
Q 1588 -91 1214 -16 
Q 841 59 441 206 
L 441 856 
Q 825 641 1194 531 
Q 1563 422 1919 422 
Q 2459 422 2753 634 
Q 3047 847 3047 1241 
Q 3047 1584 2836 1778 
Q 2625 1972 2144 2069 
L 1759 2144 
Q 1053 2284 737 2584 
Q 422 2884 422 3419 
Q 422 4038 858 4394 
Q 1294 4750 2059 4750 
Q 2388 4750 2728 4690 
Q 3069 4631 3425 4513 
z
" transform="scale(0.015625)"/>
       <path id="DejaVuSans-45" d="M 628 4666 
L 3578 4666 
L 3578 4134 
L 1259 4134 
L 1259 2753 
L 3481 2753 
L 3481 2222 
L 1259 2222 
L 1259 531 
L 3634 531 
L 3634 0 
L 628 0 
L 628 4666 
z
" transform="scale(0.015625)"/>
      </defs>
      <use xlink:href="#DejaVuSans-4d"/>
      <use xlink:href="#DejaVuSans-53" x="86.279297"/>
      <use xlink:href="#DejaVuSans-45" x="149.755859"/>
     </g>
    </g>
   </g>
   <g id="line2d_64">
    <path d="M 51.378125 22.925836 
L 52.092365 40.601044 
L 52.806605 46.18579 
L 53.520845 48.042216 
L 54.235085 50.725902 
L 54.949325 56.875724 
L 55.663565 61.86818 
L 56.377805 69.37651 
L 58.520525 81.313543 
L 59.234765 84.015247 
L 60.663245 90.526099 
L 61.377485 91.718403 
L 62.091725 100.113634 
L 62.805965 106.074504 
L 63.520205 108.145048 
L 64.234445 110.800067 
L 64.948685 114.628025 
L 65.662925 116.784713 
L 66.377165 116.512992 
L 67.805645 120.366427 
L 68.519885 123.290665 
L 69.234125 120.292558 
L 69.948365 124.056003 
L 70.662605 124.916924 
L 71.376845 130.210551 
L 72.091085 128.865616 
L 72.805325 128.787343 
L 73.519565 132.521899 
L 74.233805 133.665555 
L 74.948045 136.415607 
L 75.662285 137.610285 
L 76.376525 137.821651 
L 77.090765 135.616275 
L 77.805005 139.751766 
L 78.519245 142.050444 
L 79.233485 142.940578 
L 79.947725 144.283559 
L 81.376205 139.406992 
L 82.090445 138.781122 
L 82.804685 131.639005 
L 83.518925 142.146541 
L 84.233165 145.989831 
L 84.947405 142.172207 
L 85.661645 139.949693 
L 86.375885 144.49599 
L 87.090125 147.429849 
L 87.804365 147.6838 
L 88.518605 143.981395 
L 89.232845 129.2633 
L 89.947085 120.200683 
L 90.661325 114.021469 
L 91.375565 110.824031 
L 92.089805 122.376061 
L 92.804045 126.99953 
L 93.518285 138.725282 
L 94.232525 140.384893 
L 94.946765 145.414531 
L 95.661005 144.393123 
L 96.375245 145.865627 
L 97.089485 146.453521 
L 97.803725 150.029549 
L 98.517965 151.111173 
L 99.232205 153.979924 
L 99.946445 151.192114 
L 100.660685 155.181521 
L 101.374925 154.408902 
L 102.089165 152.645491 
L 102.803405 154.010194 
L 103.517645 157.811866 
L 104.231885 155.253148 
L 104.946125 155.456244 
L 105.660365 158.625276 
L 106.374605 156.084802 
L 107.088845 156.736626 
L 107.803085 158.795235 
L 108.517325 157.516219 
L 109.231565 158.923815 
L 109.945805 158.876742 
L 110.660045 161.561407 
L 111.374285 160.120929 
L 112.088525 161.510375 
L 112.802765 161.642866 
L 113.517005 162.092543 
L 114.231245 162.712049 
L 114.945485 157.43265 
L 115.659725 160.806666 
L 116.373965 161.923246 
L 117.088205 161.342735 
L 117.802445 163.949789 
L 118.516685 161.351071 
L 119.230925 164.099672 
L 119.945165 162.894987 
L 120.659405 163.142915 
L 121.373645 165.532908 
L 122.087885 166.23114 
L 122.802125 165.707939 
L 123.516365 163.503497 
L 124.230605 167.313388 
L 124.944845 164.277658 
L 125.659085 164.447334 
L 126.373325 167.33107 
L 127.087565 163.599741 
L 127.801805 164.27942 
L 128.516045 163.629784 
L 129.230285 166.370755 
L 129.944525 167.278463 
L 131.373005 165.82473 
L 132.087245 170.267458 
L 132.801485 169.998352 
L 133.515725 165.104501 
L 134.229965 170.665371 
L 134.944205 164.075858 
L 135.658445 166.834515 
L 136.372685 167.696503 
L 137.086925 169.122665 
L 137.801165 166.650172 
L 138.515405 171.047746 
L 139.229645 172.735356 
L 139.943885 173.918539 
L 140.658125 174.057549 
L 142.086605 171.932928 
L 142.800845 173.871116 
L 143.515085 173.762417 
L 144.229325 170.994779 
L 144.943565 174.015144 
L 145.657805 171.654534 
L 146.372045 172.02889 
L 147.086285 171.663948 
L 147.800525 173.410657 
L 148.514765 173.06473 
L 149.229005 171.099188 
L 149.943245 175.309968 
L 150.657485 173.290267 
L 151.371725 175.357987 
L 152.085965 174.203088 
L 152.800205 176.229074 
L 153.514445 176.328791 
L 154.228685 175.748533 
L 154.942925 176.405555 
L 155.657165 176.118123 
L 156.371405 172.385904 
L 157.085645 174.644351 
L 157.799885 174.521824 
L 158.514125 177.165306 
L 159.228365 177.88082 
L 159.942605 177.355512 
L 160.656845 177.039794 
L 161.371085 174.456953 
L 162.085325 178.015491 
L 162.799565 178.207234 
L 163.513805 177.523843 
L 164.228045 177.340938 
L 164.942285 177.583744 
L 165.656525 172.630351 
L 166.370765 178.722377 
L 167.085005 178.42873 
L 167.799245 179.056288 
L 168.513485 179.055524 
L 169.227725 179.295783 
L 169.941965 175.793862 
L 170.656205 177.241766 
L 171.370445 174.161781 
L 172.084685 179.651272 
L 172.798925 177.709252 
L 173.513165 179.85059 
L 174.227405 179.836434 
L 174.941645 179.414265 
L 176.370125 179.981824 
L 177.084365 179.684131 
L 177.798605 179.236434 
L 178.512845 176.575685 
L 179.227085 175.602542 
L 179.941325 176.171031 
L 180.655565 180.587826 
L 182.084045 179.619218 
L 182.798285 180.114766 
L 183.512525 178.42667 
L 184.226765 180.802202 
L 184.941005 174.071463 
L 185.655245 180.94244 
L 186.369485 181.020386 
L 187.083725 174.898819 
L 187.797965 178.024649 
L 188.512205 180.313809 
L 189.226445 181.010346 
L 189.940685 181.082663 
L 190.654925 175.073701 
L 191.369165 177.468387 
L 192.083405 181.120938 
L 192.797645 176.287217 
L 193.511885 181.465738 
L 194.226125 181.506604 
L 195.654605 177.646451 
L 196.368845 176.592166 
L 197.083085 179.655845 
L 198.511565 175.619841 
L 199.225805 181.477568 
L 199.940045 181.765016 
L 200.654285 181.800016 
L 201.368525 181.691303 
L 202.082765 181.764737 
L 202.797005 180.221335 
L 203.511245 181.66585 
L 204.225485 181.946991 
L 204.939725 181.855048 
L 205.653965 178.275979 
L 206.368205 179.402064 
L 207.082445 174.608985 
L 207.796685 179.639317 
L 208.510925 180.224127 
L 209.225165 181.27192 
L 209.939405 182.023812 
L 210.653645 178.07882 
L 211.367885 182.085618 
L 212.082125 181.191883 
L 212.796365 176.294647 
L 213.510605 182.040567 
L 214.224845 179.754353 
L 214.939085 182.063508 
L 215.653325 182.18105 
L 216.367565 182.104678 
L 217.796045 180.413513 
L 218.510285 182.193135 
L 219.938765 182.140559 
L 220.653005 178.678529 
L 221.367245 182.292728 
L 222.081485 179.827508 
L 222.795725 181.412694 
L 223.509965 182.255321 
L 224.224205 182.119276 
L 224.938445 182.270267 
L 225.652685 179.182229 
L 226.366925 181.265177 
L 227.081165 178.382665 
L 227.795405 182.34363 
L 228.509645 180.513861 
L 229.223885 182.331472 
L 229.938125 181.639384 
L 230.652365 182.375789 
L 231.366605 181.600838 
L 232.080845 182.423709 
L 232.795085 182.28608 
L 233.509325 181.6681 
L 234.223565 179.436101 
L 234.937805 182.266476 
L 235.652045 179.445168 
L 236.366285 177.422274 
L 237.080525 182.48727 
L 237.794765 182.412101 
L 238.509005 180.732477 
L 239.223245 180.113515 
L 239.937485 182.470415 
L 240.651725 182.471311 
L 241.365965 179.542762 
L 242.080205 178.82051 
L 242.794445 178.642393 
L 243.508685 182.453528 
L 244.222925 178.806704 
L 244.937165 177.333173 
L 245.651405 182.567678 
L 246.365645 181.649 
L 247.079885 181.785454 
L 247.794125 182.482534 
L 248.508365 180.735332 
L 249.222605 178.561764 
L 249.936845 181.714409 
L 250.651085 182.572821 
L 251.365325 178.653637 
L 252.079565 182.390216 
L 252.793805 176.661509 
L 253.508045 182.636383 
L 254.936525 182.617668 
L 255.650765 182.571562 
L 256.365005 179.131719 
L 257.079245 179.71152 
L 257.793485 180.870033 
L 258.507725 179.570684 
L 259.221965 180.327363 
L 259.936205 180.730723 
L 260.650445 179.801022 
L 261.364685 182.754658 
L 262.793165 182.67832 
L 263.507405 180.321634 
L 264.221645 182.74078 
L 264.935885 182.768369 
L 266.364365 181.21289 
L 267.078605 182.84182 
L 267.792845 182.777545 
L 268.507085 178.284701 
L 269.221325 179.278429 
L 269.935565 179.255015 
L 270.649805 179.77413 
L 271.364045 182.838633 
L 272.078285 177.235288 
L 272.792525 180.40748 
L 273.506765 182.849607 
L 274.221005 182.960976 
L 274.935245 179.293575 
L 275.649485 182.868738 
L 276.363725 182.154745 
L 277.077965 178.955403 
L 277.792205 182.875656 
L 278.506445 178.638377 
L 279.220685 179.873567 
L 279.934925 182.962748 
L 280.649165 182.844181 
L 281.363405 178.897495 
L 282.077645 183.024703 
L 284.220365 183.011186 
L 284.934605 182.85052 
L 285.648845 182.807903 
L 286.363085 182.312738 
L 287.077325 183.025392 
L 287.791565 181.284622 
L 288.505805 182.901146 
L 289.220045 183.0945 
L 289.934285 174.427987 
L 290.648525 183.112939 
L 291.362765 180.625187 
L 292.077005 183.099545 
L 292.791245 182.108463 
L 293.505485 181.612768 
L 294.219725 181.366694 
L 294.933965 182.384174 
L 295.648205 183.045889 
L 296.362445 179.589875 
L 297.076685 180.252055 
L 297.790925 183.112492 
L 298.505165 183.191836 
L 299.219405 181.382218 
L 299.933645 182.378532 
L 300.647885 180.852258 
L 301.362125 183.006431 
L 302.076365 182.34565 
L 302.790605 180.01011 
L 303.504845 180.301815 
L 304.219085 183.141366 
L 304.933325 180.160945 
L 305.647565 183.160705 
L 307.076045 177.431518 
L 307.790285 180.353825 
L 308.504525 180.34936 
L 309.218765 179.604221 
L 309.933005 183.316954 
L 310.647245 177.719059 
L 311.361485 183.335138 
L 312.075725 183.292945 
L 312.789965 179.455863 
L 313.504205 181.672156 
L 314.218445 181.011479 
L 314.932685 182.729596 
L 315.646925 183.490394 
L 316.361165 179.895707 
L 317.789645 183.545932 
L 318.503885 183.409759 
L 319.218125 183.539643 
L 319.932365 180.946406 
L 320.646605 179.047185 
L 321.360845 182.857492 
L 322.075085 183.555928 
L 322.789325 183.363865 
L 323.503565 178.461387 
L 324.217805 179.621716 
L 324.932045 183.489891 
L 325.646285 183.63359 
L 326.360525 183.562764 
L 327.789005 177.708438 
L 328.503245 182.821674 
L 329.217485 183.502319 
L 329.931725 183.705524 
L 330.645965 183.536862 
L 331.360205 177.311861 
L 332.074445 183.742549 
L 332.788685 183.485124 
L 333.502925 181.992089 
L 334.217165 183.419111 
L 334.931405 183.668562 
L 335.645645 180.511653 
L 336.359885 182.75186 
L 337.074125 179.835656 
L 337.788365 183.845352 
L 338.502605 182.952171 
L 339.216845 178.678692 
L 339.931085 182.960458 
L 340.645325 183.000643 
L 341.359565 183.848271 
L 342.073805 183.860452 
L 342.788045 180.473794 
L 343.502285 180.946735 
L 344.216525 178.208234 
L 344.930765 180.223309 
L 345.645005 183.738345 
L 346.359245 183.15208 
L 347.073485 178.894868 
L 347.787725 183.762686 
L 348.501965 181.236638 
L 349.216205 178.02166 
L 349.930445 180.031426 
L 350.644685 179.993387 
L 351.358925 178.86906 
L 352.073165 181.361456 
L 352.787405 181.462937 
L 353.501645 177.611695 
L 354.215885 182.248589 
L 354.930125 180.366582 
L 355.644365 177.145954 
L 356.358605 178.060845 
L 357.072845 184.081647 
L 357.787085 183.949168 
L 358.501325 176.812249 
L 359.215565 183.482336 
L 359.929805 183.946653 
L 360.644045 184.082374 
L 361.358285 180.60336 
L 362.072525 184.174343 
L 362.786765 182.487439 
L 363.501005 182.558968 
L 364.215245 180.511395 
L 364.929485 178.97085 
L 365.643725 179.923049 
L 366.357965 184.283107 
L 367.072205 181.655378 
L 367.786445 184.36501 
L 368.500685 184.299912 
L 369.214925 180.641688 
L 369.929165 184.459781 
L 370.643405 180.724619 
L 371.357645 184.390312 
L 372.786125 184.36524 
L 373.500365 184.444119 
L 374.214605 183.742583 
L 374.928845 184.431722 
L 375.643085 184.435218 
L 376.357325 181.260766 
L 377.071565 180.582942 
L 377.785805 184.528286 
L 378.500045 178.471167 
L 379.214285 182.722434 
L 379.928525 184.528796 
L 380.642765 180.183556 
L 381.357005 180.907299 
L 382.071245 178.511361 
L 382.785485 183.503274 
L 383.499725 184.616742 
L 384.213965 181.778266 
L 384.928205 184.515704 
L 385.642445 181.776025 
L 386.356685 182.134649 
L 387.070925 184.049105 
L 387.785165 179.610677 
L 388.499405 184.135719 
L 389.213645 184.529604 
L 389.927885 183.724506 
L 390.642125 181.643215 
L 391.356365 184.626949 
L 392.070605 182.329879 
L 392.784845 183.939658 
L 393.499085 180.283584 
L 394.213325 181.175869 
L 394.927565 179.438865 
L 395.641805 184.876532 
L 396.356045 184.845186 
L 397.070285 180.940423 
L 397.784525 182.416587 
L 398.498765 181.960492 
L 399.213005 184.96761 
L 399.927245 184.287524 
L 400.641485 181.882182 
L 401.355725 184.964196 
L 402.069965 181.237973 
L 402.784205 185.02416 
L 404.212685 179.348982 
L 405.641165 184.867797 
L 406.355405 184.188554 
L 407.069645 178.087686 
L 407.783885 181.549912 
L 407.783885 181.549912 
" clip-path="url(#pfb6f33d676)" style="fill: none; stroke: #1f77b4; stroke-width: 1.5; stroke-linecap: square"/>
   </g>
   <g id="line2d_65">
    <path d="M 51.378125 29.985573 
L 52.092365 33.512548 
L 52.806605 45.242573 
L 53.520845 44.623063 
L 54.235085 56.529831 
L 54.949325 65.98684 
L 55.663565 84.629446 
L 56.377805 82.825279 
L 57.092045 83.820112 
L 57.806285 85.650241 
L 58.520525 87.090475 
L 59.234765 94.17239 
L 59.949005 83.228998 
L 60.663245 101.357685 
L 61.377485 106.510009 
L 62.805965 153.00326 
L 63.520205 133.871957 
L 65.662925 170.188088 
L 66.377165 147.491819 
L 67.091405 174.634574 
L 67.805645 213.031318 
L 68.519885 152.9084 
L 69.234125 208.559398 
L 69.948365 166.854214 
L 70.662605 179.133321 
L 71.376845 194.528737 
L 72.091085 176.427438 
L 72.805325 192.376814 
L 73.519565 184.796575 
L 74.233805 175.759468 
L 74.948045 173.67887 
L 75.662285 181.549354 
L 76.376525 172.038935 
L 77.090765 172.517752 
L 77.805005 208.504612 
L 78.519245 205.635466 
L 79.233485 196.482801 
L 79.947725 218.865064 
L 80.661965 175.89126 
L 81.376205 172.282843 
L 82.090445 150.16323 
L 82.804685 154.815125 
L 83.518925 187.685208 
L 84.233165 179.115948 
L 84.947405 186.016693 
L 85.661645 190.281494 
L 86.375885 209.203133 
L 87.090125 210.20825 
L 87.804365 192.67658 
L 88.518605 140.002113 
L 89.232845 116.319058 
L 89.947085 131.082087 
L 90.661325 137.467358 
L 91.375565 114.62846 
L 92.089805 127.105843 
L 92.804045 130.128249 
L 93.518285 167.209423 
L 94.232525 151.543795 
L 94.946765 178.197927 
L 95.661005 198.351484 
L 96.375245 184.057103 
L 97.089485 178.334733 
L 97.803725 225.075273 
L 98.517965 177.4999 
L 99.232205 202.849794 
L 99.946445 202.843923 
L 100.660685 218.126888 
L 101.374925 228.119185 
L 102.089165 207.511087 
L 102.803405 229.928743 
L 103.517645 238.93402 
L 104.231885 210.866789 
L 104.946125 203.799144 
L 105.660365 236.090741 
L 106.374605 211.099108 
L 107.088845 225.865972 
L 107.803085 245.031446 
L 108.517325 226.884975 
L 109.231565 249.741761 
L 109.945805 243.621104 
L 110.660045 211.829424 
L 111.374285 250.037205 
L 112.088525 225.740189 
L 112.802765 231.83303 
L 113.517005 203.7612 
L 114.231245 201.176919 
L 114.945485 206.253054 
L 115.659725 209.385889 
L 116.373965 198.411797 
L 117.088205 215.064729 
L 117.802445 210.087829 
L 118.516685 230.76459 
L 119.230925 216.655243 
L 119.945165 221.965381 
L 120.659405 219.787048 
L 121.373645 207.578505 
L 122.087885 203.499274 
L 122.802125 191.486422 
L 123.516365 239.268781 
L 124.230605 228.776485 
L 124.944845 251.812645 
L 125.659085 237.829664 
L 126.373325 215.895557 
L 127.087565 214.506692 
L 127.801805 190.053101 
L 128.516045 191.688633 
L 129.230285 209.614173 
L 129.944525 197.948264 
L 130.658765 214.928502 
L 131.373005 216.841785 
L 132.801485 208.321869 
L 133.515725 232.421389 
L 134.229965 214.337853 
L 134.944205 209.632195 
L 135.658445 215.302003 
L 136.372685 248.841871 
L 137.086925 197.52991 
L 137.801165 233.703282 
L 138.515405 213.55521 
L 139.229645 236.975928 
L 139.943885 242.23467 
L 140.658125 257.707003 
L 141.372365 230.709481 
L 142.086605 239.496386 
L 142.800845 254.003058 
L 143.515085 221.539644 
L 144.229325 228.875196 
L 144.943565 250.585668 
L 145.657805 245.831746 
L 146.372045 244.168729 
L 147.086285 257.204611 
L 147.800525 221.784764 
L 148.514765 221.088699 
L 149.229005 245.138192 
L 149.943245 226.45764 
L 150.657485 262.444858 
L 151.371725 253.519869 
L 152.085965 231.399568 
L 152.800205 264.845836 
L 153.514445 225.837313 
L 154.228685 249.593029 
L 154.942925 231.91783 
L 155.657165 210.103755 
L 156.371405 220.952185 
L 157.085645 244.363041 
L 157.799885 251.518724 
L 158.514125 249.235848 
L 159.228365 251.950947 
L 159.942605 252.486049 
L 160.656845 220.337489 
L 161.371085 252.293625 
L 162.085325 253.882942 
L 162.799565 257.066631 
L 163.513805 252.540227 
L 164.228045 262.025238 
L 164.942285 244.96798 
L 165.656525 241.347758 
L 166.370765 263.321338 
L 167.085005 264.441916 
L 167.799245 246.986867 
L 168.513485 237.140742 
L 169.227725 260.704158 
L 169.941965 260.483361 
L 170.656205 230.92172 
L 171.370445 261.37262 
L 172.084685 245.897826 
L 172.798925 241.892425 
L 173.513165 258.389637 
L 174.227405 242.679397 
L 174.941645 249.594148 
L 175.655885 247.740827 
L 176.370125 240.594893 
L 177.084365 235.972048 
L 177.798605 239.04117 
L 179.227085 231.144617 
L 179.941325 250.314674 
L 180.655565 252.059459 
L 181.369805 255.869729 
L 182.084045 226.878077 
L 182.798285 257.216883 
L 183.512525 256.244214 
L 184.226765 262.886947 
L 184.941005 260.830464 
L 185.655245 260.994311 
L 186.369485 256.109765 
L 187.083725 261.756015 
L 187.797965 256.560584 
L 188.512205 259.985016 
L 189.226445 249.389737 
L 189.940685 259.35638 
L 190.654925 254.420816 
L 191.369165 257.706443 
L 192.083405 259.34889 
L 192.797645 257.59904 
L 193.511885 259.894377 
L 194.226125 252.291088 
L 194.940365 262.874246 
L 195.654605 261.681669 
L 196.368845 261.575202 
L 197.083085 242.92928 
L 197.797325 260.292632 
L 198.511565 257.671691 
L 199.225805 255.480766 
L 199.940045 264.629315 
L 200.654285 260.955809 
L 201.368525 258.138525 
L 202.082765 262.807867 
L 202.797005 254.740193 
L 204.225485 262.089572 
L 204.939725 261.823661 
L 205.653965 256.580827 
L 206.368205 263.021908 
L 207.082445 260.779701 
L 207.796685 255.782312 
L 208.510925 260.218928 
L 209.225165 258.81315 
L 209.939405 262.208404 
L 210.653645 261.442697 
L 211.367885 259.247413 
L 212.082125 257.911768 
L 212.796365 262.812785 
L 213.510605 259.586499 
L 214.224845 254.270672 
L 214.939085 263.790053 
L 215.653325 262.205952 
L 216.367565 260.988576 
L 217.081805 262.738369 
L 217.796045 261.577959 
L 218.510285 259.42237 
L 219.224525 264.166942 
L 219.938765 263.571345 
L 220.653005 258.207122 
L 221.367245 261.556068 
L 222.081485 264.302022 
L 222.795725 258.464064 
L 223.509965 261.624744 
L 224.224205 263.294513 
L 224.938445 256.610919 
L 225.652685 254.042661 
L 226.366925 263.473796 
L 227.081165 263.891317 
L 227.795405 255.299377 
L 228.509645 257.36984 
L 229.223885 263.165675 
L 229.938125 262.722351 
L 230.652365 258.179556 
L 231.366605 259.515304 
L 232.080845 263.634467 
L 232.795085 263.205302 
L 233.509325 260.95538 
L 234.223565 260.41862 
L 235.652045 263.864918 
L 236.366285 262.038327 
L 237.080525 258.18931 
L 237.794765 257.930175 
L 238.509005 262.406488 
L 239.223245 263.362956 
L 239.937485 261.882494 
L 240.651725 259.299755 
L 241.365965 260.411622 
L 242.080205 262.322457 
L 242.794445 263.751069 
L 243.508685 262.01408 
L 244.222925 260.62332 
L 244.937165 260.116921 
L 245.651405 259.831649 
L 246.365645 263.107038 
L 247.079885 263.186087 
L 247.794125 261.065957 
L 248.508365 262.170589 
L 249.222605 260.87411 
L 249.936845 262.351503 
L 250.651085 263.298494 
L 251.365325 260.838071 
L 252.079565 259.969594 
L 252.793805 257.55722 
L 253.508045 260.221109 
L 254.222285 261.860159 
L 254.936525 259.929278 
L 255.650765 263.365665 
L 256.365005 261.532468 
L 257.079245 261.747083 
L 257.793485 261.517004 
L 258.507725 260.984958 
L 259.221965 262.277957 
L 259.936205 260.054315 
L 260.650445 259.017234 
L 261.364685 261.128099 
L 262.793165 264.288184 
L 263.507405 262.047369 
L 264.221645 256.431782 
L 264.935885 260.520794 
L 265.650125 263.870382 
L 266.364365 263.494946 
L 267.078605 258.870086 
L 268.507085 262.846912 
L 269.221325 262.177113 
L 269.935565 257.412401 
L 270.649805 262.049534 
L 271.364045 261.588386 
L 272.078285 262.249822 
L 272.792525 262.241046 
L 273.506765 260.003889 
L 274.221005 260.895654 
L 274.935245 262.567192 
L 275.649485 262.303584 
L 276.363725 255.5678 
L 277.077965 262.269368 
L 277.792205 263.979023 
L 278.506445 261.860972 
L 279.220685 254.730813 
L 279.934925 260.921991 
L 280.649165 263.716354 
L 281.363405 261.998922 
L 282.077645 261.444617 
L 282.791885 263.02261 
L 283.506125 262.791509 
L 284.220365 259.47063 
L 284.934605 262.386616 
L 285.648845 264.292457 
L 286.363085 261.826079 
L 287.077325 256.246033 
L 287.791565 263.788805 
L 289.220045 260.61837 
L 289.934285 262.987784 
L 291.362765 259.773198 
L 292.077005 262.214366 
L 292.791245 261.582463 
L 293.505485 259.418552 
L 294.219725 258.365013 
L 294.933965 262.029432 
L 295.648205 263.321823 
L 296.362445 257.722455 
L 297.076685 259.93878 
L 297.790925 263.144721 
L 298.505165 259.411756 
L 299.219405 263.00207 
L 299.933645 262.356337 
L 300.647885 258.992233 
L 301.362125 260.985941 
L 302.076365 261.498448 
L 302.790605 264.326708 
L 303.504845 262.213357 
L 304.219085 257.256886 
L 304.933325 263.581347 
L 305.647565 264.485407 
L 306.361805 259.259109 
L 307.076045 260.132505 
L 307.790285 262.291389 
L 308.504525 261.804377 
L 309.218765 260.919571 
L 309.933005 262.084761 
L 310.647245 258.372793 
L 311.361485 259.055731 
L 312.075725 261.978216 
L 312.789965 260.657174 
L 313.504205 262.796276 
L 314.218445 263.126004 
L 314.932685 261.490075 
L 315.646925 261.629062 
L 316.361165 260.559616 
L 317.075405 261.868357 
L 317.789645 262.058703 
L 318.503885 261.723742 
L 319.218125 262.319704 
L 319.932365 262.733507 
L 320.646605 262.341183 
L 321.360845 254.131284 
L 322.075085 261.707135 
L 322.789325 263.730324 
L 323.503565 264.268031 
L 324.217805 259.590734 
L 324.932045 260.173178 
L 325.646285 261.039275 
L 326.360525 263.160756 
L 327.074765 258.869735 
L 327.789005 261.333463 
L 328.503245 262.709017 
L 329.217485 261.461433 
L 329.931725 262.342921 
L 330.645965 263.442335 
L 332.788685 261.944217 
L 333.502925 262.587312 
L 334.217165 260.568907 
L 334.931405 264.413229 
L 335.645645 263.614207 
L 336.359885 256.705553 
L 337.074125 259.292094 
L 337.788365 263.22508 
L 338.502605 261.836602 
L 339.216845 259.341754 
L 339.931085 258.978753 
L 340.645325 262.655679 
L 341.359565 260.240135 
L 342.073805 261.990084 
L 342.788045 262.379814 
L 343.502285 263.195595 
L 344.216525 258.850184 
L 344.930765 261.564152 
L 345.645005 262.952259 
L 346.359245 263.467244 
L 347.073485 256.60825 
L 347.787725 261.119517 
L 348.501965 263.865837 
L 349.216205 260.361494 
L 349.930445 255.649543 
L 350.644685 262.565961 
L 351.358925 260.918353 
L 352.073165 260.856561 
L 352.787405 255.667364 
L 353.501645 264.232885 
L 354.215885 261.709824 
L 354.930125 254.837555 
L 355.644365 264.799123 
L 356.358605 263.572909 
L 357.072845 261.731733 
L 357.787085 263.506544 
L 358.501325 258.438361 
L 359.215565 254.630263 
L 359.929805 262.057849 
L 360.644045 262.56605 
L 361.358285 264.218158 
L 362.786765 257.684493 
L 363.501005 263.468721 
L 364.215245 263.834491 
L 364.929485 257.143963 
L 365.643725 261.681329 
L 366.357965 263.652659 
L 367.072205 259.32245 
L 367.786445 258.924258 
L 368.500685 263.563653 
L 369.214925 264.411703 
L 369.929165 258.863094 
L 370.643405 261.006152 
L 371.357645 263.608739 
L 372.071885 263.938008 
L 372.786125 256.811133 
L 373.500365 261.773752 
L 374.214605 263.558718 
L 374.928845 258.921009 
L 375.643085 258.92482 
L 376.357325 263.067212 
L 377.071565 262.717014 
L 377.785805 261.599171 
L 378.500045 257.617841 
L 379.214285 263.566898 
L 379.928525 256.264264 
L 380.642765 262.057774 
L 381.357005 261.399673 
L 382.071245 262.983207 
L 382.785485 261.805556 
L 383.499725 261.420072 
L 384.213965 264.39053 
L 384.928205 262.379037 
L 385.642445 261.035412 
L 386.356685 262.08526 
L 387.070925 264.016343 
L 387.785165 262.152063 
L 388.499405 258.23478 
L 389.213645 258.862415 
L 389.927885 262.834359 
L 390.642125 264.126705 
L 391.356365 259.98429 
L 392.070605 262.087766 
L 392.784845 263.712468 
L 393.499085 258.13537 
L 394.213325 262.620169 
L 394.927565 262.454895 
L 395.641805 256.775596 
L 396.356045 260.900726 
L 397.070285 264.191831 
L 397.784525 260.059987 
L 398.498765 262.916282 
L 399.213005 261.308849 
L 399.927245 257.979588 
L 400.641485 264.458392 
L 401.355725 262.324389 
L 402.069965 260.549258 
L 402.784205 263.411263 
L 403.498445 263.639522 
L 404.212685 253.137649 
L 404.926925 264.666157 
L 405.641165 263.436724 
L 406.355405 257.537691 
L 407.069645 262.320001 
L 407.783885 263.814606 
L 407.783885 263.814606 
" clip-path="url(#pfb6f33d676)" style="fill: none; stroke: #ff7f0e; stroke-width: 1.5; stroke-linecap: square"/>
   </g>
   <g id="patch_3">
    <path d="M 51.378125 276.941836 
L 51.378125 10.829836 
" style="fill: none; stroke: #000000; stroke-width: 0.8; stroke-linejoin: miter; stroke-linecap: square"/>
   </g>
   <g id="patch_4">
    <path d="M 408.498125 276.941836 
L 408.498125 10.829836 
" style="fill: none; stroke: #000000; stroke-width: 0.8; stroke-linejoin: miter; stroke-linecap: square"/>
   </g>
   <g id="patch_5">
    <path d="M 51.378125 276.941836 
L 408.498125 276.941836 
" style="fill: none; stroke: #000000; stroke-width: 0.8; stroke-linejoin: miter; stroke-linecap: square"/>
   </g>
   <g id="patch_6">
    <path d="M 51.378125 10.829836 
L 408.498125 10.829836 
" style="fill: none; stroke: #000000; stroke-width: 0.8; stroke-linejoin: miter; stroke-linecap: square"/>
   </g>
   <g id="legend_1">
    <g id="patch_7">
     <path d="M 320.26375 48.186086 
L 401.498125 48.186086 
Q 403.498125 48.186086 403.498125 46.186086 
L 403.498125 17.829836 
Q 403.498125 15.829836 401.498125 15.829836 
L 320.26375 15.829836 
Q 318.26375 15.829836 318.26375 17.829836 
L 318.26375 46.186086 
Q 318.26375 48.186086 320.26375 48.186086 
z
" style="fill: #ffffff; opacity: 0.8; stroke: #cccccc; stroke-linejoin: miter"/>
    </g>
    <g id="line2d_66">
     <path d="M 322.26375 23.928273 
L 332.26375 23.928273 
L 342.26375 23.928273 
" style="fill: none; stroke: #1f77b4; stroke-width: 1.5; stroke-linecap: square"/>
    </g>
    <g id="text_16">
     <!-- training -->
     <g transform="translate(350.26375 27.428273) scale(0.1 -0.1)">
      <defs>
       <path id="DejaVuSans-74" d="M 1172 4494 
L 1172 3500 
L 2356 3500 
L 2356 3053 
L 1172 3053 
L 1172 1153 
Q 1172 725 1289 603 
Q 1406 481 1766 481 
L 2356 481 
L 2356 0 
L 1766 0 
Q 1100 0 847 248 
Q 594 497 594 1153 
L 594 3053 
L 172 3053 
L 172 3500 
L 594 3500 
L 594 4494 
L 1172 4494 
z
" transform="scale(0.015625)"/>
       <path id="DejaVuSans-72" d="M 2631 2963 
Q 2534 3019 2420 3045 
Q 2306 3072 2169 3072 
Q 1681 3072 1420 2755 
Q 1159 2438 1159 1844 
L 1159 0 
L 581 0 
L 581 3500 
L 1159 3500 
L 1159 2956 
Q 1341 3275 1631 3429 
Q 1922 3584 2338 3584 
Q 2397 3584 2469 3576 
Q 2541 3569 2628 3553 
L 2631 2963 
z
" transform="scale(0.015625)"/>
       <path id="DejaVuSans-61" d="M 2194 1759 
Q 1497 1759 1228 1600 
Q 959 1441 959 1056 
Q 959 750 1161 570 
Q 1363 391 1709 391 
Q 2188 391 2477 730 
Q 2766 1069 2766 1631 
L 2766 1759 
L 2194 1759 
z
M 3341 1997 
L 3341 0 
L 2766 0 
L 2766 531 
Q 2569 213 2275 61 
Q 1981 -91 1556 -91 
Q 1019 -91 701 211 
Q 384 513 384 1019 
Q 384 1609 779 1909 
Q 1175 2209 1959 2209 
L 2766 2209 
L 2766 2266 
Q 2766 2663 2505 2880 
Q 2244 3097 1772 3097 
Q 1472 3097 1187 3025 
Q 903 2953 641 2809 
L 641 3341 
Q 956 3463 1253 3523 
Q 1550 3584 1831 3584 
Q 2591 3584 2966 3190 
Q 3341 2797 3341 1997 
z
" transform="scale(0.015625)"/>
       <path id="DejaVuSans-69" d="M 603 3500 
L 1178 3500 
L 1178 0 
L 603 0 
L 603 3500 
z
M 603 4863 
L 1178 4863 
L 1178 4134 
L 603 4134 
L 603 4863 
z
" transform="scale(0.015625)"/>
       <path id="DejaVuSans-6e" d="M 3513 2113 
L 3513 0 
L 2938 0 
L 2938 2094 
Q 2938 2591 2744 2837 
Q 2550 3084 2163 3084 
Q 1697 3084 1428 2787 
Q 1159 2491 1159 1978 
L 1159 0 
L 581 0 
L 581 3500 
L 1159 3500 
L 1159 2956 
Q 1366 3272 1645 3428 
Q 1925 3584 2291 3584 
Q 2894 3584 3203 3211 
Q 3513 2838 3513 2113 
z
" transform="scale(0.015625)"/>
       <path id="DejaVuSans-67" d="M 2906 1791 
Q 2906 2416 2648 2759 
Q 2391 3103 1925 3103 
Q 1463 3103 1205 2759 
Q 947 2416 947 1791 
Q 947 1169 1205 825 
Q 1463 481 1925 481 
Q 2391 481 2648 825 
Q 2906 1169 2906 1791 
z
M 3481 434 
Q 3481 -459 3084 -895 
Q 2688 -1331 1869 -1331 
Q 1566 -1331 1297 -1286 
Q 1028 -1241 775 -1147 
L 775 -588 
Q 1028 -725 1275 -790 
Q 1522 -856 1778 -856 
Q 2344 -856 2625 -561 
Q 2906 -266 2906 331 
L 2906 616 
Q 2728 306 2450 153 
Q 2172 0 1784 0 
Q 1141 0 747 490 
Q 353 981 353 1791 
Q 353 2603 747 3093 
Q 1141 3584 1784 3584 
Q 2172 3584 2450 3431 
Q 2728 3278 2906 2969 
L 2906 3500 
L 3481 3500 
L 3481 434 
z
" transform="scale(0.015625)"/>
      </defs>
      <use xlink:href="#DejaVuSans-74"/>
      <use xlink:href="#DejaVuSans-72" x="39.208984"/>
      <use xlink:href="#DejaVuSans-61" x="80.322266"/>
      <use xlink:href="#DejaVuSans-69" x="141.601562"/>
      <use xlink:href="#DejaVuSans-6e" x="169.384766"/>
      <use xlink:href="#DejaVuSans-69" x="232.763672"/>
      <use xlink:href="#DejaVuSans-6e" x="260.546875"/>
      <use xlink:href="#DejaVuSans-67" x="323.925781"/>
     </g>
    </g>
    <g id="line2d_67">
     <path d="M 322.26375 38.606398 
L 332.26375 38.606398 
L 342.26375 38.606398 
" style="fill: none; stroke: #ff7f0e; stroke-width: 1.5; stroke-linecap: square"/>
    </g>
    <g id="text_17">
     <!-- validation -->
     <g transform="translate(350.26375 42.106398) scale(0.1 -0.1)">
      <defs>
       <path id="DejaVuSans-76" d="M 191 3500 
L 800 3500 
L 1894 563 
L 2988 3500 
L 3597 3500 
L 2284 0 
L 1503 0 
L 191 3500 
z
" transform="scale(0.015625)"/>
       <path id="DejaVuSans-6c" d="M 603 4863 
L 1178 4863 
L 1178 0 
L 603 0 
L 603 4863 
z
" transform="scale(0.015625)"/>
       <path id="DejaVuSans-64" d="M 2906 2969 
L 2906 4863 
L 3481 4863 
L 3481 0 
L 2906 0 
L 2906 525 
Q 2725 213 2448 61 
Q 2172 -91 1784 -91 
Q 1150 -91 751 415 
Q 353 922 353 1747 
Q 353 2572 751 3078 
Q 1150 3584 1784 3584 
Q 2172 3584 2448 3432 
Q 2725 3281 2906 2969 
z
M 947 1747 
Q 947 1113 1208 752 
Q 1469 391 1925 391 
Q 2381 391 2643 752 
Q 2906 1113 2906 1747 
Q 2906 2381 2643 2742 
Q 2381 3103 1925 3103 
Q 1469 3103 1208 2742 
Q 947 2381 947 1747 
z
" transform="scale(0.015625)"/>
      </defs>
      <use xlink:href="#DejaVuSans-76"/>
      <use xlink:href="#DejaVuSans-61" x="59.179688"/>
      <use xlink:href="#DejaVuSans-6c" x="120.458984"/>
      <use xlink:href="#DejaVuSans-69" x="148.242188"/>
      <use xlink:href="#DejaVuSans-64" x="176.025391"/>
      <use xlink:href="#DejaVuSans-61" x="239.501953"/>
      <use xlink:href="#DejaVuSans-74" x="300.78125"/>
      <use xlink:href="#DejaVuSans-69" x="339.990234"/>
      <use xlink:href="#DejaVuSans-6f" x="367.773438"/>
      <use xlink:href="#DejaVuSans-6e" x="428.955078"/>
     </g>
    </g>
   </g>
  </g>
 </g>
 <defs>
  <clipPath id="pfb6f33d676">
   <rect x="51.378125" y="10.829836" width="357.12" height="266.112"/>
  </clipPath>
 </defs>
</svg>
