<?xml version="1.0" encoding="utf-8" standalone="no"?>
<!DOCTYPE svg PUBLIC "-//W3C//DTD SVG 1.1//EN"
  "http://www.w3.org/Graphics/SVG/1.1/DTD/svg11.dtd">
<!-- Created with matplotlib (https://matplotlib.org/) -->
<svg height="262.19625pt" version="1.1" viewBox="0 0 388.74054 262.19625" width="388.74054pt" xmlns="http://www.w3.org/2000/svg" xmlns:xlink="http://www.w3.org/1999/xlink">
 <metadata>
  <rdf:RDF xmlns:cc="http://creativecommons.org/ns#" xmlns:dc="http://purl.org/dc/elements/1.1/" xmlns:rdf="http://www.w3.org/1999/02/22-rdf-syntax-ns#">
   <cc:Work>
    <dc:type rdf:resource="http://purl.org/dc/dcmitype/StillImage"/>
    <dc:date>2021-12-08T10:29:15.195316</dc:date>
    <dc:format>image/svg+xml</dc:format>
    <dc:creator>
     <cc:Agent>
      <dc:title>Matplotlib v3.3.3, https://matplotlib.org/</dc:title>
     </cc:Agent>
    </dc:creator>
   </cc:Work>
  </rdf:RDF>
 </metadata>
 <defs>
  <style type="text/css">*{stroke-linecap:butt;stroke-linejoin:round;}</style>
 </defs>
 <g id="figure_1">
  <g id="patch_1">
   <path d="M 0 262.19625 
L 388.74054 262.19625 
L 388.74054 0 
L 0 0 
z
" style="fill:none;"/>
  </g>
  <g id="axes_1">
   <g id="patch_2">
    <path d="M 44.845313 224.64 
L 379.645313 224.64 
L 379.645313 7.2 
L 44.845313 7.2 
z
" style="fill:#ffffff;"/>
   </g>
   <g id="matplotlib.axis_1">
    <g id="xtick_1">
     <g id="line2d_1">
      <defs>
       <path d="M 0 0 
L 0 3.5 
" id="m7f57dc957c" style="stroke:#000000;stroke-width:0.8;"/>
      </defs>
      <g>
       <use style="stroke:#000000;stroke-width:0.8;" x="87.713426" xlink:href="#m7f57dc957c" y="224.64"/>
      </g>
     </g>
     <g id="text_1">
      <!-- −1 -->
      <g transform="translate(80.342332 239.238438)scale(0.1 -0.1)">
       <defs>
        <path d="M 10.59375 35.5 
L 73.1875 35.5 
L 73.1875 27.203125 
L 10.59375 27.203125 
z
" id="DejaVuSans-8722"/>
        <path d="M 12.40625 8.296875 
L 28.515625 8.296875 
L 28.515625 63.921875 
L 10.984375 60.40625 
L 10.984375 69.390625 
L 28.421875 72.90625 
L 38.28125 72.90625 
L 38.28125 8.296875 
L 54.390625 8.296875 
L 54.390625 0 
L 12.40625 0 
z
" id="DejaVuSans-49"/>
       </defs>
       <use xlink:href="#DejaVuSans-8722"/>
       <use x="83.789062" xlink:href="#DejaVuSans-49"/>
      </g>
     </g>
    </g>
    <g id="xtick_2">
     <g id="line2d_2">
      <g>
       <use style="stroke:#000000;stroke-width:0.8;" x="136.154403" xlink:href="#m7f57dc957c" y="224.64"/>
      </g>
     </g>
     <g id="text_2">
      <!-- 0 -->
      <g transform="translate(132.973153 239.238438)scale(0.1 -0.1)">
       <defs>
        <path d="M 31.78125 66.40625 
Q 24.171875 66.40625 20.328125 58.90625 
Q 16.5 51.421875 16.5 36.375 
Q 16.5 21.390625 20.328125 13.890625 
Q 24.171875 6.390625 31.78125 6.390625 
Q 39.453125 6.390625 43.28125 13.890625 
Q 47.125 21.390625 47.125 36.375 
Q 47.125 51.421875 43.28125 58.90625 
Q 39.453125 66.40625 31.78125 66.40625 
z
M 31.78125 74.21875 
Q 44.046875 74.21875 50.515625 64.515625 
Q 56.984375 54.828125 56.984375 36.375 
Q 56.984375 17.96875 50.515625 8.265625 
Q 44.046875 -1.421875 31.78125 -1.421875 
Q 19.53125 -1.421875 13.0625 8.265625 
Q 6.59375 17.96875 6.59375 36.375 
Q 6.59375 54.828125 13.0625 64.515625 
Q 19.53125 74.21875 31.78125 74.21875 
z
" id="DejaVuSans-48"/>
       </defs>
       <use xlink:href="#DejaVuSans-48"/>
      </g>
     </g>
    </g>
    <g id="xtick_3">
     <g id="line2d_3">
      <g>
       <use style="stroke:#000000;stroke-width:0.8;" x="184.595381" xlink:href="#m7f57dc957c" y="224.64"/>
      </g>
     </g>
     <g id="text_3">
      <!-- 1 -->
      <g transform="translate(181.414131 239.238438)scale(0.1 -0.1)">
       <use xlink:href="#DejaVuSans-49"/>
      </g>
     </g>
    </g>
    <g id="xtick_4">
     <g id="line2d_4">
      <g>
       <use style="stroke:#000000;stroke-width:0.8;" x="233.036358" xlink:href="#m7f57dc957c" y="224.64"/>
      </g>
     </g>
     <g id="text_4">
      <!-- 2 -->
      <g transform="translate(229.855108 239.238438)scale(0.1 -0.1)">
       <defs>
        <path d="M 19.1875 8.296875 
L 53.609375 8.296875 
L 53.609375 0 
L 7.328125 0 
L 7.328125 8.296875 
Q 12.9375 14.109375 22.625 23.890625 
Q 32.328125 33.6875 34.8125 36.53125 
Q 39.546875 41.84375 41.421875 45.53125 
Q 43.3125 49.21875 43.3125 52.78125 
Q 43.3125 58.59375 39.234375 62.25 
Q 35.15625 65.921875 28.609375 65.921875 
Q 23.96875 65.921875 18.8125 64.3125 
Q 13.671875 62.703125 7.8125 59.421875 
L 7.8125 69.390625 
Q 13.765625 71.78125 18.9375 73 
Q 24.125 74.21875 28.421875 74.21875 
Q 39.75 74.21875 46.484375 68.546875 
Q 53.21875 62.890625 53.21875 53.421875 
Q 53.21875 48.921875 51.53125 44.890625 
Q 49.859375 40.875 45.40625 35.40625 
Q 44.1875 33.984375 37.640625 27.21875 
Q 31.109375 20.453125 19.1875 8.296875 
z
" id="DejaVuSans-50"/>
       </defs>
       <use xlink:href="#DejaVuSans-50"/>
      </g>
     </g>
    </g>
    <g id="xtick_5">
     <g id="line2d_5">
      <g>
       <use style="stroke:#000000;stroke-width:0.8;" x="281.477335" xlink:href="#m7f57dc957c" y="224.64"/>
      </g>
     </g>
     <g id="text_5">
      <!-- 3 -->
      <g transform="translate(278.296085 239.238438)scale(0.1 -0.1)">
       <defs>
        <path d="M 40.578125 39.3125 
Q 47.65625 37.796875 51.625 33 
Q 55.609375 28.21875 55.609375 21.1875 
Q 55.609375 10.40625 48.1875 4.484375 
Q 40.765625 -1.421875 27.09375 -1.421875 
Q 22.515625 -1.421875 17.65625 -0.515625 
Q 12.796875 0.390625 7.625 2.203125 
L 7.625 11.71875 
Q 11.71875 9.328125 16.59375 8.109375 
Q 21.484375 6.890625 26.8125 6.890625 
Q 36.078125 6.890625 40.9375 10.546875 
Q 45.796875 14.203125 45.796875 21.1875 
Q 45.796875 27.640625 41.28125 31.265625 
Q 36.765625 34.90625 28.71875 34.90625 
L 20.21875 34.90625 
L 20.21875 43.015625 
L 29.109375 43.015625 
Q 36.375 43.015625 40.234375 45.921875 
Q 44.09375 48.828125 44.09375 54.296875 
Q 44.09375 59.90625 40.109375 62.90625 
Q 36.140625 65.921875 28.71875 65.921875 
Q 24.65625 65.921875 20.015625 65.03125 
Q 15.375 64.15625 9.8125 62.3125 
L 9.8125 71.09375 
Q 15.4375 72.65625 20.34375 73.4375 
Q 25.25 74.21875 29.59375 74.21875 
Q 40.828125 74.21875 47.359375 69.109375 
Q 53.90625 64.015625 53.90625 55.328125 
Q 53.90625 49.265625 50.4375 45.09375 
Q 46.96875 40.921875 40.578125 39.3125 
z
" id="DejaVuSans-51"/>
       </defs>
       <use xlink:href="#DejaVuSans-51"/>
      </g>
     </g>
    </g>
    <g id="xtick_6">
     <g id="line2d_6">
      <g>
       <use style="stroke:#000000;stroke-width:0.8;" x="329.918312" xlink:href="#m7f57dc957c" y="224.64"/>
      </g>
     </g>
     <g id="text_6">
      <!-- 4 -->
      <g transform="translate(326.737062 239.238438)scale(0.1 -0.1)">
       <defs>
        <path d="M 37.796875 64.3125 
L 12.890625 25.390625 
L 37.796875 25.390625 
z
M 35.203125 72.90625 
L 47.609375 72.90625 
L 47.609375 25.390625 
L 58.015625 25.390625 
L 58.015625 17.1875 
L 47.609375 17.1875 
L 47.609375 0 
L 37.796875 0 
L 37.796875 17.1875 
L 4.890625 17.1875 
L 4.890625 26.703125 
z
" id="DejaVuSans-52"/>
       </defs>
       <use xlink:href="#DejaVuSans-52"/>
      </g>
     </g>
    </g>
    <g id="xtick_7">
     <g id="line2d_7">
      <g>
       <use style="stroke:#000000;stroke-width:0.8;" x="378.35929" xlink:href="#m7f57dc957c" y="224.64"/>
      </g>
     </g>
     <g id="text_7">
      <!-- 5 -->
      <g transform="translate(375.17804 239.238438)scale(0.1 -0.1)">
       <defs>
        <path d="M 10.796875 72.90625 
L 49.515625 72.90625 
L 49.515625 64.59375 
L 19.828125 64.59375 
L 19.828125 46.734375 
Q 21.96875 47.46875 24.109375 47.828125 
Q 26.265625 48.1875 28.421875 48.1875 
Q 40.625 48.1875 47.75 41.5 
Q 54.890625 34.8125 54.890625 23.390625 
Q 54.890625 11.625 47.5625 5.09375 
Q 40.234375 -1.421875 26.90625 -1.421875 
Q 22.3125 -1.421875 17.546875 -0.640625 
Q 12.796875 0.140625 7.71875 1.703125 
L 7.71875 11.625 
Q 12.109375 9.234375 16.796875 8.0625 
Q 21.484375 6.890625 26.703125 6.890625 
Q 35.15625 6.890625 40.078125 11.328125 
Q 45.015625 15.765625 45.015625 23.390625 
Q 45.015625 31 40.078125 35.4375 
Q 35.15625 39.890625 26.703125 39.890625 
Q 22.75 39.890625 18.8125 39.015625 
Q 14.890625 38.140625 10.796875 36.28125 
z
" id="DejaVuSans-53"/>
       </defs>
       <use xlink:href="#DejaVuSans-53"/>
      </g>
     </g>
    </g>
    <g id="text_8">
     <!-- $\vartheta$ -->
     <g transform="translate(209.145313 252.916563)scale(0.1 -0.1)">
      <defs>
       <path d="M 47.015625 42.96875 
Q 49.65625 54.984375 48.140625 61.140625 
Q 46.09375 69.4375 39.265625 69.4375 
Q 35.203125 69.4375 31.390625 65.96875 
Q 28.03125 62.75 27.203125 58.34375 
Q 25.734375 50.875 30.609375 45.65625 
Q 33.59375 42.484375 47.015625 42.96875 
z
M 45.515625 34.671875 
Q 30.375 34.234375 24.703125 37.84375 
Q 15.53125 43.703125 18.359375 58.109375 
Q 19.875 65.921875 25.984375 71.296875 
Q 32.125 76.765625 40.671875 76.765625 
Q 50.875 76.765625 55.46875 66.40625 
Q 59.8125 56.640625 55.71875 37.84375 
Q 51.609375 18.953125 43.453125 9.28125 
Q 34.765625 -1.125 23.046875 -1.125 
Q 11.46875 -1.125 6.640625 9.28125 
Q 1.515625 20.265625 6.546875 43.015625 
L 16.0625 42.96875 
Q 10.84375 24.3125 14.5 13.8125 
Q 17.1875 6.25 24.46875 6.25 
Q 31.5 6.25 37.359375 13.875 
Q 43.5625 21.96875 45.515625 34.671875 
z
" id="DejaVuSans-Oblique-977"/>
      </defs>
      <use transform="translate(0 0.234375)" xlink:href="#DejaVuSans-Oblique-977"/>
     </g>
    </g>
   </g>
   <g id="matplotlib.axis_2">
    <g id="ytick_1">
     <g id="line2d_8">
      <defs>
       <path d="M 0 0 
L -3.5 0 
" id="m5f7c92bc55" style="stroke:#000000;stroke-width:0.8;"/>
      </defs>
      <g>
       <use style="stroke:#000000;stroke-width:0.8;" x="44.845313" xlink:href="#m5f7c92bc55" y="214.756364"/>
      </g>
     </g>
     <g id="text_9">
      <!-- −1.00 -->
      <g transform="translate(7.2 218.555582)scale(0.1 -0.1)">
       <defs>
        <path d="M 10.6875 12.40625 
L 21 12.40625 
L 21 0 
L 10.6875 0 
z
" id="DejaVuSans-46"/>
       </defs>
       <use xlink:href="#DejaVuSans-8722"/>
       <use x="83.789062" xlink:href="#DejaVuSans-49"/>
       <use x="147.412109" xlink:href="#DejaVuSans-46"/>
       <use x="179.199219" xlink:href="#DejaVuSans-48"/>
       <use x="242.822266" xlink:href="#DejaVuSans-48"/>
      </g>
     </g>
    </g>
    <g id="ytick_2">
     <g id="line2d_9">
      <g>
       <use style="stroke:#000000;stroke-width:0.8;" x="44.845313" xlink:href="#m5f7c92bc55" y="190.045718"/>
      </g>
     </g>
     <g id="text_10">
      <!-- −0.75 -->
      <g transform="translate(7.2 193.844936)scale(0.1 -0.1)">
       <defs>
        <path d="M 8.203125 72.90625 
L 55.078125 72.90625 
L 55.078125 68.703125 
L 28.609375 0 
L 18.3125 0 
L 43.21875 64.59375 
L 8.203125 64.59375 
z
" id="DejaVuSans-55"/>
       </defs>
       <use xlink:href="#DejaVuSans-8722"/>
       <use x="83.789062" xlink:href="#DejaVuSans-48"/>
       <use x="147.412109" xlink:href="#DejaVuSans-46"/>
       <use x="179.199219" xlink:href="#DejaVuSans-55"/>
       <use x="242.822266" xlink:href="#DejaVuSans-53"/>
      </g>
     </g>
    </g>
    <g id="ytick_3">
     <g id="line2d_10">
      <g>
       <use style="stroke:#000000;stroke-width:0.8;" x="44.845313" xlink:href="#m5f7c92bc55" y="165.335071"/>
      </g>
     </g>
     <g id="text_11">
      <!-- −0.50 -->
      <g transform="translate(7.2 169.13429)scale(0.1 -0.1)">
       <use xlink:href="#DejaVuSans-8722"/>
       <use x="83.789062" xlink:href="#DejaVuSans-48"/>
       <use x="147.412109" xlink:href="#DejaVuSans-46"/>
       <use x="179.199219" xlink:href="#DejaVuSans-53"/>
       <use x="242.822266" xlink:href="#DejaVuSans-48"/>
      </g>
     </g>
    </g>
    <g id="ytick_4">
     <g id="line2d_11">
      <g>
       <use style="stroke:#000000;stroke-width:0.8;" x="44.845313" xlink:href="#m5f7c92bc55" y="140.624425"/>
      </g>
     </g>
     <g id="text_12">
      <!-- −0.25 -->
      <g transform="translate(7.2 144.423644)scale(0.1 -0.1)">
       <use xlink:href="#DejaVuSans-8722"/>
       <use x="83.789062" xlink:href="#DejaVuSans-48"/>
       <use x="147.412109" xlink:href="#DejaVuSans-46"/>
       <use x="179.199219" xlink:href="#DejaVuSans-50"/>
       <use x="242.822266" xlink:href="#DejaVuSans-53"/>
      </g>
     </g>
    </g>
    <g id="ytick_5">
     <g id="line2d_12">
      <g>
       <use style="stroke:#000000;stroke-width:0.8;" x="44.845313" xlink:href="#m5f7c92bc55" y="115.913779"/>
      </g>
     </g>
     <g id="text_13">
      <!-- 0.00 -->
      <g transform="translate(15.579688 119.712998)scale(0.1 -0.1)">
       <use xlink:href="#DejaVuSans-48"/>
       <use x="63.623047" xlink:href="#DejaVuSans-46"/>
       <use x="95.410156" xlink:href="#DejaVuSans-48"/>
       <use x="159.033203" xlink:href="#DejaVuSans-48"/>
      </g>
     </g>
    </g>
    <g id="ytick_6">
     <g id="line2d_13">
      <g>
       <use style="stroke:#000000;stroke-width:0.8;" x="44.845313" xlink:href="#m5f7c92bc55" y="91.203133"/>
      </g>
     </g>
     <g id="text_14">
      <!-- 0.25 -->
      <g transform="translate(15.579688 95.002352)scale(0.1 -0.1)">
       <use xlink:href="#DejaVuSans-48"/>
       <use x="63.623047" xlink:href="#DejaVuSans-46"/>
       <use x="95.410156" xlink:href="#DejaVuSans-50"/>
       <use x="159.033203" xlink:href="#DejaVuSans-53"/>
      </g>
     </g>
    </g>
    <g id="ytick_7">
     <g id="line2d_14">
      <g>
       <use style="stroke:#000000;stroke-width:0.8;" x="44.845313" xlink:href="#m5f7c92bc55" y="66.492487"/>
      </g>
     </g>
     <g id="text_15">
      <!-- 0.50 -->
      <g transform="translate(15.579688 70.291706)scale(0.1 -0.1)">
       <use xlink:href="#DejaVuSans-48"/>
       <use x="63.623047" xlink:href="#DejaVuSans-46"/>
       <use x="95.410156" xlink:href="#DejaVuSans-53"/>
       <use x="159.033203" xlink:href="#DejaVuSans-48"/>
      </g>
     </g>
    </g>
    <g id="ytick_8">
     <g id="line2d_15">
      <g>
       <use style="stroke:#000000;stroke-width:0.8;" x="44.845313" xlink:href="#m5f7c92bc55" y="41.781841"/>
      </g>
     </g>
     <g id="text_16">
      <!-- 0.75 -->
      <g transform="translate(15.579688 45.58106)scale(0.1 -0.1)">
       <use xlink:href="#DejaVuSans-48"/>
       <use x="63.623047" xlink:href="#DejaVuSans-46"/>
       <use x="95.410156" xlink:href="#DejaVuSans-55"/>
       <use x="159.033203" xlink:href="#DejaVuSans-53"/>
      </g>
     </g>
    </g>
    <g id="ytick_9">
     <g id="line2d_16">
      <g>
       <use style="stroke:#000000;stroke-width:0.8;" x="44.845313" xlink:href="#m5f7c92bc55" y="17.071195"/>
      </g>
     </g>
     <g id="text_17">
      <!-- 1.00 -->
      <g transform="translate(15.579688 20.870414)scale(0.1 -0.1)">
       <use xlink:href="#DejaVuSans-49"/>
       <use x="63.623047" xlink:href="#DejaVuSans-46"/>
       <use x="95.410156" xlink:href="#DejaVuSans-48"/>
       <use x="159.033203" xlink:href="#DejaVuSans-48"/>
      </g>
     </g>
    </g>
   </g>
   <g id="line2d_17">
    <path clip-path="url(#p574cf40670)" d="M 60.063494 214.756364 
L 63.137874 214.557362 
L 66.212255 213.961157 
L 69.286635 212.970149 
L 72.361015 211.58833 
L 75.435395 209.821264 
L 78.509775 207.676065 
L 81.584155 205.161372 
L 84.658536 202.28731 
L 87.732916 199.065453 
L 90.807296 195.508773 
L 93.881676 191.631592 
L 96.956056 187.449522 
L 100.030436 182.979403 
L 103.104817 178.239234 
L 106.179197 173.248103 
L 109.253577 168.026107 
L 112.327957 162.594273 
L 115.402337 156.974473 
L 118.476717 151.189336 
L 121.551098 145.262156 
L 124.625478 139.216802 
L 127.699858 133.077614 
L 130.774238 126.869313 
L 133.848618 120.616899 
L 136.922998 114.345546 
L 139.997379 108.080509 
L 143.071759 101.847013 
L 146.146139 95.670159 
L 149.220519 89.574819 
L 152.294899 83.585536 
L 155.369279 77.726429 
L 158.44366 72.021088 
L 161.51804 66.492487 
L 164.59242 61.162889 
L 167.6668 56.053753 
L 170.74118 51.185652 
L 173.81556 46.578188 
L 176.889941 42.249915 
L 179.964321 38.21826 
L 183.038701 34.499457 
L 186.113081 31.108481 
L 189.187461 28.058986 
L 192.261841 25.363252 
L 195.336222 23.032132 
L 198.410602 21.075014 
L 201.484982 19.499778 
L 204.559362 18.312768 
L 207.633742 17.518762 
L 210.708122 17.120958 
L 213.782503 17.120958 
L 216.856883 17.518762 
L 219.931263 18.312768 
L 223.005643 19.499778 
L 226.080023 21.075014 
L 229.154403 23.032132 
L 232.228784 25.363252 
L 235.303164 28.058986 
L 238.377544 31.108481 
L 241.451924 34.499457 
L 244.526304 38.21826 
L 247.600684 42.249915 
L 250.675065 46.578188 
L 253.749445 51.185652 
L 256.823825 56.053753 
L 259.898205 61.162889 
L 262.972585 66.492487 
L 266.046965 72.021088 
L 269.121346 77.726429 
L 272.195726 83.585536 
L 275.270106 89.574819 
L 278.344486 95.670159 
L 281.418866 101.847013 
L 284.493246 108.080509 
L 287.567627 114.345546 
L 290.642007 120.616899 
L 293.716387 126.869313 
L 296.790767 133.077614 
L 299.865147 139.216802 
L 302.939527 145.262156 
L 306.013908 151.189336 
L 309.088288 156.974473 
L 312.162668 162.594273 
L 315.237048 168.026107 
L 318.311428 173.248103 
L 321.385808 178.239234 
L 324.460189 182.979403 
L 327.534569 187.449522 
L 330.608949 191.631592 
L 333.683329 195.508773 
L 336.757709 199.065453 
L 339.832089 202.28731 
L 342.90647 205.161372 
L 345.98085 207.676065 
L 349.05523 209.821264 
L 352.12961 211.58833 
L 355.20399 212.970149 
L 358.27837 213.961157 
L 361.352751 214.557362 
L 364.427131 214.756364 
" style="fill:none;stroke:#1f77b4;stroke-linecap:square;stroke-width:1.5;"/>
   </g>
   <g id="line2d_18">
    <path clip-path="url(#p574cf40670)" d="M 60.063494 115.913779 
L 63.137874 109.644795 
L 66.212255 103.401054 
L 69.286635 97.207697 
L 72.361015 91.089663 
L 75.435395 85.071587 
L 78.509775 79.177702 
L 81.584155 73.431739 
L 84.658536 67.856837 
L 87.732916 62.475444 
L 90.807296 57.309227 
L 93.881676 52.378991 
L 96.956056 47.704586 
L 100.030436 43.304836 
L 103.104817 39.197457 
L 106.179197 35.398987 
L 109.253577 31.924722 
L 112.327957 28.788651 
L 115.402337 26.003402 
L 118.476717 23.58019 
L 121.551098 21.528774 
L 124.625478 19.857412 
L 127.699858 18.572836 
L 130.774238 17.680217 
L 133.848618 17.18315 
L 136.922998 17.083636 
L 139.997379 17.382077 
L 143.071759 18.07727 
L 146.146139 19.166416 
L 149.220519 20.645129 
L 152.294899 22.507456 
L 155.369279 24.745897 
L 158.44366 27.351439 
L 161.51804 30.31359 
L 164.59242 33.620423 
L 167.6668 37.258622 
L 170.74118 41.213538 
L 173.81556 45.469245 
L 176.889941 50.008608 
L 179.964321 54.813347 
L 183.038701 59.864117 
L 186.113081 65.140578 
L 189.187461 70.621486 
L 192.261841 76.284769 
L 195.336222 82.107624 
L 198.410602 88.066605 
L 201.484982 94.137717 
L 204.559362 100.296513 
L 207.633742 106.518194 
L 210.708122 112.777708 
L 213.782503 119.04985 
L 216.856883 125.309364 
L 219.931263 131.531046 
L 223.005643 137.689842 
L 226.080023 143.760953 
L 229.154403 149.719934 
L 232.228784 155.54279 
L 235.303164 161.206073 
L 238.377544 166.68698 
L 241.451924 171.963442 
L 244.526304 177.014211 
L 247.600684 181.81895 
L 250.675065 186.358313 
L 253.749445 190.61402 
L 256.823825 194.568936 
L 259.898205 198.207135 
L 262.972585 201.513968 
L 266.046965 204.476119 
L 269.121346 207.081661 
L 272.195726 209.320102 
L 275.270106 211.182429 
L 278.344486 212.661143 
L 281.418866 213.750289 
L 284.493246 214.445482 
L 287.567627 214.743922 
L 290.642007 214.644409 
L 293.716387 214.147342 
L 296.790767 213.254723 
L 299.865147 211.970146 
L 302.939527 210.298785 
L 306.013908 208.247368 
L 309.088288 205.824157 
L 312.162668 203.038908 
L 315.237048 199.902837 
L 318.311428 196.428572 
L 321.385808 192.630102 
L 324.460189 188.522722 
L 327.534569 184.122972 
L 330.608949 179.448568 
L 333.683329 174.518331 
L 336.757709 169.352115 
L 339.832089 163.970721 
L 342.90647 158.395819 
L 345.98085 152.649857 
L 349.05523 146.755971 
L 352.12961 140.737895 
L 355.20399 134.619861 
L 358.27837 128.426505 
L 361.352751 122.182763 
L 364.427131 115.913779 
" style="fill:none;stroke:#ff7f0e;stroke-linecap:square;stroke-width:1.5;"/>
   </g>
   <g id="line2d_19">
    <path clip-path="url(#p574cf40670)" d="M 136.154403 224.64 
L 136.154403 7.2 
" style="fill:none;stroke:#000000;stroke-dasharray:5.55,2.4;stroke-dashoffset:0;stroke-width:1.5;"/>
   </g>
   <g id="line2d_20">
    <path clip-path="url(#p574cf40670)" d="M 288.336222 224.64 
L 288.336222 7.2 
" style="fill:none;stroke:#000000;stroke-dasharray:5.55,2.4;stroke-dashoffset:0;stroke-width:1.5;"/>
   </g>
   <g id="patch_3">
    <path d="M 44.845313 224.64 
L 44.845313 7.2 
" style="fill:none;stroke:#000000;stroke-linecap:square;stroke-linejoin:miter;stroke-width:0.8;"/>
   </g>
   <g id="patch_4">
    <path d="M 379.645313 224.64 
L 379.645313 7.2 
" style="fill:none;stroke:#000000;stroke-linecap:square;stroke-linejoin:miter;stroke-width:0.8;"/>
   </g>
   <g id="patch_5">
    <path d="M 44.845313 224.64 
L 379.645313 224.64 
" style="fill:none;stroke:#000000;stroke-linecap:square;stroke-linejoin:miter;stroke-width:0.8;"/>
   </g>
   <g id="patch_6">
    <path d="M 44.845313 7.2 
L 379.645313 7.2 
" style="fill:none;stroke:#000000;stroke-linecap:square;stroke-linejoin:miter;stroke-width:0.8;"/>
   </g>
   <g id="legend_1">
    <g id="patch_7">
     <path d="M 309.745313 44.55625 
L 372.645313 44.55625 
Q 374.645313 44.55625 374.645313 42.55625 
L 374.645313 14.2 
Q 374.645313 12.2 372.645313 12.2 
L 309.745313 12.2 
Q 307.745313 12.2 307.745313 14.2 
L 307.745313 42.55625 
Q 307.745313 44.55625 309.745313 44.55625 
z
" style="fill:#ffffff;opacity:0.8;stroke:#cccccc;stroke-linejoin:miter;"/>
    </g>
    <g id="line2d_21">
     <path d="M 311.745313 20.298438 
L 331.745313 20.298438 
" style="fill:none;stroke:#1f77b4;stroke-linecap:square;stroke-width:1.5;"/>
    </g>
    <g id="line2d_22"/>
    <g id="text_18">
     <!-- $\mathrm{sin}(\vartheta)$ -->
     <g transform="translate(339.745313 23.798438)scale(0.1 -0.1)">
      <defs>
       <path d="M 44.28125 53.078125 
L 44.28125 44.578125 
Q 40.484375 46.53125 36.375 47.5 
Q 32.28125 48.484375 27.875 48.484375 
Q 21.1875 48.484375 17.84375 46.4375 
Q 14.5 44.390625 14.5 40.28125 
Q 14.5 37.15625 16.890625 35.375 
Q 19.28125 33.59375 26.515625 31.984375 
L 29.59375 31.296875 
Q 39.15625 29.25 43.1875 25.515625 
Q 47.21875 21.78125 47.21875 15.09375 
Q 47.21875 7.46875 41.1875 3.015625 
Q 35.15625 -1.421875 24.609375 -1.421875 
Q 20.21875 -1.421875 15.453125 -0.5625 
Q 10.6875 0.296875 5.421875 2 
L 5.421875 11.28125 
Q 10.40625 8.6875 15.234375 7.390625 
Q 20.0625 6.109375 24.8125 6.109375 
Q 31.15625 6.109375 34.5625 8.28125 
Q 37.984375 10.453125 37.984375 14.40625 
Q 37.984375 18.0625 35.515625 20.015625 
Q 33.0625 21.96875 24.703125 23.78125 
L 21.578125 24.515625 
Q 13.234375 26.265625 9.515625 29.90625 
Q 5.8125 33.546875 5.8125 39.890625 
Q 5.8125 47.609375 11.28125 51.796875 
Q 16.75 56 26.8125 56 
Q 31.78125 56 36.171875 55.265625 
Q 40.578125 54.546875 44.28125 53.078125 
z
" id="DejaVuSans-115"/>
       <path d="M 9.421875 54.6875 
L 18.40625 54.6875 
L 18.40625 0 
L 9.421875 0 
z
M 9.421875 75.984375 
L 18.40625 75.984375 
L 18.40625 64.59375 
L 9.421875 64.59375 
z
" id="DejaVuSans-105"/>
       <path d="M 54.890625 33.015625 
L 54.890625 0 
L 45.90625 0 
L 45.90625 32.71875 
Q 45.90625 40.484375 42.875 44.328125 
Q 39.84375 48.1875 33.796875 48.1875 
Q 26.515625 48.1875 22.3125 43.546875 
Q 18.109375 38.921875 18.109375 30.90625 
L 18.109375 0 
L 9.078125 0 
L 9.078125 54.6875 
L 18.109375 54.6875 
L 18.109375 46.1875 
Q 21.34375 51.125 25.703125 53.5625 
Q 30.078125 56 35.796875 56 
Q 45.21875 56 50.046875 50.171875 
Q 54.890625 44.34375 54.890625 33.015625 
z
" id="DejaVuSans-110"/>
       <path d="M 31 75.875 
Q 24.46875 64.65625 21.28125 53.65625 
Q 18.109375 42.671875 18.109375 31.390625 
Q 18.109375 20.125 21.3125 9.0625 
Q 24.515625 -2 31 -13.1875 
L 23.1875 -13.1875 
Q 15.875 -1.703125 12.234375 9.375 
Q 8.59375 20.453125 8.59375 31.390625 
Q 8.59375 42.28125 12.203125 53.3125 
Q 15.828125 64.359375 23.1875 75.875 
z
" id="DejaVuSans-40"/>
       <path d="M 8.015625 75.875 
L 15.828125 75.875 
Q 23.140625 64.359375 26.78125 53.3125 
Q 30.421875 42.28125 30.421875 31.390625 
Q 30.421875 20.453125 26.78125 9.375 
Q 23.140625 -1.703125 15.828125 -13.1875 
L 8.015625 -13.1875 
Q 14.5 -2 17.703125 9.0625 
Q 20.90625 20.125 20.90625 31.390625 
Q 20.90625 42.671875 17.703125 53.65625 
Q 14.5 64.65625 8.015625 75.875 
z
" id="DejaVuSans-41"/>
      </defs>
      <use transform="translate(0 0.234375)" xlink:href="#DejaVuSans-115"/>
      <use transform="translate(52.099609 0.234375)" xlink:href="#DejaVuSans-105"/>
      <use transform="translate(79.882812 0.234375)" xlink:href="#DejaVuSans-110"/>
      <use transform="translate(143.261719 0.234375)" xlink:href="#DejaVuSans-40"/>
      <use transform="translate(182.275391 0.234375)" xlink:href="#DejaVuSans-Oblique-977"/>
      <use transform="translate(244.189453 0.234375)" xlink:href="#DejaVuSans-41"/>
     </g>
    </g>
    <g id="line2d_23">
     <path d="M 311.745313 34.976562 
L 331.745313 34.976562 
" style="fill:none;stroke:#ff7f0e;stroke-linecap:square;stroke-width:1.5;"/>
    </g>
    <g id="line2d_24"/>
    <g id="text_19">
     <!-- $\mathrm{cos}(\vartheta)$ -->
     <g transform="translate(339.745313 38.476562)scale(0.1 -0.1)">
      <defs>
       <path d="M 48.78125 52.59375 
L 48.78125 44.1875 
Q 44.96875 46.296875 41.140625 47.34375 
Q 37.3125 48.390625 33.40625 48.390625 
Q 24.65625 48.390625 19.8125 42.84375 
Q 14.984375 37.3125 14.984375 27.296875 
Q 14.984375 17.28125 19.8125 11.734375 
Q 24.65625 6.203125 33.40625 6.203125 
Q 37.3125 6.203125 41.140625 7.25 
Q 44.96875 8.296875 48.78125 10.40625 
L 48.78125 2.09375 
Q 45.015625 0.34375 40.984375 -0.53125 
Q 36.96875 -1.421875 32.421875 -1.421875 
Q 20.0625 -1.421875 12.78125 6.34375 
Q 5.515625 14.109375 5.515625 27.296875 
Q 5.515625 40.671875 12.859375 48.328125 
Q 20.21875 56 33.015625 56 
Q 37.15625 56 41.109375 55.140625 
Q 45.0625 54.296875 48.78125 52.59375 
z
" id="DejaVuSans-99"/>
       <path d="M 30.609375 48.390625 
Q 23.390625 48.390625 19.1875 42.75 
Q 14.984375 37.109375 14.984375 27.296875 
Q 14.984375 17.484375 19.15625 11.84375 
Q 23.34375 6.203125 30.609375 6.203125 
Q 37.796875 6.203125 41.984375 11.859375 
Q 46.1875 17.53125 46.1875 27.296875 
Q 46.1875 37.015625 41.984375 42.703125 
Q 37.796875 48.390625 30.609375 48.390625 
z
M 30.609375 56 
Q 42.328125 56 49.015625 48.375 
Q 55.71875 40.765625 55.71875 27.296875 
Q 55.71875 13.875 49.015625 6.21875 
Q 42.328125 -1.421875 30.609375 -1.421875 
Q 18.84375 -1.421875 12.171875 6.21875 
Q 5.515625 13.875 5.515625 27.296875 
Q 5.515625 40.765625 12.171875 48.375 
Q 18.84375 56 30.609375 56 
z
" id="DejaVuSans-111"/>
      </defs>
      <use transform="translate(0 0.234375)" xlink:href="#DejaVuSans-99"/>
      <use transform="translate(54.980469 0.234375)" xlink:href="#DejaVuSans-111"/>
      <use transform="translate(116.162109 0.234375)" xlink:href="#DejaVuSans-115"/>
      <use transform="translate(168.261719 0.234375)" xlink:href="#DejaVuSans-40"/>
      <use transform="translate(207.275391 0.234375)" xlink:href="#DejaVuSans-Oblique-977"/>
      <use transform="translate(269.189453 0.234375)" xlink:href="#DejaVuSans-41"/>
     </g>
    </g>
   </g>
  </g>
 </g>
 <defs>
  <clipPath id="p574cf40670">
   <rect height="217.44" width="334.8" x="44.845313" y="7.2"/>
  </clipPath>
 </defs>
</svg>
