<?xml version="1.0" encoding="utf-8" standalone="no"?>
<!DOCTYPE svg PUBLIC "-//W3C//DTD SVG 1.1//EN"
  "http://www.w3.org/Graphics/SVG/1.1/DTD/svg11.dtd">
<svg xmlns:xlink="http://www.w3.org/1999/xlink" width="177.6pt" height="179.26375pt" viewBox="0 0 177.6 179.26375" xmlns="http://www.w3.org/2000/svg" version="1.1">
 <metadata>
  <rdf:RDF xmlns:dc="http://purl.org/dc/elements/1.1/" xmlns:cc="http://creativecommons.org/ns#" xmlns:rdf="http://www.w3.org/1999/02/22-rdf-syntax-ns#">
   <cc:Work>
    <dc:type rdf:resource="http://purl.org/dc/dcmitype/StillImage"/>
    <dc:date>2022-11-02T10:52:07.129209</dc:date>
    <dc:format>image/svg+xml</dc:format>
    <dc:creator>
     <cc:Agent>
      <dc:title>Matplotlib v3.6.1, https://matplotlib.org/</dc:title>
     </cc:Agent>
    </dc:creator>
   </cc:Work>
  </rdf:RDF>
 </metadata>
 <defs>
  <style type="text/css">*{stroke-linejoin: round; stroke-linecap: butt}</style>
 </defs>
 <g id="figure_1">
  <g id="axes_1">
   <g id="patch_1">
    <path d="M 26.4 151.2 
L 170.4 151.2 
L 170.4 7.2 
L 26.4 7.2 
z
" style="fill: #ffffff"/>
   </g>
   <g id="PathCollection_1">
    <defs>
     <path id="m665de51ab4" d="M 0 1.118034 
C 0.296506 1.118034 0.580908 1.000231 0.790569 0.790569 
C 1.000231 0.580908 1.118034 0.296506 1.118034 0 
C 1.118034 -0.296506 1.000231 -0.580908 0.790569 -0.790569 
C 0.580908 -1.000231 0.296506 -1.118034 0 -1.118034 
C -0.296506 -1.118034 -0.580908 -1.000231 -0.790569 -0.790569 
C -1.000231 -0.580908 -1.118034 -0.296506 -1.118034 0 
C -1.118034 0.296506 -1.000231 0.580908 -0.790569 0.790569 
C -0.580908 1.000231 -0.296506 1.118034 0 1.118034 
z
" style="stroke: #000000"/>
    </defs>
    <g clip-path="url(#p4ee3bedfb8)">
     <use xlink:href="#m665de51ab4" x="45.6" y="132" style="stroke: #000000"/>
     <use xlink:href="#m665de51ab4" x="45.6" y="88.8" style="stroke: #000000"/>
     <use xlink:href="#m665de51ab4" x="88.8" y="132" style="stroke: #000000"/>
    </g>
   </g>
   <g id="matplotlib.axis_1">
    <g id="xtick_1">
     <g id="line2d_1">
      <path d="M 64.8 151.2 
L 64.8 7.2 
" clip-path="url(#p4ee3bedfb8)" style="fill: none; stroke-dasharray: 2.96,1.28; stroke-dashoffset: 0; stroke: #000000; stroke-width: 0.8"/>
     </g>
     <g id="line2d_2">
      <defs>
       <path id="m2ad3fa7f22" d="M 0 0 
L 0 3.5 
" style="stroke: #000000; stroke-width: 0.8"/>
      </defs>
      <g>
       <use xlink:href="#m2ad3fa7f22" x="64.8" y="151.2" style="stroke: #000000; stroke-width: 0.8"/>
      </g>
     </g>
    </g>
    <g id="xtick_2">
     <g id="line2d_3">
      <path d="M 112.8 151.2 
L 112.8 7.2 
" clip-path="url(#p4ee3bedfb8)" style="fill: none; stroke-dasharray: 2.96,1.28; stroke-dashoffset: 0; stroke: #000000; stroke-width: 0.8"/>
     </g>
     <g id="line2d_4">
      <g>
       <use xlink:href="#m2ad3fa7f22" x="112.8" y="151.2" style="stroke: #000000; stroke-width: 0.8"/>
      </g>
     </g>
    </g>
   </g>
   <g id="matplotlib.axis_2">
    <g id="ytick_1">
     <g id="line2d_5">
      <path d="M 26.4 112.8 
L 170.4 112.8 
" clip-path="url(#p4ee3bedfb8)" style="fill: none; stroke-dasharray: 2.96,1.28; stroke-dashoffset: 0; stroke: #000000; stroke-width: 0.8"/>
     </g>
     <g id="line2d_6">
      <defs>
       <path id="m345fabb7c7" d="M 0 0 
L -3.5 0 
" style="stroke: #000000; stroke-width: 0.8"/>
      </defs>
      <g>
       <use xlink:href="#m345fabb7c7" x="26.4" y="112.8" style="stroke: #000000; stroke-width: 0.8"/>
      </g>
     </g>
    </g>
    <g id="ytick_2">
     <g id="line2d_7">
      <path d="M 26.4 64.8 
L 170.4 64.8 
" clip-path="url(#p4ee3bedfb8)" style="fill: none; stroke-dasharray: 2.96,1.28; stroke-dashoffset: 0; stroke: #000000; stroke-width: 0.8"/>
     </g>
     <g id="line2d_8">
      <g>
       <use xlink:href="#m345fabb7c7" x="26.4" y="64.8" style="stroke: #000000; stroke-width: 0.8"/>
      </g>
     </g>
    </g>
   </g>
   <g id="patch_2">
    <path d="M 26.4 151.2 
L 26.4 7.2 
" style="fill: none; stroke: #000000; stroke-width: 0.8; stroke-linejoin: miter; stroke-linecap: square"/>
   </g>
   <g id="patch_3">
    <path d="M 170.4 151.2 
L 170.4 7.2 
" style="fill: none; stroke: #000000; stroke-width: 0.8; stroke-linejoin: miter; stroke-linecap: square"/>
   </g>
   <g id="patch_4">
    <path d="M 26.4 151.2 
L 170.4 151.2 
" style="fill: none; stroke: #000000; stroke-width: 0.8; stroke-linejoin: miter; stroke-linecap: square"/>
   </g>
   <g id="patch_5">
    <path d="M 26.4 7.2 
L 170.4 7.2 
" style="fill: none; stroke: #000000; stroke-width: 0.8; stroke-linejoin: miter; stroke-linecap: square"/>
   </g>
   <g id="text_1">
    <!-- $(i, j)$ -->
    <g transform="translate(38.2 130.32) scale(0.08 -0.08)">
     <defs>
      <path id="DejaVuSans-28" d="M 1984 4856 
Q 1566 4138 1362 3434 
Q 1159 2731 1159 2009 
Q 1159 1288 1364 580 
Q 1569 -128 1984 -844 
L 1484 -844 
Q 1016 -109 783 600 
Q 550 1309 550 2009 
Q 550 2706 781 3412 
Q 1013 4119 1484 4856 
L 1984 4856 
z
" transform="scale(0.015625)"/>
      <path id="DejaVuSans-Oblique-69" d="M 1172 4863 
L 1747 4863 
L 1606 4134 
L 1031 4134 
L 1172 4863 
z
M 909 3500 
L 1484 3500 
L 800 0 
L 225 0 
L 909 3500 
z
" transform="scale(0.015625)"/>
      <path id="DejaVuSans-2c" d="M 750 794 
L 1409 794 
L 1409 256 
L 897 -744 
L 494 -744 
L 750 256 
L 750 794 
z
" transform="scale(0.015625)"/>
      <path id="DejaVuSans-Oblique-6a" d="M 928 3500 
L 1503 3500 
L 813 -63 
L 809 -78 
Q 694 -675 544 -897 
Q 403 -1106 132 -1218 
Q -138 -1331 -506 -1331 
L -722 -1331 
L -628 -844 
L -481 -844 
Q -144 -844 -1 -703 
Q 141 -563 238 -63 
L 928 3500 
z
M 1197 4863 
L 1772 4863 
L 1631 4134 
L 1056 4134 
L 1197 4863 
z
" transform="scale(0.015625)"/>
      <path id="DejaVuSans-29" d="M 513 4856 
L 1013 4856 
Q 1481 4119 1714 3412 
Q 1947 2706 1947 2009 
Q 1947 1309 1714 600 
Q 1481 -109 1013 -844 
L 513 -844 
Q 928 -128 1133 580 
Q 1338 1288 1338 2009 
Q 1338 2731 1133 3434 
Q 928 4138 513 4856 
z
" transform="scale(0.015625)"/>
     </defs>
     <use xlink:href="#DejaVuSans-28" transform="translate(0 0.015625)"/>
     <use xlink:href="#DejaVuSans-Oblique-69" transform="translate(39.013672 0.015625)"/>
     <use xlink:href="#DejaVuSans-2c" transform="translate(66.796875 0.015625)"/>
     <use xlink:href="#DejaVuSans-Oblique-6a" transform="translate(118.066406 0.015625)"/>
     <use xlink:href="#DejaVuSans-29" transform="translate(145.849609 0.015625)"/>
    </g>
   </g>
   <g id="text_2">
    <!-- $(i, j+1)$ -->
    <g transform="translate(30.72 87.12) scale(0.08 -0.08)">
     <defs>
      <path id="DejaVuSans-2b" d="M 2944 4013 
L 2944 2272 
L 4684 2272 
L 4684 1741 
L 2944 1741 
L 2944 0 
L 2419 0 
L 2419 1741 
L 678 1741 
L 678 2272 
L 2419 2272 
L 2419 4013 
L 2944 4013 
z
" transform="scale(0.015625)"/>
      <path id="DejaVuSans-31" d="M 794 531 
L 1825 531 
L 1825 4091 
L 703 3866 
L 703 4441 
L 1819 4666 
L 2450 4666 
L 2450 531 
L 3481 531 
L 3481 0 
L 794 0 
L 794 531 
z
" transform="scale(0.015625)"/>
     </defs>
     <use xlink:href="#DejaVuSans-28" transform="translate(0 0.015625)"/>
     <use xlink:href="#DejaVuSans-Oblique-69" transform="translate(39.013672 0.015625)"/>
     <use xlink:href="#DejaVuSans-2c" transform="translate(66.796875 0.015625)"/>
     <use xlink:href="#DejaVuSans-Oblique-6a" transform="translate(118.066406 0.015625)"/>
     <use xlink:href="#DejaVuSans-2b" transform="translate(165.332031 0.015625)"/>
     <use xlink:href="#DejaVuSans-31" transform="translate(268.603516 0.015625)"/>
     <use xlink:href="#DejaVuSans-29" transform="translate(332.226562 0.015625)"/>
    </g>
   </g>
   <g id="text_3">
    <!-- $(i+1, j)$ -->
    <g transform="translate(73.92 130.32) scale(0.08 -0.08)">
     <use xlink:href="#DejaVuSans-28" transform="translate(0 0.015625)"/>
     <use xlink:href="#DejaVuSans-Oblique-69" transform="translate(39.013672 0.015625)"/>
     <use xlink:href="#DejaVuSans-2b" transform="translate(86.279297 0.015625)"/>
     <use xlink:href="#DejaVuSans-31" transform="translate(189.550781 0.015625)"/>
     <use xlink:href="#DejaVuSans-2c" transform="translate(253.173828 0.015625)"/>
     <use xlink:href="#DejaVuSans-Oblique-6a" transform="translate(304.443359 0.015625)"/>
     <use xlink:href="#DejaVuSans-29" transform="translate(332.226562 0.015625)"/>
    </g>
   </g>
   <g id="patch_6">
    <path d="M 63.681966 156 
Q 45.6 156 27.518034 156 
" style="fill: none; stroke: #000000; stroke-linecap: round"/>
    <path d="M 59.681966 154 
L 63.681966 156 
L 59.681966 158 
" style="fill: none; stroke: #000000; stroke-linecap: round"/>
    <path d="M 31.518034 158 
L 27.518034 156 
L 31.518034 154 
" style="fill: none; stroke: #000000; stroke-linecap: round"/>
   </g>
   <g id="patch_7">
    <path d="M 111.681966 156 
Q 88.8 156 65.918034 156 
" style="fill: none; stroke: #000000; stroke-linecap: round"/>
    <path d="M 107.681966 154 
L 111.681966 156 
L 107.681966 158 
" style="fill: none; stroke: #000000; stroke-linecap: round"/>
    <path d="M 69.918034 158 
L 65.918034 156 
L 69.918034 154 
" style="fill: none; stroke: #000000; stroke-linecap: round"/>
   </g>
   <g id="text_4">
    <!-- $\Delta x_{i}$ -->
    <g transform="translate(39.6 170.4) scale(0.08 -0.08)">
     <defs>
      <path id="DejaVuSans-394" d="M 2188 4044 
L 906 525 
L 3472 525 
L 2188 4044 
z
M 50 0 
L 1831 4666 
L 2547 4666 
L 4325 0 
L 50 0 
z
" transform="scale(0.015625)"/>
      <path id="DejaVuSans-Oblique-78" d="M 3841 3500 
L 2234 1784 
L 3219 0 
L 2559 0 
L 1819 1388 
L 531 0 
L -166 0 
L 1556 1844 
L 641 3500 
L 1300 3500 
L 1972 2234 
L 3144 3500 
L 3841 3500 
z
" transform="scale(0.015625)"/>
     </defs>
     <use xlink:href="#DejaVuSans-394" transform="translate(0 0.09375)"/>
     <use xlink:href="#DejaVuSans-Oblique-78" transform="translate(68.408203 0.09375)"/>
     <use xlink:href="#DejaVuSans-Oblique-69" transform="translate(127.587891 -16.3125) scale(0.7)"/>
    </g>
   </g>
   <g id="text_5">
    <!-- $\Delta x_{i+1}$ -->
    <g transform="translate(77.56 170.4) scale(0.08 -0.08)">
     <use xlink:href="#DejaVuSans-394" transform="translate(0 0.09375)"/>
     <use xlink:href="#DejaVuSans-Oblique-78" transform="translate(68.408203 0.09375)"/>
     <use xlink:href="#DejaVuSans-Oblique-69" transform="translate(127.587891 -16.3125) scale(0.7)"/>
     <use xlink:href="#DejaVuSans-2b" transform="translate(160.673828 -16.3125) scale(0.7)"/>
     <use xlink:href="#DejaVuSans-31" transform="translate(232.963867 -16.3125) scale(0.7)"/>
    </g>
   </g>
   <g id="patch_8">
    <path d="M 21.6 113.918034 
Q 21.6 132 21.6 150.081966 
" style="fill: none; stroke: #000000; stroke-linecap: round"/>
    <path d="M 19.6 117.918034 
L 21.6 113.918034 
L 23.6 117.918034 
" style="fill: none; stroke: #000000; stroke-linecap: round"/>
    <path d="M 23.6 146.081966 
L 21.6 150.081966 
L 19.6 146.081966 
" style="fill: none; stroke: #000000; stroke-linecap: round"/>
   </g>
   <g id="patch_9">
    <path d="M 21.6 65.918034 
Q 21.6 88.8 21.6 111.681966 
" style="fill: none; stroke: #000000; stroke-linecap: round"/>
    <path d="M 19.6 69.918034 
L 21.6 65.918034 
L 23.6 69.918034 
" style="fill: none; stroke: #000000; stroke-linecap: round"/>
    <path d="M 23.6 107.681966 
L 21.6 111.681966 
L 19.6 107.681966 
" style="fill: none; stroke: #000000; stroke-linecap: round"/>
   </g>
   <g id="text_6">
    <!-- $\Delta y_{j}$ -->
    <g transform="translate(13.04 138) rotate(-90) scale(0.08 -0.08)">
     <defs>
      <path id="DejaVuSans-Oblique-79" d="M 1588 -325 
Q 1188 -997 936 -1164 
Q 684 -1331 294 -1331 
L -159 -1331 
L -63 -850 
L 269 -850 
Q 509 -850 678 -719 
Q 847 -588 1056 -206 
L 1234 128 
L 459 3500 
L 1069 3500 
L 1650 819 
L 3256 3500 
L 3859 3500 
L 1588 -325 
z
" transform="scale(0.015625)"/>
     </defs>
     <use xlink:href="#DejaVuSans-394" transform="translate(0 0.09375)"/>
     <use xlink:href="#DejaVuSans-Oblique-79" transform="translate(68.408203 0.09375)"/>
     <use xlink:href="#DejaVuSans-Oblique-6a" transform="translate(127.587891 -16.3125) scale(0.7)"/>
    </g>
   </g>
   <g id="text_7">
    <!-- $\Delta y_{j+1}$ -->
    <g transform="translate(13.04 100.04) rotate(-90) scale(0.08 -0.08)">
     <use xlink:href="#DejaVuSans-394" transform="translate(0 0.09375)"/>
     <use xlink:href="#DejaVuSans-Oblique-79" transform="translate(68.408203 0.09375)"/>
     <use xlink:href="#DejaVuSans-Oblique-6a" transform="translate(127.587891 -16.3125) scale(0.7)"/>
     <use xlink:href="#DejaVuSans-2b" transform="translate(160.673828 -16.3125) scale(0.7)"/>
     <use xlink:href="#DejaVuSans-31" transform="translate(232.963867 -16.3125) scale(0.7)"/>
    </g>
   </g>
   <g id="text_8">
    <!-- $w$ -->
    <g style="fill: #1f77b4" transform="translate(27.92 134.2075) scale(0.08 -0.08)">
     <defs>
      <path id="DejaVuSans-Oblique-77" d="M 544 3500 
L 1113 3500 
L 1259 684 
L 2566 3500 
L 3231 3500 
L 3425 684 
L 4666 3500 
L 5241 3500 
L 3641 0 
L 2969 0 
L 2797 2900 
L 1459 0 
L 781 0 
L 544 3500 
z
" transform="scale(0.015625)"/>
     </defs>
     <use xlink:href="#DejaVuSans-Oblique-77" transform="translate(0 0.3125)"/>
    </g>
   </g>
   <g id="text_9">
    <!-- $e$ -->
    <g style="fill: #1f77b4" transform="translate(57.52 134.2075) scale(0.08 -0.08)">
     <defs>
      <path id="DejaVuSans-Oblique-65" d="M 3078 2063 
Q 3088 2113 3092 2166 
Q 3097 2219 3097 2272 
Q 3097 2653 2873 2875 
Q 2650 3097 2266 3097 
Q 1838 3097 1509 2826 
Q 1181 2556 1013 2059 
L 3078 2063 
z
M 3578 1613 
L 903 1613 
Q 884 1494 878 1425 
Q 872 1356 872 1306 
Q 872 872 1139 634 
Q 1406 397 1894 397 
Q 2269 397 2603 481 
Q 2938 566 3225 728 
L 3116 159 
Q 2806 34 2476 -28 
Q 2147 -91 1806 -91 
Q 1078 -91 686 257 
Q 294 606 294 1247 
Q 294 1794 489 2264 
Q 684 2734 1063 3103 
Q 1306 3334 1642 3459 
Q 1978 3584 2356 3584 
Q 2950 3584 3301 3228 
Q 3653 2872 3653 2272 
Q 3653 2128 3634 1964 
Q 3616 1800 3578 1613 
z
" transform="scale(0.015625)"/>
     </defs>
     <use xlink:href="#DejaVuSans-Oblique-65"/>
    </g>
   </g>
   <g id="text_10">
    <!-- $s$ -->
    <g style="fill: #1f77b4" transform="translate(43.48 148.6075) scale(0.08 -0.08)">
     <defs>
      <path id="DejaVuSans-Oblique-73" d="M 3200 3397 
L 3091 2853 
Q 2863 2978 2609 3040 
Q 2356 3103 2088 3103 
Q 1634 3103 1373 2948 
Q 1113 2794 1113 2528 
Q 1113 2219 1719 2053 
Q 1766 2041 1788 2034 
L 1972 1978 
Q 2547 1819 2739 1644 
Q 2931 1469 2931 1166 
Q 2931 609 2489 259 
Q 2047 -91 1331 -91 
Q 1053 -91 747 -37 
Q 441 16 72 128 
L 184 722 
Q 500 559 806 475 
Q 1113 391 1394 391 
Q 1816 391 2080 572 
Q 2344 753 2344 1031 
Q 2344 1331 1650 1516 
L 1591 1531 
L 1394 1581 
Q 956 1697 753 1886 
Q 550 2075 550 2369 
Q 550 2928 970 3256 
Q 1391 3584 2113 3584 
Q 2397 3584 2667 3537 
Q 2938 3491 3200 3397 
z
" transform="scale(0.015625)"/>
     </defs>
     <use xlink:href="#DejaVuSans-Oblique-73"/>
    </g>
   </g>
   <g id="text_11">
    <!-- $n$ -->
    <g style="fill: #1f77b4" transform="translate(43.04 119.8075) scale(0.08 -0.08)">
     <defs>
      <path id="DejaVuSans-Oblique-6e" d="M 3566 2113 
L 3156 0 
L 2578 0 
L 2988 2091 
Q 3016 2238 3031 2350 
Q 3047 2463 3047 2528 
Q 3047 2791 2881 2937 
Q 2716 3084 2419 3084 
Q 1956 3084 1622 2776 
Q 1288 2469 1184 1941 
L 800 0 
L 225 0 
L 903 3500 
L 1478 3500 
L 1363 2950 
Q 1603 3253 1940 3418 
Q 2278 3584 2650 3584 
Q 3113 3584 3367 3334 
Q 3622 3084 3622 2631 
Q 3622 2519 3608 2391 
Q 3594 2263 3566 2113 
z
" transform="scale(0.015625)"/>
     </defs>
     <use xlink:href="#DejaVuSans-Oblique-6e"/>
    </g>
   </g>
   <g id="text_12">
    <!-- $p$ -->
    <g style="fill: #1f77b4" transform="translate(43.04 141.39125) scale(0.08 -0.08)">
     <defs>
      <path id="DejaVuSans-Oblique-70" d="M 3175 2156 
Q 3175 2616 2975 2859 
Q 2775 3103 2400 3103 
Q 2144 3103 1911 2972 
Q 1678 2841 1497 2591 
Q 1319 2344 1212 1994 
Q 1106 1644 1106 1300 
Q 1106 863 1306 627 
Q 1506 391 1875 391 
Q 2147 391 2380 519 
Q 2613 647 2778 891 
Q 2956 1147 3065 1494 
Q 3175 1841 3175 2156 
z
M 1394 2969 
Q 1625 3272 1939 3428 
Q 2253 3584 2638 3584 
Q 3175 3584 3472 3232 
Q 3769 2881 3769 2247 
Q 3769 1728 3584 1258 
Q 3400 788 3053 416 
Q 2822 169 2531 39 
Q 2241 -91 1919 -91 
Q 1547 -91 1294 64 
Q 1041 219 916 525 
L 556 -1331 
L -19 -1331 
L 922 3500 
L 1497 3500 
L 1394 2969 
z
" transform="scale(0.015625)"/>
     </defs>
     <use xlink:href="#DejaVuSans-Oblique-70"/>
    </g>
   </g>
   <g id="text_13">
    <!-- $\partial_y T = g_{y, s}$ -->
    <g style="fill: #ff7f0e" transform="translate(123.16 160.8) scale(0.08 -0.08)">
     <defs>
      <path id="DejaVuSans-2202" d="M 1366 -91 
Q 925 -91 638 175 
Q 297 491 297 1063 
Q 297 1656 597 2119 
Q 906 2594 1463 2594 
Q 1828 2594 2116 2366 
Q 2284 2231 2400 2006 
Q 2441 2259 2441 2547 
Q 2441 2969 2341 3213 
Q 2119 3753 1531 3753 
Q 1309 3753 966 3616 
L 966 4141 
Q 1328 4238 1653 4238 
Q 2491 4238 2847 3469 
Q 3013 3106 3013 2566 
Q 3013 2213 2934 1803 
Q 2738 778 2228 291 
Q 1828 -91 1366 -91 
z
M 831 969 
Q 831 656 969 488 
Q 1116 309 1341 309 
Q 1541 309 1700 450 
Q 1925 644 2091 959 
Q 2228 1219 2297 1497 
Q 2019 2169 1538 2169 
Q 1125 2169 944 1625 
Q 831 1288 831 969 
z
" transform="scale(0.015625)"/>
      <path id="DejaVuSans-Oblique-54" d="M 378 4666 
L 4325 4666 
L 4225 4134 
L 2559 4134 
L 1759 0 
L 1125 0 
L 1925 4134 
L 275 4134 
L 378 4666 
z
" transform="scale(0.015625)"/>
      <path id="DejaVuSans-3d" d="M 678 2906 
L 4684 2906 
L 4684 2381 
L 678 2381 
L 678 2906 
z
M 678 1631 
L 4684 1631 
L 4684 1100 
L 678 1100 
L 678 1631 
z
" transform="scale(0.015625)"/>
      <path id="DejaVuSans-Oblique-67" d="M 3816 3500 
L 3219 434 
Q 3047 -456 2561 -893 
Q 2075 -1331 1253 -1331 
Q 950 -1331 690 -1286 
Q 431 -1241 206 -1147 
L 313 -588 
Q 525 -725 762 -790 
Q 1000 -856 1269 -856 
Q 1816 -856 2167 -557 
Q 2519 -259 2631 300 
L 2681 563 
Q 2441 288 2122 144 
Q 1803 0 1434 0 
Q 903 0 598 351 
Q 294 703 294 1319 
Q 294 1803 478 2267 
Q 663 2731 997 3091 
Q 1219 3328 1514 3456 
Q 1809 3584 2131 3584 
Q 2484 3584 2746 3420 
Q 3009 3256 3138 2956 
L 3238 3500 
L 3816 3500 
z
M 2950 2216 
Q 2950 2641 2750 2872 
Q 2550 3103 2181 3103 
Q 1953 3103 1747 3012 
Q 1541 2922 1394 2759 
Q 1156 2491 1023 2127 
Q 891 1763 891 1375 
Q 891 944 1092 712 
Q 1294 481 1672 481 
Q 2219 481 2584 976 
Q 2950 1472 2950 2216 
z
" transform="scale(0.015625)"/>
     </defs>
     <use xlink:href="#DejaVuSans-2202" transform="translate(0 0.09375)"/>
     <use xlink:href="#DejaVuSans-Oblique-79" transform="translate(52.666016 -16.3125) scale(0.7)"/>
     <use xlink:href="#DejaVuSans-Oblique-54" transform="translate(96.826172 0.09375)"/>
     <use xlink:href="#DejaVuSans-3d" transform="translate(177.392578 0.09375)"/>
     <use xlink:href="#DejaVuSans-Oblique-67" transform="translate(280.664062 0.09375)"/>
     <use xlink:href="#DejaVuSans-Oblique-79" transform="translate(344.140625 -16.3125) scale(0.7)"/>
     <use xlink:href="#DejaVuSans-2c" transform="translate(385.566406 -16.3125) scale(0.7)"/>
     <use xlink:href="#DejaVuSans-Oblique-73" transform="translate(421.455078 -16.3125) scale(0.7)"/>
    </g>
   </g>
   <g id="text_14">
    <!-- $T_w$ -->
    <g style="fill: #2ca02c" transform="translate(22.87875 40.88) rotate(-90) scale(0.08 -0.08)">
     <use xlink:href="#DejaVuSans-Oblique-54" transform="translate(0 0.09375)"/>
     <use xlink:href="#DejaVuSans-Oblique-77" transform="translate(61.083984 -16.3125) scale(0.7)"/>
    </g>
   </g>
   <g id="line2d_9">
    <path d="M 26.4 151.2 
L 170.4 151.2 
" clip-path="url(#p4ee3bedfb8)" style="fill: none; stroke: #ff7f0e; stroke-width: 2; stroke-linecap: square"/>
   </g>
   <g id="line2d_10">
    <path d="M 26.4 151.2 
L 26.4 7.2 
" clip-path="url(#p4ee3bedfb8)" style="fill: none; stroke: #2ca02c; stroke-width: 2; stroke-linecap: square"/>
   </g>
  </g>
 </g>
 <defs>
  <clipPath id="p4ee3bedfb8">
   <rect x="26.4" y="7.2" width="144" height="144"/>
  </clipPath>
 </defs>
</svg>
