<?xml version="1.0" encoding="utf-8" standalone="no"?>
<!DOCTYPE svg PUBLIC "-//W3C//DTD SVG 1.1//EN"
  "http://www.w3.org/Graphics/SVG/1.1/DTD/svg11.dtd">
<!-- Created with matplotlib (https://matplotlib.org/) -->
<svg height="262.19625pt" version="1.1" viewBox="0 0 400.523437 262.19625" width="400.523437pt" xmlns="http://www.w3.org/2000/svg" xmlns:xlink="http://www.w3.org/1999/xlink">
 <metadata>
  <rdf:RDF xmlns:cc="http://creativecommons.org/ns#" xmlns:dc="http://purl.org/dc/elements/1.1/" xmlns:rdf="http://www.w3.org/1999/02/22-rdf-syntax-ns#">
   <cc:Work>
    <dc:type rdf:resource="http://purl.org/dc/dcmitype/StillImage"/>
    <dc:date>2021-12-15T08:55:51.333552</dc:date>
    <dc:format>image/svg+xml</dc:format>
    <dc:creator>
     <cc:Agent>
      <dc:title>Matplotlib v3.3.3, https://matplotlib.org/</dc:title>
     </cc:Agent>
    </dc:creator>
   </cc:Work>
  </rdf:RDF>
 </metadata>
 <defs>
  <style type="text/css">*{stroke-linecap:butt;stroke-linejoin:round;}</style>
 </defs>
 <g id="figure_1">
  <g id="patch_1">
   <path d="M 0 262.19625 
L 400.523437 262.19625 
L 400.523437 0 
L 0 0 
z
" style="fill:none;"/>
  </g>
  <g id="axes_1">
   <g id="patch_2">
    <path d="M 58.523438 224.64 
L 393.323438 224.64 
L 393.323438 7.2 
L 58.523438 7.2 
z
" style="fill:#ffffff;"/>
   </g>
   <g id="matplotlib.axis_1">
    <g id="xtick_1">
     <g id="line2d_1">
      <defs>
       <path d="M 0 0 
L 0 3.5 
" id="m0aefee2e4e" style="stroke:#000000;stroke-width:0.8;"/>
      </defs>
      <g>
       <use style="stroke:#000000;stroke-width:0.8;" x="73.741619" xlink:href="#m0aefee2e4e" y="224.64"/>
      </g>
     </g>
     <g id="text_1">
      <!-- 4 -->
      <g transform="translate(70.560369 239.238437)scale(0.1 -0.1)">
       <defs>
        <path d="M 37.796875 64.3125 
L 12.890625 25.390625 
L 37.796875 25.390625 
z
M 35.203125 72.90625 
L 47.609375 72.90625 
L 47.609375 25.390625 
L 58.015625 25.390625 
L 58.015625 17.1875 
L 47.609375 17.1875 
L 47.609375 0 
L 37.796875 0 
L 37.796875 17.1875 
L 4.890625 17.1875 
L 4.890625 26.703125 
z
" id="DejaVuSans-52"/>
       </defs>
       <use xlink:href="#DejaVuSans-52"/>
      </g>
     </g>
    </g>
    <g id="xtick_2">
     <g id="line2d_2">
      <g>
       <use style="stroke:#000000;stroke-width:0.8;" x="124.468892" xlink:href="#m0aefee2e4e" y="224.64"/>
      </g>
     </g>
     <g id="text_2">
      <!-- 5 -->
      <g transform="translate(121.287642 239.238437)scale(0.1 -0.1)">
       <defs>
        <path d="M 10.796875 72.90625 
L 49.515625 72.90625 
L 49.515625 64.59375 
L 19.828125 64.59375 
L 19.828125 46.734375 
Q 21.96875 47.46875 24.109375 47.828125 
Q 26.265625 48.1875 28.421875 48.1875 
Q 40.625 48.1875 47.75 41.5 
Q 54.890625 34.8125 54.890625 23.390625 
Q 54.890625 11.625 47.5625 5.09375 
Q 40.234375 -1.421875 26.90625 -1.421875 
Q 22.3125 -1.421875 17.546875 -0.640625 
Q 12.796875 0.140625 7.71875 1.703125 
L 7.71875 11.625 
Q 12.109375 9.234375 16.796875 8.0625 
Q 21.484375 6.890625 26.703125 6.890625 
Q 35.15625 6.890625 40.078125 11.328125 
Q 45.015625 15.765625 45.015625 23.390625 
Q 45.015625 31 40.078125 35.4375 
Q 35.15625 39.890625 26.703125 39.890625 
Q 22.75 39.890625 18.8125 39.015625 
Q 14.890625 38.140625 10.796875 36.28125 
z
" id="DejaVuSans-53"/>
       </defs>
       <use xlink:href="#DejaVuSans-53"/>
      </g>
     </g>
    </g>
    <g id="xtick_3">
     <g id="line2d_3">
      <g>
       <use style="stroke:#000000;stroke-width:0.8;" x="175.196165" xlink:href="#m0aefee2e4e" y="224.64"/>
      </g>
     </g>
     <g id="text_3">
      <!-- 6 -->
      <g transform="translate(172.014915 239.238437)scale(0.1 -0.1)">
       <defs>
        <path d="M 33.015625 40.375 
Q 26.375 40.375 22.484375 35.828125 
Q 18.609375 31.296875 18.609375 23.390625 
Q 18.609375 15.53125 22.484375 10.953125 
Q 26.375 6.390625 33.015625 6.390625 
Q 39.65625 6.390625 43.53125 10.953125 
Q 47.40625 15.53125 47.40625 23.390625 
Q 47.40625 31.296875 43.53125 35.828125 
Q 39.65625 40.375 33.015625 40.375 
z
M 52.59375 71.296875 
L 52.59375 62.3125 
Q 48.875 64.0625 45.09375 64.984375 
Q 41.3125 65.921875 37.59375 65.921875 
Q 27.828125 65.921875 22.671875 59.328125 
Q 17.53125 52.734375 16.796875 39.40625 
Q 19.671875 43.65625 24.015625 45.921875 
Q 28.375 48.1875 33.59375 48.1875 
Q 44.578125 48.1875 50.953125 41.515625 
Q 57.328125 34.859375 57.328125 23.390625 
Q 57.328125 12.15625 50.6875 5.359375 
Q 44.046875 -1.421875 33.015625 -1.421875 
Q 20.359375 -1.421875 13.671875 8.265625 
Q 6.984375 17.96875 6.984375 36.375 
Q 6.984375 53.65625 15.1875 63.9375 
Q 23.390625 74.21875 37.203125 74.21875 
Q 40.921875 74.21875 44.703125 73.484375 
Q 48.484375 72.75 52.59375 71.296875 
z
" id="DejaVuSans-54"/>
       </defs>
       <use xlink:href="#DejaVuSans-54"/>
      </g>
     </g>
    </g>
    <g id="xtick_4">
     <g id="line2d_4">
      <g>
       <use style="stroke:#000000;stroke-width:0.8;" x="225.923437" xlink:href="#m0aefee2e4e" y="224.64"/>
      </g>
     </g>
     <g id="text_4">
      <!-- 7 -->
      <g transform="translate(222.742187 239.238437)scale(0.1 -0.1)">
       <defs>
        <path d="M 8.203125 72.90625 
L 55.078125 72.90625 
L 55.078125 68.703125 
L 28.609375 0 
L 18.3125 0 
L 43.21875 64.59375 
L 8.203125 64.59375 
z
" id="DejaVuSans-55"/>
       </defs>
       <use xlink:href="#DejaVuSans-55"/>
      </g>
     </g>
    </g>
    <g id="xtick_5">
     <g id="line2d_5">
      <g>
       <use style="stroke:#000000;stroke-width:0.8;" x="276.65071" xlink:href="#m0aefee2e4e" y="224.64"/>
      </g>
     </g>
     <g id="text_5">
      <!-- 8 -->
      <g transform="translate(273.46946 239.238437)scale(0.1 -0.1)">
       <defs>
        <path d="M 31.78125 34.625 
Q 24.75 34.625 20.71875 30.859375 
Q 16.703125 27.09375 16.703125 20.515625 
Q 16.703125 13.921875 20.71875 10.15625 
Q 24.75 6.390625 31.78125 6.390625 
Q 38.8125 6.390625 42.859375 10.171875 
Q 46.921875 13.96875 46.921875 20.515625 
Q 46.921875 27.09375 42.890625 30.859375 
Q 38.875 34.625 31.78125 34.625 
z
M 21.921875 38.8125 
Q 15.578125 40.375 12.03125 44.71875 
Q 8.5 49.078125 8.5 55.328125 
Q 8.5 64.0625 14.71875 69.140625 
Q 20.953125 74.21875 31.78125 74.21875 
Q 42.671875 74.21875 48.875 69.140625 
Q 55.078125 64.0625 55.078125 55.328125 
Q 55.078125 49.078125 51.53125 44.71875 
Q 48 40.375 41.703125 38.8125 
Q 48.828125 37.15625 52.796875 32.3125 
Q 56.78125 27.484375 56.78125 20.515625 
Q 56.78125 9.90625 50.3125 4.234375 
Q 43.84375 -1.421875 31.78125 -1.421875 
Q 19.734375 -1.421875 13.25 4.234375 
Q 6.78125 9.90625 6.78125 20.515625 
Q 6.78125 27.484375 10.78125 32.3125 
Q 14.796875 37.15625 21.921875 38.8125 
z
M 18.3125 54.390625 
Q 18.3125 48.734375 21.84375 45.5625 
Q 25.390625 42.390625 31.78125 42.390625 
Q 38.140625 42.390625 41.71875 45.5625 
Q 45.3125 48.734375 45.3125 54.390625 
Q 45.3125 60.0625 41.71875 63.234375 
Q 38.140625 66.40625 31.78125 66.40625 
Q 25.390625 66.40625 21.84375 63.234375 
Q 18.3125 60.0625 18.3125 54.390625 
z
" id="DejaVuSans-56"/>
       </defs>
       <use xlink:href="#DejaVuSans-56"/>
      </g>
     </g>
    </g>
    <g id="xtick_6">
     <g id="line2d_6">
      <g>
       <use style="stroke:#000000;stroke-width:0.8;" x="327.377983" xlink:href="#m0aefee2e4e" y="224.64"/>
      </g>
     </g>
     <g id="text_6">
      <!-- 9 -->
      <g transform="translate(324.196733 239.238437)scale(0.1 -0.1)">
       <defs>
        <path d="M 10.984375 1.515625 
L 10.984375 10.5 
Q 14.703125 8.734375 18.5 7.8125 
Q 22.3125 6.890625 25.984375 6.890625 
Q 35.75 6.890625 40.890625 13.453125 
Q 46.046875 20.015625 46.78125 33.40625 
Q 43.953125 29.203125 39.59375 26.953125 
Q 35.25 24.703125 29.984375 24.703125 
Q 19.046875 24.703125 12.671875 31.3125 
Q 6.296875 37.9375 6.296875 49.421875 
Q 6.296875 60.640625 12.9375 67.421875 
Q 19.578125 74.21875 30.609375 74.21875 
Q 43.265625 74.21875 49.921875 64.515625 
Q 56.59375 54.828125 56.59375 36.375 
Q 56.59375 19.140625 48.40625 8.859375 
Q 40.234375 -1.421875 26.421875 -1.421875 
Q 22.703125 -1.421875 18.890625 -0.6875 
Q 15.09375 0.046875 10.984375 1.515625 
z
M 30.609375 32.421875 
Q 37.25 32.421875 41.125 36.953125 
Q 45.015625 41.5 45.015625 49.421875 
Q 45.015625 57.28125 41.125 61.84375 
Q 37.25 66.40625 30.609375 66.40625 
Q 23.96875 66.40625 20.09375 61.84375 
Q 16.21875 57.28125 16.21875 49.421875 
Q 16.21875 41.5 20.09375 36.953125 
Q 23.96875 32.421875 30.609375 32.421875 
z
" id="DejaVuSans-57"/>
       </defs>
       <use xlink:href="#DejaVuSans-57"/>
      </g>
     </g>
    </g>
    <g id="xtick_7">
     <g id="line2d_7">
      <g>
       <use style="stroke:#000000;stroke-width:0.8;" x="378.105256" xlink:href="#m0aefee2e4e" y="224.64"/>
      </g>
     </g>
     <g id="text_7">
      <!-- 10 -->
      <g transform="translate(371.742756 239.238437)scale(0.1 -0.1)">
       <defs>
        <path d="M 12.40625 8.296875 
L 28.515625 8.296875 
L 28.515625 63.921875 
L 10.984375 60.40625 
L 10.984375 69.390625 
L 28.421875 72.90625 
L 38.28125 72.90625 
L 38.28125 8.296875 
L 54.390625 8.296875 
L 54.390625 0 
L 12.40625 0 
z
" id="DejaVuSans-49"/>
        <path d="M 31.78125 66.40625 
Q 24.171875 66.40625 20.328125 58.90625 
Q 16.5 51.421875 16.5 36.375 
Q 16.5 21.390625 20.328125 13.890625 
Q 24.171875 6.390625 31.78125 6.390625 
Q 39.453125 6.390625 43.28125 13.890625 
Q 47.125 21.390625 47.125 36.375 
Q 47.125 51.421875 43.28125 58.90625 
Q 39.453125 66.40625 31.78125 66.40625 
z
M 31.78125 74.21875 
Q 44.046875 74.21875 50.515625 64.515625 
Q 56.984375 54.828125 56.984375 36.375 
Q 56.984375 17.96875 50.515625 8.265625 
Q 44.046875 -1.421875 31.78125 -1.421875 
Q 19.53125 -1.421875 13.0625 8.265625 
Q 6.59375 17.96875 6.59375 36.375 
Q 6.59375 54.828125 13.0625 64.515625 
Q 19.53125 74.21875 31.78125 74.21875 
z
" id="DejaVuSans-48"/>
       </defs>
       <use xlink:href="#DejaVuSans-49"/>
       <use x="63.623047" xlink:href="#DejaVuSans-48"/>
      </g>
     </g>
    </g>
    <g id="text_8">
     <!-- $t$ in $s$ -->
     <g transform="translate(213.573438 252.916562)scale(0.1 -0.1)">
      <defs>
       <path d="M 42.28125 54.6875 
L 40.921875 47.703125 
L 23 47.703125 
L 17.1875 18.015625 
Q 16.890625 16.359375 16.75 15.234375 
Q 16.609375 14.109375 16.609375 13.484375 
Q 16.609375 10.359375 18.484375 8.9375 
Q 20.359375 7.515625 24.515625 7.515625 
L 33.59375 7.515625 
L 32.078125 0 
L 23.484375 0 
Q 15.484375 0 11.546875 3.125 
Q 7.625 6.25 7.625 12.59375 
Q 7.625 13.71875 7.765625 15.0625 
Q 7.90625 16.40625 8.203125 18.015625 
L 14.015625 47.703125 
L 6.390625 47.703125 
L 7.8125 54.6875 
L 15.28125 54.6875 
L 18.3125 70.21875 
L 27.296875 70.21875 
L 24.3125 54.6875 
z
" id="DejaVuSans-Oblique-116"/>
       <path id="DejaVuSans-32"/>
       <path d="M 9.421875 54.6875 
L 18.40625 54.6875 
L 18.40625 0 
L 9.421875 0 
z
M 9.421875 75.984375 
L 18.40625 75.984375 
L 18.40625 64.59375 
L 9.421875 64.59375 
z
" id="DejaVuSans-105"/>
       <path d="M 54.890625 33.015625 
L 54.890625 0 
L 45.90625 0 
L 45.90625 32.71875 
Q 45.90625 40.484375 42.875 44.328125 
Q 39.84375 48.1875 33.796875 48.1875 
Q 26.515625 48.1875 22.3125 43.546875 
Q 18.109375 38.921875 18.109375 30.90625 
L 18.109375 0 
L 9.078125 0 
L 9.078125 54.6875 
L 18.109375 54.6875 
L 18.109375 46.1875 
Q 21.34375 51.125 25.703125 53.5625 
Q 30.078125 56 35.796875 56 
Q 45.21875 56 50.046875 50.171875 
Q 54.890625 44.34375 54.890625 33.015625 
z
" id="DejaVuSans-110"/>
       <path d="M 50 53.078125 
L 48.296875 44.578125 
Q 44.734375 46.53125 40.765625 47.5 
Q 36.8125 48.484375 32.625 48.484375 
Q 25.53125 48.484375 21.453125 46.0625 
Q 17.390625 43.65625 17.390625 39.5 
Q 17.390625 34.671875 26.859375 32.078125 
Q 27.59375 31.890625 27.9375 31.78125 
L 30.8125 30.90625 
Q 39.796875 28.421875 42.796875 25.6875 
Q 45.796875 22.953125 45.796875 18.21875 
Q 45.796875 9.515625 38.890625 4.046875 
Q 31.984375 -1.421875 20.796875 -1.421875 
Q 16.453125 -1.421875 11.671875 -0.578125 
Q 6.890625 0.25 1.125 2 
L 2.875 11.28125 
Q 7.8125 8.734375 12.59375 7.421875 
Q 17.390625 6.109375 21.78125 6.109375 
Q 28.375 6.109375 32.5 8.9375 
Q 36.625 11.765625 36.625 16.109375 
Q 36.625 20.796875 25.78125 23.6875 
L 24.859375 23.921875 
L 21.78125 24.703125 
Q 14.9375 26.515625 11.765625 29.46875 
Q 8.59375 32.421875 8.59375 37.015625 
Q 8.59375 45.75 15.15625 50.875 
Q 21.734375 56 33.015625 56 
Q 37.453125 56 41.671875 55.265625 
Q 45.90625 54.546875 50 53.078125 
z
" id="DejaVuSans-Oblique-115"/>
      </defs>
      <use transform="translate(0 0.015625)" xlink:href="#DejaVuSans-Oblique-116"/>
      <use transform="translate(39.208984 0.015625)" xlink:href="#DejaVuSans-32"/>
      <use transform="translate(70.996094 0.015625)" xlink:href="#DejaVuSans-105"/>
      <use transform="translate(98.779297 0.015625)" xlink:href="#DejaVuSans-110"/>
      <use transform="translate(162.158203 0.015625)" xlink:href="#DejaVuSans-32"/>
      <use transform="translate(193.945312 0.015625)" xlink:href="#DejaVuSans-Oblique-115"/>
     </g>
    </g>
   </g>
   <g id="matplotlib.axis_2">
    <g id="ytick_1">
     <g id="line2d_8">
      <defs>
       <path d="M 0 0 
L -3.5 0 
" id="md412e56ec4" style="stroke:#000000;stroke-width:0.8;"/>
      </defs>
      <g>
       <use style="stroke:#000000;stroke-width:0.8;" x="58.523438" xlink:href="#md412e56ec4" y="196.517335"/>
      </g>
     </g>
     <g id="text_9">
      <!-- −0.75 -->
      <g transform="translate(20.878125 200.316553)scale(0.1 -0.1)">
       <defs>
        <path d="M 10.59375 35.5 
L 73.1875 35.5 
L 73.1875 27.203125 
L 10.59375 27.203125 
z
" id="DejaVuSans-8722"/>
        <path d="M 10.6875 12.40625 
L 21 12.40625 
L 21 0 
L 10.6875 0 
z
" id="DejaVuSans-46"/>
       </defs>
       <use xlink:href="#DejaVuSans-8722"/>
       <use x="83.789062" xlink:href="#DejaVuSans-48"/>
       <use x="147.412109" xlink:href="#DejaVuSans-46"/>
       <use x="179.199219" xlink:href="#DejaVuSans-55"/>
       <use x="242.822266" xlink:href="#DejaVuSans-53"/>
      </g>
     </g>
    </g>
    <g id="ytick_2">
     <g id="line2d_9">
      <g>
       <use style="stroke:#000000;stroke-width:0.8;" x="58.523438" xlink:href="#md412e56ec4" y="166.608023"/>
      </g>
     </g>
     <g id="text_10">
      <!-- −0.50 -->
      <g transform="translate(20.878125 170.407242)scale(0.1 -0.1)">
       <use xlink:href="#DejaVuSans-8722"/>
       <use x="83.789062" xlink:href="#DejaVuSans-48"/>
       <use x="147.412109" xlink:href="#DejaVuSans-46"/>
       <use x="179.199219" xlink:href="#DejaVuSans-53"/>
       <use x="242.822266" xlink:href="#DejaVuSans-48"/>
      </g>
     </g>
    </g>
    <g id="ytick_3">
     <g id="line2d_10">
      <g>
       <use style="stroke:#000000;stroke-width:0.8;" x="58.523438" xlink:href="#md412e56ec4" y="136.698712"/>
      </g>
     </g>
     <g id="text_11">
      <!-- −0.25 -->
      <g transform="translate(20.878125 140.497931)scale(0.1 -0.1)">
       <defs>
        <path d="M 19.1875 8.296875 
L 53.609375 8.296875 
L 53.609375 0 
L 7.328125 0 
L 7.328125 8.296875 
Q 12.9375 14.109375 22.625 23.890625 
Q 32.328125 33.6875 34.8125 36.53125 
Q 39.546875 41.84375 41.421875 45.53125 
Q 43.3125 49.21875 43.3125 52.78125 
Q 43.3125 58.59375 39.234375 62.25 
Q 35.15625 65.921875 28.609375 65.921875 
Q 23.96875 65.921875 18.8125 64.3125 
Q 13.671875 62.703125 7.8125 59.421875 
L 7.8125 69.390625 
Q 13.765625 71.78125 18.9375 73 
Q 24.125 74.21875 28.421875 74.21875 
Q 39.75 74.21875 46.484375 68.546875 
Q 53.21875 62.890625 53.21875 53.421875 
Q 53.21875 48.921875 51.53125 44.890625 
Q 49.859375 40.875 45.40625 35.40625 
Q 44.1875 33.984375 37.640625 27.21875 
Q 31.109375 20.453125 19.1875 8.296875 
z
" id="DejaVuSans-50"/>
       </defs>
       <use xlink:href="#DejaVuSans-8722"/>
       <use x="83.789062" xlink:href="#DejaVuSans-48"/>
       <use x="147.412109" xlink:href="#DejaVuSans-46"/>
       <use x="179.199219" xlink:href="#DejaVuSans-50"/>
       <use x="242.822266" xlink:href="#DejaVuSans-53"/>
      </g>
     </g>
    </g>
    <g id="ytick_4">
     <g id="line2d_11">
      <g>
       <use style="stroke:#000000;stroke-width:0.8;" x="58.523438" xlink:href="#md412e56ec4" y="106.7894"/>
      </g>
     </g>
     <g id="text_12">
      <!-- 0.00 -->
      <g transform="translate(29.257813 110.588619)scale(0.1 -0.1)">
       <use xlink:href="#DejaVuSans-48"/>
       <use x="63.623047" xlink:href="#DejaVuSans-46"/>
       <use x="95.410156" xlink:href="#DejaVuSans-48"/>
       <use x="159.033203" xlink:href="#DejaVuSans-48"/>
      </g>
     </g>
    </g>
    <g id="ytick_5">
     <g id="line2d_12">
      <g>
       <use style="stroke:#000000;stroke-width:0.8;" x="58.523438" xlink:href="#md412e56ec4" y="76.880089"/>
      </g>
     </g>
     <g id="text_13">
      <!-- 0.25 -->
      <g transform="translate(29.257813 80.679308)scale(0.1 -0.1)">
       <use xlink:href="#DejaVuSans-48"/>
       <use x="63.623047" xlink:href="#DejaVuSans-46"/>
       <use x="95.410156" xlink:href="#DejaVuSans-50"/>
       <use x="159.033203" xlink:href="#DejaVuSans-53"/>
      </g>
     </g>
    </g>
    <g id="ytick_6">
     <g id="line2d_13">
      <g>
       <use style="stroke:#000000;stroke-width:0.8;" x="58.523438" xlink:href="#md412e56ec4" y="46.970778"/>
      </g>
     </g>
     <g id="text_14">
      <!-- 0.50 -->
      <g transform="translate(29.257813 50.769996)scale(0.1 -0.1)">
       <use xlink:href="#DejaVuSans-48"/>
       <use x="63.623047" xlink:href="#DejaVuSans-46"/>
       <use x="95.410156" xlink:href="#DejaVuSans-53"/>
       <use x="159.033203" xlink:href="#DejaVuSans-48"/>
      </g>
     </g>
    </g>
    <g id="ytick_7">
     <g id="line2d_14">
      <g>
       <use style="stroke:#000000;stroke-width:0.8;" x="58.523438" xlink:href="#md412e56ec4" y="17.061466"/>
      </g>
     </g>
     <g id="text_15">
      <!-- 0.75 -->
      <g transform="translate(29.257813 20.860685)scale(0.1 -0.1)">
       <use xlink:href="#DejaVuSans-48"/>
       <use x="63.623047" xlink:href="#DejaVuSans-46"/>
       <use x="95.410156" xlink:href="#DejaVuSans-55"/>
       <use x="159.033203" xlink:href="#DejaVuSans-53"/>
      </g>
     </g>
    </g>
    <g id="text_16">
     <!-- $u^\prime$ in $m/s$ -->
     <g transform="translate(14.798438 137.32)rotate(-90)scale(0.1 -0.1)">
      <defs>
       <path d="M 6.6875 21.6875 
L 13.09375 54.6875 
L 22.125 54.6875 
L 15.71875 22.015625 
Q 15.234375 19.625 15.015625 17.921875 
Q 14.796875 16.21875 14.796875 15.09375 
Q 14.796875 10.9375 17.328125 8.65625 
Q 19.875 6.390625 24.515625 6.390625 
Q 31.734375 6.390625 37 11.265625 
Q 42.28125 16.15625 43.890625 24.421875 
L 49.90625 54.6875 
L 58.890625 54.6875 
L 48.296875 0 
L 39.3125 0 
L 41.109375 8.59375 
Q 37.3125 3.8125 32.0625 1.1875 
Q 26.8125 -1.421875 20.90625 -1.421875 
Q 13.71875 -1.421875 9.71875 2.515625 
Q 5.71875 6.453125 5.71875 13.484375 
Q 5.71875 14.9375 5.953125 17.140625 
Q 6.203125 19.34375 6.6875 21.6875 
z
" id="DejaVuSans-Oblique-117"/>
       <path d="M 3.515625 5.421875 
Q 2.875 5.609375 2.875 6.390625 
L 15.09375 51.8125 
Q 15.671875 53.65625 17.078125 54.78125 
Q 18.5 55.90625 20.3125 55.90625 
Q 22.65625 55.90625 24.4375 54.359375 
Q 26.21875 52.828125 26.21875 50.484375 
Q 26.21875 49.46875 25.6875 48.1875 
L 7.625 4.984375 
Q 7.28125 4.296875 6.6875 4.296875 
Q 6.15625 4.296875 5 4.78125 
Q 3.859375 5.28125 3.515625 5.421875 
z
" id="Cmsy10-48"/>
       <path d="M 89.796875 33.015625 
L 83.40625 0 
L 74.421875 0 
L 80.71875 32.71875 
Q 81.109375 34.8125 81.296875 36.328125 
Q 81.5 37.84375 81.5 38.921875 
Q 81.5 43.3125 79.046875 45.75 
Q 76.609375 48.1875 72.21875 48.1875 
Q 65.671875 48.1875 60.546875 43.28125 
Q 55.421875 38.375 53.90625 30.515625 
L 47.90625 0 
L 38.921875 0 
L 45.3125 32.71875 
Q 45.703125 34.515625 45.890625 36.046875 
Q 46.09375 37.59375 46.09375 38.8125 
Q 46.09375 43.265625 43.65625 45.71875 
Q 41.21875 48.1875 36.921875 48.1875 
Q 30.28125 48.1875 25.140625 43.28125 
Q 20.015625 38.375 18.5 30.515625 
L 12.5 0 
L 3.515625 0 
L 14.203125 54.6875 
L 23.1875 54.6875 
L 21.484375 46.1875 
Q 25.140625 50.984375 30.046875 53.484375 
Q 34.96875 56 40.578125 56 
Q 46.53125 56 50.359375 52.875 
Q 54.203125 49.75 54.984375 44.1875 
Q 59.078125 49.953125 64.46875 52.96875 
Q 69.875 56 75.875 56 
Q 82.90625 56 86.734375 51.953125 
Q 90.578125 47.90625 90.578125 40.484375 
Q 90.578125 38.875 90.375 36.9375 
Q 90.1875 35.015625 89.796875 33.015625 
z
" id="DejaVuSans-Oblique-109"/>
       <path d="M 25.390625 72.90625 
L 33.6875 72.90625 
L 8.296875 -9.28125 
L 0 -9.28125 
z
" id="DejaVuSans-47"/>
      </defs>
      <use transform="translate(0 0.584375)" xlink:href="#DejaVuSans-Oblique-117"/>
      <use transform="translate(67.845052 38.865625)scale(0.7)" xlink:href="#Cmsy10-48"/>
      <use transform="translate(89.822591 0.584375)" xlink:href="#DejaVuSans-32"/>
      <use transform="translate(121.609701 0.584375)" xlink:href="#DejaVuSans-105"/>
      <use transform="translate(149.392904 0.584375)" xlink:href="#DejaVuSans-110"/>
      <use transform="translate(212.77181 0.584375)" xlink:href="#DejaVuSans-32"/>
      <use transform="translate(244.558919 0.584375)" xlink:href="#DejaVuSans-Oblique-109"/>
      <use transform="translate(341.971029 0.584375)" xlink:href="#DejaVuSans-47"/>
      <use transform="translate(375.662435 0.584375)" xlink:href="#DejaVuSans-Oblique-115"/>
     </g>
    </g>
   </g>
   <g id="line2d_15">
    <path clip-path="url(#p1f3b2c1e62)" d="M 73.741619 88.671647 
L 76.277983 184.53762 
L 77.546165 211.017628 
L 78.814347 212.761705 
L 80.082528 186.186934 
L 81.35071 130.451149 
L 82.618892 84.777194 
L 83.887074 52.552254 
L 85.155256 29.026627 
L 86.423437 19.048723 
L 87.691619 27.020395 
L 88.959801 46.950362 
L 90.227983 75.919688 
L 91.496165 119.491308 
L 92.764347 170.68003 
L 94.032528 205.492351 
L 95.30071 214.756364 
L 96.568892 198.55552 
L 99.105256 97.145131 
L 100.373437 61.746739 
L 101.641619 35.219046 
L 102.909801 19.897504 
L 104.177983 22.191825 
L 105.446165 39.207492 
L 106.714347 64.880614 
L 107.982528 103.553147 
L 109.25071 154.755043 
L 110.518892 197.205976 
L 111.787074 214.281857 
L 113.055256 207.162659 
L 114.323437 167.8825 
L 115.591619 111.401176 
L 116.859801 71.915596 
L 118.127983 42.732071 
L 119.396165 22.953494 
L 120.664347 19.162817 
L 121.932528 32.376997 
L 123.20071 55.308046 
L 124.468892 89.106706 
L 127.005256 186.030374 
L 128.273438 211.478465 
L 129.541619 212.34998 
L 130.809801 184.541157 
L 132.077983 128.114713 
L 133.346165 83.142812 
L 134.614347 51.251286 
L 135.882528 27.87538 
L 137.15071 18.157812 
L 138.418892 26.549483 
L 139.687074 46.886069 
L 140.955256 76.410952 
L 142.223437 120.76413 
L 143.491619 172.15925 
L 144.759801 206.177691 
L 146.027983 214.632799 
L 147.296165 197.49833 
L 149.832528 95.645759 
L 151.10071 60.624173 
L 152.368892 34.295304 
L 153.637074 19.262651 
L 154.905256 21.991831 
L 156.173437 39.360108 
L 157.441619 65.414065 
L 158.709801 104.688805 
L 159.977983 156.2268 
L 161.246165 198.110414 
L 162.514347 214.398362 
L 163.782528 206.519698 
L 165.05071 166.16408 
L 166.318892 109.880026 
L 167.587074 70.846811 
L 168.855256 41.885986 
L 170.123437 22.385259 
L 171.391619 19.045656 
L 172.659801 32.637462 
L 173.927983 55.851138 
L 175.196165 90.125459 
L 177.732528 187.138329 
L 179.00071 211.815723 
L 180.268892 212.008244 
L 181.537074 183.206317 
L 182.805256 126.482242 
L 184.073437 82.054588 
L 185.341619 50.414499 
L 186.609801 27.286636 
L 187.877983 18.00541 
L 189.146165 26.831811 
L 190.414347 47.424355 
L 191.682528 77.315896 
L 192.95071 122.13635 
L 194.218892 173.440622 
L 195.487074 206.737784 
L 196.755256 214.541123 
L 198.023437 196.5509 
L 200.559801 94.483117 
L 201.827983 59.761145 
L 203.096165 33.654476 
L 204.364347 19.01187 
L 205.632528 22.224214 
L 206.90071 39.878242 
L 208.168892 66.211589 
L 209.437074 105.951023 
L 210.705256 157.62333 
L 211.973437 198.910377 
L 213.241619 214.503814 
L 214.509801 205.900975 
L 215.777983 164.589106 
L 217.046165 108.573518 
L 218.314347 69.931998 
L 219.582528 41.187182 
L 220.85071 22.014108 
L 222.118892 19.172159 
L 223.387074 33.118629 
L 224.655256 56.563419 
L 225.923437 91.250849 
L 228.459801 188.171031 
L 229.727983 212.123637 
L 230.996165 211.664105 
L 232.264347 181.903502 
L 233.532528 124.982064 
L 234.80071 81.062675 
L 236.068892 49.658092 
L 237.337074 26.799008 
L 238.605256 17.988096 
L 239.873437 27.246289 
L 241.141619 48.06594 
L 242.409801 78.299894 
L 243.677983 123.529008 
L 244.946165 174.677033 
L 246.214347 207.263013 
L 247.482528 214.431257 
L 248.75071 195.59144 
L 251.287074 93.383962 
L 252.555256 58.945123 
L 253.823437 33.067101 
L 255.091619 18.836663 
L 256.359801 22.537433 
L 257.627983 40.463849 
L 258.896165 67.06569 
L 260.164347 107.242372 
L 261.432528 158.999322 
L 262.70071 199.67211 
L 263.968892 214.599155 
L 265.237074 205.268212 
L 266.505256 163.023544 
L 267.773437 107.315877 
L 269.041619 69.047819 
L 270.309801 40.518001 
L 271.577983 21.686128 
L 272.846165 19.350062 
L 274.114347 33.642653 
L 275.382528 57.311454 
L 276.65071 92.404656 
L 279.187074 189.175081 
L 280.455256 212.410992 
L 281.723437 211.310139 
L 282.991619 180.587295 
L 284.259801 123.517149 
L 285.527983 80.093453 
L 286.796165 48.919413 
L 288.064347 26.337295 
L 289.332528 18.006137 
L 290.60071 27.691031 
L 291.868892 48.732996 
L 293.137074 79.305655 
L 294.405256 124.930015 
L 295.673437 175.893385 
L 296.941619 207.767369 
L 298.209801 214.29634 
L 299.477983 194.605652 
L 302.014347 92.305444 
L 303.282528 58.14208 
L 304.55071 32.495984 
L 305.818892 18.6861 
L 307.087074 22.873614 
L 308.355256 41.062377 
L 309.623437 67.939372 
L 310.891619 108.545593 
L 312.159801 160.364682 
L 313.427983 200.412109 
L 314.696165 214.675428 
L 315.964347 204.611182 
L 317.232528 161.449743 
L 318.50071 106.079551 
L 319.768892 68.174008 
L 321.037074 39.85936 
L 322.305256 21.376089 
L 323.573437 19.54649 
L 324.841619 34.176874 
L 326.109801 58.072097 
L 327.377983 93.572169 
L 329.914347 190.156947 
L 331.182528 212.682623 
L 332.45071 210.932606 
L 333.718892 179.246736 
L 334.987074 122.072949 
L 336.255256 79.134413 
L 337.523437 48.188406 
L 338.791619 25.888502 
L 340.059801 18.040936 
L 341.327983 28.145857 
L 342.596165 49.407939 
L 343.864347 80.325964 
L 345.132528 126.336664 
L 346.40071 177.093607 
L 347.668892 208.254291 
L 348.937074 214.152873 
L 350.205256 193.597908 
L 352.741619 91.23862 
L 354.009801 57.34554 
L 355.277983 31.934095 
L 356.546165 18.551368 
L 357.814347 23.221732 
L 359.082528 41.668963 
L 360.35071 68.820242 
L 361.618892 109.860416 
L 362.887074 161.72053 
L 364.155256 201.133496 
L 365.423437 214.734529 
L 366.691619 203.927025 
L 367.959801 159.866829 
L 369.227983 104.859898 
L 370.496165 67.3074 
L 371.764347 39.208105 
L 373.032528 21.079499 
L 374.30071 19.757723 
L 375.568892 34.718497 
L 376.837074 58.841953 
L 378.105256 94.75216 
L 378.105256 94.75216 
" style="fill:none;stroke:#1f77b4;stroke-linecap:square;stroke-width:1.5;"/>
   </g>
   <g id="line2d_16">
    <path clip-path="url(#p1f3b2c1e62)" d="M 73.741619 97.229169 
L 75.009801 58.226182 
L 76.277983 31.750045 
L 77.546165 19.103859 
L 78.814347 23.521245 
L 80.082528 39.927774 
L 81.35071 66.184606 
L 82.618892 108.547804 
L 83.887074 161.123949 
L 85.155256 197.776201 
L 86.423437 209.242995 
L 87.691619 204.754307 
L 88.959801 173.680834 
L 90.227983 113.370106 
L 91.496165 68.644301 
L 92.764347 38.430163 
L 94.032528 20.65334 
L 95.30071 19.658232 
L 96.568892 33.082133 
L 97.837074 55.754914 
L 99.105256 92.662646 
L 100.373437 144.449482 
L 101.641619 189.042831 
L 102.909801 207.342216 
L 104.177983 207.888232 
L 105.446165 187.810234 
L 107.982528 80.682867 
L 109.25071 46.663085 
L 110.518892 24.403584 
L 111.787074 17.649077 
L 113.055256 27.272417 
L 114.323437 46.95715 
L 115.591619 78.532355 
L 118.127983 177.268501 
L 119.396165 203.888832 
L 120.664347 209.111864 
L 121.932528 197.715781 
L 123.20071 153.023281 
L 124.468892 94.5748 
L 125.737074 56.202237 
L 127.005256 30.003979 
L 128.273438 17.642345 
L 129.541619 22.542268 
L 130.809801 39.458073 
L 132.077983 66.36715 
L 133.346165 109.677472 
L 134.614347 162.639073 
L 135.882528 198.292039 
L 137.15071 208.902372 
L 138.418892 203.973676 
L 139.687074 171.737605 
L 140.955256 111.043859 
L 142.223437 67.017035 
L 143.491619 37.136683 
L 144.759801 19.667845 
L 146.027983 19.118135 
L 147.296165 32.953576 
L 148.564347 56.064353 
L 149.832528 93.674063 
L 151.10071 145.949403 
L 152.368892 189.920478 
L 153.637074 207.339249 
L 154.905256 207.461039 
L 156.173437 186.535808 
L 157.441619 130.413006 
L 158.709801 79.213495 
L 159.977983 45.562981 
L 161.246165 23.614076 
L 162.514347 17.298106 
L 163.782528 27.323703 
L 165.05071 47.335418 
L 166.318892 79.444466 
L 168.855256 178.417038 
L 170.123437 204.163537 
L 171.391619 208.92636 
L 172.659801 196.913223 
L 173.927983 151.118858 
L 175.196165 93.094424 
L 176.464347 55.159951 
L 177.732528 29.265314 
L 179.00071 17.324063 
L 180.268892 22.659315 
L 181.537074 39.857776 
L 182.805256 67.176305 
L 184.073437 111.03332 
L 185.341619 163.981714 
L 186.609801 198.833598 
L 187.877983 208.886684 
L 189.146165 203.499476 
L 190.414347 170.214758 
L 191.682528 109.417136 
L 192.95071 65.952572 
L 194.218892 36.380461 
L 195.487074 19.296366 
L 196.755256 19.213447 
L 198.023437 33.350955 
L 199.291619 56.775921 
L 200.559801 94.901261 
L 201.827983 147.398663 
L 203.096165 190.737611 
L 204.364347 207.485312 
L 205.632528 207.218073 
L 206.90071 185.433935 
L 208.168892 128.638943 
L 209.437074 78.075726 
L 210.705256 44.7571 
L 211.973437 23.150536 
L 213.241619 17.307533 
L 214.509801 27.691787 
L 215.777983 47.959617 
L 217.046165 80.520974 
L 219.582528 179.499328 
L 220.85071 204.484408 
L 222.118892 208.866575 
L 223.387074 196.186809 
L 224.655256 149.381302 
L 225.923437 91.821331 
L 227.191619 54.284771 
L 228.459801 28.701299 
L 229.727983 17.207501 
L 230.996165 22.965674 
L 232.264347 40.409397 
L 233.532528 68.099911 
L 234.80071 112.431618 
L 236.068892 165.282546 
L 237.337074 199.370529 
L 238.605256 208.931573 
L 239.873437 203.062913 
L 241.141619 168.738511 
L 242.409801 107.924018 
L 243.677983 64.988013 
L 244.946165 35.720023 
L 246.214347 19.037384 
L 247.482528 19.423482 
L 248.75071 33.840722 
L 250.018892 57.562064 
L 251.287074 96.173926 
L 252.555256 148.833892 
L 253.823437 191.528011 
L 255.091619 207.650607 
L 256.359801 206.985812 
L 257.627983 184.329617 
L 258.896165 126.935908 
L 260.164347 77.001835 
L 261.432528 44.006441 
L 262.70071 22.751361 
L 263.968892 17.387871 
L 265.237074 28.118474 
L 266.505256 48.632678 
L 267.773437 81.637072 
L 270.309801 180.554279 
L 271.577983 204.802155 
L 272.846165 208.785218 
L 274.114347 195.450268 
L 275.382528 147.661434 
L 276.65071 90.595509 
L 277.918892 53.443949 
L 279.187074 28.175336 
L 280.455256 17.136462 
L 281.723437 23.31171 
L 282.991619 40.990198 
L 284.259801 69.055763 
L 285.527983 113.842972 
L 286.796165 166.563205 
L 288.064347 199.890845 
L 289.332528 208.978787 
L 290.60071 202.613992 
L 291.868892 167.248488 
L 293.137074 106.47171 
L 294.405256 64.047921 
L 295.673437 35.083244 
L 296.941619 18.808353 
L 298.209801 19.661156 
L 299.477983 34.351054 
L 300.746165 58.369785 
L 302.014347 97.463813 
L 303.282528 150.259066 
L 304.55071 192.295842 
L 305.818892 207.812002 
L 307.087074 206.748872 
L 308.355256 183.205112 
L 309.623437 125.257454 
L 310.891619 75.947684 
L 312.159801 43.271498 
L 313.427983 22.372708 
L 314.696165 17.489757 
L 315.964347 28.559123 
L 317.232528 49.318146 
L 318.50071 82.77114 
L 321.037074 181.587124 
L 322.305256 205.108949 
L 323.573437 208.693378 
L 324.841619 194.688656 
L 326.109801 145.939046 
L 327.377983 89.390823 
L 328.646165 52.615847 
L 329.914347 27.663777 
L 331.182528 17.083636 
L 332.45071 23.67031 
L 333.718892 41.582878 
L 334.987074 70.025206 
L 336.255256 115.263055 
L 337.523437 167.827427 
L 338.791619 200.392884 
L 340.059801 209.012188 
L 341.327983 202.145967 
L 342.596165 165.734979 
L 343.864347 105.04287 
L 345.132528 63.119159 
L 346.40071 34.457547 
L 347.668892 18.595437 
L 348.937074 19.912364 
L 350.205256 34.869231 
L 351.473437 59.193907 
L 352.741619 98.766128 
L 354.009801 151.676194 
L 355.277983 193.042152 
L 356.546165 207.962351 
L 357.814347 206.503104 
L 359.082528 182.047026 
L 360.35071 123.595497 
L 361.618892 74.905134 
L 362.887074 42.545868 
L 364.155256 22.007576 
L 365.423437 17.605977 
L 366.691619 29.008015 
L 367.959801 50.017078 
L 369.227983 83.91865 
L 371.764347 182.598226 
L 373.032528 205.402609 
L 374.30071 208.60678 
L 375.568892 193.898926 
L 376.837074 144.211951 
L 378.105256 88.202061 
L 378.105256 88.202061 
" style="fill:none;stroke:#ff7f0e;stroke-linecap:square;stroke-width:1.5;"/>
   </g>
   <g id="patch_3">
    <path d="M 58.523438 224.64 
L 58.523438 7.2 
" style="fill:none;stroke:#000000;stroke-linecap:square;stroke-linejoin:miter;stroke-width:0.8;"/>
   </g>
   <g id="patch_4">
    <path d="M 393.323438 224.64 
L 393.323438 7.2 
" style="fill:none;stroke:#000000;stroke-linecap:square;stroke-linejoin:miter;stroke-width:0.8;"/>
   </g>
   <g id="patch_5">
    <path d="M 58.523437 224.64 
L 393.323438 224.64 
" style="fill:none;stroke:#000000;stroke-linecap:square;stroke-linejoin:miter;stroke-width:0.8;"/>
   </g>
   <g id="patch_6">
    <path d="M 58.523437 7.2 
L 393.323438 7.2 
" style="fill:none;stroke:#000000;stroke-linecap:square;stroke-linejoin:miter;stroke-width:0.8;"/>
   </g>
   <g id="legend_1">
    <g id="patch_7">
     <path d="M 343.223437 133.02 
L 386.323438 133.02 
Q 388.323438 133.02 388.323438 131.02 
L 388.323438 100.82 
Q 388.323438 98.82 386.323438 98.82 
L 343.223437 98.82 
Q 341.223437 98.82 341.223437 100.82 
L 341.223437 131.02 
Q 341.223437 133.02 343.223437 133.02 
z
" style="fill:#ffffff;opacity:0.8;stroke:#cccccc;stroke-linejoin:miter;"/>
    </g>
    <g id="line2d_17">
     <path d="M 345.223437 107.12 
L 365.223437 107.12 
" style="fill:none;stroke:#1f77b4;stroke-linecap:square;stroke-width:1.5;"/>
    </g>
    <g id="line2d_18"/>
    <g id="text_17">
     <!-- $u_1^\prime$ -->
     <g transform="translate(373.223437 110.62)scale(0.1 -0.1)">
      <use transform="translate(0 0.584375)" xlink:href="#DejaVuSans-Oblique-117"/>
      <use transform="translate(67.845052 38.865625)scale(0.7)" xlink:href="#Cmsy10-48"/>
      <use transform="translate(63.378906 -26.759375)scale(0.7)" xlink:href="#DejaVuSans-49"/>
     </g>
    </g>
    <g id="line2d_19">
     <path d="M 345.223437 122.72 
L 365.223437 122.72 
" style="fill:none;stroke:#ff7f0e;stroke-linecap:square;stroke-width:1.5;"/>
    </g>
    <g id="line2d_20"/>
    <g id="text_18">
     <!-- $u_2^\prime$ -->
     <g transform="translate(373.223437 126.22)scale(0.1 -0.1)">
      <use transform="translate(0 0.584375)" xlink:href="#DejaVuSans-Oblique-117"/>
      <use transform="translate(67.845052 38.865625)scale(0.7)" xlink:href="#Cmsy10-48"/>
      <use transform="translate(63.378906 -26.759375)scale(0.7)" xlink:href="#DejaVuSans-50"/>
     </g>
    </g>
   </g>
  </g>
 </g>
 <defs>
  <clipPath id="p1f3b2c1e62">
   <rect height="217.44" width="334.8" x="58.523438" y="7.2"/>
  </clipPath>
 </defs>
</svg>
