<?xml version="1.0" encoding="utf-8" standalone="no"?>
<!DOCTYPE svg PUBLIC "-//W3C//DTD SVG 1.1//EN"
  "http://www.w3.org/Graphics/SVG/1.1/DTD/svg11.dtd">
<!-- Created with matplotlib (https://matplotlib.org/) -->
<svg height="262.19625pt" version="1.1" viewBox="0 0 401.445312 262.19625" width="401.445312pt" xmlns="http://www.w3.org/2000/svg" xmlns:xlink="http://www.w3.org/1999/xlink">
 <metadata>
  <rdf:RDF xmlns:cc="http://creativecommons.org/ns#" xmlns:dc="http://purl.org/dc/elements/1.1/" xmlns:rdf="http://www.w3.org/1999/02/22-rdf-syntax-ns#">
   <cc:Work>
    <dc:type rdf:resource="http://purl.org/dc/dcmitype/StillImage"/>
    <dc:date>2021-12-14T23:42:30.264788</dc:date>
    <dc:format>image/svg+xml</dc:format>
    <dc:creator>
     <cc:Agent>
      <dc:title>Matplotlib v3.3.3, https://matplotlib.org/</dc:title>
     </cc:Agent>
    </dc:creator>
   </cc:Work>
  </rdf:RDF>
 </metadata>
 <defs>
  <style type="text/css">*{stroke-linecap:butt;stroke-linejoin:round;}</style>
 </defs>
 <g id="figure_1">
  <g id="patch_1">
   <path d="M 0 262.19625 
L 401.445312 262.19625 
L 401.445312 0 
L 0 0 
z
" style="fill:none;"/>
  </g>
  <g id="axes_1">
   <g id="patch_2">
    <path d="M 59.445313 224.64 
L 394.245313 224.64 
L 394.245313 7.2 
L 59.445313 7.2 
z
" style="fill:#ffffff;"/>
   </g>
   <g id="matplotlib.axis_1">
    <g id="xtick_1">
     <g id="line2d_1">
      <defs>
       <path d="M 0 0 
L 0 3.5 
" id="m205d131d9e" style="stroke:#000000;stroke-width:0.8;"/>
      </defs>
      <g>
       <use style="stroke:#000000;stroke-width:0.8;" x="74.663494" xlink:href="#m205d131d9e" y="224.64"/>
      </g>
     </g>
     <g id="text_1">
      <!-- 4 -->
      <g transform="translate(71.482244 239.238437)scale(0.1 -0.1)">
       <defs>
        <path d="M 37.796875 64.3125 
L 12.890625 25.390625 
L 37.796875 25.390625 
z
M 35.203125 72.90625 
L 47.609375 72.90625 
L 47.609375 25.390625 
L 58.015625 25.390625 
L 58.015625 17.1875 
L 47.609375 17.1875 
L 47.609375 0 
L 37.796875 0 
L 37.796875 17.1875 
L 4.890625 17.1875 
L 4.890625 26.703125 
z
" id="DejaVuSans-52"/>
       </defs>
       <use xlink:href="#DejaVuSans-52"/>
      </g>
     </g>
    </g>
    <g id="xtick_2">
     <g id="line2d_2">
      <g>
       <use style="stroke:#000000;stroke-width:0.8;" x="125.390767" xlink:href="#m205d131d9e" y="224.64"/>
      </g>
     </g>
     <g id="text_2">
      <!-- 5 -->
      <g transform="translate(122.209517 239.238437)scale(0.1 -0.1)">
       <defs>
        <path d="M 10.796875 72.90625 
L 49.515625 72.90625 
L 49.515625 64.59375 
L 19.828125 64.59375 
L 19.828125 46.734375 
Q 21.96875 47.46875 24.109375 47.828125 
Q 26.265625 48.1875 28.421875 48.1875 
Q 40.625 48.1875 47.75 41.5 
Q 54.890625 34.8125 54.890625 23.390625 
Q 54.890625 11.625 47.5625 5.09375 
Q 40.234375 -1.421875 26.90625 -1.421875 
Q 22.3125 -1.421875 17.546875 -0.640625 
Q 12.796875 0.140625 7.71875 1.703125 
L 7.71875 11.625 
Q 12.109375 9.234375 16.796875 8.0625 
Q 21.484375 6.890625 26.703125 6.890625 
Q 35.15625 6.890625 40.078125 11.328125 
Q 45.015625 15.765625 45.015625 23.390625 
Q 45.015625 31 40.078125 35.4375 
Q 35.15625 39.890625 26.703125 39.890625 
Q 22.75 39.890625 18.8125 39.015625 
Q 14.890625 38.140625 10.796875 36.28125 
z
" id="DejaVuSans-53"/>
       </defs>
       <use xlink:href="#DejaVuSans-53"/>
      </g>
     </g>
    </g>
    <g id="xtick_3">
     <g id="line2d_3">
      <g>
       <use style="stroke:#000000;stroke-width:0.8;" x="176.11804" xlink:href="#m205d131d9e" y="224.64"/>
      </g>
     </g>
     <g id="text_3">
      <!-- 6 -->
      <g transform="translate(172.93679 239.238437)scale(0.1 -0.1)">
       <defs>
        <path d="M 33.015625 40.375 
Q 26.375 40.375 22.484375 35.828125 
Q 18.609375 31.296875 18.609375 23.390625 
Q 18.609375 15.53125 22.484375 10.953125 
Q 26.375 6.390625 33.015625 6.390625 
Q 39.65625 6.390625 43.53125 10.953125 
Q 47.40625 15.53125 47.40625 23.390625 
Q 47.40625 31.296875 43.53125 35.828125 
Q 39.65625 40.375 33.015625 40.375 
z
M 52.59375 71.296875 
L 52.59375 62.3125 
Q 48.875 64.0625 45.09375 64.984375 
Q 41.3125 65.921875 37.59375 65.921875 
Q 27.828125 65.921875 22.671875 59.328125 
Q 17.53125 52.734375 16.796875 39.40625 
Q 19.671875 43.65625 24.015625 45.921875 
Q 28.375 48.1875 33.59375 48.1875 
Q 44.578125 48.1875 50.953125 41.515625 
Q 57.328125 34.859375 57.328125 23.390625 
Q 57.328125 12.15625 50.6875 5.359375 
Q 44.046875 -1.421875 33.015625 -1.421875 
Q 20.359375 -1.421875 13.671875 8.265625 
Q 6.984375 17.96875 6.984375 36.375 
Q 6.984375 53.65625 15.1875 63.9375 
Q 23.390625 74.21875 37.203125 74.21875 
Q 40.921875 74.21875 44.703125 73.484375 
Q 48.484375 72.75 52.59375 71.296875 
z
" id="DejaVuSans-54"/>
       </defs>
       <use xlink:href="#DejaVuSans-54"/>
      </g>
     </g>
    </g>
    <g id="xtick_4">
     <g id="line2d_4">
      <g>
       <use style="stroke:#000000;stroke-width:0.8;" x="226.845312" xlink:href="#m205d131d9e" y="224.64"/>
      </g>
     </g>
     <g id="text_4">
      <!-- 7 -->
      <g transform="translate(223.664062 239.238437)scale(0.1 -0.1)">
       <defs>
        <path d="M 8.203125 72.90625 
L 55.078125 72.90625 
L 55.078125 68.703125 
L 28.609375 0 
L 18.3125 0 
L 43.21875 64.59375 
L 8.203125 64.59375 
z
" id="DejaVuSans-55"/>
       </defs>
       <use xlink:href="#DejaVuSans-55"/>
      </g>
     </g>
    </g>
    <g id="xtick_5">
     <g id="line2d_5">
      <g>
       <use style="stroke:#000000;stroke-width:0.8;" x="277.572585" xlink:href="#m205d131d9e" y="224.64"/>
      </g>
     </g>
     <g id="text_5">
      <!-- 8 -->
      <g transform="translate(274.391335 239.238437)scale(0.1 -0.1)">
       <defs>
        <path d="M 31.78125 34.625 
Q 24.75 34.625 20.71875 30.859375 
Q 16.703125 27.09375 16.703125 20.515625 
Q 16.703125 13.921875 20.71875 10.15625 
Q 24.75 6.390625 31.78125 6.390625 
Q 38.8125 6.390625 42.859375 10.171875 
Q 46.921875 13.96875 46.921875 20.515625 
Q 46.921875 27.09375 42.890625 30.859375 
Q 38.875 34.625 31.78125 34.625 
z
M 21.921875 38.8125 
Q 15.578125 40.375 12.03125 44.71875 
Q 8.5 49.078125 8.5 55.328125 
Q 8.5 64.0625 14.71875 69.140625 
Q 20.953125 74.21875 31.78125 74.21875 
Q 42.671875 74.21875 48.875 69.140625 
Q 55.078125 64.0625 55.078125 55.328125 
Q 55.078125 49.078125 51.53125 44.71875 
Q 48 40.375 41.703125 38.8125 
Q 48.828125 37.15625 52.796875 32.3125 
Q 56.78125 27.484375 56.78125 20.515625 
Q 56.78125 9.90625 50.3125 4.234375 
Q 43.84375 -1.421875 31.78125 -1.421875 
Q 19.734375 -1.421875 13.25 4.234375 
Q 6.78125 9.90625 6.78125 20.515625 
Q 6.78125 27.484375 10.78125 32.3125 
Q 14.796875 37.15625 21.921875 38.8125 
z
M 18.3125 54.390625 
Q 18.3125 48.734375 21.84375 45.5625 
Q 25.390625 42.390625 31.78125 42.390625 
Q 38.140625 42.390625 41.71875 45.5625 
Q 45.3125 48.734375 45.3125 54.390625 
Q 45.3125 60.0625 41.71875 63.234375 
Q 38.140625 66.40625 31.78125 66.40625 
Q 25.390625 66.40625 21.84375 63.234375 
Q 18.3125 60.0625 18.3125 54.390625 
z
" id="DejaVuSans-56"/>
       </defs>
       <use xlink:href="#DejaVuSans-56"/>
      </g>
     </g>
    </g>
    <g id="xtick_6">
     <g id="line2d_6">
      <g>
       <use style="stroke:#000000;stroke-width:0.8;" x="328.299858" xlink:href="#m205d131d9e" y="224.64"/>
      </g>
     </g>
     <g id="text_6">
      <!-- 9 -->
      <g transform="translate(325.118608 239.238437)scale(0.1 -0.1)">
       <defs>
        <path d="M 10.984375 1.515625 
L 10.984375 10.5 
Q 14.703125 8.734375 18.5 7.8125 
Q 22.3125 6.890625 25.984375 6.890625 
Q 35.75 6.890625 40.890625 13.453125 
Q 46.046875 20.015625 46.78125 33.40625 
Q 43.953125 29.203125 39.59375 26.953125 
Q 35.25 24.703125 29.984375 24.703125 
Q 19.046875 24.703125 12.671875 31.3125 
Q 6.296875 37.9375 6.296875 49.421875 
Q 6.296875 60.640625 12.9375 67.421875 
Q 19.578125 74.21875 30.609375 74.21875 
Q 43.265625 74.21875 49.921875 64.515625 
Q 56.59375 54.828125 56.59375 36.375 
Q 56.59375 19.140625 48.40625 8.859375 
Q 40.234375 -1.421875 26.421875 -1.421875 
Q 22.703125 -1.421875 18.890625 -0.6875 
Q 15.09375 0.046875 10.984375 1.515625 
z
M 30.609375 32.421875 
Q 37.25 32.421875 41.125 36.953125 
Q 45.015625 41.5 45.015625 49.421875 
Q 45.015625 57.28125 41.125 61.84375 
Q 37.25 66.40625 30.609375 66.40625 
Q 23.96875 66.40625 20.09375 61.84375 
Q 16.21875 57.28125 16.21875 49.421875 
Q 16.21875 41.5 20.09375 36.953125 
Q 23.96875 32.421875 30.609375 32.421875 
z
" id="DejaVuSans-57"/>
       </defs>
       <use xlink:href="#DejaVuSans-57"/>
      </g>
     </g>
    </g>
    <g id="xtick_7">
     <g id="line2d_7">
      <g>
       <use style="stroke:#000000;stroke-width:0.8;" x="379.027131" xlink:href="#m205d131d9e" y="224.64"/>
      </g>
     </g>
     <g id="text_7">
      <!-- 10 -->
      <g transform="translate(372.664631 239.238437)scale(0.1 -0.1)">
       <defs>
        <path d="M 12.40625 8.296875 
L 28.515625 8.296875 
L 28.515625 63.921875 
L 10.984375 60.40625 
L 10.984375 69.390625 
L 28.421875 72.90625 
L 38.28125 72.90625 
L 38.28125 8.296875 
L 54.390625 8.296875 
L 54.390625 0 
L 12.40625 0 
z
" id="DejaVuSans-49"/>
        <path d="M 31.78125 66.40625 
Q 24.171875 66.40625 20.328125 58.90625 
Q 16.5 51.421875 16.5 36.375 
Q 16.5 21.390625 20.328125 13.890625 
Q 24.171875 6.390625 31.78125 6.390625 
Q 39.453125 6.390625 43.28125 13.890625 
Q 47.125 21.390625 47.125 36.375 
Q 47.125 51.421875 43.28125 58.90625 
Q 39.453125 66.40625 31.78125 66.40625 
z
M 31.78125 74.21875 
Q 44.046875 74.21875 50.515625 64.515625 
Q 56.984375 54.828125 56.984375 36.375 
Q 56.984375 17.96875 50.515625 8.265625 
Q 44.046875 -1.421875 31.78125 -1.421875 
Q 19.53125 -1.421875 13.0625 8.265625 
Q 6.59375 17.96875 6.59375 36.375 
Q 6.59375 54.828125 13.0625 64.515625 
Q 19.53125 74.21875 31.78125 74.21875 
z
" id="DejaVuSans-48"/>
       </defs>
       <use xlink:href="#DejaVuSans-49"/>
       <use x="63.623047" xlink:href="#DejaVuSans-48"/>
      </g>
     </g>
    </g>
    <g id="text_8">
     <!-- $t$ in $s$ -->
     <g transform="translate(214.495313 252.916562)scale(0.1 -0.1)">
      <defs>
       <path d="M 42.28125 54.6875 
L 40.921875 47.703125 
L 23 47.703125 
L 17.1875 18.015625 
Q 16.890625 16.359375 16.75 15.234375 
Q 16.609375 14.109375 16.609375 13.484375 
Q 16.609375 10.359375 18.484375 8.9375 
Q 20.359375 7.515625 24.515625 7.515625 
L 33.59375 7.515625 
L 32.078125 0 
L 23.484375 0 
Q 15.484375 0 11.546875 3.125 
Q 7.625 6.25 7.625 12.59375 
Q 7.625 13.71875 7.765625 15.0625 
Q 7.90625 16.40625 8.203125 18.015625 
L 14.015625 47.703125 
L 6.390625 47.703125 
L 7.8125 54.6875 
L 15.28125 54.6875 
L 18.3125 70.21875 
L 27.296875 70.21875 
L 24.3125 54.6875 
z
" id="DejaVuSans-Oblique-116"/>
       <path id="DejaVuSans-32"/>
       <path d="M 9.421875 54.6875 
L 18.40625 54.6875 
L 18.40625 0 
L 9.421875 0 
z
M 9.421875 75.984375 
L 18.40625 75.984375 
L 18.40625 64.59375 
L 9.421875 64.59375 
z
" id="DejaVuSans-105"/>
       <path d="M 54.890625 33.015625 
L 54.890625 0 
L 45.90625 0 
L 45.90625 32.71875 
Q 45.90625 40.484375 42.875 44.328125 
Q 39.84375 48.1875 33.796875 48.1875 
Q 26.515625 48.1875 22.3125 43.546875 
Q 18.109375 38.921875 18.109375 30.90625 
L 18.109375 0 
L 9.078125 0 
L 9.078125 54.6875 
L 18.109375 54.6875 
L 18.109375 46.1875 
Q 21.34375 51.125 25.703125 53.5625 
Q 30.078125 56 35.796875 56 
Q 45.21875 56 50.046875 50.171875 
Q 54.890625 44.34375 54.890625 33.015625 
z
" id="DejaVuSans-110"/>
       <path d="M 50 53.078125 
L 48.296875 44.578125 
Q 44.734375 46.53125 40.765625 47.5 
Q 36.8125 48.484375 32.625 48.484375 
Q 25.53125 48.484375 21.453125 46.0625 
Q 17.390625 43.65625 17.390625 39.5 
Q 17.390625 34.671875 26.859375 32.078125 
Q 27.59375 31.890625 27.9375 31.78125 
L 30.8125 30.90625 
Q 39.796875 28.421875 42.796875 25.6875 
Q 45.796875 22.953125 45.796875 18.21875 
Q 45.796875 9.515625 38.890625 4.046875 
Q 31.984375 -1.421875 20.796875 -1.421875 
Q 16.453125 -1.421875 11.671875 -0.578125 
Q 6.890625 0.25 1.125 2 
L 2.875 11.28125 
Q 7.8125 8.734375 12.59375 7.421875 
Q 17.390625 6.109375 21.78125 6.109375 
Q 28.375 6.109375 32.5 8.9375 
Q 36.625 11.765625 36.625 16.109375 
Q 36.625 20.796875 25.78125 23.6875 
L 24.859375 23.921875 
L 21.78125 24.703125 
Q 14.9375 26.515625 11.765625 29.46875 
Q 8.59375 32.421875 8.59375 37.015625 
Q 8.59375 45.75 15.15625 50.875 
Q 21.734375 56 33.015625 56 
Q 37.453125 56 41.671875 55.265625 
Q 45.90625 54.546875 50 53.078125 
z
" id="DejaVuSans-Oblique-115"/>
      </defs>
      <use transform="translate(0 0.015625)" xlink:href="#DejaVuSans-Oblique-116"/>
      <use transform="translate(39.208984 0.015625)" xlink:href="#DejaVuSans-32"/>
      <use transform="translate(70.996094 0.015625)" xlink:href="#DejaVuSans-105"/>
      <use transform="translate(98.779297 0.015625)" xlink:href="#DejaVuSans-110"/>
      <use transform="translate(162.158203 0.015625)" xlink:href="#DejaVuSans-32"/>
      <use transform="translate(193.945312 0.015625)" xlink:href="#DejaVuSans-Oblique-115"/>
     </g>
    </g>
   </g>
   <g id="matplotlib.axis_2">
    <g id="ytick_1">
     <g id="line2d_8">
      <defs>
       <path d="M 0 0 
L -3.5 0 
" id="m328906878d" style="stroke:#000000;stroke-width:0.8;"/>
      </defs>
      <g>
       <use style="stroke:#000000;stroke-width:0.8;" x="59.445313" xlink:href="#m328906878d" y="196.517335"/>
      </g>
     </g>
     <g id="text_9">
      <!-- −0.75 -->
      <g transform="translate(21.8 200.316553)scale(0.1 -0.1)">
       <defs>
        <path d="M 10.59375 35.5 
L 73.1875 35.5 
L 73.1875 27.203125 
L 10.59375 27.203125 
z
" id="DejaVuSans-8722"/>
        <path d="M 10.6875 12.40625 
L 21 12.40625 
L 21 0 
L 10.6875 0 
z
" id="DejaVuSans-46"/>
       </defs>
       <use xlink:href="#DejaVuSans-8722"/>
       <use x="83.789062" xlink:href="#DejaVuSans-48"/>
       <use x="147.412109" xlink:href="#DejaVuSans-46"/>
       <use x="179.199219" xlink:href="#DejaVuSans-55"/>
       <use x="242.822266" xlink:href="#DejaVuSans-53"/>
      </g>
     </g>
    </g>
    <g id="ytick_2">
     <g id="line2d_9">
      <g>
       <use style="stroke:#000000;stroke-width:0.8;" x="59.445313" xlink:href="#m328906878d" y="166.608023"/>
      </g>
     </g>
     <g id="text_10">
      <!-- −0.50 -->
      <g transform="translate(21.8 170.407242)scale(0.1 -0.1)">
       <use xlink:href="#DejaVuSans-8722"/>
       <use x="83.789062" xlink:href="#DejaVuSans-48"/>
       <use x="147.412109" xlink:href="#DejaVuSans-46"/>
       <use x="179.199219" xlink:href="#DejaVuSans-53"/>
       <use x="242.822266" xlink:href="#DejaVuSans-48"/>
      </g>
     </g>
    </g>
    <g id="ytick_3">
     <g id="line2d_10">
      <g>
       <use style="stroke:#000000;stroke-width:0.8;" x="59.445313" xlink:href="#m328906878d" y="136.698712"/>
      </g>
     </g>
     <g id="text_11">
      <!-- −0.25 -->
      <g transform="translate(21.8 140.497931)scale(0.1 -0.1)">
       <defs>
        <path d="M 19.1875 8.296875 
L 53.609375 8.296875 
L 53.609375 0 
L 7.328125 0 
L 7.328125 8.296875 
Q 12.9375 14.109375 22.625 23.890625 
Q 32.328125 33.6875 34.8125 36.53125 
Q 39.546875 41.84375 41.421875 45.53125 
Q 43.3125 49.21875 43.3125 52.78125 
Q 43.3125 58.59375 39.234375 62.25 
Q 35.15625 65.921875 28.609375 65.921875 
Q 23.96875 65.921875 18.8125 64.3125 
Q 13.671875 62.703125 7.8125 59.421875 
L 7.8125 69.390625 
Q 13.765625 71.78125 18.9375 73 
Q 24.125 74.21875 28.421875 74.21875 
Q 39.75 74.21875 46.484375 68.546875 
Q 53.21875 62.890625 53.21875 53.421875 
Q 53.21875 48.921875 51.53125 44.890625 
Q 49.859375 40.875 45.40625 35.40625 
Q 44.1875 33.984375 37.640625 27.21875 
Q 31.109375 20.453125 19.1875 8.296875 
z
" id="DejaVuSans-50"/>
       </defs>
       <use xlink:href="#DejaVuSans-8722"/>
       <use x="83.789062" xlink:href="#DejaVuSans-48"/>
       <use x="147.412109" xlink:href="#DejaVuSans-46"/>
       <use x="179.199219" xlink:href="#DejaVuSans-50"/>
       <use x="242.822266" xlink:href="#DejaVuSans-53"/>
      </g>
     </g>
    </g>
    <g id="ytick_4">
     <g id="line2d_11">
      <g>
       <use style="stroke:#000000;stroke-width:0.8;" x="59.445313" xlink:href="#m328906878d" y="106.7894"/>
      </g>
     </g>
     <g id="text_12">
      <!-- 0.00 -->
      <g transform="translate(30.179688 110.588619)scale(0.1 -0.1)">
       <use xlink:href="#DejaVuSans-48"/>
       <use x="63.623047" xlink:href="#DejaVuSans-46"/>
       <use x="95.410156" xlink:href="#DejaVuSans-48"/>
       <use x="159.033203" xlink:href="#DejaVuSans-48"/>
      </g>
     </g>
    </g>
    <g id="ytick_5">
     <g id="line2d_12">
      <g>
       <use style="stroke:#000000;stroke-width:0.8;" x="59.445313" xlink:href="#m328906878d" y="76.880089"/>
      </g>
     </g>
     <g id="text_13">
      <!-- 0.25 -->
      <g transform="translate(30.179688 80.679308)scale(0.1 -0.1)">
       <use xlink:href="#DejaVuSans-48"/>
       <use x="63.623047" xlink:href="#DejaVuSans-46"/>
       <use x="95.410156" xlink:href="#DejaVuSans-50"/>
       <use x="159.033203" xlink:href="#DejaVuSans-53"/>
      </g>
     </g>
    </g>
    <g id="ytick_6">
     <g id="line2d_13">
      <g>
       <use style="stroke:#000000;stroke-width:0.8;" x="59.445313" xlink:href="#m328906878d" y="46.970778"/>
      </g>
     </g>
     <g id="text_14">
      <!-- 0.50 -->
      <g transform="translate(30.179688 50.769996)scale(0.1 -0.1)">
       <use xlink:href="#DejaVuSans-48"/>
       <use x="63.623047" xlink:href="#DejaVuSans-46"/>
       <use x="95.410156" xlink:href="#DejaVuSans-53"/>
       <use x="159.033203" xlink:href="#DejaVuSans-48"/>
      </g>
     </g>
    </g>
    <g id="ytick_7">
     <g id="line2d_14">
      <g>
       <use style="stroke:#000000;stroke-width:0.8;" x="59.445313" xlink:href="#m328906878d" y="17.061466"/>
      </g>
     </g>
     <g id="text_15">
      <!-- 0.75 -->
      <g transform="translate(30.179688 20.860685)scale(0.1 -0.1)">
       <use xlink:href="#DejaVuSans-48"/>
       <use x="63.623047" xlink:href="#DejaVuSans-46"/>
       <use x="95.410156" xlink:href="#DejaVuSans-55"/>
       <use x="159.033203" xlink:href="#DejaVuSans-53"/>
      </g>
     </g>
    </g>
    <g id="text_16">
     <!-- $u_x^\prime$ in $m/s$ -->
     <g transform="translate(15 138.22)rotate(-90)scale(0.1 -0.1)">
      <defs>
       <path d="M 6.6875 21.6875 
L 13.09375 54.6875 
L 22.125 54.6875 
L 15.71875 22.015625 
Q 15.234375 19.625 15.015625 17.921875 
Q 14.796875 16.21875 14.796875 15.09375 
Q 14.796875 10.9375 17.328125 8.65625 
Q 19.875 6.390625 24.515625 6.390625 
Q 31.734375 6.390625 37 11.265625 
Q 42.28125 16.15625 43.890625 24.421875 
L 49.90625 54.6875 
L 58.890625 54.6875 
L 48.296875 0 
L 39.3125 0 
L 41.109375 8.59375 
Q 37.3125 3.8125 32.0625 1.1875 
Q 26.8125 -1.421875 20.90625 -1.421875 
Q 13.71875 -1.421875 9.71875 2.515625 
Q 5.71875 6.453125 5.71875 13.484375 
Q 5.71875 14.9375 5.953125 17.140625 
Q 6.203125 19.34375 6.6875 21.6875 
z
" id="DejaVuSans-Oblique-117"/>
       <path d="M 3.515625 5.421875 
Q 2.875 5.609375 2.875 6.390625 
L 15.09375 51.8125 
Q 15.671875 53.65625 17.078125 54.78125 
Q 18.5 55.90625 20.3125 55.90625 
Q 22.65625 55.90625 24.4375 54.359375 
Q 26.21875 52.828125 26.21875 50.484375 
Q 26.21875 49.46875 25.6875 48.1875 
L 7.625 4.984375 
Q 7.28125 4.296875 6.6875 4.296875 
Q 6.15625 4.296875 5 4.78125 
Q 3.859375 5.28125 3.515625 5.421875 
z
" id="Cmsy10-48"/>
       <path d="M 60.015625 54.6875 
L 34.90625 27.875 
L 50.296875 0 
L 39.984375 0 
L 28.421875 21.6875 
L 8.296875 0 
L -2.59375 0 
L 24.3125 28.8125 
L 10.015625 54.6875 
L 20.3125 54.6875 
L 30.8125 34.90625 
L 49.125 54.6875 
z
" id="DejaVuSans-Oblique-120"/>
       <path d="M 89.796875 33.015625 
L 83.40625 0 
L 74.421875 0 
L 80.71875 32.71875 
Q 81.109375 34.8125 81.296875 36.328125 
Q 81.5 37.84375 81.5 38.921875 
Q 81.5 43.3125 79.046875 45.75 
Q 76.609375 48.1875 72.21875 48.1875 
Q 65.671875 48.1875 60.546875 43.28125 
Q 55.421875 38.375 53.90625 30.515625 
L 47.90625 0 
L 38.921875 0 
L 45.3125 32.71875 
Q 45.703125 34.515625 45.890625 36.046875 
Q 46.09375 37.59375 46.09375 38.8125 
Q 46.09375 43.265625 43.65625 45.71875 
Q 41.21875 48.1875 36.921875 48.1875 
Q 30.28125 48.1875 25.140625 43.28125 
Q 20.015625 38.375 18.5 30.515625 
L 12.5 0 
L 3.515625 0 
L 14.203125 54.6875 
L 23.1875 54.6875 
L 21.484375 46.1875 
Q 25.140625 50.984375 30.046875 53.484375 
Q 34.96875 56 40.578125 56 
Q 46.53125 56 50.359375 52.875 
Q 54.203125 49.75 54.984375 44.1875 
Q 59.078125 49.953125 64.46875 52.96875 
Q 69.875 56 75.875 56 
Q 82.90625 56 86.734375 51.953125 
Q 90.578125 47.90625 90.578125 40.484375 
Q 90.578125 38.875 90.375 36.9375 
Q 90.1875 35.015625 89.796875 33.015625 
z
" id="DejaVuSans-Oblique-109"/>
       <path d="M 25.390625 72.90625 
L 33.6875 72.90625 
L 8.296875 -9.28125 
L 0 -9.28125 
z
" id="DejaVuSans-47"/>
      </defs>
      <use transform="translate(0 0.584375)" xlink:href="#DejaVuSans-Oblique-117"/>
      <use transform="translate(67.845052 38.865625)scale(0.7)" xlink:href="#Cmsy10-48"/>
      <use transform="translate(63.378906 -26.759375)scale(0.7)" xlink:href="#DejaVuSans-Oblique-120"/>
      <use transform="translate(107.539062 0.584375)" xlink:href="#DejaVuSans-32"/>
      <use transform="translate(139.326172 0.584375)" xlink:href="#DejaVuSans-105"/>
      <use transform="translate(167.109375 0.584375)" xlink:href="#DejaVuSans-110"/>
      <use transform="translate(230.488281 0.584375)" xlink:href="#DejaVuSans-32"/>
      <use transform="translate(262.275391 0.584375)" xlink:href="#DejaVuSans-Oblique-109"/>
      <use transform="translate(359.6875 0.584375)" xlink:href="#DejaVuSans-47"/>
      <use transform="translate(393.378906 0.584375)" xlink:href="#DejaVuSans-Oblique-115"/>
     </g>
    </g>
   </g>
   <g id="line2d_15">
    <path clip-path="url(#p0f3ee03576)" d="M 74.663494 88.671647 
L 77.199858 184.53762 
L 78.46804 211.017628 
L 79.736222 212.761705 
L 81.004403 186.186934 
L 82.272585 130.451149 
L 83.540767 84.777194 
L 84.808949 52.552254 
L 86.077131 29.026627 
L 87.345312 19.048723 
L 88.613494 27.020395 
L 89.881676 46.950362 
L 91.149858 75.919688 
L 92.41804 119.491308 
L 93.686222 170.68003 
L 94.954403 205.492351 
L 96.222585 214.756364 
L 97.490767 198.55552 
L 100.027131 97.145131 
L 101.295312 61.746739 
L 102.563494 35.219046 
L 103.831676 19.897504 
L 105.099858 22.191825 
L 106.36804 39.207492 
L 107.636222 64.880614 
L 108.904403 103.553147 
L 110.172585 154.755043 
L 111.440767 197.205976 
L 112.708949 214.281857 
L 113.977131 207.162659 
L 115.245312 167.8825 
L 116.513494 111.401176 
L 117.781676 71.915596 
L 119.049858 42.732071 
L 120.31804 22.953494 
L 121.586222 19.162817 
L 122.854403 32.376997 
L 124.122585 55.308046 
L 125.390767 89.106706 
L 127.927131 186.030374 
L 129.195312 211.478465 
L 130.463494 212.34998 
L 131.731676 184.541157 
L 132.999858 128.114713 
L 134.26804 83.142812 
L 135.536222 51.251286 
L 136.804403 27.87538 
L 138.072585 18.157812 
L 139.340767 26.549483 
L 140.608949 46.886069 
L 141.877131 76.410952 
L 143.145312 120.76413 
L 144.413494 172.15925 
L 145.681676 206.177691 
L 146.949858 214.632799 
L 148.21804 197.49833 
L 150.754403 95.645759 
L 152.022585 60.624173 
L 153.290767 34.295304 
L 154.558949 19.262651 
L 155.827131 21.991831 
L 157.095312 39.360108 
L 158.363494 65.414065 
L 159.631676 104.688805 
L 160.899858 156.2268 
L 162.16804 198.110414 
L 163.436222 214.398362 
L 164.704403 206.519698 
L 165.972585 166.16408 
L 167.240767 109.880026 
L 168.508949 70.846811 
L 169.777131 41.885986 
L 171.045312 22.385259 
L 172.313494 19.045656 
L 173.581676 32.637462 
L 174.849858 55.851138 
L 176.11804 90.125459 
L 178.654403 187.138329 
L 179.922585 211.815723 
L 181.190767 212.008244 
L 182.458949 183.206317 
L 183.727131 126.482242 
L 184.995312 82.054588 
L 186.263494 50.414499 
L 187.531676 27.286636 
L 188.799858 18.00541 
L 190.06804 26.831811 
L 191.336222 47.424355 
L 192.604403 77.315896 
L 193.872585 122.13635 
L 195.140767 173.440622 
L 196.408949 206.737784 
L 197.677131 214.541123 
L 198.945312 196.5509 
L 201.481676 94.483117 
L 202.749858 59.761145 
L 204.01804 33.654476 
L 205.286222 19.01187 
L 206.554403 22.224214 
L 207.822585 39.878242 
L 209.090767 66.211589 
L 210.358949 105.951023 
L 211.627131 157.62333 
L 212.895312 198.910377 
L 214.163494 214.503814 
L 215.431676 205.900975 
L 216.699858 164.589106 
L 217.96804 108.573518 
L 219.236222 69.931998 
L 220.504403 41.187182 
L 221.772585 22.014108 
L 223.040767 19.172159 
L 224.308949 33.118629 
L 225.577131 56.563419 
L 226.845312 91.250849 
L 229.381676 188.171031 
L 230.649858 212.123637 
L 231.91804 211.664105 
L 233.186222 181.903502 
L 234.454403 124.982064 
L 235.722585 81.062675 
L 236.990767 49.658092 
L 238.258949 26.799008 
L 239.527131 17.988096 
L 240.795312 27.246289 
L 242.063494 48.06594 
L 243.331676 78.299894 
L 244.599858 123.529008 
L 245.86804 174.677033 
L 247.136222 207.263013 
L 248.404403 214.431257 
L 249.672585 195.59144 
L 252.208949 93.383962 
L 253.477131 58.945123 
L 254.745312 33.067101 
L 256.013494 18.836663 
L 257.281676 22.537433 
L 258.549858 40.463849 
L 259.81804 67.06569 
L 261.086222 107.242372 
L 262.354403 158.999322 
L 263.622585 199.67211 
L 264.890767 214.599155 
L 266.158949 205.268212 
L 267.427131 163.023544 
L 268.695312 107.315877 
L 269.963494 69.047819 
L 271.231676 40.518001 
L 272.499858 21.686128 
L 273.76804 19.350062 
L 275.036222 33.642653 
L 276.304403 57.311454 
L 277.572585 92.404656 
L 280.108949 189.175081 
L 281.377131 212.410992 
L 282.645312 211.310139 
L 283.913494 180.587295 
L 285.181676 123.517149 
L 286.449858 80.093453 
L 287.71804 48.919413 
L 288.986222 26.337295 
L 290.254403 18.006137 
L 291.522585 27.691031 
L 292.790767 48.732996 
L 294.058949 79.305655 
L 295.327131 124.930015 
L 296.595312 175.893385 
L 297.863494 207.767369 
L 299.131676 214.29634 
L 300.399858 194.605652 
L 302.936222 92.305444 
L 304.204403 58.14208 
L 305.472585 32.495984 
L 306.740767 18.6861 
L 308.008949 22.873614 
L 309.277131 41.062377 
L 310.545312 67.939372 
L 311.813494 108.545593 
L 313.081676 160.364682 
L 314.349858 200.412109 
L 315.61804 214.675428 
L 316.886222 204.611182 
L 318.154403 161.449743 
L 319.422585 106.079551 
L 320.690767 68.174008 
L 321.958949 39.85936 
L 323.227131 21.376089 
L 324.495312 19.54649 
L 325.763494 34.176874 
L 327.031676 58.072097 
L 328.299858 93.572169 
L 330.836222 190.156947 
L 332.104403 212.682623 
L 333.372585 210.932606 
L 334.640767 179.246736 
L 335.908949 122.072949 
L 337.177131 79.134413 
L 338.445312 48.188406 
L 339.713494 25.888502 
L 340.981676 18.040936 
L 342.249858 28.145857 
L 343.51804 49.407939 
L 344.786222 80.325964 
L 346.054403 126.336664 
L 347.322585 177.093607 
L 348.590767 208.254291 
L 349.858949 214.152873 
L 351.127131 193.597908 
L 353.663494 91.23862 
L 354.931676 57.34554 
L 356.199858 31.934095 
L 357.46804 18.551368 
L 358.736222 23.221732 
L 360.004403 41.668963 
L 361.272585 68.820242 
L 362.540767 109.860416 
L 363.808949 161.72053 
L 365.077131 201.133496 
L 366.345312 214.734529 
L 367.613494 203.927025 
L 368.881676 159.866829 
L 370.149858 104.859898 
L 371.41804 67.3074 
L 372.686222 39.208105 
L 373.954403 21.079499 
L 375.222585 19.757723 
L 376.490767 34.718497 
L 377.758949 58.841953 
L 379.027131 94.75216 
L 379.027131 94.75216 
" style="fill:none;stroke:#1f77b4;stroke-linecap:square;stroke-width:1.5;"/>
   </g>
   <g id="line2d_16">
    <path clip-path="url(#p0f3ee03576)" d="M 74.663494 97.229169 
L 75.931676 58.226182 
L 77.199858 31.750045 
L 78.46804 19.103859 
L 79.736222 23.521245 
L 81.004403 39.927774 
L 82.272585 66.184606 
L 83.540767 108.547804 
L 84.808949 161.123949 
L 86.077131 197.776201 
L 87.345312 209.242995 
L 88.613494 204.754307 
L 89.881676 173.680834 
L 91.149858 113.370106 
L 92.41804 68.644301 
L 93.686222 38.430163 
L 94.954403 20.65334 
L 96.222585 19.658232 
L 97.490767 33.082133 
L 98.758949 55.754914 
L 100.027131 92.662646 
L 101.295312 144.449482 
L 102.563494 189.042831 
L 103.831676 207.342216 
L 105.099858 207.888232 
L 106.36804 187.810234 
L 108.904403 80.682867 
L 110.172585 46.663085 
L 111.440767 24.403584 
L 112.708949 17.649077 
L 113.977131 27.272417 
L 115.245312 46.95715 
L 116.513494 78.532355 
L 119.049858 177.268501 
L 120.31804 203.888832 
L 121.586222 209.111864 
L 122.854403 197.715781 
L 124.122585 153.023281 
L 125.390767 94.5748 
L 126.658949 56.202237 
L 127.927131 30.003979 
L 129.195312 17.642345 
L 130.463494 22.542268 
L 131.731676 39.458073 
L 132.999858 66.36715 
L 134.26804 109.677472 
L 135.536222 162.639073 
L 136.804403 198.292039 
L 138.072585 208.902372 
L 139.340767 203.973676 
L 140.608949 171.737605 
L 141.877131 111.043859 
L 143.145312 67.017035 
L 144.413494 37.136683 
L 145.681676 19.667845 
L 146.949858 19.118135 
L 148.21804 32.953576 
L 149.486222 56.064353 
L 150.754403 93.674063 
L 152.022585 145.949403 
L 153.290767 189.920478 
L 154.558949 207.339249 
L 155.827131 207.461039 
L 157.095312 186.535808 
L 158.363494 130.413006 
L 159.631676 79.213495 
L 160.899858 45.562981 
L 162.16804 23.614076 
L 163.436222 17.298106 
L 164.704403 27.323703 
L 165.972585 47.335418 
L 167.240767 79.444466 
L 169.777131 178.417038 
L 171.045312 204.163537 
L 172.313494 208.92636 
L 173.581676 196.913223 
L 174.849858 151.118858 
L 176.11804 93.094424 
L 177.386222 55.159951 
L 178.654403 29.265314 
L 179.922585 17.324063 
L 181.190767 22.659315 
L 182.458949 39.857776 
L 183.727131 67.176305 
L 184.995312 111.03332 
L 186.263494 163.981714 
L 187.531676 198.833598 
L 188.799858 208.886684 
L 190.06804 203.499476 
L 191.336222 170.214758 
L 192.604403 109.417136 
L 193.872585 65.952572 
L 195.140767 36.380461 
L 196.408949 19.296366 
L 197.677131 19.213447 
L 198.945312 33.350955 
L 200.213494 56.775921 
L 201.481676 94.901261 
L 202.749858 147.398663 
L 204.01804 190.737611 
L 205.286222 207.485312 
L 206.554403 207.218073 
L 207.822585 185.433935 
L 209.090767 128.638943 
L 210.358949 78.075726 
L 211.627131 44.7571 
L 212.895312 23.150536 
L 214.163494 17.307533 
L 215.431676 27.691787 
L 216.699858 47.959617 
L 217.96804 80.520974 
L 220.504403 179.499328 
L 221.772585 204.484408 
L 223.040767 208.866575 
L 224.308949 196.186809 
L 225.577131 149.381302 
L 226.845312 91.821331 
L 228.113494 54.284771 
L 229.381676 28.701299 
L 230.649858 17.207501 
L 231.91804 22.965674 
L 233.186222 40.409397 
L 234.454403 68.099911 
L 235.722585 112.431618 
L 236.990767 165.282546 
L 238.258949 199.370529 
L 239.527131 208.931573 
L 240.795312 203.062913 
L 242.063494 168.738511 
L 243.331676 107.924018 
L 244.599858 64.988013 
L 245.86804 35.720023 
L 247.136222 19.037384 
L 248.404403 19.423482 
L 249.672585 33.840722 
L 250.940767 57.562064 
L 252.208949 96.173926 
L 253.477131 148.833892 
L 254.745312 191.528011 
L 256.013494 207.650607 
L 257.281676 206.985812 
L 258.549858 184.329617 
L 259.81804 126.935908 
L 261.086222 77.001835 
L 262.354403 44.006441 
L 263.622585 22.751361 
L 264.890767 17.387871 
L 266.158949 28.118474 
L 267.427131 48.632678 
L 268.695312 81.637072 
L 271.231676 180.554279 
L 272.499858 204.802155 
L 273.76804 208.785218 
L 275.036222 195.450268 
L 276.304403 147.661434 
L 277.572585 90.595509 
L 278.840767 53.443949 
L 280.108949 28.175336 
L 281.377131 17.136462 
L 282.645312 23.31171 
L 283.913494 40.990198 
L 285.181676 69.055763 
L 286.449858 113.842972 
L 287.71804 166.563205 
L 288.986222 199.890845 
L 290.254403 208.978787 
L 291.522585 202.613992 
L 292.790767 167.248488 
L 294.058949 106.47171 
L 295.327131 64.047921 
L 296.595312 35.083244 
L 297.863494 18.808353 
L 299.131676 19.661156 
L 300.399858 34.351054 
L 301.66804 58.369785 
L 302.936222 97.463813 
L 304.204403 150.259066 
L 305.472585 192.295842 
L 306.740767 207.812002 
L 308.008949 206.748872 
L 309.277131 183.205112 
L 310.545312 125.257454 
L 311.813494 75.947684 
L 313.081676 43.271498 
L 314.349858 22.372708 
L 315.61804 17.489757 
L 316.886222 28.559123 
L 318.154403 49.318146 
L 319.422585 82.77114 
L 321.958949 181.587124 
L 323.227131 205.108949 
L 324.495312 208.693378 
L 325.763494 194.688656 
L 327.031676 145.939046 
L 328.299858 89.390823 
L 329.56804 52.615847 
L 330.836222 27.663777 
L 332.104403 17.083636 
L 333.372585 23.67031 
L 334.640767 41.582878 
L 335.908949 70.025206 
L 337.177131 115.263055 
L 338.445312 167.827427 
L 339.713494 200.392884 
L 340.981676 209.012188 
L 342.249858 202.145967 
L 343.51804 165.734979 
L 344.786222 105.04287 
L 346.054403 63.119159 
L 347.322585 34.457547 
L 348.590767 18.595437 
L 349.858949 19.912364 
L 351.127131 34.869231 
L 352.395312 59.193907 
L 353.663494 98.766128 
L 354.931676 151.676194 
L 356.199858 193.042152 
L 357.46804 207.962351 
L 358.736222 206.503104 
L 360.004403 182.047026 
L 361.272585 123.595497 
L 362.540767 74.905134 
L 363.808949 42.545868 
L 365.077131 22.007576 
L 366.345312 17.605977 
L 367.613494 29.008015 
L 368.881676 50.017078 
L 370.149858 83.91865 
L 372.686222 182.598226 
L 373.954403 205.402609 
L 375.222585 208.60678 
L 376.490767 193.898926 
L 377.758949 144.211951 
L 379.027131 88.202061 
L 379.027131 88.202061 
" style="fill:none;stroke:#ff7f0e;stroke-linecap:square;stroke-width:1.5;"/>
   </g>
   <g id="patch_3">
    <path d="M 59.445313 224.64 
L 59.445313 7.2 
" style="fill:none;stroke:#000000;stroke-linecap:square;stroke-linejoin:miter;stroke-width:0.8;"/>
   </g>
   <g id="patch_4">
    <path d="M 394.245313 224.64 
L 394.245313 7.2 
" style="fill:none;stroke:#000000;stroke-linecap:square;stroke-linejoin:miter;stroke-width:0.8;"/>
   </g>
   <g id="patch_5">
    <path d="M 59.445312 224.64 
L 394.245313 224.64 
" style="fill:none;stroke:#000000;stroke-linecap:square;stroke-linejoin:miter;stroke-width:0.8;"/>
   </g>
   <g id="patch_6">
    <path d="M 59.445312 7.2 
L 394.245313 7.2 
" style="fill:none;stroke:#000000;stroke-linecap:square;stroke-linejoin:miter;stroke-width:0.8;"/>
   </g>
   <g id="legend_1">
    <g id="patch_7">
     <path d="M 299.445312 133.02 
L 387.245313 133.02 
Q 389.245313 133.02 389.245313 131.02 
L 389.245313 100.82 
Q 389.245313 98.82 387.245313 98.82 
L 299.445312 98.82 
Q 297.445312 98.82 297.445312 100.82 
L 297.445312 131.02 
Q 297.445312 133.02 299.445312 133.02 
z
" style="fill:#ffffff;opacity:0.8;stroke:#cccccc;stroke-linejoin:miter;"/>
    </g>
    <g id="line2d_17">
     <path d="M 301.445312 107.12 
L 321.445312 107.12 
" style="fill:none;stroke:#1f77b4;stroke-linecap:square;stroke-width:1.5;"/>
    </g>
    <g id="line2d_18"/>
    <g id="text_17">
     <!-- $u_x^\prime$, probe 1 -->
     <g transform="translate(329.445312 110.62)scale(0.1 -0.1)">
      <defs>
       <path d="M 11.71875 12.40625 
L 22.015625 12.40625 
L 22.015625 4 
L 14.015625 -11.625 
L 7.71875 -11.625 
L 11.71875 4 
z
" id="DejaVuSans-44"/>
       <path d="M 18.109375 8.203125 
L 18.109375 -20.796875 
L 9.078125 -20.796875 
L 9.078125 54.6875 
L 18.109375 54.6875 
L 18.109375 46.390625 
Q 20.953125 51.265625 25.265625 53.625 
Q 29.59375 56 35.59375 56 
Q 45.5625 56 51.78125 48.09375 
Q 58.015625 40.1875 58.015625 27.296875 
Q 58.015625 14.40625 51.78125 6.484375 
Q 45.5625 -1.421875 35.59375 -1.421875 
Q 29.59375 -1.421875 25.265625 0.953125 
Q 20.953125 3.328125 18.109375 8.203125 
z
M 48.6875 27.296875 
Q 48.6875 37.203125 44.609375 42.84375 
Q 40.53125 48.484375 33.40625 48.484375 
Q 26.265625 48.484375 22.1875 42.84375 
Q 18.109375 37.203125 18.109375 27.296875 
Q 18.109375 17.390625 22.1875 11.75 
Q 26.265625 6.109375 33.40625 6.109375 
Q 40.53125 6.109375 44.609375 11.75 
Q 48.6875 17.390625 48.6875 27.296875 
z
" id="DejaVuSans-112"/>
       <path d="M 41.109375 46.296875 
Q 39.59375 47.171875 37.8125 47.578125 
Q 36.03125 48 33.890625 48 
Q 26.265625 48 22.1875 43.046875 
Q 18.109375 38.09375 18.109375 28.8125 
L 18.109375 0 
L 9.078125 0 
L 9.078125 54.6875 
L 18.109375 54.6875 
L 18.109375 46.1875 
Q 20.953125 51.171875 25.484375 53.578125 
Q 30.03125 56 36.53125 56 
Q 37.453125 56 38.578125 55.875 
Q 39.703125 55.765625 41.0625 55.515625 
z
" id="DejaVuSans-114"/>
       <path d="M 30.609375 48.390625 
Q 23.390625 48.390625 19.1875 42.75 
Q 14.984375 37.109375 14.984375 27.296875 
Q 14.984375 17.484375 19.15625 11.84375 
Q 23.34375 6.203125 30.609375 6.203125 
Q 37.796875 6.203125 41.984375 11.859375 
Q 46.1875 17.53125 46.1875 27.296875 
Q 46.1875 37.015625 41.984375 42.703125 
Q 37.796875 48.390625 30.609375 48.390625 
z
M 30.609375 56 
Q 42.328125 56 49.015625 48.375 
Q 55.71875 40.765625 55.71875 27.296875 
Q 55.71875 13.875 49.015625 6.21875 
Q 42.328125 -1.421875 30.609375 -1.421875 
Q 18.84375 -1.421875 12.171875 6.21875 
Q 5.515625 13.875 5.515625 27.296875 
Q 5.515625 40.765625 12.171875 48.375 
Q 18.84375 56 30.609375 56 
z
" id="DejaVuSans-111"/>
       <path d="M 48.6875 27.296875 
Q 48.6875 37.203125 44.609375 42.84375 
Q 40.53125 48.484375 33.40625 48.484375 
Q 26.265625 48.484375 22.1875 42.84375 
Q 18.109375 37.203125 18.109375 27.296875 
Q 18.109375 17.390625 22.1875 11.75 
Q 26.265625 6.109375 33.40625 6.109375 
Q 40.53125 6.109375 44.609375 11.75 
Q 48.6875 17.390625 48.6875 27.296875 
z
M 18.109375 46.390625 
Q 20.953125 51.265625 25.265625 53.625 
Q 29.59375 56 35.59375 56 
Q 45.5625 56 51.78125 48.09375 
Q 58.015625 40.1875 58.015625 27.296875 
Q 58.015625 14.40625 51.78125 6.484375 
Q 45.5625 -1.421875 35.59375 -1.421875 
Q 29.59375 -1.421875 25.265625 0.953125 
Q 20.953125 3.328125 18.109375 8.203125 
L 18.109375 0 
L 9.078125 0 
L 9.078125 75.984375 
L 18.109375 75.984375 
z
" id="DejaVuSans-98"/>
       <path d="M 56.203125 29.59375 
L 56.203125 25.203125 
L 14.890625 25.203125 
Q 15.484375 15.921875 20.484375 11.0625 
Q 25.484375 6.203125 34.421875 6.203125 
Q 39.59375 6.203125 44.453125 7.46875 
Q 49.3125 8.734375 54.109375 11.28125 
L 54.109375 2.78125 
Q 49.265625 0.734375 44.1875 -0.34375 
Q 39.109375 -1.421875 33.890625 -1.421875 
Q 20.796875 -1.421875 13.15625 6.1875 
Q 5.515625 13.8125 5.515625 26.8125 
Q 5.515625 40.234375 12.765625 48.109375 
Q 20.015625 56 32.328125 56 
Q 43.359375 56 49.78125 48.890625 
Q 56.203125 41.796875 56.203125 29.59375 
z
M 47.21875 32.234375 
Q 47.125 39.59375 43.09375 43.984375 
Q 39.0625 48.390625 32.421875 48.390625 
Q 24.90625 48.390625 20.390625 44.140625 
Q 15.875 39.890625 15.1875 32.171875 
z
" id="DejaVuSans-101"/>
      </defs>
      <use transform="translate(0 0.584375)" xlink:href="#DejaVuSans-Oblique-117"/>
      <use transform="translate(67.845052 38.865625)scale(0.7)" xlink:href="#Cmsy10-48"/>
      <use transform="translate(63.378906 -26.759375)scale(0.7)" xlink:href="#DejaVuSans-Oblique-120"/>
      <use transform="translate(107.539062 0.584375)" xlink:href="#DejaVuSans-44"/>
      <use transform="translate(139.326172 0.584375)" xlink:href="#DejaVuSans-32"/>
      <use transform="translate(171.113281 0.584375)" xlink:href="#DejaVuSans-112"/>
      <use transform="translate(234.589844 0.584375)" xlink:href="#DejaVuSans-114"/>
      <use transform="translate(275.703125 0.584375)" xlink:href="#DejaVuSans-111"/>
      <use transform="translate(336.884766 0.584375)" xlink:href="#DejaVuSans-98"/>
      <use transform="translate(400.361328 0.584375)" xlink:href="#DejaVuSans-101"/>
      <use transform="translate(461.884766 0.584375)" xlink:href="#DejaVuSans-32"/>
      <use transform="translate(493.671875 0.584375)" xlink:href="#DejaVuSans-49"/>
     </g>
    </g>
    <g id="line2d_19">
     <path d="M 301.445312 122.72 
L 321.445312 122.72 
" style="fill:none;stroke:#ff7f0e;stroke-linecap:square;stroke-width:1.5;"/>
    </g>
    <g id="line2d_20"/>
    <g id="text_18">
     <!-- $u_x^\prime$, probe 2 -->
     <g transform="translate(329.445312 126.22)scale(0.1 -0.1)">
      <use transform="translate(0 0.584375)" xlink:href="#DejaVuSans-Oblique-117"/>
      <use transform="translate(67.845052 38.865625)scale(0.7)" xlink:href="#Cmsy10-48"/>
      <use transform="translate(63.378906 -26.759375)scale(0.7)" xlink:href="#DejaVuSans-Oblique-120"/>
      <use transform="translate(107.539062 0.584375)" xlink:href="#DejaVuSans-44"/>
      <use transform="translate(139.326172 0.584375)" xlink:href="#DejaVuSans-32"/>
      <use transform="translate(171.113281 0.584375)" xlink:href="#DejaVuSans-112"/>
      <use transform="translate(234.589844 0.584375)" xlink:href="#DejaVuSans-114"/>
      <use transform="translate(275.703125 0.584375)" xlink:href="#DejaVuSans-111"/>
      <use transform="translate(336.884766 0.584375)" xlink:href="#DejaVuSans-98"/>
      <use transform="translate(400.361328 0.584375)" xlink:href="#DejaVuSans-101"/>
      <use transform="translate(461.884766 0.584375)" xlink:href="#DejaVuSans-32"/>
      <use transform="translate(493.671875 0.584375)" xlink:href="#DejaVuSans-50"/>
     </g>
    </g>
   </g>
  </g>
 </g>
 <defs>
  <clipPath id="p0f3ee03576">
   <rect height="217.44" width="334.8" x="59.445313" y="7.2"/>
  </clipPath>
 </defs>
</svg>
