<?xml version="1.0" encoding="utf-8" standalone="no"?>
<!DOCTYPE svg PUBLIC "-//W3C//DTD SVG 1.1//EN"
  "http://www.w3.org/Graphics/SVG/1.1/DTD/svg11.dtd">
<!-- Created with matplotlib (https://matplotlib.org/) -->
<svg height="262.19625pt" version="1.1" viewBox="0 0 393.378125 262.19625" width="393.378125pt" xmlns="http://www.w3.org/2000/svg" xmlns:xlink="http://www.w3.org/1999/xlink">
 <metadata>
  <rdf:RDF xmlns:cc="http://creativecommons.org/ns#" xmlns:dc="http://purl.org/dc/elements/1.1/" xmlns:rdf="http://www.w3.org/1999/02/22-rdf-syntax-ns#">
   <cc:Work>
    <dc:type rdf:resource="http://purl.org/dc/dcmitype/StillImage"/>
    <dc:date>2021-12-08T10:31:21.814806</dc:date>
    <dc:format>image/svg+xml</dc:format>
    <dc:creator>
     <cc:Agent>
      <dc:title>Matplotlib v3.3.3, https://matplotlib.org/</dc:title>
     </cc:Agent>
    </dc:creator>
   </cc:Work>
  </rdf:RDF>
 </metadata>
 <defs>
  <style type="text/css">*{stroke-linecap:butt;stroke-linejoin:round;}</style>
 </defs>
 <g id="figure_1">
  <g id="patch_1">
   <path d="M 0 262.19625 
L 393.378125 262.19625 
L 393.378125 0 
L 0 0 
z
" style="fill:none;"/>
  </g>
  <g id="axes_1">
   <g id="patch_2">
    <path d="M 51.378125 224.64 
L 386.178125 224.64 
L 386.178125 7.2 
L 51.378125 7.2 
z
" style="fill:#ffffff;"/>
   </g>
   <g id="matplotlib.axis_1">
    <g id="xtick_1">
     <g id="line2d_1">
      <defs>
       <path d="M 0 0 
L 0 3.5 
" id="m0a86e4fa4f" style="stroke:#000000;stroke-width:0.8;"/>
      </defs>
      <g>
       <use style="stroke:#000000;stroke-width:0.8;" x="66.596307" xlink:href="#m0a86e4fa4f" y="224.64"/>
      </g>
     </g>
     <g id="text_1">
      <!-- 0 -->
      <g transform="translate(63.415057 239.238437)scale(0.1 -0.1)">
       <defs>
        <path d="M 31.78125 66.40625 
Q 24.171875 66.40625 20.328125 58.90625 
Q 16.5 51.421875 16.5 36.375 
Q 16.5 21.390625 20.328125 13.890625 
Q 24.171875 6.390625 31.78125 6.390625 
Q 39.453125 6.390625 43.28125 13.890625 
Q 47.125 21.390625 47.125 36.375 
Q 47.125 51.421875 43.28125 58.90625 
Q 39.453125 66.40625 31.78125 66.40625 
z
M 31.78125 74.21875 
Q 44.046875 74.21875 50.515625 64.515625 
Q 56.984375 54.828125 56.984375 36.375 
Q 56.984375 17.96875 50.515625 8.265625 
Q 44.046875 -1.421875 31.78125 -1.421875 
Q 19.53125 -1.421875 13.0625 8.265625 
Q 6.59375 17.96875 6.59375 36.375 
Q 6.59375 54.828125 13.0625 64.515625 
Q 19.53125 74.21875 31.78125 74.21875 
z
" id="DejaVuSans-48"/>
       </defs>
       <use xlink:href="#DejaVuSans-48"/>
      </g>
     </g>
    </g>
    <g id="xtick_2">
     <g id="line2d_2">
      <g>
       <use style="stroke:#000000;stroke-width:0.8;" x="127.529968" xlink:href="#m0a86e4fa4f" y="224.64"/>
      </g>
     </g>
     <g id="text_2">
      <!-- 200 -->
      <g transform="translate(117.986218 239.238437)scale(0.1 -0.1)">
       <defs>
        <path d="M 19.1875 8.296875 
L 53.609375 8.296875 
L 53.609375 0 
L 7.328125 0 
L 7.328125 8.296875 
Q 12.9375 14.109375 22.625 23.890625 
Q 32.328125 33.6875 34.8125 36.53125 
Q 39.546875 41.84375 41.421875 45.53125 
Q 43.3125 49.21875 43.3125 52.78125 
Q 43.3125 58.59375 39.234375 62.25 
Q 35.15625 65.921875 28.609375 65.921875 
Q 23.96875 65.921875 18.8125 64.3125 
Q 13.671875 62.703125 7.8125 59.421875 
L 7.8125 69.390625 
Q 13.765625 71.78125 18.9375 73 
Q 24.125 74.21875 28.421875 74.21875 
Q 39.75 74.21875 46.484375 68.546875 
Q 53.21875 62.890625 53.21875 53.421875 
Q 53.21875 48.921875 51.53125 44.890625 
Q 49.859375 40.875 45.40625 35.40625 
Q 44.1875 33.984375 37.640625 27.21875 
Q 31.109375 20.453125 19.1875 8.296875 
z
" id="DejaVuSans-50"/>
       </defs>
       <use xlink:href="#DejaVuSans-50"/>
       <use x="63.623047" xlink:href="#DejaVuSans-48"/>
       <use x="127.246094" xlink:href="#DejaVuSans-48"/>
      </g>
     </g>
    </g>
    <g id="xtick_3">
     <g id="line2d_3">
      <g>
       <use style="stroke:#000000;stroke-width:0.8;" x="188.463629" xlink:href="#m0a86e4fa4f" y="224.64"/>
      </g>
     </g>
     <g id="text_3">
      <!-- 400 -->
      <g transform="translate(178.919879 239.238437)scale(0.1 -0.1)">
       <defs>
        <path d="M 37.796875 64.3125 
L 12.890625 25.390625 
L 37.796875 25.390625 
z
M 35.203125 72.90625 
L 47.609375 72.90625 
L 47.609375 25.390625 
L 58.015625 25.390625 
L 58.015625 17.1875 
L 47.609375 17.1875 
L 47.609375 0 
L 37.796875 0 
L 37.796875 17.1875 
L 4.890625 17.1875 
L 4.890625 26.703125 
z
" id="DejaVuSans-52"/>
       </defs>
       <use xlink:href="#DejaVuSans-52"/>
       <use x="63.623047" xlink:href="#DejaVuSans-48"/>
       <use x="127.246094" xlink:href="#DejaVuSans-48"/>
      </g>
     </g>
    </g>
    <g id="xtick_4">
     <g id="line2d_4">
      <g>
       <use style="stroke:#000000;stroke-width:0.8;" x="249.39729" xlink:href="#m0a86e4fa4f" y="224.64"/>
      </g>
     </g>
     <g id="text_4">
      <!-- 600 -->
      <g transform="translate(239.85354 239.238437)scale(0.1 -0.1)">
       <defs>
        <path d="M 33.015625 40.375 
Q 26.375 40.375 22.484375 35.828125 
Q 18.609375 31.296875 18.609375 23.390625 
Q 18.609375 15.53125 22.484375 10.953125 
Q 26.375 6.390625 33.015625 6.390625 
Q 39.65625 6.390625 43.53125 10.953125 
Q 47.40625 15.53125 47.40625 23.390625 
Q 47.40625 31.296875 43.53125 35.828125 
Q 39.65625 40.375 33.015625 40.375 
z
M 52.59375 71.296875 
L 52.59375 62.3125 
Q 48.875 64.0625 45.09375 64.984375 
Q 41.3125 65.921875 37.59375 65.921875 
Q 27.828125 65.921875 22.671875 59.328125 
Q 17.53125 52.734375 16.796875 39.40625 
Q 19.671875 43.65625 24.015625 45.921875 
Q 28.375 48.1875 33.59375 48.1875 
Q 44.578125 48.1875 50.953125 41.515625 
Q 57.328125 34.859375 57.328125 23.390625 
Q 57.328125 12.15625 50.6875 5.359375 
Q 44.046875 -1.421875 33.015625 -1.421875 
Q 20.359375 -1.421875 13.671875 8.265625 
Q 6.984375 17.96875 6.984375 36.375 
Q 6.984375 53.65625 15.1875 63.9375 
Q 23.390625 74.21875 37.203125 74.21875 
Q 40.921875 74.21875 44.703125 73.484375 
Q 48.484375 72.75 52.59375 71.296875 
z
" id="DejaVuSans-54"/>
       </defs>
       <use xlink:href="#DejaVuSans-54"/>
       <use x="63.623047" xlink:href="#DejaVuSans-48"/>
       <use x="127.246094" xlink:href="#DejaVuSans-48"/>
      </g>
     </g>
    </g>
    <g id="xtick_5">
     <g id="line2d_5">
      <g>
       <use style="stroke:#000000;stroke-width:0.8;" x="310.330951" xlink:href="#m0a86e4fa4f" y="224.64"/>
      </g>
     </g>
     <g id="text_5">
      <!-- 800 -->
      <g transform="translate(300.787201 239.238437)scale(0.1 -0.1)">
       <defs>
        <path d="M 31.78125 34.625 
Q 24.75 34.625 20.71875 30.859375 
Q 16.703125 27.09375 16.703125 20.515625 
Q 16.703125 13.921875 20.71875 10.15625 
Q 24.75 6.390625 31.78125 6.390625 
Q 38.8125 6.390625 42.859375 10.171875 
Q 46.921875 13.96875 46.921875 20.515625 
Q 46.921875 27.09375 42.890625 30.859375 
Q 38.875 34.625 31.78125 34.625 
z
M 21.921875 38.8125 
Q 15.578125 40.375 12.03125 44.71875 
Q 8.5 49.078125 8.5 55.328125 
Q 8.5 64.0625 14.71875 69.140625 
Q 20.953125 74.21875 31.78125 74.21875 
Q 42.671875 74.21875 48.875 69.140625 
Q 55.078125 64.0625 55.078125 55.328125 
Q 55.078125 49.078125 51.53125 44.71875 
Q 48 40.375 41.703125 38.8125 
Q 48.828125 37.15625 52.796875 32.3125 
Q 56.78125 27.484375 56.78125 20.515625 
Q 56.78125 9.90625 50.3125 4.234375 
Q 43.84375 -1.421875 31.78125 -1.421875 
Q 19.734375 -1.421875 13.25 4.234375 
Q 6.78125 9.90625 6.78125 20.515625 
Q 6.78125 27.484375 10.78125 32.3125 
Q 14.796875 37.15625 21.921875 38.8125 
z
M 18.3125 54.390625 
Q 18.3125 48.734375 21.84375 45.5625 
Q 25.390625 42.390625 31.78125 42.390625 
Q 38.140625 42.390625 41.71875 45.5625 
Q 45.3125 48.734375 45.3125 54.390625 
Q 45.3125 60.0625 41.71875 63.234375 
Q 38.140625 66.40625 31.78125 66.40625 
Q 25.390625 66.40625 21.84375 63.234375 
Q 18.3125 60.0625 18.3125 54.390625 
z
" id="DejaVuSans-56"/>
       </defs>
       <use xlink:href="#DejaVuSans-56"/>
       <use x="63.623047" xlink:href="#DejaVuSans-48"/>
       <use x="127.246094" xlink:href="#DejaVuSans-48"/>
      </g>
     </g>
    </g>
    <g id="xtick_6">
     <g id="line2d_6">
      <g>
       <use style="stroke:#000000;stroke-width:0.8;" x="371.264611" xlink:href="#m0a86e4fa4f" y="224.64"/>
      </g>
     </g>
     <g id="text_6">
      <!-- 1000 -->
      <g transform="translate(358.539611 239.238437)scale(0.1 -0.1)">
       <defs>
        <path d="M 12.40625 8.296875 
L 28.515625 8.296875 
L 28.515625 63.921875 
L 10.984375 60.40625 
L 10.984375 69.390625 
L 28.421875 72.90625 
L 38.28125 72.90625 
L 38.28125 8.296875 
L 54.390625 8.296875 
L 54.390625 0 
L 12.40625 0 
z
" id="DejaVuSans-49"/>
       </defs>
       <use xlink:href="#DejaVuSans-49"/>
       <use x="63.623047" xlink:href="#DejaVuSans-48"/>
       <use x="127.246094" xlink:href="#DejaVuSans-48"/>
       <use x="190.869141" xlink:href="#DejaVuSans-48"/>
      </g>
     </g>
    </g>
    <g id="text_7">
     <!-- epoch -->
     <g transform="translate(203.55 252.916562)scale(0.1 -0.1)">
      <defs>
       <path d="M 56.203125 29.59375 
L 56.203125 25.203125 
L 14.890625 25.203125 
Q 15.484375 15.921875 20.484375 11.0625 
Q 25.484375 6.203125 34.421875 6.203125 
Q 39.59375 6.203125 44.453125 7.46875 
Q 49.3125 8.734375 54.109375 11.28125 
L 54.109375 2.78125 
Q 49.265625 0.734375 44.1875 -0.34375 
Q 39.109375 -1.421875 33.890625 -1.421875 
Q 20.796875 -1.421875 13.15625 6.1875 
Q 5.515625 13.8125 5.515625 26.8125 
Q 5.515625 40.234375 12.765625 48.109375 
Q 20.015625 56 32.328125 56 
Q 43.359375 56 49.78125 48.890625 
Q 56.203125 41.796875 56.203125 29.59375 
z
M 47.21875 32.234375 
Q 47.125 39.59375 43.09375 43.984375 
Q 39.0625 48.390625 32.421875 48.390625 
Q 24.90625 48.390625 20.390625 44.140625 
Q 15.875 39.890625 15.1875 32.171875 
z
" id="DejaVuSans-101"/>
       <path d="M 18.109375 8.203125 
L 18.109375 -20.796875 
L 9.078125 -20.796875 
L 9.078125 54.6875 
L 18.109375 54.6875 
L 18.109375 46.390625 
Q 20.953125 51.265625 25.265625 53.625 
Q 29.59375 56 35.59375 56 
Q 45.5625 56 51.78125 48.09375 
Q 58.015625 40.1875 58.015625 27.296875 
Q 58.015625 14.40625 51.78125 6.484375 
Q 45.5625 -1.421875 35.59375 -1.421875 
Q 29.59375 -1.421875 25.265625 0.953125 
Q 20.953125 3.328125 18.109375 8.203125 
z
M 48.6875 27.296875 
Q 48.6875 37.203125 44.609375 42.84375 
Q 40.53125 48.484375 33.40625 48.484375 
Q 26.265625 48.484375 22.1875 42.84375 
Q 18.109375 37.203125 18.109375 27.296875 
Q 18.109375 17.390625 22.1875 11.75 
Q 26.265625 6.109375 33.40625 6.109375 
Q 40.53125 6.109375 44.609375 11.75 
Q 48.6875 17.390625 48.6875 27.296875 
z
" id="DejaVuSans-112"/>
       <path d="M 30.609375 48.390625 
Q 23.390625 48.390625 19.1875 42.75 
Q 14.984375 37.109375 14.984375 27.296875 
Q 14.984375 17.484375 19.15625 11.84375 
Q 23.34375 6.203125 30.609375 6.203125 
Q 37.796875 6.203125 41.984375 11.859375 
Q 46.1875 17.53125 46.1875 27.296875 
Q 46.1875 37.015625 41.984375 42.703125 
Q 37.796875 48.390625 30.609375 48.390625 
z
M 30.609375 56 
Q 42.328125 56 49.015625 48.375 
Q 55.71875 40.765625 55.71875 27.296875 
Q 55.71875 13.875 49.015625 6.21875 
Q 42.328125 -1.421875 30.609375 -1.421875 
Q 18.84375 -1.421875 12.171875 6.21875 
Q 5.515625 13.875 5.515625 27.296875 
Q 5.515625 40.765625 12.171875 48.375 
Q 18.84375 56 30.609375 56 
z
" id="DejaVuSans-111"/>
       <path d="M 48.78125 52.59375 
L 48.78125 44.1875 
Q 44.96875 46.296875 41.140625 47.34375 
Q 37.3125 48.390625 33.40625 48.390625 
Q 24.65625 48.390625 19.8125 42.84375 
Q 14.984375 37.3125 14.984375 27.296875 
Q 14.984375 17.28125 19.8125 11.734375 
Q 24.65625 6.203125 33.40625 6.203125 
Q 37.3125 6.203125 41.140625 7.25 
Q 44.96875 8.296875 48.78125 10.40625 
L 48.78125 2.09375 
Q 45.015625 0.34375 40.984375 -0.53125 
Q 36.96875 -1.421875 32.421875 -1.421875 
Q 20.0625 -1.421875 12.78125 6.34375 
Q 5.515625 14.109375 5.515625 27.296875 
Q 5.515625 40.671875 12.859375 48.328125 
Q 20.21875 56 33.015625 56 
Q 37.15625 56 41.109375 55.140625 
Q 45.0625 54.296875 48.78125 52.59375 
z
" id="DejaVuSans-99"/>
       <path d="M 54.890625 33.015625 
L 54.890625 0 
L 45.90625 0 
L 45.90625 32.71875 
Q 45.90625 40.484375 42.875 44.328125 
Q 39.84375 48.1875 33.796875 48.1875 
Q 26.515625 48.1875 22.3125 43.546875 
Q 18.109375 38.921875 18.109375 30.90625 
L 18.109375 0 
L 9.078125 0 
L 9.078125 75.984375 
L 18.109375 75.984375 
L 18.109375 46.1875 
Q 21.34375 51.125 25.703125 53.5625 
Q 30.078125 56 35.796875 56 
Q 45.21875 56 50.046875 50.171875 
Q 54.890625 44.34375 54.890625 33.015625 
z
" id="DejaVuSans-104"/>
      </defs>
      <use xlink:href="#DejaVuSans-101"/>
      <use x="61.523438" xlink:href="#DejaVuSans-112"/>
      <use x="125" xlink:href="#DejaVuSans-111"/>
      <use x="186.181641" xlink:href="#DejaVuSans-99"/>
      <use x="241.162109" xlink:href="#DejaVuSans-104"/>
     </g>
    </g>
   </g>
   <g id="matplotlib.axis_2">
    <g id="ytick_1">
     <g id="line2d_7">
      <defs>
       <path d="M 0 0 
L -3.5 0 
" id="mcff643bf05" style="stroke:#000000;stroke-width:0.8;"/>
      </defs>
      <g>
       <use style="stroke:#000000;stroke-width:0.8;" x="51.378125" xlink:href="#mcff643bf05" y="200.531432"/>
      </g>
     </g>
     <g id="text_8">
      <!-- $\mathdefault{10^{-3}}$ -->
      <g transform="translate(20.878125 204.330651)scale(0.1 -0.1)">
       <defs>
        <path d="M 10.59375 35.5 
L 73.1875 35.5 
L 73.1875 27.203125 
L 10.59375 27.203125 
z
" id="DejaVuSans-8722"/>
        <path d="M 40.578125 39.3125 
Q 47.65625 37.796875 51.625 33 
Q 55.609375 28.21875 55.609375 21.1875 
Q 55.609375 10.40625 48.1875 4.484375 
Q 40.765625 -1.421875 27.09375 -1.421875 
Q 22.515625 -1.421875 17.65625 -0.515625 
Q 12.796875 0.390625 7.625 2.203125 
L 7.625 11.71875 
Q 11.71875 9.328125 16.59375 8.109375 
Q 21.484375 6.890625 26.8125 6.890625 
Q 36.078125 6.890625 40.9375 10.546875 
Q 45.796875 14.203125 45.796875 21.1875 
Q 45.796875 27.640625 41.28125 31.265625 
Q 36.765625 34.90625 28.71875 34.90625 
L 20.21875 34.90625 
L 20.21875 43.015625 
L 29.109375 43.015625 
Q 36.375 43.015625 40.234375 45.921875 
Q 44.09375 48.828125 44.09375 54.296875 
Q 44.09375 59.90625 40.109375 62.90625 
Q 36.140625 65.921875 28.71875 65.921875 
Q 24.65625 65.921875 20.015625 65.03125 
Q 15.375 64.15625 9.8125 62.3125 
L 9.8125 71.09375 
Q 15.4375 72.65625 20.34375 73.4375 
Q 25.25 74.21875 29.59375 74.21875 
Q 40.828125 74.21875 47.359375 69.109375 
Q 53.90625 64.015625 53.90625 55.328125 
Q 53.90625 49.265625 50.4375 45.09375 
Q 46.96875 40.921875 40.578125 39.3125 
z
" id="DejaVuSans-51"/>
       </defs>
       <use transform="translate(0 0.765625)" xlink:href="#DejaVuSans-49"/>
       <use transform="translate(63.623047 0.765625)" xlink:href="#DejaVuSans-48"/>
       <use transform="translate(128.203125 39.046875)scale(0.7)" xlink:href="#DejaVuSans-8722"/>
       <use transform="translate(186.855469 39.046875)scale(0.7)" xlink:href="#DejaVuSans-51"/>
      </g>
     </g>
    </g>
    <g id="ytick_2">
     <g id="line2d_8">
      <g>
       <use style="stroke:#000000;stroke-width:0.8;" x="51.378125" xlink:href="#mcff643bf05" y="151.348106"/>
      </g>
     </g>
     <g id="text_9">
      <!-- $\mathdefault{10^{-2}}$ -->
      <g transform="translate(20.878125 155.147325)scale(0.1 -0.1)">
       <use transform="translate(0 0.765625)" xlink:href="#DejaVuSans-49"/>
       <use transform="translate(63.623047 0.765625)" xlink:href="#DejaVuSans-48"/>
       <use transform="translate(128.203125 39.046875)scale(0.7)" xlink:href="#DejaVuSans-8722"/>
       <use transform="translate(186.855469 39.046875)scale(0.7)" xlink:href="#DejaVuSans-50"/>
      </g>
     </g>
    </g>
    <g id="ytick_3">
     <g id="line2d_9">
      <g>
       <use style="stroke:#000000;stroke-width:0.8;" x="51.378125" xlink:href="#mcff643bf05" y="102.16478"/>
      </g>
     </g>
     <g id="text_10">
      <!-- $\mathdefault{10^{-1}}$ -->
      <g transform="translate(20.878125 105.963999)scale(0.1 -0.1)">
       <use transform="translate(0 0.684375)" xlink:href="#DejaVuSans-49"/>
       <use transform="translate(63.623047 0.684375)" xlink:href="#DejaVuSans-48"/>
       <use transform="translate(128.203125 38.965625)scale(0.7)" xlink:href="#DejaVuSans-8722"/>
       <use transform="translate(186.855469 38.965625)scale(0.7)" xlink:href="#DejaVuSans-49"/>
      </g>
     </g>
    </g>
    <g id="ytick_4">
     <g id="line2d_10">
      <g>
       <use style="stroke:#000000;stroke-width:0.8;" x="51.378125" xlink:href="#mcff643bf05" y="52.981454"/>
      </g>
     </g>
     <g id="text_11">
      <!-- $\mathdefault{10^{0}}$ -->
      <g transform="translate(26.778125 56.780672)scale(0.1 -0.1)">
       <use transform="translate(0 0.765625)" xlink:href="#DejaVuSans-49"/>
       <use transform="translate(63.623047 0.765625)" xlink:href="#DejaVuSans-48"/>
       <use transform="translate(128.203125 39.046875)scale(0.7)" xlink:href="#DejaVuSans-48"/>
      </g>
     </g>
    </g>
    <g id="ytick_5">
     <g id="line2d_11">
      <defs>
       <path d="M 0 0 
L -2 0 
" id="mbe603ecd5a" style="stroke:#000000;stroke-width:0.6;"/>
      </defs>
      <g>
       <use style="stroke:#000000;stroke-width:0.6;" x="51.378125" xlink:href="#mbe603ecd5a" y="220.103446"/>
      </g>
     </g>
    </g>
    <g id="ytick_6">
     <g id="line2d_12">
      <g>
       <use style="stroke:#000000;stroke-width:0.6;" x="51.378125" xlink:href="#mbe603ecd5a" y="215.337089"/>
      </g>
     </g>
    </g>
    <g id="ytick_7">
     <g id="line2d_13">
      <g>
       <use style="stroke:#000000;stroke-width:0.6;" x="51.378125" xlink:href="#mbe603ecd5a" y="211.442692"/>
      </g>
     </g>
    </g>
    <g id="ytick_8">
     <g id="line2d_14">
      <g>
       <use style="stroke:#000000;stroke-width:0.6;" x="51.378125" xlink:href="#mbe603ecd5a" y="208.150026"/>
      </g>
     </g>
    </g>
    <g id="ytick_9">
     <g id="line2d_15">
      <g>
       <use style="stroke:#000000;stroke-width:0.6;" x="51.378125" xlink:href="#mbe603ecd5a" y="205.297789"/>
      </g>
     </g>
    </g>
    <g id="ytick_10">
     <g id="line2d_16">
      <g>
       <use style="stroke:#000000;stroke-width:0.6;" x="51.378125" xlink:href="#mbe603ecd5a" y="202.781938"/>
      </g>
     </g>
    </g>
    <g id="ytick_11">
     <g id="line2d_17">
      <g>
       <use style="stroke:#000000;stroke-width:0.6;" x="51.378125" xlink:href="#mbe603ecd5a" y="185.725776"/>
      </g>
     </g>
    </g>
    <g id="ytick_12">
     <g id="line2d_18">
      <g>
       <use style="stroke:#000000;stroke-width:0.6;" x="51.378125" xlink:href="#mbe603ecd5a" y="177.065022"/>
      </g>
     </g>
    </g>
    <g id="ytick_13">
     <g id="line2d_19">
      <g>
       <use style="stroke:#000000;stroke-width:0.6;" x="51.378125" xlink:href="#mbe603ecd5a" y="170.920119"/>
      </g>
     </g>
    </g>
    <g id="ytick_14">
     <g id="line2d_20">
      <g>
       <use style="stroke:#000000;stroke-width:0.6;" x="51.378125" xlink:href="#mbe603ecd5a" y="166.153763"/>
      </g>
     </g>
    </g>
    <g id="ytick_15">
     <g id="line2d_21">
      <g>
       <use style="stroke:#000000;stroke-width:0.6;" x="51.378125" xlink:href="#mbe603ecd5a" y="162.259366"/>
      </g>
     </g>
    </g>
    <g id="ytick_16">
     <g id="line2d_22">
      <g>
       <use style="stroke:#000000;stroke-width:0.6;" x="51.378125" xlink:href="#mbe603ecd5a" y="158.9667"/>
      </g>
     </g>
    </g>
    <g id="ytick_17">
     <g id="line2d_23">
      <g>
       <use style="stroke:#000000;stroke-width:0.6;" x="51.378125" xlink:href="#mbe603ecd5a" y="156.114463"/>
      </g>
     </g>
    </g>
    <g id="ytick_18">
     <g id="line2d_24">
      <g>
       <use style="stroke:#000000;stroke-width:0.6;" x="51.378125" xlink:href="#mbe603ecd5a" y="153.598612"/>
      </g>
     </g>
    </g>
    <g id="ytick_19">
     <g id="line2d_25">
      <g>
       <use style="stroke:#000000;stroke-width:0.6;" x="51.378125" xlink:href="#mbe603ecd5a" y="136.54245"/>
      </g>
     </g>
    </g>
    <g id="ytick_20">
     <g id="line2d_26">
      <g>
       <use style="stroke:#000000;stroke-width:0.6;" x="51.378125" xlink:href="#mbe603ecd5a" y="127.881696"/>
      </g>
     </g>
    </g>
    <g id="ytick_21">
     <g id="line2d_27">
      <g>
       <use style="stroke:#000000;stroke-width:0.6;" x="51.378125" xlink:href="#mbe603ecd5a" y="121.736793"/>
      </g>
     </g>
    </g>
    <g id="ytick_22">
     <g id="line2d_28">
      <g>
       <use style="stroke:#000000;stroke-width:0.6;" x="51.378125" xlink:href="#mbe603ecd5a" y="116.970436"/>
      </g>
     </g>
    </g>
    <g id="ytick_23">
     <g id="line2d_29">
      <g>
       <use style="stroke:#000000;stroke-width:0.6;" x="51.378125" xlink:href="#mbe603ecd5a" y="113.076039"/>
      </g>
     </g>
    </g>
    <g id="ytick_24">
     <g id="line2d_30">
      <g>
       <use style="stroke:#000000;stroke-width:0.6;" x="51.378125" xlink:href="#mbe603ecd5a" y="109.783374"/>
      </g>
     </g>
    </g>
    <g id="ytick_25">
     <g id="line2d_31">
      <g>
       <use style="stroke:#000000;stroke-width:0.6;" x="51.378125" xlink:href="#mbe603ecd5a" y="106.931137"/>
      </g>
     </g>
    </g>
    <g id="ytick_26">
     <g id="line2d_32">
      <g>
       <use style="stroke:#000000;stroke-width:0.6;" x="51.378125" xlink:href="#mbe603ecd5a" y="104.415285"/>
      </g>
     </g>
    </g>
    <g id="ytick_27">
     <g id="line2d_33">
      <g>
       <use style="stroke:#000000;stroke-width:0.6;" x="51.378125" xlink:href="#mbe603ecd5a" y="87.359123"/>
      </g>
     </g>
    </g>
    <g id="ytick_28">
     <g id="line2d_34">
      <g>
       <use style="stroke:#000000;stroke-width:0.6;" x="51.378125" xlink:href="#mbe603ecd5a" y="78.69837"/>
      </g>
     </g>
    </g>
    <g id="ytick_29">
     <g id="line2d_35">
      <g>
       <use style="stroke:#000000;stroke-width:0.6;" x="51.378125" xlink:href="#mbe603ecd5a" y="72.553467"/>
      </g>
     </g>
    </g>
    <g id="ytick_30">
     <g id="line2d_36">
      <g>
       <use style="stroke:#000000;stroke-width:0.6;" x="51.378125" xlink:href="#mbe603ecd5a" y="67.78711"/>
      </g>
     </g>
    </g>
    <g id="ytick_31">
     <g id="line2d_37">
      <g>
       <use style="stroke:#000000;stroke-width:0.6;" x="51.378125" xlink:href="#mbe603ecd5a" y="63.892713"/>
      </g>
     </g>
    </g>
    <g id="ytick_32">
     <g id="line2d_38">
      <g>
       <use style="stroke:#000000;stroke-width:0.6;" x="51.378125" xlink:href="#mbe603ecd5a" y="60.600047"/>
      </g>
     </g>
    </g>
    <g id="ytick_33">
     <g id="line2d_39">
      <g>
       <use style="stroke:#000000;stroke-width:0.6;" x="51.378125" xlink:href="#mbe603ecd5a" y="57.74781"/>
      </g>
     </g>
    </g>
    <g id="ytick_34">
     <g id="line2d_40">
      <g>
       <use style="stroke:#000000;stroke-width:0.6;" x="51.378125" xlink:href="#mbe603ecd5a" y="55.231959"/>
      </g>
     </g>
    </g>
    <g id="ytick_35">
     <g id="line2d_41">
      <g>
       <use style="stroke:#000000;stroke-width:0.6;" x="51.378125" xlink:href="#mbe603ecd5a" y="38.175797"/>
      </g>
     </g>
    </g>
    <g id="ytick_36">
     <g id="line2d_42">
      <g>
       <use style="stroke:#000000;stroke-width:0.6;" x="51.378125" xlink:href="#mbe603ecd5a" y="29.515043"/>
      </g>
     </g>
    </g>
    <g id="ytick_37">
     <g id="line2d_43">
      <g>
       <use style="stroke:#000000;stroke-width:0.6;" x="51.378125" xlink:href="#mbe603ecd5a" y="23.370141"/>
      </g>
     </g>
    </g>
    <g id="ytick_38">
     <g id="line2d_44">
      <g>
       <use style="stroke:#000000;stroke-width:0.6;" x="51.378125" xlink:href="#mbe603ecd5a" y="18.603784"/>
      </g>
     </g>
    </g>
    <g id="ytick_39">
     <g id="line2d_45">
      <g>
       <use style="stroke:#000000;stroke-width:0.6;" x="51.378125" xlink:href="#mbe603ecd5a" y="14.709387"/>
      </g>
     </g>
    </g>
    <g id="ytick_40">
     <g id="line2d_46">
      <g>
       <use style="stroke:#000000;stroke-width:0.6;" x="51.378125" xlink:href="#mbe603ecd5a" y="11.416721"/>
      </g>
     </g>
    </g>
    <g id="ytick_41">
     <g id="line2d_47">
      <g>
       <use style="stroke:#000000;stroke-width:0.6;" x="51.378125" xlink:href="#mbe603ecd5a" y="8.564484"/>
      </g>
     </g>
    </g>
    <g id="text_12">
     <!-- MSE loss -->
     <g transform="translate(14.798438 137.814531)rotate(-90)scale(0.1 -0.1)">
      <defs>
       <path d="M 9.8125 72.90625 
L 24.515625 72.90625 
L 43.109375 23.296875 
L 61.8125 72.90625 
L 76.515625 72.90625 
L 76.515625 0 
L 66.890625 0 
L 66.890625 64.015625 
L 48.09375 14.015625 
L 38.1875 14.015625 
L 19.390625 64.015625 
L 19.390625 0 
L 9.8125 0 
z
" id="DejaVuSans-77"/>
       <path d="M 53.515625 70.515625 
L 53.515625 60.890625 
Q 47.90625 63.578125 42.921875 64.890625 
Q 37.9375 66.21875 33.296875 66.21875 
Q 25.25 66.21875 20.875 63.09375 
Q 16.5 59.96875 16.5 54.203125 
Q 16.5 49.359375 19.40625 46.890625 
Q 22.3125 44.4375 30.421875 42.921875 
L 36.375 41.703125 
Q 47.40625 39.59375 52.65625 34.296875 
Q 57.90625 29 57.90625 20.125 
Q 57.90625 9.515625 50.796875 4.046875 
Q 43.703125 -1.421875 29.984375 -1.421875 
Q 24.8125 -1.421875 18.96875 -0.25 
Q 13.140625 0.921875 6.890625 3.21875 
L 6.890625 13.375 
Q 12.890625 10.015625 18.65625 8.296875 
Q 24.421875 6.59375 29.984375 6.59375 
Q 38.421875 6.59375 43.015625 9.90625 
Q 47.609375 13.234375 47.609375 19.390625 
Q 47.609375 24.75 44.3125 27.78125 
Q 41.015625 30.8125 33.5 32.328125 
L 27.484375 33.5 
Q 16.453125 35.6875 11.515625 40.375 
Q 6.59375 45.0625 6.59375 53.421875 
Q 6.59375 63.09375 13.40625 68.65625 
Q 20.21875 74.21875 32.171875 74.21875 
Q 37.3125 74.21875 42.625 73.28125 
Q 47.953125 72.359375 53.515625 70.515625 
z
" id="DejaVuSans-83"/>
       <path d="M 9.8125 72.90625 
L 55.90625 72.90625 
L 55.90625 64.59375 
L 19.671875 64.59375 
L 19.671875 43.015625 
L 54.390625 43.015625 
L 54.390625 34.71875 
L 19.671875 34.71875 
L 19.671875 8.296875 
L 56.78125 8.296875 
L 56.78125 0 
L 9.8125 0 
z
" id="DejaVuSans-69"/>
       <path id="DejaVuSans-32"/>
       <path d="M 9.421875 75.984375 
L 18.40625 75.984375 
L 18.40625 0 
L 9.421875 0 
z
" id="DejaVuSans-108"/>
       <path d="M 44.28125 53.078125 
L 44.28125 44.578125 
Q 40.484375 46.53125 36.375 47.5 
Q 32.28125 48.484375 27.875 48.484375 
Q 21.1875 48.484375 17.84375 46.4375 
Q 14.5 44.390625 14.5 40.28125 
Q 14.5 37.15625 16.890625 35.375 
Q 19.28125 33.59375 26.515625 31.984375 
L 29.59375 31.296875 
Q 39.15625 29.25 43.1875 25.515625 
Q 47.21875 21.78125 47.21875 15.09375 
Q 47.21875 7.46875 41.1875 3.015625 
Q 35.15625 -1.421875 24.609375 -1.421875 
Q 20.21875 -1.421875 15.453125 -0.5625 
Q 10.6875 0.296875 5.421875 2 
L 5.421875 11.28125 
Q 10.40625 8.6875 15.234375 7.390625 
Q 20.0625 6.109375 24.8125 6.109375 
Q 31.15625 6.109375 34.5625 8.28125 
Q 37.984375 10.453125 37.984375 14.40625 
Q 37.984375 18.0625 35.515625 20.015625 
Q 33.0625 21.96875 24.703125 23.78125 
L 21.578125 24.515625 
Q 13.234375 26.265625 9.515625 29.90625 
Q 5.8125 33.546875 5.8125 39.890625 
Q 5.8125 47.609375 11.28125 51.796875 
Q 16.75 56 26.8125 56 
Q 31.78125 56 36.171875 55.265625 
Q 40.578125 54.546875 44.28125 53.078125 
z
" id="DejaVuSans-115"/>
      </defs>
      <use xlink:href="#DejaVuSans-77"/>
      <use x="86.279297" xlink:href="#DejaVuSans-83"/>
      <use x="149.755859" xlink:href="#DejaVuSans-69"/>
      <use x="212.939453" xlink:href="#DejaVuSans-32"/>
      <use x="244.726562" xlink:href="#DejaVuSans-108"/>
      <use x="272.509766" xlink:href="#DejaVuSans-111"/>
      <use x="333.691406" xlink:href="#DejaVuSans-115"/>
      <use x="385.791016" xlink:href="#DejaVuSans-115"/>
     </g>
    </g>
   </g>
   <g id="line2d_48">
    <path clip-path="url(#p6dddd58bec)" d="M 66.596307 17.083636 
L 67.81498 19.464629 
L 68.424317 21.176607 
L 69.033653 23.413711 
L 69.64299 26.54517 
L 70.252326 30.859457 
L 71.471 41.012137 
L 71.775668 41.645943 
L 72.080336 40.51606 
L 72.689673 37.081619 
L 72.994341 36.88191 
L 73.29901 37.726181 
L 74.213014 41.742911 
L 74.517683 42.476461 
L 74.822351 42.75822 
L 75.431688 42.63997 
L 75.736356 42.56821 
L 76.041024 42.613962 
L 76.650361 43.092699 
L 77.259697 43.673636 
L 77.869034 43.810275 
L 78.478371 43.95294 
L 80.001712 45.026059 
L 80.611049 45.287212 
L 81.829722 46.254136 
L 82.743727 47.059851 
L 84.876405 49.513984 
L 86.095078 51.244205 
L 89.141761 55.524924 
L 91.274439 57.58297 
L 92.493113 58.521524 
L 94.016454 59.625186 
L 95.235127 60.477153 
L 96.453801 61.333795 
L 97.063137 61.919299 
L 97.672474 62.732536 
L 98.281811 63.713829 
L 99.195815 64.880251 
L 99.500484 65.457197 
L 100.414489 67.790608 
L 100.719157 68.482147 
L 101.328494 70.636502 
L 101.93783 72.920309 
L 102.547167 75.225065 
L 102.851835 76.15429 
L 104.679845 84.207709 
L 106.203186 93.829776 
L 106.507855 94.824283 
L 106.812523 94.608115 
L 107.117191 95.31428 
L 107.726528 105.743404 
L 108.031196 103.693572 
L 108.335865 104.950142 
L 108.640533 112.040316 
L 108.945201 112.891265 
L 109.249869 110.931375 
L 109.859206 121.267427 
L 110.163874 118.01991 
L 110.468543 120.350149 
L 110.773211 127.631259 
L 111.077879 125.426423 
L 111.382548 124.473847 
L 111.687216 131.446745 
L 111.991884 132.407516 
L 112.296553 129.219985 
L 112.905889 138.226425 
L 113.210557 134.818095 
L 113.515226 136.359335 
L 113.819894 142.085273 
L 114.124562 141.352973 
L 114.429231 139.866037 
L 115.038567 147.2572 
L 115.343236 144.918648 
L 115.647904 146.159014 
L 115.952572 150.877461 
L 116.25724 150.758268 
L 116.561909 149.28084 
L 117.171245 155.254463 
L 117.475914 153.825193 
L 117.780582 153.966832 
L 118.08525 157.215595 
L 118.389919 158.129754 
L 118.694587 156.925084 
L 118.999255 158.185451 
L 119.303924 160.778079 
L 119.608592 160.615433 
L 119.91326 160.23276 
L 120.522597 163.68041 
L 120.827265 163.340811 
L 121.131933 163.609927 
L 121.436602 165.402469 
L 121.74127 166.442106 
L 122.045938 166.181056 
L 122.350607 166.726808 
L 122.655275 168.247403 
L 122.959943 168.935574 
L 123.264611 168.845004 
L 123.56928 169.460118 
L 123.873948 170.75284 
L 124.178616 171.460555 
L 124.483285 171.584688 
L 124.787953 172.126278 
L 125.39729 174.185922 
L 126.006626 174.933223 
L 126.920631 177.524398 
L 127.529968 178.449848 
L 128.139304 180.157354 
L 128.748641 181.667159 
L 129.662646 183.176305 
L 131.490656 187.107075 
L 132.099992 187.976695 
L 132.404661 188.28667 
L 132.709329 188.420172 
L 133.013997 188.27739 
L 133.318666 187.657691 
L 133.623334 186.541934 
L 134.537339 181.351583 
L 134.842007 180.642835 
L 135.146675 180.807282 
L 135.451344 182.573347 
L 136.06068 188.887176 
L 136.365349 192.061713 
L 136.670017 193.89831 
L 136.974685 193.998542 
L 137.279354 192.828055 
L 137.88869 189.622835 
L 138.193358 188.536871 
L 138.498027 187.867342 
L 138.802695 187.835498 
L 139.107363 188.141192 
L 139.7167 189.927983 
L 140.935373 194.51216 
L 141.54471 196.042147 
L 142.154046 196.958681 
L 142.763383 197.441714 
L 143.068051 197.544311 
L 143.37272 197.521916 
L 143.677388 197.327086 
L 143.982056 196.834372 
L 144.286725 195.884443 
L 144.591393 194.117062 
L 144.896061 191.199943 
L 145.505398 180.05301 
L 146.724071 147.747364 
L 147.028739 144.618797 
L 147.333408 150.521386 
L 147.638076 166.197187 
L 147.942744 196.287657 
L 148.247412 182.371099 
L 148.552081 163.056385 
L 148.856749 160.790955 
L 149.161417 171.72573 
L 149.466086 196.305606 
L 149.770754 188.451808 
L 150.075422 171.472831 
L 150.380091 170.372704 
L 150.684759 182.367694 
L 150.989427 200.044707 
L 151.598764 177.512884 
L 151.903432 179.307304 
L 152.512769 200.757182 
L 153.122105 183.280996 
L 153.426774 186.8252 
L 153.731442 197.181868 
L 154.03611 200.808676 
L 154.340779 193.023983 
L 154.645447 188.586258 
L 154.950115 191.817569 
L 155.254783 199.214136 
L 155.559452 201.643837 
L 156.168788 193.159903 
L 156.473457 194.78801 
L 156.778125 199.626582 
L 157.082793 202.533915 
L 157.387462 200.382338 
L 157.69213 197.275663 
L 157.996798 196.936849 
L 158.606135 202.349208 
L 158.910803 203.01741 
L 159.52014 199.69429 
L 159.824808 199.660637 
L 160.738813 203.760915 
L 161.043481 203.158152 
L 161.34815 202.11303 
L 161.652818 201.606137 
L 161.957486 201.943831 
L 162.566823 203.864662 
L 162.871491 204.367425 
L 163.176159 204.273675 
L 163.785496 203.409649 
L 164.090164 203.239441 
L 164.394833 203.397132 
L 165.613506 204.973608 
L 165.918174 205.078051 
L 166.527511 204.929052 
L 167.441516 204.586287 
L 168.355521 204.539129 
L 169.269525 204.515688 
L 169.878862 204.304509 
L 170.18353 204.071388 
L 170.488199 203.678701 
L 170.792867 203.087329 
L 171.097535 202.15534 
L 171.402204 200.80004 
L 171.706872 198.738037 
L 172.01154 195.893432 
L 172.620877 186.705039 
L 173.534882 164.513219 
L 174.144218 149.79932 
L 174.448887 146.309287 
L 174.753555 144.918228 
L 175.058223 151.814638 
L 175.362892 166.823008 
L 175.66756 197.160768 
L 175.972228 193.038301 
L 176.276896 169.558342 
L 176.581565 162.04535 
L 176.886233 165.024371 
L 177.190901 181.769598 
L 177.49557 205.280042 
L 178.104906 175.314891 
L 178.409575 172.398507 
L 178.714243 182.143813 
L 179.018911 200.866792 
L 179.32358 201.91846 
L 179.628248 186.888535 
L 179.932916 180.908013 
L 180.237584 186.040694 
L 180.542253 199.017478 
L 180.846921 206.106664 
L 181.456258 188.784241 
L 181.760926 189.802241 
L 182.370263 205.996304 
L 182.674931 203.963502 
L 182.979599 196.94158 
L 183.284268 194.288444 
L 183.588936 196.979602 
L 183.893604 203.257024 
L 184.198272 207.015074 
L 184.502941 204.40438 
L 184.807609 200.286855 
L 185.112277 198.879174 
L 185.416946 201.032856 
L 185.721614 204.87642 
L 186.026282 207.306546 
L 186.330951 206.369053 
L 186.635619 203.903377 
L 186.940287 202.498182 
L 187.244955 202.964855 
L 187.854292 206.97407 
L 188.15896 207.72821 
L 188.463629 206.980166 
L 188.768297 205.709839 
L 189.072965 204.953337 
L 189.377634 205.078383 
L 190.291639 207.894974 
L 190.596307 208.096048 
L 190.900975 207.762734 
L 191.510312 206.770291 
L 191.81498 206.615972 
L 192.119648 206.76101 
L 193.64299 208.490662 
L 194.252326 208.407225 
L 195.775668 207.778541 
L 197.29901 207.313267 
L 197.908346 206.775863 
L 198.213014 206.313537 
L 198.517683 205.614887 
L 198.822351 204.628215 
L 199.127019 203.1563 
L 199.431688 201.126363 
L 200.041024 194.394879 
L 200.650361 183.334839 
L 202.173702 147.199298 
L 202.478371 145.108186 
L 202.783039 145.147535 
L 203.087707 153.918498 
L 203.392376 171.566945 
L 203.697044 203.703116 
L 204.001712 189.595676 
L 204.306381 168.062297 
L 204.611049 162.082401 
L 204.915717 165.789884 
L 205.220385 182.906332 
L 205.525054 207.390018 
L 206.13439 176.848856 
L 206.439059 172.76078 
L 206.743727 180.87287 
L 207.048395 198.808565 
L 207.353064 207.027951 
L 207.657732 191.556361 
L 207.9624 182.695654 
L 208.267068 184.819493 
L 208.876405 208.026194 
L 209.181073 202.935773 
L 209.485742 192.820657 
L 209.79041 190.174484 
L 210.095078 194.722572 
L 210.399747 204.328154 
L 210.704415 208.736719 
L 211.313752 197.248929 
L 211.61842 196.759048 
L 212.227756 207.499393 
L 212.532425 208.783652 
L 213.141761 201.508929 
L 213.44643 201.507723 
L 214.360435 209.348887 
L 215.274439 204.562609 
L 215.579108 205.76447 
L 216.188444 209.454368 
L 216.493113 209.411368 
L 217.102449 207.177912 
L 217.407118 206.932914 
L 217.711786 207.621144 
L 218.321123 209.639483 
L 218.625791 209.88721 
L 218.930459 209.522966 
L 219.539796 208.5527 
L 219.844464 208.561095 
L 220.149132 208.918349 
L 220.758469 209.910052 
L 221.063137 210.145534 
L 221.367806 210.125789 
L 222.281811 209.576086 
L 222.586479 209.561963 
L 223.195815 209.856292 
L 224.10982 210.399141 
L 224.719157 210.484731 
L 227.76584 210.327027 
L 228.984513 210.279346 
L 229.59385 210.100184 
L 230.203186 209.666311 
L 230.507855 209.269048 
L 230.812523 208.687116 
L 231.117191 207.806347 
L 231.42186 206.52916 
L 231.726528 204.624848 
L 232.031196 201.992205 
L 232.640533 193.463547 
L 233.249869 180.179467 
L 234.468543 148.514481 
L 234.773211 142.255129 
L 235.077879 141.556263 
L 235.382548 143.732631 
L 235.687216 156.337705 
L 236.296553 206.164788 
L 236.601221 175.184141 
L 236.905889 159.774494 
L 237.210557 158.659944 
L 237.515226 167.218721 
L 238.124562 208.311271 
L 238.429231 183.302543 
L 238.733899 170.98851 
L 239.038567 169.728158 
L 239.343236 180.732682 
L 239.647904 202.164986 
L 239.952572 206.583651 
L 240.25724 188.325074 
L 240.561909 179.811193 
L 240.866577 182.879596 
L 241.475914 210.041939 
L 241.780582 203.518104 
L 242.08525 191.680454 
L 242.389919 188.535062 
L 242.694587 193.159374 
L 242.999255 204.329312 
L 243.303924 211.21033 
L 243.91326 197.368415 
L 244.217928 195.729821 
L 244.522597 200.223696 
L 244.827265 207.696437 
L 245.131933 211.488778 
L 246.045938 201.458729 
L 246.350607 203.695802 
L 246.959943 211.570603 
L 247.264611 210.771494 
L 247.873948 205.824487 
L 248.178616 206.173742 
L 249.092621 212.002966 
L 249.39729 211.232203 
L 250.006626 208.596748 
L 250.311295 208.64044 
L 250.615963 209.611076 
L 251.225299 211.975116 
L 251.529968 212.185235 
L 251.834636 211.705312 
L 252.443973 210.54258 
L 252.748641 210.518412 
L 253.053309 210.918321 
L 253.662646 212.057659 
L 253.967314 212.360096 
L 254.271982 212.372356 
L 255.490656 211.615266 
L 256.099992 211.844573 
L 257.013997 212.466426 
L 257.623334 212.61056 
L 258.537339 212.476241 
L 259.756012 212.322315 
L 262.498027 212.256293 
L 263.107363 212.029309 
L 263.7167 211.532507 
L 264.021368 211.113865 
L 264.326037 210.487189 
L 264.630705 209.60463 
L 264.935373 208.289161 
L 265.240041 206.475893 
L 265.849378 200.415625 
L 266.458715 190.282607 
L 268.286725 150.362761 
L 268.591393 147.225842 
L 268.896061 150.078914 
L 269.200729 156.72452 
L 269.505398 173.400042 
L 269.810066 201.148484 
L 270.114734 201.183368 
L 270.419403 178.246554 
L 270.724071 166.626888 
L 271.028739 165.025973 
L 271.333408 169.607968 
L 271.638076 183.445055 
L 271.942744 204.645182 
L 272.247412 208.692803 
L 272.552081 191.200577 
L 272.856749 180.153666 
L 273.161417 177.804352 
L 273.466086 181.397463 
L 274.380091 210.913481 
L 274.989427 191.010354 
L 275.294096 189.066917 
L 275.598764 192.344416 
L 276.2081 210.223605 
L 276.512769 212.01542 
L 277.122105 199.70329 
L 277.426774 197.491337 
L 277.731442 198.743929 
L 278.645447 212.702354 
L 278.950115 211.945187 
L 279.559452 205.524849 
L 279.86412 204.257783 
L 280.168788 205.179261 
L 281.082793 212.714103 
L 281.387462 213.075303 
L 281.69213 211.906701 
L 282.301467 209.027399 
L 282.606135 208.56218 
L 282.910803 208.963186 
L 283.52014 211.167039 
L 284.129476 213.095828 
L 284.434145 213.380426 
L 284.738813 213.219418 
L 285.957486 211.525057 
L 286.262154 211.445473 
L 286.566823 211.525511 
L 287.176159 212.056678 
L 288.090164 213.003727 
L 288.699501 213.398304 
L 289.308838 213.581793 
L 290.222842 213.612549 
L 291.441516 213.416657 
L 292.355521 213.015417 
L 292.964857 212.426722 
L 293.269525 211.938695 
L 293.574194 211.217052 
L 293.878862 210.198378 
L 294.18353 208.689079 
L 294.488199 206.608859 
L 295.097535 199.761645 
L 295.706872 188.628208 
L 297.230213 151.595122 
L 297.83955 145.620285 
L 298.144218 149.686051 
L 298.448887 158.146664 
L 298.753555 177.923943 
L 299.058223 207.504643 
L 299.362892 193.071194 
L 299.66756 172.727024 
L 299.972228 163.628267 
L 300.276896 164.459156 
L 300.581565 171.727876 
L 301.190901 211.118815 
L 301.49557 201.851498 
L 301.800238 185.015155 
L 302.104906 176.718935 
L 302.409575 177.205926 
L 302.714243 183.758315 
L 303.32358 212.376678 
L 303.628248 206.281128 
L 303.932916 194.253821 
L 304.237584 188.113236 
L 304.542253 189.19181 
L 304.846921 195.5606 
L 305.456258 213.21504 
L 305.760926 208.644832 
L 306.065594 201.158144 
L 306.370263 196.998068 
L 306.674931 197.589323 
L 306.979599 201.663833 
L 307.588936 213.016104 
L 307.893604 212.669696 
L 308.502941 205.12867 
L 308.807609 203.845853 
L 309.112277 204.833624 
L 310.026282 213.549767 
L 310.330951 213.423269 
L 311.244955 208.715562 
L 311.549624 208.878753 
L 311.854292 209.941629 
L 312.463629 212.997727 
L 312.768297 213.848609 
L 313.072965 213.911879 
L 313.377634 213.375642 
L 313.98697 211.946085 
L 314.291639 211.604061 
L 314.596307 211.60648 
L 314.900975 211.955157 
L 316.119648 213.972038 
L 316.424317 214.12578 
L 316.728985 214.100752 
L 317.64299 213.535168 
L 318.252326 213.242274 
L 318.861663 213.175167 
L 319.775668 213.341866 
L 321.29901 213.68005 
L 322.517683 213.692818 
L 323.127019 213.53583 
L 323.736356 213.159731 
L 324.345693 212.35899 
L 324.955029 210.716346 
L 325.564366 207.46016 
L 326.173702 201.465068 
L 326.783039 191.787807 
L 328.915717 148.417646 
L 329.220385 149.215741 
L 329.525054 152.065312 
L 329.829722 162.938684 
L 330.13439 181.650155 
L 330.439059 208.841257 
L 330.743727 196.563789 
L 331.048395 176.473509 
L 331.353064 167.729732 
L 331.657732 165.308581 
L 331.9624 170.836454 
L 332.267068 182.063152 
L 332.571737 201.399974 
L 332.876405 213.061139 
L 333.485742 185.860702 
L 333.79041 179.856872 
L 334.095078 181.023943 
L 334.399747 187.09288 
L 335.009083 211.951665 
L 335.313752 210.887692 
L 335.923088 193.420053 
L 336.227756 191.698265 
L 336.532425 194.208466 
L 337.44643 214.084492 
L 337.751098 210.943704 
L 338.360435 201.34208 
L 338.665103 200.221077 
L 338.969771 202.137336 
L 339.883776 213.841125 
L 340.188444 214.014451 
L 341.102449 207.573251 
L 341.407118 207.285938 
L 341.711786 208.424877 
L 342.625791 214.034086 
L 342.930459 214.500805 
L 343.235127 213.983275 
L 344.149132 211.211874 
L 344.453801 210.972998 
L 344.758469 211.139614 
L 345.367806 212.410424 
L 345.977142 213.875148 
L 346.281811 214.362169 
L 346.586479 214.611798 
L 346.891147 214.639767 
L 347.500484 214.266942 
L 348.414489 213.542986 
L 349.023825 213.291104 
L 349.93783 213.225716 
L 351.461172 213.2376 
L 352.070508 213.055737 
L 352.679845 212.641014 
L 353.289182 211.837513 
L 353.898518 210.360891 
L 354.507855 207.700157 
L 355.117191 203.106591 
L 355.726528 195.859069 
L 356.640533 179.643263 
L 357.859206 157.459871 
L 358.468543 153.734688 
L 358.773211 157.069729 
L 359.077879 162.740468 
L 359.382548 175.570754 
L 359.991884 212.758466 
L 360.905889 174.935596 
L 361.210557 171.274406 
L 361.515226 173.333274 
L 361.819894 178.532705 
L 362.733899 214.007137 
L 363.038567 208.245307 
L 363.343236 197.400855 
L 363.647904 190.546749 
L 363.952572 187.456304 
L 364.25724 188.903841 
L 364.561909 193.215374 
L 365.475914 214.407602 
L 365.780582 212.055471 
L 366.389919 201.7692 
L 366.694587 199.270084 
L 366.999255 199.473085 
L 367.303924 201.442561 
L 368.217928 213.135728 
L 368.522597 214.756364 
L 368.827265 214.079187 
L 369.74127 208.166107 
L 370.045938 207.308419 
L 370.350607 207.455703 
L 370.655275 208.266684 
L 370.959943 209.71219 
L 370.959943 209.71219 
" style="fill:none;stroke:#1f77b4;stroke-linecap:square;stroke-width:1.5;"/>
   </g>
   <g id="line2d_49">
    <path clip-path="url(#p6dddd58bec)" d="M 66.596307 17.853101 
L 67.510312 19.607128 
L 68.424317 22.15879 
L 69.033653 24.622496 
L 69.64299 28.134191 
L 70.252326 33.028827 
L 71.471 44.903879 
L 71.775668 45.896514 
L 72.080336 45.503904 
L 72.385005 44.870243 
L 72.689673 44.807791 
L 73.603678 46.464508 
L 73.908346 46.543757 
L 74.213014 46.203273 
L 75.127019 44.3856 
L 75.431688 44.087209 
L 75.736356 44.068645 
L 76.041024 44.328131 
L 76.650361 45.558792 
L 77.259697 46.944467 
L 77.869034 47.766247 
L 78.478371 48.060888 
L 79.087707 47.947673 
L 79.697044 47.59061 
L 80.001712 47.537681 
L 80.306381 47.641022 
L 80.915717 48.341361 
L 82.13439 50.046831 
L 82.743727 50.43477 
L 83.657732 50.702382 
L 83.9624 51.028156 
L 85.181073 52.939351 
L 86.399747 54.040618 
L 87.009083 54.976433 
L 88.837093 56.628548 
L 89.751098 57.292293 
L 90.360435 57.834275 
L 91.579108 58.515707 
L 92.188444 58.956691 
L 92.797781 59.45987 
L 93.407118 59.835386 
L 94.321123 60.059189 
L 94.930459 60.453982 
L 97.063137 62.269598 
L 97.977142 63.808028 
L 98.281811 64.004939 
L 98.586479 64.981277 
L 98.891147 64.827889 
L 99.195815 66.238645 
L 99.500484 65.892813 
L 100.10982 68.009298 
L 100.414489 68.231123 
L 100.719157 69.740736 
L 101.023825 70.688417 
L 101.328494 71.198982 
L 101.633162 73.336607 
L 101.93783 74.312818 
L 102.242498 74.655066 
L 102.547167 76.134123 
L 102.851835 76.764324 
L 103.461172 79.661095 
L 103.76584 79.917309 
L 104.070508 82.106345 
L 104.375177 83.079918 
L 104.679845 85.499786 
L 104.984513 86.703014 
L 105.289182 88.528133 
L 105.59385 91.177261 
L 105.898518 92.022654 
L 106.203186 94.423366 
L 106.507855 92.518831 
L 106.812523 96.669973 
L 107.117191 98.28574 
L 107.42186 102.645061 
L 107.726528 103.050099 
L 108.031196 102.056132 
L 108.335865 109.390372 
L 108.640533 110.321289 
L 108.945201 106.985202 
L 109.249869 113.783832 
L 109.554538 116.795267 
L 109.859206 113.089911 
L 110.468543 120.700749 
L 110.773211 119.275536 
L 111.687216 124.549184 
L 111.991884 125.085869 
L 112.296553 126.465799 
L 112.601221 129.730469 
L 112.905889 129.419717 
L 113.210557 129.295247 
L 113.515226 134.665542 
L 113.819894 135.389562 
L 114.124562 133.288151 
L 114.429231 138.727934 
L 114.733899 140.927947 
L 115.038567 138.544028 
L 115.343236 142.30061 
L 115.647904 144.225441 
L 115.952572 144.719857 
L 116.25724 147.17915 
L 116.561909 147.219199 
L 116.866577 150.713063 
L 117.171245 152.219409 
L 117.475914 150.191679 
L 117.780582 155.304161 
L 118.08525 156.360024 
L 118.389919 154.291773 
L 118.694587 158.797638 
L 118.999255 159.922754 
L 119.303924 159.720009 
L 119.608592 161.66869 
L 119.91326 162.301459 
L 120.217928 164.535163 
L 120.522597 164.919081 
L 120.827265 164.301465 
L 121.131933 167.242738 
L 121.436602 168.073904 
L 121.74127 166.973969 
L 122.045938 168.845798 
L 122.350607 169.473667 
L 122.959943 171.435675 
L 123.264611 170.945729 
L 123.56928 173.621004 
L 123.873948 174.585473 
L 124.178616 174.036248 
L 124.483285 175.904247 
L 124.787953 176.25948 
L 125.39729 178.62593 
L 125.701958 178.015145 
L 126.006626 180.343435 
L 126.615963 181.444233 
L 126.920631 182.493344 
L 127.225299 182.127666 
L 127.529968 184.190319 
L 127.834636 184.143887 
L 128.139304 185.278926 
L 128.443973 185.873008 
L 128.748641 185.511964 
L 129.053309 186.688829 
L 129.357978 185.765596 
L 129.662646 187.529463 
L 129.967314 187.303922 
L 130.271982 188.569102 
L 130.576651 188.657857 
L 131.185987 189.530169 
L 131.490656 189.261447 
L 131.795324 189.898734 
L 132.099992 189.32917 
L 132.404661 190.514263 
L 132.709329 189.060302 
L 133.013997 190.235059 
L 133.318666 187.211295 
L 133.623334 188.177144 
L 133.928002 183.739012 
L 134.23267 185.216121 
L 134.537339 181.443949 
L 134.842007 184.747379 
L 135.146675 183.207415 
L 135.451344 188.355972 
L 135.756012 188.987742 
L 136.06068 193.280158 
L 136.365349 193.926486 
L 136.974685 193.978196 
L 137.279354 191.442478 
L 137.584022 191.728722 
L 137.88869 189.149981 
L 138.193358 190.443386 
L 138.498027 188.545546 
L 138.802695 190.714581 
L 139.107363 189.63994 
L 139.412032 192.264772 
L 139.7167 191.793203 
L 140.021368 194.218716 
L 140.326037 194.050029 
L 140.630705 195.925755 
L 140.935373 195.752874 
L 141.240041 197.025458 
L 141.54471 196.833162 
L 141.849378 197.692945 
L 142.154046 197.448152 
L 142.458715 198.062634 
L 142.763383 197.740248 
L 143.068051 198.174784 
L 143.37272 197.555359 
L 143.677388 197.712862 
L 143.982056 196.340877 
L 144.286725 195.599208 
L 144.896061 189.159255 
L 145.505398 175.509645 
L 146.114734 158.11027 
L 146.419403 152.225604 
L 146.724071 149.129752 
L 147.028739 155.328078 
L 147.333408 169.270458 
L 147.638076 197.809848 
L 147.942744 186.663701 
L 148.247412 165.449086 
L 148.552081 166.483815 
L 148.856749 173.081192 
L 149.161417 198.089574 
L 149.466086 192.301773 
L 149.770754 172.752189 
L 150.075422 175.748753 
L 150.380091 182.510526 
L 150.684759 199.869696 
L 150.989427 192.511169 
L 151.294096 178.208399 
L 151.903432 190.704691 
L 152.2081 199.630911 
L 152.512769 193.89158 
L 152.817437 183.038396 
L 153.122105 191.098604 
L 153.731442 199.170951 
L 154.03611 196.040921 
L 154.340779 187.70291 
L 154.645447 195.131433 
L 155.254783 200.131502 
L 155.559452 198.738757 
L 155.86412 191.928973 
L 156.168788 197.36913 
L 156.473457 197.899083 
L 156.778125 201.481591 
L 157.082793 201.00672 
L 157.387462 195.792891 
L 157.69213 198.821779 
L 157.996798 197.777062 
L 158.301467 202.090204 
L 158.606135 202.29679 
L 158.910803 199.760277 
L 159.215471 200.892978 
L 159.52014 198.235721 
L 159.824808 201.916726 
L 160.129476 201.663847 
L 160.434145 202.825991 
L 160.738813 203.035638 
L 161.043481 200.759306 
L 161.34815 202.305139 
L 161.652818 200.661616 
L 161.957486 203.033799 
L 162.262154 202.685801 
L 162.566823 203.556248 
L 162.871491 203.699278 
L 163.176159 202.649952 
L 163.480828 203.464711 
L 163.785496 202.05758 
L 164.090164 203.531622 
L 164.394833 202.606082 
L 164.699501 204.026008 
L 165.004169 203.616943 
L 165.308838 204.245986 
L 165.613506 204.251271 
L 165.918174 204.020834 
L 166.222842 204.40346 
L 166.527511 203.644865 
L 166.832179 204.362247 
L 167.136847 203.411368 
L 167.441516 204.340686 
L 167.746184 203.33571 
L 168.050852 204.374147 
L 168.355521 203.33496 
L 168.660189 204.397952 
L 168.964857 203.277758 
L 169.269525 204.350713 
L 169.574194 203.044524 
L 169.878862 204.122828 
L 170.18353 202.437466 
L 170.488199 203.492655 
L 170.792867 201.059233 
L 171.097535 201.907142 
L 171.402204 198.094668 
L 171.706872 198.15991 
L 172.01154 192.123801 
L 172.316209 190.381454 
L 172.620877 181.711735 
L 172.925545 177.65591 
L 173.230213 167.359892 
L 173.534882 162.512953 
L 173.83955 153.262872 
L 174.144218 151.828212 
L 174.448887 148.29549 
L 175.058223 168.435789 
L 175.362892 200.299611 
L 175.66756 197.027282 
L 175.972228 170.761508 
L 176.276896 167.576534 
L 176.581565 166.849722 
L 177.190901 202.913365 
L 177.800238 179.421606 
L 178.104906 174.097544 
L 178.714243 199.154221 
L 179.018911 200.064761 
L 179.628248 181.512535 
L 180.542253 203.944525 
L 180.846921 198.428998 
L 181.151589 188.328216 
L 181.456258 193.02629 
L 181.760926 195.756659 
L 182.065594 204.747705 
L 182.370263 203.84306 
L 182.674931 195.33586 
L 182.979599 196.983976 
L 183.284268 195.430165 
L 183.588936 203.595445 
L 183.893604 205.03902 
L 184.198272 202.0609 
L 184.502941 201.474742 
L 184.807609 197.228553 
L 185.112277 201.925209 
L 185.416946 202.478726 
L 185.721614 205.411388 
L 186.026282 205.259287 
L 186.330951 201.59279 
L 186.635619 203.132101 
L 186.940287 200.786418 
L 187.244955 204.781161 
L 187.549624 204.64519 
L 187.854292 205.754848 
L 188.15896 205.885699 
L 188.463629 203.435369 
L 188.768297 204.814162 
L 189.072965 202.917649 
L 189.377634 205.368884 
L 189.682302 204.843577 
L 189.98697 206.242763 
L 190.291639 206.246423 
L 190.596307 205.592301 
L 190.900975 206.113819 
L 191.205643 204.592217 
L 191.510312 205.880418 
L 191.81498 204.594836 
L 192.119648 206.210145 
L 192.424317 205.432632 
L 192.728985 206.618575 
L 193.033653 206.291463 
L 193.338322 206.642465 
L 193.64299 206.714109 
L 193.947658 206.340104 
L 194.252326 206.780573 
L 194.556995 205.989448 
L 194.861663 206.725097 
L 195.166331 205.747036 
L 195.471 206.678483 
L 195.775668 205.611073 
L 196.080336 206.650488 
L 196.385005 205.495471 
L 196.689673 206.593807 
L 196.994341 205.27928 
L 197.29901 206.42366 
L 197.603678 204.808609 
L 197.908346 205.981153 
L 198.213014 203.806567 
L 198.517683 204.907542 
L 198.822351 201.725736 
L 199.127019 202.417032 
L 199.431688 197.543219 
L 199.736356 197.076532 
L 200.041024 189.874004 
L 200.345693 187.384822 
L 200.650361 177.960376 
L 200.955029 173.594202 
L 201.259697 163.314883 
L 201.564366 159.149896 
L 201.869034 150.522993 
L 202.173702 150.734573 
L 202.478371 148.16273 
L 203.087707 172.188785 
L 203.392376 205.478764 
L 203.697044 194.981079 
L 204.001712 168.990315 
L 204.306381 167.743947 
L 204.611049 167.282817 
L 205.220385 204.544057 
L 205.829722 180.869737 
L 206.13439 174.380629 
L 207.048395 204.842469 
L 207.657732 183.164764 
L 208.267068 194.360515 
L 208.571737 206.704371 
L 208.876405 203.675017 
L 209.181073 191.960353 
L 209.485742 193.326511 
L 209.79041 193.592334 
L 210.095078 204.614955 
L 210.399747 206.925083 
L 210.704415 200.659041 
L 211.009083 199.497201 
L 211.313752 195.540124 
L 211.61842 202.713417 
L 211.923088 205.127903 
L 212.227756 206.499704 
L 212.532425 205.012174 
L 212.837093 199.854335 
L 213.141761 202.492726 
L 213.44643 202.346632 
L 213.751098 207.00375 
L 214.055766 207.462426 
L 214.360435 205.195551 
L 214.665103 205.649969 
L 214.969771 202.481125 
L 215.274439 206.11404 
L 215.579108 205.644885 
L 215.883776 208.005936 
L 216.188444 208.036105 
L 216.493113 206.077736 
L 216.797781 206.960301 
L 217.102449 204.880023 
L 217.407118 207.178699 
L 217.711786 206.635313 
L 218.016454 208.19753 
L 218.321123 208.203385 
L 218.625791 207.519757 
L 218.930459 208.096415 
L 219.235127 206.495645 
L 219.539796 207.997509 
L 219.844464 206.86218 
L 220.149132 208.465133 
L 220.453801 207.986665 
L 220.758469 208.531547 
L 221.063137 208.612895 
L 221.367806 207.974525 
L 221.672474 208.625684 
L 221.977142 207.537437 
L 222.281811 208.623932 
L 222.586479 207.663366 
L 222.891147 208.796594 
L 223.195815 208.172363 
L 223.500484 208.942406 
L 223.805152 208.676203 
L 224.10982 208.900548 
L 224.414489 208.973588 
L 224.719157 208.723509 
L 225.023825 209.086579 
L 225.328494 208.545984 
L 225.633162 209.129898 
L 225.93783 208.452374 
L 226.242498 209.17633 
L 226.547167 208.445643 
L 226.851835 209.239936 
L 227.156503 208.481763 
L 227.461172 209.305376 
L 227.76584 208.51318 
L 228.070508 209.351887 
L 228.375177 208.493183 
L 228.679845 209.364728 
L 228.984513 208.372613 
L 229.289182 209.316776 
L 229.59385 208.069581 
L 229.898518 209.131687 
L 230.203186 207.416045 
L 230.507855 208.609472 
L 230.812523 206.046761 
L 231.117191 207.240415 
L 231.42186 203.207924 
L 231.726528 203.921351 
L 232.031196 197.619231 
L 232.335865 196.86702 
L 232.640533 187.798619 
L 232.945201 184.766298 
L 233.249869 173.583939 
L 233.554538 169.003189 
L 233.859206 157.490155 
L 234.163874 154.085294 
L 234.468543 144.933623 
L 234.773211 147.724494 
L 235.077879 145.665753 
L 235.991884 202.023039 
L 236.601221 160.332009 
L 236.905889 165.185758 
L 237.210557 167.907824 
L 237.515226 195.499896 
L 237.819894 208.028283 
L 238.124562 183.859026 
L 238.429231 175.153141 
L 238.733899 171.83011 
L 239.343236 200.890127 
L 239.647904 204.746018 
L 240.25724 180.827789 
L 240.866577 194.28855 
L 241.171245 208.944592 
L 241.475914 204.727675 
L 241.780582 191.427345 
L 242.08525 191.848723 
L 242.389919 192.939667 
L 242.694587 205.078338 
L 242.999255 209.447333 
L 243.608592 199.222993 
L 243.91326 196.000495 
L 244.522597 206.370522 
L 244.827265 209.730715 
L 245.131933 207.290417 
L 245.436602 202.284636 
L 245.74127 202.456219 
L 246.045938 202.896331 
L 246.350607 208.15915 
L 246.655275 209.978266 
L 247.264611 208.291466 
L 247.56928 204.860532 
L 247.873948 207.114288 
L 248.178616 207.2404 
L 248.483285 210.370763 
L 248.787953 210.880522 
L 249.39729 209.369791 
L 249.701958 207.849803 
L 250.006626 208.564157 
L 250.311295 208.780399 
L 250.615963 210.428046 
L 250.920631 210.935705 
L 251.225299 211.22587 
L 251.529968 211.150601 
L 251.834636 210.0551 
L 252.139304 210.468497 
L 252.443973 209.604817 
L 252.748641 210.716132 
L 253.053309 210.507842 
L 253.357978 211.389301 
L 254.271982 211.437649 
L 254.576651 210.913731 
L 254.881319 211.16843 
L 255.185987 210.673093 
L 255.490656 211.190255 
L 255.795324 210.904402 
L 256.099992 211.459556 
L 256.404661 211.340496 
L 256.709329 211.688021 
L 257.318666 211.701316 
L 257.623334 211.741402 
L 257.928002 211.565224 
L 258.23267 211.708063 
L 258.537339 211.426474 
L 258.842007 211.669603 
L 259.146675 211.350255 
L 259.451344 211.66539 
L 259.756012 211.346068 
L 260.06068 211.676326 
L 260.365349 211.364628 
L 260.670017 211.693115 
L 260.974685 211.374064 
L 261.279354 211.687846 
L 261.584022 211.351123 
L 261.88869 211.66433 
L 262.193358 211.258682 
L 262.498027 211.585332 
L 262.802695 211.050363 
L 263.107363 211.380731 
L 263.412032 210.59665 
L 263.7167 210.901701 
L 264.021368 209.671304 
L 264.326037 209.798806 
L 264.630705 207.766262 
L 264.935373 207.371065 
L 265.240041 203.90827 
L 265.54471 202.369531 
L 265.849378 196.712644 
L 266.154046 193.482756 
L 266.458715 185.293262 
L 266.763383 180.762265 
L 267.068051 170.778002 
L 267.37272 166.75009 
L 267.677388 156.745307 
L 267.982056 156.378996 
L 268.286725 149.213306 
L 268.591393 157.334584 
L 268.896061 157.18972 
L 269.200729 183.168382 
L 269.505398 196.421894 
L 269.810066 196.630146 
L 270.114734 186.51694 
L 270.419403 167.146737 
L 270.724071 171.096279 
L 271.028739 170.932071 
L 271.638076 203.17622 
L 271.942744 207.066195 
L 272.552081 181.904365 
L 272.856749 181.671881 
L 273.161417 182.948048 
L 273.770754 205.984506 
L 274.075422 208.948507 
L 274.380091 202.204331 
L 274.684759 191.155878 
L 274.989427 192.655936 
L 275.294096 192.430315 
L 275.598764 202.828797 
L 275.903432 208.288774 
L 276.2081 210.165368 
L 276.512769 206.565691 
L 276.817437 199.751873 
L 277.122105 199.372446 
L 277.426774 199.212958 
L 278.03611 207.979573 
L 278.340779 211.320932 
L 278.645447 210.871055 
L 278.950115 207.467314 
L 279.254783 206.302735 
L 279.559452 203.7665 
L 279.86412 206.459342 
L 280.168788 206.605712 
L 280.473457 210.857964 
L 281.082793 212.056755 
L 281.387462 211.80213 
L 281.69213 209.347399 
L 281.996798 209.573163 
L 282.301467 208.032079 
L 282.606135 209.336894 
L 282.910803 209.325942 
L 283.215471 210.968153 
L 283.52014 211.469619 
L 283.824808 212.416585 
L 284.129476 212.568715 
L 284.434145 212.385118 
L 284.738813 212.368448 
L 285.043481 211.453173 
L 285.34815 211.761045 
L 285.652818 210.740702 
L 285.957486 211.486417 
L 286.262154 210.681768 
L 286.566823 211.667358 
L 286.871491 211.129966 
L 287.176159 212.065477 
L 287.480828 211.738808 
L 287.785496 212.445938 
L 288.090164 212.244713 
L 288.394833 212.663732 
L 288.699501 212.562494 
L 289.004169 212.731199 
L 290.222842 212.631585 
L 290.527511 212.761826 
L 290.832179 212.519738 
L 291.136847 212.71976 
L 291.441516 212.345412 
L 291.746184 212.618006 
L 292.050852 212.05383 
L 292.355521 212.369948 
L 292.660189 211.516248 
L 292.964857 211.800989 
L 293.269525 210.443449 
L 293.574194 210.512308 
L 293.878862 208.249197 
L 294.18353 207.679343 
L 294.488199 203.819254 
L 294.792867 201.957023 
L 295.097535 195.700633 
L 295.402204 192.068945 
L 295.706872 183.242111 
L 296.01154 178.435513 
L 296.316209 168.028115 
L 296.620877 164.045237 
L 296.925545 154.048318 
L 297.230213 154.209499 
L 297.534882 147.546517 
L 297.83955 157.062247 
L 298.144218 158.291443 
L 298.448887 188.156329 
L 298.753555 203.392381 
L 299.058223 189.157639 
L 299.362892 180.823846 
L 299.66756 164.351914 
L 299.972228 170.524031 
L 300.276896 172.83376 
L 300.886233 209.238695 
L 301.190901 201.130882 
L 301.800238 178.837535 
L 302.104906 180.906536 
L 302.409575 185.233918 
L 303.018911 210.52797 
L 303.628248 197.349974 
L 303.932916 188.671793 
L 304.542253 195.309398 
L 304.846921 207.234068 
L 305.151589 211.410169 
L 306.065594 197.461913 
L 306.674931 201.828053 
L 306.979599 208.213305 
L 307.284268 211.521002 
L 307.588936 211.199013 
L 307.893604 208.65795 
L 308.198272 204.777876 
L 308.502941 205.014389 
L 308.807609 204.427625 
L 309.112277 208.724515 
L 309.416946 210.122034 
L 309.721614 212.940698 
L 310.026282 212.982508 
L 310.330951 210.598736 
L 310.635619 210.598755 
L 310.940287 208.073635 
L 311.244955 209.695192 
L 311.549624 209.316579 
L 311.854292 211.538465 
L 312.15896 212.114667 
L 312.463629 213.103914 
L 312.768297 213.166629 
L 313.072965 212.562394 
L 313.377634 212.39886 
L 313.682302 211.325437 
L 313.98697 211.785647 
L 314.291639 210.99542 
L 314.596307 212.139385 
L 314.900975 211.731912 
L 315.205643 212.921302 
L 315.510312 212.744222 
L 315.81498 213.365606 
L 316.424317 213.226261 
L 316.728985 213.318081 
L 317.033653 212.803037 
L 317.338322 213.089912 
L 317.64299 212.4512 
L 317.947658 212.906744 
L 318.252326 212.301958 
L 318.556995 212.867451 
L 318.861663 212.334156 
L 319.166331 212.925912 
L 319.471 212.456829 
L 319.775668 213.036869 
L 320.080336 212.595008 
L 320.385005 213.146057 
L 320.689673 212.717455 
L 320.994341 213.230271 
L 321.29901 212.794772 
L 321.603678 213.27408 
L 321.908346 212.807684 
L 322.213014 213.252091 
L 322.517683 212.723779 
L 322.822351 213.138224 
L 323.127019 212.480666 
L 323.431688 212.867749 
L 323.736356 211.96905 
L 324.041024 212.292656 
L 324.345693 210.936388 
L 324.650361 211.08634 
L 324.955029 208.878695 
L 325.259697 208.563995 
L 325.564366 204.901289 
L 325.869034 203.619108 
L 326.173702 197.844231 
L 326.478371 195.100779 
L 326.783039 187.007058 
L 327.087707 183.044223 
L 327.392376 173.298384 
L 327.697044 169.496806 
L 328.001712 159.602625 
L 328.306381 158.455857 
L 328.611049 150.551955 
L 328.915717 155.840537 
L 329.220385 153.199668 
L 329.525054 171.381539 
L 329.829722 179.230764 
L 330.13439 211.356073 
L 330.439059 204.362861 
L 330.743727 175.743656 
L 331.048395 174.144964 
L 331.353064 166.754039 
L 331.9624 183.003336 
L 332.267068 203.845173 
L 332.571737 212.069225 
L 333.181073 189.208171 
L 333.485742 181.814486 
L 334.095078 188.313643 
L 334.704415 209.950461 
L 335.009083 208.890512 
L 335.313752 202.798646 
L 335.61842 193.656453 
L 335.923088 194.85376 
L 336.227756 194.502435 
L 336.532425 203.203428 
L 337.141761 212.77303 
L 337.44643 210.89307 
L 337.751098 204.850899 
L 338.360435 200.770948 
L 338.969771 205.682702 
L 339.274439 210.421966 
L 339.579108 212.440213 
L 339.883776 212.688683 
L 340.188444 211.830531 
L 340.493113 208.336393 
L 340.797781 208.974958 
L 341.102449 206.693224 
L 341.407118 209.782302 
L 341.711786 209.508475 
L 342.016454 212.729957 
L 342.321123 213.062482 
L 342.625791 213.657409 
L 342.930459 213.501126 
L 343.235127 212.098971 
L 343.539796 211.985515 
L 343.844464 210.660058 
L 344.149132 211.275426 
L 344.453801 210.64831 
L 344.758469 211.947153 
L 345.063137 211.773155 
L 345.367806 213.1645 
L 345.672474 213.093191 
L 345.977142 213.926668 
L 346.586479 213.852638 
L 346.891147 213.898804 
L 347.195815 213.315335 
L 347.500484 213.584251 
L 347.805152 212.781413 
L 348.10982 213.289408 
L 348.414489 212.456951 
L 348.719157 213.134945 
L 349.023825 212.347689 
L 349.328494 213.090219 
L 349.633162 212.351247 
L 349.93783 213.105047 
L 350.242498 212.380468 
L 350.547167 213.116446 
L 350.851835 212.375199 
L 351.156503 213.090959 
L 351.461172 212.271724 
L 351.76584 212.988745 
L 352.070508 212.009045 
L 352.375177 212.719488 
L 352.679845 211.482308 
L 352.984513 212.149532 
L 353.289182 210.502477 
L 353.59385 211.032774 
L 353.898518 208.736205 
L 354.203186 208.907256 
L 354.507855 205.609554 
L 354.812523 205.092667 
L 355.117191 200.336651 
L 355.42186 198.799449 
L 355.726528 192.281386 
L 356.031196 189.712552 
L 356.335865 181.606829 
L 356.640533 178.690603 
L 356.945201 169.802317 
L 357.249869 168.014895 
L 357.554538 159.694231 
L 357.859206 161.305703 
L 358.163874 155.537422 
L 358.468543 163.874916 
L 358.773211 163.311988 
L 359.077879 183.828781 
L 359.382548 192.004961 
L 359.687216 211.628779 
L 359.991884 204.864759 
L 360.296553 182.763724 
L 360.601221 180.332175 
L 360.905889 173.03382 
L 361.210557 177.774729 
L 361.515226 180.294872 
L 362.124562 202.845646 
L 362.429231 212.913907 
L 362.733899 209.127119 
L 363.038567 197.630239 
L 363.647904 188.763255 
L 363.952572 192.010237 
L 364.25724 193.848671 
L 364.561909 202.873892 
L 365.171245 212.928335 
L 365.475914 211.813505 
L 365.780582 205.524663 
L 366.08525 203.808439 
L 366.389919 199.621563 
L 366.694587 201.620283 
L 366.999255 201.738469 
L 367.303924 206.32375 
L 367.608592 208.727989 
L 367.91326 212.421818 
L 368.217928 213.375157 
L 368.827265 211.821818 
L 369.131933 209.010844 
L 369.436602 209.138867 
L 369.74127 206.851786 
L 370.045938 208.856026 
L 370.350607 207.694976 
L 370.655275 210.768053 
L 370.959943 210.465685 
L 370.959943 210.465685 
" style="fill:none;stroke:#ff7f0e;stroke-linecap:square;stroke-width:1.5;"/>
   </g>
   <g id="patch_3">
    <path d="M 51.378125 224.64 
L 51.378125 7.2 
" style="fill:none;stroke:#000000;stroke-linecap:square;stroke-linejoin:miter;stroke-width:0.8;"/>
   </g>
   <g id="patch_4">
    <path d="M 386.178125 224.64 
L 386.178125 7.2 
" style="fill:none;stroke:#000000;stroke-linecap:square;stroke-linejoin:miter;stroke-width:0.8;"/>
   </g>
   <g id="patch_5">
    <path d="M 51.378125 224.64 
L 386.178125 224.64 
" style="fill:none;stroke:#000000;stroke-linecap:square;stroke-linejoin:miter;stroke-width:0.8;"/>
   </g>
   <g id="patch_6">
    <path d="M 51.378125 7.2 
L 386.178125 7.2 
" style="fill:none;stroke:#000000;stroke-linecap:square;stroke-linejoin:miter;stroke-width:0.8;"/>
   </g>
   <g id="legend_1">
    <g id="patch_7">
     <path d="M 297.94375 44.55625 
L 379.178125 44.55625 
Q 381.178125 44.55625 381.178125 42.55625 
L 381.178125 14.2 
Q 381.178125 12.2 379.178125 12.2 
L 297.94375 12.2 
Q 295.94375 12.2 295.94375 14.2 
L 295.94375 42.55625 
Q 295.94375 44.55625 297.94375 44.55625 
z
" style="fill:#ffffff;opacity:0.8;stroke:#cccccc;stroke-linejoin:miter;"/>
    </g>
    <g id="line2d_50">
     <path d="M 299.94375 20.298437 
L 319.94375 20.298437 
" style="fill:none;stroke:#1f77b4;stroke-linecap:square;stroke-width:1.5;"/>
    </g>
    <g id="line2d_51"/>
    <g id="text_13">
     <!-- train -->
     <g transform="translate(327.94375 23.798437)scale(0.1 -0.1)">
      <defs>
       <path d="M 18.3125 70.21875 
L 18.3125 54.6875 
L 36.8125 54.6875 
L 36.8125 47.703125 
L 18.3125 47.703125 
L 18.3125 18.015625 
Q 18.3125 11.328125 20.140625 9.421875 
Q 21.96875 7.515625 27.59375 7.515625 
L 36.8125 7.515625 
L 36.8125 0 
L 27.59375 0 
Q 17.1875 0 13.234375 3.875 
Q 9.28125 7.765625 9.28125 18.015625 
L 9.28125 47.703125 
L 2.6875 47.703125 
L 2.6875 54.6875 
L 9.28125 54.6875 
L 9.28125 70.21875 
z
" id="DejaVuSans-116"/>
       <path d="M 41.109375 46.296875 
Q 39.59375 47.171875 37.8125 47.578125 
Q 36.03125 48 33.890625 48 
Q 26.265625 48 22.1875 43.046875 
Q 18.109375 38.09375 18.109375 28.8125 
L 18.109375 0 
L 9.078125 0 
L 9.078125 54.6875 
L 18.109375 54.6875 
L 18.109375 46.1875 
Q 20.953125 51.171875 25.484375 53.578125 
Q 30.03125 56 36.53125 56 
Q 37.453125 56 38.578125 55.875 
Q 39.703125 55.765625 41.0625 55.515625 
z
" id="DejaVuSans-114"/>
       <path d="M 34.28125 27.484375 
Q 23.390625 27.484375 19.1875 25 
Q 14.984375 22.515625 14.984375 16.5 
Q 14.984375 11.71875 18.140625 8.90625 
Q 21.296875 6.109375 26.703125 6.109375 
Q 34.1875 6.109375 38.703125 11.40625 
Q 43.21875 16.703125 43.21875 25.484375 
L 43.21875 27.484375 
z
M 52.203125 31.203125 
L 52.203125 0 
L 43.21875 0 
L 43.21875 8.296875 
Q 40.140625 3.328125 35.546875 0.953125 
Q 30.953125 -1.421875 24.3125 -1.421875 
Q 15.921875 -1.421875 10.953125 3.296875 
Q 6 8.015625 6 15.921875 
Q 6 25.140625 12.171875 29.828125 
Q 18.359375 34.515625 30.609375 34.515625 
L 43.21875 34.515625 
L 43.21875 35.40625 
Q 43.21875 41.609375 39.140625 45 
Q 35.0625 48.390625 27.6875 48.390625 
Q 23 48.390625 18.546875 47.265625 
Q 14.109375 46.140625 10.015625 43.890625 
L 10.015625 52.203125 
Q 14.9375 54.109375 19.578125 55.046875 
Q 24.21875 56 28.609375 56 
Q 40.484375 56 46.34375 49.84375 
Q 52.203125 43.703125 52.203125 31.203125 
z
" id="DejaVuSans-97"/>
       <path d="M 9.421875 54.6875 
L 18.40625 54.6875 
L 18.40625 0 
L 9.421875 0 
z
M 9.421875 75.984375 
L 18.40625 75.984375 
L 18.40625 64.59375 
L 9.421875 64.59375 
z
" id="DejaVuSans-105"/>
       <path d="M 54.890625 33.015625 
L 54.890625 0 
L 45.90625 0 
L 45.90625 32.71875 
Q 45.90625 40.484375 42.875 44.328125 
Q 39.84375 48.1875 33.796875 48.1875 
Q 26.515625 48.1875 22.3125 43.546875 
Q 18.109375 38.921875 18.109375 30.90625 
L 18.109375 0 
L 9.078125 0 
L 9.078125 54.6875 
L 18.109375 54.6875 
L 18.109375 46.1875 
Q 21.34375 51.125 25.703125 53.5625 
Q 30.078125 56 35.796875 56 
Q 45.21875 56 50.046875 50.171875 
Q 54.890625 44.34375 54.890625 33.015625 
z
" id="DejaVuSans-110"/>
      </defs>
      <use xlink:href="#DejaVuSans-116"/>
      <use x="39.208984" xlink:href="#DejaVuSans-114"/>
      <use x="80.322266" xlink:href="#DejaVuSans-97"/>
      <use x="141.601562" xlink:href="#DejaVuSans-105"/>
      <use x="169.384766" xlink:href="#DejaVuSans-110"/>
     </g>
    </g>
    <g id="line2d_52">
     <path d="M 299.94375 34.976562 
L 319.94375 34.976562 
" style="fill:none;stroke:#ff7f0e;stroke-linecap:square;stroke-width:1.5;"/>
    </g>
    <g id="line2d_53"/>
    <g id="text_14">
     <!-- validation -->
     <g transform="translate(327.94375 38.476562)scale(0.1 -0.1)">
      <defs>
       <path d="M 2.984375 54.6875 
L 12.5 54.6875 
L 29.59375 8.796875 
L 46.6875 54.6875 
L 56.203125 54.6875 
L 35.6875 0 
L 23.484375 0 
z
" id="DejaVuSans-118"/>
       <path d="M 45.40625 46.390625 
L 45.40625 75.984375 
L 54.390625 75.984375 
L 54.390625 0 
L 45.40625 0 
L 45.40625 8.203125 
Q 42.578125 3.328125 38.25 0.953125 
Q 33.9375 -1.421875 27.875 -1.421875 
Q 17.96875 -1.421875 11.734375 6.484375 
Q 5.515625 14.40625 5.515625 27.296875 
Q 5.515625 40.1875 11.734375 48.09375 
Q 17.96875 56 27.875 56 
Q 33.9375 56 38.25 53.625 
Q 42.578125 51.265625 45.40625 46.390625 
z
M 14.796875 27.296875 
Q 14.796875 17.390625 18.875 11.75 
Q 22.953125 6.109375 30.078125 6.109375 
Q 37.203125 6.109375 41.296875 11.75 
Q 45.40625 17.390625 45.40625 27.296875 
Q 45.40625 37.203125 41.296875 42.84375 
Q 37.203125 48.484375 30.078125 48.484375 
Q 22.953125 48.484375 18.875 42.84375 
Q 14.796875 37.203125 14.796875 27.296875 
z
" id="DejaVuSans-100"/>
      </defs>
      <use xlink:href="#DejaVuSans-118"/>
      <use x="59.179688" xlink:href="#DejaVuSans-97"/>
      <use x="120.458984" xlink:href="#DejaVuSans-108"/>
      <use x="148.242188" xlink:href="#DejaVuSans-105"/>
      <use x="176.025391" xlink:href="#DejaVuSans-100"/>
      <use x="239.501953" xlink:href="#DejaVuSans-97"/>
      <use x="300.78125" xlink:href="#DejaVuSans-116"/>
      <use x="339.990234" xlink:href="#DejaVuSans-105"/>
      <use x="367.773438" xlink:href="#DejaVuSans-111"/>
      <use x="428.955078" xlink:href="#DejaVuSans-110"/>
     </g>
    </g>
   </g>
  </g>
 </g>
 <defs>
  <clipPath id="p6dddd58bec">
   <rect height="217.44" width="334.8" x="51.378125" y="7.2"/>
  </clipPath>
 </defs>
</svg>
